<svg width="112" height="37" viewBox="0 0 112 37" fill="none" xmlns="http://www.w3.org/2000/svg">
<rect width="36.5" height="36.5" rx="18.25" fill="white" fill-opacity="0.1"/>
<path d="M16.4163 20.9974V18.2474M20.083 20.9974V18.2474M23.7497 20.9974V18.2474M9.08301 14.5807V10.9141M27.4163 12.7474H9.08301M27.4163 14.5807V10.9141M12.7497 20.9974V18.2474" stroke="white" stroke-width="2.06182" stroke-linecap="round" stroke-linejoin="round"/>
<path d="M25.583 18.248H10.9163C9.90382 18.248 9.08301 19.0689 9.08301 20.0814V23.748C9.08301 24.7606 9.90382 25.5814 10.9163 25.5814H25.583C26.5955 25.5814 27.4163 24.7606 27.4163 23.748V20.0814C27.4163 19.0689 26.5955 18.248 25.583 18.248Z" stroke="white" stroke-width="2.06182" stroke-linecap="round" stroke-linejoin="round"/>
<path d="M49.725 11.4827C49.725 12.0127 49.6367 12.4993 49.46 12.9427C49.2833 13.386 49.035 13.7677 48.715 14.0877C48.395 14.4077 48.01 14.656 47.56 14.8327C47.11 15.0093 46.61 15.0977 46.06 15.0977H43.305V7.86766H46.06C46.61 7.86766 47.11 7.95766 47.56 8.13766C48.01 8.31432 48.395 8.56266 48.715 8.88266C49.035 9.19932 49.2833 9.57932 49.46 10.0227C49.6367 10.466 49.725 10.9527 49.725 11.4827ZM48.345 11.4827C48.345 11.086 48.2917 10.731 48.185 10.4177C48.0817 10.101 47.93 9.83432 47.73 9.61766C47.5333 9.39766 47.2933 9.22932 47.01 9.11266C46.73 8.99599 46.4133 8.93766 46.06 8.93766H44.655V14.0277H46.06C46.4133 14.0277 46.73 13.9693 47.01 13.8527C47.2933 13.736 47.5333 13.5693 47.73 13.3527C47.93 13.1327 48.0817 12.866 48.185 12.5527C48.2917 12.236 48.345 11.8793 48.345 11.4827ZM51.9095 9.96766V15.0977H50.6695V9.96766H51.9095ZM52.0795 8.47266C52.0795 8.57932 52.0579 8.67932 52.0145 8.77266C51.9712 8.86599 51.9129 8.94766 51.8395 9.01766C51.7695 9.08766 51.6862 9.14432 51.5895 9.18766C51.4929 9.22766 51.3895 9.24766 51.2795 9.24766C51.1729 9.24766 51.0712 9.22766 50.9745 9.18766C50.8812 9.14432 50.7995 9.08766 50.7295 9.01766C50.6595 8.94766 50.6029 8.86599 50.5595 8.77266C50.5195 8.67932 50.4995 8.57932 50.4995 8.47266C50.4995 8.36266 50.5195 8.25932 50.5595 8.16266C50.6029 8.06599 50.6595 7.98266 50.7295 7.91266C50.7995 7.84266 50.8812 7.78766 50.9745 7.74766C51.0712 7.70432 51.1729 7.68266 51.2795 7.68266C51.3895 7.68266 51.4929 7.70432 51.5895 7.74766C51.6862 7.78766 51.7695 7.84266 51.8395 7.91266C51.9129 7.98266 51.9712 8.06599 52.0145 8.16266C52.0579 8.25932 52.0795 8.36266 52.0795 8.47266ZM53.1686 15.0977V9.96766H53.9236C54.0836 9.96766 54.1886 10.0427 54.2386 10.1927L54.3186 10.5727C54.4086 10.4727 54.5019 10.381 54.5986 10.2977C54.6986 10.2143 54.8036 10.1427 54.9136 10.0827C55.0269 10.0227 55.1469 9.97599 55.2736 9.94266C55.4036 9.90599 55.5453 9.88766 55.6986 9.88766C56.0219 9.88766 56.2869 9.97599 56.4936 10.1527C56.7036 10.326 56.8603 10.5577 56.9636 10.8477C57.0436 10.6777 57.1436 10.5327 57.2636 10.4127C57.3836 10.2893 57.5153 10.1893 57.6586 10.1127C57.8019 10.036 57.9536 9.97932 58.1136 9.94266C58.2769 9.90599 58.4403 9.88766 58.6036 9.88766C58.8869 9.88766 59.1386 9.93099 59.3586 10.0177C59.5786 10.1043 59.7636 10.231 59.9136 10.3977C60.0636 10.5643 60.1769 10.7677 60.2536 11.0077C60.3336 11.2477 60.3736 11.5227 60.3736 11.8327V15.0977H59.1386V11.8327C59.1386 11.506 59.0669 11.261 58.9236 11.0977C58.7803 10.931 58.5703 10.8477 58.2936 10.8477C58.1669 10.8477 58.0486 10.8693 57.9386 10.9127C57.8319 10.956 57.7369 11.0193 57.6536 11.1027C57.5736 11.1827 57.5103 11.2843 57.4636 11.4077C57.4169 11.531 57.3936 11.6727 57.3936 11.8327V15.0977H56.1536V11.8327C56.1536 11.4893 56.0836 11.2393 55.9436 11.0827C55.8069 10.926 55.6053 10.8477 55.3386 10.8477C55.1586 10.8477 54.9903 10.8927 54.8336 10.9827C54.6803 11.0693 54.5369 11.1893 54.4036 11.3427V15.0977H53.1686ZM64.8525 11.9427C64.8525 11.7827 64.8292 11.6327 64.7825 11.4927C64.7392 11.3493 64.6725 11.2243 64.5825 11.1177C64.4925 11.011 64.3775 10.9277 64.2375 10.8677C64.1008 10.8043 63.9408 10.7727 63.7575 10.7727C63.4008 10.7727 63.1192 10.8743 62.9125 11.0777C62.7092 11.281 62.5792 11.5693 62.5225 11.9427H64.8525ZM62.4975 12.6877C62.5175 12.951 62.5642 13.1793 62.6375 13.3727C62.7108 13.5627 62.8075 13.721 62.9275 13.8477C63.0475 13.971 63.1892 14.0643 63.3525 14.1277C63.5192 14.1877 63.7025 14.2177 63.9025 14.2177C64.1025 14.2177 64.2742 14.1943 64.4175 14.1477C64.5642 14.101 64.6908 14.0493 64.7975 13.9927C64.9075 13.936 65.0025 13.8843 65.0825 13.8377C65.1658 13.791 65.2458 13.7677 65.3225 13.7677C65.4258 13.7677 65.5025 13.806 65.5525 13.8827L65.9075 14.3327C65.7708 14.4927 65.6175 14.6277 65.4475 14.7377C65.2775 14.8443 65.0992 14.931 64.9125 14.9977C64.7292 15.061 64.5408 15.106 64.3475 15.1327C64.1575 15.1593 63.9725 15.1727 63.7925 15.1727C63.4358 15.1727 63.1042 15.1143 62.7975 14.9977C62.4908 14.8777 62.2242 14.7027 61.9975 14.4727C61.7708 14.2393 61.5925 13.9527 61.4625 13.6127C61.3325 13.2693 61.2675 12.8727 61.2675 12.4227C61.2675 12.0727 61.3242 11.7443 61.4375 11.4377C61.5508 11.1277 61.7125 10.8593 61.9225 10.6327C62.1358 10.4027 62.3942 10.221 62.6975 10.0877C63.0042 9.95432 63.3492 9.88766 63.7325 9.88766C64.0558 9.88766 64.3542 9.93932 64.6275 10.0427C64.9008 10.146 65.1358 10.2977 65.3325 10.4977C65.5292 10.6943 65.6825 10.9377 65.7925 11.2277C65.9058 11.5143 65.9625 11.8427 65.9625 12.2127C65.9625 12.3993 65.9425 12.526 65.9025 12.5927C65.8625 12.656 65.7858 12.6877 65.6725 12.6877H62.4975ZM68.0443 10.5977C68.1476 10.4943 68.256 10.3993 68.3693 10.3127C68.486 10.2227 68.6076 10.1477 68.7343 10.0877C68.8643 10.0243 69.0026 9.97599 69.1493 9.94266C69.296 9.90599 69.456 9.88766 69.6293 9.88766C69.9093 9.88766 70.1576 9.93599 70.3743 10.0327C70.591 10.126 70.771 10.2593 70.9143 10.4327C71.061 10.6027 71.171 10.8077 71.2443 11.0477C71.321 11.2843 71.3593 11.546 71.3593 11.8327V15.0977H70.1243V11.8327C70.1243 11.5193 70.0526 11.2777 69.9093 11.1077C69.766 10.9343 69.5476 10.8477 69.2543 10.8477C69.041 10.8477 68.841 10.896 68.6543 10.9927C68.4676 11.0893 68.291 11.221 68.1243 11.3877V15.0977H66.8893V9.96766H67.6443C67.8043 9.96766 67.9093 10.0427 67.9593 10.1927L68.0443 10.5977ZM75.6638 10.9677C75.6305 11.021 75.5955 11.0593 75.5588 11.0827C75.5222 11.1027 75.4755 11.1127 75.4188 11.1127C75.3588 11.1127 75.2938 11.096 75.2238 11.0627C75.1572 11.0293 75.0788 10.9927 74.9888 10.9527C74.8988 10.9093 74.7955 10.871 74.6788 10.8377C74.5655 10.8043 74.4305 10.7877 74.2738 10.7877C74.0305 10.7877 73.8388 10.8393 73.6988 10.9427C73.5622 11.046 73.4938 11.181 73.4938 11.3477C73.4938 11.4577 73.5288 11.551 73.5988 11.6277C73.6722 11.701 73.7672 11.766 73.8838 11.8227C74.0038 11.8793 74.1388 11.931 74.2888 11.9777C74.4388 12.021 74.5905 12.0693 74.7438 12.1227C74.9005 12.176 75.0538 12.2377 75.2038 12.3077C75.3538 12.3743 75.4872 12.461 75.6038 12.5677C75.7238 12.671 75.8188 12.796 75.8888 12.9427C75.9622 13.0893 75.9988 13.266 75.9988 13.4727C75.9988 13.7193 75.9538 13.9477 75.8638 14.1577C75.7772 14.3643 75.6472 14.5443 75.4738 14.6977C75.3005 14.8477 75.0855 14.966 74.8288 15.0527C74.5755 15.136 74.2822 15.1777 73.9488 15.1777C73.7722 15.1777 73.5988 15.161 73.4288 15.1277C73.2622 15.0977 73.1005 15.0543 72.9438 14.9977C72.7905 14.941 72.6472 14.8743 72.5138 14.7977C72.3838 14.721 72.2688 14.6377 72.1688 14.5477L72.4538 14.0777C72.4905 14.021 72.5338 13.9777 72.5838 13.9477C72.6338 13.9177 72.6972 13.9027 72.7738 13.9027C72.8505 13.9027 72.9222 13.9243 72.9888 13.9677C73.0588 14.011 73.1388 14.0577 73.2288 14.1077C73.3188 14.1577 73.4238 14.2043 73.5438 14.2477C73.6672 14.291 73.8222 14.3127 74.0088 14.3127C74.1555 14.3127 74.2805 14.296 74.3838 14.2627C74.4905 14.226 74.5772 14.1793 74.6438 14.1227C74.7138 14.066 74.7638 14.001 74.7938 13.9277C74.8272 13.851 74.8438 13.7727 74.8438 13.6927C74.8438 13.5727 74.8072 13.4743 74.7338 13.3977C74.6638 13.321 74.5688 13.2543 74.4488 13.1977C74.3322 13.141 74.1972 13.091 74.0438 13.0477C73.8938 13.001 73.7388 12.951 73.5788 12.8977C73.4222 12.8443 73.2672 12.7827 73.1138 12.7127C72.9638 12.6393 72.8288 12.5477 72.7088 12.4377C72.5922 12.3277 72.4972 12.1927 72.4238 12.0327C72.3538 11.8727 72.3188 11.6793 72.3188 11.4527C72.3188 11.2427 72.3605 11.0427 72.4438 10.8527C72.5272 10.6627 72.6488 10.4977 72.8088 10.3577C72.9722 10.2143 73.1738 10.101 73.4138 10.0177C73.6572 9.93099 73.9372 9.88766 74.2538 9.88766C74.6072 9.88766 74.9288 9.94599 75.2188 10.0627C75.5088 10.1793 75.7505 10.3327 75.9438 10.5227L75.6638 10.9677ZM78.2084 9.96766V15.0977H76.9684V9.96766H78.2084ZM78.3784 8.47266C78.3784 8.57932 78.3567 8.67932 78.3134 8.77266C78.27 8.86599 78.2117 8.94766 78.1384 9.01766C78.0684 9.08766 77.985 9.14432 77.8884 9.18766C77.7917 9.22766 77.6884 9.24766 77.5784 9.24766C77.4717 9.24766 77.37 9.22766 77.2734 9.18766C77.18 9.14432 77.0984 9.08766 77.0284 9.01766C76.9584 8.94766 76.9017 8.86599 76.8584 8.77266C76.8184 8.67932 76.7984 8.57932 76.7984 8.47266C76.7984 8.36266 76.8184 8.25932 76.8584 8.16266C76.9017 8.06599 76.9584 7.98266 77.0284 7.91266C77.0984 7.84266 77.18 7.78766 77.2734 7.74766C77.37 7.70432 77.4717 7.68266 77.5784 7.68266C77.6884 7.68266 77.7917 7.70432 77.8884 7.74766C77.985 7.78766 78.0684 7.84266 78.1384 7.91266C78.2117 7.98266 78.27 8.06599 78.3134 8.16266C78.3567 8.25932 78.3784 8.36266 78.3784 8.47266ZM81.7374 9.88766C82.1174 9.88766 82.4624 9.94932 82.7724 10.0727C83.0858 10.196 83.3524 10.371 83.5724 10.5977C83.7958 10.8243 83.9674 11.101 84.0874 11.4277C84.2074 11.7543 84.2674 12.1193 84.2674 12.5227C84.2674 12.9293 84.2074 13.296 84.0874 13.6227C83.9674 13.9493 83.7958 14.2277 83.5724 14.4577C83.3524 14.6877 83.0858 14.8643 82.7724 14.9877C82.4624 15.111 82.1174 15.1727 81.7374 15.1727C81.3541 15.1727 81.0058 15.111 80.6924 14.9877C80.3791 14.8643 80.1108 14.6877 79.8874 14.4577C79.6674 14.2277 79.4958 13.9493 79.3724 13.6227C79.2524 13.296 79.1924 12.9293 79.1924 12.5227C79.1924 12.1193 79.2524 11.7543 79.3724 11.4277C79.4958 11.101 79.6674 10.8243 79.8874 10.5977C80.1108 10.371 80.3791 10.196 80.6924 10.0727C81.0058 9.94932 81.3541 9.88766 81.7374 9.88766ZM81.7374 14.2227C82.1641 14.2227 82.4791 14.0793 82.6824 13.7927C82.8891 13.506 82.9924 13.086 82.9924 12.5327C82.9924 11.9793 82.8891 11.5577 82.6824 11.2677C82.4791 10.9777 82.1641 10.8327 81.7374 10.8327C81.3041 10.8327 80.9824 10.9793 80.7724 11.2727C80.5658 11.5627 80.4624 11.9827 80.4624 12.5327C80.4624 13.0827 80.5658 13.5027 80.7724 13.7927C80.9824 14.0793 81.3041 14.2227 81.7374 14.2227ZM86.3646 10.5977C86.4679 10.4943 86.5763 10.3993 86.6896 10.3127C86.8063 10.2227 86.9279 10.1477 87.0546 10.0877C87.1846 10.0243 87.3229 9.97599 87.4696 9.94266C87.6163 9.90599 87.7763 9.88766 87.9496 9.88766C88.2296 9.88766 88.4779 9.93599 88.6946 10.0327C88.9113 10.126 89.0913 10.2593 89.2346 10.4327C89.3813 10.6027 89.4913 10.8077 89.5646 11.0477C89.6413 11.2843 89.6796 11.546 89.6796 11.8327V15.0977H88.4446V11.8327C88.4446 11.5193 88.3729 11.2777 88.2296 11.1077C88.0863 10.9343 87.8679 10.8477 87.5746 10.8477C87.3613 10.8477 87.1613 10.896 86.9746 10.9927C86.7879 11.0893 86.6113 11.221 86.4446 11.3877V15.0977H85.2096V9.96766H85.9646C86.1246 9.96766 86.2296 10.0427 86.2796 10.1927L86.3646 10.5977Z" fill="white"/>
<path d="M42.804 23.2821V22.6181H44.308V28.4021H43.572V23.2821H42.804ZM45.3665 23.2821V22.6181H46.8705V28.4021H46.1345V23.2821H45.3665ZM48.121 25.4501C48.121 24.5328 48.2703 23.8181 48.569 23.3061C48.8677 22.7888 49.3903 22.5301 50.137 22.5301C50.8783 22.5301 51.3983 22.7888 51.697 23.3061C51.9957 23.8181 52.145 24.5328 52.145 25.4501C52.145 26.3834 51.9957 27.1088 51.697 27.6261C51.3983 28.1434 50.8783 28.4021 50.137 28.4021C49.3903 28.4021 48.8677 28.1434 48.569 27.6261C48.2703 27.1088 48.121 26.3834 48.121 25.4501ZM51.425 25.4501C51.425 24.9861 51.393 24.5941 51.329 24.2741C51.2703 23.9488 51.145 23.6874 50.953 23.4901C50.7663 23.2928 50.4943 23.1941 50.137 23.1941C49.7743 23.1941 49.497 23.2928 49.305 23.4901C49.1183 23.6874 48.993 23.9488 48.929 24.2741C48.8703 24.5941 48.841 24.9861 48.841 25.4501C48.841 25.9301 48.8703 26.3328 48.929 26.6581C48.993 26.9834 49.1183 27.2448 49.305 27.4421C49.497 27.6394 49.7743 27.7381 50.137 27.7381C50.4943 27.7381 50.7663 27.6394 50.953 27.4421C51.145 27.2448 51.2703 26.9834 51.329 26.6581C51.393 26.3328 51.425 25.9301 51.425 25.4501ZM58.6293 27.2021L57.3573 25.9301L56.0853 27.2021L55.6053 26.7221L56.8773 25.4501L55.6293 24.2021L56.0933 23.7301L57.3493 24.9861L58.6053 23.7301L59.0853 24.2101L57.8293 25.4661L59.0933 26.7381L58.6293 27.2021ZM63.4867 26.8501C63.54 27.1541 63.6627 27.3888 63.8547 27.5541C64.052 27.7194 64.316 27.8021 64.6467 27.8021C65.0894 27.8021 65.4147 27.6288 65.6227 27.2821C65.836 26.9354 65.9374 26.3514 65.9267 25.5301C65.8147 25.7701 65.628 25.9594 65.3667 26.0981C65.1054 26.2314 64.8147 26.2981 64.4947 26.2981C64.1374 26.2981 63.8174 26.2261 63.5347 26.0821C63.2574 25.9328 63.0387 25.7168 62.8787 25.4341C62.7187 25.1514 62.6387 24.8101 62.6387 24.4101C62.6387 23.8394 62.804 23.3808 63.1347 23.0341C63.4654 22.6821 63.9347 22.5061 64.5427 22.5061C65.2894 22.5061 65.812 22.7488 66.1107 23.2341C66.4147 23.7194 66.5667 24.4421 66.5667 25.4021C66.5667 26.0741 66.5054 26.6288 66.3827 27.0661C66.2654 27.5034 66.0627 27.8368 65.7747 28.0661C65.492 28.2954 65.1027 28.4101 64.6067 28.4101C64.0627 28.4101 63.6387 28.2634 63.3347 27.9701C63.0307 27.6768 62.8574 27.3034 62.8147 26.8501H63.4867ZM64.6147 25.6821C64.972 25.6821 65.2654 25.5728 65.4947 25.3541C65.724 25.1301 65.8387 24.8288 65.8387 24.4501C65.8387 24.0501 65.7267 23.7274 65.5027 23.4821C65.2787 23.2368 64.964 23.1141 64.5587 23.1141C64.1854 23.1141 63.8867 23.2314 63.6627 23.4661C63.444 23.7008 63.3347 24.0101 63.3347 24.3941C63.3347 24.7834 63.444 25.0954 63.6627 25.3301C63.8814 25.5648 64.1987 25.6821 64.6147 25.6821ZM67.4138 27.1141V26.5621L70.2218 22.6741H71.0938V26.4821H71.8938V27.1141H71.0938V28.4021H70.3738V27.1141H67.4138ZM70.4058 23.4341L68.2538 26.4821H70.4058V23.4341ZM78.1058 27.2021L76.8338 25.9301L75.5618 27.2021L75.0818 26.7221L76.3538 25.4501L75.1058 24.2021L75.5698 23.7301L76.8258 24.9861L78.0818 23.7301L78.5618 24.2101L77.3058 25.4661L78.5698 26.7381L78.1058 27.2021ZM81.8513 27.1141V26.5621L84.6593 22.6741H85.5312V26.4821H86.3313V27.1141H85.5312V28.4021H84.8113V27.1141H81.8513ZM84.8433 23.4341L82.6913 26.4821H84.8433V23.4341ZM87.0585 25.4501C87.0585 24.5328 87.2078 23.8181 87.5065 23.3061C87.8052 22.7888 88.3278 22.5301 89.0745 22.5301C89.8158 22.5301 90.3358 22.7888 90.6345 23.3061C90.9332 23.8181 91.0825 24.5328 91.0825 25.4501C91.0825 26.3834 90.9332 27.1088 90.6345 27.6261C90.3358 28.1434 89.8158 28.4021 89.0745 28.4021C88.3278 28.4021 87.8052 28.1434 87.5065 27.6261C87.2078 27.1088 87.0585 26.3834 87.0585 25.4501ZM90.3625 25.4501C90.3625 24.9861 90.3305 24.5941 90.2665 24.2741C90.2078 23.9488 90.0825 23.6874 89.8905 23.4901C89.7038 23.2928 89.4318 23.1941 89.0745 23.1941C88.7118 23.1941 88.4345 23.2928 88.2425 23.4901C88.0558 23.6874 87.9305 23.9488 87.8665 24.2741C87.8078 24.5941 87.7785 24.9861 87.7785 25.4501C87.7785 25.9301 87.8078 26.3328 87.8665 26.6581C87.9305 26.9834 88.0558 27.2448 88.2425 27.4421C88.4345 27.6394 88.7118 27.7381 89.0745 27.7381C89.4318 27.7381 89.7038 27.6394 89.8905 27.4421C90.0825 27.2448 90.2078 26.9834 90.2665 26.6581C90.3305 26.3328 90.3625 25.9301 90.3625 25.4501ZM99.6068 23.9381C99.9481 23.9381 100.252 24.0101 100.519 24.1541C100.785 24.2928 100.996 24.5034 101.151 24.7861C101.305 25.0688 101.383 25.4128 101.383 25.8181V28.4021H100.663V25.9221C100.663 25.4848 100.553 25.1514 100.335 24.9221C100.121 24.6874 99.8308 24.5701 99.4628 24.5701C99.0841 24.5701 98.7828 24.6928 98.5588 24.9381C98.3348 25.1781 98.2228 25.5274 98.2228 25.9861V28.4021H97.5028V25.9221C97.5028 25.4848 97.3934 25.1514 97.1748 24.9221C96.9614 24.6874 96.6708 24.5701 96.3028 24.5701C95.9241 24.5701 95.6228 24.6928 95.3988 24.9381C95.1748 25.1781 95.0628 25.5274 95.0628 25.9861V28.4021H94.3348V24.0181H95.0628V24.6501C95.2068 24.4208 95.3988 24.2448 95.6388 24.1221C95.8841 23.9994 96.1534 23.9381 96.4468 23.9381C96.8148 23.9381 97.1401 24.0208 97.4228 24.1861C97.7054 24.3514 97.9161 24.5941 98.0548 24.9141C98.1774 24.6048 98.3801 24.3648 98.6628 24.1941C98.9454 24.0234 99.2601 23.9381 99.6068 23.9381ZM107.849 23.9381C108.19 23.9381 108.494 24.0101 108.761 24.1541C109.028 24.2928 109.238 24.5034 109.393 24.7861C109.548 25.0688 109.625 25.4128 109.625 25.8181V28.4021H108.905V25.9221C108.905 25.4848 108.796 25.1514 108.577 24.9221C108.364 24.6874 108.073 24.5701 107.705 24.5701C107.326 24.5701 107.025 24.6928 106.801 24.9381C106.577 25.1781 106.465 25.5274 106.465 25.9861V28.4021H105.745V25.9221C105.745 25.4848 105.636 25.1514 105.417 24.9221C105.204 24.6874 104.913 24.5701 104.545 24.5701C104.166 24.5701 103.865 24.6928 103.641 24.9381C103.417 25.1781 103.305 25.5274 103.305 25.9861V28.4021H102.577V24.0181H103.305V24.6501C103.449 24.4208 103.641 24.2448 103.881 24.1221C104.126 23.9994 104.396 23.9381 104.689 23.9381C105.057 23.9381 105.382 24.0208 105.665 24.1861C105.948 24.3514 106.158 24.5941 106.297 24.9141C106.42 24.6048 106.622 24.3648 106.905 24.1941C107.188 24.0234 107.502 23.9381 107.849 23.9381Z" fill="white"/>
</svg>
