<svg width="146" height="30" viewBox="0 0 146 30" fill="none" xmlns="http://www.w3.org/2000/svg">
<path d="M12.3574 12.1104V8.39505C12.3574 7.51915 12.3574 7.08166 12.6296 6.80951C12.9017 6.53735 13.3392 6.53735 14.2151 6.53735H19.7882C20.6641 6.53735 21.1016 6.53735 21.3738 6.80951C21.6459 7.08166 21.6459 7.51915 21.6459 8.39505V12.1104C21.6459 12.9864 21.6459 13.4238 21.3738 13.696C21.1016 13.9681 20.6641 13.9681 19.7882 13.9681H14.2151C13.3392 13.9681 12.9017 13.9681 12.6296 13.696C12.3574 13.4238 12.3574 12.9864 12.3574 12.1104Z" stroke="white" stroke-width="0.696637" stroke-linecap="round"/>
<path d="M20.2529 7.93484V7.93066M20.2529 9.3258V9.32208M20.2529 10.7172V10.713" stroke="white" stroke-width="0.696637" stroke-linecap="round" stroke-linejoin="round"/>
<path d="M13.751 11.6461V8.85951C13.751 8.42156 13.751 8.20282 13.8871 8.06674C14.0231 7.93066 14.2419 7.93066 14.6798 7.93066H17.9308C18.3687 7.93066 18.5875 7.93066 18.7236 8.06674C18.8596 8.20282 18.8596 8.42156 18.8596 8.85951V11.6461C18.8596 12.084 18.8596 12.3028 18.7236 12.4388C18.5875 12.5749 18.3687 12.5749 17.9308 12.5749H14.6798C14.2419 12.5749 14.0231 12.5749 13.8871 12.4388C13.751 12.3028 13.751 12.084 13.751 11.6461Z" stroke="white" stroke-width="0.696637" stroke-linejoin="round"/>
<path d="M13.751 13.9685V14.8974M20.2529 13.9685V14.8974" stroke="white" stroke-width="0.696637" stroke-linecap="round"/>
<path d="M3.57375 24.2575L3.06381 27.1499H2.68344L3.06381 24.9931L1.72209 27.1499H1.45458L0.869403 25.0015L0.489039 27.1499H0.108675L0.622793 24.2575H1.03242L1.68029 26.6483L3.1683 24.2575H3.57375ZM4.37346 24.4874C4.31216 24.4874 4.26061 24.4679 4.21881 24.4288C4.1798 24.387 4.16029 24.3355 4.16029 24.2742C4.16029 24.1906 4.19095 24.1195 4.25225 24.061C4.31355 23.9997 4.38461 23.9691 4.46542 23.9691C4.52951 23.9691 4.58106 23.9886 4.62007 24.0276C4.65909 24.0666 4.67859 24.1181 4.67859 24.1822C4.67859 24.2658 4.64794 24.3383 4.58663 24.3996C4.52533 24.4581 4.45427 24.4874 4.37346 24.4874ZM4.49468 24.8594L4.08924 27.1499H3.70887L4.11432 24.8594H4.49468ZM4.79602 26.0005C4.83782 25.7636 4.92141 25.5574 5.04681 25.3818C5.17499 25.2035 5.33243 25.0656 5.51913 24.968C5.70583 24.8705 5.90785 24.8217 6.1252 24.8217C6.40664 24.8217 6.62539 24.89 6.78143 25.0266C6.94027 25.1631 7.02804 25.3526 7.04476 25.595H6.63514C6.62121 25.4557 6.56408 25.3456 6.46377 25.2648C6.36624 25.184 6.23388 25.1436 6.06668 25.1436C5.84933 25.1436 5.65985 25.2188 5.49823 25.3693C5.33939 25.517 5.23629 25.7274 5.18892 26.0005C5.17499 26.0924 5.16802 26.169 5.16802 26.2303C5.16802 26.4338 5.22236 26.5912 5.33103 26.7027C5.43971 26.8113 5.58461 26.8657 5.76574 26.8657C5.93293 26.8657 6.07783 26.8267 6.20044 26.7486C6.32583 26.6706 6.42197 26.5592 6.48884 26.4143H6.89847C6.79815 26.6483 6.6435 26.8364 6.43451 26.9785C6.22552 27.1179 5.98309 27.1875 5.70722 27.1875C5.4202 27.1875 5.19171 27.1053 5.02173 26.9409C4.85454 26.7765 4.77094 26.5522 4.77094 26.268C4.77094 26.1816 4.7793 26.0924 4.79602 26.0005ZM7.98698 25.2941C8.07894 25.1436 8.19458 25.0266 8.33391 24.943C8.47324 24.8594 8.63207 24.8176 8.81041 24.8176L8.73935 25.2105H8.63904C8.44119 25.2105 8.27539 25.2634 8.14164 25.3693C8.01067 25.4752 7.92289 25.6535 7.87831 25.9043L7.65678 27.1499H7.27641L7.68186 24.8594H8.06222L7.98698 25.2941ZM9.84302 27.1875C9.65075 27.1875 9.48077 27.1485 9.33308 27.0705C9.18818 26.9897 9.07533 26.8782 8.99452 26.7361C8.91371 26.5912 8.8733 26.424 8.8733 26.2345C8.8733 25.9754 8.93321 25.7385 9.05303 25.524C9.17286 25.3066 9.33726 25.1352 9.54625 25.0098C9.75803 24.8844 9.99349 24.8217 10.2526 24.8217C10.4449 24.8217 10.6149 24.8621 10.7626 24.943C10.9131 25.021 11.0287 25.1324 11.1095 25.2773C11.1931 25.4195 11.2349 25.5866 11.2349 25.7789C11.2349 26.0381 11.1736 26.2749 11.051 26.4895C10.9284 26.7041 10.7612 26.874 10.5494 26.9994C10.3376 27.1248 10.1022 27.1875 9.84302 27.1875ZM9.889 26.8657C10.0701 26.8657 10.2331 26.8169 10.378 26.7194C10.5229 26.6191 10.6358 26.4881 10.7166 26.3265C10.8002 26.1621 10.842 25.9865 10.842 25.7998C10.842 25.588 10.7807 25.4264 10.6581 25.315C10.5355 25.2007 10.3822 25.1436 10.1983 25.1436C10.0172 25.1436 9.85556 25.1937 9.71345 25.2941C9.57133 25.3916 9.46126 25.5226 9.38324 25.687C9.30522 25.8514 9.2662 26.0283 9.2662 26.2178C9.2662 26.424 9.32472 26.5842 9.44176 26.6985C9.55879 26.8099 9.70787 26.8657 9.889 26.8657ZM14.966 24.8594L13.8458 27.1499H13.4529L13.2272 25.3275L12.3494 27.1499H11.9565L11.6431 24.8594H12.0318L12.2199 26.7821L13.1227 24.8594H13.5156L13.733 26.7695L14.5898 24.8594H14.966ZM14.9966 25.9963C15.0384 25.7622 15.122 25.5574 15.2474 25.3818C15.3755 25.2035 15.5302 25.0656 15.7113 24.968C15.8952 24.8705 16.0903 24.8217 16.2965 24.8217C16.4971 24.8217 16.6629 24.8649 16.7939 24.9513C16.9249 25.0377 17.0154 25.1464 17.0656 25.2773L17.1408 24.8594H17.5254L17.1199 27.1499H16.7354L16.8148 26.7236C16.7145 26.8573 16.5821 26.9688 16.4177 27.0579C16.2533 27.1443 16.0722 27.1875 15.8743 27.1875C15.696 27.1875 15.5386 27.1499 15.402 27.0747C15.2655 26.9966 15.1596 26.8866 15.0844 26.7445C15.0091 26.6023 14.9715 26.4379 14.9715 26.2512C14.9715 26.1676 14.9799 26.0827 14.9966 25.9963ZM16.9402 26.0005C16.9513 25.9419 16.9569 25.8792 16.9569 25.8124C16.9569 25.6089 16.8956 25.4487 16.773 25.3317C16.6532 25.2119 16.4999 25.1519 16.3132 25.1519C16.1711 25.1519 16.0346 25.1854 15.9036 25.2523C15.7754 25.3191 15.6653 25.4167 15.5734 25.5449C15.4814 25.673 15.4201 25.8235 15.3895 25.9963C15.3783 26.0548 15.3728 26.1189 15.3728 26.1885C15.3728 26.3947 15.4327 26.5578 15.5525 26.6776C15.6723 26.7946 15.8256 26.8531 16.0123 26.8531C16.1544 26.8531 16.2895 26.8197 16.4177 26.7528C16.5487 26.6832 16.6601 26.5842 16.7521 26.4561C16.8468 26.3251 16.9095 26.1732 16.9402 26.0005ZM18.6781 26.7904L19.7314 24.8594H20.141L18.8369 27.1499H18.3897L17.8965 24.8594H18.3061L18.6781 26.7904ZM21.5059 24.8217C21.6982 24.8217 21.864 24.8594 22.0033 24.9346C22.1454 25.007 22.2527 25.1101 22.3252 25.2439C22.4004 25.3749 22.438 25.5253 22.438 25.6953C22.438 25.7538 22.4311 25.8249 22.4171 25.9085C22.406 25.9809 22.3879 26.0562 22.3628 26.1342H20.532C20.5265 26.1899 20.5237 26.2303 20.5237 26.2554C20.5237 26.4477 20.5808 26.5982 20.695 26.7068C20.8121 26.8127 20.9639 26.8657 21.1506 26.8657C21.315 26.8657 21.4586 26.8281 21.5812 26.7528C21.7066 26.6748 21.8013 26.5717 21.8654 26.4435H22.275C22.1747 26.6636 22.02 26.8434 21.8111 26.9827C21.6049 27.1193 21.3652 27.1875 21.0921 27.1875C20.8051 27.1875 20.5738 27.1053 20.3983 26.9409C20.2255 26.7737 20.1391 26.5466 20.1391 26.2596C20.1391 26.1788 20.1475 26.0924 20.1642 26.0005C20.206 25.7636 20.291 25.556 20.4192 25.3777C20.5474 25.1993 20.7048 25.0628 20.8915 24.968C21.081 24.8705 21.2858 24.8217 21.5059 24.8217ZM22.0326 25.8583C22.0409 25.8026 22.0451 25.7511 22.0451 25.7037C22.0451 25.5253 21.988 25.3874 21.8738 25.2899C21.7623 25.1924 21.616 25.1436 21.4349 25.1436C21.2398 25.1436 21.0629 25.2077 20.904 25.3359C20.7452 25.4613 20.6379 25.6354 20.5822 25.8583H22.0326ZM24.5869 25.4571L24.5284 25.7789H22.8607L22.9192 25.4571H24.5869ZM25.8065 27.1875C25.5669 27.1875 25.3704 27.1304 25.2172 27.0161C25.0639 26.9019 24.9873 26.7486 24.9873 26.5564C24.9873 26.5201 24.9887 26.4937 24.9915 26.477H25.3635C25.3523 26.5968 25.3872 26.6943 25.468 26.7695C25.5516 26.8448 25.6714 26.8824 25.8274 26.8824C25.9835 26.8824 26.1089 26.8531 26.2036 26.7946C26.3011 26.7333 26.3499 26.6483 26.3499 26.5396C26.3499 26.4477 26.3109 26.3752 26.2329 26.3223C26.1549 26.2694 26.035 26.2122 25.8734 26.1509C25.7313 26.098 25.6143 26.0478 25.5223 26.0005C25.4304 25.9531 25.3523 25.8876 25.2882 25.804C25.2241 25.7176 25.1921 25.6089 25.1921 25.478C25.1921 25.3498 25.2283 25.2355 25.3008 25.1352C25.376 25.0349 25.4791 24.9583 25.6101 24.9053C25.7438 24.8496 25.8957 24.8217 26.0657 24.8217C26.2998 24.8217 26.492 24.8803 26.6425 24.9973C26.793 25.1143 26.8682 25.2676 26.8682 25.4571C26.8682 25.4933 26.8668 25.5212 26.864 25.5407H26.5004L26.5046 25.4905C26.5046 25.3791 26.4614 25.2913 26.375 25.2272C26.2914 25.1603 26.1799 25.1269 26.0406 25.1269C25.9041 25.1269 25.7912 25.1575 25.702 25.2188C25.6157 25.2801 25.5725 25.3623 25.5725 25.4654C25.5725 25.563 25.6129 25.6396 25.6937 25.6953C25.7745 25.7511 25.8999 25.8124 26.0699 25.8792C26.212 25.935 26.3262 25.9865 26.4126 26.0339C26.499 26.0785 26.5728 26.1412 26.6341 26.222C26.6954 26.3028 26.7261 26.4045 26.7261 26.5271C26.7261 26.6609 26.6857 26.7779 26.6049 26.8782C26.5269 26.9785 26.4182 27.0552 26.2789 27.1081C26.1395 27.161 25.9821 27.1875 25.8065 27.1875ZM27.2421 25.9963C27.2839 25.7622 27.3675 25.5574 27.4929 25.3818C27.6211 25.2035 27.7758 25.0656 27.9569 24.968C28.1408 24.8705 28.3359 24.8217 28.5421 24.8217C28.7427 24.8217 28.9085 24.8649 29.0395 24.9513C29.1704 25.0377 29.261 25.1464 29.3112 25.2773L29.3864 24.8594H29.7709L29.3655 27.1499H28.9809L29.0604 26.7236C28.9601 26.8573 28.8277 26.9688 28.6633 27.0579C28.4989 27.1443 28.3178 27.1875 28.1199 27.1875C27.9416 27.1875 27.7841 27.1499 27.6476 27.0747C27.511 26.9966 27.4052 26.8866 27.3299 26.7445C27.2547 26.6023 27.2171 26.4379 27.2171 26.2512C27.2171 26.1676 27.2254 26.0827 27.2421 25.9963ZM29.1858 26.0005C29.1969 25.9419 29.2025 25.8792 29.2025 25.8124C29.2025 25.6089 29.1412 25.4487 29.0186 25.3317C28.8987 25.2119 28.7455 25.1519 28.5588 25.1519C28.4167 25.1519 28.2801 25.1854 28.1492 25.2523C28.021 25.3191 27.9109 25.4167 27.819 25.5449C27.727 25.673 27.6657 25.8235 27.635 25.9963C27.6239 26.0548 27.6183 26.1189 27.6183 26.1885C27.6183 26.3947 27.6782 26.5578 27.7981 26.6776C27.9179 26.7946 28.0711 26.8531 28.2578 26.8531C28.4 26.8531 28.5351 26.8197 28.6633 26.7528C28.7943 26.6832 28.9057 26.5842 28.9977 26.4561C29.0924 26.3251 29.1551 26.1732 29.1858 26.0005ZM31.4252 24.2742C31.2553 24.2742 31.1299 24.3076 31.049 24.3745C30.971 24.4386 30.9195 24.5459 30.8944 24.6963L30.8651 24.8594H31.3458L31.2915 25.1728H30.8108L30.4597 27.1499H30.0793L30.4263 25.1728H30.1337L30.188 24.8594H30.4806L30.5098 24.6963C30.5572 24.44 30.6575 24.2533 30.8108 24.1363C30.9641 24.0164 31.187 23.9565 31.4796 23.9565L31.4252 24.2742ZM32.7841 24.8217C32.9764 24.8217 33.1422 24.8594 33.2815 24.9346C33.4236 25.007 33.5309 25.1101 33.6033 25.2439C33.6786 25.3749 33.7162 25.5253 33.7162 25.6953C33.7162 25.7538 33.7092 25.8249 33.6953 25.9085C33.6842 25.9809 33.666 26.0562 33.641 26.1342H31.8102C31.8046 26.1899 31.8018 26.2303 31.8018 26.2554C31.8018 26.4477 31.859 26.5982 31.9732 26.7068C32.0902 26.8127 32.2421 26.8657 32.4288 26.8657C32.5932 26.8657 32.7367 26.8281 32.8593 26.7528C32.9847 26.6748 33.0795 26.5717 33.1436 26.4435H33.5532C33.4529 26.6636 33.2982 26.8434 33.0892 26.9827C32.883 27.1193 32.6434 27.1875 32.3703 27.1875C32.0833 27.1875 31.852 27.1053 31.6764 26.9409C31.5037 26.7737 31.4173 26.5466 31.4173 26.2596C31.4173 26.1788 31.4257 26.0924 31.4424 26.0005C31.4842 25.7636 31.5692 25.556 31.6973 25.3777C31.8255 25.1993 31.983 25.0628 32.1697 24.968C32.3591 24.8705 32.564 24.8217 32.7841 24.8217ZM33.3108 25.8583C33.3191 25.8026 33.3233 25.7511 33.3233 25.7037C33.3233 25.5253 33.2662 25.3874 33.1519 25.2899C33.0405 25.1924 32.8942 25.1436 32.713 25.1436C32.518 25.1436 32.341 25.2077 32.1822 25.3359C32.0234 25.4613 31.9161 25.6354 31.8604 25.8583H33.3108Z" fill="white"/>
<line x1="43.8603" y1="3.85742" x2="43.8603" y2="25.2924" stroke="white" stroke-width="0.857399"/>
<g clip-path="url(#clip0_774_14)">
<path d="M64.934 6.073L66.363 7.502M66.363 7.502L67.792 6.073M66.363 7.502V13.9325M61.7188 12.1462L63.1477 10.7172M63.1477 10.7172L61.7188 9.28824M63.1477 10.7172H69.5782M67.792 15.3615L66.363 13.9325M66.363 13.9325L64.934 15.3615M71.0072 9.28824L69.5782 10.7172M69.5782 10.7172L71.0072 12.1462M63.8622 8.2165L64.934 9.28824M64.934 12.1462L63.8622 13.218M68.8637 8.2165L67.792 9.28824M67.792 12.1462L68.8637 13.218" stroke="white" stroke-width="0.597117" stroke-linecap="round" stroke-linejoin="round"/>
</g>
<path d="M55.1319 24.2363L55.0776 24.5331H53.8153L53.6398 25.5321H54.668L54.6136 25.8288H53.5854L53.3513 27.1497H52.971L53.4893 24.2363H55.1319ZM55.7878 25.2938C55.8797 25.1433 55.9954 25.0263 56.1347 24.9427C56.274 24.8591 56.4329 24.8173 56.6112 24.8173L56.5402 25.2102H56.4398C56.242 25.2102 56.0762 25.2632 55.9424 25.3691C55.8115 25.4749 55.7237 25.6533 55.6791 25.9041L55.4576 27.1497H55.0772L55.4827 24.8591H55.863L55.7878 25.2938ZM58.0367 24.8215C58.229 24.8215 58.3948 24.8591 58.5341 24.9344C58.6762 25.0068 58.7835 25.1099 58.856 25.2437C58.9312 25.3746 58.9688 25.5251 58.9688 25.6951C58.9688 25.7536 58.9619 25.8247 58.9479 25.9083C58.9368 25.9807 58.9187 26.0559 58.8936 26.134H57.0628C57.0573 26.1897 57.0545 26.2301 57.0545 26.2552C57.0545 26.4474 57.1116 26.5979 57.2258 26.7066C57.3429 26.8125 57.4947 26.8654 57.6814 26.8654C57.8458 26.8654 57.9894 26.8278 58.112 26.7526C58.2374 26.6746 58.3321 26.5714 58.3962 26.4433H58.8058C58.7055 26.6634 58.5508 26.8431 58.3419 26.9825C58.1356 27.119 57.896 27.1873 57.6229 27.1873C57.3359 27.1873 57.1046 27.1051 56.9291 26.9407C56.7563 26.7735 56.6699 26.5464 56.6699 26.2594C56.6699 26.1785 56.6783 26.0922 56.695 26.0002C56.7368 25.7634 56.8218 25.5558 56.95 25.3774C57.0782 25.1991 57.2356 25.0625 57.4223 24.9678C57.6118 24.8703 57.8166 24.8215 58.0367 24.8215ZM58.5634 25.8581C58.5717 25.8024 58.5759 25.7508 58.5759 25.7034C58.5759 25.5251 58.5188 25.3872 58.4046 25.2896C58.2931 25.1921 58.1468 25.1433 57.9657 25.1433C57.7706 25.1433 57.5937 25.2074 57.4348 25.3356C57.276 25.461 57.1687 25.6352 57.113 25.8581H58.5634ZM60.6287 24.8215C60.821 24.8215 60.9868 24.8591 61.1261 24.9344C61.2682 25.0068 61.3755 25.1099 61.448 25.2437C61.5232 25.3746 61.5608 25.5251 61.5608 25.6951C61.5608 25.7536 61.5538 25.8247 61.5399 25.9083C61.5288 25.9807 61.5106 26.0559 61.4856 26.134H59.6548C59.6492 26.1897 59.6464 26.2301 59.6464 26.2552C59.6464 26.4474 59.7036 26.5979 59.8178 26.7066C59.9349 26.8125 60.0867 26.8654 60.2734 26.8654C60.4378 26.8654 60.5813 26.8278 60.7039 26.7526C60.8293 26.6746 60.9241 26.5714 60.9882 26.4433H61.3978C61.2975 26.6634 61.1428 26.8431 60.9338 26.9825C60.7276 27.119 60.488 27.1873 60.2149 27.1873C59.9279 27.1873 59.6966 27.1051 59.5211 26.9407C59.3483 26.7735 59.2619 26.5464 59.2619 26.2594C59.2619 26.1785 59.2703 26.0922 59.287 26.0002C59.3288 25.7634 59.4138 25.5558 59.542 25.3774C59.6701 25.1991 59.8276 25.0625 60.0143 24.9678C60.2038 24.8703 60.4086 24.8215 60.6287 24.8215ZM61.1554 25.8581C61.1637 25.8024 61.1679 25.7508 61.1679 25.7034C61.1679 25.5251 61.1108 25.3872 60.9965 25.2896C60.8851 25.1921 60.7388 25.1433 60.5576 25.1433C60.3626 25.1433 60.1856 25.2074 60.0268 25.3356C59.868 25.461 59.7607 25.6352 59.705 25.8581H61.1554ZM62.1632 26.8362H63.2876L63.229 27.1497H61.67L61.7243 26.8362L63.1329 25.1684H62.0294L62.0838 24.8591H63.6219L63.5676 25.1684L62.1632 26.8362ZM65.1228 24.8215C65.3151 24.8215 65.4809 24.8591 65.6202 24.9344C65.7623 25.0068 65.8696 25.1099 65.9421 25.2437C66.0173 25.3746 66.0549 25.5251 66.0549 25.6951C66.0549 25.7536 66.048 25.8247 66.034 25.9083C66.0229 25.9807 66.0048 26.0559 65.9797 26.134H64.1489C64.1434 26.1897 64.1406 26.2301 64.1406 26.2552C64.1406 26.4474 64.1977 26.5979 64.3119 26.7066C64.429 26.8125 64.5808 26.8654 64.7675 26.8654C64.932 26.8654 65.0755 26.8278 65.1981 26.7526C65.3235 26.6746 65.4182 26.5714 65.4823 26.4433H65.8919C65.7916 26.6634 65.6369 26.8431 65.428 26.9825C65.2218 27.119 64.9821 27.1873 64.709 27.1873C64.422 27.1873 64.1907 27.1051 64.0152 26.9407C63.8424 26.7735 63.756 26.5464 63.756 26.2594C63.756 26.1785 63.7644 26.0922 63.7811 26.0002C63.8229 25.7634 63.9079 25.5558 64.0361 25.3774C64.1643 25.1991 64.3217 25.0625 64.5084 24.9678C64.6979 24.8703 64.9027 24.8215 65.1228 24.8215ZM65.6495 25.8581C65.6578 25.8024 65.662 25.7508 65.662 25.7034C65.662 25.5251 65.6049 25.3872 65.4907 25.2896C65.3792 25.1921 65.2329 25.1433 65.0518 25.1433C64.8567 25.1433 64.6798 25.2074 64.5209 25.3356C64.3621 25.461 64.2548 25.6352 64.1991 25.8581H65.6495ZM67.0251 25.2938C67.1171 25.1433 67.2327 25.0263 67.3721 24.9427C67.5114 24.8591 67.6702 24.8173 67.8486 24.8173L67.7775 25.2102H67.6772C67.4793 25.2102 67.3135 25.2632 67.1798 25.3691C67.0488 25.4749 66.961 25.6533 66.9165 25.9041L66.6949 27.1497H66.3146L66.72 24.8591H67.1004L67.0251 25.2938ZM69.7631 25.4568L69.7046 25.7787H68.0368L68.0954 25.4568H69.7631ZM70.9827 27.1873C70.7431 27.1873 70.5466 27.1302 70.3934 27.0159C70.2401 26.9017 70.1635 26.7484 70.1635 26.5561C70.1635 26.5199 70.1649 26.4934 70.1676 26.4767H70.5396C70.5285 26.5965 70.5633 26.6941 70.6441 26.7693C70.7277 26.8445 70.8476 26.8821 71.0036 26.8821C71.1597 26.8821 71.285 26.8529 71.3798 26.7944C71.4773 26.7331 71.5261 26.6481 71.5261 26.5394C71.5261 26.4474 71.4871 26.375 71.409 26.3221C71.331 26.2691 71.2112 26.212 71.0496 26.1507C70.9075 26.0977 70.7904 26.0476 70.6985 26.0002C70.6065 25.9528 70.5285 25.8874 70.4644 25.8038C70.4003 25.7174 70.3683 25.6087 70.3683 25.4777C70.3683 25.3495 70.4045 25.2353 70.4769 25.135C70.5522 25.0347 70.6553 24.958 70.7863 24.9051C70.92 24.8494 71.0719 24.8215 71.2419 24.8215C71.4759 24.8215 71.6682 24.88 71.8187 24.9971C71.9691 25.1141 72.0444 25.2673 72.0444 25.4568C72.0444 25.4931 72.043 25.5209 72.0402 25.5404H71.6766L71.6807 25.4903C71.6807 25.3788 71.6375 25.291 71.5512 25.2269C71.4676 25.1601 71.3561 25.1266 71.2168 25.1266C71.0802 25.1266 70.9674 25.1573 70.8782 25.2186C70.7918 25.2799 70.7486 25.3621 70.7486 25.4652C70.7486 25.5627 70.789 25.6393 70.8699 25.6951C70.9507 25.7508 71.0761 25.8121 71.246 25.879C71.3882 25.9347 71.5024 25.9863 71.5888 26.0336C71.6752 26.0782 71.749 26.1409 71.8103 26.2217C71.8716 26.3025 71.9023 26.4043 71.9023 26.5269C71.9023 26.6606 71.8619 26.7777 71.7811 26.878C71.703 26.9783 71.5944 27.0549 71.455 27.1079C71.3157 27.1608 71.1583 27.1873 70.9827 27.1873ZM72.4183 25.996C72.4601 25.762 72.5437 25.5571 72.6691 25.3816C72.7973 25.2033 72.9519 25.0653 73.1331 24.9678C73.317 24.8703 73.512 24.8215 73.7182 24.8215C73.9189 24.8215 74.0847 24.8647 74.2156 24.9511C74.3466 25.0375 74.4372 25.1461 74.4873 25.2771L74.5626 24.8591H74.9471L74.5417 27.1497H74.1571L74.2365 26.7233C74.1362 26.8571 74.0039 26.9685 73.8395 27.0577C73.675 27.1441 73.4939 27.1873 73.2961 27.1873C73.1177 27.1873 72.9603 27.1497 72.8238 27.0744C72.6872 26.9964 72.5813 26.8863 72.5061 26.7442C72.4309 26.6021 72.3932 26.4377 72.3932 26.251C72.3932 26.1674 72.4016 26.0824 72.4183 25.996ZM74.3619 26.0002C74.3731 25.9417 74.3787 25.879 74.3787 25.8121C74.3787 25.6087 74.3173 25.4485 74.1947 25.3314C74.0749 25.2116 73.9217 25.1517 73.735 25.1517C73.5928 25.1517 73.4563 25.1851 73.3253 25.252C73.1972 25.3189 73.0871 25.4164 72.9951 25.5446C72.9032 25.6728 72.8419 25.8233 72.8112 25.996C72.8001 26.0545 72.7945 26.1186 72.7945 26.1883C72.7945 26.3945 72.8544 26.5575 72.9742 26.6773C73.0941 26.7944 73.2473 26.8529 73.434 26.8529C73.5761 26.8529 73.7113 26.8195 73.8395 26.7526C73.9704 26.6829 74.0819 26.584 74.1738 26.4558C74.2686 26.3248 74.3313 26.173 74.3619 26.0002ZM76.6014 24.2739C76.4314 24.2739 76.306 24.3074 76.2252 24.3743C76.1472 24.4383 76.0956 24.5456 76.0706 24.6961L76.0413 24.8591H76.522L76.4676 25.1726H75.987L75.6359 27.1497H75.2555L75.6024 25.1726H75.3098L75.3642 24.8591H75.6568L75.686 24.6961C75.7334 24.4397 75.8337 24.253 75.987 24.136C76.1402 24.0162 76.3632 23.9563 76.6557 23.9563L76.6014 24.2739ZM77.9603 24.8215C78.1525 24.8215 78.3183 24.8591 78.4577 24.9344C78.5998 25.0068 78.7071 25.1099 78.7795 25.2437C78.8547 25.3746 78.8924 25.5251 78.8924 25.6951C78.8924 25.7536 78.8854 25.8247 78.8715 25.9083C78.8603 25.9807 78.8422 26.0559 78.8171 26.134H76.9864C76.9808 26.1897 76.978 26.2301 76.978 26.2552C76.978 26.4474 77.0351 26.5979 77.1494 26.7066C77.2664 26.8125 77.4183 26.8654 77.605 26.8654C77.7694 26.8654 77.9129 26.8278 78.0355 26.7526C78.1609 26.6746 78.2556 26.5714 78.3197 26.4433H78.7294C78.629 26.6634 78.4744 26.8431 78.2654 26.9825C78.0592 27.119 77.8195 27.1873 77.5465 27.1873C77.2594 27.1873 77.0282 27.1051 76.8526 26.9407C76.6798 26.7735 76.5935 26.5464 76.5935 26.2594C76.5935 26.1785 76.6018 26.0922 76.6185 26.0002C76.6603 25.7634 76.7453 25.5558 76.8735 25.3774C77.0017 25.1991 77.1591 25.0625 77.3458 24.9678C77.5353 24.8703 77.7401 24.8215 77.9603 24.8215ZM78.4869 25.8581C78.4953 25.8024 78.4995 25.7508 78.4995 25.7034C78.4995 25.5251 78.4423 25.3872 78.3281 25.2896C78.2166 25.1921 78.0703 25.1433 77.8892 25.1433C77.6942 25.1433 77.5172 25.2074 77.3584 25.3356C77.1995 25.461 77.0923 25.6352 77.0365 25.8581H78.4869Z" fill="white"/>
<line x1="89.7226" y1="3.85742" x2="89.7226" y2="25.2924" stroke="white" stroke-width="0.857399"/>
<g clip-path="url(#clip1_774_14)">
<path d="M125.246 12.07C124.828 12.3239 124.349 12.4574 123.86 12.4558C123.451 12.4525 123.046 12.3688 122.669 12.2093C122.378 12.6196 122.223 13.1103 122.224 13.6131V14.8971C122.224 14.9448 122.214 14.9921 122.195 15.0359C122.176 15.0797 122.149 15.1192 122.114 15.1519C122.079 15.1846 122.038 15.2097 121.993 15.2258C121.948 15.2419 121.9 15.2485 121.852 15.2454C121.763 15.2376 121.68 15.1962 121.619 15.1296C121.559 15.063 121.526 14.976 121.527 14.8862V14.3445L119.846 12.663C119.596 12.7563 119.331 12.8051 119.065 12.8071C118.697 12.8081 118.337 12.7076 118.023 12.5167C117.074 11.9403 116.564 10.6136 116.663 8.9665C116.667 8.88129 116.704 8.80087 116.764 8.74051C116.824 8.68015 116.905 8.64406 116.99 8.63908C118.637 8.54199 119.964 9.05097 120.538 9.9997C120.764 10.3716 120.863 10.8068 120.819 11.2397C120.817 11.2733 120.804 11.3053 120.784 11.3319C120.763 11.3586 120.735 11.3788 120.704 11.3899C120.672 11.4011 120.638 11.4029 120.605 11.395C120.572 11.3871 120.542 11.3699 120.519 11.3455L119.683 10.4704C119.617 10.4078 119.53 10.3734 119.439 10.3746C119.348 10.3758 119.261 10.4124 119.197 10.4766C119.133 10.5408 119.096 10.6276 119.095 10.7184C119.094 10.8093 119.128 10.8969 119.191 10.9628L121.537 13.3684C121.539 13.3344 121.542 13.3005 121.546 13.2669C121.622 12.6211 121.907 12.0179 122.358 11.5488L124.56 9.22121C124.626 9.15591 124.662 9.06732 124.662 8.97493C124.662 8.88254 124.626 8.79391 124.56 8.72856C124.495 8.6632 124.407 8.62646 124.314 8.62642C124.222 8.62637 124.133 8.66304 124.068 8.72834L121.934 10.9846C121.913 11.0072 121.886 11.0237 121.856 11.0323C121.826 11.041 121.795 11.0414 121.764 11.0337C121.734 11.026 121.707 11.0103 121.685 10.9883C121.663 10.9664 121.647 10.9389 121.639 10.9088C121.433 10.1477 121.524 9.39014 121.918 8.73966C122.695 7.45611 124.505 6.76905 126.759 6.90141C126.844 6.90638 126.924 6.94248 126.985 7.00284C127.045 7.06319 127.081 7.14361 127.086 7.22883C127.217 9.48288 126.529 11.2924 125.246 12.07Z" fill="white"/>
</g>
<path d="M101.645 24.2363L101.59 24.5331H100.328L100.152 25.5321H101.181L101.126 25.8288H100.098L99.864 27.1497H99.4837L100.002 24.2363H101.645ZM102.597 27.1873C102.405 27.1873 102.235 27.1483 102.087 27.0702C101.942 26.9894 101.83 26.878 101.749 26.7359C101.668 26.591 101.628 26.4238 101.628 26.2343C101.628 25.9751 101.687 25.7383 101.807 25.5237C101.927 25.3064 102.091 25.135 102.3 25.0096C102.512 24.8842 102.748 24.8215 103.007 24.8215C103.199 24.8215 103.369 24.8619 103.517 24.9427C103.667 25.0207 103.783 25.1322 103.864 25.2771C103.947 25.4192 103.989 25.5864 103.989 25.7787C103.989 26.0378 103.928 26.2747 103.805 26.4892C103.683 26.7038 103.515 26.8738 103.304 26.9992C103.092 27.1246 102.856 27.1873 102.597 27.1873ZM102.643 26.8654C102.824 26.8654 102.987 26.8167 103.132 26.7191C103.277 26.6188 103.39 26.4879 103.471 26.3262C103.554 26.1618 103.596 25.9863 103.596 25.7996C103.596 25.5878 103.535 25.4262 103.412 25.3147C103.29 25.2005 103.136 25.1433 102.953 25.1433C102.771 25.1433 102.61 25.1935 102.468 25.2938C102.326 25.3913 102.215 25.5223 102.137 25.6867C102.059 25.8511 102.02 26.0281 102.02 26.2176C102.02 26.4238 102.079 26.584 102.196 26.6982C102.313 26.8097 102.462 26.8654 102.643 26.8654ZM105.271 27.1873C105.079 27.1873 104.909 27.1483 104.761 27.0702C104.616 26.9894 104.503 26.878 104.422 26.7359C104.342 26.591 104.301 26.4238 104.301 26.2343C104.301 25.9751 104.361 25.7383 104.481 25.5237C104.601 25.3064 104.765 25.135 104.974 25.0096C105.186 24.8842 105.421 24.8215 105.68 24.8215C105.873 24.8215 106.043 24.8619 106.19 24.9427C106.341 25.0207 106.457 25.1322 106.537 25.2771C106.621 25.4192 106.663 25.5864 106.663 25.7787C106.663 26.0378 106.601 26.2747 106.479 26.4892C106.356 26.7038 106.189 26.8738 105.977 26.9992C105.765 27.1246 105.53 27.1873 105.271 27.1873ZM105.317 26.8654C105.498 26.8654 105.661 26.8167 105.806 26.7191C105.951 26.6188 106.064 26.4879 106.144 26.3262C106.228 26.1618 106.27 25.9863 106.27 25.7996C106.27 25.5878 106.209 25.4262 106.086 25.3147C105.963 25.2005 105.81 25.1433 105.626 25.1433C105.445 25.1433 105.283 25.1935 105.141 25.2938C104.999 25.3913 104.889 25.5223 104.811 25.6867C104.733 25.8511 104.694 26.0281 104.694 26.2176C104.694 26.4238 104.753 26.584 104.87 26.6982C104.987 26.8097 105.136 26.8654 105.317 26.8654ZM106.996 25.996C107.037 25.762 107.121 25.5571 107.246 25.3816C107.375 25.2033 107.531 25.0653 107.715 24.9678C107.899 24.8703 108.094 24.8215 108.3 24.8215C108.475 24.8215 108.633 24.8633 108.772 24.9469C108.911 25.0277 109.01 25.135 109.069 25.2687L109.282 24.0566H109.667L109.119 27.1497H108.734L108.814 26.7191C108.716 26.8557 108.585 26.9685 108.421 27.0577C108.257 27.1441 108.075 27.1873 107.878 27.1873C107.699 27.1873 107.542 27.1497 107.405 27.0744C107.269 26.9964 107.161 26.8863 107.083 26.7442C107.008 26.6021 106.971 26.4377 106.971 26.251C106.971 26.1674 106.979 26.0824 106.996 25.996ZM108.939 26.0002C108.95 25.9417 108.956 25.879 108.956 25.8121C108.956 25.6087 108.895 25.4485 108.772 25.3314C108.652 25.2116 108.499 25.1517 108.312 25.1517C108.17 25.1517 108.034 25.1851 107.903 25.252C107.775 25.3189 107.664 25.4164 107.572 25.5446C107.481 25.6728 107.419 25.8233 107.389 25.996C107.377 26.0545 107.372 26.1186 107.372 26.1883C107.372 26.3945 107.432 26.5575 107.552 26.6773C107.671 26.7944 107.825 26.8529 108.011 26.8529C108.153 26.8529 108.289 26.8195 108.417 26.7526C108.548 26.6829 108.659 26.584 108.751 26.4558C108.846 26.3248 108.909 26.173 108.939 26.0002ZM111.651 25.4568L111.593 25.7787H109.925L109.983 25.4568H111.651ZM113.422 24.8215C113.62 24.8215 113.786 24.8647 113.92 24.9511C114.054 25.0375 114.144 25.1461 114.191 25.2771L114.267 24.8591H114.651L114.237 27.1998C114.201 27.4088 114.123 27.5941 114.003 27.7557C113.886 27.9201 113.737 28.0483 113.556 28.1403C113.375 28.2322 113.174 28.2782 112.954 28.2782C112.653 28.2782 112.415 28.2058 112.24 28.0609C112.064 27.9187 111.979 27.7265 111.985 27.484H112.365C112.382 27.6234 112.447 27.7348 112.561 27.8184C112.678 27.9048 112.829 27.948 113.013 27.948C113.222 27.948 113.404 27.8825 113.56 27.7516C113.716 27.6206 113.815 27.4367 113.857 27.1998L113.941 26.7191C113.84 26.8529 113.708 26.9644 113.544 27.0535C113.382 27.1427 113.202 27.1873 113.004 27.1873C112.826 27.1873 112.669 27.1497 112.532 27.0744C112.396 26.9964 112.288 26.8863 112.21 26.7442C112.135 26.6021 112.097 26.4377 112.097 26.251C112.097 26.1674 112.106 26.0824 112.122 25.996C112.164 25.762 112.248 25.5571 112.373 25.3816C112.501 25.2033 112.656 25.0653 112.837 24.9678C113.021 24.8703 113.216 24.8215 113.422 24.8215ZM114.066 26.0002C114.077 25.9417 114.083 25.879 114.083 25.8121C114.083 25.6087 114.022 25.4485 113.899 25.3314C113.779 25.2116 113.626 25.1517 113.439 25.1517C113.297 25.1517 113.16 25.1851 113.029 25.252C112.901 25.3189 112.791 25.4164 112.699 25.5446C112.607 25.6728 112.546 25.8233 112.515 25.996C112.504 26.0545 112.499 26.1186 112.499 26.1883C112.499 26.3945 112.559 26.5575 112.678 26.6773C112.798 26.7944 112.951 26.8529 113.138 26.8529C113.28 26.8529 113.415 26.8195 113.544 26.7526C113.675 26.6829 113.786 26.584 113.878 26.4558C113.973 26.3248 114.035 26.173 114.066 26.0002ZM115.599 25.2938C115.691 25.1433 115.807 25.0263 115.946 24.9427C116.085 24.8591 116.244 24.8173 116.423 24.8173L116.352 25.2102H116.251C116.053 25.2102 115.888 25.2632 115.754 25.3691C115.623 25.4749 115.535 25.6533 115.49 25.9041L115.269 27.1497H114.889L115.294 24.8591H115.674L115.599 25.2938ZM116.506 25.996C116.548 25.762 116.632 25.5571 116.757 25.3816C116.885 25.2033 117.04 25.0653 117.221 24.9678C117.405 24.8703 117.6 24.8215 117.806 24.8215C118.007 24.8215 118.173 24.8647 118.304 24.9511C118.435 25.0375 118.525 25.1461 118.575 25.2771L118.651 24.8591H119.035L118.63 27.1497H118.245L118.325 26.7233C118.224 26.8571 118.092 26.9685 117.928 27.0577C117.763 27.1441 117.582 27.1873 117.384 27.1873C117.206 27.1873 117.048 27.1497 116.912 27.0744C116.775 26.9964 116.669 26.8863 116.594 26.7442C116.519 26.6021 116.481 26.4377 116.481 26.251C116.481 26.1674 116.49 26.0824 116.506 25.996ZM118.45 26.0002C118.461 25.9417 118.467 25.879 118.467 25.8121C118.467 25.6087 118.405 25.4485 118.283 25.3314C118.163 25.2116 118.01 25.1517 117.823 25.1517C117.681 25.1517 117.544 25.1851 117.413 25.252C117.285 25.3189 117.175 25.4164 117.083 25.5446C116.991 25.6728 116.93 25.8233 116.899 25.996C116.888 26.0545 116.883 26.1186 116.883 26.1883C116.883 26.3945 116.942 26.5575 117.062 26.6773C117.182 26.7944 117.335 26.8529 117.522 26.8529C117.664 26.8529 117.799 26.8195 117.928 26.7526C118.058 26.6829 118.17 26.584 118.262 26.4558C118.357 26.3248 118.419 26.173 118.45 26.0002ZM119.331 25.996C119.373 25.762 119.456 25.5571 119.582 25.3816C119.71 25.2033 119.866 25.0653 120.05 24.9678C120.234 24.8703 120.429 24.8215 120.635 24.8215C120.811 24.8215 120.968 24.8633 121.107 24.9469C121.247 25.0277 121.346 25.135 121.404 25.2687L121.617 24.0566H122.002L121.454 27.1497H121.07L121.149 26.7191C121.052 26.8557 120.921 26.9685 120.756 27.0577C120.592 27.1441 120.411 27.1873 120.213 27.1873C120.035 27.1873 119.877 27.1497 119.741 27.0744C119.604 26.9964 119.497 26.8863 119.419 26.7442C119.344 26.6021 119.306 26.4377 119.306 26.251C119.306 26.1674 119.314 26.0824 119.331 25.996ZM121.275 26.0002C121.286 25.9417 121.291 25.879 121.291 25.8121C121.291 25.6087 121.23 25.4485 121.107 25.3314C120.988 25.2116 120.834 25.1517 120.648 25.1517C120.506 25.1517 120.369 25.1851 120.238 25.252C120.11 25.3189 120 25.4164 119.908 25.5446C119.816 25.6728 119.755 25.8233 119.724 25.996C119.713 26.0545 119.707 26.1186 119.707 26.1883C119.707 26.3945 119.767 26.5575 119.887 26.6773C120.007 26.7944 120.16 26.8529 120.347 26.8529C120.489 26.8529 120.624 26.8195 120.752 26.7526C120.883 26.6829 120.995 26.584 121.087 26.4558C121.181 26.3248 121.244 26.173 121.275 26.0002ZM123.497 24.8215C123.69 24.8215 123.855 24.8591 123.995 24.9344C124.137 25.0068 124.244 25.1099 124.317 25.2437C124.392 25.3746 124.429 25.5251 124.429 25.6951C124.429 25.7536 124.423 25.8247 124.409 25.9083C124.397 25.9807 124.379 26.0559 124.354 26.134H122.523C122.518 26.1897 122.515 26.2301 122.515 26.2552C122.515 26.4474 122.572 26.5979 122.687 26.7066C122.804 26.8125 122.955 26.8654 123.142 26.8654C123.307 26.8654 123.45 26.8278 123.573 26.7526C123.698 26.6746 123.793 26.5714 123.857 26.4433H124.266C124.166 26.6634 124.012 26.8431 123.803 26.9825C123.596 27.119 123.357 27.1873 123.084 27.1873C122.797 27.1873 122.565 27.1051 122.39 26.9407C122.217 26.7735 122.131 26.5464 122.131 26.2594C122.131 26.1785 122.139 26.0922 122.156 26.0002C122.197 25.7634 122.282 25.5558 122.411 25.3774C122.539 25.1991 122.696 25.0625 122.883 24.9678C123.072 24.8703 123.277 24.8215 123.497 24.8215ZM124.024 25.8581C124.032 25.8024 124.037 25.7508 124.037 25.7034C124.037 25.5251 123.979 25.3872 123.865 25.2896C123.754 25.1921 123.607 25.1433 123.426 25.1433C123.231 25.1433 123.054 25.2074 122.896 25.3356C122.737 25.461 122.629 25.6352 122.574 25.8581H124.024ZM129.102 24.8173C129.336 24.8173 129.523 24.8814 129.663 25.0096C129.805 25.135 129.876 25.3189 129.876 25.5613C129.876 25.6505 129.869 25.7299 129.855 25.7996L129.617 27.1497H129.24L129.47 25.8539C129.481 25.7954 129.487 25.7327 129.487 25.6658C129.487 25.4958 129.441 25.3677 129.349 25.2813C129.26 25.1921 129.133 25.1475 128.969 25.1475C128.779 25.1475 128.616 25.206 128.48 25.3231C128.346 25.4373 128.254 25.6031 128.204 25.8205L127.965 27.1497H127.589L127.819 25.8539C127.83 25.7898 127.836 25.7257 127.836 25.6616C127.836 25.4944 127.79 25.3677 127.698 25.2813C127.609 25.1921 127.482 25.1475 127.318 25.1475C127.12 25.1475 126.951 25.2116 126.812 25.3398C126.673 25.4652 126.582 25.6477 126.54 25.8874V25.879L126.314 27.1497H125.934L126.34 24.8591H126.72L126.661 25.1893C126.756 25.0695 126.873 24.9775 127.012 24.9135C127.152 24.8494 127.298 24.8173 127.451 24.8173C127.644 24.8173 127.805 24.8605 127.936 24.9469C128.07 25.0333 128.158 25.1601 128.2 25.3273C128.294 25.1656 128.422 25.0402 128.584 24.9511C128.749 24.8619 128.921 24.8173 129.102 24.8173ZM130.299 25.996C130.341 25.762 130.424 25.5571 130.55 25.3816C130.678 25.2033 130.833 25.0653 131.014 24.9678C131.198 24.8703 131.393 24.8215 131.599 24.8215C131.8 24.8215 131.965 24.8647 132.096 24.9511C132.227 25.0375 132.318 25.1461 132.368 25.2771L132.443 24.8591H132.828L132.422 27.1497H132.038L132.117 26.7233C132.017 26.8571 131.885 26.9685 131.72 27.0577C131.556 27.1441 131.375 27.1873 131.177 27.1873C130.998 27.1873 130.841 27.1497 130.704 27.0744C130.568 26.9964 130.462 26.8863 130.387 26.7442C130.312 26.6021 130.274 26.4377 130.274 26.251C130.274 26.1674 130.282 26.0824 130.299 25.996ZM132.243 26.0002C132.254 25.9417 132.259 25.879 132.259 25.8121C132.259 25.6087 132.198 25.4485 132.075 25.3314C131.956 25.2116 131.802 25.1517 131.616 25.1517C131.474 25.1517 131.337 25.1851 131.206 25.252C131.078 25.3189 130.968 25.4164 130.876 25.5446C130.784 25.6728 130.723 25.8233 130.692 25.996C130.681 26.0545 130.675 26.1186 130.675 26.1883C130.675 26.3945 130.735 26.5575 130.855 26.6773C130.975 26.7944 131.128 26.8529 131.315 26.8529C131.457 26.8529 131.592 26.8195 131.72 26.7526C131.851 26.6829 131.963 26.584 132.055 26.4558C132.149 26.3248 132.212 26.173 132.243 26.0002ZM133.642 26.5227C133.634 26.5645 133.629 26.6007 133.629 26.6314C133.629 26.701 133.65 26.7512 133.692 26.7818C133.737 26.8125 133.808 26.8278 133.905 26.8278H134.185L134.127 27.1497H133.784C133.603 27.1497 133.466 27.1148 133.374 27.0452C133.285 26.9755 133.241 26.8613 133.241 26.7024C133.241 26.6411 133.246 26.5812 133.257 26.5227L133.496 25.1726H133.203L133.257 24.8591H133.554L133.654 24.2823H134.039L133.939 24.8591H134.532L134.478 25.1726H133.88L133.642 26.5227ZM135.988 24.8215C136.18 24.8215 136.346 24.8591 136.485 24.9344C136.627 25.0068 136.735 25.1099 136.807 25.2437C136.882 25.3746 136.92 25.5251 136.92 25.6951C136.92 25.7536 136.913 25.8247 136.899 25.9083C136.888 25.9807 136.87 26.0559 136.845 26.134H135.014C135.008 26.1897 135.006 26.2301 135.006 26.2552C135.006 26.4474 135.063 26.5979 135.177 26.7066C135.294 26.8125 135.446 26.8654 135.633 26.8654C135.797 26.8654 135.941 26.8278 136.063 26.7526C136.189 26.6746 136.283 26.5714 136.347 26.4433H136.757C136.657 26.6634 136.502 26.8431 136.293 26.9825C136.087 27.119 135.847 27.1873 135.574 27.1873C135.287 27.1873 135.056 27.1051 134.88 26.9407C134.707 26.7735 134.621 26.5464 134.621 26.2594C134.621 26.1785 134.629 26.0922 134.646 26.0002C134.688 25.7634 134.773 25.5558 134.901 25.3774C135.029 25.1991 135.187 25.0625 135.373 24.9678C135.563 24.8703 135.768 24.8215 135.988 24.8215ZM136.515 25.8581C136.523 25.8024 136.527 25.7508 136.527 25.7034C136.527 25.5251 136.47 25.3872 136.356 25.2896C136.244 25.1921 136.098 25.1433 135.917 25.1433C135.722 25.1433 135.545 25.2074 135.386 25.3356C135.227 25.461 135.12 25.6352 135.064 25.8581H136.515ZM137.89 25.2938C137.982 25.1433 138.098 25.0263 138.237 24.9427C138.376 24.8591 138.535 24.8173 138.714 24.8173L138.643 25.2102H138.542C138.344 25.2102 138.179 25.2632 138.045 25.3691C137.914 25.4749 137.826 25.6533 137.782 25.9041L137.56 27.1497H137.18L137.585 24.8591H137.965L137.89 25.2938ZM139.403 24.4871C139.342 24.4871 139.291 24.4676 139.249 24.4286C139.21 24.3868 139.19 24.3352 139.19 24.2739C139.19 24.1903 139.221 24.1193 139.282 24.0608C139.344 23.9995 139.415 23.9688 139.495 23.9688C139.56 23.9688 139.611 23.9883 139.65 24.0273C139.689 24.0663 139.709 24.1179 139.709 24.182C139.709 24.2656 139.678 24.338 139.617 24.3993C139.555 24.4579 139.484 24.4871 139.403 24.4871ZM139.525 24.8591L139.119 27.1497H138.739L139.144 24.8591H139.525ZM139.826 25.996C139.868 25.762 139.951 25.5571 140.077 25.3816C140.205 25.2033 140.36 25.0653 140.541 24.9678C140.725 24.8703 140.92 24.8215 141.126 24.8215C141.327 24.8215 141.492 24.8647 141.623 24.9511C141.754 25.0375 141.845 25.1461 141.895 25.2771L141.97 24.8591H142.355L141.949 27.1497H141.565L141.644 26.7233C141.544 26.8571 141.412 26.9685 141.247 27.0577C141.083 27.1441 140.902 27.1873 140.704 27.1873C140.525 27.1873 140.368 27.1497 140.231 27.0744C140.095 26.9964 139.989 26.8863 139.914 26.7442C139.839 26.6021 139.801 26.4377 139.801 26.251C139.801 26.1674 139.809 26.0824 139.826 25.996ZM141.77 26.0002C141.781 25.9417 141.786 25.879 141.786 25.8121C141.786 25.6087 141.725 25.4485 141.602 25.3314C141.483 25.2116 141.329 25.1517 141.143 25.1517C141.001 25.1517 140.864 25.1851 140.733 25.252C140.605 25.3189 140.495 25.4164 140.403 25.5446C140.311 25.6728 140.25 25.8233 140.219 25.996C140.208 26.0545 140.202 26.1186 140.202 26.1883C140.202 26.3945 140.262 26.5575 140.382 26.6773C140.502 26.7944 140.655 26.8529 140.842 26.8529C140.984 26.8529 141.119 26.8195 141.247 26.7526C141.378 26.6829 141.49 26.584 141.582 26.4558C141.676 26.3248 141.739 26.173 141.77 26.0002ZM143.52 24.0566L142.973 27.1497H142.592L143.14 24.0566H143.52Z" fill="white"/>
<defs>
<clipPath id="clip0_774_14">
<rect width="11.1462" height="11.1462" fill="white" transform="translate(60.7891 5.14429)"/>
</clipPath>
<clipPath id="clip1_774_14">
<rect width="11.1462" height="11.1462" fill="white" transform="translate(116.303 5.14453)"/>
</clipPath>
</defs>
</svg>
