<svg width="162" height="37" viewBox="0 0 162 37" fill="none" xmlns="http://www.w3.org/2000/svg">
<path d="M5.88 17L3.836 13.29H3.262V17H0.868V7.172H4.886C5.66067 7.172 6.31867 7.30733 6.86 7.578C7.41067 7.84867 7.82133 8.222 8.092 8.698C8.36267 9.16467 8.498 9.68733 8.498 10.266C8.498 10.9193 8.31133 11.5027 7.938 12.016C7.574 12.5293 7.03267 12.8933 6.314 13.108L8.582 17H5.88ZM3.262 11.596H4.746C5.18467 11.596 5.51133 11.4887 5.726 11.274C5.95 11.0593 6.062 10.756 6.062 10.364C6.062 9.99067 5.95 9.69667 5.726 9.482C5.51133 9.26733 5.18467 9.16 4.746 9.16H3.262V11.596ZM15.6988 17L12.3948 12.66V17H10.0008V7.172H12.3948V11.484L15.6708 7.172H18.4848L14.6768 11.988L18.6248 17H15.6988ZM30.2193 10.336C30.2193 10.9053 30.0887 11.428 29.8273 11.904C29.566 12.3707 29.1647 12.7487 28.6233 13.038C28.082 13.3273 27.41 13.472 26.6073 13.472H25.1233V17H22.7293V7.172H26.6073C27.3913 7.172 28.054 7.30733 28.5953 7.578C29.1367 7.84867 29.5427 8.222 29.8133 8.698C30.084 9.174 30.2193 9.72 30.2193 10.336ZM26.4253 11.568C26.8827 11.568 27.2233 11.4607 27.4473 11.246C27.6713 11.0313 27.7833 10.728 27.7833 10.336C27.7833 9.944 27.6713 9.64067 27.4473 9.426C27.2233 9.21133 26.8827 9.104 26.4253 9.104H25.1233V11.568H26.4253ZM36.1137 17.098C35.1897 17.098 34.3403 16.8833 33.5657 16.454C32.8003 16.0247 32.189 15.4273 31.7317 14.662C31.2837 13.8873 31.0597 13.0193 31.0597 12.058C31.0597 11.0967 31.2837 10.2333 31.7317 9.468C32.189 8.70267 32.8003 8.10533 33.5657 7.676C34.3403 7.24667 35.1897 7.032 36.1137 7.032C37.0377 7.032 37.8823 7.24667 38.6477 7.676C39.4223 8.10533 40.029 8.70267 40.4677 9.468C40.9157 10.2333 41.1397 11.0967 41.1397 12.058C41.1397 13.0193 40.9157 13.8873 40.4677 14.662C40.0197 15.4273 39.413 16.0247 38.6477 16.454C37.8823 16.8833 37.0377 17.098 36.1137 17.098ZM36.1137 14.914C36.8977 14.914 37.523 14.6527 37.9897 14.13C38.4657 13.6073 38.7037 12.9167 38.7037 12.058C38.7037 11.19 38.4657 10.4993 37.9897 9.986C37.523 9.46333 36.8977 9.202 36.1137 9.202C35.3203 9.202 34.6857 9.45867 34.2097 9.972C33.743 10.4853 33.5097 11.1807 33.5097 12.058C33.5097 12.926 33.743 13.6213 34.2097 14.144C34.6857 14.6573 35.3203 14.914 36.1137 14.914ZM44.8655 15.152H48.0015V17H42.4715V7.172H44.8655V15.152ZM51.5374 15.152H54.6734V17H49.1434V7.172H51.5374V15.152ZM64.2433 7.172L60.8413 13.752V17H58.4473V13.752L55.0453 7.172H57.7613L59.6653 11.288L61.5553 7.172H64.2433ZM70.7354 12.072C70.7354 11.1013 70.9454 10.238 71.3654 9.482C71.7854 8.71667 72.3688 8.124 73.1154 7.704C73.8714 7.27467 74.7254 7.06 75.6774 7.06C76.8441 7.06 77.8428 7.368 78.6734 7.984C79.5041 8.6 80.0594 9.44 80.3394 10.504H77.7074C77.5114 10.0933 77.2314 9.78067 76.8674 9.566C76.5128 9.35133 76.1068 9.244 75.6494 9.244C74.9121 9.244 74.3148 9.50067 73.8574 10.014C73.4001 10.5273 73.1714 11.2133 73.1714 12.072C73.1714 12.9307 73.4001 13.6167 73.8574 14.13C74.3148 14.6433 74.9121 14.9 75.6494 14.9C76.1068 14.9 76.5128 14.7927 76.8674 14.578C77.2314 14.3633 77.5114 14.0507 77.7074 13.64H80.3394C80.0594 14.704 79.5041 15.544 78.6734 16.16C77.8428 16.7667 76.8441 17.07 75.6774 17.07C74.7254 17.07 73.8714 16.86 73.1154 16.44C72.3688 16.0107 71.7854 15.418 71.3654 14.662C70.9454 13.906 70.7354 13.0427 70.7354 12.072ZM86.4535 17.098C85.5295 17.098 84.6802 16.8833 83.9055 16.454C83.1402 16.0247 82.5288 15.4273 82.0715 14.662C81.6235 13.8873 81.3995 13.0193 81.3995 12.058C81.3995 11.0967 81.6235 10.2333 82.0715 9.468C82.5288 8.70267 83.1402 8.10533 83.9055 7.676C84.6802 7.24667 85.5295 7.032 86.4535 7.032C87.3775 7.032 88.2222 7.24667 88.9875 7.676C89.7622 8.10533 90.3688 8.70267 90.8075 9.468C91.2555 10.2333 91.4795 11.0967 91.4795 12.058C91.4795 13.0193 91.2555 13.8873 90.8075 14.662C90.3595 15.4273 89.7528 16.0247 88.9875 16.454C88.2222 16.8833 87.3775 17.098 86.4535 17.098ZM86.4535 14.914C87.2375 14.914 87.8628 14.6527 88.3295 14.13C88.8055 13.6073 89.0435 12.9167 89.0435 12.058C89.0435 11.19 88.8055 10.4993 88.3295 9.986C87.8628 9.46333 87.2375 9.202 86.4535 9.202C85.6602 9.202 85.0255 9.45867 84.5495 9.972C84.0828 10.4853 83.8495 11.1807 83.8495 12.058C83.8495 12.926 84.0828 13.6213 84.5495 14.144C85.0255 14.6573 85.6602 14.914 86.4535 14.914ZM101.603 17H99.2094L95.2054 10.938V17H92.8114V7.172H95.2054L99.2094 13.262V7.172H101.603V17ZM110.409 7.172V9.09H107.805V17H105.411V9.09H102.807V7.172H110.409ZM117.728 15.264H114.06L113.472 17H110.966L114.522 7.172H117.294L120.85 17H118.316L117.728 15.264ZM117.112 13.416L115.894 9.818L114.69 13.416H117.112ZM124.326 7.172V17H121.932V7.172H124.326ZM134.853 17H132.459L128.455 10.938V17H126.061V7.172H128.455L132.459 13.262V7.172H134.853V17ZM138.983 9.09V11.078H142.189V12.926H138.983V15.082H142.609V17H136.589V7.172H142.609V9.09H138.983ZM149.175 17L147.131 13.29H146.557V17H144.163V7.172H148.181C148.956 7.172 149.614 7.30733 150.155 7.578C150.706 7.84867 151.116 8.222 151.387 8.698C151.658 9.16467 151.793 9.68733 151.793 10.266C151.793 10.9193 151.606 11.5027 151.233 12.016C150.869 12.5293 150.328 12.8933 149.609 13.108L151.877 17H149.175ZM146.557 11.596H148.041C148.48 11.596 148.806 11.4887 149.021 11.274C149.245 11.0593 149.357 10.756 149.357 10.364C149.357 9.99067 149.245 9.69667 149.021 9.482C148.806 9.26733 148.48 9.16 148.041 9.16H146.557V11.596ZM156.852 17.098C156.133 17.098 155.489 16.9813 154.92 16.748C154.35 16.5147 153.893 16.1693 153.548 15.712C153.212 15.2547 153.034 14.704 153.016 14.06H155.564C155.601 14.424 155.727 14.704 155.942 14.9C156.156 15.0867 156.436 15.18 156.782 15.18C157.136 15.18 157.416 15.1007 157.622 14.942C157.827 14.774 157.93 14.5453 157.93 14.256C157.93 14.0133 157.846 13.8127 157.678 13.654C157.519 13.4953 157.318 13.3647 157.076 13.262C156.842 13.1593 156.506 13.0427 156.068 12.912C155.433 12.716 154.915 12.52 154.514 12.324C154.112 12.128 153.767 11.8387 153.478 11.456C153.188 11.0733 153.044 10.574 153.044 9.958C153.044 9.04333 153.375 8.32933 154.038 7.816C154.7 7.29333 155.564 7.032 156.628 7.032C157.71 7.032 158.583 7.29333 159.246 7.816C159.908 8.32933 160.263 9.048 160.31 9.972H157.72C157.701 9.65467 157.584 9.40733 157.37 9.23C157.155 9.04333 156.88 8.95 156.544 8.95C156.254 8.95 156.021 9.02933 155.844 9.188C155.666 9.33733 155.578 9.55667 155.578 9.846C155.578 10.1633 155.727 10.4107 156.026 10.588C156.324 10.7653 156.791 10.9567 157.426 11.162C158.06 11.3767 158.574 11.582 158.966 11.778C159.367 11.974 159.712 12.2587 160.002 12.632C160.291 13.0053 160.436 13.486 160.436 14.074C160.436 14.634 160.291 15.1427 160.002 15.6C159.722 16.0573 159.311 16.4213 158.77 16.692C158.228 16.9627 157.589 17.098 156.852 17.098Z" fill="white"/>
<path d="M3.552 34L2.224 31.72H1.344V34H0.616V28.424H2.416C2.83733 28.424 3.192 28.496 3.48 28.64C3.77333 28.784 3.992 28.9787 4.136 29.224C4.28 29.4693 4.352 29.7493 4.352 30.064C4.352 30.448 4.24 30.7867 4.016 31.08C3.79733 31.3733 3.46667 31.568 3.024 31.664L4.424 34H3.552ZM1.344 31.136H2.416C2.81067 31.136 3.10667 31.04 3.304 30.848C3.50133 30.6507 3.6 30.3893 3.6 30.064C3.6 29.7333 3.50133 29.4773 3.304 29.296C3.112 29.1147 2.816 29.024 2.416 29.024H1.344V31.136ZM8.01119 34.056C7.49385 34.056 7.02185 33.936 6.59519 33.696C6.16852 33.4507 5.82985 33.112 5.57919 32.68C5.33385 32.2427 5.21119 31.752 5.21119 31.208C5.21119 30.664 5.33385 30.176 5.57919 29.744C5.82985 29.3067 6.16852 28.968 6.59519 28.728C7.02185 28.4827 7.49385 28.36 8.01119 28.36C8.53385 28.36 9.00852 28.4827 9.43519 28.728C9.86185 28.968 10.1979 29.304 10.4432 29.736C10.6885 30.168 10.8112 30.6587 10.8112 31.208C10.8112 31.7573 10.6885 32.248 10.4432 32.68C10.1979 33.112 9.86185 33.4507 9.43519 33.696C9.00852 33.936 8.53385 34.056 8.01119 34.056ZM8.01119 33.424C8.40052 33.424 8.74985 33.3333 9.05919 33.152C9.37385 32.9707 9.61919 32.712 9.79519 32.376C9.97652 32.04 10.0672 31.6507 10.0672 31.208C10.0672 30.76 9.97652 30.3707 9.79519 30.04C9.61919 29.704 9.37652 29.4453 9.06719 29.264C8.75785 29.0827 8.40585 28.992 8.01119 28.992C7.61652 28.992 7.26452 29.0827 6.95519 29.264C6.64585 29.4453 6.40052 29.704 6.21919 30.04C6.04319 30.3707 5.95519 30.76 5.95519 31.208C5.95519 31.6507 6.04319 32.04 6.21919 32.376C6.40052 32.712 6.64585 32.9707 6.95519 33.152C7.26985 33.3333 7.62185 33.424 8.01119 33.424ZM12.4843 28.424V31.952C12.4843 32.448 12.6043 32.816 12.8443 33.056C13.0896 33.296 13.4283 33.416 13.8603 33.416C14.2869 33.416 14.6203 33.296 14.8603 33.056C15.1056 32.816 15.2283 32.448 15.2283 31.952V28.424H15.9563V31.944C15.9563 32.408 15.8629 32.8 15.6762 33.12C15.4896 33.4347 15.2363 33.6693 14.9163 33.824C14.6016 33.9787 14.2469 34.056 13.8523 34.056C13.4576 34.056 13.1003 33.9787 12.7803 33.824C12.4656 33.6693 12.2149 33.4347 12.0283 33.12C11.8469 32.8 11.7563 32.408 11.7563 31.944V28.424H12.4843ZM21.5547 34H20.8267L17.8987 29.56V34H17.1707V28.416H17.8987L20.8267 32.848V28.416H21.5547V34ZM24.5317 28.424C25.1397 28.424 25.665 28.5387 26.1077 28.768C26.5557 28.992 26.897 29.3147 27.1317 29.736C27.3717 30.1573 27.4917 30.6533 27.4917 31.224C27.4917 31.7947 27.3717 32.2907 27.1317 32.712C26.897 33.128 26.5557 33.448 26.1077 33.672C25.665 33.8907 25.1397 34 24.5317 34H22.7957V28.424H24.5317ZM24.5317 33.4C25.2517 33.4 25.801 33.2107 26.1797 32.832C26.5584 32.448 26.7477 31.912 26.7477 31.224C26.7477 30.5307 26.5557 29.9893 26.1717 29.6C25.793 29.2107 25.2464 29.016 24.5317 29.016H23.5237V33.4H24.5317ZM30.3128 31.208C30.3128 30.664 30.4354 30.176 30.6808 29.744C30.9261 29.3067 31.2594 28.9653 31.6808 28.72C32.1074 28.4747 32.5794 28.352 33.0968 28.352C33.7048 28.352 34.2354 28.4987 34.6888 28.792C35.1421 29.0853 35.4728 29.5013 35.6808 30.04H34.8088C34.6541 29.704 34.4301 29.4453 34.1368 29.264C33.8488 29.0827 33.5021 28.992 33.0968 28.992C32.7074 28.992 32.3581 29.0827 32.0488 29.264C31.7394 29.4453 31.4968 29.704 31.3208 30.04C31.1448 30.3707 31.0568 30.76 31.0568 31.208C31.0568 31.6507 31.1448 32.04 31.3208 32.376C31.4968 32.7067 31.7394 32.9627 32.0488 33.144C32.3581 33.3253 32.7074 33.416 33.0968 33.416C33.5021 33.416 33.8488 33.328 34.1368 33.152C34.4301 32.9707 34.6541 32.712 34.8088 32.376H35.6808C35.4728 32.9093 35.1421 33.3227 34.6888 33.616C34.2354 33.904 33.7048 34.048 33.0968 34.048C32.5794 34.048 32.1074 33.928 31.6808 33.688C31.2594 33.4427 30.9261 33.104 30.6808 32.672C30.4354 32.24 30.3128 31.752 30.3128 31.208ZM39.2924 34.056C38.7751 34.056 38.3031 33.936 37.8764 33.696C37.4498 33.4507 37.1111 33.112 36.8604 32.68C36.6151 32.2427 36.4924 31.752 36.4924 31.208C36.4924 30.664 36.6151 30.176 36.8604 29.744C37.1111 29.3067 37.4498 28.968 37.8764 28.728C38.3031 28.4827 38.7751 28.36 39.2924 28.36C39.8151 28.36 40.2898 28.4827 40.7164 28.728C41.1431 28.968 41.4791 29.304 41.7244 29.736C41.9698 30.168 42.0924 30.6587 42.0924 31.208C42.0924 31.7573 41.9698 32.248 41.7244 32.68C41.4791 33.112 41.1431 33.4507 40.7164 33.696C40.2898 33.936 39.8151 34.056 39.2924 34.056ZM39.2924 33.424C39.6818 33.424 40.0311 33.3333 40.3404 33.152C40.6551 32.9707 40.9004 32.712 41.0764 32.376C41.2578 32.04 41.3484 31.6507 41.3484 31.208C41.3484 30.76 41.2578 30.3707 41.0764 30.04C40.9004 29.704 40.6578 29.4453 40.3484 29.264C40.0391 29.0827 39.6871 28.992 39.2924 28.992C38.8978 28.992 38.5458 29.0827 38.2364 29.264C37.9271 29.4453 37.6818 29.704 37.5004 30.04C37.3244 30.3707 37.2364 30.76 37.2364 31.208C37.2364 31.6507 37.3244 32.04 37.5004 32.376C37.6818 32.712 37.9271 32.9707 38.2364 33.152C38.5511 33.3333 38.9031 33.424 39.2924 33.424ZM47.4375 34H46.7095L43.7815 29.56V34H43.0535V28.416H43.7815L46.7095 32.848V28.416H47.4375V34ZM52.1105 28.424V29.016H50.5905V34H49.8625V29.016H48.3345V28.424H52.1105ZM56.3026 32.76H53.8706L53.4226 34H52.6546L54.6706 28.456H55.5106L57.5186 34H56.7506L56.3026 32.76ZM56.0946 32.168L55.0866 29.352L54.0786 32.168H56.0946ZM59.1253 28.424V34H58.3973V28.424H59.1253ZM64.75 34H64.022L61.094 29.56V34H60.366V28.416H61.094L64.022 32.848V28.416H64.75V34ZM66.719 29.016V30.88H68.751V31.48H66.719V33.4H68.991V34H65.991V28.416H68.991V29.016H66.719ZM73.0286 34L71.7006 31.72H70.8206V34H70.0926V28.424H71.8926C72.3139 28.424 72.6686 28.496 72.9566 28.64C73.2499 28.784 73.4686 28.9787 73.6126 29.224C73.7566 29.4693 73.8286 29.7493 73.8286 30.064C73.8286 30.448 73.7166 30.7867 73.4926 31.08C73.2739 31.3733 72.9432 31.568 72.5006 31.664L73.9006 34H73.0286ZM70.8206 31.136H71.8926C72.2872 31.136 72.5832 31.04 72.7806 30.848C72.9779 30.6507 73.0766 30.3893 73.0766 30.064C73.0766 29.7333 72.9779 29.4773 72.7806 29.296C72.5886 29.1147 72.2926 29.024 71.8926 29.024H70.8206V31.136ZM80.1326 30.76V31.376H76.9406V30.76H80.1326ZM87.3596 30.056C87.3596 30.52 87.1996 30.9067 86.8796 31.216C86.565 31.52 86.0823 31.672 85.4316 31.672H84.3596V34H83.6316V28.424H85.4316C86.061 28.424 86.5383 28.576 86.8636 28.88C87.1943 29.184 87.3596 29.576 87.3596 30.056ZM85.4316 31.072C85.837 31.072 86.1356 30.984 86.3276 30.808C86.5196 30.632 86.6156 30.3813 86.6156 30.056C86.6156 29.368 86.221 29.024 85.4316 29.024H84.3596V31.072H85.4316ZM91.2004 34L89.8724 31.72H88.9924V34H88.2644V28.424H90.0644C90.4858 28.424 90.8404 28.496 91.1284 28.64C91.4218 28.784 91.6404 28.9787 91.7844 29.224C91.9284 29.4693 92.0004 29.7493 92.0004 30.064C92.0004 30.448 91.8884 30.7867 91.6644 31.08C91.4458 31.3733 91.1151 31.568 90.6724 31.664L92.0724 34H91.2004ZM88.9924 31.136H90.0644C90.4591 31.136 90.7551 31.04 90.9524 30.848C91.1498 30.6507 91.2484 30.3893 91.2484 30.064C91.2484 29.7333 91.1498 29.4773 90.9524 29.296C90.7604 29.1147 90.4644 29.024 90.0644 29.024H88.9924V31.136ZM95.6596 34.056C95.1423 34.056 94.6703 33.936 94.2436 33.696C93.817 33.4507 93.4783 33.112 93.2276 32.68C92.9823 32.2427 92.8596 31.752 92.8596 31.208C92.8596 30.664 92.9823 30.176 93.2276 29.744C93.4783 29.3067 93.817 28.968 94.2436 28.728C94.6703 28.4827 95.1423 28.36 95.6596 28.36C96.1823 28.36 96.657 28.4827 97.0836 28.728C97.5103 28.968 97.8463 29.304 98.0916 29.736C98.337 30.168 98.4596 30.6587 98.4596 31.208C98.4596 31.7573 98.337 32.248 98.0916 32.68C97.8463 33.112 97.5103 33.4507 97.0836 33.696C96.657 33.936 96.1823 34.056 95.6596 34.056ZM95.6596 33.424C96.049 33.424 96.3983 33.3333 96.7076 33.152C97.0223 32.9707 97.2676 32.712 97.4436 32.376C97.625 32.04 97.7156 31.6507 97.7156 31.208C97.7156 30.76 97.625 30.3707 97.4436 30.04C97.2676 29.704 97.025 29.4453 96.7156 29.264C96.4063 29.0827 96.0543 28.992 95.6596 28.992C95.265 28.992 94.913 29.0827 94.6036 29.264C94.2943 29.4453 94.049 29.704 93.8676 30.04C93.6916 30.3707 93.6036 30.76 93.6036 31.208C93.6036 31.6507 93.6916 32.04 93.8676 32.376C94.049 32.712 94.2943 32.9707 94.6036 33.152C94.9183 33.3333 95.2703 33.424 95.6596 33.424ZM101.157 28.424C101.765 28.424 102.29 28.5387 102.733 28.768C103.181 28.992 103.522 29.3147 103.757 29.736C103.997 30.1573 104.117 30.6533 104.117 31.224C104.117 31.7947 103.997 32.2907 103.757 32.712C103.522 33.128 103.181 33.448 102.733 33.672C102.29 33.8907 101.765 34 101.157 34H99.4207V28.424H101.157ZM101.157 33.4C101.877 33.4 102.426 33.2107 102.805 32.832C103.183 32.448 103.373 31.912 103.373 31.224C103.373 30.5307 103.181 29.9893 102.797 29.6C102.418 29.2107 101.871 29.016 101.157 29.016H100.149V33.4H101.157ZM105.789 28.424V31.952C105.789 32.448 105.909 32.816 106.149 33.056C106.394 33.296 106.733 33.416 107.165 33.416C107.592 33.416 107.925 33.296 108.165 33.056C108.41 32.816 108.533 32.448 108.533 31.952V28.424H109.261V31.944C109.261 32.408 109.168 32.8 108.981 33.12C108.794 33.4347 108.541 33.6693 108.221 33.824C107.906 33.9787 107.552 34.056 107.157 34.056C106.762 34.056 106.405 33.9787 106.085 33.824C105.77 33.6693 105.52 33.4347 105.333 33.12C105.152 32.8 105.061 32.408 105.061 31.944V28.424H105.789ZM110.203 31.208C110.203 30.664 110.326 30.176 110.571 29.744C110.817 29.3067 111.15 28.9653 111.571 28.72C111.998 28.4747 112.47 28.352 112.987 28.352C113.595 28.352 114.126 28.4987 114.579 28.792C115.033 29.0853 115.363 29.5013 115.571 30.04H114.699C114.545 29.704 114.321 29.4453 114.027 29.264C113.739 29.0827 113.393 28.992 112.987 28.992C112.598 28.992 112.249 29.0827 111.939 29.264C111.63 29.4453 111.387 29.704 111.211 30.04C111.035 30.3707 110.947 30.76 110.947 31.208C110.947 31.6507 111.035 32.04 111.211 32.376C111.387 32.7067 111.63 32.9627 111.939 33.144C112.249 33.3253 112.598 33.416 112.987 33.416C113.393 33.416 113.739 33.328 114.027 33.152C114.321 32.9707 114.545 32.712 114.699 32.376H115.571C115.363 32.9093 115.033 33.3227 114.579 33.616C114.126 33.904 113.595 34.048 112.987 34.048C112.47 34.048 111.998 33.928 111.571 33.688C111.15 33.4427 110.817 33.104 110.571 32.672C110.326 32.24 110.203 31.752 110.203 31.208ZM120.087 28.424V29.016H118.567V34H117.839V29.016H116.311V28.424H120.087ZM126.844 30.056C126.844 30.52 126.684 30.9067 126.364 31.216C126.049 31.52 125.567 31.672 124.916 31.672H123.844V34H123.116V28.424H124.916C125.545 28.424 126.023 28.576 126.348 28.88C126.679 29.184 126.844 29.576 126.844 30.056ZM124.916 31.072C125.321 31.072 125.62 30.984 125.812 30.808C126.004 30.632 126.1 30.3813 126.1 30.056C126.1 29.368 125.705 29.024 124.916 29.024H123.844V31.072H124.916ZM131.045 32.76H128.613L128.165 34H127.397L129.413 28.456H130.253L132.261 34H131.493L131.045 32.76ZM130.837 32.168L129.829 29.352L128.821 32.168H130.837ZM137.363 30.04C137.209 29.7147 136.985 29.464 136.691 29.288C136.398 29.1067 136.057 29.016 135.667 29.016C135.278 29.016 134.926 29.1067 134.611 29.288C134.302 29.464 134.057 29.72 133.875 30.056C133.699 30.3867 133.611 30.7707 133.611 31.208C133.611 31.6453 133.699 32.0293 133.875 32.36C134.057 32.6907 134.302 32.9467 134.611 33.128C134.926 33.304 135.278 33.392 135.667 33.392C136.211 33.392 136.659 33.2293 137.011 32.904C137.363 32.5787 137.569 32.1387 137.627 31.584H135.403V30.992H138.403V31.552C138.361 32.0107 138.217 32.432 137.971 32.816C137.726 33.1947 137.403 33.496 137.003 33.72C136.603 33.9387 136.158 34.048 135.667 34.048C135.15 34.048 134.678 33.928 134.251 33.688C133.825 33.4427 133.486 33.104 133.235 32.672C132.99 32.24 132.867 31.752 132.867 31.208C132.867 30.664 132.99 30.176 133.235 29.744C133.486 29.3067 133.825 28.968 134.251 28.728C134.678 28.4827 135.15 28.36 135.667 28.36C136.259 28.36 136.782 28.5067 137.235 28.8C137.694 29.0933 138.027 29.5067 138.235 30.04H137.363ZM140.094 29.016V30.88H142.126V31.48H140.094V33.4H142.366V34H139.366V28.416H142.366V29.016H140.094Z" fill="white"/>
</svg>
