<svg width="94" height="37" viewBox="0 0 94 37" fill="none" xmlns="http://www.w3.org/2000/svg">
<path d="M5.75012 13.3985C5.8232 13.3985 5.88797 13.4268 5.94444 13.4832L6.47262 14.0563C6.1803 14.4183 5.81988 14.6957 5.39136 14.8884C4.96616 15.081 4.4546 15.1774 3.85666 15.1774C3.32185 15.1774 2.84018 15.086 2.41166 14.9033C1.98646 14.7206 1.62272 14.4665 1.32043 14.141C1.01815 13.8154 0.785617 13.4268 0.622846 12.975C0.463398 12.5232 0.383673 12.0299 0.383673 11.4951C0.383673 10.9537 0.470041 10.4587 0.642777 10.0102C0.815513 9.55848 1.05801 9.16982 1.37026 8.84428C1.68584 8.51874 2.06121 8.26628 2.49637 8.0869C2.93153 7.9042 3.4132 7.81285 3.94137 7.81285C4.46622 7.81285 4.93128 7.89922 5.33655 8.07195C5.74513 8.24469 6.09227 8.47057 6.37795 8.74961L5.9295 9.37245C5.90292 9.41232 5.86804 9.4472 5.82486 9.47709C5.785 9.50699 5.72852 9.52194 5.65544 9.52194C5.60562 9.52194 5.55413 9.50865 5.50098 9.48207C5.44783 9.45218 5.3897 9.4173 5.32658 9.37744C5.26347 9.33425 5.19039 9.28775 5.10734 9.23792C5.02429 9.18809 4.92796 9.14325 4.81834 9.10338C4.70872 9.0602 4.58083 9.02532 4.43467 8.99875C4.29183 8.96885 4.12573 8.9539 3.93639 8.9539C3.61417 8.9539 3.31852 9.01203 3.04946 9.1283C2.78371 9.24124 2.5545 9.40733 2.36183 9.62658C2.16917 9.8425 2.01968 10.1082 1.91338 10.4238C1.80708 10.7361 1.75393 11.0932 1.75393 11.4951C1.75393 11.9004 1.81041 12.2608 1.92335 12.5764C2.03961 12.892 2.19574 13.1577 2.39173 13.3736C2.58772 13.5895 2.81859 13.7556 3.08433 13.8719C3.35008 13.9848 3.63576 14.0413 3.94137 14.0413C4.12407 14.0413 4.2885 14.0313 4.43467 14.0114C4.58415 13.9915 4.72034 13.9599 4.84325 13.9167C4.96948 13.8736 5.08741 13.8187 5.19703 13.7523C5.30997 13.6825 5.42125 13.5978 5.53087 13.4982C5.56409 13.4683 5.59897 13.445 5.63551 13.4284C5.67205 13.4085 5.71025 13.3985 5.75012 13.3985ZM9.8971 12.9152C9.54167 12.9318 9.2427 12.9634 9.00021 13.0099C8.75771 13.0531 8.56338 13.1095 8.41722 13.1793C8.27106 13.249 8.16642 13.3304 8.10331 13.4234C8.04019 13.5165 8.00863 13.6178 8.00863 13.7274C8.00863 13.9433 8.07175 14.0978 8.19798 14.1908C8.32753 14.2838 8.49528 14.3303 8.70124 14.3303C8.9537 14.3303 9.17128 14.2855 9.35398 14.1958C9.54001 14.1028 9.72105 13.9632 9.8971 13.7772V12.9152ZM7.07686 10.6979C7.66482 10.1597 8.37238 9.89066 9.19952 9.89066C9.49848 9.89066 9.76589 9.94049 10.0017 10.0401C10.2376 10.1365 10.4369 10.2727 10.5997 10.4487C10.7624 10.6215 10.8854 10.8291 10.9684 11.0716C11.0548 11.3141 11.098 11.5798 11.098 11.8688V15.0977H10.5399C10.4236 15.0977 10.3339 15.081 10.2708 15.0478C10.2077 15.0113 10.1579 14.9399 10.1213 14.8336L10.0117 14.4648C9.88216 14.5811 9.75593 14.6841 9.63302 14.7738C9.51011 14.8601 9.38222 14.9332 9.24934 14.993C9.11647 15.0528 8.97363 15.0977 8.82083 15.1276C8.67134 15.1608 8.50525 15.1774 8.32255 15.1774C8.10663 15.1774 7.90732 15.1491 7.72462 15.0927C7.54191 15.0329 7.38413 14.9449 7.25125 14.8286C7.11838 14.7123 7.0154 14.5678 6.94232 14.3951C6.86924 14.2223 6.8327 14.0214 6.8327 13.7922C6.8327 13.6626 6.85429 13.5347 6.89748 13.4085C6.94066 13.2789 7.01042 13.156 7.10675 13.0398C7.20641 12.9235 7.3343 12.8139 7.49043 12.7109C7.64655 12.6079 7.83756 12.5182 8.06344 12.4418C8.29265 12.3654 8.5584 12.304 8.86069 12.2575C9.16298 12.2076 9.50845 12.1778 9.8971 12.1678V11.8688C9.8971 11.5267 9.82402 11.2742 9.67786 11.1114C9.5317 10.9453 9.32076 10.8623 9.04505 10.8623C8.84574 10.8623 8.67965 10.8856 8.54677 10.9321C8.41722 10.9786 8.30262 11.0317 8.20296 11.0915C8.10331 11.148 8.01196 11.1995 7.92891 11.246C7.84919 11.2925 7.7595 11.3157 7.65984 11.3157C7.57347 11.3157 7.50039 11.2941 7.4406 11.251C7.38081 11.2045 7.33264 11.1513 7.2961 11.0915L7.07686 10.6979ZM13.4181 10.8723C13.5775 10.5667 13.7668 10.3275 13.9861 10.1547C14.2053 9.97869 14.4644 9.89066 14.7634 9.89066C14.9993 9.89066 15.1886 9.94215 15.3314 10.0451L15.2517 10.9669C15.2351 11.0267 15.2102 11.0699 15.177 11.0965C15.1471 11.1197 15.1056 11.1314 15.0524 11.1314C15.0026 11.1314 14.9278 11.1231 14.8282 11.1065C14.7318 11.0898 14.6372 11.0815 14.5442 11.0815C14.408 11.0815 14.2867 11.1015 14.1804 11.1413C14.0741 11.1812 13.9778 11.2393 13.8914 11.3157C13.8084 11.3888 13.7336 11.4785 13.6672 11.5848C13.6041 11.6911 13.5443 11.8124 13.4878 11.9485V15.0977H12.2571V9.98533H12.9796C13.1058 9.98533 13.1938 10.0086 13.2437 10.0551C13.2935 10.0983 13.3267 10.178 13.3433 10.2943L13.4181 10.8723ZM17.6788 15.1774C17.2337 15.1774 16.8915 15.0528 16.6523 14.8037C16.4165 14.5512 16.2986 14.2041 16.2986 13.7623V10.9071H15.7754C15.7089 10.9071 15.6525 10.8856 15.606 10.8424C15.5595 10.7992 15.5362 10.7344 15.5362 10.648V10.1597L16.3584 10.0252L16.6175 8.63002C16.6341 8.56358 16.6656 8.5121 16.7121 8.47556C16.7586 8.43901 16.8184 8.42074 16.8915 8.42074H17.5293V10.0302H18.8946V10.9071H17.5293V13.6776C17.5293 13.837 17.5675 13.9616 17.6439 14.0513C17.7236 14.141 17.8316 14.1858 17.9678 14.1858C18.0442 14.1858 18.1073 14.1775 18.1571 14.1609C18.2103 14.141 18.2551 14.121 18.2917 14.1011C18.3315 14.0812 18.3664 14.0629 18.3963 14.0463C18.4262 14.0264 18.4561 14.0164 18.486 14.0164C18.5225 14.0164 18.5524 14.0264 18.5757 14.0463C18.5989 14.0629 18.6239 14.0895 18.6504 14.126L19.0192 14.7239C18.8398 14.8734 18.6338 14.9864 18.4013 15.0628C18.1688 15.1392 17.9279 15.1774 17.6788 15.1774ZM21.9058 9.90561C22.2845 9.90561 22.6283 9.96706 22.9372 10.09C23.2495 10.2129 23.5152 10.3873 23.7345 10.6132C23.9571 10.839 24.1281 11.1148 24.2477 11.4403C24.3673 11.7658 24.4271 12.1296 24.4271 12.5315C24.4271 12.9368 24.3673 13.3022 24.2477 13.6277C24.1281 13.9533 23.9571 14.2307 23.7345 14.4599C23.5152 14.6891 23.2495 14.8651 22.9372 14.988C22.6283 15.1109 22.2845 15.1724 21.9058 15.1724C21.5238 15.1724 21.1767 15.1109 20.8644 14.988C20.5522 14.8651 20.2848 14.6891 20.0622 14.4599C19.8429 14.2307 19.6719 13.9533 19.549 13.6277C19.4294 13.3022 19.3696 12.9368 19.3696 12.5315C19.3696 12.1296 19.4294 11.7658 19.549 11.4403C19.6719 11.1148 19.8429 10.839 20.0622 10.6132C20.2848 10.3873 20.5522 10.2129 20.8644 10.09C21.1767 9.96706 21.5238 9.90561 21.9058 9.90561ZM21.9058 14.2257C22.331 14.2257 22.6449 14.0828 22.8476 13.7972C23.0535 13.5115 23.1565 13.0929 23.1565 12.5415C23.1565 11.9901 23.0535 11.5699 22.8476 11.2809C22.6449 10.9919 22.331 10.8474 21.9058 10.8474C21.474 10.8474 21.1534 10.9935 20.9441 11.2858C20.7382 11.5748 20.6352 11.9934 20.6352 12.5415C20.6352 13.0896 20.7382 13.5082 20.9441 13.7972C21.1534 14.0828 21.474 14.2257 21.9058 14.2257ZM26.5171 10.6132C26.62 10.5102 26.728 10.4155 26.8409 10.3291C26.9572 10.2395 27.0784 10.1647 27.2047 10.1049C27.3342 10.0418 27.4721 9.99364 27.6182 9.96042C27.7644 9.92388 27.9239 9.90561 28.0966 9.90561C28.3756 9.90561 28.6231 9.95378 28.839 10.0501C29.0549 10.1431 29.2343 10.276 29.3772 10.4487C29.5233 10.6181 29.6329 10.8224 29.706 11.0616C29.7824 11.2975 29.8206 11.5582 29.8206 11.8439V15.0977H28.5899V11.8439C28.5899 11.5317 28.5185 11.2908 28.3756 11.1214C28.2328 10.9487 28.0152 10.8623 27.7229 10.8623C27.5103 10.8623 27.311 10.9105 27.125 11.0068C26.9389 11.1031 26.7629 11.2343 26.5968 11.4004V15.0977H25.366V9.98533H26.1184C26.2779 9.98533 26.3825 10.0601 26.4323 10.2096L26.5171 10.6132ZM37.4454 9.20304C37.4056 9.2728 37.3624 9.32429 37.3159 9.35751C37.2727 9.3874 37.2179 9.40235 37.1515 9.40235C37.0817 9.40235 37.0053 9.37744 36.9222 9.32761C36.8425 9.27446 36.7462 9.21633 36.6332 9.15321C36.5203 9.0901 36.3874 9.03363 36.2346 8.9838C36.0851 8.93065 35.9074 8.90407 35.7015 8.90407C35.5154 8.90407 35.3527 8.92733 35.2132 8.97383C35.0736 9.01702 34.9557 9.07847 34.8594 9.15819C34.7664 9.23792 34.6966 9.33425 34.6501 9.4472C34.6036 9.55682 34.5803 9.67806 34.5803 9.81094C34.5803 9.98035 34.6268 10.1215 34.7199 10.2345C34.8162 10.3474 34.9424 10.4437 35.0986 10.5235C35.2547 10.6032 35.4324 10.6746 35.6317 10.7377C35.831 10.8008 36.0353 10.8689 36.2446 10.942C36.4539 11.0118 36.6582 11.0948 36.8575 11.1912C37.0568 11.2842 37.2345 11.4038 37.3906 11.5499C37.5468 11.6928 37.6713 11.8688 37.7643 12.0781C37.8607 12.2874 37.9088 12.5415 37.9088 12.8405C37.9088 13.166 37.8524 13.4716 37.7394 13.7573C37.6298 14.0396 37.467 14.2871 37.2511 14.4997C37.0385 14.709 36.7777 14.8751 36.4688 14.998C36.1599 15.1176 35.8061 15.1774 35.4075 15.1774C35.1783 15.1774 34.9524 15.1541 34.7298 15.1076C34.5073 15.0644 34.293 15.0013 34.087 14.9183C33.8844 14.8352 33.6934 14.7356 33.514 14.6193C33.3347 14.503 33.1752 14.3735 33.0357 14.2307L33.4293 13.5879C33.4625 13.5414 33.5057 13.5032 33.5589 13.4733C33.612 13.4401 33.6685 13.4234 33.7283 13.4234C33.8113 13.4234 33.901 13.4583 33.9974 13.5281C34.0937 13.5945 34.2083 13.6693 34.3412 13.7523C34.474 13.8354 34.6285 13.9118 34.8046 13.9815C34.9839 14.048 35.1982 14.0812 35.4473 14.0812C35.8294 14.0812 36.125 13.9915 36.3343 13.8121C36.5436 13.6294 36.6482 13.3686 36.6482 13.0298C36.6482 12.8405 36.6 12.686 36.5037 12.5664C36.4107 12.4468 36.2861 12.3472 36.13 12.2674C35.9739 12.1844 35.7961 12.1146 35.5968 12.0582C35.3975 12.0017 35.1949 11.9402 34.9889 11.8738C34.783 11.8074 34.5803 11.7276 34.381 11.6346C34.1817 11.5416 34.004 11.4204 33.8479 11.2709C33.6917 11.1214 33.5655 10.9354 33.4692 10.7128C33.3762 10.4869 33.3297 10.2096 33.3297 9.8807C33.3297 9.61827 33.3812 9.36249 33.4841 9.11335C33.5904 8.86421 33.7432 8.64331 33.9425 8.45064C34.1419 8.25797 34.3877 8.10351 34.68 7.98724C34.9723 7.87098 35.3078 7.81285 35.6865 7.81285C36.1117 7.81285 36.5037 7.87928 36.8625 8.01216C37.2212 8.14503 37.5268 8.33105 37.7793 8.57023L37.4454 9.20304ZM40.1399 9.98533V15.0977H38.9041V9.98533H40.1399ZM40.3093 8.49549C40.3093 8.60179 40.2877 8.70144 40.2445 8.79445C40.2013 8.88746 40.1432 8.96885 40.0701 9.03861C40.0004 9.10837 39.9173 9.16484 39.821 9.20802C39.7246 9.24788 39.6217 9.26782 39.512 9.26782C39.4057 9.26782 39.3044 9.24788 39.2081 9.20802C39.1151 9.16484 39.0337 9.10837 38.9639 9.03861C38.8942 8.96885 38.8377 8.88746 38.7945 8.79445C38.7547 8.70144 38.7347 8.60179 38.7347 8.49549C38.7347 8.38587 38.7547 8.28289 38.7945 8.18655C38.8377 8.09022 38.8942 8.00718 38.9639 7.93742C39.0337 7.86766 39.1151 7.81285 39.2081 7.77298C39.3044 7.7298 39.4057 7.70821 39.512 7.70821C39.6217 7.70821 39.7246 7.7298 39.821 7.77298C39.9173 7.81285 40.0004 7.86766 40.0701 7.93742C40.1432 8.00718 40.2013 8.09022 40.2445 8.18655C40.2877 8.28289 40.3093 8.38587 40.3093 8.49549ZM45.0669 10.4936C45.0669 10.5799 45.0519 10.6647 45.022 10.7477C44.9922 10.8307 44.9523 10.8988 44.9025 10.952L42.4759 14.1509H44.9922V15.0977H41.0458V14.5844C41.0458 14.528 41.0591 14.4615 41.0857 14.3851C41.1122 14.3054 41.1521 14.2307 41.2052 14.1609L43.6568 10.9271H41.1903V9.98533H45.0669V10.4936ZM49.1844 11.9535C49.1844 11.7941 49.1611 11.6446 49.1146 11.5051C49.0714 11.3622 49.005 11.2377 48.9153 11.1314C48.8256 11.0251 48.711 10.942 48.5715 10.8822C48.4353 10.8191 48.2758 10.7876 48.0931 10.7876C47.7377 10.7876 47.457 10.8889 47.2511 11.0915C47.0484 11.2941 46.9189 11.5815 46.8624 11.9535H49.1844ZM46.8375 12.696C46.8574 12.9584 46.9039 13.1859 46.977 13.3786C47.0501 13.5679 47.1464 13.7257 47.266 13.852C47.3856 13.9749 47.5268 14.0679 47.6895 14.131C47.8556 14.1908 48.0383 14.2207 48.2376 14.2207C48.437 14.2207 48.608 14.1974 48.7509 14.1509C48.897 14.1044 49.0233 14.0529 49.1296 13.9965C49.2392 13.94 49.3339 13.8885 49.4136 13.842C49.4966 13.7955 49.5764 13.7722 49.6528 13.7722C49.7557 13.7722 49.8321 13.8104 49.882 13.8868L50.2357 14.3353C50.0995 14.4947 49.9467 14.6293 49.7773 14.7389C49.6079 14.8452 49.4302 14.9316 49.2442 14.998C49.0615 15.0611 48.8738 15.106 48.6811 15.1325C48.4918 15.1591 48.3074 15.1724 48.128 15.1724C47.7726 15.1724 47.4421 15.1143 47.1365 14.998C46.8308 14.8784 46.5651 14.704 46.3392 14.4748C46.1133 14.2423 45.9356 13.9566 45.8061 13.6178C45.6765 13.2756 45.6117 12.8803 45.6117 12.4319C45.6117 12.0831 45.6682 11.7559 45.7811 11.4503C45.8941 11.1413 46.0552 10.8739 46.2645 10.648C46.4771 10.4188 46.7345 10.2378 47.0368 10.1049C47.3424 9.97205 47.6862 9.90561 48.0682 9.90561C48.3905 9.90561 48.6878 9.9571 48.9601 10.0601C49.2325 10.1631 49.4667 10.3142 49.6627 10.5135C49.8587 10.7095 50.0115 10.952 50.1211 11.241C50.2341 11.5267 50.2905 11.8539 50.2905 12.2226C50.2905 12.4086 50.2706 12.5349 50.2308 12.6013C50.1909 12.6644 50.1145 12.696 50.0015 12.696H46.8375Z" fill="white"/>
<path d="M49.56 22.8261L49.472 26.8261H48.864L48.776 22.8261H49.56ZM49.2 28.4501C49.0613 28.4501 48.944 28.4021 48.848 28.3061C48.752 28.2101 48.704 28.0928 48.704 27.9541C48.704 27.8154 48.752 27.6981 48.848 27.6021C48.944 27.5061 49.0613 27.4581 49.2 27.4581C49.3333 27.4581 49.4453 27.5061 49.536 27.6021C49.632 27.6981 49.68 27.8154 49.68 27.9541C49.68 28.0928 49.632 28.2101 49.536 28.3061C49.4453 28.4021 49.3333 28.4501 49.2 28.4501Z" fill="white"/>
<rect x="57" width="36.5" height="36.5" rx="18.25" fill="white" fill-opacity="0.1"/>
<path fill-rule="evenodd" clip-rule="evenodd" d="M84.336 19.2569H66.164L68.043 21.1354C68.1359 21.2283 68.2096 21.3386 68.2598 21.4599C68.3101 21.5813 68.336 21.7113 68.336 21.8427C68.336 21.974 68.3101 22.1041 68.2598 22.2254C68.2096 22.3468 68.1359 22.4571 68.043 22.5499C67.9501 22.6428 67.8399 22.7165 67.7185 22.7668C67.5972 22.817 67.4671 22.8429 67.3358 22.8429C67.2044 22.8429 67.0743 22.817 66.953 22.7668C66.8316 22.7165 66.7214 22.6428 66.6285 22.5499L63.0935 19.0144L63.0685 18.9884C62.9681 18.8949 62.8879 18.7817 62.8331 18.6558C62.7783 18.53 62.75 18.3942 62.75 18.2569C62.75 18.0104 62.839 17.7844 62.987 17.6104C63.0187 17.5664 63.054 17.5248 63.093 17.4854L66.6285 13.9504C66.816 13.7629 67.0703 13.6575 67.3356 13.6574C67.6008 13.6574 67.8552 13.7627 68.0427 13.9502C68.2303 14.1377 68.3357 14.392 68.3358 14.6573C68.3358 14.9225 68.2305 15.1769 68.043 15.3644L66.15 17.2569H84.349L82.4565 15.3644C82.3636 15.2716 82.2899 15.1613 82.2397 15.0399C82.1894 14.9186 82.1635 14.7885 82.1635 14.6572C82.1635 14.5258 82.1894 14.3958 82.2397 14.2744C82.2899 14.1531 82.3636 14.0428 82.4565 13.9499C82.6441 13.7624 82.8985 13.657 83.1637 13.657C83.2951 13.657 83.4252 13.6829 83.5465 13.7331C83.6679 13.7834 83.7781 13.8571 83.871 13.9499L87.406 17.4854C87.446 17.5248 87.4815 17.5664 87.5125 17.6104C87.6605 17.7844 87.7495 18.0104 87.7495 18.2569C87.7495 18.5459 87.627 18.8059 87.431 18.9884L87.406 19.0144L83.871 22.5494C83.6835 22.737 83.4291 22.8424 83.1639 22.8425C82.8987 22.8425 82.6443 22.7372 82.4568 22.5497C82.2692 22.3622 82.1638 22.1078 82.1637 21.8426C82.1637 21.5774 82.269 21.323 82.4565 21.1354L84.336 19.2569Z" fill="white"/>
</svg>
