<svg width="112" height="37" viewBox="0 0 112 37" fill="none" xmlns="http://www.w3.org/2000/svg">
<rect width="36.5" height="36.5" rx="18.25" fill="white" fill-opacity="0.1"/>
<path d="M18.2491 14.2914C18.4734 14.2914 18.6616 14.2154 18.8136 14.0634C18.9656 13.9114 19.0413 13.7235 19.0408 13.4998C19.0403 13.276 18.9643 13.0881 18.8128 12.9361C18.6613 12.7841 18.4734 12.7081 18.2491 12.7081C18.0248 12.7081 17.8369 12.7841 17.6854 12.9361C17.534 13.0881 17.458 13.276 17.4574 13.4998C17.4569 13.7235 17.5329 13.9117 17.6854 14.0642C17.838 14.2167 18.0259 14.2925 18.2491 14.2914ZM20.4856 14.2914H21.871C22.2668 14.2914 22.6099 14.4234 22.9002 14.6873C23.1904 14.9511 23.3686 15.2744 23.4345 15.657L24.5627 23.5737C24.6286 24.0487 24.5067 24.4678 24.1969 24.8309C23.8871 25.194 23.4878 25.3753 22.9991 25.3748H13.4991C13.0109 25.3748 12.6117 25.1935 12.3013 24.8309C11.991 24.4683 11.8691 24.0492 11.9356 23.5737L13.0637 15.657C13.1297 15.2744 13.3078 14.9511 13.5981 14.6873C13.8883 14.4234 14.2314 14.2914 14.6272 14.2914H16.0127C15.9731 14.1595 15.9401 14.031 15.9137 13.9059C15.8873 13.7808 15.8741 13.6454 15.8741 13.4998C15.8741 12.84 16.105 12.2793 16.5668 11.8175C17.0286 11.3557 17.5894 11.1248 18.2491 11.1248C18.9088 11.1248 19.4696 11.3557 19.9314 11.8175C20.3932 12.2793 20.6241 12.84 20.6241 13.4998C20.6241 13.6449 20.6109 13.7803 20.5845 13.9059C20.5581 14.0315 20.5252 14.16 20.4856 14.2914Z" fill="white"/>
<path d="M52.925 7.86766L50.68 15.0977H49.465L47.885 10.1577C47.8417 10.0377 47.8017 9.89099 47.765 9.71766C47.745 9.80099 47.725 9.87932 47.705 9.95266C47.685 10.026 47.6633 10.0943 47.64 10.1577L46.045 15.0977H44.825L42.585 7.86766H43.71C43.8267 7.86766 43.9233 7.89599 44 7.95266C44.08 8.00599 44.1333 8.07932 44.16 8.17266L45.39 12.4977C45.4167 12.6043 45.4417 12.721 45.465 12.8477C45.4917 12.971 45.5183 13.101 45.545 13.2377C45.5717 13.0977 45.6 12.966 45.63 12.8427C45.6633 12.7193 45.6983 12.6043 45.735 12.4977L47.155 8.17266C47.1817 8.09599 47.2333 8.02599 47.31 7.96266C47.39 7.89932 47.4867 7.86766 47.6 7.86766H47.995C48.1117 7.86766 48.2067 7.89599 48.28 7.95266C48.3533 8.00932 48.4083 8.08266 48.445 8.17266L49.86 12.4977C49.93 12.7043 49.9933 12.9427 50.05 13.2127C50.0933 12.9493 50.1417 12.711 50.195 12.4977L51.425 8.17266C51.445 8.08932 51.495 8.01766 51.575 7.95766C51.6583 7.89766 51.7567 7.86766 51.87 7.86766H52.925ZM56.3173 11.9427C56.3173 11.7827 56.294 11.6327 56.2473 11.4927C56.204 11.3493 56.1373 11.2243 56.0473 11.1177C55.9573 11.011 55.8423 10.9277 55.7023 10.8677C55.5657 10.8043 55.4057 10.7727 55.2223 10.7727C54.8657 10.7727 54.584 10.8743 54.3773 11.0777C54.174 11.281 54.044 11.5693 53.9873 11.9427H56.3173ZM53.9623 12.6877C53.9823 12.951 54.029 13.1793 54.1023 13.3727C54.1757 13.5627 54.2723 13.721 54.3923 13.8477C54.5123 13.971 54.654 14.0643 54.8173 14.1277C54.984 14.1877 55.1673 14.2177 55.3673 14.2177C55.5673 14.2177 55.739 14.1943 55.8823 14.1477C56.029 14.101 56.1557 14.0493 56.2623 13.9927C56.3723 13.936 56.4673 13.8843 56.5473 13.8377C56.6307 13.791 56.7107 13.7677 56.7873 13.7677C56.8907 13.7677 56.9673 13.806 57.0173 13.8827L57.3723 14.3327C57.2357 14.4927 57.0823 14.6277 56.9123 14.7377C56.7423 14.8443 56.564 14.931 56.3773 14.9977C56.194 15.061 56.0057 15.106 55.8123 15.1327C55.6223 15.1593 55.4373 15.1727 55.2573 15.1727C54.9007 15.1727 54.569 15.1143 54.2623 14.9977C53.9557 14.8777 53.689 14.7027 53.4623 14.4727C53.2357 14.2393 53.0573 13.9527 52.9273 13.6127C52.7973 13.2693 52.7323 12.8727 52.7323 12.4227C52.7323 12.0727 52.789 11.7443 52.9023 11.4377C53.0157 11.1277 53.1773 10.8593 53.3873 10.6327C53.6007 10.4027 53.859 10.221 54.1623 10.0877C54.469 9.95432 54.814 9.88766 55.1973 9.88766C55.5207 9.88766 55.819 9.93932 56.0923 10.0427C56.3657 10.146 56.6007 10.2977 56.7973 10.4977C56.994 10.6943 57.1473 10.9377 57.2573 11.2277C57.3707 11.5143 57.4273 11.8427 57.4273 12.2127C57.4273 12.3993 57.4073 12.526 57.3673 12.5927C57.3273 12.656 57.2507 12.6877 57.1373 12.6877H53.9623ZM59.6341 9.96766V15.0977H58.3941V9.96766H59.6341ZM59.8041 8.47266C59.8041 8.57932 59.7825 8.67932 59.7391 8.77266C59.6958 8.86599 59.6375 8.94766 59.5641 9.01766C59.4941 9.08766 59.4108 9.14432 59.3141 9.18766C59.2175 9.22766 59.1141 9.24766 59.0041 9.24766C58.8975 9.24766 58.7958 9.22766 58.6991 9.18766C58.6058 9.14432 58.5241 9.08766 58.4541 9.01766C58.3841 8.94766 58.3275 8.86599 58.2841 8.77266C58.2441 8.67932 58.2241 8.57932 58.2241 8.47266C58.2241 8.36266 58.2441 8.25932 58.2841 8.16266C58.3275 8.06599 58.3841 7.98266 58.4541 7.91266C58.5241 7.84266 58.6058 7.78766 58.6991 7.74766C58.7958 7.70432 58.8975 7.68266 59.0041 7.68266C59.1141 7.68266 59.2175 7.70432 59.3141 7.74766C59.4108 7.78766 59.4941 7.84266 59.5641 7.91266C59.6375 7.98266 59.6958 8.06599 59.7391 8.16266C59.7825 8.25932 59.8041 8.36266 59.8041 8.47266ZM62.7682 12.4077C62.9215 12.4077 63.0549 12.3877 63.1682 12.3477C63.2815 12.3043 63.3749 12.246 63.4482 12.1727C63.5249 12.0993 63.5815 12.011 63.6182 11.9077C63.6582 11.8043 63.6782 11.691 63.6782 11.5677C63.6782 11.3143 63.6015 11.1143 63.4482 10.9677C63.2982 10.8177 63.0715 10.7427 62.7682 10.7427C62.4649 10.7427 62.2365 10.8177 62.0832 10.9677C61.9332 11.1143 61.8582 11.3143 61.8582 11.5677C61.8582 11.6877 61.8765 11.7993 61.9132 11.9027C61.9532 12.006 62.0099 12.096 62.0832 12.1727C62.1599 12.246 62.2549 12.3043 62.3682 12.3477C62.4849 12.3877 62.6182 12.4077 62.7682 12.4077ZM64.1632 15.3277C64.1632 15.2277 64.1332 15.146 64.0732 15.0827C64.0132 15.0193 63.9315 14.971 63.8282 14.9377C63.7249 14.901 63.6032 14.8743 63.4632 14.8577C63.3265 14.841 63.1799 14.8293 63.0232 14.8227C62.8699 14.8127 62.7099 14.8043 62.5432 14.7977C62.3799 14.791 62.2199 14.7777 62.0632 14.7577C61.9265 14.8343 61.8149 14.9243 61.7282 15.0277C61.6449 15.131 61.6032 15.251 61.6032 15.3877C61.6032 15.4777 61.6249 15.561 61.6682 15.6377C61.7149 15.7177 61.7865 15.786 61.8832 15.8427C61.9832 15.8993 62.1115 15.9427 62.2682 15.9727C62.4249 16.006 62.6165 16.0227 62.8432 16.0227C63.0732 16.0227 63.2715 16.0043 63.4382 15.9677C63.6049 15.9343 63.7415 15.886 63.8482 15.8227C63.9582 15.7627 64.0382 15.6893 64.0882 15.6027C64.1382 15.5193 64.1632 15.4277 64.1632 15.3277ZM65.3932 10.1427V10.6027C65.3932 10.7493 65.3049 10.8393 65.1282 10.8727L64.6682 10.9577C64.7382 11.1343 64.7732 11.3277 64.7732 11.5377C64.7732 11.791 64.7215 12.021 64.6182 12.2277C64.5182 12.431 64.3782 12.6043 64.1982 12.7477C64.0182 12.891 63.8049 13.0027 63.5582 13.0827C63.3149 13.1593 63.0515 13.1977 62.7682 13.1977C62.6682 13.1977 62.5715 13.1927 62.4782 13.1827C62.3849 13.1727 62.2932 13.1593 62.2032 13.1427C62.0432 13.2393 61.9632 13.3477 61.9632 13.4677C61.9632 13.571 62.0099 13.6477 62.1032 13.6977C62.1999 13.7443 62.3265 13.7777 62.4832 13.7977C62.6399 13.8177 62.8182 13.831 63.0182 13.8377C63.2182 13.841 63.4232 13.851 63.6332 13.8677C63.8432 13.8843 64.0482 13.9143 64.2482 13.9577C64.4482 13.9977 64.6265 14.0627 64.7832 14.1527C64.9399 14.2427 65.0649 14.366 65.1582 14.5227C65.2549 14.676 65.3032 14.8743 65.3032 15.1177C65.3032 15.3443 65.2465 15.5643 65.1332 15.7777C65.0232 15.991 64.8615 16.181 64.6482 16.3477C64.4382 16.5143 64.1782 16.6477 63.8682 16.7477C63.5615 16.851 63.2115 16.9027 62.8182 16.9027C62.4315 16.9027 62.0949 16.8643 61.8082 16.7877C61.5215 16.7143 61.2832 16.6143 61.0932 16.4877C60.9032 16.3643 60.7615 16.221 60.6682 16.0577C60.5749 15.8943 60.5282 15.7243 60.5282 15.5477C60.5282 15.3077 60.5999 15.1077 60.7432 14.9477C60.8899 14.7843 61.0899 14.6543 61.3432 14.5577C61.2065 14.4877 61.0982 14.3943 61.0182 14.2777C60.9382 14.161 60.8982 14.0077 60.8982 13.8177C60.8982 13.741 60.9115 13.6627 60.9382 13.5827C60.9682 13.4993 61.0099 13.4177 61.0632 13.3377C61.1199 13.2577 61.1899 13.1827 61.2732 13.1127C61.3565 13.0393 61.4549 12.9743 61.5682 12.9177C61.3082 12.7777 61.1032 12.591 60.9532 12.3577C60.8065 12.1243 60.7332 11.851 60.7332 11.5377C60.7332 11.2843 60.7832 11.056 60.8832 10.8527C60.9865 10.646 61.1282 10.471 61.3082 10.3277C61.4915 10.181 61.7065 10.0693 61.9532 9.99266C62.2032 9.91599 62.4749 9.87766 62.7682 9.87766C62.9882 9.87766 63.1949 9.90099 63.3882 9.94766C63.5815 9.99099 63.7582 10.056 63.9182 10.1427H65.3932ZM67.4114 10.5177C67.6114 10.331 67.8314 10.1793 68.0714 10.0627C68.3114 9.94599 68.5931 9.88766 68.9164 9.88766C69.1964 9.88766 69.4447 9.93599 69.6614 10.0327C69.8781 10.126 70.0581 10.2593 70.2014 10.4327C70.3481 10.6027 70.4581 10.8077 70.5314 11.0477C70.6081 11.2843 70.6464 11.546 70.6464 11.8327V15.0977H69.4114V11.8327C69.4114 11.5193 69.3397 11.2777 69.1964 11.1077C69.0531 10.9343 68.8347 10.8477 68.5414 10.8477C68.3281 10.8477 68.1281 10.896 67.9414 10.9927C67.7547 11.0893 67.5781 11.221 67.4114 11.3877V15.0977H66.1764V7.66766H67.4114V10.5177ZM73.4626 15.1777C73.0159 15.1777 72.6726 15.0527 72.4326 14.8027C72.1959 14.5493 72.0776 14.201 72.0776 13.7577V10.8927H71.5526C71.4859 10.8927 71.4292 10.871 71.3826 10.8277C71.3359 10.7843 71.3126 10.7193 71.3126 10.6327V10.1427L72.1376 10.0077L72.3976 8.60766C72.4142 8.54099 72.4459 8.48932 72.4926 8.45266C72.5392 8.41599 72.5992 8.39766 72.6726 8.39766H73.3126V10.0127H74.6826V10.8927H73.3126V13.6727C73.3126 13.8327 73.3509 13.9577 73.4276 14.0477C73.5076 14.1377 73.6159 14.1827 73.7526 14.1827C73.8292 14.1827 73.8926 14.1743 73.9426 14.1577C73.9959 14.1377 74.0409 14.1177 74.0776 14.0977C74.1176 14.0777 74.1526 14.0593 74.1826 14.0427C74.2126 14.0227 74.2426 14.0127 74.2726 14.0127C74.3092 14.0127 74.3392 14.0227 74.3626 14.0427C74.3859 14.0593 74.4109 14.086 74.4376 14.1227L74.8076 14.7227C74.6276 14.8727 74.4209 14.986 74.1876 15.0627C73.9542 15.1393 73.7126 15.1777 73.4626 15.1777Z" fill="white"/>
<path d="M42.804 23.2821V22.6181H44.308V28.4021H43.572V23.2821H42.804ZM45.3825 27.1141V26.5621L48.1905 22.6741H49.0625V26.4821H49.8625V27.1141H49.0625V28.4021H48.3425V27.1141H45.3825ZM48.3745 23.4341L46.2225 26.4821H48.3745V23.4341ZM50.9418 28.4501C50.8031 28.4501 50.6858 28.4021 50.5898 28.3061C50.4938 28.2101 50.4458 28.0928 50.4458 27.9541C50.4458 27.8154 50.4938 27.6981 50.5898 27.6021C50.6858 27.5061 50.8031 27.4581 50.9418 27.4581C51.0751 27.4581 51.1871 27.5061 51.2778 27.6021C51.3738 27.6981 51.4218 27.8154 51.4218 27.9541C51.4218 28.0928 51.3738 28.2101 51.2778 28.3061C51.1871 28.4021 51.0751 28.4501 50.9418 28.4501ZM53.2054 26.8501C53.2588 27.1541 53.3814 27.3888 53.5734 27.5541C53.7708 27.7194 54.0348 27.8021 54.3654 27.8021C54.8081 27.8021 55.1334 27.6288 55.3414 27.2821C55.5548 26.9354 55.6561 26.3514 55.6454 25.5301C55.5334 25.7701 55.3468 25.9594 55.0854 26.0981C54.8241 26.2314 54.5334 26.2981 54.2134 26.2981C53.8561 26.2981 53.5361 26.2261 53.2534 26.0821C52.9761 25.9328 52.7574 25.7168 52.5974 25.4341C52.4374 25.1514 52.3574 24.8101 52.3574 24.4101C52.3574 23.8394 52.5228 23.3808 52.8534 23.0341C53.1841 22.6821 53.6534 22.5061 54.2614 22.5061C55.0081 22.5061 55.5308 22.7488 55.8294 23.2341C56.1334 23.7194 56.2854 24.4421 56.2854 25.4021C56.2854 26.0741 56.2241 26.6288 56.1014 27.0661C55.9841 27.5034 55.7814 27.8368 55.4934 28.0661C55.2108 28.2954 54.8214 28.4101 54.3254 28.4101C53.7814 28.4101 53.3574 28.2634 53.0534 27.9701C52.7494 27.6768 52.5761 27.3034 52.5334 26.8501H53.2054ZM54.3334 25.6821C54.6908 25.6821 54.9841 25.5728 55.2134 25.3541C55.4428 25.1301 55.5574 24.8288 55.5574 24.4501C55.5574 24.0501 55.4454 23.7274 55.2214 23.4821C54.9974 23.2368 54.6828 23.1141 54.2774 23.1141C53.9041 23.1141 53.6054 23.2314 53.3814 23.4661C53.1628 23.7008 53.0534 24.0101 53.0534 24.3941C53.0534 24.7834 53.1628 25.0954 53.3814 25.3301C53.6001 25.5648 53.9174 25.6821 54.3334 25.6821ZM60.9965 23.2501H58.1885V25.0741C58.3112 24.9034 58.4925 24.7648 58.7325 24.6581C58.9725 24.5461 59.2312 24.4901 59.5085 24.4901C59.9512 24.4901 60.3112 24.5834 60.5885 24.7701C60.8658 24.9514 61.0632 25.1888 61.1805 25.4821C61.3032 25.7701 61.3645 26.0768 61.3645 26.4021C61.3645 26.7861 61.2925 27.1301 61.1485 27.4341C61.0045 27.7381 60.7832 27.9781 60.4845 28.1541C60.1912 28.3301 59.8258 28.4181 59.3885 28.4181C58.8285 28.4181 58.3752 28.2741 58.0285 27.9861C57.6818 27.6981 57.4712 27.3141 57.3965 26.8341H58.1085C58.1778 27.1381 58.3245 27.3754 58.5485 27.5461C58.7725 27.7168 59.0552 27.8021 59.3965 27.8021C59.8178 27.8021 60.1352 27.6768 60.3485 27.4261C60.5618 27.1701 60.6685 26.8341 60.6685 26.4181C60.6685 26.0021 60.5618 25.6821 60.3485 25.4581C60.1352 25.2288 59.8205 25.1141 59.4045 25.1141C59.1218 25.1141 58.8738 25.1834 58.6605 25.3221C58.4525 25.4554 58.3005 25.6394 58.2045 25.8741H57.5165V22.6101H60.9965V23.2501ZM66.3928 23.9461C66.7714 23.9461 67.1021 24.0288 67.3848 24.1941C67.6728 24.3594 67.8861 24.5674 68.0248 24.8181V24.0181H68.7608V28.4981C68.7608 28.8981 68.6754 29.2528 68.5048 29.5621C68.3341 29.8768 68.0888 30.1221 67.7688 30.2981C67.4541 30.4741 67.0861 30.5621 66.6648 30.5621C66.0888 30.5621 65.6088 30.4261 65.2248 30.1541C64.8408 29.8821 64.6141 29.5114 64.5448 29.0421H65.2648C65.3448 29.3088 65.5101 29.5221 65.7608 29.6821C66.0114 29.8474 66.3128 29.9301 66.6648 29.9301C67.0648 29.9301 67.3901 29.8048 67.6408 29.5541C67.8968 29.3034 68.0248 28.9514 68.0248 28.4981V27.5781C67.8808 27.8341 67.6674 28.0474 67.3848 28.2181C67.1021 28.3888 66.7714 28.4741 66.3928 28.4741C66.0034 28.4741 65.6488 28.3781 65.3288 28.1861C65.0141 27.9941 64.7661 27.7248 64.5848 27.3781C64.4034 27.0314 64.3128 26.6368 64.3128 26.1941C64.3128 25.7461 64.4034 25.3541 64.5848 25.0181C64.7661 24.6768 65.0141 24.4128 65.3288 24.2261C65.6488 24.0394 66.0034 23.9461 66.3928 23.9461ZM68.0248 26.2021C68.0248 25.8714 67.9581 25.5834 67.8248 25.3381C67.6914 25.0928 67.5101 24.9061 67.2808 24.7781C67.0568 24.6448 66.8088 24.5781 66.5368 24.5781C66.2648 24.5781 66.0168 24.6421 65.7928 24.7701C65.5688 24.8981 65.3901 25.0848 65.2568 25.3301C65.1234 25.5754 65.0568 25.8634 65.0568 26.1941C65.0568 26.5301 65.1234 26.8234 65.2568 27.0741C65.3901 27.3194 65.5688 27.5088 65.7928 27.6421C66.0168 27.7701 66.2648 27.8341 66.5368 27.8341C66.8088 27.8341 67.0568 27.7701 67.2808 27.6421C67.5101 27.5088 67.6914 27.3194 67.8248 27.0741C67.9581 26.8234 68.0248 26.5328 68.0248 26.2021Z" fill="white"/>
</svg>
