<svg width="124" height="37" viewBox="0 0 124 37" fill="none" xmlns="http://www.w3.org/2000/svg">
<path d="M35.7501 13.3986C35.8232 13.3986 35.888 13.4268 35.9444 13.4833L36.4726 14.0563C36.1803 14.4184 35.8199 14.6958 35.3914 14.8884C34.9662 15.0811 34.4546 15.1774 33.8567 15.1774C33.3218 15.1774 32.8402 15.0861 32.4117 14.9034C31.9865 14.7207 31.6227 14.4666 31.3204 14.141C31.0181 13.8155 30.7856 13.4268 30.6228 12.9751C30.4634 12.5233 30.3837 12.03 30.3837 11.4952C30.3837 10.9537 30.47 10.4588 30.6428 10.0103C30.8155 9.55854 31.058 9.16988 31.3703 8.84434C31.6858 8.5188 32.0612 8.26634 32.4964 8.08696C32.9315 7.90426 33.4132 7.81291 33.9414 7.81291C34.4662 7.81291 34.9313 7.89928 35.3365 8.07201C35.7451 8.24475 36.0923 8.47063 36.3779 8.74967L35.9295 9.37251C35.9029 9.41238 35.868 9.44726 35.8249 9.47715C35.785 9.50705 35.7285 9.522 35.6554 9.522C35.6056 9.522 35.5541 9.50871 35.501 9.48214C35.4478 9.45224 35.3897 9.41736 35.3266 9.3775C35.2635 9.33431 35.1904 9.28781 35.1073 9.23798C35.0243 9.18815 34.928 9.14331 34.8183 9.10345C34.7087 9.06026 34.5808 9.02538 34.4347 8.99881C34.2918 8.96891 34.1257 8.95396 33.9364 8.95396C33.6142 8.95396 33.3185 9.01209 33.0495 9.12836C32.7837 9.2413 32.5545 9.40739 32.3618 9.62664C32.1692 9.84256 32.0197 10.1083 31.9134 10.4239C31.8071 10.7361 31.7539 11.0932 31.7539 11.4952C31.7539 11.9004 31.8104 12.2609 31.9233 12.5764C32.0396 12.892 32.1957 13.1578 32.3917 13.3737C32.5877 13.5896 32.8186 13.7557 33.0843 13.872C33.3501 13.9849 33.6358 14.0414 33.9414 14.0414C34.1241 14.0414 34.2885 14.0314 34.4347 14.0115C34.5841 13.9915 34.7203 13.96 34.8433 13.9168C34.9695 13.8736 35.0874 13.8188 35.197 13.7524C35.31 13.6826 35.4213 13.5979 35.5309 13.4982C35.5641 13.4684 35.599 13.4451 35.6355 13.4285C35.6721 13.4086 35.7103 13.3986 35.7501 13.3986ZM39.8971 12.9153C39.5417 12.9319 39.2427 12.9634 39.0002 13.0099C38.7577 13.0531 38.5634 13.1096 38.4172 13.1794C38.2711 13.2491 38.1664 13.3305 38.1033 13.4235C38.0402 13.5165 38.0086 13.6178 38.0086 13.7275C38.0086 13.9434 38.0717 14.0978 38.198 14.1909C38.3275 14.2839 38.4953 14.3304 38.7012 14.3304C38.9537 14.3304 39.1713 14.2855 39.354 14.1958C39.54 14.1028 39.721 13.9633 39.8971 13.7773V12.9153ZM37.0769 10.6979C37.6648 10.1598 38.3724 9.89072 39.1995 9.89072C39.4985 9.89072 39.7659 9.94055 40.0017 10.0402C40.2376 10.1365 40.4369 10.2727 40.5997 10.4488C40.7624 10.6215 40.8854 10.8291 40.9684 11.0716C41.0548 11.3141 41.098 11.5799 41.098 11.8689V15.0977H40.5399C40.4236 15.0977 40.3339 15.0811 40.2708 15.0479C40.2077 15.0113 40.1579 14.9399 40.1213 14.8336L40.0117 14.4649C39.8822 14.5812 39.7559 14.6841 39.633 14.7738C39.5101 14.8602 39.3822 14.9333 39.2493 14.9931C39.1165 15.0529 38.9736 15.0977 38.8208 15.1276C38.6713 15.1608 38.5053 15.1774 38.3225 15.1774C38.1066 15.1774 37.9073 15.1492 37.7246 15.0927C37.5419 15.0329 37.3841 14.9449 37.2513 14.8286C37.1184 14.7124 37.0154 14.5679 36.9423 14.3951C36.8692 14.2224 36.8327 14.0214 36.8327 13.7922C36.8327 13.6627 36.8543 13.5348 36.8975 13.4086C36.9407 13.279 37.0104 13.1561 37.1068 13.0398C37.2064 12.9236 37.3343 12.8139 37.4904 12.711C37.6466 12.608 37.8376 12.5183 38.0634 12.4419C38.2927 12.3655 38.5584 12.304 38.8607 12.2575C39.163 12.2077 39.5084 12.1778 39.8971 12.1678V11.8689C39.8971 11.5267 39.824 11.2743 39.6779 11.1115C39.5317 10.9454 39.3208 10.8624 39.0451 10.8624C38.8457 10.8624 38.6796 10.8856 38.5468 10.9321C38.4172 10.9786 38.3026 11.0318 38.203 11.0916C38.1033 11.148 38.012 11.1995 37.9289 11.246C37.8492 11.2925 37.7595 11.3158 37.6598 11.3158C37.5735 11.3158 37.5004 11.2942 37.4406 11.251C37.3808 11.2045 37.3326 11.1514 37.2961 11.0916L37.0769 10.6979ZM43.4181 10.8723C43.5775 10.5667 43.7668 10.3275 43.9861 10.1548C44.2053 9.97875 44.4644 9.89072 44.7634 9.89072C44.9993 9.89072 45.1886 9.94221 45.3314 10.0452L45.2517 10.967C45.2351 11.0268 45.2102 11.07 45.177 11.0966C45.1471 11.1198 45.1056 11.1314 45.0524 11.1314C45.0026 11.1314 44.9278 11.1231 44.8282 11.1065C44.7318 11.0899 44.6372 11.0816 44.5442 11.0816C44.408 11.0816 44.2867 11.1015 44.1804 11.1414C44.0741 11.1813 43.9778 11.2394 43.8914 11.3158C43.8084 11.3889 43.7336 11.4786 43.6672 11.5849C43.6041 11.6912 43.5443 11.8124 43.4878 11.9486V15.0977H42.2571V9.9854H42.9796C43.1058 9.9854 43.1938 10.0086 43.2437 10.0552C43.2935 10.0983 43.3267 10.1781 43.3433 10.2943L43.4181 10.8723ZM47.6788 15.1774C47.2337 15.1774 46.8915 15.0529 46.6523 14.8037C46.4165 14.5513 46.2986 14.2041 46.2986 13.7623V10.9072H45.7754C45.7089 10.9072 45.6525 10.8856 45.606 10.8424C45.5595 10.7992 45.5362 10.7345 45.5362 10.6481V10.1598L46.3584 10.0253L46.6175 8.63008C46.6341 8.56365 46.6656 8.51216 46.7121 8.47562C46.7586 8.43908 46.8184 8.42081 46.8915 8.42081H47.5293V10.0302H48.8946V10.9072H47.5293V13.6776C47.5293 13.8371 47.5675 13.9616 47.6439 14.0513C47.7236 14.141 47.8316 14.1859 47.9678 14.1859C48.0442 14.1859 48.1073 14.1776 48.1571 14.161C48.2103 14.141 48.2551 14.1211 48.2917 14.1012C48.3315 14.0812 48.3664 14.063 48.3963 14.0464C48.4262 14.0264 48.4561 14.0165 48.486 14.0165C48.5225 14.0165 48.5524 14.0264 48.5757 14.0464C48.5989 14.063 48.6239 14.0895 48.6504 14.1261L49.0192 14.724C48.8398 14.8735 48.6338 14.9864 48.4013 15.0628C48.1688 15.1392 47.9279 15.1774 47.6788 15.1774ZM51.9058 9.90567C52.2845 9.90567 52.6283 9.96713 52.9372 10.09C53.2495 10.2129 53.5152 10.3873 53.7345 10.6132C53.9571 10.8391 54.1281 11.1148 54.2477 11.4404C54.3673 11.7659 54.4271 12.1296 54.4271 12.5316C54.4271 12.9369 54.3673 13.3023 54.2477 13.6278C54.1281 13.9533 53.9571 14.2307 53.7345 14.4599C53.5152 14.6891 53.2495 14.8652 52.9372 14.9881C52.6283 15.111 52.2845 15.1725 51.9058 15.1725C51.5238 15.1725 51.1767 15.111 50.8644 14.9881C50.5522 14.8652 50.2848 14.6891 50.0622 14.4599C49.8429 14.2307 49.6719 13.9533 49.549 13.6278C49.4294 13.3023 49.3696 12.9369 49.3696 12.5316C49.3696 12.1296 49.4294 11.7659 49.549 11.4404C49.6719 11.1148 49.8429 10.8391 50.0622 10.6132C50.2848 10.3873 50.5522 10.2129 50.8644 10.09C51.1767 9.96713 51.5238 9.90567 51.9058 9.90567ZM51.9058 14.2257C52.331 14.2257 52.6449 14.0829 52.8476 13.7972C53.0535 13.5115 53.1565 13.093 53.1565 12.5416C53.1565 11.9901 53.0535 11.5699 52.8476 11.2809C52.6449 10.9919 52.331 10.8474 51.9058 10.8474C51.474 10.8474 51.1534 10.9936 50.9441 11.2859C50.7382 11.5749 50.6352 11.9935 50.6352 12.5416C50.6352 13.0897 50.7382 13.5082 50.9441 13.7972C51.1534 14.0829 51.474 14.2257 51.9058 14.2257ZM56.5171 10.6132C56.62 10.5102 56.728 10.4156 56.8409 10.3292C56.9572 10.2395 57.0784 10.1648 57.2047 10.105C57.3342 10.0419 57.4721 9.9937 57.6182 9.96048C57.7644 9.92394 57.9239 9.90567 58.0966 9.90567C58.3756 9.90567 58.6231 9.95384 58.839 10.0502C59.0549 10.1432 59.2343 10.2761 59.3772 10.4488C59.5233 10.6182 59.6329 10.8225 59.706 11.0617C59.7824 11.2975 59.8206 11.5583 59.8206 11.844V15.0977H58.5899V11.844C58.5899 11.5317 58.5185 11.2909 58.3756 11.1215C58.2328 10.9487 58.0152 10.8624 57.7229 10.8624C57.5103 10.8624 57.311 10.9105 57.125 11.0069C56.9389 11.1032 56.7629 11.2344 56.5968 11.4005V15.0977H55.366V9.9854H56.1184C56.2779 9.9854 56.3825 10.0601 56.4323 10.2096L56.5171 10.6132ZM67.4454 9.2031C67.4056 9.27286 67.3624 9.32435 67.3159 9.35757C67.2727 9.38746 67.2179 9.40241 67.1515 9.40241C67.0817 9.40241 67.0053 9.3775 66.9222 9.32767C66.8425 9.27452 66.7462 9.21639 66.6332 9.15327C66.5203 9.09016 66.3874 9.03369 66.2346 8.98386C66.0851 8.93071 65.9074 8.90413 65.7015 8.90413C65.5154 8.90413 65.3527 8.92739 65.2132 8.97389C65.0736 9.01708 64.9557 9.07853 64.8594 9.15826C64.7664 9.23798 64.6966 9.33431 64.6501 9.44726C64.6036 9.55688 64.5803 9.67812 64.5803 9.811C64.5803 9.98041 64.6268 10.1216 64.7199 10.2345C64.8162 10.3475 64.9424 10.4438 65.0986 10.5235C65.2547 10.6033 65.4324 10.6747 65.6317 10.7378C65.831 10.8009 66.0353 10.869 66.2446 10.9421C66.4539 11.0118 66.6582 11.0949 66.8575 11.1912C67.0568 11.2842 67.2345 11.4038 67.3906 11.55C67.5468 11.6928 67.6713 11.8689 67.7643 12.0782C67.8607 12.2874 67.9088 12.5416 67.9088 12.8405C67.9088 13.1661 67.8524 13.4717 67.7394 13.7574C67.6298 14.0397 67.467 14.2872 67.2511 14.4998C67.0385 14.7091 66.7777 14.8752 66.4688 14.9981C66.1599 15.1176 65.8061 15.1774 65.4075 15.1774C65.1783 15.1774 64.9524 15.1542 64.7298 15.1077C64.5073 15.0645 64.293 15.0014 64.087 14.9183C63.8844 14.8353 63.6934 14.7356 63.514 14.6194C63.3347 14.5031 63.1752 14.3736 63.0357 14.2307L63.4293 13.5879C63.4625 13.5414 63.5057 13.5032 63.5589 13.4733C63.612 13.4401 63.6685 13.4235 63.7283 13.4235C63.8113 13.4235 63.901 13.4584 63.9974 13.5281C64.0937 13.5946 64.2083 13.6693 64.3412 13.7524C64.474 13.8354 64.6285 13.9118 64.8046 13.9816C64.9839 14.048 65.1982 14.0812 65.4473 14.0812C65.8294 14.0812 66.125 13.9915 66.3343 13.8122C66.5436 13.6295 66.6482 13.3687 66.6482 13.0299C66.6482 12.8405 66.6 12.6861 66.5037 12.5665C66.4107 12.4469 66.2861 12.3472 66.13 12.2675C65.9739 12.1845 65.7961 12.1147 65.5968 12.0582C65.3975 12.0018 65.1949 11.9403 64.9889 11.8739C64.783 11.8074 64.5803 11.7277 64.381 11.6347C64.1817 11.5417 64.004 11.4204 63.8479 11.271C63.6917 11.1215 63.5655 10.9354 63.4692 10.7129C63.3762 10.487 63.3297 10.2096 63.3297 9.88076C63.3297 9.61833 63.3812 9.36255 63.4841 9.11341C63.5904 8.86427 63.7432 8.64337 63.9425 8.4507C64.1419 8.25804 64.3877 8.10357 64.68 7.9873C64.9723 7.87104 65.3078 7.81291 65.6865 7.81291C66.1117 7.81291 66.5037 7.87935 66.8625 8.01222C67.2212 8.14509 67.5268 8.33112 67.7793 8.57029L67.4454 9.2031ZM70.1399 9.9854V15.0977H68.9041V9.9854H70.1399ZM70.3093 8.49555C70.3093 8.60185 70.2877 8.7015 70.2445 8.79451C70.2013 8.88753 70.1432 8.96891 70.0701 9.03867C70.0004 9.10843 69.9173 9.1649 69.821 9.20808C69.7246 9.24795 69.6217 9.26788 69.512 9.26788C69.4057 9.26788 69.3044 9.24795 69.2081 9.20808C69.1151 9.1649 69.0337 9.10843 68.9639 9.03867C68.8942 8.96891 68.8377 8.88753 68.7945 8.79451C68.7547 8.7015 68.7347 8.60185 68.7347 8.49555C68.7347 8.38593 68.7547 8.28295 68.7945 8.18662C68.8377 8.09028 68.8942 8.00724 68.9639 7.93748C69.0337 7.86772 69.1151 7.81291 69.2081 7.77305C69.3044 7.72986 69.4057 7.70827 69.512 7.70827C69.6217 7.70827 69.7246 7.72986 69.821 7.77305C69.9173 7.81291 70.0004 7.86772 70.0701 7.93748C70.1432 8.00724 70.2013 8.09028 70.2445 8.18662C70.2877 8.28295 70.3093 8.38593 70.3093 8.49555ZM75.0669 10.4936C75.0669 10.58 75.0519 10.6647 75.022 10.7478C74.9922 10.8308 74.9523 10.8989 74.9025 10.9521L72.4759 14.151H74.9922V15.0977H71.0458V14.5845C71.0458 14.528 71.0591 14.4616 71.0857 14.3852C71.1122 14.3055 71.1521 14.2307 71.2052 14.161L73.6568 10.9271H71.1903V9.9854H75.0669V10.4936ZM79.1844 11.9536C79.1844 11.7941 79.1611 11.6447 79.1146 11.5051C79.0714 11.3623 79.005 11.2377 78.9153 11.1314C78.8256 11.0251 78.711 10.9421 78.5715 10.8823C78.4353 10.8192 78.2758 10.7876 78.0931 10.7876C77.7377 10.7876 77.457 10.8889 77.2511 11.0916C77.0484 11.2942 76.9189 11.5815 76.8624 11.9536H79.1844ZM76.8375 12.696C76.8574 12.9584 76.9039 13.186 76.977 13.3787C77.0501 13.568 77.1464 13.7258 77.266 13.852C77.3856 13.9749 77.5268 14.0679 77.6895 14.1311C77.8556 14.1909 78.0383 14.2207 78.2376 14.2207C78.437 14.2207 78.608 14.1975 78.7509 14.151C78.897 14.1045 79.0233 14.053 79.1296 13.9965C79.2392 13.9401 79.3339 13.8886 79.4136 13.8421C79.4966 13.7956 79.5764 13.7723 79.6528 13.7723C79.7557 13.7723 79.8321 13.8105 79.882 13.8869L80.2357 14.3354C80.0995 14.4948 79.9467 14.6293 79.7773 14.739C79.6079 14.8453 79.4302 14.9316 79.2442 14.9981C79.0615 15.0612 78.8738 15.106 78.6811 15.1326C78.4918 15.1592 78.3074 15.1725 78.128 15.1725C77.7726 15.1725 77.4421 15.1143 77.1365 14.9981C76.8308 14.8785 76.5651 14.7041 76.3392 14.4749C76.1133 14.2423 75.9356 13.9567 75.8061 13.6178C75.6765 13.2757 75.6117 12.8804 75.6117 12.4319C75.6117 12.0831 75.6682 11.7559 75.7811 11.4503C75.8941 11.1414 76.0552 10.874 76.2645 10.6481C76.4771 10.4189 76.7345 10.2379 77.0368 10.105C77.3424 9.97211 77.6862 9.90567 78.0682 9.90567C78.3905 9.90567 78.6878 9.95716 78.9601 10.0601C79.2325 10.1631 79.4667 10.3143 79.6627 10.5136C79.8587 10.7096 80.0115 10.9521 80.1211 11.2411C80.2341 11.5267 80.2905 11.8539 80.2905 12.2227C80.2905 12.4087 80.2706 12.5349 80.2308 12.6013C80.1909 12.6645 80.1145 12.696 80.0015 12.696H76.8375Z" fill="white"/>
<path d="M4.056 23.1862L1.832 28.4022H1.096L3.352 23.2582H0.264V22.6342H4.056V23.1862ZM4.77519 27.8182C5.45252 27.2742 5.98319 26.8289 6.36719 26.4822C6.75119 26.1302 7.07385 25.7649 7.33519 25.3862C7.60185 25.0022 7.73519 24.6262 7.73519 24.2582C7.73519 23.9116 7.64985 23.6396 7.47919 23.4422C7.31385 23.2396 7.04452 23.1382 6.67119 23.1382C6.30852 23.1382 6.02585 23.2529 5.82319 23.4822C5.62585 23.7062 5.51919 24.0076 5.50319 24.3862H4.79919C4.82052 23.7889 5.00185 23.3276 5.34319 23.0022C5.68452 22.6769 6.12452 22.5142 6.66319 22.5142C7.21252 22.5142 7.64719 22.6662 7.96719 22.9702C8.29252 23.2742 8.45519 23.6929 8.45519 24.2262C8.45519 24.6689 8.32185 25.1009 8.05519 25.5222C7.79385 25.9382 7.49519 26.3062 7.15919 26.6262C6.82319 26.9409 6.39385 27.3089 5.87119 27.7302H8.62319V28.3382H4.77519V27.8182ZM13.1528 23.2502H10.3448V25.0742C10.4674 24.9036 10.6488 24.7649 10.8888 24.6582C11.1288 24.5462 11.3874 24.4902 11.6648 24.4902C12.1074 24.4902 12.4674 24.5836 12.7448 24.7702C13.0221 24.9516 13.2194 25.1889 13.3368 25.4822C13.4594 25.7702 13.5208 26.0769 13.5208 26.4022C13.5208 26.7862 13.4488 27.1302 13.3048 27.4342C13.1608 27.7382 12.9394 27.9782 12.6408 28.1542C12.3474 28.3302 11.9821 28.4182 11.5448 28.4182C10.9848 28.4182 10.5314 28.2742 10.1848 27.9862C9.83808 27.6982 9.62742 27.3142 9.55275 26.8342H10.2648C10.3341 27.1382 10.4808 27.3756 10.7048 27.5462C10.9288 27.7169 11.2114 27.8022 11.5528 27.8022C11.9741 27.8022 12.2914 27.6769 12.5048 27.4262C12.7181 27.1702 12.8248 26.8342 12.8248 26.4182C12.8248 26.0022 12.7181 25.6822 12.5048 25.4582C12.2914 25.2289 11.9768 25.1142 11.5608 25.1142C11.2781 25.1142 11.0301 25.1836 10.8168 25.3222C10.6088 25.4556 10.4568 25.6396 10.3608 25.8742H9.67275V22.6102H13.1528V23.2502ZM19.973 27.2022L18.701 25.9302L17.429 27.2022L16.949 26.7222L18.221 25.4502L16.973 24.2022L17.437 23.7302L18.693 24.9862L19.949 23.7302L20.429 24.2102L19.173 25.4662L20.437 26.7382L19.973 27.2022ZM23.7184 27.1142V26.5622L26.5264 22.6742H27.3984V26.4822H28.1984V27.1142H27.3984V28.4022H26.6784V27.1142H23.7184ZM26.7104 23.4342L24.5584 26.4822H26.7104V23.4342ZM32.4857 23.1862L30.2617 28.4022H29.5257L31.7817 23.2582H28.6937V22.6342H32.4857V23.1862ZM33.2929 25.4502C33.2929 24.5329 33.4422 23.8182 33.7409 23.3062C34.0395 22.7889 34.5622 22.5302 35.3089 22.5302C36.0502 22.5302 36.5702 22.7889 36.8689 23.3062C37.1675 23.8182 37.3169 24.5329 37.3169 25.4502C37.3169 26.3836 37.1675 27.1089 36.8689 27.6262C36.5702 28.1436 36.0502 28.4022 35.3089 28.4022C34.5622 28.4022 34.0395 28.1436 33.7409 27.6262C33.4422 27.1089 33.2929 26.3836 33.2929 25.4502ZM36.5969 25.4502C36.5969 24.9862 36.5649 24.5942 36.5009 24.2742C36.4422 23.9489 36.3169 23.6876 36.1249 23.4902C35.9382 23.2929 35.6662 23.1942 35.3089 23.1942C34.9462 23.1942 34.6689 23.2929 34.4769 23.4902C34.2902 23.6876 34.1649 23.9489 34.1009 24.2742C34.0422 24.5942 34.0129 24.9862 34.0129 25.4502C34.0129 25.9302 34.0422 26.3329 34.1009 26.6582C34.1649 26.9836 34.2902 27.2449 34.4769 27.4422C34.6689 27.6396 34.9462 27.7382 35.3089 27.7382C35.6662 27.7382 35.9382 27.6396 36.1249 27.4422C36.3169 27.2449 36.4422 26.9836 36.5009 26.6582C36.5649 26.3329 36.5969 25.9302 36.5969 25.4502ZM43.8011 27.2022L42.5291 25.9302L41.2571 27.2022L40.7771 26.7222L42.0491 25.4502L40.8011 24.2022L41.2651 23.7302L42.5211 24.9862L43.7771 23.7302L44.2571 24.2102L43.0011 25.4662L44.2651 26.7382L43.8011 27.2022ZM51.4106 23.2502H48.6026V25.0742C48.7252 24.9036 48.9066 24.7649 49.1466 24.6582C49.3866 24.5462 49.6452 24.4902 49.9226 24.4902C50.3652 24.4902 50.7252 24.5836 51.0026 24.7702C51.2799 24.9516 51.4772 25.1889 51.5946 25.4822C51.7172 25.7702 51.7786 26.0769 51.7786 26.4022C51.7786 26.7862 51.7066 27.1302 51.5626 27.4342C51.4186 27.7382 51.1972 27.9782 50.8986 28.1542C50.6052 28.3302 50.2399 28.4182 49.8026 28.4182C49.2426 28.4182 48.7892 28.2742 48.4426 27.9862C48.0959 27.6982 47.8852 27.3142 47.8106 26.8342H48.5226C48.5919 27.1382 48.7386 27.3756 48.9626 27.5462C49.1866 27.7169 49.4692 27.8022 49.8106 27.8022C50.2319 27.8022 50.5492 27.6769 50.7626 27.4262C50.9759 27.1702 51.0826 26.8342 51.0826 26.4182C51.0826 26.0022 50.9759 25.6822 50.7626 25.4582C50.5492 25.2289 50.2346 25.1142 49.8186 25.1142C49.5359 25.1142 49.2879 25.1836 49.0746 25.3222C48.8666 25.4556 48.7146 25.6396 48.6186 25.8742H47.9306V22.6102H51.4106V23.2502ZM53.682 26.8502C53.7353 27.1542 53.858 27.3889 54.05 27.5542C54.2473 27.7196 54.5113 27.8022 54.842 27.8022C55.2847 27.8022 55.61 27.6289 55.818 27.2822C56.0313 26.9356 56.1327 26.3516 56.122 25.5302C56.01 25.7702 55.8233 25.9596 55.562 26.0982C55.3007 26.2316 55.01 26.2982 54.69 26.2982C54.3327 26.2982 54.0127 26.2262 53.73 26.0822C53.4527 25.9329 53.234 25.7169 53.074 25.4342C52.914 25.1516 52.834 24.8102 52.834 24.4102C52.834 23.8396 52.9993 23.3809 53.33 23.0342C53.6607 22.6822 54.13 22.5062 54.738 22.5062C55.4847 22.5062 56.0073 22.7489 56.306 23.2342C56.61 23.7196 56.762 24.4422 56.762 25.4022C56.762 26.0742 56.7007 26.6289 56.578 27.0662C56.4607 27.5036 56.258 27.8369 55.97 28.0662C55.6873 28.2956 55.298 28.4102 54.802 28.4102C54.258 28.4102 53.834 28.2636 53.53 27.9702C53.226 27.6769 53.0527 27.3036 53.01 26.8502H53.682ZM54.81 25.6822C55.1673 25.6822 55.4607 25.5729 55.69 25.3542C55.9193 25.1302 56.034 24.8289 56.034 24.4502C56.034 24.0502 55.922 23.7276 55.698 23.4822C55.474 23.2369 55.1593 23.1142 54.754 23.1142C54.3807 23.1142 54.082 23.2316 53.858 23.4662C53.6393 23.7009 53.53 24.0102 53.53 24.3942C53.53 24.7836 53.6393 25.0956 53.858 25.3302C54.0767 25.5649 54.394 25.6822 54.81 25.6822ZM57.7851 25.4502C57.7851 24.5329 57.9344 23.8182 58.2331 23.3062C58.5317 22.7889 59.0544 22.5302 59.8011 22.5302C60.5424 22.5302 61.0624 22.7889 61.3611 23.3062C61.6597 23.8182 61.8091 24.5329 61.8091 25.4502C61.8091 26.3836 61.6597 27.1089 61.3611 27.6262C61.0624 28.1436 60.5424 28.4022 59.8011 28.4022C59.0544 28.4022 58.5317 28.1436 58.2331 27.6262C57.9344 27.1089 57.7851 26.3836 57.7851 25.4502ZM61.0891 25.4502C61.0891 24.9862 61.0571 24.5942 60.9931 24.2742C60.9344 23.9489 60.8091 23.6876 60.6171 23.4902C60.4304 23.2929 60.1584 23.1942 59.8011 23.1942C59.4384 23.1942 59.1611 23.2929 58.9691 23.4902C58.7824 23.6876 58.6571 23.9489 58.5931 24.2742C58.5344 24.5942 58.5051 24.9862 58.5051 25.4502C58.5051 25.9302 58.5344 26.3329 58.5931 26.6582C58.6571 26.9836 58.7824 27.2449 58.9691 27.4422C59.1611 27.6396 59.4384 27.7382 59.8011 27.7382C60.1584 27.7382 60.4304 27.6396 60.6171 27.4422C60.8091 27.2449 60.9344 26.9836 60.9931 26.6582C61.0571 26.3329 61.0891 25.9302 61.0891 25.4502ZM70.3333 23.9382C70.6746 23.9382 70.9786 24.0102 71.2453 24.1542C71.512 24.2929 71.7226 24.5036 71.8773 24.7862C72.032 25.0689 72.1093 25.4129 72.1093 25.8182V28.4022H71.3893V25.9222C71.3893 25.4849 71.28 25.1516 71.0613 24.9222C70.848 24.6876 70.5573 24.5702 70.1893 24.5702C69.8106 24.5702 69.5093 24.6929 69.2853 24.9382C69.0613 25.1782 68.9493 25.5276 68.9493 25.9862V28.4022H68.2293V25.9222C68.2293 25.4849 68.12 25.1516 67.9013 24.9222C67.688 24.6876 67.3973 24.5702 67.0293 24.5702C66.6506 24.5702 66.3493 24.6929 66.1253 24.9382C65.9013 25.1782 65.7893 25.5276 65.7893 25.9862V28.4022H65.0613V24.0182H65.7893V24.6502C65.9333 24.4209 66.1253 24.2449 66.3653 24.1222C66.6106 23.9996 66.88 23.9382 67.1733 23.9382C67.5413 23.9382 67.8666 24.0209 68.1493 24.1862C68.432 24.3516 68.6426 24.5942 68.7813 24.9142C68.904 24.6049 69.1066 24.3649 69.3893 24.1942C69.672 24.0236 69.9866 23.9382 70.3333 23.9382ZM78.5755 23.9382C78.9168 23.9382 79.2208 24.0102 79.4875 24.1542C79.7542 24.2929 79.9648 24.5036 80.1195 24.7862C80.2742 25.0689 80.3515 25.4129 80.3515 25.8182V28.4022H79.6315V25.9222C79.6315 25.4849 79.5222 25.1516 79.3035 24.9222C79.0902 24.6876 78.7995 24.5702 78.4315 24.5702C78.0528 24.5702 77.7515 24.6929 77.5275 24.9382C77.3035 25.1782 77.1915 25.5276 77.1915 25.9862V28.4022H76.4715V25.9222C76.4715 25.4849 76.3622 25.1516 76.1435 24.9222C75.9302 24.6876 75.6395 24.5702 75.2715 24.5702C74.8928 24.5702 74.5915 24.6929 74.3675 24.9382C74.1435 25.1782 74.0315 25.5276 74.0315 25.9862V28.4022H73.3035V24.0182H74.0315V24.6502C74.1755 24.4209 74.3675 24.2449 74.6075 24.1222C74.8528 23.9996 75.1222 23.9382 75.4155 23.9382C75.7835 23.9382 76.1088 24.0209 76.3915 24.1862C76.6742 24.3516 76.8848 24.5942 77.0235 24.9142C77.1462 24.6049 77.3488 24.3649 77.6315 24.1942C77.9142 24.0236 78.2288 23.9382 78.5755 23.9382Z" fill="white"/>
<rect x="87" width="36.5" height="36.5" rx="18.25" fill="white"/>
<path fill-rule="evenodd" clip-rule="evenodd" d="M114.336 19.257H96.164L98.043 21.1355C98.1359 21.2284 98.2096 21.3386 98.2598 21.46C98.3101 21.5813 98.336 21.7114 98.336 21.8427C98.336 21.9741 98.3101 22.1042 98.2598 22.2255C98.2096 22.3469 98.1359 22.4571 98.043 22.55C97.9501 22.6429 97.8399 22.7165 97.7185 22.7668C97.5972 22.8171 97.4671 22.8429 97.3358 22.8429C97.2044 22.8429 97.0743 22.8171 96.953 22.7668C96.8316 22.7165 96.7214 22.6429 96.6285 22.55L93.0935 19.0145L93.0685 18.9885C92.9681 18.895 92.8879 18.7817 92.8331 18.6559C92.7783 18.53 92.75 18.3943 92.75 18.257C92.75 18.0105 92.839 17.7845 92.987 17.6105C93.0187 17.5665 93.054 17.5248 93.093 17.4855L96.6285 13.9505C96.816 13.7629 97.0703 13.6575 97.3356 13.6575C97.6008 13.6574 97.8552 13.7627 98.0427 13.9502C98.2303 14.1378 98.3357 14.3921 98.3358 14.6573C98.3358 14.9225 98.2305 15.1769 98.043 15.3645L96.15 17.257H114.349L112.456 15.3645C112.364 15.2716 112.29 15.1614 112.24 15.04C112.189 14.9187 112.164 14.7886 112.164 14.6572C112.164 14.5259 112.189 14.3958 112.24 14.2745C112.29 14.1531 112.364 14.0429 112.456 13.95C112.644 13.7624 112.898 13.657 113.164 13.657C113.295 13.657 113.425 13.6829 113.547 13.7332C113.668 13.7834 113.778 13.8571 113.871 13.95L117.406 17.4855C117.446 17.5248 117.482 17.5665 117.513 17.6105C117.661 17.7845 117.75 18.0105 117.75 18.257C117.75 18.546 117.627 18.806 117.431 18.9885L117.406 19.0145L113.871 22.5495C113.683 22.7371 113.429 22.8425 113.164 22.8425C112.899 22.8426 112.644 22.7373 112.457 22.5497C112.269 22.3622 112.164 22.1079 112.164 21.8427C112.164 21.5774 112.269 21.3231 112.456 21.1355L114.336 19.257Z" fill="#945FDF"/>
</svg>
