<svg width="112" height="37" viewBox="0 0 112 37" fill="none" xmlns="http://www.w3.org/2000/svg">
<rect width="36.5" height="36.5" rx="18.25" fill="white"/>
<path d="M16.4163 20.9974V18.2474M20.083 20.9974V18.2474M23.7497 20.9974V18.2474M9.08301 14.5807V10.9141M27.4163 12.7474H9.08301M27.4163 14.5807V10.9141M12.7497 20.9974V18.2474" stroke="#945FDF" stroke-width="2.06182" stroke-linecap="round" stroke-linejoin="round"/>
<path d="M25.583 18.2479H10.9163C9.90382 18.2479 9.08301 19.0687 9.08301 20.0813V23.7479C9.08301 24.7604 9.90382 25.5813 10.9163 25.5813H25.583C26.5955 25.5813 27.4163 24.7604 27.4163 23.7479V20.0813C27.4163 19.0687 26.5955 18.2479 25.583 18.2479Z" stroke="#945FDF" stroke-width="2.06182" stroke-linecap="round" stroke-linejoin="round"/>
<path d="M49.725 11.4827C49.725 12.0127 49.6367 12.4994 49.46 12.9427C49.2833 13.3861 49.035 13.7677 48.715 14.0877C48.395 14.4077 48.01 14.6561 47.56 14.8327C47.11 15.0094 46.61 15.0977 46.06 15.0977H43.305V7.86772H46.06C46.61 7.86772 47.11 7.95772 47.56 8.13772C48.01 8.31438 48.395 8.56272 48.715 8.88272C49.035 9.19938 49.2833 9.57938 49.46 10.0227C49.6367 10.4661 49.725 10.9527 49.725 11.4827ZM48.345 11.4827C48.345 11.0861 48.2917 10.7311 48.185 10.4177C48.0817 10.1011 47.93 9.83438 47.73 9.61772C47.5333 9.39772 47.2933 9.22938 47.01 9.11272C46.73 8.99605 46.4133 8.93772 46.06 8.93772H44.655V14.0277H46.06C46.4133 14.0277 46.73 13.9694 47.01 13.8527C47.2933 13.7361 47.5333 13.5694 47.73 13.3527C47.93 13.1327 48.0817 12.8661 48.185 12.5527C48.2917 12.2361 48.345 11.8794 48.345 11.4827ZM51.9095 9.96772V15.0977H50.6695V9.96772H51.9095ZM52.0795 8.47272C52.0795 8.57938 52.0579 8.67938 52.0145 8.77272C51.9712 8.86605 51.9129 8.94772 51.8395 9.01772C51.7695 9.08772 51.6862 9.14438 51.5895 9.18772C51.4929 9.22772 51.3895 9.24772 51.2795 9.24772C51.1729 9.24772 51.0712 9.22772 50.9745 9.18772C50.8812 9.14438 50.7995 9.08772 50.7295 9.01772C50.6595 8.94772 50.6029 8.86605 50.5595 8.77272C50.5195 8.67938 50.4995 8.57938 50.4995 8.47272C50.4995 8.36272 50.5195 8.25938 50.5595 8.16272C50.6029 8.06605 50.6595 7.98272 50.7295 7.91272C50.7995 7.84272 50.8812 7.78772 50.9745 7.74772C51.0712 7.70438 51.1729 7.68272 51.2795 7.68272C51.3895 7.68272 51.4929 7.70438 51.5895 7.74772C51.6862 7.78772 51.7695 7.84272 51.8395 7.91272C51.9129 7.98272 51.9712 8.06605 52.0145 8.16272C52.0579 8.25938 52.0795 8.36272 52.0795 8.47272ZM53.1686 15.0977V9.96772H53.9236C54.0836 9.96772 54.1886 10.0427 54.2386 10.1927L54.3186 10.5727C54.4086 10.4727 54.5019 10.3811 54.5986 10.2977C54.6986 10.2144 54.8036 10.1427 54.9136 10.0827C55.0269 10.0227 55.1469 9.97605 55.2736 9.94272C55.4036 9.90605 55.5453 9.88772 55.6986 9.88772C56.0219 9.88772 56.2869 9.97605 56.4936 10.1527C56.7036 10.3261 56.8603 10.5577 56.9636 10.8477C57.0436 10.6777 57.1436 10.5327 57.2636 10.4127C57.3836 10.2894 57.5153 10.1894 57.6586 10.1127C57.8019 10.0361 57.9536 9.97938 58.1136 9.94272C58.2769 9.90605 58.4403 9.88772 58.6036 9.88772C58.8869 9.88772 59.1386 9.93105 59.3586 10.0177C59.5786 10.1044 59.7636 10.2311 59.9136 10.3977C60.0636 10.5644 60.1769 10.7677 60.2536 11.0077C60.3336 11.2477 60.3736 11.5227 60.3736 11.8327V15.0977H59.1386V11.8327C59.1386 11.5061 59.0669 11.2611 58.9236 11.0977C58.7803 10.9311 58.5703 10.8477 58.2936 10.8477C58.1669 10.8477 58.0486 10.8694 57.9386 10.9127C57.8319 10.9561 57.7369 11.0194 57.6536 11.1027C57.5736 11.1827 57.5103 11.2844 57.4636 11.4077C57.4169 11.5311 57.3936 11.6727 57.3936 11.8327V15.0977H56.1536V11.8327C56.1536 11.4894 56.0836 11.2394 55.9436 11.0827C55.8069 10.9261 55.6053 10.8477 55.3386 10.8477C55.1586 10.8477 54.9903 10.8927 54.8336 10.9827C54.6803 11.0694 54.5369 11.1894 54.4036 11.3427V15.0977H53.1686ZM64.8525 11.9427C64.8525 11.7827 64.8292 11.6327 64.7825 11.4927C64.7392 11.3494 64.6725 11.2244 64.5825 11.1177C64.4925 11.0111 64.3775 10.9277 64.2375 10.8677C64.1008 10.8044 63.9408 10.7727 63.7575 10.7727C63.4008 10.7727 63.1192 10.8744 62.9125 11.0777C62.7092 11.2811 62.5792 11.5694 62.5225 11.9427H64.8525ZM62.4975 12.6877C62.5175 12.9511 62.5642 13.1794 62.6375 13.3727C62.7108 13.5627 62.8075 13.7211 62.9275 13.8477C63.0475 13.9711 63.1892 14.0644 63.3525 14.1277C63.5192 14.1877 63.7025 14.2177 63.9025 14.2177C64.1025 14.2177 64.2742 14.1944 64.4175 14.1477C64.5642 14.1011 64.6908 14.0494 64.7975 13.9927C64.9075 13.9361 65.0025 13.8844 65.0825 13.8377C65.1658 13.7911 65.2458 13.7677 65.3225 13.7677C65.4258 13.7677 65.5025 13.8061 65.5525 13.8827L65.9075 14.3327C65.7708 14.4927 65.6175 14.6277 65.4475 14.7377C65.2775 14.8444 65.0992 14.9311 64.9125 14.9977C64.7292 15.0611 64.5408 15.1061 64.3475 15.1327C64.1575 15.1594 63.9725 15.1727 63.7925 15.1727C63.4358 15.1727 63.1042 15.1144 62.7975 14.9977C62.4908 14.8777 62.2242 14.7027 61.9975 14.4727C61.7708 14.2394 61.5925 13.9527 61.4625 13.6127C61.3325 13.2694 61.2675 12.8727 61.2675 12.4227C61.2675 12.0727 61.3242 11.7444 61.4375 11.4377C61.5508 11.1277 61.7125 10.8594 61.9225 10.6327C62.1358 10.4027 62.3942 10.2211 62.6975 10.0877C63.0042 9.95438 63.3492 9.88772 63.7325 9.88772C64.0558 9.88772 64.3542 9.93938 64.6275 10.0427C64.9008 10.1461 65.1358 10.2977 65.3325 10.4977C65.5292 10.6944 65.6825 10.9377 65.7925 11.2277C65.9058 11.5144 65.9625 11.8427 65.9625 12.2127C65.9625 12.3994 65.9425 12.5261 65.9025 12.5927C65.8625 12.6561 65.7858 12.6877 65.6725 12.6877H62.4975ZM68.0443 10.5977C68.1476 10.4944 68.256 10.3994 68.3693 10.3127C68.486 10.2227 68.6076 10.1477 68.7343 10.0877C68.8643 10.0244 69.0026 9.97605 69.1493 9.94272C69.296 9.90605 69.456 9.88772 69.6293 9.88772C69.9093 9.88772 70.1576 9.93605 70.3743 10.0327C70.591 10.1261 70.771 10.2594 70.9143 10.4327C71.061 10.6027 71.171 10.8077 71.2443 11.0477C71.321 11.2844 71.3593 11.5461 71.3593 11.8327V15.0977H70.1243V11.8327C70.1243 11.5194 70.0526 11.2777 69.9093 11.1077C69.766 10.9344 69.5476 10.8477 69.2543 10.8477C69.041 10.8477 68.841 10.8961 68.6543 10.9927C68.4676 11.0894 68.291 11.2211 68.1243 11.3877V15.0977H66.8893V9.96772H67.6443C67.8043 9.96772 67.9093 10.0427 67.9593 10.1927L68.0443 10.5977ZM75.6638 10.9677C75.6305 11.0211 75.5955 11.0594 75.5588 11.0827C75.5222 11.1027 75.4755 11.1127 75.4188 11.1127C75.3588 11.1127 75.2938 11.0961 75.2238 11.0627C75.1572 11.0294 75.0788 10.9927 74.9888 10.9527C74.8988 10.9094 74.7955 10.8711 74.6788 10.8377C74.5655 10.8044 74.4305 10.7877 74.2738 10.7877C74.0305 10.7877 73.8388 10.8394 73.6988 10.9427C73.5622 11.0461 73.4938 11.1811 73.4938 11.3477C73.4938 11.4577 73.5288 11.5511 73.5988 11.6277C73.6722 11.7011 73.7672 11.7661 73.8838 11.8227C74.0038 11.8794 74.1388 11.9311 74.2888 11.9777C74.4388 12.0211 74.5905 12.0694 74.7438 12.1227C74.9005 12.1761 75.0538 12.2377 75.2038 12.3077C75.3538 12.3744 75.4872 12.4611 75.6038 12.5677C75.7238 12.6711 75.8188 12.7961 75.8888 12.9427C75.9622 13.0894 75.9988 13.2661 75.9988 13.4727C75.9988 13.7194 75.9538 13.9477 75.8638 14.1577C75.7772 14.3644 75.6472 14.5444 75.4738 14.6977C75.3005 14.8477 75.0855 14.9661 74.8288 15.0527C74.5755 15.1361 74.2822 15.1777 73.9488 15.1777C73.7722 15.1777 73.5988 15.1611 73.4288 15.1277C73.2622 15.0977 73.1005 15.0544 72.9438 14.9977C72.7905 14.9411 72.6472 14.8744 72.5138 14.7977C72.3838 14.7211 72.2688 14.6377 72.1688 14.5477L72.4538 14.0777C72.4905 14.0211 72.5338 13.9777 72.5838 13.9477C72.6338 13.9177 72.6972 13.9027 72.7738 13.9027C72.8505 13.9027 72.9222 13.9244 72.9888 13.9677C73.0588 14.0111 73.1388 14.0577 73.2288 14.1077C73.3188 14.1577 73.4238 14.2044 73.5438 14.2477C73.6672 14.2911 73.8222 14.3127 74.0088 14.3127C74.1555 14.3127 74.2805 14.2961 74.3838 14.2627C74.4905 14.2261 74.5772 14.1794 74.6438 14.1227C74.7138 14.0661 74.7638 14.0011 74.7938 13.9277C74.8272 13.8511 74.8438 13.7727 74.8438 13.6927C74.8438 13.5727 74.8072 13.4744 74.7338 13.3977C74.6638 13.3211 74.5688 13.2544 74.4488 13.1977C74.3322 13.1411 74.1972 13.0911 74.0438 13.0477C73.8938 13.0011 73.7388 12.9511 73.5788 12.8977C73.4222 12.8444 73.2672 12.7827 73.1138 12.7127C72.9638 12.6394 72.8288 12.5477 72.7088 12.4377C72.5922 12.3277 72.4972 12.1927 72.4238 12.0327C72.3538 11.8727 72.3188 11.6794 72.3188 11.4527C72.3188 11.2427 72.3605 11.0427 72.4438 10.8527C72.5272 10.6627 72.6488 10.4977 72.8088 10.3577C72.9722 10.2144 73.1738 10.1011 73.4138 10.0177C73.6572 9.93105 73.9372 9.88772 74.2538 9.88772C74.6072 9.88772 74.9288 9.94605 75.2188 10.0627C75.5088 10.1794 75.7505 10.3327 75.9438 10.5227L75.6638 10.9677ZM78.2084 9.96772V15.0977H76.9684V9.96772H78.2084ZM78.3784 8.47272C78.3784 8.57938 78.3567 8.67938 78.3134 8.77272C78.27 8.86605 78.2117 8.94772 78.1384 9.01772C78.0684 9.08772 77.985 9.14438 77.8884 9.18772C77.7917 9.22772 77.6884 9.24772 77.5784 9.24772C77.4717 9.24772 77.37 9.22772 77.2734 9.18772C77.18 9.14438 77.0984 9.08772 77.0284 9.01772C76.9584 8.94772 76.9017 8.86605 76.8584 8.77272C76.8184 8.67938 76.7984 8.57938 76.7984 8.47272C76.7984 8.36272 76.8184 8.25938 76.8584 8.16272C76.9017 8.06605 76.9584 7.98272 77.0284 7.91272C77.0984 7.84272 77.18 7.78772 77.2734 7.74772C77.37 7.70438 77.4717 7.68272 77.5784 7.68272C77.6884 7.68272 77.7917 7.70438 77.8884 7.74772C77.985 7.78772 78.0684 7.84272 78.1384 7.91272C78.2117 7.98272 78.27 8.06605 78.3134 8.16272C78.3567 8.25938 78.3784 8.36272 78.3784 8.47272ZM81.7374 9.88772C82.1174 9.88772 82.4624 9.94938 82.7724 10.0727C83.0858 10.1961 83.3524 10.3711 83.5724 10.5977C83.7958 10.8244 83.9674 11.1011 84.0874 11.4277C84.2074 11.7544 84.2674 12.1194 84.2674 12.5227C84.2674 12.9294 84.2074 13.2961 84.0874 13.6227C83.9674 13.9494 83.7958 14.2277 83.5724 14.4577C83.3524 14.6877 83.0858 14.8644 82.7724 14.9877C82.4624 15.1111 82.1174 15.1727 81.7374 15.1727C81.3541 15.1727 81.0058 15.1111 80.6924 14.9877C80.3791 14.8644 80.1108 14.6877 79.8874 14.4577C79.6674 14.2277 79.4958 13.9494 79.3724 13.6227C79.2524 13.2961 79.1924 12.9294 79.1924 12.5227C79.1924 12.1194 79.2524 11.7544 79.3724 11.4277C79.4958 11.1011 79.6674 10.8244 79.8874 10.5977C80.1108 10.3711 80.3791 10.1961 80.6924 10.0727C81.0058 9.94938 81.3541 9.88772 81.7374 9.88772ZM81.7374 14.2227C82.1641 14.2227 82.4791 14.0794 82.6824 13.7927C82.8891 13.5061 82.9924 13.0861 82.9924 12.5327C82.9924 11.9794 82.8891 11.5577 82.6824 11.2677C82.4791 10.9777 82.1641 10.8327 81.7374 10.8327C81.3041 10.8327 80.9824 10.9794 80.7724 11.2727C80.5658 11.5627 80.4624 11.9827 80.4624 12.5327C80.4624 13.0827 80.5658 13.5027 80.7724 13.7927C80.9824 14.0794 81.3041 14.2227 81.7374 14.2227ZM86.3646 10.5977C86.4679 10.4944 86.5763 10.3994 86.6896 10.3127C86.8063 10.2227 86.9279 10.1477 87.0546 10.0877C87.1846 10.0244 87.3229 9.97605 87.4696 9.94272C87.6163 9.90605 87.7763 9.88772 87.9496 9.88772C88.2296 9.88772 88.4779 9.93605 88.6946 10.0327C88.9113 10.1261 89.0913 10.2594 89.2346 10.4327C89.3813 10.6027 89.4913 10.8077 89.5646 11.0477C89.6413 11.2844 89.6796 11.5461 89.6796 11.8327V15.0977H88.4446V11.8327C88.4446 11.5194 88.3729 11.2777 88.2296 11.1077C88.0863 10.9344 87.8679 10.8477 87.5746 10.8477C87.3613 10.8477 87.1613 10.8961 86.9746 10.9927C86.7879 11.0894 86.6113 11.2211 86.4446 11.3877V15.0977H85.2096V9.96772H85.9646C86.1246 9.96772 86.2296 10.0427 86.2796 10.1927L86.3646 10.5977Z" fill="white"/>
<path d="M42.804 23.2822V22.6182H44.308V28.4022H43.572V23.2822H42.804ZM45.3665 23.2822V22.6182H46.8705V28.4022H46.1345V23.2822H45.3665ZM51.681 23.1862L49.457 28.4022H48.721L50.977 23.2582H47.889V22.6342H51.681V23.1862ZM57.973 27.2022L56.701 25.9302L55.429 27.2022L54.949 26.7222L56.221 25.4502L54.973 24.2022L55.437 23.7302L56.693 24.9862L57.949 23.7302L58.429 24.2102L57.173 25.4662L58.437 26.7382L57.973 27.2022ZM62.9504 25.3942C62.6518 25.2769 62.4224 25.1062 62.2624 24.8822C62.1024 24.6582 62.0224 24.3862 62.0224 24.0662C62.0224 23.7782 62.0944 23.5196 62.2384 23.2902C62.3824 23.0556 62.5958 22.8716 62.8784 22.7382C63.1664 22.5996 63.5131 22.5302 63.9184 22.5302C64.3238 22.5302 64.6678 22.5996 64.9504 22.7382C65.2384 22.8716 65.4544 23.0556 65.5984 23.2902C65.7478 23.5196 65.8224 23.7782 65.8224 24.0662C65.8224 24.3756 65.7398 24.6476 65.5744 24.8822C65.4091 25.1116 65.1824 25.2822 64.8944 25.3942C65.2251 25.4956 65.4864 25.6742 65.6784 25.9302C65.8758 26.1809 65.9744 26.4849 65.9744 26.8422C65.9744 27.1889 65.8891 27.4929 65.7184 27.7542C65.5478 28.0102 65.3051 28.2102 64.9904 28.3542C64.6811 28.4929 64.3238 28.5622 63.9184 28.5622C63.5131 28.5622 63.1558 28.4929 62.8464 28.3542C62.5424 28.2102 62.3051 28.0102 62.1344 27.7542C61.9638 27.4929 61.8784 27.1889 61.8784 26.8422C61.8784 26.4849 61.9744 26.1782 62.1664 25.9222C62.3584 25.6662 62.6198 25.4902 62.9504 25.3942ZM65.1184 24.1542C65.1184 23.8289 65.0118 23.5782 64.7984 23.4022C64.5851 23.2262 64.2918 23.1382 63.9184 23.1382C63.5504 23.1382 63.2598 23.2262 63.0464 23.4022C62.8331 23.5782 62.7264 23.8316 62.7264 24.1622C62.7264 24.4609 62.8358 24.7009 63.0544 24.8822C63.2784 25.0636 63.5664 25.1542 63.9184 25.1542C64.2758 25.1542 64.5638 25.0636 64.7824 24.8822C65.0064 24.6956 65.1184 24.4529 65.1184 24.1542ZM63.9184 25.7142C63.5238 25.7142 63.2011 25.8076 62.9504 25.9942C62.6998 26.1756 62.5744 26.4502 62.5744 26.8182C62.5744 27.1596 62.6944 27.4342 62.9344 27.6422C63.1798 27.8502 63.5078 27.9542 63.9184 27.9542C64.3291 27.9542 64.6544 27.8502 64.8944 27.6422C65.1344 27.4342 65.2544 27.1596 65.2544 26.8182C65.2544 26.4609 65.1318 26.1889 64.8864 26.0022C64.6411 25.8102 64.3184 25.7142 63.9184 25.7142ZM67.9973 25.3942C67.6986 25.2769 67.4693 25.1062 67.3093 24.8822C67.1493 24.6582 67.0693 24.3862 67.0693 24.0662C67.0693 23.7782 67.1413 23.5196 67.2853 23.2902C67.4293 23.0556 67.6426 22.8716 67.9253 22.7382C68.2133 22.5996 68.56 22.5302 68.9653 22.5302C69.3706 22.5302 69.7146 22.5996 69.9973 22.7382C70.2853 22.8716 70.5013 23.0556 70.6453 23.2902C70.7946 23.5196 70.8693 23.7782 70.8693 24.0662C70.8693 24.3756 70.7866 24.6476 70.6213 24.8822C70.456 25.1116 70.2293 25.2822 69.9413 25.3942C70.272 25.4956 70.5333 25.6742 70.7253 25.9302C70.9226 26.1809 71.0213 26.4849 71.0213 26.8422C71.0213 27.1889 70.936 27.4929 70.7653 27.7542C70.5946 28.0102 70.352 28.2102 70.0373 28.3542C69.728 28.4929 69.3706 28.5622 68.9653 28.5622C68.56 28.5622 68.2026 28.4929 67.8933 28.3542C67.5893 28.2102 67.352 28.0102 67.1813 27.7542C67.0106 27.4929 66.9253 27.1889 66.9253 26.8422C66.9253 26.4849 67.0213 26.1782 67.2133 25.9222C67.4053 25.6662 67.6666 25.4902 67.9973 25.3942ZM70.1653 24.1542C70.1653 23.8289 70.0586 23.5782 69.8453 23.4022C69.632 23.2262 69.3386 23.1382 68.9653 23.1382C68.5973 23.1382 68.3066 23.2262 68.0933 23.4022C67.88 23.5782 67.7733 23.8316 67.7733 24.1622C67.7733 24.4609 67.8826 24.7009 68.1013 24.8822C68.3253 25.0636 68.6133 25.1542 68.9653 25.1542C69.3226 25.1542 69.6106 25.0636 69.8293 24.8822C70.0533 24.6956 70.1653 24.4529 70.1653 24.1542ZM68.9653 25.7142C68.5706 25.7142 68.248 25.8076 67.9973 25.9942C67.7466 26.1756 67.6213 26.4502 67.6213 26.8182C67.6213 27.1596 67.7413 27.4342 67.9813 27.6422C68.2266 27.8502 68.5546 27.9542 68.9653 27.9542C69.376 27.9542 69.7013 27.8502 69.9413 27.6422C70.1813 27.4342 70.3013 27.1596 70.3013 26.8182C70.3013 26.4609 70.1786 26.1889 69.9333 26.0022C69.688 25.8102 69.3653 25.7142 68.9653 25.7142ZM77.473 27.2022L76.201 25.9302L74.929 27.2022L74.449 26.7222L75.721 25.4502L74.473 24.2022L74.937 23.7302L76.193 24.9862L77.449 23.7302L77.929 24.2102L76.673 25.4662L77.937 26.7382L77.473 27.2022ZM82.4504 25.3942C82.1518 25.2769 81.9224 25.1062 81.7624 24.8822C81.6024 24.6582 81.5224 24.3862 81.5224 24.0662C81.5224 23.7782 81.5944 23.5196 81.7384 23.2902C81.8824 23.0556 82.0958 22.8716 82.3784 22.7382C82.6664 22.5996 83.0131 22.5302 83.4184 22.5302C83.8238 22.5302 84.1678 22.5996 84.4504 22.7382C84.7384 22.8716 84.9544 23.0556 85.0984 23.2902C85.2478 23.5196 85.3224 23.7782 85.3224 24.0662C85.3224 24.3756 85.2398 24.6476 85.0744 24.8822C84.9091 25.1116 84.6824 25.2822 84.3944 25.3942C84.7251 25.4956 84.9864 25.6742 85.1784 25.9302C85.3758 26.1809 85.4744 26.4849 85.4744 26.8422C85.4744 27.1889 85.3891 27.4929 85.2184 27.7542C85.0478 28.0102 84.8051 28.2102 84.4904 28.3542C84.1811 28.4929 83.8238 28.5622 83.4184 28.5622C83.0131 28.5622 82.6558 28.4929 82.3464 28.3542C82.0424 28.2102 81.8051 28.0102 81.6344 27.7542C81.4638 27.4929 81.3784 27.1889 81.3784 26.8422C81.3784 26.4849 81.4744 26.1782 81.6664 25.9222C81.8584 25.6662 82.1198 25.4902 82.4504 25.3942ZM84.6184 24.1542C84.6184 23.8289 84.5118 23.5782 84.2984 23.4022C84.0851 23.2262 83.7918 23.1382 83.4184 23.1382C83.0504 23.1382 82.7598 23.2262 82.5464 23.4022C82.3331 23.5782 82.2264 23.8316 82.2264 24.1622C82.2264 24.4609 82.3358 24.7009 82.5544 24.8822C82.7784 25.0636 83.0664 25.1542 83.4184 25.1542C83.7758 25.1542 84.0638 25.0636 84.2824 24.8822C84.5064 24.6956 84.6184 24.4529 84.6184 24.1542ZM83.4184 25.7142C83.0238 25.7142 82.7011 25.8076 82.4504 25.9942C82.1998 26.1756 82.0744 26.4502 82.0744 26.8182C82.0744 27.1596 82.1944 27.4342 82.4344 27.6422C82.6798 27.8502 83.0078 27.9542 83.4184 27.9542C83.8291 27.9542 84.1544 27.8502 84.3944 27.6422C84.6344 27.4342 84.7544 27.1596 84.7544 26.8182C84.7544 26.4609 84.6318 26.1889 84.3864 26.0022C84.1411 25.8102 83.8184 25.7142 83.4184 25.7142ZM86.4413 25.4502C86.4413 24.5329 86.5906 23.8182 86.8893 23.3062C87.188 22.7889 87.7106 22.5302 88.4573 22.5302C89.1986 22.5302 89.7186 22.7889 90.0173 23.3062C90.316 23.8182 90.4653 24.5329 90.4653 25.4502C90.4653 26.3836 90.316 27.1089 90.0173 27.6262C89.7186 28.1436 89.1986 28.4022 88.4573 28.4022C87.7106 28.4022 87.188 28.1436 86.8893 27.6262C86.5906 27.1089 86.4413 26.3836 86.4413 25.4502ZM89.7453 25.4502C89.7453 24.9862 89.7133 24.5942 89.6493 24.2742C89.5906 23.9489 89.4653 23.6876 89.2733 23.4902C89.0866 23.2929 88.8146 23.1942 88.4573 23.1942C88.0946 23.1942 87.8173 23.2929 87.6253 23.4902C87.4386 23.6876 87.3133 23.9489 87.2493 24.2742C87.1906 24.5942 87.1613 24.9862 87.1613 25.4502C87.1613 25.9302 87.1906 26.3329 87.2493 26.6582C87.3133 26.9836 87.4386 27.2449 87.6253 27.4422C87.8173 27.6396 88.0946 27.7382 88.4573 27.7382C88.8146 27.7382 89.0866 27.6396 89.2733 27.4422C89.4653 27.2449 89.5906 26.9836 89.6493 26.6582C89.7133 26.3329 89.7453 25.9302 89.7453 25.4502ZM98.9896 23.9382C99.3309 23.9382 99.6349 24.0102 99.9016 24.1542C100.168 24.2929 100.379 24.5036 100.534 24.7862C100.688 25.0689 100.766 25.4129 100.766 25.8182V28.4022H100.046V25.9222C100.046 25.4849 99.9362 25.1516 99.7176 24.9222C99.5042 24.6876 99.2136 24.5702 98.8456 24.5702C98.4669 24.5702 98.1656 24.6929 97.9416 24.9382C97.7176 25.1782 97.6056 25.5276 97.6056 25.9862V28.4022H96.8856V25.9222C96.8856 25.4849 96.7762 25.1516 96.5576 24.9222C96.3442 24.6876 96.0536 24.5702 95.6856 24.5702C95.3069 24.5702 95.0056 24.6929 94.7816 24.9382C94.5576 25.1782 94.4456 25.5276 94.4456 25.9862V28.4022H93.7176V24.0182H94.4456V24.6502C94.5896 24.4209 94.7816 24.2449 95.0216 24.1222C95.2669 23.9996 95.5362 23.9382 95.8296 23.9382C96.1976 23.9382 96.5229 24.0209 96.8056 24.1862C97.0882 24.3516 97.2989 24.5942 97.4376 24.9142C97.5602 24.6049 97.7629 24.3649 98.0456 24.1942C98.3282 24.0236 98.6429 23.9382 98.9896 23.9382ZM107.232 23.9382C107.573 23.9382 107.877 24.0102 108.144 24.1542C108.41 24.2929 108.621 24.5036 108.776 24.7862C108.93 25.0689 109.008 25.4129 109.008 25.8182V28.4022H108.288V25.9222C108.288 25.4849 108.178 25.1516 107.96 24.9222C107.746 24.6876 107.456 24.5702 107.088 24.5702C106.709 24.5702 106.408 24.6929 106.184 24.9382C105.96 25.1782 105.848 25.5276 105.848 25.9862V28.4022H105.128V25.9222C105.128 25.4849 105.018 25.1516 104.8 24.9222C104.586 24.6876 104.296 24.5702 103.928 24.5702C103.549 24.5702 103.248 24.6929 103.024 24.9382C102.8 25.1782 102.688 25.5276 102.688 25.9862V28.4022H101.96V24.0182H102.688V24.6502C102.832 24.4209 103.024 24.2449 103.264 24.1222C103.509 23.9996 103.778 23.9382 104.072 23.9382C104.44 23.9382 104.765 24.0209 105.048 24.1862C105.33 24.3516 105.541 24.5942 105.68 24.9142C105.802 24.6049 106.005 24.3649 106.288 24.1942C106.57 24.0236 106.885 23.9382 107.232 23.9382Z" fill="white"/>
</svg>
