<svg width="112" height="37" viewBox="0 0 112 37" fill="none" xmlns="http://www.w3.org/2000/svg">
<rect width="36.5" height="36.5" rx="18.25" fill="white"/>
<g clip-path="url(#clip0_765_4213)">
<path d="M27.0363 20.375L24.2238 15.0625H25C25.1492 15.0625 25.2923 15.0065 25.3977 14.9069C25.5032 14.8073 25.5625 14.6721 25.5625 14.5313C25.5625 14.3904 25.5032 14.2552 25.3977 14.1556C25.2923 14.056 25.1492 14 25 14H24.1113C23.507 13.3783 22.7788 12.8754 21.9684 12.5198C21.158 12.1643 20.2813 11.9632 19.3885 11.9281L19.375 11.875C19.375 11.5932 19.2565 11.323 19.0455 11.1237C18.8345 10.9244 18.5484 10.8125 18.25 10.8125C17.9516 10.8125 17.6655 10.9244 17.4545 11.1237C17.2435 11.323 17.125 11.5932 17.125 11.875V11.9281C15.3068 11.9995 13.5911 12.7424 12.3471 13.9968L11.5 14C11.3508 14 11.2077 14.056 11.1023 14.1556C10.9968 14.2552 10.9375 14.3904 10.9375 14.5313C10.9375 14.6721 10.9968 14.8073 11.1023 14.9069C11.2077 15.0065 11.3508 15.0625 11.5 15.0625H12.2763L9.46375 20.375H9.25C9.25 21.5438 10.7575 22.5 12.625 22.5C14.4925 22.5 16 21.5438 16 20.375H15.7863L12.9175 14.9669C12.9886 14.9275 13.0497 14.8738 13.0964 14.8096C13.5939 14.2575 14.2094 13.8109 14.9026 13.4992C15.5957 13.1876 16.3508 13.0179 17.1183 13.0013L17.125 24.625H16V25.6875H13.75V26.75H22.75V25.6875H20.5V24.625H19.375V13.0013C20.1338 13.0148 20.8806 13.1825 21.5647 13.4929C22.2488 13.8033 22.8541 14.2491 23.3395 14.8001C23.3915 14.8834 23.4666 14.9517 23.5566 14.9977L20.7138 20.375H20.5C20.5 21.5438 22.0075 22.5 23.875 22.5C25.7425 22.5 27.25 21.5438 27.25 20.375H27.0363ZM14.875 20.375H10.375L12.625 16.1888L14.875 20.375ZM21.625 20.375L23.875 16.1888L26.125 20.375H21.625Z" fill="#945FDF"/>
</g>
<path d="M49.265 11.4727V14.3977C48.8983 14.6677 48.5067 14.8661 48.09 14.9927C47.6767 15.1161 47.2333 15.1777 46.76 15.1777C46.17 15.1777 45.635 15.0861 45.155 14.9027C44.6783 14.7194 44.27 14.4644 43.93 14.1377C43.5933 13.8111 43.3333 13.4211 43.15 12.9677C42.9667 12.5144 42.875 12.0194 42.875 11.4827C42.875 10.9394 42.9633 10.4411 43.14 9.98772C43.3167 9.53438 43.5667 9.14438 43.89 8.81772C44.2167 8.49105 44.6117 8.23772 45.075 8.05772C45.5383 7.87772 46.0583 7.78772 46.635 7.78772C46.9283 7.78772 47.2017 7.81105 47.455 7.85772C47.7117 7.90438 47.9483 7.96938 48.165 8.05272C48.385 8.13272 48.585 8.23105 48.765 8.34772C48.945 8.46438 49.11 8.59272 49.26 8.73272L48.875 9.34272C48.815 9.43938 48.7367 9.49938 48.64 9.52272C48.5433 9.54272 48.4383 9.51772 48.325 9.44772C48.215 9.38438 48.105 9.32105 47.995 9.25772C47.885 9.19438 47.7617 9.13938 47.625 9.09272C47.4917 9.04605 47.34 9.00772 47.17 8.97772C47.0033 8.94772 46.81 8.93272 46.59 8.93272C46.2333 8.93272 45.91 8.99272 45.62 9.11272C45.3333 9.23272 45.0883 9.40438 44.885 9.62772C44.6817 9.85105 44.525 10.1194 44.415 10.4327C44.305 10.7461 44.25 11.0961 44.25 11.4827C44.25 11.8961 44.3083 12.2661 44.425 12.5927C44.545 12.9161 44.7117 13.1911 44.925 13.4177C45.1417 13.6411 45.4017 13.8127 45.705 13.9327C46.0083 14.0494 46.3467 14.1077 46.72 14.1077C46.9867 14.1077 47.225 14.0794 47.435 14.0227C47.645 13.9661 47.85 13.8894 48.05 13.7927V12.4827H47.14C47.0533 12.4827 46.985 12.4594 46.935 12.4127C46.8883 12.3627 46.865 12.3027 46.865 12.2327V11.4727H49.265ZM51.4527 10.8577C51.6127 10.5511 51.8027 10.3111 52.0227 10.1377C52.2427 9.96105 52.5027 9.87272 52.8027 9.87272C53.0394 9.87272 53.2294 9.92438 53.3727 10.0277L53.2927 10.9527C53.2761 11.0127 53.2511 11.0561 53.2177 11.0827C53.1877 11.1061 53.1461 11.1177 53.0927 11.1177C53.0427 11.1177 52.9677 11.1094 52.8677 11.0927C52.7711 11.0761 52.6761 11.0677 52.5827 11.0677C52.4461 11.0677 52.3244 11.0877 52.2177 11.1277C52.1111 11.1677 52.0144 11.2261 51.9277 11.3027C51.8444 11.3761 51.7694 11.4661 51.7027 11.5727C51.6394 11.6794 51.5794 11.8011 51.5227 11.9377V15.0977H50.2877V9.96772H51.0127C51.1394 9.96772 51.2277 9.99105 51.2777 10.0377C51.3277 10.0811 51.3611 10.1611 51.3777 10.2777L51.4527 10.8577ZM56.1417 9.88772C56.5217 9.88772 56.8667 9.94938 57.1767 10.0727C57.4901 10.1961 57.7567 10.3711 57.9767 10.5977C58.2001 10.8244 58.3717 11.1011 58.4917 11.4277C58.6117 11.7544 58.6717 12.1194 58.6717 12.5227C58.6717 12.9294 58.6117 13.2961 58.4917 13.6227C58.3717 13.9494 58.2001 14.2277 57.9767 14.4577C57.7567 14.6877 57.4901 14.8644 57.1767 14.9877C56.8667 15.1111 56.5217 15.1727 56.1417 15.1727C55.7584 15.1727 55.4101 15.1111 55.0967 14.9877C54.7834 14.8644 54.5151 14.6877 54.2917 14.4577C54.0717 14.2277 53.9001 13.9494 53.7767 13.6227C53.6567 13.2961 53.5967 12.9294 53.5967 12.5227C53.5967 12.1194 53.6567 11.7544 53.7767 11.4277C53.9001 11.1011 54.0717 10.8244 54.2917 10.5977C54.5151 10.3711 54.7834 10.1961 55.0967 10.0727C55.4101 9.94938 55.7584 9.88772 56.1417 9.88772ZM56.1417 14.2227C56.5684 14.2227 56.8834 14.0794 57.0867 13.7927C57.2934 13.5061 57.3967 13.0861 57.3967 12.5327C57.3967 11.9794 57.2934 11.5577 57.0867 11.2677C56.8834 10.9777 56.5684 10.8327 56.1417 10.8327C55.7084 10.8327 55.3867 10.9794 55.1767 11.2727C54.9701 11.5627 54.8667 11.9827 54.8667 12.5327C54.8667 13.0827 54.9701 13.5027 55.1767 13.7927C55.3867 14.0794 55.7084 14.2227 56.1417 14.2227ZM62.7439 10.9677C62.7106 11.0211 62.6756 11.0594 62.6389 11.0827C62.6022 11.1027 62.5556 11.1127 62.4989 11.1127C62.4389 11.1127 62.3739 11.0961 62.3039 11.0627C62.2372 11.0294 62.1589 10.9927 62.0689 10.9527C61.9789 10.9094 61.8756 10.8711 61.7589 10.8377C61.6456 10.8044 61.5106 10.7877 61.3539 10.7877C61.1106 10.7877 60.9189 10.8394 60.7789 10.9427C60.6422 11.0461 60.5739 11.1811 60.5739 11.3477C60.5739 11.4577 60.6089 11.5511 60.6789 11.6277C60.7522 11.7011 60.8472 11.7661 60.9639 11.8227C61.0839 11.8794 61.2189 11.9311 61.3689 11.9777C61.5189 12.0211 61.6706 12.0694 61.8239 12.1227C61.9806 12.1761 62.1339 12.2377 62.2839 12.3077C62.4339 12.3744 62.5672 12.4611 62.6839 12.5677C62.8039 12.6711 62.8989 12.7961 62.9689 12.9427C63.0422 13.0894 63.0789 13.2661 63.0789 13.4727C63.0789 13.7194 63.0339 13.9477 62.9439 14.1577C62.8572 14.3644 62.7272 14.5444 62.5539 14.6977C62.3806 14.8477 62.1656 14.9661 61.9089 15.0527C61.6556 15.1361 61.3622 15.1777 61.0289 15.1777C60.8522 15.1777 60.6789 15.1611 60.5089 15.1277C60.3422 15.0977 60.1806 15.0544 60.0239 14.9977C59.8706 14.9411 59.7272 14.8744 59.5939 14.7977C59.4639 14.7211 59.3489 14.6377 59.2489 14.5477L59.5339 14.0777C59.5706 14.0211 59.6139 13.9777 59.6639 13.9477C59.7139 13.9177 59.7772 13.9027 59.8539 13.9027C59.9306 13.9027 60.0022 13.9244 60.0689 13.9677C60.1389 14.0111 60.2189 14.0577 60.3089 14.1077C60.3989 14.1577 60.5039 14.2044 60.6239 14.2477C60.7472 14.2911 60.9022 14.3127 61.0889 14.3127C61.2356 14.3127 61.3606 14.2961 61.4639 14.2627C61.5706 14.2261 61.6572 14.1794 61.7239 14.1227C61.7939 14.0661 61.8439 14.0011 61.8739 13.9277C61.9072 13.8511 61.9239 13.7727 61.9239 13.6927C61.9239 13.5727 61.8872 13.4744 61.8139 13.3977C61.7439 13.3211 61.6489 13.2544 61.5289 13.1977C61.4122 13.1411 61.2772 13.0911 61.1239 13.0477C60.9739 13.0011 60.8189 12.9511 60.6589 12.8977C60.5022 12.8444 60.3472 12.7827 60.1939 12.7127C60.0439 12.6394 59.9089 12.5477 59.7889 12.4377C59.6722 12.3277 59.5772 12.1927 59.5039 12.0327C59.4339 11.8727 59.3989 11.6794 59.3989 11.4527C59.3989 11.2427 59.4406 11.0427 59.5239 10.8527C59.6072 10.6627 59.7289 10.4977 59.8889 10.3577C60.0522 10.2144 60.2539 10.1011 60.4939 10.0177C60.7372 9.93105 61.0172 9.88772 61.3339 9.88772C61.6872 9.88772 62.0089 9.94605 62.2989 10.0627C62.5889 10.1794 62.8306 10.3327 63.0239 10.5227L62.7439 10.9677ZM67.1384 10.9677C67.1051 11.0211 67.0701 11.0594 67.0334 11.0827C66.9968 11.1027 66.9501 11.1127 66.8934 11.1127C66.8334 11.1127 66.7684 11.0961 66.6984 11.0627C66.6318 11.0294 66.5534 10.9927 66.4634 10.9527C66.3734 10.9094 66.2701 10.8711 66.1534 10.8377C66.0401 10.8044 65.9051 10.7877 65.7484 10.7877C65.5051 10.7877 65.3134 10.8394 65.1734 10.9427C65.0368 11.0461 64.9684 11.1811 64.9684 11.3477C64.9684 11.4577 65.0034 11.5511 65.0734 11.6277C65.1468 11.7011 65.2418 11.7661 65.3584 11.8227C65.4784 11.8794 65.6134 11.9311 65.7634 11.9777C65.9134 12.0211 66.0651 12.0694 66.2184 12.1227C66.3751 12.1761 66.5284 12.2377 66.6784 12.3077C66.8284 12.3744 66.9618 12.4611 67.0784 12.5677C67.1984 12.6711 67.2934 12.7961 67.3634 12.9427C67.4368 13.0894 67.4734 13.2661 67.4734 13.4727C67.4734 13.7194 67.4284 13.9477 67.3384 14.1577C67.2518 14.3644 67.1218 14.5444 66.9484 14.6977C66.7751 14.8477 66.5601 14.9661 66.3034 15.0527C66.0501 15.1361 65.7568 15.1777 65.4234 15.1777C65.2468 15.1777 65.0734 15.1611 64.9034 15.1277C64.7368 15.0977 64.5751 15.0544 64.4184 14.9977C64.2651 14.9411 64.1218 14.8744 63.9884 14.7977C63.8584 14.7211 63.7434 14.6377 63.6434 14.5477L63.9284 14.0777C63.9651 14.0211 64.0084 13.9777 64.0584 13.9477C64.1084 13.9177 64.1718 13.9027 64.2484 13.9027C64.3251 13.9027 64.3968 13.9244 64.4634 13.9677C64.5334 14.0111 64.6134 14.0577 64.7034 14.1077C64.7934 14.1577 64.8984 14.2044 65.0184 14.2477C65.1418 14.2911 65.2968 14.3127 65.4834 14.3127C65.6301 14.3127 65.7551 14.2961 65.8584 14.2627C65.9651 14.2261 66.0518 14.1794 66.1184 14.1227C66.1884 14.0661 66.2384 14.0011 66.2684 13.9277C66.3018 13.8511 66.3184 13.7727 66.3184 13.6927C66.3184 13.5727 66.2818 13.4744 66.2084 13.3977C66.1384 13.3211 66.0434 13.2544 65.9234 13.1977C65.8068 13.1411 65.6718 13.0911 65.5184 13.0477C65.3684 13.0011 65.2134 12.9511 65.0534 12.8977C64.8968 12.8444 64.7418 12.7827 64.5884 12.7127C64.4384 12.6394 64.3034 12.5477 64.1834 12.4377C64.0668 12.3277 63.9718 12.1927 63.8984 12.0327C63.8284 11.8727 63.7934 11.6794 63.7934 11.4527C63.7934 11.2427 63.8351 11.0427 63.9184 10.8527C64.0018 10.6627 64.1234 10.4977 64.2834 10.3577C64.4468 10.2144 64.6484 10.1011 64.8884 10.0177C65.1318 9.93105 65.4118 9.88772 65.7284 9.88772C66.0818 9.88772 66.4034 9.94605 66.6934 10.0627C66.9834 10.1794 67.2251 10.3327 67.4184 10.5227L67.1384 10.9677ZM80.5813 7.86772L78.3363 15.0977H77.1213L75.5413 10.1577C75.4979 10.0377 75.4579 9.89105 75.4213 9.71772C75.4013 9.80105 75.3813 9.87938 75.3613 9.95272C75.3413 10.0261 75.3196 10.0944 75.2962 10.1577L73.7013 15.0977H72.4813L70.2413 7.86772H71.3663C71.4829 7.86772 71.5796 7.89605 71.6563 7.95272C71.7363 8.00605 71.7896 8.07938 71.8163 8.17272L73.0463 12.4977C73.0729 12.6044 73.0979 12.7211 73.1213 12.8477C73.1479 12.9711 73.1746 13.1011 73.2013 13.2377C73.2279 13.0977 73.2563 12.9661 73.2863 12.8427C73.3196 12.7194 73.3546 12.6044 73.3913 12.4977L74.8113 8.17272C74.8379 8.09605 74.8896 8.02605 74.9663 7.96272C75.0463 7.89938 75.1429 7.86772 75.2563 7.86772H75.6513C75.7679 7.86772 75.8629 7.89605 75.9363 7.95272C76.0096 8.00938 76.0646 8.08272 76.1013 8.17272L77.5163 12.4977C77.5863 12.7044 77.6496 12.9427 77.7063 13.2127C77.7496 12.9494 77.7979 12.7111 77.8513 12.4977L79.0813 8.17272C79.1013 8.08938 79.1513 8.01772 79.2313 7.95772C79.3146 7.89772 79.4129 7.86772 79.5263 7.86772H80.5813ZM83.9736 11.9427C83.9736 11.7827 83.9503 11.6327 83.9036 11.4927C83.8603 11.3494 83.7936 11.2244 83.7036 11.1177C83.6136 11.0111 83.4986 10.9277 83.3586 10.8677C83.2219 10.8044 83.0619 10.7727 82.8786 10.7727C82.5219 10.7727 82.2403 10.8744 82.0336 11.0777C81.8303 11.2811 81.7003 11.5694 81.6436 11.9427H83.9736ZM81.6186 12.6877C81.6386 12.9511 81.6853 13.1794 81.7586 13.3727C81.8319 13.5627 81.9286 13.7211 82.0486 13.8477C82.1686 13.9711 82.3103 14.0644 82.4736 14.1277C82.6403 14.1877 82.8236 14.2177 83.0236 14.2177C83.2236 14.2177 83.3953 14.1944 83.5386 14.1477C83.6853 14.1011 83.8119 14.0494 83.9186 13.9927C84.0286 13.9361 84.1236 13.8844 84.2036 13.8377C84.2869 13.7911 84.3669 13.7677 84.4436 13.7677C84.5469 13.7677 84.6236 13.8061 84.6736 13.8827L85.0286 14.3327C84.8919 14.4927 84.7386 14.6277 84.5686 14.7377C84.3986 14.8444 84.2203 14.9311 84.0336 14.9977C83.8503 15.0611 83.6619 15.1061 83.4686 15.1327C83.2786 15.1594 83.0936 15.1727 82.9136 15.1727C82.5569 15.1727 82.2253 15.1144 81.9186 14.9977C81.6119 14.8777 81.3453 14.7027 81.1186 14.4727C80.8919 14.2394 80.7136 13.9527 80.5836 13.6127C80.4536 13.2694 80.3886 12.8727 80.3886 12.4227C80.3886 12.0727 80.4453 11.7444 80.5586 11.4377C80.6719 11.1277 80.8336 10.8594 81.0436 10.6327C81.2569 10.4027 81.5153 10.2211 81.8186 10.0877C82.1253 9.95438 82.4703 9.88772 82.8536 9.88772C83.1769 9.88772 83.4753 9.93938 83.7486 10.0427C84.0219 10.1461 84.2569 10.2977 84.4536 10.4977C84.6503 10.6944 84.8036 10.9377 84.9136 11.2277C85.0269 11.5144 85.0836 11.8427 85.0836 12.2127C85.0836 12.3994 85.0636 12.5261 85.0236 12.5927C84.9836 12.6561 84.9069 12.6877 84.7936 12.6877H81.6186ZM87.2904 9.96772V15.0977H86.0504V9.96772H87.2904ZM87.4604 8.47272C87.4604 8.57938 87.4387 8.67938 87.3954 8.77272C87.3521 8.86605 87.2937 8.94772 87.2204 9.01772C87.1504 9.08772 87.0671 9.14438 86.9704 9.18772C86.8737 9.22772 86.7704 9.24772 86.6604 9.24772C86.5537 9.24772 86.4521 9.22772 86.3554 9.18772C86.2621 9.14438 86.1804 9.08772 86.1104 9.01772C86.0404 8.94772 85.9837 8.86605 85.9404 8.77272C85.9004 8.67938 85.8804 8.57938 85.8804 8.47272C85.8804 8.36272 85.9004 8.25938 85.9404 8.16272C85.9837 8.06605 86.0404 7.98272 86.1104 7.91272C86.1804 7.84272 86.2621 7.78772 86.3554 7.74772C86.4521 7.70438 86.5537 7.68272 86.6604 7.68272C86.7704 7.68272 86.8737 7.70438 86.9704 7.74772C87.0671 7.78772 87.1504 7.84272 87.2204 7.91272C87.2937 7.98272 87.3521 8.06605 87.3954 8.16272C87.4387 8.25938 87.4604 8.36272 87.4604 8.47272ZM90.4245 12.4077C90.5778 12.4077 90.7111 12.3877 90.8245 12.3477C90.9378 12.3044 91.0311 12.2461 91.1045 12.1727C91.1811 12.0994 91.2378 12.0111 91.2745 11.9077C91.3145 11.8044 91.3345 11.6911 91.3345 11.5677C91.3345 11.3144 91.2578 11.1144 91.1045 10.9677C90.9545 10.8177 90.7278 10.7427 90.4245 10.7427C90.1211 10.7427 89.8928 10.8177 89.7395 10.9677C89.5895 11.1144 89.5145 11.3144 89.5145 11.5677C89.5145 11.6877 89.5328 11.7994 89.5695 11.9027C89.6095 12.0061 89.6661 12.0961 89.7395 12.1727C89.8161 12.2461 89.9111 12.3044 90.0245 12.3477C90.1411 12.3877 90.2745 12.4077 90.4245 12.4077ZM91.8195 15.3277C91.8195 15.2277 91.7895 15.1461 91.7295 15.0827C91.6695 15.0194 91.5878 14.9711 91.4845 14.9377C91.3811 14.9011 91.2595 14.8744 91.1195 14.8577C90.9828 14.8411 90.8361 14.8294 90.6795 14.8227C90.5261 14.8127 90.3661 14.8044 90.1995 14.7977C90.0361 14.7911 89.8761 14.7777 89.7195 14.7577C89.5828 14.8344 89.4711 14.9244 89.3845 15.0277C89.3011 15.1311 89.2595 15.2511 89.2595 15.3877C89.2595 15.4777 89.2811 15.5611 89.3245 15.6377C89.3711 15.7177 89.4428 15.7861 89.5395 15.8427C89.6395 15.8994 89.7678 15.9427 89.9245 15.9727C90.0811 16.0061 90.2728 16.0227 90.4995 16.0227C90.7295 16.0227 90.9278 16.0044 91.0945 15.9677C91.2611 15.9344 91.3978 15.8861 91.5045 15.8227C91.6145 15.7627 91.6945 15.6894 91.7445 15.6027C91.7945 15.5194 91.8195 15.4277 91.8195 15.3277ZM93.0495 10.1427V10.6027C93.0495 10.7494 92.9611 10.8394 92.7845 10.8727L92.3245 10.9577C92.3945 11.1344 92.4295 11.3277 92.4295 11.5377C92.4295 11.7911 92.3778 12.0211 92.2745 12.2277C92.1745 12.4311 92.0345 12.6044 91.8545 12.7477C91.6745 12.8911 91.4611 13.0027 91.2145 13.0827C90.9711 13.1594 90.7078 13.1977 90.4245 13.1977C90.3245 13.1977 90.2278 13.1927 90.1345 13.1827C90.0411 13.1727 89.9495 13.1594 89.8595 13.1427C89.6995 13.2394 89.6195 13.3477 89.6195 13.4677C89.6195 13.5711 89.6661 13.6477 89.7595 13.6977C89.8561 13.7444 89.9828 13.7777 90.1395 13.7977C90.2961 13.8177 90.4745 13.8311 90.6745 13.8377C90.8745 13.8411 91.0795 13.8511 91.2895 13.8677C91.4995 13.8844 91.7045 13.9144 91.9045 13.9577C92.1045 13.9977 92.2828 14.0627 92.4395 14.1527C92.5961 14.2427 92.7211 14.3661 92.8145 14.5227C92.9111 14.6761 92.9595 14.8744 92.9595 15.1177C92.9595 15.3444 92.9028 15.5644 92.7895 15.7777C92.6795 15.9911 92.5178 16.1811 92.3045 16.3477C92.0945 16.5144 91.8345 16.6477 91.5245 16.7477C91.2178 16.8511 90.8678 16.9027 90.4745 16.9027C90.0878 16.9027 89.7511 16.8644 89.4645 16.7877C89.1778 16.7144 88.9395 16.6144 88.7495 16.4877C88.5595 16.3644 88.4178 16.2211 88.3245 16.0577C88.2311 15.8944 88.1845 15.7244 88.1845 15.5477C88.1845 15.3077 88.2561 15.1077 88.3995 14.9477C88.5461 14.7844 88.7461 14.6544 88.9995 14.5577C88.8628 14.4877 88.7545 14.3944 88.6745 14.2777C88.5945 14.1611 88.5545 14.0077 88.5545 13.8177C88.5545 13.7411 88.5678 13.6627 88.5945 13.5827C88.6245 13.4994 88.6661 13.4177 88.7195 13.3377C88.7761 13.2577 88.8461 13.1827 88.9295 13.1127C89.0128 13.0394 89.1111 12.9744 89.2245 12.9177C88.9645 12.7777 88.7595 12.5911 88.6095 12.3577C88.4628 12.1244 88.3895 11.8511 88.3895 11.5377C88.3895 11.2844 88.4395 11.0561 88.5395 10.8527C88.6428 10.6461 88.7845 10.4711 88.9645 10.3277C89.1478 10.1811 89.3628 10.0694 89.6095 9.99272C89.8595 9.91605 90.1311 9.87772 90.4245 9.87772C90.6445 9.87772 90.8511 9.90105 91.0445 9.94772C91.2378 9.99105 91.4145 10.0561 91.5745 10.1427H93.0495ZM95.0677 10.5177C95.2677 10.3311 95.4877 10.1794 95.7277 10.0627C95.9677 9.94605 96.2493 9.88772 96.5727 9.88772C96.8527 9.88772 97.101 9.93605 97.3177 10.0327C97.5343 10.1261 97.7143 10.2594 97.8577 10.4327C98.0043 10.6027 98.1143 10.8077 98.1877 11.0477C98.2643 11.2844 98.3027 11.5461 98.3027 11.8327V15.0977H97.0677V11.8327C97.0677 11.5194 96.996 11.2777 96.8527 11.1077C96.7093 10.9344 96.491 10.8477 96.1977 10.8477C95.9843 10.8477 95.7843 10.8961 95.5977 10.9927C95.411 11.0894 95.2343 11.2211 95.0677 11.3877V15.0977H93.8327V7.66772H95.0677V10.5177ZM101.119 15.1777C100.672 15.1777 100.329 15.0527 100.089 14.8027C99.8522 14.5494 99.7338 14.2011 99.7338 13.7577V10.8927H99.2088C99.1422 10.8927 99.0855 10.8711 99.0388 10.8277C98.9922 10.7844 98.9688 10.7194 98.9688 10.6327V10.1427L99.7938 10.0077L100.054 8.60772C100.07 8.54105 100.102 8.48938 100.149 8.45272C100.195 8.41605 100.255 8.39772 100.329 8.39772H100.969V10.0127H102.339V10.8927H100.969V13.6727C100.969 13.8327 101.007 13.9577 101.084 14.0477C101.164 14.1377 101.272 14.1827 101.409 14.1827C101.485 14.1827 101.549 14.1744 101.599 14.1577C101.652 14.1377 101.697 14.1177 101.734 14.0977C101.774 14.0777 101.809 14.0594 101.839 14.0427C101.869 14.0227 101.899 14.0127 101.929 14.0127C101.965 14.0127 101.995 14.0227 102.019 14.0427C102.042 14.0594 102.067 14.0861 102.094 14.1227L102.464 14.7227C102.284 14.8727 102.077 14.9861 101.844 15.0627C101.61 15.1394 101.369 15.1777 101.119 15.1777Z" fill="white"/>
<path d="M42.908 27.8182C43.5853 27.2742 44.116 26.8289 44.5 26.4822C44.884 26.1302 45.2067 25.7649 45.468 25.3862C45.7347 25.0022 45.868 24.6262 45.868 24.2582C45.868 23.9116 45.7827 23.6396 45.612 23.4422C45.4467 23.2396 45.1773 23.1382 44.804 23.1382C44.4413 23.1382 44.1587 23.2529 43.956 23.4822C43.7587 23.7062 43.652 24.0076 43.636 24.3862H42.932C42.9533 23.7889 43.1347 23.3276 43.476 23.0022C43.8173 22.6769 44.2573 22.5142 44.796 22.5142C45.3453 22.5142 45.78 22.6662 46.1 22.9702C46.4253 23.2742 46.588 23.6929 46.588 24.2262C46.588 24.6689 46.4547 25.1009 46.188 25.5222C45.9267 25.9382 45.628 26.3062 45.292 26.6262C44.956 26.9409 44.5267 27.3089 44.004 27.7302H46.756V28.3382H42.908V27.8182ZM47.4056 23.2822V22.6182H48.9096V28.4022H48.1736V23.2822H47.4056ZM50.5121 28.4502C50.3734 28.4502 50.2561 28.4022 50.1601 28.3062C50.0641 28.2102 50.0161 28.0929 50.0161 27.9542C50.0161 27.8156 50.0641 27.6982 50.1601 27.6022C50.2561 27.5062 50.3734 27.4582 50.5121 27.4582C50.6454 27.4582 50.7574 27.5062 50.8481 27.6022C50.9441 27.6982 50.9921 27.8156 50.9921 27.9542C50.9921 28.0929 50.9441 28.2102 50.8481 28.3062C50.7574 28.4022 50.6454 28.4502 50.5121 28.4502ZM55.3998 23.1862L53.1758 28.4022H52.4398L54.6958 23.2582H51.6077V22.6342H55.3998V23.1862ZM57.1429 26.8502C57.1963 27.1542 57.3189 27.3889 57.5109 27.5542C57.7083 27.7196 57.9723 27.8022 58.3029 27.8022C58.7456 27.8022 59.0709 27.6289 59.2789 27.2822C59.4923 26.9356 59.5936 26.3516 59.5829 25.5302C59.4709 25.7702 59.2843 25.9596 59.0229 26.0982C58.7616 26.2316 58.4709 26.2982 58.1509 26.2982C57.7936 26.2982 57.4736 26.2262 57.1909 26.0822C56.9136 25.9329 56.6949 25.7169 56.5349 25.4342C56.3749 25.1516 56.2949 24.8102 56.2949 24.4102C56.2949 23.8396 56.4603 23.3809 56.7909 23.0342C57.1216 22.6822 57.5909 22.5062 58.1989 22.5062C58.9456 22.5062 59.4683 22.7489 59.7669 23.2342C60.0709 23.7196 60.2229 24.4422 60.2229 25.4022C60.2229 26.0742 60.1616 26.6289 60.0389 27.0662C59.9216 27.5036 59.7189 27.8369 59.4309 28.0662C59.1483 28.2956 58.7589 28.4102 58.2629 28.4102C57.7189 28.4102 57.2949 28.2636 56.9909 27.9702C56.6869 27.6769 56.5136 27.3036 56.4709 26.8502H57.1429ZM58.2709 25.6822C58.6283 25.6822 58.9216 25.5729 59.1509 25.3542C59.3803 25.1302 59.4949 24.8289 59.4949 24.4502C59.4949 24.0502 59.3829 23.7276 59.1589 23.4822C58.9349 23.2369 58.6203 23.1142 58.2149 23.1142C57.8416 23.1142 57.5429 23.2316 57.3189 23.4662C57.1003 23.7009 56.9909 24.0102 56.9909 24.3942C56.9909 24.7836 57.1003 25.0956 57.3189 25.3302C57.5376 25.5649 57.8549 25.6822 58.2709 25.6822ZM61.246 25.4502C61.246 24.5329 61.3953 23.8182 61.694 23.3062C61.9927 22.7889 62.5153 22.5302 63.262 22.5302C64.0033 22.5302 64.5233 22.7889 64.822 23.3062C65.1207 23.8182 65.27 24.5329 65.27 25.4502C65.27 26.3836 65.1207 27.1089 64.822 27.6262C64.5233 28.1436 64.0033 28.4022 63.262 28.4022C62.5153 28.4022 61.9927 28.1436 61.694 27.6262C61.3953 27.1089 61.246 26.3836 61.246 25.4502ZM64.55 25.4502C64.55 24.9862 64.518 24.5942 64.454 24.2742C64.3953 23.9489 64.27 23.6876 64.078 23.4902C63.8913 23.2929 63.6193 23.1942 63.262 23.1942C62.8993 23.1942 62.622 23.2929 62.43 23.4902C62.2433 23.6876 62.118 23.9489 62.054 24.2742C61.9953 24.5942 61.966 24.9862 61.966 25.4502C61.966 25.9302 61.9953 26.3329 62.054 26.6582C62.118 26.9836 62.2433 27.2449 62.43 27.4422C62.622 27.6396 62.8993 27.7382 63.262 27.7382C63.6193 27.7382 63.8913 27.6396 64.078 27.4422C64.27 27.2449 64.3953 26.9836 64.454 26.6582C64.518 26.3329 64.55 25.9302 64.55 25.4502ZM70.9703 28.4022L69.2503 26.4662V28.4022H68.5223V22.4822H69.2503V25.9622L70.9383 24.0182H71.9543L69.8903 26.2022L71.9623 28.4022H70.9703ZM74.4474 23.9462C74.8261 23.9462 75.1568 24.0289 75.4394 24.1942C75.7274 24.3596 75.9408 24.5676 76.0794 24.8182V24.0182H76.8154V28.4982C76.8154 28.8982 76.7301 29.2529 76.5594 29.5622C76.3888 29.8769 76.1434 30.1222 75.8234 30.2982C75.5088 30.4742 75.1408 30.5622 74.7194 30.5622C74.1434 30.5622 73.6634 30.4262 73.2794 30.1542C72.8954 29.8822 72.6688 29.5116 72.5994 29.0422H73.3194C73.3994 29.3089 73.5648 29.5222 73.8154 29.6822C74.0661 29.8476 74.3674 29.9302 74.7194 29.9302C75.1194 29.9302 75.4448 29.8049 75.6954 29.5542C75.9514 29.3036 76.0794 28.9516 76.0794 28.4982V27.5782C75.9354 27.8342 75.7221 28.0476 75.4394 28.2182C75.1568 28.3889 74.8261 28.4742 74.4474 28.4742C74.0581 28.4742 73.7034 28.3782 73.3834 28.1862C73.0688 27.9942 72.8208 27.7249 72.6394 27.3782C72.4581 27.0316 72.3674 26.6369 72.3674 26.1942C72.3674 25.7462 72.4581 25.3542 72.6394 25.0182C72.8208 24.6769 73.0688 24.4129 73.3834 24.2262C73.7034 24.0396 74.0581 23.9462 74.4474 23.9462ZM76.0794 26.2022C76.0794 25.8716 76.0128 25.5836 75.8794 25.3382C75.7461 25.0929 75.5648 24.9062 75.3354 24.7782C75.1114 24.6449 74.8634 24.5782 74.5914 24.5782C74.3194 24.5782 74.0714 24.6422 73.8474 24.7702C73.6234 24.8982 73.4448 25.0849 73.3114 25.3302C73.1781 25.5756 73.1114 25.8636 73.1114 26.1942C73.1114 26.5302 73.1781 26.8236 73.3114 27.0742C73.4448 27.3196 73.6234 27.5089 73.8474 27.6422C74.0714 27.7702 74.3194 27.8342 74.5914 27.8342C74.8634 27.8342 75.1114 27.7702 75.3354 27.6422C75.5648 27.5089 75.7461 27.3196 75.8794 27.0742C76.0128 26.8236 76.0794 26.5329 76.0794 26.2022Z" fill="white"/>
<defs>
<clipPath id="clip0_765_4213">
<rect width="18" height="17" fill="white" transform="translate(9.25 9.75)"/>
</clipPath>
</defs>
</svg>
