<svg width="82" height="32" viewBox="0 0 82 32" fill="none" xmlns="http://www.w3.org/2000/svg">
<path d="M20.6523 8.43119C20.6523 5.98391 22.6363 4 25.0835 4H77.2212C79.6684 4 81.6523 5.98391 81.6523 8.43119V22.5688C81.6523 25.0161 79.6684 27 77.2212 27H25.0835C22.6363 27 20.6523 25.0161 20.6523 22.5688V8.43119Z" fill="#945FDF"/>
<circle cx="15.8257" cy="15.8257" r="15.8257" fill="white"/>
<circle cx="15.8248" cy="15.5084" r="13.2936" fill="#945FDF"/>
<path d="M38.2844 20L38.2844 12.7273L41.1538 12.7273C41.7054 12.7273 42.1753 12.8326 42.5636 13.0433C42.9518 13.2517 43.2478 13.5417 43.4513 13.9134C43.6573 14.2827 43.7603 14.7088 43.7603 15.1918C43.7603 15.6747 43.6561 16.1009 43.4478 16.4702C43.2395 16.8395 42.9376 17.1271 42.5423 17.3331C42.1493 17.5391 41.6734 17.642 41.1147 17.642L39.2859 17.642L39.2859 16.4098L40.8661 16.4098C41.1621 16.4098 41.4059 16.3589 41.5977 16.2571C41.7918 16.1529 41.9362 16.0097 42.0309 15.8274C42.128 15.6428 42.1765 15.4309 42.1765 15.1918C42.1765 14.9503 42.128 14.7396 42.0309 14.5597C41.9362 14.3774 41.7918 14.2365 41.5977 14.1371C41.4035 14.0353 41.1573 13.9844 40.859 13.9844L39.8221 13.9844L39.8221 20L38.2844 20ZM44.2306 20L44.2306 14.5455L45.6973 14.5455L45.6973 15.4972L45.7541 15.4972C45.8535 15.1586 46.0204 14.9029 46.2548 14.7301C46.4892 14.5549 46.7591 14.4673 47.0645 14.4673C47.1402 14.4673 47.2219 14.4721 47.3095 14.4815C47.3971 14.491 47.474 14.504 47.5403 14.5206L47.5403 15.8629C47.4693 15.8416 47.371 15.8227 47.2456 15.8061C47.1201 15.7895 47.0053 15.7812 46.9011 15.7812C46.6786 15.7812 46.4797 15.8298 46.3045 15.9268C46.1317 16.0215 45.9944 16.1541 45.8926 16.3246C45.7931 16.495 45.7434 16.6915 45.7434 16.9141L45.7434 20L44.2306 20ZM50.0543 20.1065C49.4933 20.1065 49.0103 19.9929 48.6055 19.7656C48.203 19.536 47.8929 19.2116 47.6751 18.7926C47.4573 18.3712 47.3484 17.8729 47.3484 17.2976C47.3484 16.7365 47.4573 16.2441 47.6751 15.8203C47.8929 15.3965 48.1995 15.0663 48.5948 14.8295C48.9925 14.5928 49.4589 14.4744 49.994 14.4744C50.3538 14.4744 50.6888 14.5324 50.9989 14.6484C51.3114 14.7621 51.5837 14.9337 51.8157 15.1634C52.0501 15.393 52.2324 15.6818 52.3626 16.0298C52.4928 16.3755 52.5579 16.7803 52.5579 17.2443L52.5579 17.6598L47.9521 17.6598L47.9521 16.7223L51.1339 16.7223C51.1339 16.5045 51.0865 16.3116 50.9918 16.1435C50.8971 15.9754 50.7657 15.844 50.5977 15.7493C50.4319 15.6522 50.239 15.6037 50.0188 15.6037C49.7892 15.6037 49.5856 15.657 49.408 15.7635C49.2328 15.8677 49.0955 16.0085 48.9961 16.1861C48.8967 16.3613 48.8458 16.5566 48.8434 16.772L48.8434 17.6634C48.8434 17.9332 48.8931 18.1664 48.9925 18.3629C49.0943 18.5594 49.2376 18.7109 49.4222 18.8175C49.6069 18.924 49.8259 18.9773 50.0792 18.9773C50.2473 18.9773 50.4012 18.9536 50.5408 18.9062C50.6805 18.8589 50.8001 18.7879 50.8995 18.6932C50.9989 18.5985 51.0747 18.4825 51.1268 18.3452L52.5259 18.4375C52.4549 18.7737 52.3093 19.0672 52.0891 19.3182C51.8713 19.5668 51.5896 19.7609 51.244 19.9006C50.9007 20.0379 50.5041 20.1065 50.0543 20.1065ZM57.9838 14.5455L56.0769 20L54.3723 20L52.4654 14.5455L54.0634 14.5455L55.1962 18.4482L55.253 18.4482L56.3823 14.5455L57.9838 14.5455ZM58.258 20L58.258 14.5455L59.7708 14.5455L59.7708 20L58.258 20ZM59.0179 13.8423C58.793 13.8423 58.6001 13.7678 58.4391 13.6186C58.2805 13.4671 58.2012 13.286 58.2012 13.0753C58.2012 12.867 58.2805 12.6882 58.4391 12.5391C58.6001 12.3875 58.793 12.3118 59.0179 12.3118C59.2428 12.3118 59.4346 12.3875 59.5932 12.5391C59.7542 12.6882 59.8347 12.867 59.8347 13.0753C59.8347 13.286 59.7542 13.4671 59.5932 13.6186C59.4346 13.7678 59.2428 13.8423 59.0179 13.8423ZM62.9684 20.1065C62.4073 20.1065 61.9244 19.9929 61.5195 19.7656C61.1171 19.536 60.8069 19.2116 60.5891 18.7926C60.3713 18.3712 60.2624 17.8729 60.2624 17.2976C60.2624 16.7365 60.3713 16.2441 60.5891 15.8203C60.8069 15.3965 61.1135 15.0663 61.5089 14.8295C61.9066 14.5928 62.373 14.4744 62.908 14.4744C63.2679 14.4744 63.6029 14.5324 63.913 14.6484C64.2255 14.7621 64.4978 14.9337 64.7298 15.1634C64.9641 15.393 65.1464 15.6818 65.2766 16.0298C65.4068 16.3755 65.4719 16.7803 65.4719 17.2443L65.4719 17.6598L60.8661 17.6598L60.8661 16.7223L64.0479 16.7223C64.0479 16.5045 64.0006 16.3116 63.9059 16.1435C63.8112 15.9754 63.6798 15.844 63.5117 15.7493C63.346 15.6522 63.1531 15.6037 62.9329 15.6037C62.7032 15.6037 62.4996 15.657 62.3221 15.7635C62.1469 15.8677 62.0096 16.0085 61.9102 16.1861C61.8107 16.3613 61.7598 16.5566 61.7575 16.772L61.7575 17.6634C61.7575 17.9332 61.8072 18.1664 61.9066 18.3629C62.0084 18.5594 62.1516 18.7109 62.3363 18.8175C62.521 18.924 62.7399 18.9773 62.9933 18.9773C63.1613 18.9773 63.3152 18.9536 63.4549 18.9062C63.5946 18.8589 63.7141 18.7879 63.8136 18.6932C63.913 18.5985 63.9888 18.4825 64.0408 18.3452L65.44 18.4375C65.369 18.7737 65.2234 19.0672 65.0032 19.3182C64.7854 19.5668 64.5037 19.7609 64.158 19.9006C63.8147 20.0379 63.4182 20.1065 62.9684 20.1065ZM66.9961 20L65.5117 14.5455L67.0423 14.5455L67.8874 18.2102L67.9371 18.2102L68.8178 14.5455L70.32 14.5455L71.2148 18.1889L71.261 18.1889L72.092 14.5455L73.619 14.5455L72.1381 20L70.5366 20L69.5991 16.5696L69.5316 16.5696L68.5941 20L66.9961 20Z" fill="white"/>
<g clip-path="url(#clip0_947_9)">
<path d="M15.0175 11.1108C15.3104 10.8178 15.3103 10.3428 15.0172 10.0499C14.7243 9.75734 14.2498 9.75741 13.957 10.0501L8.70801 15.2972C8.61486 15.3898 8.54093 15.4999 8.49048 15.6211C8.44003 15.7424 8.41406 15.8724 8.41406 16.0037C8.41406 16.1351 8.44003 16.2651 8.49048 16.3863C8.54093 16.5076 8.61486 16.6177 8.70801 16.7102L13.957 21.9601C14.2497 22.2529 14.7243 22.2529 15.0171 21.9602C15.3098 21.6675 15.3098 21.193 15.0171 20.9002L10.83 16.7123C10.4395 16.3218 10.4396 15.6887 10.8301 15.2982L15.0175 11.1108Z" fill="white"/>
<path d="M17.8179 12.6962C17.9288 12.5767 17.9597 12.4034 17.897 12.2529C17.7831 11.9796 17.4281 11.9093 17.2186 12.1187L13.8053 15.5308C13.7432 15.5926 13.694 15.6659 13.6603 15.7468C13.6267 15.8276 13.6094 15.9143 13.6094 16.0018C13.6094 16.0894 13.6267 16.1761 13.6603 16.2569C13.694 16.3377 13.7432 16.4111 13.8053 16.4728L17.2155 19.8836C17.4262 20.0943 17.7834 20.0233 17.8974 19.748C17.9599 19.5969 17.9286 19.4232 17.8173 19.3035L15.3812 16.6832C15.0246 16.2996 15.0243 15.7058 15.3806 15.322L17.8179 12.6962Z" fill="white"/>
</g>
<defs>
<clipPath id="clip0_947_9">
<rect width="12" height="16" fill="white" transform="matrix(-1 0 0 1 20 8)"/>
</clipPath>
</defs>
</svg>
