<svg width="112" height="37" viewBox="0 0 112 37" fill="none" xmlns="http://www.w3.org/2000/svg">
<rect width="36.5" height="36.5" rx="18.25" fill="white"/>
<path d="M18.2491 14.2915C18.4734 14.2915 18.6616 14.2155 18.8136 14.0635C18.9656 13.9115 19.0413 13.7237 19.0408 13.4999C19.0403 13.2761 18.9643 13.0882 18.8128 12.9362C18.6613 12.7842 18.4734 12.7082 18.2491 12.7082C18.0248 12.7082 17.8369 12.7842 17.6854 12.9362C17.534 13.0882 17.458 13.2761 17.4574 13.4999C17.4569 13.7237 17.5329 13.9118 17.6854 14.0643C17.838 14.2169 18.0259 14.2926 18.2491 14.2915ZM20.4856 14.2915H21.871C22.2668 14.2915 22.6099 14.4235 22.9002 14.6874C23.1904 14.9513 23.3686 15.2745 23.4345 15.6572L24.5627 23.5738C24.6286 24.0488 24.5067 24.4679 24.1969 24.831C23.8871 25.1941 23.4878 25.3754 22.9991 25.3749H13.4991C13.0109 25.3749 12.6117 25.1936 12.3013 24.831C11.991 24.4684 11.8691 24.0494 11.9356 23.5738L13.0637 15.6572C13.1297 15.2745 13.3078 14.9513 13.5981 14.6874C13.8883 14.4235 14.2314 14.2915 14.6272 14.2915H16.0127C15.9731 14.1596 15.9401 14.0311 15.9137 13.906C15.8873 13.7809 15.8741 13.6455 15.8741 13.4999C15.8741 12.8402 16.105 12.2794 16.5668 11.8176C17.0286 11.3558 17.5894 11.1249 18.2491 11.1249C18.9088 11.1249 19.4696 11.3558 19.9314 11.8176C20.3932 12.2794 20.6241 12.8402 20.6241 13.4999C20.6241 13.645 20.6109 13.7804 20.5845 13.906C20.5581 14.0316 20.5252 14.1601 20.4856 14.2915Z" fill="#945FDF"/>
<path d="M52.925 7.86772L50.68 15.0977H49.465L47.885 10.1577C47.8417 10.0377 47.8017 9.89105 47.765 9.71772C47.745 9.80105 47.725 9.87938 47.705 9.95272C47.685 10.0261 47.6633 10.0944 47.64 10.1577L46.045 15.0977H44.825L42.585 7.86772H43.71C43.8267 7.86772 43.9233 7.89605 44 7.95272C44.08 8.00605 44.1333 8.07938 44.16 8.17272L45.39 12.4977C45.4167 12.6044 45.4417 12.7211 45.465 12.8477C45.4917 12.9711 45.5183 13.1011 45.545 13.2377C45.5717 13.0977 45.6 12.9661 45.63 12.8427C45.6633 12.7194 45.6983 12.6044 45.735 12.4977L47.155 8.17272C47.1817 8.09605 47.2333 8.02605 47.31 7.96272C47.39 7.89938 47.4867 7.86772 47.6 7.86772H47.995C48.1117 7.86772 48.2067 7.89605 48.28 7.95272C48.3533 8.00938 48.4083 8.08272 48.445 8.17272L49.86 12.4977C49.93 12.7044 49.9933 12.9427 50.05 13.2127C50.0933 12.9494 50.1417 12.7111 50.195 12.4977L51.425 8.17272C51.445 8.08938 51.495 8.01772 51.575 7.95772C51.6583 7.89772 51.7567 7.86772 51.87 7.86772H52.925ZM56.3173 11.9427C56.3173 11.7827 56.294 11.6327 56.2473 11.4927C56.204 11.3494 56.1373 11.2244 56.0473 11.1177C55.9573 11.0111 55.8423 10.9277 55.7023 10.8677C55.5657 10.8044 55.4057 10.7727 55.2223 10.7727C54.8657 10.7727 54.584 10.8744 54.3773 11.0777C54.174 11.2811 54.044 11.5694 53.9873 11.9427H56.3173ZM53.9623 12.6877C53.9823 12.9511 54.029 13.1794 54.1023 13.3727C54.1757 13.5627 54.2723 13.7211 54.3923 13.8477C54.5123 13.9711 54.654 14.0644 54.8173 14.1277C54.984 14.1877 55.1673 14.2177 55.3673 14.2177C55.5673 14.2177 55.739 14.1944 55.8823 14.1477C56.029 14.1011 56.1557 14.0494 56.2623 13.9927C56.3723 13.9361 56.4673 13.8844 56.5473 13.8377C56.6307 13.7911 56.7107 13.7677 56.7873 13.7677C56.8907 13.7677 56.9673 13.8061 57.0173 13.8827L57.3723 14.3327C57.2357 14.4927 57.0823 14.6277 56.9123 14.7377C56.7423 14.8444 56.564 14.9311 56.3773 14.9977C56.194 15.0611 56.0057 15.1061 55.8123 15.1327C55.6223 15.1594 55.4373 15.1727 55.2573 15.1727C54.9007 15.1727 54.569 15.1144 54.2623 14.9977C53.9557 14.8777 53.689 14.7027 53.4623 14.4727C53.2357 14.2394 53.0573 13.9527 52.9273 13.6127C52.7973 13.2694 52.7323 12.8727 52.7323 12.4227C52.7323 12.0727 52.789 11.7444 52.9023 11.4377C53.0157 11.1277 53.1773 10.8594 53.3873 10.6327C53.6007 10.4027 53.859 10.2211 54.1623 10.0877C54.469 9.95438 54.814 9.88772 55.1973 9.88772C55.5207 9.88772 55.819 9.93938 56.0923 10.0427C56.3657 10.1461 56.6007 10.2977 56.7973 10.4977C56.994 10.6944 57.1473 10.9377 57.2573 11.2277C57.3707 11.5144 57.4273 11.8427 57.4273 12.2127C57.4273 12.3994 57.4073 12.5261 57.3673 12.5927C57.3273 12.6561 57.2507 12.6877 57.1373 12.6877H53.9623ZM59.6341 9.96772V15.0977H58.3941V9.96772H59.6341ZM59.8041 8.47272C59.8041 8.57938 59.7825 8.67938 59.7391 8.77272C59.6958 8.86605 59.6375 8.94772 59.5641 9.01772C59.4941 9.08772 59.4108 9.14438 59.3141 9.18772C59.2175 9.22772 59.1141 9.24772 59.0041 9.24772C58.8975 9.24772 58.7958 9.22772 58.6991 9.18772C58.6058 9.14438 58.5241 9.08772 58.4541 9.01772C58.3841 8.94772 58.3275 8.86605 58.2841 8.77272C58.2441 8.67938 58.2241 8.57938 58.2241 8.47272C58.2241 8.36272 58.2441 8.25938 58.2841 8.16272C58.3275 8.06605 58.3841 7.98272 58.4541 7.91272C58.5241 7.84272 58.6058 7.78772 58.6991 7.74772C58.7958 7.70438 58.8975 7.68272 59.0041 7.68272C59.1141 7.68272 59.2175 7.70438 59.3141 7.74772C59.4108 7.78772 59.4941 7.84272 59.5641 7.91272C59.6375 7.98272 59.6958 8.06605 59.7391 8.16272C59.7825 8.25938 59.8041 8.36272 59.8041 8.47272ZM62.7682 12.4077C62.9215 12.4077 63.0549 12.3877 63.1682 12.3477C63.2815 12.3044 63.3749 12.2461 63.4482 12.1727C63.5249 12.0994 63.5815 12.0111 63.6182 11.9077C63.6582 11.8044 63.6782 11.6911 63.6782 11.5677C63.6782 11.3144 63.6015 11.1144 63.4482 10.9677C63.2982 10.8177 63.0715 10.7427 62.7682 10.7427C62.4649 10.7427 62.2365 10.8177 62.0832 10.9677C61.9332 11.1144 61.8582 11.3144 61.8582 11.5677C61.8582 11.6877 61.8765 11.7994 61.9132 11.9027C61.9532 12.0061 62.0099 12.0961 62.0832 12.1727C62.1599 12.2461 62.2549 12.3044 62.3682 12.3477C62.4849 12.3877 62.6182 12.4077 62.7682 12.4077ZM64.1632 15.3277C64.1632 15.2277 64.1332 15.1461 64.0732 15.0827C64.0132 15.0194 63.9315 14.9711 63.8282 14.9377C63.7249 14.9011 63.6032 14.8744 63.4632 14.8577C63.3265 14.8411 63.1799 14.8294 63.0232 14.8227C62.8699 14.8127 62.7099 14.8044 62.5432 14.7977C62.3799 14.7911 62.2199 14.7777 62.0632 14.7577C61.9265 14.8344 61.8149 14.9244 61.7282 15.0277C61.6449 15.1311 61.6032 15.2511 61.6032 15.3877C61.6032 15.4777 61.6249 15.5611 61.6682 15.6377C61.7149 15.7177 61.7865 15.7861 61.8832 15.8427C61.9832 15.8994 62.1115 15.9427 62.2682 15.9727C62.4249 16.0061 62.6165 16.0227 62.8432 16.0227C63.0732 16.0227 63.2715 16.0044 63.4382 15.9677C63.6049 15.9344 63.7415 15.8861 63.8482 15.8227C63.9582 15.7627 64.0382 15.6894 64.0882 15.6027C64.1382 15.5194 64.1632 15.4277 64.1632 15.3277ZM65.3932 10.1427V10.6027C65.3932 10.7494 65.3049 10.8394 65.1282 10.8727L64.6682 10.9577C64.7382 11.1344 64.7732 11.3277 64.7732 11.5377C64.7732 11.7911 64.7215 12.0211 64.6182 12.2277C64.5182 12.4311 64.3782 12.6044 64.1982 12.7477C64.0182 12.8911 63.8049 13.0027 63.5582 13.0827C63.3149 13.1594 63.0515 13.1977 62.7682 13.1977C62.6682 13.1977 62.5715 13.1927 62.4782 13.1827C62.3849 13.1727 62.2932 13.1594 62.2032 13.1427C62.0432 13.2394 61.9632 13.3477 61.9632 13.4677C61.9632 13.5711 62.0099 13.6477 62.1032 13.6977C62.1999 13.7444 62.3265 13.7777 62.4832 13.7977C62.6399 13.8177 62.8182 13.8311 63.0182 13.8377C63.2182 13.8411 63.4232 13.8511 63.6332 13.8677C63.8432 13.8844 64.0482 13.9144 64.2482 13.9577C64.4482 13.9977 64.6265 14.0627 64.7832 14.1527C64.9399 14.2427 65.0649 14.3661 65.1582 14.5227C65.2549 14.6761 65.3032 14.8744 65.3032 15.1177C65.3032 15.3444 65.2465 15.5644 65.1332 15.7777C65.0232 15.9911 64.8615 16.1811 64.6482 16.3477C64.4382 16.5144 64.1782 16.6477 63.8682 16.7477C63.5615 16.8511 63.2115 16.9027 62.8182 16.9027C62.4315 16.9027 62.0949 16.8644 61.8082 16.7877C61.5215 16.7144 61.2832 16.6144 61.0932 16.4877C60.9032 16.3644 60.7615 16.2211 60.6682 16.0577C60.5749 15.8944 60.5282 15.7244 60.5282 15.5477C60.5282 15.3077 60.5999 15.1077 60.7432 14.9477C60.8899 14.7844 61.0899 14.6544 61.3432 14.5577C61.2065 14.4877 61.0982 14.3944 61.0182 14.2777C60.9382 14.1611 60.8982 14.0077 60.8982 13.8177C60.8982 13.7411 60.9115 13.6627 60.9382 13.5827C60.9682 13.4994 61.0099 13.4177 61.0632 13.3377C61.1199 13.2577 61.1899 13.1827 61.2732 13.1127C61.3565 13.0394 61.4549 12.9744 61.5682 12.9177C61.3082 12.7777 61.1032 12.5911 60.9532 12.3577C60.8065 12.1244 60.7332 11.8511 60.7332 11.5377C60.7332 11.2844 60.7832 11.0561 60.8832 10.8527C60.9865 10.6461 61.1282 10.4711 61.3082 10.3277C61.4915 10.1811 61.7065 10.0694 61.9532 9.99272C62.2032 9.91605 62.4749 9.87772 62.7682 9.87772C62.9882 9.87772 63.1949 9.90105 63.3882 9.94772C63.5815 9.99105 63.7582 10.0561 63.9182 10.1427H65.3932ZM67.4114 10.5177C67.6114 10.3311 67.8314 10.1794 68.0714 10.0627C68.3114 9.94605 68.5931 9.88772 68.9164 9.88772C69.1964 9.88772 69.4447 9.93605 69.6614 10.0327C69.8781 10.1261 70.0581 10.2594 70.2014 10.4327C70.3481 10.6027 70.4581 10.8077 70.5314 11.0477C70.6081 11.2844 70.6464 11.5461 70.6464 11.8327V15.0977H69.4114V11.8327C69.4114 11.5194 69.3397 11.2777 69.1964 11.1077C69.0531 10.9344 68.8347 10.8477 68.5414 10.8477C68.3281 10.8477 68.1281 10.8961 67.9414 10.9927C67.7547 11.0894 67.5781 11.2211 67.4114 11.3877V15.0977H66.1764V7.66772H67.4114V10.5177ZM73.4626 15.1777C73.0159 15.1777 72.6726 15.0527 72.4326 14.8027C72.1959 14.5494 72.0776 14.2011 72.0776 13.7577V10.8927H71.5526C71.4859 10.8927 71.4292 10.8711 71.3826 10.8277C71.3359 10.7844 71.3126 10.7194 71.3126 10.6327V10.1427L72.1376 10.0077L72.3976 8.60772C72.4142 8.54105 72.4459 8.48938 72.4926 8.45272C72.5392 8.41605 72.5992 8.39772 72.6726 8.39772H73.3126V10.0127H74.6826V10.8927H73.3126V13.6727C73.3126 13.8327 73.3509 13.9577 73.4276 14.0477C73.5076 14.1377 73.6159 14.1827 73.7526 14.1827C73.8292 14.1827 73.8926 14.1744 73.9426 14.1577C73.9959 14.1377 74.0409 14.1177 74.0776 14.0977C74.1176 14.0777 74.1526 14.0594 74.1826 14.0427C74.2126 14.0227 74.2426 14.0127 74.2726 14.0127C74.3092 14.0127 74.3392 14.0227 74.3626 14.0427C74.3859 14.0594 74.4109 14.0861 74.4376 14.1227L74.8076 14.7227C74.6276 14.8727 74.4209 14.9861 74.1876 15.0627C73.9542 15.1394 73.7126 15.1777 73.4626 15.1777Z" fill="white"/>
<path d="M42.804 23.2822V22.6182H44.308V28.4022H43.572V23.2822H42.804ZM46.4945 26.8502C46.5478 27.1542 46.6705 27.3889 46.8625 27.5542C47.0598 27.7196 47.3238 27.8022 47.6545 27.8022C48.0972 27.8022 48.4225 27.6289 48.6305 27.2822C48.8438 26.9356 48.9452 26.3516 48.9345 25.5302C48.8225 25.7702 48.6358 25.9596 48.3745 26.0982C48.1132 26.2316 47.8225 26.2982 47.5025 26.2982C47.1452 26.2982 46.8252 26.2262 46.5425 26.0822C46.2652 25.9329 46.0465 25.7169 45.8865 25.4342C45.7265 25.1516 45.6465 24.8102 45.6465 24.4102C45.6465 23.8396 45.8118 23.3809 46.1425 23.0342C46.4732 22.6822 46.9425 22.5062 47.5505 22.5062C48.2972 22.5062 48.8198 22.7489 49.1185 23.2342C49.4225 23.7196 49.5745 24.4422 49.5745 25.4022C49.5745 26.0742 49.5132 26.6289 49.3905 27.0662C49.2732 27.5036 49.0705 27.8369 48.7825 28.0662C48.4998 28.2956 48.1105 28.4102 47.6145 28.4102C47.0705 28.4102 46.6465 28.2636 46.3425 27.9702C46.0385 27.6769 45.8652 27.3036 45.8225 26.8502H46.4945ZM47.6225 25.6822C47.9798 25.6822 48.2732 25.5729 48.5025 25.3542C48.7318 25.1302 48.8465 24.8289 48.8465 24.4502C48.8465 24.0502 48.7345 23.7276 48.5105 23.4822C48.2865 23.2369 47.9718 23.1142 47.5665 23.1142C47.1932 23.1142 46.8945 23.2316 46.6705 23.4662C46.4518 23.7009 46.3425 24.0102 46.3425 24.3942C46.3425 24.7836 46.4518 25.0956 46.6705 25.3302C46.8892 25.5649 47.2065 25.6822 47.6225 25.6822ZM50.9496 28.4502C50.8109 28.4502 50.6936 28.4022 50.5976 28.3062C50.5016 28.2102 50.4536 28.0929 50.4536 27.9542C50.4536 27.8156 50.5016 27.6982 50.5976 27.6022C50.6936 27.5062 50.8109 27.4582 50.9496 27.4582C51.0829 27.4582 51.1949 27.5062 51.2856 27.6022C51.3816 27.6982 51.4296 27.8156 51.4296 27.9542C51.4296 28.0929 51.3816 28.2102 51.2856 28.3062C51.1949 28.4022 51.0829 28.4502 50.9496 28.4502ZM52.1893 27.8182C52.8666 27.2742 53.3973 26.8289 53.7812 26.4822C54.1653 26.1302 54.4879 25.7649 54.7493 25.3862C55.0159 25.0022 55.1493 24.6262 55.1493 24.2582C55.1493 23.9116 55.0639 23.6396 54.8933 23.4422C54.7279 23.2396 54.4586 23.1382 54.0853 23.1382C53.7226 23.1382 53.4399 23.2529 53.2373 23.4822C53.0399 23.7062 52.9333 24.0076 52.9173 24.3862H52.2133C52.2346 23.7889 52.4159 23.3276 52.7573 23.0022C53.0986 22.6769 53.5386 22.5142 54.0773 22.5142C54.6266 22.5142 55.0613 22.6662 55.3813 22.9702C55.7066 23.2742 55.8693 23.6929 55.8693 24.2262C55.8693 24.6689 55.7359 25.1009 55.4693 25.5222C55.2079 25.9382 54.9093 26.3062 54.5733 26.6262C54.2373 26.9409 53.8079 27.3089 53.2853 27.7302H56.0373V28.3382H52.1893V27.8182ZM57.8148 26.8502C57.8681 27.1542 57.9908 27.3889 58.1828 27.5542C58.3801 27.7196 58.6441 27.8022 58.9748 27.8022C59.4175 27.8022 59.7428 27.6289 59.9508 27.2822C60.1641 26.9356 60.2655 26.3516 60.2548 25.5302C60.1428 25.7702 59.9561 25.9596 59.6948 26.0982C59.4335 26.2316 59.1428 26.2982 58.8228 26.2982C58.4655 26.2982 58.1455 26.2262 57.8628 26.0822C57.5855 25.9329 57.3668 25.7169 57.2068 25.4342C57.0468 25.1516 56.9668 24.8102 56.9668 24.4102C56.9668 23.8396 57.1321 23.3809 57.4628 23.0342C57.7935 22.6822 58.2628 22.5062 58.8708 22.5062C59.6175 22.5062 60.1401 22.7489 60.4388 23.2342C60.7428 23.7196 60.8948 24.4422 60.8948 25.4022C60.8948 26.0742 60.8335 26.6289 60.7108 27.0662C60.5935 27.5036 60.3908 27.8369 60.1028 28.0662C59.8201 28.2956 59.4308 28.4102 58.9348 28.4102C58.3908 28.4102 57.9668 28.2636 57.6628 27.9702C57.3588 27.6769 57.1855 27.3036 57.1428 26.8502H57.8148ZM58.9428 25.6822C59.3001 25.6822 59.5935 25.5729 59.8228 25.3542C60.0521 25.1302 60.1668 24.8289 60.1668 24.4502C60.1668 24.0502 60.0548 23.7276 59.8308 23.4822C59.6068 23.2369 59.2921 23.1142 58.8868 23.1142C58.5135 23.1142 58.2148 23.2316 57.9908 23.4662C57.7721 23.7009 57.6628 24.0102 57.6628 24.3942C57.6628 24.7836 57.7721 25.0956 57.9908 25.3302C58.2095 25.5649 58.5268 25.6822 58.9428 25.6822ZM65.9787 23.9462C66.3574 23.9462 66.688 24.0289 66.9707 24.1942C67.2587 24.3596 67.472 24.5676 67.6107 24.8182V24.0182H68.3467V28.4982C68.3467 28.8982 68.2614 29.2529 68.0907 29.5622C67.92 29.8769 67.6747 30.1222 67.3547 30.2982C67.04 30.4742 66.672 30.5622 66.2507 30.5622C65.6747 30.5622 65.1947 30.4262 64.8107 30.1542C64.4267 29.8822 64.2 29.5116 64.1307 29.0422H64.8507C64.9307 29.3089 65.096 29.5222 65.3467 29.6822C65.5974 29.8476 65.8987 29.9302 66.2507 29.9302C66.6507 29.9302 66.976 29.8049 67.2267 29.5542C67.4827 29.3036 67.6107 28.9516 67.6107 28.4982V27.5782C67.4667 27.8342 67.2534 28.0476 66.9707 28.2182C66.688 28.3889 66.3574 28.4742 65.9787 28.4742C65.5894 28.4742 65.2347 28.3782 64.9147 28.1862C64.6 27.9942 64.352 27.7249 64.1707 27.3782C63.9894 27.0316 63.8987 26.6369 63.8987 26.1942C63.8987 25.7462 63.9894 25.3542 64.1707 25.0182C64.352 24.6769 64.6 24.4129 64.9147 24.2262C65.2347 24.0396 65.5894 23.9462 65.9787 23.9462ZM67.6107 26.2022C67.6107 25.8716 67.544 25.5836 67.4107 25.3382C67.2774 25.0929 67.096 24.9062 66.8667 24.7782C66.6427 24.6449 66.3947 24.5782 66.1227 24.5782C65.8507 24.5782 65.6027 24.6422 65.3787 24.7702C65.1547 24.8982 64.976 25.0849 64.8427 25.3302C64.7094 25.5756 64.6427 25.8636 64.6427 26.1942C64.6427 26.5302 64.7094 26.8236 64.8427 27.0742C64.976 27.3196 65.1547 27.5089 65.3787 27.6422C65.6027 27.7702 65.8507 27.8342 66.1227 27.8342C66.3947 27.8342 66.6427 27.7702 66.8667 27.6422C67.096 27.5089 67.2774 27.3196 67.4107 27.0742C67.544 26.8236 67.6107 26.5329 67.6107 26.2022Z" fill="white"/>
</svg>
