<svg width="420" height="87" viewBox="0 0 420 87" fill="none" xmlns="http://www.w3.org/2000/svg">
<g filter="url(#filter0_d_1139_85)">
<rect x="13.6016" y="10.363" width="392" height="58.892" rx="10.5249" fill="#FEFFFE"/>
</g>
<circle cx="43.3389" cy="38.2331" r="21.0498" fill="#D9F2EE"/>
<circle cx="43.5575" cy="38.233" r="17.8114" fill="#0C2461"/>
<path d="M40.281 45.357C39.5718 45.357 38.9791 45.2162 38.5031 44.9344C38.027 44.6429 37.6676 44.2446 37.4247 43.7394C37.1818 43.2342 37.0604 42.6465 37.0604 41.9761V36.6278C37.0604 35.938 37.1721 35.3357 37.3956 34.8208C37.6287 34.2962 37.9833 33.8881 38.4594 33.5967C38.9354 33.3052 39.5426 33.1595 40.281 33.1595C41.0194 33.1595 41.6217 33.3052 42.088 33.5967C42.5641 33.8881 42.9138 34.2962 43.1373 34.8208C43.3705 35.3357 43.487 35.938 43.487 36.6278V41.9761C43.487 42.6367 43.3656 43.2245 43.1227 43.7394C42.8798 44.2446 42.5204 44.6429 42.0443 44.9344C41.5683 45.2162 40.9805 45.357 40.281 45.357ZM40.281 43.1857C40.5142 43.1857 40.6793 43.1128 40.7765 42.9671C40.8833 42.8116 40.9465 42.6367 40.9659 42.4424C40.9951 42.2384 41.0096 42.0635 41.0096 41.9178V36.6861C41.0096 36.521 40.9999 36.3364 40.9805 36.1324C40.9611 35.9186 40.8979 35.734 40.791 35.5786C40.6939 35.4134 40.5239 35.3308 40.281 35.3308C40.0381 35.3308 39.8632 35.4134 39.7564 35.5786C39.6592 35.734 39.6009 35.9186 39.5815 36.1324C39.5621 36.3364 39.5523 36.521 39.5523 36.6861V41.9178C39.5523 42.0635 39.5669 42.2384 39.5961 42.4424C39.6252 42.6367 39.6884 42.8116 39.7855 42.9671C39.8924 43.1128 40.0575 43.1857 40.281 43.1857ZM48.3807 45.357C47.5549 45.357 46.904 45.2016 46.4279 44.8907C45.9616 44.5798 45.6264 44.1475 45.4224 43.5937C45.2281 43.0302 45.1309 42.3841 45.1309 41.6555V41.2329H47.5646C47.5646 41.2426 47.5646 41.296 47.5646 41.3932C47.5646 41.4903 47.5646 41.5778 47.5646 41.6555C47.5646 42.0441 47.5889 42.3599 47.6375 42.6027C47.6861 42.8456 47.7735 43.0254 47.8998 43.1419C48.0261 43.2488 48.201 43.3022 48.4244 43.3022C48.6479 43.3022 48.813 43.2439 48.9199 43.1274C49.0365 43.0108 49.1142 42.8359 49.1531 42.6027C49.1919 42.3696 49.2114 42.0781 49.2114 41.7284C49.2114 41.1454 49.1288 40.7034 48.9636 40.4022C48.8082 40.0913 48.4779 39.931 47.9727 39.9213C47.9629 39.9213 47.9095 39.9213 47.8124 39.9213C47.7152 39.9213 47.618 39.9213 47.5209 39.9213V38.2454C47.5889 38.2454 47.6569 38.2454 47.7249 38.2454C47.7929 38.2454 47.8561 38.2454 47.9144 38.2454C48.4293 38.2454 48.7742 38.1046 48.949 37.8228C49.1239 37.5411 49.2114 37.1039 49.2114 36.5113C49.2114 36.0546 49.1482 35.7049 49.0219 35.462C48.9053 35.2191 48.6819 35.0977 48.3516 35.0977C48.0309 35.0977 47.8172 35.2337 47.7103 35.5057C47.6132 35.7777 47.5646 36.1275 47.5646 36.555C47.5646 36.6521 47.5646 36.7541 47.5646 36.861C47.5646 36.9582 47.5646 37.0602 47.5646 37.167H45.1309V36.453C45.1309 35.7437 45.2572 35.1463 45.5098 34.6605C45.7721 34.165 46.1413 33.791 46.6174 33.5384C47.1031 33.2858 47.6812 33.1595 48.3516 33.1595C49.0316 33.1595 49.6145 33.2809 50.1003 33.5238C50.5861 33.7667 50.9601 34.1261 51.2224 34.6022C51.4847 35.0685 51.6159 35.6514 51.6159 36.3509C51.6159 37.0407 51.475 37.6188 51.1933 38.0851C50.9115 38.5515 50.5715 38.8381 50.1732 38.9449C50.4452 39.0421 50.6881 39.1975 50.9018 39.4113C51.1253 39.625 51.3001 39.9165 51.4264 40.2856C51.5527 40.6451 51.6159 41.1066 51.6159 41.6701C51.6159 42.389 51.509 43.0254 51.2953 43.5791C51.0913 44.1329 50.7512 44.5701 50.2752 44.8907C49.7991 45.2016 49.1676 45.357 48.3807 45.357Z" fill="#FEFFFE"/>
<path d="M77.7866 32.7865C77.1367 32.7865 76.6191 32.6656 76.2337 32.4238C75.8484 32.182 75.5726 31.8344 75.4063 31.3811C75.2401 30.9277 75.157 30.3912 75.157 29.7716V26.3372C75.157 25.7176 75.2401 25.1887 75.4063 24.7504C75.5726 24.3046 75.8484 23.9645 76.2337 23.7303C76.6191 23.496 77.1367 23.3789 77.7866 23.3789C78.4515 23.3789 78.9729 23.496 79.3507 23.7303C79.7361 23.9645 80.0119 24.3046 80.1781 24.7504C80.3519 25.1887 80.4388 25.7176 80.4388 26.3372V29.7829C80.4388 30.395 80.3519 30.9277 80.1781 31.3811C80.0119 31.8269 79.7361 32.1745 79.3507 32.4238C78.9729 32.6656 78.4515 32.7865 77.7866 32.7865ZM77.7866 31.5511C78.0661 31.5511 78.2702 31.4906 78.3986 31.3697C78.5346 31.2488 78.6253 31.0826 78.6706 30.871C78.716 30.6594 78.7387 30.429 78.7387 30.1796V25.9518C78.7387 25.6949 78.716 25.4645 78.6706 25.2604C78.6253 25.0564 78.5346 24.8977 78.3986 24.7844C78.2702 24.6635 78.0661 24.603 77.7866 24.603C77.5221 24.603 77.3218 24.6635 77.1858 24.7844C77.0498 24.8977 76.9591 25.0564 76.9138 25.2604C76.8685 25.4645 76.8458 25.6949 76.8458 25.9518V30.1796C76.8458 30.429 76.8647 30.6594 76.9025 30.871C76.9478 31.0826 77.0385 31.2488 77.1745 31.3697C77.3105 31.4906 77.5145 31.5511 77.7866 31.5511ZM83.0188 32.6619L81.1712 23.4809H82.6561L83.8688 29.9756L85.0023 23.4809H86.5211L84.6736 32.6619H83.0188ZM86.5834 32.6619L88.4196 23.4809H90.2104L92.0466 32.6619H90.4938L90.1311 30.5423H88.5329L88.1589 32.6619H86.5834ZM88.7029 29.4769H89.9497L89.3263 25.6231L88.7029 29.4769ZM92.9699 32.6619V23.4809H94.6474V31.5057H96.869V32.6619H92.9699Z" fill="#0C2461"/>
<path d="M75.0202 45.4197V44.8033L76.6555 43.2002C76.8119 43.0422 76.9422 42.9019 77.0465 42.7793C77.1508 42.6566 77.229 42.5378 77.2811 42.4228C77.3332 42.3077 77.3593 42.1851 77.3593 42.0547C77.3593 41.906 77.3256 41.7787 77.2581 41.6729C77.1906 41.5656 77.0979 41.4828 76.9798 41.4245C76.8617 41.3663 76.7275 41.3371 76.5773 41.3371C76.4224 41.3371 76.2867 41.3693 76.1702 41.4337C76.0536 41.4966 75.9632 41.5863 75.8988 41.7028C75.8359 41.8194 75.8045 41.9581 75.8045 42.1191H74.9926C74.9926 41.8201 75.0608 41.5602 75.1973 41.3394C75.3337 41.1186 75.5216 40.9477 75.7608 40.8265C76.0015 40.7054 76.2775 40.6448 76.5888 40.6448C76.9046 40.6448 77.1822 40.7039 77.4214 40.8219C77.6606 40.94 77.8461 41.1018 77.978 41.3072C78.1114 41.5127 78.1781 41.7473 78.1781 42.011C78.1781 42.1874 78.1444 42.3607 78.0769 42.5309C78.0094 42.7011 77.8906 42.8897 77.7204 43.0967C77.5517 43.3037 77.3148 43.5544 77.0097 43.8488L76.1978 44.6745V44.7067H78.2494V45.4197H75.0202ZM80.6805 45.4841C80.3738 45.4841 80.0994 45.4266 79.8571 45.3116C79.6148 45.195 79.4224 45.0356 79.2798 44.8332C79.1387 44.6308 79.0636 44.3992 79.0544 44.1386H79.8824C79.8977 44.3318 79.9813 44.4897 80.1331 44.6124C80.2849 44.7335 80.4674 44.7941 80.6805 44.7941C80.8477 44.7941 80.9964 44.7557 81.1267 44.6791C81.2571 44.6024 81.3598 44.4958 81.4349 44.3594C81.5101 44.2229 81.5469 44.0673 81.5453 43.8925C81.5469 43.7146 81.5093 43.5567 81.4326 43.4187C81.356 43.2807 81.2509 43.1726 81.1175 43.0944C80.9841 43.0146 80.8308 42.9748 80.6575 42.9748C80.5164 42.9732 80.3777 42.9993 80.2412 43.053C80.1047 43.1066 79.9966 43.1772 79.9169 43.2646L79.1464 43.1381L79.3925 40.7092H82.1249V41.4222H80.0986L79.9629 42.6712H79.9905C80.0779 42.5684 80.2013 42.4833 80.3608 42.4159C80.5203 42.3469 80.6951 42.3123 80.8852 42.3123C81.1704 42.3123 81.425 42.3798 81.6488 42.5148C81.8727 42.6482 82.049 42.8322 82.1778 43.0668C82.3066 43.3014 82.371 43.5697 82.371 43.8718C82.371 44.183 82.299 44.4606 82.1548 44.7044C82.0122 44.9466 81.8137 45.1375 81.5591 45.2771C81.3061 45.4151 81.0133 45.4841 80.6805 45.4841ZM84.8827 45.5094C84.5039 45.5094 84.1788 45.4135 83.9074 45.2219C83.6376 45.0287 83.4298 44.7504 83.2841 44.387C83.14 44.022 83.0679 43.5827 83.0679 43.0691C83.0695 42.5554 83.1423 42.1184 83.2864 41.758C83.4321 41.3962 83.6399 41.1202 83.9097 40.93C84.1811 40.7399 84.5055 40.6448 84.8827 40.6448C85.2599 40.6448 85.5842 40.7399 85.8556 40.93C86.127 41.1202 86.3347 41.3962 86.4789 41.758C86.6245 42.1199 86.6974 42.5569 86.6974 43.0691C86.6974 43.5843 86.6245 44.0243 86.4789 44.3893C86.3347 44.7527 86.127 45.0302 85.8556 45.2219C85.5857 45.4135 85.2614 45.5094 84.8827 45.5094ZM84.8827 44.7895C85.1771 44.7895 85.4094 44.6446 85.5796 44.3548C85.7513 44.0634 85.8372 43.6349 85.8372 43.0691C85.8372 42.6949 85.7981 42.3806 85.7199 42.126C85.6417 41.8715 85.5313 41.6798 85.3887 41.551C85.2461 41.4207 85.0774 41.3555 84.8827 41.3555C84.5898 41.3555 84.3582 41.5012 84.188 41.7925C84.0178 42.0823 83.932 42.5079 83.9304 43.0691C83.9289 43.4447 83.9665 43.7606 84.0431 44.0167C84.1213 44.2727 84.2317 44.4659 84.3743 44.5963C84.517 44.7251 84.6864 44.7895 84.8827 44.7895ZM87.4708 45.4197V41.8868H88.2666V42.4872H88.308C88.3816 42.2847 88.5035 42.1268 88.6737 42.0133C88.8439 41.8983 89.047 41.8408 89.2832 41.8408C89.5224 41.8408 89.724 41.8991 89.8881 42.0156C90.0537 42.1306 90.1702 42.2878 90.2377 42.4872H90.2745C90.3527 42.2909 90.4845 42.1345 90.6701 42.0179C90.8572 41.8999 91.0787 41.8408 91.3348 41.8408C91.6599 41.8408 91.9251 41.9436 92.1306 42.149C92.3361 42.3545 92.4388 42.6543 92.4388 43.0484V45.4197H91.6039V43.1772C91.6039 42.9579 91.5456 42.7977 91.4291 42.6965C91.3126 42.5937 91.17 42.5424 91.0013 42.5424C90.8004 42.5424 90.6432 42.6052 90.5298 42.731C90.4178 42.8552 90.3619 43.0169 90.3619 43.2163V45.4197H89.5454V43.1427C89.5454 42.9602 89.4902 42.8145 89.3798 42.7057C89.2709 42.5968 89.1283 42.5424 88.952 42.5424C88.8324 42.5424 88.7235 42.573 88.6254 42.6344C88.5272 42.6942 88.449 42.7793 88.3908 42.8897C88.3325 42.9985 88.3034 43.1258 88.3034 43.2715V45.4197H87.4708ZM94.1161 40.7092V45.4197H93.2835V40.7092H94.1161ZM95.9498 44.7757L95.9199 45.0287C95.8984 45.2219 95.8601 45.4181 95.8049 45.6175C95.7512 45.8183 95.6945 46.0031 95.6347 46.1718C95.5749 46.3405 95.5266 46.4731 95.4898 46.5697H94.9286C94.95 46.4762 94.9792 46.3489 95.016 46.1879C95.0543 46.0269 95.0911 45.8459 95.1264 45.6451C95.1616 45.4442 95.1854 45.2403 95.1977 45.0333L95.2138 44.7757H95.9498ZM98.2492 44.5457V43.8672L100.248 40.7092H100.814V41.6752H100.469L99.1232 43.8074V43.8442H101.913V44.5457H98.2492ZM100.496 45.4197V44.3387L100.506 44.0351V40.7092H101.311V45.4197H100.496ZM104.389 45.5094C104.01 45.5094 103.685 45.4135 103.414 45.2219C103.144 45.0287 102.936 44.7504 102.791 44.387C102.646 44.022 102.574 43.5827 102.574 43.0691C102.576 42.5554 102.649 42.1184 102.793 41.758C102.939 41.3962 103.146 41.1202 103.416 40.93C103.688 40.7399 104.012 40.6448 104.389 40.6448C104.766 40.6448 105.091 40.7399 105.362 40.93C105.633 41.1202 105.841 41.3962 105.985 41.758C106.131 42.1199 106.204 42.5569 106.204 43.0691C106.204 43.5843 106.131 44.0243 105.985 44.3893C105.841 44.7527 105.633 45.0302 105.362 45.2219C105.092 45.4135 104.768 45.5094 104.389 45.5094ZM104.389 44.7895C104.684 44.7895 104.916 44.6446 105.086 44.3548C105.258 44.0634 105.344 43.6349 105.344 43.0691C105.344 42.6949 105.305 42.3806 105.226 42.126C105.148 41.8715 105.038 41.6798 104.895 41.551C104.753 41.4207 104.584 41.3555 104.389 41.3555C104.096 41.3555 103.865 41.5012 103.695 41.7925C103.524 42.0823 103.438 42.5079 103.437 43.0691C103.435 43.4447 103.473 43.7606 103.55 44.0167C103.628 44.2727 103.738 44.4659 103.881 44.5963C104.023 44.7251 104.193 44.7895 104.389 44.7895ZM108.709 45.5094C108.33 45.5094 108.005 45.4135 107.734 45.2219C107.464 45.0287 107.256 44.7504 107.111 44.387C106.966 44.022 106.894 43.5827 106.894 43.0691C106.896 42.5554 106.969 42.1184 107.113 41.758C107.259 41.3962 107.466 41.1202 107.736 40.93C108.008 40.7399 108.332 40.6448 108.709 40.6448C109.086 40.6448 109.411 40.7399 109.682 40.93C109.953 41.1202 110.161 41.3962 110.305 41.758C110.451 42.1199 110.524 42.5569 110.524 43.0691C110.524 43.5843 110.451 44.0243 110.305 44.3893C110.161 44.7527 109.953 45.0302 109.682 45.2219C109.412 45.4135 109.088 45.5094 108.709 45.5094ZM108.709 44.7895C109.004 44.7895 109.236 44.6446 109.406 44.3548C109.578 44.0634 109.664 43.6349 109.664 43.0691C109.664 42.6949 109.625 42.3806 109.546 42.126C109.468 41.8715 109.358 41.6798 109.215 41.551C109.073 41.4207 108.904 41.3555 108.709 41.3555C108.416 41.3555 108.185 41.5012 108.015 41.7925C107.844 42.0823 107.758 42.5079 107.757 43.0691C107.755 43.4447 107.793 43.7606 107.87 44.0167C107.948 44.2727 108.058 44.4659 108.201 44.5963C108.343 44.7251 108.513 44.7895 108.709 44.7895ZM111.297 45.4197V41.8868H112.093V42.4872H112.134C112.208 42.2847 112.33 42.1268 112.5 42.0133C112.67 41.8983 112.874 41.8408 113.11 41.8408C113.349 41.8408 113.55 41.8991 113.715 42.0156C113.88 42.1306 113.997 42.2878 114.064 42.4872H114.101C114.179 42.2909 114.311 42.1345 114.497 42.0179C114.684 41.8999 114.905 41.8408 115.161 41.8408C115.486 41.8408 115.752 41.9436 115.957 42.149C116.163 42.3545 116.265 42.6543 116.265 43.0484V45.4197H115.43V43.1772C115.43 42.9579 115.372 42.7977 115.256 42.6965C115.139 42.5937 114.996 42.5424 114.828 42.5424C114.627 42.5424 114.47 42.6052 114.356 42.731C114.244 42.8552 114.188 43.0169 114.188 43.2163V45.4197H113.372V43.1427C113.372 42.9602 113.317 42.8145 113.206 42.7057C113.097 42.5968 112.955 42.5424 112.778 42.5424C112.659 42.5424 112.55 42.573 112.452 42.6344C112.354 42.6942 112.276 42.7793 112.217 42.8897C112.159 42.9985 112.13 43.1258 112.13 43.2715V45.4197H111.297ZM117.943 40.7092V45.4197H117.11V40.7092H117.943ZM119.776 44.7757L119.746 45.0287C119.725 45.2219 119.687 45.4181 119.631 45.6175C119.578 45.8183 119.521 46.0031 119.461 46.1718C119.401 46.3405 119.353 46.4731 119.316 46.5697H118.755C118.777 46.4762 118.806 46.3489 118.842 46.1879C118.881 46.0269 118.918 45.8459 118.953 45.6451C118.988 45.4442 119.012 45.2403 119.024 45.0333L119.04 44.7757H119.776ZM123.798 45.4841C123.492 45.4841 123.217 45.4266 122.975 45.3116C122.733 45.195 122.54 45.0356 122.398 44.8332C122.257 44.6308 122.182 44.3992 122.172 44.1386H123C123.016 44.3318 123.099 44.4897 123.251 44.6124C123.403 44.7335 123.585 44.7941 123.798 44.7941C123.966 44.7941 124.114 44.7557 124.245 44.6791C124.375 44.6024 124.478 44.4958 124.553 44.3594C124.628 44.2229 124.665 44.0673 124.663 43.8925C124.665 43.7146 124.627 43.5567 124.551 43.4187C124.474 43.2807 124.369 43.1726 124.235 43.0944C124.102 43.0146 123.949 42.9748 123.775 42.9748C123.634 42.9732 123.496 42.9993 123.359 43.053C123.223 43.1066 123.115 43.1772 123.035 43.2646L122.264 43.1381L122.51 40.7092H125.243V41.4222H123.217L123.081 42.6712H123.108C123.196 42.5684 123.319 42.4833 123.479 42.4159C123.638 42.3469 123.813 42.3123 124.003 42.3123C124.288 42.3123 124.543 42.3798 124.767 42.5148C124.991 42.6482 125.167 42.8322 125.296 43.0668C125.425 43.3014 125.489 43.5697 125.489 43.8718C125.489 44.183 125.417 44.4606 125.273 44.7044C125.13 44.9466 124.932 45.1375 124.677 45.2771C124.424 45.4151 124.131 45.4841 123.798 45.4841ZM128.001 45.5094C127.622 45.5094 127.297 45.4135 127.025 45.2219C126.755 45.0287 126.548 44.7504 126.402 44.387C126.258 44.022 126.186 43.5827 126.186 43.0691C126.187 42.5554 126.26 42.1184 126.404 41.758C126.55 41.3962 126.758 41.1202 127.028 40.93C127.299 40.7399 127.623 40.6448 128.001 40.6448C128.378 40.6448 128.702 40.7399 128.973 40.93C129.245 41.1202 129.453 41.3962 129.597 41.758C129.742 42.1199 129.815 42.5569 129.815 43.0691C129.815 43.5843 129.742 44.0243 129.597 44.3893C129.453 44.7527 129.245 45.0302 128.973 45.2219C128.704 45.4135 128.379 45.5094 128.001 45.5094ZM128.001 44.7895C128.295 44.7895 128.527 44.6446 128.697 44.3548C128.869 44.0634 128.955 43.6349 128.955 43.0691C128.955 42.6949 128.916 42.3806 128.838 42.126C128.76 41.8715 128.649 41.6798 128.507 41.551C128.364 41.4207 128.195 41.3555 128.001 41.3555C127.708 41.3555 127.476 41.5012 127.306 41.7925C127.136 42.0823 127.05 42.5079 127.048 43.0691C127.047 43.4447 127.084 43.7606 127.161 44.0167C127.239 44.2727 127.35 44.4659 127.492 44.5963C127.635 44.7251 127.804 44.7895 128.001 44.7895ZM132.321 45.5094C131.942 45.5094 131.617 45.4135 131.345 45.2219C131.076 45.0287 130.868 44.7504 130.722 44.387C130.578 44.022 130.506 43.5827 130.506 43.0691C130.507 42.5554 130.58 42.1184 130.724 41.758C130.87 41.3962 131.078 41.1202 131.348 40.93C131.619 40.7399 131.943 40.6448 132.321 40.6448C132.698 40.6448 133.022 40.7399 133.293 40.93C133.565 41.1202 133.773 41.3962 133.917 41.758C134.062 42.1199 134.135 42.5569 134.135 43.0691C134.135 43.5843 134.062 44.0243 133.917 44.3893C133.773 44.7527 133.565 45.0302 133.293 45.2219C133.024 45.4135 132.699 45.5094 132.321 45.5094ZM132.321 44.7895C132.615 44.7895 132.847 44.6446 133.017 44.3548C133.189 44.0634 133.275 43.6349 133.275 43.0691C133.275 42.6949 133.236 42.3806 133.158 42.126C133.08 41.8715 132.969 41.6798 132.827 41.551C132.684 41.4207 132.515 41.3555 132.321 41.3555C132.028 41.3555 131.796 41.5012 131.626 41.7925C131.456 42.0823 131.37 42.5079 131.368 43.0691C131.367 43.4447 131.404 43.7606 131.481 44.0167C131.559 44.2727 131.67 44.4659 131.812 44.5963C131.955 44.7251 132.124 44.7895 132.321 44.7895ZM134.909 45.4197V41.8868H135.704V42.4872H135.746C135.819 42.2847 135.941 42.1268 136.112 42.0133C136.282 41.8983 136.485 41.8408 136.721 41.8408C136.96 41.8408 137.162 41.8991 137.326 42.0156C137.492 42.1306 137.608 42.2878 137.676 42.4872H137.712C137.791 42.2909 137.922 42.1345 138.108 42.0179C138.295 41.8999 138.517 41.8408 138.773 41.8408C139.098 41.8408 139.363 41.9436 139.569 42.149C139.774 42.3545 139.877 42.6543 139.877 43.0484V45.4197H139.042V43.1772C139.042 42.9579 138.984 42.7977 138.867 42.6965C138.75 42.5937 138.608 42.5424 138.439 42.5424C138.238 42.5424 138.081 42.6052 137.968 42.731C137.856 42.8552 137.8 43.0169 137.8 43.2163V45.4197H136.983V43.1427C136.983 42.9602 136.928 42.8145 136.818 42.7057C136.709 42.5968 136.566 42.5424 136.39 42.5424C136.27 42.5424 136.161 42.573 136.063 42.6344C135.965 42.6942 135.887 42.7793 135.829 42.8897C135.77 42.9985 135.741 43.1258 135.741 43.2715V45.4197H134.909ZM141.554 40.7092V45.4197H140.721V40.7092H141.554ZM143.388 44.7757L143.358 45.0287C143.336 45.2219 143.298 45.4181 143.243 45.6175C143.189 45.8183 143.132 46.0031 143.073 46.1718C143.013 46.3405 142.965 46.4731 142.928 46.5697H142.366C142.388 46.4762 142.417 46.3489 142.454 46.1879C142.492 46.0269 142.529 45.8459 142.564 45.6451C142.6 45.4442 142.623 45.2403 142.636 45.0333L142.652 44.7757H143.388ZM76.9361 51.7092V56.4197H76.0828V52.5395H76.0552L74.9535 53.2433V52.4613L76.1242 51.7092H76.9361ZM79.8732 56.5094C79.4945 56.5094 79.1694 56.4135 78.898 56.2219C78.6281 56.0287 78.4204 55.7504 78.2747 55.387C78.1306 55.022 78.0585 54.5827 78.0585 54.0691C78.06 53.5554 78.1329 53.1184 78.277 52.758C78.4227 52.3962 78.6304 52.1202 78.9003 51.93C79.1717 51.7399 79.496 51.6448 79.8732 51.6448C80.2504 51.6448 80.5747 51.7399 80.8461 51.93C81.1175 52.1202 81.3253 52.3962 81.4694 52.758C81.6151 53.1199 81.6879 53.5569 81.6879 54.0691C81.6879 54.5843 81.6151 55.0243 81.4694 55.3893C81.3253 55.7527 81.1175 56.0302 80.8461 56.2219C80.5762 56.4135 80.2519 56.5094 79.8732 56.5094ZM79.8732 55.7895C80.1676 55.7895 80.3999 55.6446 80.5701 55.3548C80.7419 55.0634 80.8277 54.6349 80.8277 54.0691C80.8277 53.6949 80.7886 53.3806 80.7104 53.126C80.6322 52.8715 80.5218 52.6798 80.3792 52.551C80.2366 52.4207 80.0679 52.3555 79.8732 52.3555C79.5803 52.3555 79.3488 52.5012 79.1786 52.7925C79.0084 53.0823 78.9225 53.5079 78.921 54.0691C78.9195 54.4447 78.957 54.7606 79.0337 55.0167C79.1119 55.2727 79.2223 55.4659 79.3649 55.5963C79.5075 55.7251 79.6769 55.7895 79.8732 55.7895ZM84.1932 56.5094C83.8145 56.5094 83.4894 56.4135 83.218 56.2219C82.9481 56.0287 82.7404 55.7504 82.5947 55.387C82.4506 55.022 82.3785 54.5827 82.3785 54.0691C82.38 53.5554 82.4529 53.1184 82.597 52.758C82.7427 52.3962 82.9504 52.1202 83.2203 51.93C83.4917 51.7399 83.816 51.6448 84.1932 51.6448C84.5704 51.6448 84.8947 51.7399 85.1661 51.93C85.4375 52.1202 85.6453 52.3962 85.7894 52.758C85.9351 53.1199 86.0079 53.5569 86.0079 54.0691C86.0079 54.5843 85.9351 55.0243 85.7894 55.3893C85.6453 55.7527 85.4375 56.0302 85.1661 56.2219C84.8963 56.4135 84.572 56.5094 84.1932 56.5094ZM84.1932 55.7895C84.4876 55.7895 84.7199 55.6446 84.8901 55.3548C85.0619 55.0634 85.1477 54.6349 85.1477 54.0691C85.1477 53.6949 85.1086 53.3806 85.0304 53.126C84.9522 52.8715 84.8418 52.6798 84.6992 52.551C84.5566 52.4207 84.388 52.3555 84.1932 52.3555C83.9004 52.3555 83.6688 52.5012 83.4986 52.7925C83.3284 53.0823 83.2425 53.5079 83.241 54.0691C83.2395 54.4447 83.277 54.7606 83.3537 55.0167C83.4319 55.2727 83.5423 55.4659 83.6849 55.5963C83.8275 55.7251 83.997 55.7895 84.1932 55.7895ZM88.5132 56.5094C88.1345 56.5094 87.8094 56.4135 87.538 56.2219C87.2682 56.0287 87.0604 55.7504 86.9147 55.387C86.7706 55.022 86.6985 54.5827 86.6985 54.0691C86.7001 53.5554 86.7729 53.1184 86.917 52.758C87.0627 52.3962 87.2705 52.1202 87.5403 51.93C87.8117 51.7399 88.136 51.6448 88.5132 51.6448C88.8904 51.6448 89.2147 51.7399 89.4861 51.93C89.7575 52.1202 89.9653 52.3962 90.1095 52.758C90.2551 53.1199 90.328 53.5569 90.328 54.0691C90.328 54.5843 90.2551 55.0243 90.1095 55.3893C89.9653 55.7527 89.7575 56.0302 89.4861 56.2219C89.2163 56.4135 88.892 56.5094 88.5132 56.5094ZM88.5132 55.7895C88.8076 55.7895 89.0399 55.6446 89.2101 55.3548C89.3819 55.0634 89.4677 54.6349 89.4677 54.0691C89.4677 53.6949 89.4286 53.3806 89.3504 53.126C89.2722 52.8715 89.1618 52.6798 89.0192 52.551C88.8766 52.4207 88.708 52.3555 88.5132 52.3555C88.2204 52.3555 87.9888 52.5012 87.8186 52.7925C87.6484 53.0823 87.5626 53.5079 87.561 54.0691C87.5595 54.4447 87.5971 54.7606 87.6737 55.0167C87.7519 55.2727 87.8623 55.4659 88.0049 55.5963C88.1475 55.7251 88.317 55.7895 88.5132 55.7895ZM91.1013 56.4197V52.8868H91.8971V53.4872H91.9385C92.0121 53.2847 92.134 53.1268 92.3042 53.0133C92.4744 52.8983 92.6776 52.8408 92.9138 52.8408C93.153 52.8408 93.3546 52.8991 93.5187 53.0156C93.6843 53.1306 93.8008 53.2878 93.8683 53.4872H93.9051C93.9833 53.2909 94.1151 53.1345 94.3007 53.0179C94.4877 52.8999 94.7093 52.8408 94.9654 52.8408C95.2904 52.8408 95.5557 52.9436 95.7612 53.149C95.9666 53.3545 96.0694 53.6543 96.0694 54.0484V56.4197H95.2345V54.1772C95.2345 53.9579 95.1762 53.7977 95.0597 53.6965C94.9431 53.5937 94.8005 53.5424 94.6319 53.5424C94.431 53.5424 94.2738 53.6052 94.1604 53.731C94.0484 53.8552 93.9925 54.0169 93.9925 54.2163V56.4197H93.176V54.1427C93.176 53.9602 93.1208 53.8145 93.0104 53.7057C92.9015 53.5968 92.7589 53.5424 92.5825 53.5424C92.4629 53.5424 92.3541 53.573 92.2559 53.6344C92.1578 53.6942 92.0796 53.7793 92.0213 53.8897C91.9631 53.9985 91.9339 54.1258 91.9339 54.2715V56.4197H91.1013ZM97.7467 51.7092V56.4197H96.9141V51.7092H97.7467Z" fill="#878C90"/>
<path d="M212.356 40.8536V40.2513H214.902V40.8536H212.356ZM216.066 40.8536V40.2513H218.611V40.8536H216.066ZM219.776 40.8536V40.2513H222.321V40.8536H219.776ZM223.485 40.8536V40.2513H226.031V40.8536H223.485ZM227.195 40.8536V40.2513H229.74V40.8536H227.195ZM230.905 40.8536V40.2513H233.45V40.8536H230.905ZM234.614 40.8536V40.2513H237.16V40.8536H234.614ZM238.324 40.8536V40.2513H240.869V40.8536H238.324ZM242.034 40.8536V40.2513H244.579V40.8536H242.034ZM245.743 40.8536V40.2513H248.289V40.8536H245.743ZM249.453 40.8536V40.2513H251.998V40.8536H249.453ZM253.162 40.8536V40.2513H255.708V40.8536H253.162ZM256.872 40.8536V40.2513H259.418V40.8536H256.872ZM260.582 40.8536V40.2513H263.127V40.8536H260.582ZM264.291 40.8536V40.2513H266.837V40.8536H264.291ZM268.001 40.8536V40.2513H270.546V40.8536H268.001ZM271.711 40.8536V40.2513H274.256V40.8536H271.711ZM275.42 40.8536V40.2513H277.966V40.8536H275.42ZM279.13 40.8536V40.2513H281.675V40.8536H279.13ZM282.84 40.8536V40.2513H285.385V40.8536H282.84ZM286.549 40.8536V40.2513H289.095V40.8536H286.549ZM290.259 40.8536V40.2513H292.804V40.8536H290.259ZM293.969 40.8536V40.2513H296.514V40.8536H293.969ZM297.678 40.8536V40.2513H300.224V40.8536H297.678ZM301.388 40.8536V40.2513H303.933V40.8536H301.388ZM305.097 40.8536V40.2513H307.643V40.8536H305.097ZM308.807 40.8536V40.2513H311.353V40.8536H308.807ZM312.517 40.8536V40.2513H315.062V40.8536H312.517ZM316.226 40.8536V40.2513H318.772V40.8536H316.226ZM319.936 40.8536V40.2513H322.481V40.8536H319.936ZM323.646 40.8536V40.2513H326.191V40.8536H323.646ZM327.355 40.8536V40.2513H329.901V40.8536H327.355ZM331.065 40.8536V40.2513H333.61V40.8536H331.065ZM334.775 40.8536V40.2513H337.32V40.8536H334.775Z" fill="#8F8E8E"/>
<rect x="337.667" y="21.637" width="50.1956" height="37.2419" rx="5.26245" fill="#F1F3F2" stroke="#ADB4B7" stroke-width="0.809607"/>
<path d="M354.448 39.863C354.448 38.192 354.768 36.8756 355.41 35.9138C356.061 34.952 357.105 34.471 358.543 34.471C359.981 34.471 361.02 34.952 361.661 35.9138C362.312 36.8756 362.638 38.192 362.638 39.863C362.638 41.5535 362.312 42.8796 361.661 43.8414C361.02 44.8033 359.981 45.2842 358.543 45.2842C357.105 45.2842 356.061 44.8033 355.41 43.8414C354.768 42.8796 354.448 41.5535 354.448 39.863ZM360.19 39.863C360.19 38.8818 360.083 38.1289 359.869 37.6042C359.655 37.0699 359.213 36.8027 358.543 36.8027C357.872 36.8027 357.43 37.0699 357.217 37.6042C357.003 38.1289 356.896 38.8818 356.896 39.863C356.896 40.5237 356.935 41.0726 357.013 41.5098C357.09 41.9372 357.246 42.287 357.479 42.559C357.722 42.8213 358.076 42.9525 358.543 42.9525C359.009 42.9525 359.359 42.8213 359.592 42.559C359.835 42.287 359.995 41.9372 360.073 41.5098C360.151 41.0726 360.19 40.5237 360.19 39.863ZM364.042 37.6917C364.081 36.6521 364.421 35.8506 365.062 35.2871C365.703 34.7236 366.573 34.4419 367.67 34.4419C368.399 34.4419 369.021 34.5682 369.536 34.8208C370.06 35.0734 370.454 35.4183 370.716 35.8555C370.988 36.2927 371.124 36.7833 371.124 37.3273C371.124 37.9686 370.964 38.4932 370.643 38.9012C370.323 39.2995 369.949 39.5716 369.521 39.7173V39.7756C370.075 39.9602 370.512 40.2662 370.833 40.6937C371.153 41.1212 371.314 41.6701 371.314 42.3404C371.314 42.9428 371.173 43.4771 370.891 43.9435C370.619 44.4001 370.216 44.7595 369.682 45.0218C369.157 45.2842 368.53 45.4153 367.802 45.4153C366.636 45.4153 365.703 45.1287 365.004 44.5555C364.314 43.9823 363.95 43.1177 363.911 41.9615H366.33C366.339 42.389 366.461 42.729 366.694 42.9816C366.927 43.2245 367.267 43.346 367.714 43.346C368.093 43.346 368.385 43.2391 368.589 43.0254C368.802 42.8019 368.909 42.5104 368.909 42.151C368.909 41.6846 368.759 41.3495 368.457 41.1454C368.166 40.9317 367.695 40.8248 367.044 40.8248H366.577V38.7992H367.044C367.539 38.7992 367.938 38.7166 368.239 38.5515C368.55 38.3766 368.705 38.0706 368.705 37.6334C368.705 37.2836 368.608 37.0116 368.414 36.8173C368.219 36.623 367.952 36.5258 367.612 36.5258C367.243 36.5258 366.966 36.6376 366.782 36.861C366.607 37.0845 366.505 37.3613 366.475 37.6917H364.042Z" fill="#36404B"/>
<defs>
<filter id="filter0_d_1139_85" x="0.000161171" y="6.48499e-05" width="419.203" height="86.0949" filterUnits="userSpaceOnUse" color-interpolation-filters="sRGB">
<feFlood flood-opacity="0" result="BackgroundImageFix"/>
<feColorMatrix in="SourceAlpha" type="matrix" values="0 0 0 0 0 0 0 0 0 0 0 0 0 0 0 0 0 0 127 0" result="hardAlpha"/>
<feOffset dy="3.23843"/>
<feGaussianBlur stdDeviation="6.8007"/>
<feComposite in2="hardAlpha" operator="out"/>
<feColorMatrix type="matrix" values="0 0 0 0 0 0 0 0 0 0 0 0 0 0 0 0 0 0 0.17 0"/>
<feBlend mode="normal" in2="BackgroundImageFix" result="effect1_dropShadow_1139_85"/>
<feBlend mode="normal" in="SourceGraphic" in2="effect1_dropShadow_1139_85" result="shape"/>
</filter>
</defs>
</svg>
