<svg width="420" height="86" viewBox="0 0 420 86" fill="none" xmlns="http://www.w3.org/2000/svg">
<g filter="url(#filter0_d_1139_75)">
<rect x="13.6016" y="10.363" width="392" height="57.9718" rx="10.5249" fill="#FEFFFE"/>
</g>
<circle cx="43.3389" cy="37.696" r="21.0498" fill="#D9F2EE"/>
<circle cx="43.5575" cy="37.6959" r="17.8114" fill="#0C2461"/>
<path d="M40.281 44.8199C39.5718 44.8199 38.9791 44.679 38.5031 44.3973C38.027 44.1058 37.6676 43.7075 37.4247 43.2023C37.1818 42.6971 37.0604 42.1093 37.0604 41.439V36.0907C37.0604 35.4009 37.1721 34.7986 37.3956 34.2837C37.6287 33.7591 37.9833 33.351 38.4594 33.0596C38.9354 32.7681 39.5426 32.6224 40.281 32.6224C41.0194 32.6224 41.6217 32.7681 42.088 33.0596C42.5641 33.351 42.9138 33.7591 43.1373 34.2837C43.3705 34.7986 43.487 35.4009 43.487 36.0907V41.439C43.487 42.0996 43.3656 42.6874 43.1227 43.2023C42.8798 43.7075 42.5204 44.1058 42.0443 44.3973C41.5683 44.679 40.9805 44.8199 40.281 44.8199ZM40.281 42.6485C40.5142 42.6485 40.6793 42.5757 40.7765 42.43C40.8833 42.2745 40.9465 42.0996 40.9659 41.9053C40.9951 41.7013 41.0096 41.5264 41.0096 41.3807V36.149C41.0096 35.9839 40.9999 35.7993 40.9805 35.5952C40.9611 35.3815 40.8979 35.1969 40.791 35.0415C40.6939 34.8763 40.5239 34.7937 40.281 34.7937C40.0381 34.7937 39.8632 34.8763 39.7564 35.0415C39.6592 35.1969 39.6009 35.3815 39.5815 35.5952C39.5621 35.7993 39.5523 35.9839 39.5523 36.149V41.3807C39.5523 41.5264 39.5669 41.7013 39.5961 41.9053C39.6252 42.0996 39.6884 42.2745 39.7855 42.43C39.8924 42.5757 40.0575 42.6485 40.281 42.6485ZM45.1747 44.6013V42.8817L48.0018 38.539C48.2155 38.2184 48.4147 37.9075 48.5993 37.6063C48.7936 37.3051 48.949 36.9991 49.0656 36.6882C49.1919 36.3773 49.2551 36.0519 49.2551 35.7118C49.2551 35.3718 49.1871 35.1192 49.0511 34.954C48.915 34.7889 48.7304 34.7063 48.4973 34.7063C48.235 34.7063 48.0309 34.7792 47.8852 34.9249C47.7395 35.0706 47.6375 35.2649 47.5792 35.5078C47.5306 35.7507 47.5063 36.0227 47.5063 36.3239V36.9068H45.1455V36.2802C45.1455 35.5807 45.2572 34.9589 45.4807 34.4148C45.7041 33.8611 46.0587 33.4287 46.5445 33.1178C47.0303 32.7972 47.6666 32.6369 48.4536 32.6369C49.5125 32.6369 50.3092 32.9138 50.8435 33.4676C51.3876 34.0117 51.6596 34.7743 51.6596 35.7555C51.6596 36.2316 51.5819 36.6736 51.4264 37.0817C51.2807 37.4897 51.0815 37.8881 50.829 38.2767C50.5861 38.6556 50.3238 39.0539 50.042 39.4716L47.8852 42.6923H51.339V44.6013H45.1747Z" fill="#FEFFFE"/>
<path d="M75.293 32.1248V22.9438H77.4919C78.1115 22.9438 78.6329 23.0194 79.056 23.1705C79.4867 23.3141 79.8117 23.5634 80.0308 23.9186C80.2575 24.2737 80.3708 24.7573 80.3708 25.3694C80.3708 25.7397 80.3368 26.0721 80.2688 26.3668C80.2008 26.6615 80.0837 26.9147 79.9174 27.1262C79.7588 27.3303 79.5358 27.4889 79.2487 27.6023L80.5295 32.1248H78.852L77.7412 27.9197H76.9705V32.1248H75.293ZM76.9705 26.8655H77.4919C77.8168 26.8655 78.0737 26.8202 78.2626 26.7295C78.4591 26.6313 78.5989 26.4802 78.682 26.2762C78.7651 26.0646 78.8067 25.7963 78.8067 25.4714C78.8067 25.0105 78.7198 24.6667 78.546 24.44C78.3797 24.2057 78.0586 24.0886 77.5825 24.0886H76.9705V26.8655ZM84.0737 32.2494C83.4238 32.2494 82.9062 32.1285 82.5208 31.8867C82.1355 31.6449 81.8597 31.2973 81.6934 30.844C81.5272 30.3906 81.4441 29.8541 81.4441 29.2345V25.8001C81.4441 25.1805 81.5272 24.6515 81.6934 24.2133C81.8597 23.7674 82.1355 23.4274 82.5208 23.1932C82.9062 22.9589 83.4238 22.8418 84.0737 22.8418C84.7386 22.8418 85.26 22.9589 85.6378 23.1932C86.0232 23.4274 86.299 23.7674 86.4652 24.2133C86.639 24.6515 86.7259 25.1805 86.7259 25.8001V29.2458C86.7259 29.8579 86.639 30.3906 86.4652 30.844C86.299 31.2898 86.0232 31.6374 85.6378 31.8867C85.26 32.1285 84.7386 32.2494 84.0737 32.2494ZM84.0737 31.014C84.3532 31.014 84.5573 30.9535 84.6857 30.8326C84.8217 30.7117 84.9124 30.5455 84.9578 30.3339C85.0031 30.1223 85.0258 29.8919 85.0258 29.6425V25.4147C85.0258 25.1578 85.0031 24.9273 84.9578 24.7233C84.9124 24.5193 84.8217 24.3606 84.6857 24.2473C84.5573 24.1264 84.3532 24.0659 84.0737 24.0659C83.8092 24.0659 83.6089 24.1264 83.4729 24.2473C83.3369 24.3606 83.2462 24.5193 83.2009 24.7233C83.1556 24.9273 83.1329 25.1578 83.1329 25.4147V29.6425C83.1329 29.8919 83.1518 30.1223 83.1896 30.3339C83.2349 30.5455 83.3256 30.7117 83.4616 30.8326C83.5976 30.9535 83.8016 31.014 84.0737 31.014ZM90.4831 32.2494C89.803 32.2494 89.274 32.1248 88.8962 31.8754C88.5184 31.626 88.2577 31.2709 88.1141 30.81C87.9706 30.349 87.8988 29.7974 87.8988 29.1551V22.9438H89.531V29.3478C89.531 29.6349 89.5499 29.907 89.5876 30.1639C89.6254 30.4132 89.7123 30.6173 89.8483 30.776C89.9919 30.9271 90.2035 31.0026 90.4831 31.0026C90.7778 31.0026 90.9893 30.9271 91.1178 30.776C91.2538 30.6173 91.3407 30.4132 91.3785 30.1639C91.4238 29.907 91.4465 29.6349 91.4465 29.3478V22.9438H93.0673V29.1551C93.0673 29.7974 92.9955 30.349 92.852 30.81C92.7084 31.2709 92.4477 31.626 92.0699 31.8754C91.6996 32.1248 91.1707 32.2494 90.4831 32.2494ZM94.3867 32.1248V22.9438H95.5542L97.7871 28.1803V22.9438H99.1699V32.1248H98.0591L95.8149 26.6389V32.1248H94.3867ZM100.563 32.1248V22.9438H102.728C103.476 22.9438 104.058 23.0458 104.474 23.2498C104.897 23.4539 105.195 23.7674 105.369 24.1906C105.55 24.6138 105.641 25.1503 105.641 25.8001V29.1551C105.641 29.8201 105.55 30.3755 105.369 30.8213C105.195 31.2596 104.9 31.5883 104.485 31.8074C104.077 32.019 103.514 32.1248 102.796 32.1248H100.563ZM102.241 30.9573H102.751C103.136 30.9573 103.412 30.8893 103.578 30.7533C103.744 30.6173 103.846 30.4208 103.884 30.1639C103.922 29.8994 103.941 29.5783 103.941 29.2005V25.6868C103.941 25.3165 103.914 25.018 103.861 24.7913C103.809 24.5646 103.699 24.3984 103.533 24.2926C103.367 24.1868 103.098 24.1339 102.728 24.1339H102.241V30.9573ZM111.941 32.2494C111.389 32.2494 110.928 32.1436 110.558 31.9321C110.188 31.7129 109.908 31.3956 109.719 30.98C109.53 30.5644 109.425 30.0543 109.402 29.4498L110.841 29.1665C110.856 29.5216 110.898 29.8352 110.966 30.1072C111.042 30.3792 111.151 30.5908 111.295 30.7419C111.446 30.8855 111.642 30.9573 111.884 30.9573C112.156 30.9573 112.349 30.878 112.462 30.7193C112.576 30.553 112.632 30.3452 112.632 30.0959C112.632 29.6954 112.542 29.3667 112.36 29.1098C112.179 28.8529 111.937 28.5959 111.635 28.339L110.479 27.3189C110.154 27.0393 109.893 26.7295 109.697 26.3895C109.508 26.0419 109.413 25.615 109.413 25.1087C109.413 24.3833 109.625 23.8241 110.048 23.4312C110.471 23.0383 111.049 22.8418 111.782 22.8418C112.213 22.8418 112.572 22.9098 112.859 23.0458C113.146 23.1743 113.373 23.3556 113.539 23.5899C113.713 23.8241 113.841 24.0924 113.924 24.3946C114.007 24.6893 114.06 25.0029 114.083 25.3354L112.655 25.5847C112.64 25.2976 112.606 25.0407 112.553 24.814C112.507 24.5873 112.421 24.4097 112.292 24.2813C112.171 24.1528 111.99 24.0886 111.748 24.0886C111.499 24.0886 111.306 24.1717 111.17 24.338C111.042 24.4966 110.977 24.6969 110.977 24.9387C110.977 25.2485 111.042 25.5054 111.17 25.7094C111.298 25.9059 111.484 26.1099 111.725 26.3215L112.87 27.3303C113.248 27.6476 113.569 28.0217 113.834 28.4524C114.106 28.8755 114.242 29.3894 114.242 29.9939C114.242 30.4321 114.143 30.8213 113.947 31.1613C113.758 31.5014 113.49 31.7696 113.142 31.9661C112.802 32.155 112.402 32.2494 111.941 32.2494ZM119.707 33.9496C119.518 33.8589 119.314 33.7229 119.094 33.5416C118.883 33.3602 118.671 33.1524 118.46 32.9182C118.256 32.6915 118.078 32.4648 117.927 32.2381C117.897 32.2457 117.863 32.2494 117.825 32.2494C117.795 32.2494 117.761 32.2494 117.723 32.2494C117.073 32.2494 116.556 32.1285 116.17 31.8867C115.785 31.6449 115.509 31.2973 115.343 30.844C115.176 30.3906 115.093 29.8541 115.093 29.2345V25.8001C115.093 25.1805 115.176 24.6515 115.343 24.2133C115.509 23.7674 115.785 23.4274 116.17 23.1932C116.556 22.9589 117.073 22.8418 117.723 22.8418C118.388 22.8418 118.913 22.9589 119.298 23.1932C119.684 23.4274 119.96 23.7674 120.126 24.2133C120.292 24.6515 120.375 25.1805 120.375 25.8001V29.2458C120.375 29.6841 120.334 30.0808 120.251 30.4359C120.167 30.7911 120.031 31.1009 119.843 31.3653C119.654 31.6223 119.404 31.8225 119.094 31.9661C119.193 32.0719 119.295 32.1814 119.4 32.2948C119.506 32.4081 119.612 32.5139 119.718 32.6121C119.824 32.7104 119.926 32.7897 120.024 32.8502L119.707 33.9496ZM117.723 31.014C118.003 31.014 118.21 30.9535 118.346 30.8326C118.482 30.7117 118.573 30.5455 118.618 30.3339C118.664 30.1223 118.686 29.8919 118.686 29.6425V25.4147C118.686 25.1578 118.664 24.9273 118.618 24.7233C118.573 24.5193 118.482 24.3606 118.346 24.2473C118.21 24.1264 118.003 24.0659 117.723 24.0659C117.451 24.0659 117.247 24.1264 117.111 24.2473C116.975 24.3606 116.884 24.5193 116.839 24.7233C116.801 24.9273 116.782 25.1578 116.782 25.4147V29.6425C116.782 29.8919 116.801 30.1223 116.839 30.3339C116.884 30.5455 116.975 30.7117 117.111 30.8326C117.247 30.9535 117.451 31.014 117.723 31.014ZM124.143 32.2494C123.463 32.2494 122.934 32.1248 122.557 31.8754C122.179 31.626 121.918 31.2709 121.775 30.81C121.631 30.349 121.559 29.7974 121.559 29.1551V22.9438H123.191V29.3478C123.191 29.6349 123.21 29.907 123.248 30.1639C123.286 30.4132 123.373 30.6173 123.509 30.776C123.652 30.9271 123.864 31.0026 124.143 31.0026C124.438 31.0026 124.65 30.9271 124.778 30.776C124.914 30.6173 125.001 30.4132 125.039 30.1639C125.084 29.907 125.107 29.6349 125.107 29.3478V22.9438H126.728V29.1551C126.728 29.7974 126.656 30.349 126.512 30.81C126.369 31.2709 126.108 31.626 125.73 31.8754C125.36 32.1248 124.831 32.2494 124.143 32.2494ZM127.516 32.1248L129.352 22.9438H131.143L132.979 32.1248H131.426L131.064 30.0052H129.466L129.091 32.1248H127.516ZM129.636 28.9398H130.882L130.259 25.086L129.636 28.9398ZM133.903 32.1248V22.9438H136.101C136.721 22.9438 137.242 23.0194 137.666 23.1705C138.096 23.3141 138.421 23.5634 138.64 23.9186C138.867 24.2737 138.98 24.7573 138.98 25.3694C138.98 25.7397 138.946 26.0721 138.878 26.3668C138.81 26.6615 138.693 26.9147 138.527 27.1262C138.368 27.3303 138.145 27.4889 137.858 27.6023L139.139 32.1248H137.462L136.351 27.9197H135.58V32.1248H133.903ZM135.58 26.8655H136.101C136.426 26.8655 136.683 26.8202 136.872 26.7295C137.069 26.6313 137.208 26.4802 137.292 26.2762C137.375 26.0646 137.416 25.7963 137.416 25.4714C137.416 25.0105 137.329 24.6667 137.156 24.44C136.989 24.2057 136.668 24.0886 136.192 24.0886H135.58V26.8655ZM140.256 32.1248V22.9438H144.11V24.1226H141.934V26.7635H143.645V27.931H141.934V30.9686H144.132V32.1248H140.256Z" fill="#0C2461"/>
<path d="M76.7107 45.4548C76.3795 45.4548 76.0851 45.398 75.8275 45.2846C75.5714 45.1711 75.369 45.0132 75.2203 44.8108C75.0715 44.6084 74.9926 44.3745 74.9834 44.1093H75.8482C75.8558 44.2365 75.898 44.3477 75.9747 44.4428C76.0513 44.5363 76.1533 44.6091 76.2806 44.6613C76.4078 44.7134 76.5504 44.7395 76.7084 44.7395C76.877 44.7395 77.0266 44.7103 77.1569 44.6521C77.2872 44.5923 77.3892 44.5095 77.4628 44.4037C77.5364 44.2979 77.5724 44.176 77.5709 44.038C77.5724 43.8954 77.5356 43.7696 77.4605 43.6608C77.3854 43.5519 77.2765 43.4668 77.1339 43.4055C76.9928 43.3441 76.8226 43.3135 76.6233 43.3135H76.207V42.6557H76.6233C76.7873 42.6557 76.9307 42.6273 77.0534 42.5706C77.1776 42.5138 77.275 42.4341 77.3455 42.3314C77.416 42.2271 77.4505 42.1067 77.449 41.9703C77.4505 41.8368 77.4206 41.7211 77.3593 41.6229C77.2995 41.5233 77.2144 41.4458 77.104 41.3906C76.9951 41.3354 76.8671 41.3078 76.7199 41.3078C76.5757 41.3078 76.4423 41.3339 76.3197 41.386C76.197 41.4382 76.0981 41.5125 76.023 41.6091C75.9478 41.7042 75.908 41.8177 75.9034 41.9495H75.0823C75.0884 41.6858 75.1643 41.4543 75.31 41.2549C75.4572 41.0541 75.6534 40.8977 75.8988 40.7857C76.1441 40.6723 76.4193 40.6155 76.7245 40.6155C77.0388 40.6155 77.3118 40.6746 77.5433 40.7926C77.7764 40.9092 77.9565 41.0663 78.0838 41.2641C78.2111 41.4619 78.2747 41.6804 78.2747 41.9196C78.2762 42.1849 78.198 42.4073 78.0401 42.5867C77.8837 42.7661 77.6782 42.8834 77.4237 42.9386V42.9754C77.7549 43.0214 78.0087 43.144 78.185 43.3434C78.3629 43.5412 78.451 43.7873 78.4495 44.0817C78.4495 44.3454 78.3744 44.5815 78.2241 44.7901C78.0754 44.9971 77.8699 45.1596 77.6077 45.2777C77.347 45.3957 77.048 45.4548 76.7107 45.4548ZM80.9801 45.4801C80.6014 45.4801 80.2763 45.3842 80.0049 45.1926C79.735 44.9994 79.5272 44.7211 79.3816 44.3577C79.2374 43.9927 79.1654 43.5534 79.1654 43.0398C79.1669 42.5261 79.2397 42.0891 79.3839 41.7287C79.5295 41.3669 79.7373 41.0909 80.0072 40.9007C80.2786 40.7106 80.6029 40.6155 80.9801 40.6155C81.3573 40.6155 81.6816 40.7106 81.953 40.9007C82.2244 41.0909 82.4322 41.3669 82.5763 41.7287C82.722 42.0906 82.7948 42.5276 82.7948 43.0398C82.7948 43.555 82.722 43.995 82.5763 44.36C82.4322 44.7234 82.2244 45.0009 81.953 45.1926C81.6831 45.3842 81.3588 45.4801 80.9801 45.4801ZM80.9801 44.7602C81.2745 44.7602 81.5068 44.6153 81.677 44.3255C81.8487 44.0341 81.9346 43.6056 81.9346 43.0398C81.9346 42.6656 81.8955 42.3513 81.8173 42.0968C81.7391 41.8422 81.6287 41.6505 81.4861 41.5217C81.3435 41.3914 81.1748 41.3262 80.9801 41.3262C80.6872 41.3262 80.4557 41.4719 80.2855 41.7632C80.1153 42.0531 80.0294 42.4786 80.0279 43.0398C80.0264 43.4154 80.0639 43.7313 80.1406 43.9874C80.2188 44.2434 80.3292 44.4366 80.4718 44.567C80.6144 44.6958 80.7838 44.7602 80.9801 44.7602ZM85.3001 45.4801C84.9214 45.4801 84.5963 45.3842 84.3249 45.1926C84.055 44.9994 83.8473 44.7211 83.7016 44.3577C83.5575 43.9927 83.4854 43.5534 83.4854 43.0398C83.4869 42.5261 83.5598 42.0891 83.7039 41.7287C83.8496 41.3669 84.0573 41.0909 84.3272 40.9007C84.5986 40.7106 84.9229 40.6155 85.3001 40.6155C85.6773 40.6155 86.0016 40.7106 86.273 40.9007C86.5444 41.0909 86.7522 41.3669 86.8963 41.7287C87.042 42.0906 87.1148 42.5276 87.1148 43.0398C87.1148 43.555 87.042 43.995 86.8963 44.36C86.7522 44.7234 86.5444 45.0009 86.273 45.1926C86.0031 45.3842 85.6788 45.4801 85.3001 45.4801ZM85.3001 44.7602C85.5945 44.7602 85.8268 44.6153 85.997 44.3255C86.1688 44.0341 86.2546 43.6056 86.2546 43.0398C86.2546 42.6656 86.2155 42.3513 86.1373 42.0968C86.0591 41.8422 85.9487 41.6505 85.8061 41.5217C85.6635 41.3914 85.4948 41.3262 85.3001 41.3262C85.0072 41.3262 84.7757 41.4719 84.6055 41.7632C84.4353 42.0531 84.3494 42.4786 84.3479 43.0398C84.3464 43.4154 84.3839 43.7313 84.4606 43.9874C84.5388 44.2434 84.6492 44.4366 84.7918 44.567C84.9344 44.6958 85.1038 44.7602 85.3001 44.7602ZM87.8882 45.3904V41.8575H88.684V42.4579H88.7254C88.799 42.2555 88.9209 42.0975 89.0911 41.9841C89.2613 41.869 89.4645 41.8115 89.7006 41.8115C89.9398 41.8115 90.1415 41.8698 90.3055 41.9864C90.4711 42.1014 90.5877 42.2585 90.6551 42.4579H90.6919C90.7701 42.2616 90.902 42.1052 91.0875 41.9887C91.2746 41.8706 91.4962 41.8115 91.7522 41.8115C92.0773 41.8115 92.3426 41.9143 92.548 42.1198C92.7535 42.3252 92.8563 42.625 92.8563 43.0191V45.3904H92.0213V43.1479C92.0213 42.9286 91.9631 42.7684 91.8465 42.6672C91.73 42.5644 91.5874 42.5131 91.4187 42.5131C91.2179 42.5131 91.0607 42.5759 90.9472 42.7017C90.8353 42.8259 90.7793 42.9876 90.7793 43.187V45.3904H89.9628V43.1134C89.9628 42.9309 89.9076 42.7852 89.7972 42.6764C89.6884 42.5675 89.5458 42.5131 89.3694 42.5131C89.2498 42.5131 89.141 42.5437 89.0428 42.6051C88.9447 42.6649 88.8665 42.75 88.8082 42.8604C88.7499 42.9692 88.7208 43.0965 88.7208 43.2422V45.3904H87.8882ZM94.5335 40.6799V45.3904H93.7009V40.6799H94.5335ZM96.3672 44.7464L96.3373 44.9994C96.3159 45.1926 96.2775 45.3888 96.2223 45.5882C96.1687 45.7891 96.1119 45.9738 96.0521 46.1425C95.9923 46.3112 95.944 46.4438 95.9072 46.5404H95.346C95.3675 46.4469 95.3966 46.3196 95.4334 46.1586C95.4718 45.9976 95.5086 45.8167 95.5438 45.6158C95.5791 45.4149 95.6029 45.211 95.6151 45.004L95.6312 44.7464H96.3672ZM100.389 45.4548C100.083 45.4548 99.8083 45.3973 99.566 45.2823C99.3237 45.1657 99.1313 45.0063 98.9887 44.8039C98.8476 44.6015 98.7725 44.3699 98.7633 44.1093H99.5913C99.6066 44.3025 99.6902 44.4604 99.842 44.5831C99.9938 44.7042 100.176 44.7648 100.389 44.7648C100.557 44.7648 100.705 44.7264 100.836 44.6498C100.966 44.5731 101.069 44.4665 101.144 44.3301C101.219 44.1936 101.256 44.038 101.254 43.8632C101.256 43.6853 101.218 43.5274 101.142 43.3894C101.065 43.2514 100.96 43.1433 100.826 43.0651C100.693 42.9853 100.54 42.9455 100.366 42.9455C100.225 42.9439 100.087 42.97 99.9501 43.0237C99.8136 43.0773 99.7055 43.1479 99.6258 43.2353L98.8553 43.1088L99.1014 40.6799H101.834V41.3929H99.8075L99.6718 42.6419H99.6994C99.7868 42.5391 99.9102 42.454 100.07 42.3866C100.229 42.3176 100.404 42.2831 100.594 42.2831C100.879 42.2831 101.134 42.3505 101.358 42.4855C101.582 42.6189 101.758 42.8029 101.887 43.0375C102.016 43.2721 102.08 43.5404 102.08 43.8425C102.08 44.1537 102.008 44.4313 101.864 44.6751C101.721 44.9173 101.523 45.1082 101.268 45.2478C101.015 45.3858 100.722 45.4548 100.389 45.4548ZM104.592 45.4801C104.213 45.4801 103.888 45.3842 103.616 45.1926C103.346 44.9994 103.139 44.7211 102.993 44.3577C102.849 43.9927 102.777 43.5534 102.777 43.0398C102.778 42.5261 102.851 42.0891 102.995 41.7287C103.141 41.3669 103.349 41.0909 103.619 40.9007C103.89 40.7106 104.214 40.6155 104.592 40.6155C104.969 40.6155 105.293 40.7106 105.564 40.9007C105.836 41.0909 106.044 41.3669 106.188 41.7287C106.333 42.0906 106.406 42.5276 106.406 43.0398C106.406 43.555 106.333 43.995 106.188 44.36C106.044 44.7234 105.836 45.0009 105.564 45.1926C105.295 45.3842 104.97 45.4801 104.592 45.4801ZM104.592 44.7602C104.886 44.7602 105.118 44.6153 105.288 44.3255C105.46 44.0341 105.546 43.6056 105.546 43.0398C105.546 42.6656 105.507 42.3513 105.429 42.0968C105.351 41.8422 105.24 41.6505 105.098 41.5217C104.955 41.3914 104.786 41.3262 104.592 41.3262C104.299 41.3262 104.067 41.4719 103.897 41.7632C103.727 42.0531 103.641 42.4786 103.639 43.0398C103.638 43.4154 103.675 43.7313 103.752 43.9874C103.83 44.2434 103.941 44.4366 104.083 44.567C104.226 44.6958 104.395 44.7602 104.592 44.7602ZM108.912 45.4801C108.533 45.4801 108.208 45.3842 107.936 45.1926C107.666 44.9994 107.459 44.7211 107.313 44.3577C107.169 43.9927 107.097 43.5534 107.097 43.0398C107.098 42.5261 107.171 42.0891 107.315 41.7287C107.461 41.3669 107.669 41.0909 107.939 40.9007C108.21 40.7106 108.534 40.6155 108.912 40.6155C109.289 40.6155 109.613 40.7106 109.884 40.9007C110.156 41.0909 110.364 41.3669 110.508 41.7287C110.653 42.0906 110.726 42.5276 110.726 43.0398C110.726 43.555 110.653 43.995 110.508 44.36C110.364 44.7234 110.156 45.0009 109.884 45.1926C109.615 45.3842 109.29 45.4801 108.912 45.4801ZM108.912 44.7602C109.206 44.7602 109.438 44.6153 109.608 44.3255C109.78 44.0341 109.866 43.6056 109.866 43.0398C109.866 42.6656 109.827 42.3513 109.749 42.0968C109.671 41.8422 109.56 41.6505 109.418 41.5217C109.275 41.3914 109.106 41.3262 108.912 41.3262C108.619 41.3262 108.387 41.4719 108.217 41.7632C108.047 42.0531 107.961 42.4786 107.959 43.0398C107.958 43.4154 107.995 43.7313 108.072 43.9874C108.15 44.2434 108.261 44.4366 108.403 44.567C108.546 44.6958 108.715 44.7602 108.912 44.7602ZM111.5 45.3904V41.8575H112.295V42.4579H112.337C112.41 42.2555 112.532 42.0975 112.703 41.9841C112.873 41.869 113.076 41.8115 113.312 41.8115C113.551 41.8115 113.753 41.8698 113.917 41.9864C114.083 42.1014 114.199 42.2585 114.267 42.4579H114.303C114.382 42.2616 114.513 42.1052 114.699 41.9887C114.886 41.8706 115.108 41.8115 115.364 41.8115C115.689 41.8115 115.954 41.9143 116.159 42.1198C116.365 42.3252 116.468 42.625 116.468 43.0191V45.3904H115.633V43.1479C115.633 42.9286 115.575 42.7684 115.458 42.6672C115.341 42.5644 115.199 42.5131 115.03 42.5131C114.829 42.5131 114.672 42.5759 114.559 42.7017C114.447 42.8259 114.391 42.9876 114.391 43.187V45.3904H113.574V43.1134C113.574 42.9309 113.519 42.7852 113.409 42.6764C113.3 42.5675 113.157 42.5131 112.981 42.5131C112.861 42.5131 112.752 42.5437 112.654 42.6051C112.556 42.6649 112.478 42.75 112.42 42.8604C112.361 42.9692 112.332 43.0965 112.332 43.2422V45.3904H111.5ZM118.145 40.6799V45.3904H117.312V40.6799H118.145ZM119.979 44.7464L119.949 44.9994C119.927 45.1926 119.889 45.3888 119.834 45.5882C119.78 45.7891 119.723 45.9738 119.664 46.1425C119.604 46.3112 119.555 46.4438 119.519 46.5404H118.957C118.979 46.4469 119.008 46.3196 119.045 46.1586C119.083 45.9976 119.12 45.8167 119.155 45.6158C119.191 45.4149 119.214 45.211 119.227 45.004L119.243 44.7464H119.979ZM75.1927 56.3904L77.196 52.4251V52.3929H74.8707V51.6799H78.0792V52.409L76.0782 56.3904H75.1927ZM80.3959 56.4548C80.0892 56.4548 79.8148 56.3973 79.5725 56.2823C79.3302 56.1657 79.1378 56.0063 78.9952 55.8039C78.8541 55.6015 78.779 55.3699 78.7698 55.1093H79.5978C79.6131 55.3025 79.6967 55.4604 79.8485 55.5831C80.0003 55.7042 80.1828 55.7648 80.3959 55.7648C80.563 55.7648 80.7118 55.7264 80.8421 55.6498C80.9724 55.5731 81.0752 55.4665 81.1503 55.3301C81.2254 55.1936 81.2622 55.038 81.2607 54.8632C81.2622 54.6853 81.2247 54.5274 81.148 54.3894C81.0713 54.2514 80.9663 54.1433 80.8329 54.0651C80.6995 53.9853 80.5462 53.9455 80.3729 53.9455C80.2318 53.9439 80.0931 53.97 79.9566 54.0237C79.8201 54.0773 79.712 54.1479 79.6323 54.2353L78.8618 54.1088L79.1079 51.6799H81.8403V52.3929H79.814L79.6783 53.6419H79.7059C79.7933 53.5391 79.9167 53.454 80.0762 53.3866C80.2357 53.3176 80.4105 53.2831 80.6006 53.2831C80.8858 53.2831 81.1403 53.3505 81.3642 53.4855C81.5881 53.6189 81.7644 53.8029 81.8932 54.0375C82.022 54.2721 82.0864 54.5404 82.0864 54.8425C82.0864 55.1537 82.0143 55.4313 81.8702 55.6751C81.7276 55.9173 81.529 56.1082 81.2745 56.2478C81.0215 56.3858 80.7286 56.4548 80.3959 56.4548ZM84.598 56.4801C84.2193 56.4801 83.8942 56.3842 83.6228 56.1926C83.3529 55.9994 83.1452 55.7211 82.9995 55.3577C82.8554 54.9927 82.7833 54.5534 82.7833 54.0398C82.7848 53.5261 82.8577 53.0891 83.0018 52.7287C83.1475 52.3669 83.3552 52.0909 83.6251 51.9007C83.8965 51.7106 84.2208 51.6155 84.598 51.6155C84.9752 51.6155 85.2995 51.7106 85.5709 51.9007C85.8423 52.0909 86.0501 52.3669 86.1942 52.7287C86.3399 53.0906 86.4127 53.5276 86.4127 54.0398C86.4127 54.555 86.3399 54.995 86.1942 55.36C86.0501 55.7234 85.8423 56.0009 85.5709 56.1926C85.3011 56.3842 84.9768 56.4801 84.598 56.4801ZM84.598 55.7602C84.8924 55.7602 85.1247 55.6153 85.2949 55.3255C85.4667 55.0341 85.5525 54.6056 85.5525 54.0398C85.5525 53.6656 85.5134 53.3513 85.4352 53.0968C85.357 52.8422 85.2466 52.6505 85.104 52.5217C84.9614 52.3914 84.7928 52.3262 84.598 52.3262C84.3052 52.3262 84.0736 52.4719 83.9034 52.7632C83.7332 53.0531 83.6474 53.4786 83.6458 54.0398C83.6443 54.4154 83.6819 54.7313 83.7585 54.9874C83.8367 55.2434 83.9471 55.4366 84.0897 55.567C84.2323 55.6958 84.4018 55.7602 84.598 55.7602ZM87.1861 56.3904V52.8575H87.9819V53.4579H88.0233C88.0969 53.2555 88.2188 53.0975 88.389 52.9841C88.5592 52.869 88.7624 52.8115 88.9985 52.8115C89.2377 52.8115 89.4394 52.8698 89.6034 52.9864C89.769 53.1014 89.8856 53.2585 89.9531 53.4579H89.9899C90.0681 53.2616 90.1999 53.1052 90.3855 52.9887C90.5725 52.8706 90.7941 52.8115 91.0502 52.8115C91.3752 52.8115 91.6405 52.9143 91.846 53.1198C92.0514 53.3252 92.1542 53.625 92.1542 54.0191V56.3904H91.3193V54.1479C91.3193 53.9286 91.261 53.7684 91.1445 53.6672C91.0279 53.5644 90.8853 53.5131 90.7167 53.5131C90.5158 53.5131 90.3586 53.5759 90.2452 53.7017C90.1332 53.8259 90.0773 53.9876 90.0773 54.187V56.3904H89.2607V54.1134C89.2607 53.9309 89.2055 53.7852 89.0951 53.6764C88.9863 53.5675 88.8437 53.5131 88.6673 53.5131C88.5477 53.5131 88.4389 53.5437 88.3407 53.6051C88.2426 53.6649 88.1644 53.75 88.1061 53.8604C88.0479 53.9692 88.0187 54.0965 88.0187 54.2422V56.3904H87.1861ZM93.8315 51.6799V56.3904H92.9989V51.6799H93.8315ZM98.0583 52.8575V53.5016H96.0274V52.8575H98.0583ZM96.5288 52.0111H97.3614V55.3278C97.3614 55.4397 97.3783 55.5256 97.412 55.5854C97.4473 55.6436 97.4933 55.6835 97.55 55.705C97.6068 55.7264 97.6696 55.7372 97.7386 55.7372C97.7908 55.7372 97.8383 55.7333 97.8812 55.7257C97.9257 55.718 97.9594 55.7111 97.9824 55.705L98.1227 56.3559C98.0783 56.3712 98.0146 56.3881 97.9318 56.4065C97.8506 56.4249 97.7509 56.4356 97.6328 56.4387C97.4243 56.4448 97.2364 56.4134 97.0693 56.3444C96.9022 56.2738 96.7695 56.165 96.6714 56.0178C96.5748 55.8706 96.5273 55.6866 96.5288 55.4658V52.0111ZM99.7713 56.4617C99.5474 56.4617 99.3458 56.4218 99.1664 56.3421C98.9885 56.2608 98.8474 56.1412 98.7432 55.9833C98.6404 55.8253 98.5891 55.6306 98.5891 55.3991C98.5891 55.1997 98.6259 55.0349 98.6995 54.9046C98.7731 54.7742 98.8735 54.67 99.0008 54.5918C99.128 54.5136 99.2714 54.4545 99.4309 54.4147C99.5919 54.3733 99.7582 54.3434 99.93 54.325C100.137 54.3035 100.305 54.2843 100.434 54.2675C100.562 54.2491 100.656 54.2215 100.714 54.1847C100.774 54.1463 100.804 54.0873 100.804 54.0076V53.9938C100.804 53.8205 100.753 53.6863 100.65 53.5913C100.547 53.4962 100.399 53.4487 100.206 53.4487C100.002 53.4487 99.8403 53.4931 99.7207 53.5821C99.6026 53.671 99.5229 53.776 99.4815 53.8972L98.7041 53.7868C98.7654 53.5721 98.8666 53.3927 99.0077 53.2486C99.1487 53.1029 99.3212 52.994 99.5252 52.9219C99.7291 52.8483 99.9545 52.8115 100.201 52.8115C100.372 52.8115 100.541 52.8315 100.71 52.8713C100.878 52.9112 101.032 52.9772 101.172 53.0692C101.312 53.1596 101.423 53.2831 101.508 53.4395C101.594 53.5959 101.637 53.7914 101.637 54.026V56.3904H100.836V55.9051H100.809C100.758 56.0032 100.687 56.0952 100.595 56.1811C100.504 56.2654 100.39 56.3336 100.252 56.3858C100.116 56.4364 99.9553 56.4617 99.7713 56.4617ZM99.9875 55.8499C100.155 55.8499 100.3 55.8169 100.422 55.751C100.545 55.6835 100.639 55.5946 100.705 55.4842C100.773 55.3738 100.806 55.2534 100.806 55.1231V54.7068C100.78 54.7282 100.736 54.7482 100.673 54.7666C100.612 54.785 100.543 54.8011 100.466 54.8149C100.389 54.8287 100.313 54.8409 100.238 54.8517C100.163 54.8624 100.098 54.8716 100.043 54.8793C99.9185 54.8961 99.8073 54.9237 99.7092 54.9621C99.611 55.0004 99.5336 55.0541 99.4769 55.1231C99.4201 55.1905 99.3918 55.2779 99.3918 55.3853C99.3918 55.5386 99.4477 55.6544 99.5597 55.7326C99.6716 55.8108 99.8142 55.8499 99.9875 55.8499ZM103.306 51.6799V56.3904H102.474V51.6799H103.306ZM104.995 51.6799V56.3904H104.163V51.6799H104.995ZM106.829 55.7464L106.799 55.9994C106.778 56.1926 106.739 56.3888 106.684 56.5882C106.63 56.7891 106.574 56.9738 106.514 57.1425C106.454 57.3112 106.406 57.4438 106.369 57.5404H105.808C105.829 57.4469 105.858 57.3196 105.895 57.1586C105.933 56.9976 105.97 56.8167 106.005 56.6158C106.041 56.4149 106.065 56.211 106.077 56.004L106.093 55.7464H106.829ZM111.129 51.6799V56.3904H110.276V52.5102H110.248L109.147 53.2141V52.432L110.317 51.6799H111.129ZM114.066 56.4801C113.688 56.4801 113.363 56.3842 113.091 56.1926C112.821 55.9994 112.614 55.7211 112.468 55.3577C112.324 54.9927 112.252 54.5534 112.252 54.0398C112.253 53.5261 112.326 53.0891 112.47 52.7287C112.616 52.3669 112.824 52.0909 113.094 51.9007C113.365 51.7106 113.689 51.6155 114.066 51.6155C114.444 51.6155 114.768 51.7106 115.039 51.9007C115.311 52.0909 115.519 52.3669 115.663 52.7287C115.808 53.0906 115.881 53.5276 115.881 54.0398C115.881 54.555 115.808 54.995 115.663 55.36C115.519 55.7234 115.311 56.0009 115.039 56.1926C114.77 56.3842 114.445 56.4801 114.066 56.4801ZM114.066 55.7602C114.361 55.7602 114.593 55.6153 114.763 55.3255C114.935 55.0341 115.021 54.6056 115.021 54.0398C115.021 53.6656 114.982 53.3513 114.904 53.0968C114.825 52.8422 114.715 52.6505 114.572 52.5217C114.43 52.3914 114.261 52.3262 114.066 52.3262C113.774 52.3262 113.542 52.4719 113.372 52.7632C113.202 53.0531 113.116 53.4786 113.114 54.0398C113.113 54.4154 113.15 54.7313 113.227 54.9874C113.305 55.2434 113.416 55.4366 113.558 55.567C113.701 55.6958 113.87 55.7602 114.066 55.7602ZM118.386 56.4801C118.008 56.4801 117.683 56.3842 117.411 56.1926C117.141 55.9994 116.934 55.7211 116.788 55.3577C116.644 54.9927 116.572 54.5534 116.572 54.0398C116.573 53.5261 116.646 53.0891 116.79 52.7287C116.936 52.3669 117.144 52.0909 117.414 51.9007C117.685 51.7106 118.009 51.6155 118.386 51.6155C118.764 51.6155 119.088 51.7106 119.359 51.9007C119.631 52.0909 119.839 52.3669 119.983 52.7287C120.128 53.0906 120.201 53.5276 120.201 54.0398C120.201 54.555 120.128 54.995 119.983 55.36C119.839 55.7234 119.631 56.0009 119.359 56.1926C119.09 56.3842 118.765 56.4801 118.386 56.4801ZM118.386 55.7602C118.681 55.7602 118.913 55.6153 119.083 55.3255C119.255 55.0341 119.341 54.6056 119.341 54.0398C119.341 53.6656 119.302 53.3513 119.224 53.0968C119.145 52.8422 119.035 52.6505 118.892 52.5217C118.75 52.3914 118.581 52.3262 118.386 52.3262C118.094 52.3262 117.862 52.4719 117.692 52.7632C117.522 53.0531 117.436 53.4786 117.434 54.0398C117.433 54.4154 117.47 54.7313 117.547 54.9874C117.625 55.2434 117.736 55.4366 117.878 55.567C118.021 55.6958 118.19 55.7602 118.386 55.7602ZM122.706 56.4801C122.328 56.4801 122.003 56.3842 121.731 56.1926C121.461 55.9994 121.254 55.7211 121.108 55.3577C120.964 54.9927 120.892 54.5534 120.892 54.0398C120.893 53.5261 120.966 53.0891 121.11 52.7287C121.256 52.3669 121.464 52.0909 121.734 51.9007C122.005 51.7106 122.329 51.6155 122.706 51.6155C123.084 51.6155 123.408 51.7106 123.679 51.9007C123.951 52.0909 124.159 52.3669 124.303 52.7287C124.448 53.0906 124.521 53.5276 124.521 54.0398C124.521 54.555 124.448 54.995 124.303 55.36C124.159 55.7234 123.951 56.0009 123.679 56.1926C123.41 56.3842 123.085 56.4801 122.706 56.4801ZM122.706 55.7602C123.001 55.7602 123.233 55.6153 123.403 55.3255C123.575 55.0341 123.661 54.6056 123.661 54.0398C123.661 53.6656 123.622 53.3513 123.544 53.0968C123.466 52.8422 123.355 52.6505 123.212 52.5217C123.07 52.3914 122.901 52.3262 122.706 52.3262C122.414 52.3262 122.182 52.4719 122.012 52.7632C121.842 53.0531 121.756 53.4786 121.754 54.0398C121.753 54.4154 121.79 54.7313 121.867 54.9874C121.945 55.2434 122.056 55.4366 122.198 55.567C122.341 55.6958 122.51 55.7602 122.706 55.7602ZM125.295 56.3904V52.8575H126.09V53.4579H126.132C126.205 53.2555 126.327 53.0975 126.498 52.9841C126.668 52.869 126.871 52.8115 127.107 52.8115C127.346 52.8115 127.548 52.8698 127.712 52.9864C127.878 53.1014 127.994 53.2585 128.062 53.4579H128.098C128.177 53.2616 128.308 53.1052 128.494 52.9887C128.681 52.8706 128.903 52.8115 129.159 52.8115C129.484 52.8115 129.749 52.9143 129.954 53.1198C130.16 53.3252 130.263 53.625 130.263 54.0191V56.3904H129.428V54.1479C129.428 53.9286 129.369 53.7684 129.253 53.6672C129.136 53.5644 128.994 53.5131 128.825 53.5131C128.624 53.5131 128.467 53.5759 128.354 53.7017C128.242 53.8259 128.186 53.9876 128.186 54.187V56.3904H127.369V54.1134C127.369 53.9309 127.314 53.7852 127.204 53.6764C127.095 53.5675 126.952 53.5131 126.776 53.5131C126.656 53.5131 126.547 53.5437 126.449 53.6051C126.351 53.6649 126.273 53.75 126.215 53.8604C126.156 53.9692 126.127 54.0965 126.127 54.2422V56.3904H125.295ZM131.94 51.6799V56.3904H131.107V51.6799H131.94Z" fill="#878C90"/>
<path d="M212.356 40.3165V39.7142H214.902V40.3165H212.356ZM216.066 40.3165V39.7142H218.611V40.3165H216.066ZM219.776 40.3165V39.7142H222.321V40.3165H219.776ZM223.485 40.3165V39.7142H226.031V40.3165H223.485ZM227.195 40.3165V39.7142H229.74V40.3165H227.195ZM230.905 40.3165V39.7142H233.45V40.3165H230.905ZM234.614 40.3165V39.7142H237.16V40.3165H234.614ZM238.324 40.3165V39.7142H240.869V40.3165H238.324ZM242.034 40.3165V39.7142H244.579V40.3165H242.034ZM245.743 40.3165V39.7142H248.289V40.3165H245.743ZM249.453 40.3165V39.7142H251.998V40.3165H249.453ZM253.162 40.3165V39.7142H255.708V40.3165H253.162ZM256.872 40.3165V39.7142H259.418V40.3165H256.872ZM260.582 40.3165V39.7142H263.127V40.3165H260.582ZM264.291 40.3165V39.7142H266.837V40.3165H264.291ZM268.001 40.3165V39.7142H270.546V40.3165H268.001ZM271.711 40.3165V39.7142H274.256V40.3165H271.711ZM275.42 40.3165V39.7142H277.966V40.3165H275.42ZM279.13 40.3165V39.7142H281.675V40.3165H279.13ZM282.84 40.3165V39.7142H285.385V40.3165H282.84ZM286.549 40.3165V39.7142H289.095V40.3165H286.549ZM290.259 40.3165V39.7142H292.804V40.3165H290.259ZM293.969 40.3165V39.7142H296.514V40.3165H293.969ZM297.678 40.3165V39.7142H300.224V40.3165H297.678ZM301.388 40.3165V39.7142H303.933V40.3165H301.388ZM305.097 40.3165V39.7142H307.643V40.3165H305.097ZM308.807 40.3165V39.7142H311.353V40.3165H308.807ZM312.517 40.3165V39.7142H315.062V40.3165H312.517ZM316.226 40.3165V39.7142H318.772V40.3165H316.226ZM319.936 40.3165V39.7142H322.481V40.3165H319.936ZM323.646 40.3165V39.7142H326.191V40.3165H323.646ZM327.355 40.3165V39.7142H329.901V40.3165H327.355ZM331.065 40.3165V39.7142H333.61V40.3165H331.065ZM334.775 40.3165V39.7142H337.32V40.3165H334.775Z" fill="#8F8E8E"/>
<rect x="337.667" y="21.0999" width="50.1956" height="37.2419" rx="5.26245" fill="#F1F3F2" stroke="#ADB4B7" stroke-width="0.809607"/>
<path d="M354.197 39.3259C354.197 37.6549 354.517 36.3385 355.159 35.3767C355.81 34.4148 356.854 33.9339 358.292 33.9339C359.73 33.9339 360.769 34.4148 361.41 35.3767C362.061 36.3385 362.387 37.6549 362.387 39.3259C362.387 41.0164 362.061 42.3425 361.41 43.3043C360.769 44.2661 359.73 44.7471 358.292 44.7471C356.854 44.7471 355.81 44.2661 355.159 43.3043C354.517 42.3425 354.197 41.0164 354.197 39.3259ZM359.939 39.3259C359.939 38.3447 359.832 37.5917 359.618 37.0671C359.404 36.5328 358.962 36.2656 358.292 36.2656C357.621 36.2656 357.179 36.5328 356.966 37.0671C356.752 37.5917 356.645 38.3447 356.645 39.3259C356.645 39.9866 356.684 40.5355 356.762 40.9727C356.839 41.4001 356.995 41.7499 357.228 42.0219C357.471 42.2842 357.826 42.4154 358.292 42.4154C358.758 42.4154 359.108 42.2842 359.341 42.0219C359.584 41.7499 359.744 41.4001 359.822 40.9727C359.9 40.5355 359.939 39.9866 359.939 39.3259ZM363.616 42.7943C363.946 42.532 364.097 42.4105 364.068 42.43C365.02 41.643 365.768 40.997 366.312 40.4918C366.866 39.9866 367.332 39.4571 367.711 38.9033C368.09 38.3495 368.279 37.8103 368.279 37.2857C368.279 36.8874 368.187 36.5765 368.002 36.353C367.818 36.1296 367.541 36.0179 367.172 36.0179C366.803 36.0179 366.511 36.1587 366.297 36.4405C366.093 36.7125 365.991 37.1011 365.991 37.6063H363.587C363.606 36.7805 363.781 36.0907 364.111 35.537C364.451 34.9832 364.894 34.5751 365.438 34.3128C365.991 34.0505 366.603 33.9194 367.274 33.9194C368.43 33.9194 369.299 34.2157 369.882 34.8083C370.475 35.4009 370.771 36.1733 370.771 37.1254C370.771 38.1649 370.417 39.1316 369.707 40.0254C368.998 40.9095 368.095 41.7742 366.997 42.6194H370.932V44.645H363.616V42.7943Z" fill="#36404B"/>
<defs>
<filter id="filter0_d_1139_75" x="0.000161171" y="6.48499e-05" width="419.203" height="85.1747" filterUnits="userSpaceOnUse" color-interpolation-filters="sRGB">
<feFlood flood-opacity="0" result="BackgroundImageFix"/>
<feColorMatrix in="SourceAlpha" type="matrix" values="0 0 0 0 0 0 0 0 0 0 0 0 0 0 0 0 0 0 127 0" result="hardAlpha"/>
<feOffset dy="3.23843"/>
<feGaussianBlur stdDeviation="6.8007"/>
<feComposite in2="hardAlpha" operator="out"/>
<feColorMatrix type="matrix" values="0 0 0 0 0 0 0 0 0 0 0 0 0 0 0 0 0 0 0.17 0"/>
<feBlend mode="normal" in2="BackgroundImageFix" result="effect1_dropShadow_1139_75"/>
<feBlend mode="normal" in="SourceGraphic" in2="effect1_dropShadow_1139_75" result="shape"/>
</filter>
</defs>
</svg>
