<svg width="420" height="86" viewBox="0 0 420 86" fill="none" xmlns="http://www.w3.org/2000/svg">
<g filter="url(#filter0_d_1104_72)">
<rect x="13.6016" y="10.3628" width="392" height="57.9718" rx="10.5249" fill="#FEFFFE"/>
</g>
<circle cx="43.3389" cy="38.0786" r="21.0498" fill="#D9F2EE"/>
<circle cx="43.5575" cy="38.0785" r="17.8114" fill="#0C2461"/>
<path d="M40.281 45.2025C39.5718 45.2025 38.9791 45.0616 38.5031 44.7799C38.027 44.4884 37.6676 44.0901 37.4247 43.5849C37.1818 43.0797 37.0604 42.4919 37.0604 41.8216V36.4733C37.0604 35.7835 37.1721 35.1812 37.3956 34.6663C37.6287 34.1416 37.9833 33.7336 38.4594 33.4421C38.9354 33.1507 39.5426 33.0049 40.281 33.0049C41.0194 33.0049 41.6217 33.1507 42.088 33.4421C42.5641 33.7336 42.9138 34.1416 43.1373 34.6663C43.3705 35.1812 43.487 35.7835 43.487 36.4733V41.8216C43.487 42.4822 43.3656 43.07 43.1227 43.5849C42.8798 44.0901 42.5204 44.4884 42.0443 44.7799C41.5683 45.0616 40.9805 45.2025 40.281 45.2025ZM40.281 43.0311C40.5142 43.0311 40.6793 42.9582 40.7765 42.8125C40.8833 42.6571 40.9465 42.4822 40.9659 42.2879C40.9951 42.0839 41.0096 41.909 41.0096 41.7633V36.5316C41.0096 36.3664 40.9999 36.1818 40.9805 35.9778C40.9611 35.7641 40.8979 35.5795 40.791 35.424C40.6939 35.2589 40.5239 35.1763 40.281 35.1763C40.0381 35.1763 39.8632 35.2589 39.7564 35.424C39.6592 35.5795 39.6009 35.7641 39.5815 35.9778C39.5621 36.1818 39.5523 36.3664 39.5523 36.5316V41.7633C39.5523 41.909 39.5669 42.0839 39.5961 42.2879C39.6252 42.4822 39.6884 42.6571 39.7855 42.8125C39.8924 42.9582 40.0575 43.0311 40.281 43.0311ZM46.5154 44.9839V35.5843C46.4085 35.6426 46.2871 35.7009 46.151 35.7592C46.015 35.8175 45.8693 35.8807 45.7139 35.9487C45.5681 36.007 45.4224 36.0653 45.2767 36.1235C45.1406 36.1818 45.0144 36.2401 44.8978 36.2984V34.4914C45.0046 34.4331 45.1552 34.3554 45.3495 34.2582C45.5438 34.1513 45.7527 34.0348 45.9762 33.9085C46.1996 33.7822 46.4085 33.6559 46.6028 33.5296C46.7971 33.3935 46.9428 33.277 47.04 33.1798H48.949V44.9839H46.5154Z" fill="#FEFFFE"/>
<path d="M75.293 31.5073V22.3264H77.4919C78.1115 22.3264 78.6329 22.4019 79.056 22.5531C79.4867 22.6966 79.8117 22.946 80.0308 23.3011C80.2575 23.6563 80.3708 24.1399 80.3708 24.752C80.3708 25.1222 80.3368 25.4547 80.2688 25.7494C80.2008 26.0441 80.0837 26.2972 79.9174 26.5088C79.7588 26.7128 79.5358 26.8715 79.2487 26.9849L80.5295 31.5073H78.852L77.7412 27.3022H76.9705V31.5073H75.293ZM76.9705 26.2481H77.4919C77.8168 26.2481 78.0737 26.2028 78.2626 26.1121C78.4591 26.0139 78.5989 25.8627 78.682 25.6587C78.7651 25.4471 78.8067 25.1789 78.8067 24.854C78.8067 24.393 78.7198 24.0492 78.546 23.8225C78.3797 23.5883 78.0586 23.4712 77.5825 23.4712H76.9705V26.2481ZM84.0737 31.632C83.4238 31.632 82.9062 31.5111 82.5208 31.2693C82.1355 31.0275 81.8597 30.6799 81.6934 30.2265C81.5272 29.7731 81.4441 29.2366 81.4441 28.617V25.1827C81.4441 24.5631 81.5272 24.0341 81.6934 23.5958C81.8597 23.15 82.1355 22.81 82.5208 22.5757C82.9062 22.3415 83.4238 22.2244 84.0737 22.2244C84.7386 22.2244 85.26 22.3415 85.6378 22.5757C86.0232 22.81 86.299 23.15 86.4652 23.5958C86.639 24.0341 86.7259 24.5631 86.7259 25.1827V28.6284C86.7259 29.2404 86.639 29.7731 86.4652 30.2265C86.299 30.6723 86.0232 31.0199 85.6378 31.2693C85.26 31.5111 84.7386 31.632 84.0737 31.632ZM84.0737 30.3965C84.3532 30.3965 84.5573 30.3361 84.6857 30.2152C84.8217 30.0943 84.9124 29.9281 84.9578 29.7165C85.0031 29.5049 85.0258 29.2744 85.0258 29.0251V24.7973C85.0258 24.5404 85.0031 24.3099 84.9578 24.1059C84.9124 23.9019 84.8217 23.7432 84.6857 23.6298C84.5573 23.5089 84.3532 23.4485 84.0737 23.4485C83.8092 23.4485 83.6089 23.5089 83.4729 23.6298C83.3369 23.7432 83.2462 23.9019 83.2009 24.1059C83.1556 24.3099 83.1329 24.5404 83.1329 24.7973V29.0251C83.1329 29.2744 83.1518 29.5049 83.1896 29.7165C83.2349 29.9281 83.3256 30.0943 83.4616 30.2152C83.5976 30.3361 83.8016 30.3965 84.0737 30.3965ZM90.4831 31.632C89.803 31.632 89.274 31.5073 88.8962 31.258C88.5184 31.0086 88.2577 30.6535 88.1141 30.1925C87.9706 29.7316 87.8988 29.18 87.8988 28.5377V22.3264H89.531V28.7304C89.531 29.0175 89.5499 29.2895 89.5876 29.5465C89.6254 29.7958 89.7123 29.9998 89.8483 30.1585C89.9919 30.3096 90.2035 30.3852 90.4831 30.3852C90.7778 30.3852 90.9893 30.3096 91.1178 30.1585C91.2538 29.9998 91.3407 29.7958 91.3785 29.5465C91.4238 29.2895 91.4465 29.0175 91.4465 28.7304V22.3264H93.0673V28.5377C93.0673 29.18 92.9955 29.7316 92.852 30.1925C92.7084 30.6535 92.4477 31.0086 92.0699 31.258C91.6996 31.5073 91.1707 31.632 90.4831 31.632ZM94.3867 31.5073V22.3264H95.5542L97.7871 27.5629V22.3264H99.1699V31.5073H98.0591L95.8149 26.0214V31.5073H94.3867ZM100.563 31.5073V22.3264H102.728C103.476 22.3264 104.058 22.4284 104.474 22.6324C104.897 22.8364 105.195 23.15 105.369 23.5732C105.55 23.9963 105.641 24.5328 105.641 25.1827V28.5377C105.641 29.2026 105.55 29.758 105.369 30.2039C105.195 30.6421 104.9 30.9708 104.485 31.19C104.077 31.4015 103.514 31.5073 102.796 31.5073H100.563ZM102.241 30.3399H102.751C103.136 30.3399 103.412 30.2719 103.578 30.1358C103.744 29.9998 103.846 29.8034 103.884 29.5465C103.922 29.282 103.941 28.9608 103.941 28.583V25.0693C103.941 24.6991 103.914 24.4006 103.861 24.1739C103.809 23.9472 103.699 23.781 103.533 23.6752C103.367 23.5694 103.098 23.5165 102.728 23.5165H102.241V30.3399ZM112.099 31.632C111.427 31.632 110.898 31.4998 110.513 31.2353C110.135 30.9708 109.87 30.6119 109.719 30.1585C109.568 29.6976 109.493 29.1686 109.493 28.5717V25.296C109.493 24.6688 109.568 24.1248 109.719 23.6638C109.87 23.2029 110.135 22.8478 110.513 22.5984C110.898 22.349 111.427 22.2244 112.099 22.2244C112.734 22.2244 113.229 22.3339 113.584 22.5531C113.947 22.7646 114.204 23.0707 114.355 23.4712C114.506 23.8716 114.582 24.3364 114.582 24.8653V25.6361H112.972V24.8426C112.972 24.5857 112.957 24.3515 112.927 24.1399C112.904 23.9283 112.832 23.7621 112.712 23.6412C112.598 23.5127 112.398 23.4485 112.111 23.4485C111.824 23.4485 111.612 23.5165 111.476 23.6525C111.348 23.781 111.264 23.9585 111.227 24.1852C111.189 24.4044 111.17 24.6537 111.17 24.9333V28.9231C111.17 29.2555 111.196 29.5313 111.249 29.7505C111.302 29.9621 111.397 30.1245 111.533 30.2379C111.676 30.3436 111.869 30.3965 112.111 30.3965C112.39 30.3965 112.587 30.3323 112.7 30.2039C112.821 30.0678 112.897 29.8903 112.927 29.6711C112.957 29.452 112.972 29.2064 112.972 28.9344V28.107H114.582V28.8437C114.582 29.3878 114.51 29.8714 114.366 30.2945C114.223 30.7101 113.97 31.0388 113.607 31.2806C113.252 31.5149 112.749 31.632 112.099 31.632ZM118.243 31.632C117.593 31.632 117.076 31.5111 116.69 31.2693C116.305 31.0275 116.029 30.6799 115.863 30.2265C115.697 29.7731 115.614 29.2366 115.614 28.617V25.1827C115.614 24.5631 115.697 24.0341 115.863 23.5958C116.029 23.15 116.305 22.81 116.69 22.5757C117.076 22.3415 117.593 22.2244 118.243 22.2244C118.908 22.2244 119.43 22.3415 119.807 22.5757C120.193 22.81 120.469 23.15 120.635 23.5958C120.809 24.0341 120.895 24.5631 120.895 25.1827V28.6284C120.895 29.2404 120.809 29.7731 120.635 30.2265C120.469 30.6723 120.193 31.0199 119.807 31.2693C119.43 31.5111 118.908 31.632 118.243 31.632ZM118.243 30.3965C118.523 30.3965 118.727 30.3361 118.855 30.2152C118.991 30.0943 119.082 29.9281 119.127 29.7165C119.173 29.5049 119.195 29.2744 119.195 29.0251V24.7973C119.195 24.5404 119.173 24.3099 119.127 24.1059C119.082 23.9019 118.991 23.7432 118.855 23.6298C118.727 23.5089 118.523 23.4485 118.243 23.4485C117.979 23.4485 117.778 23.5089 117.642 23.6298C117.506 23.7432 117.416 23.9019 117.37 24.1059C117.325 24.3099 117.302 24.5404 117.302 24.7973V29.0251C117.302 29.2744 117.321 29.5049 117.359 29.7165C117.404 29.9281 117.495 30.0943 117.631 30.2152C117.767 30.3361 117.971 30.3965 118.243 30.3965ZM122.136 31.5073V22.3264H123.304L125.537 27.5629V22.3264H126.919V31.5073H125.809L123.564 26.0214V31.5073H122.136ZM129.231 31.5073V23.5618H127.769V22.3264H132.348V23.5618H130.908V31.5073H129.231ZM132.231 31.5073L134.067 22.3264H135.858L137.695 31.5073H136.142L135.779 29.3878H134.181L133.807 31.5073H132.231ZM134.351 28.3223H135.598L134.974 24.4686L134.351 28.3223ZM138.663 31.5073V22.3264H140.318V31.5073H138.663ZM141.739 31.5073V22.3264H142.907L145.14 27.5629V22.3264H146.522V31.5073H145.412L143.167 26.0214V31.5073H141.739ZM147.916 31.5073V22.3264H151.769V23.5052H149.593V26.1461H151.305V27.3136H149.593V30.3512H151.792V31.5073H147.916ZM152.764 31.5073V22.3264H154.963C155.582 22.3264 156.104 22.4019 156.527 22.5531C156.958 22.6966 157.283 22.946 157.502 23.3011C157.728 23.6563 157.842 24.1399 157.842 24.752C157.842 25.1222 157.808 25.4547 157.74 25.7494C157.672 26.0441 157.555 26.2972 157.388 26.5088C157.23 26.7128 157.007 26.8715 156.72 26.9849L158 31.5073H156.323L155.212 27.3022H154.441V31.5073H152.764ZM154.441 26.2481H154.963C155.288 26.2481 155.545 26.2028 155.733 26.1121C155.93 26.0139 156.07 25.8627 156.153 25.6587C156.236 25.4471 156.278 25.1789 156.278 24.854C156.278 24.393 156.191 24.0492 156.017 23.8225C155.851 23.5883 155.529 23.4712 155.053 23.4712H154.441V26.2481ZM161.396 31.632C160.845 31.632 160.384 31.5262 160.014 31.3146C159.643 31.0955 159.364 30.7781 159.175 30.3625C158.986 29.9469 158.88 29.4369 158.857 28.8324L160.297 28.549C160.312 28.9042 160.354 29.2178 160.422 29.4898C160.497 29.7618 160.607 29.9734 160.75 30.1245C160.901 30.2681 161.098 30.3399 161.34 30.3399C161.612 30.3399 161.804 30.2605 161.918 30.1018C162.031 29.9356 162.088 29.7278 162.088 29.4784C162.088 29.078 161.997 28.7493 161.816 28.4923C161.634 28.2354 161.393 27.9785 161.09 27.7216L159.934 26.7015C159.609 26.4219 159.349 26.1121 159.152 25.7721C158.963 25.4245 158.869 24.9975 158.869 24.4913C158.869 23.7659 159.08 23.2067 159.504 22.8138C159.927 22.4208 160.505 22.2244 161.238 22.2244C161.668 22.2244 162.027 22.2924 162.314 22.4284C162.602 22.5568 162.828 22.7382 162.995 22.9724C163.168 23.2067 163.297 23.4749 163.38 23.7772C163.463 24.0719 163.516 24.3855 163.539 24.718L162.11 24.9673C162.095 24.6802 162.061 24.4233 162.008 24.1966C161.963 23.9699 161.876 23.7923 161.748 23.6638C161.627 23.5354 161.446 23.4712 161.204 23.4712C160.954 23.4712 160.762 23.5543 160.626 23.7205C160.497 23.8792 160.433 24.0794 160.433 24.3213C160.433 24.6311 160.497 24.888 160.626 25.092C160.754 25.2885 160.939 25.4925 161.181 25.7041L162.326 26.7128C162.704 27.0302 163.025 27.4042 163.289 27.8349C163.561 28.2581 163.697 28.7719 163.697 29.3764C163.697 29.8147 163.599 30.2039 163.403 30.5439C163.214 30.8839 162.945 31.1522 162.598 31.3486C162.258 31.5375 161.857 31.632 161.396 31.632Z" fill="#0C2461"/>
<path d="M75.0202 44.3628V43.7464L76.6555 42.1433C76.8119 41.9853 76.9422 41.845 77.0465 41.7224C77.1508 41.5997 77.229 41.4809 77.2811 41.3659C77.3332 41.2509 77.3593 41.1282 77.3593 40.9979C77.3593 40.8491 77.3256 40.7219 77.2581 40.6161C77.1906 40.5087 77.0979 40.4259 76.9798 40.3677C76.8617 40.3094 76.7275 40.2803 76.5773 40.2803C76.4224 40.2803 76.2867 40.3125 76.1702 40.3769C76.0536 40.4397 75.9632 40.5294 75.8988 40.646C75.8359 40.7625 75.8045 40.9013 75.8045 41.0623H74.9926C74.9926 40.7633 75.0608 40.5034 75.1973 40.2826C75.3337 40.0618 75.5216 39.8908 75.7608 39.7697C76.0015 39.6485 76.2775 39.5879 76.5888 39.5879C76.9046 39.5879 77.1822 39.647 77.4214 39.7651C77.6606 39.8831 77.8461 40.0449 77.978 40.2504C78.1114 40.4558 78.1781 40.6904 78.1781 40.9542C78.1781 41.1305 78.1444 41.3038 78.0769 41.474C78.0094 41.6442 77.8906 41.8328 77.7204 42.0398C77.5517 42.2468 77.3148 42.4975 77.0097 42.7919L76.1978 43.6176V43.6498H78.2494V44.3628H75.0202ZM80.6805 44.4272C80.3738 44.4272 80.0994 44.3697 79.8571 44.2547C79.6148 44.1382 79.4224 43.9787 79.2798 43.7763C79.1387 43.5739 79.0636 43.3424 79.0544 43.0817H79.8824C79.8977 43.2749 79.9813 43.4328 80.1331 43.5555C80.2849 43.6766 80.4674 43.7372 80.6805 43.7372C80.8477 43.7372 80.9964 43.6989 81.1267 43.6222C81.2571 43.5455 81.3598 43.439 81.4349 43.3025C81.5101 43.166 81.5469 43.0104 81.5453 42.8356C81.5469 42.6577 81.5093 42.4998 81.4326 42.3618C81.356 42.2238 81.2509 42.1157 81.1175 42.0375C80.9841 41.9577 80.8308 41.9179 80.6575 41.9179C80.5164 41.9163 80.3777 41.9424 80.2412 41.9961C80.1047 42.0497 79.9966 42.1203 79.9169 42.2077L79.1464 42.0812L79.3925 39.6524H82.1249V40.3654H80.0986L79.9629 41.6143H79.9905C80.0779 41.5115 80.2013 41.4264 80.3608 41.359C80.5203 41.29 80.6951 41.2555 80.8852 41.2555C81.1704 41.2555 81.425 41.3229 81.6488 41.4579C81.8727 41.5913 82.049 41.7753 82.1778 42.0099C82.3066 42.2445 82.371 42.5128 82.371 42.8149C82.371 43.1261 82.299 43.4037 82.1548 43.6475C82.0122 43.8898 81.8137 44.0807 81.5591 44.2202C81.3061 44.3582 81.0133 44.4272 80.6805 44.4272ZM84.8827 44.4525C84.5039 44.4525 84.1788 44.3567 83.9074 44.165C83.6376 43.9718 83.4298 43.6935 83.2841 43.3301C83.14 42.9651 83.0679 42.5258 83.0679 42.0122C83.0695 41.4985 83.1423 41.0615 83.2864 40.7012C83.4321 40.3393 83.6399 40.0633 83.9097 39.8732C84.1811 39.683 84.5055 39.5879 84.8827 39.5879C85.2599 39.5879 85.5842 39.683 85.8556 39.8732C86.127 40.0633 86.3347 40.3393 86.4789 40.7012C86.6245 41.063 86.6974 41.5 86.6974 42.0122C86.6974 42.5274 86.6245 42.9674 86.4789 43.3324C86.3347 43.6958 86.127 43.9733 85.8556 44.165C85.5857 44.3567 85.2614 44.4525 84.8827 44.4525ZM84.8827 43.7326C85.1771 43.7326 85.4094 43.5877 85.5796 43.2979C85.7513 43.0065 85.8372 42.578 85.8372 42.0122C85.8372 41.638 85.7981 41.3237 85.7199 41.0692C85.6417 40.8146 85.5313 40.623 85.3887 40.4942C85.2461 40.3638 85.0774 40.2987 84.8827 40.2987C84.5898 40.2987 84.3582 40.4443 84.188 40.7357C84.0178 41.0255 83.932 41.451 83.9304 42.0122C83.9289 42.3878 83.9665 42.7037 84.0431 42.9598C84.1213 43.2158 84.2317 43.4091 84.3743 43.5394C84.517 43.6682 84.6864 43.7326 84.8827 43.7326ZM87.4708 44.3628V40.83H88.2666V41.4303H88.308C88.3816 41.2279 88.5035 41.0699 88.6737 40.9565C88.8439 40.8415 89.047 40.784 89.2832 40.784C89.5224 40.784 89.724 40.8422 89.8881 40.9588C90.0537 41.0738 90.1702 41.2309 90.2377 41.4303H90.2745C90.3527 41.234 90.4845 41.0776 90.6701 40.9611C90.8572 40.843 91.0787 40.784 91.3348 40.784C91.6599 40.784 91.9251 40.8867 92.1306 41.0922C92.3361 41.2976 92.4388 41.5974 92.4388 41.9915V44.3628H91.6039V42.1203C91.6039 41.901 91.5456 41.7408 91.4291 41.6396C91.3126 41.5368 91.17 41.4855 91.0013 41.4855C90.8004 41.4855 90.6432 41.5483 90.5298 41.6741C90.4178 41.7983 90.3619 41.96 90.3619 42.1594V44.3628H89.5454V42.0858C89.5454 41.9033 89.4902 41.7576 89.3798 41.6488C89.2709 41.5399 89.1283 41.4855 88.952 41.4855C88.8324 41.4855 88.7235 41.5161 88.6254 41.5775C88.5272 41.6373 88.449 41.7224 88.3908 41.8328C88.3325 41.9416 88.3034 42.0689 88.3034 42.2146V44.3628H87.4708ZM94.1161 39.6524V44.3628H93.2835V39.6524H94.1161ZM95.9498 43.7188L95.9199 43.9718C95.8984 44.165 95.8601 44.3613 95.8049 44.5606C95.7512 44.7615 95.6945 44.9462 95.6347 45.1149C95.5749 45.2836 95.5266 45.4162 95.4898 45.5128H94.9286C94.95 45.4193 94.9792 45.292 95.016 45.131C95.0543 44.97 95.0911 44.7891 95.1264 44.5882C95.1616 44.3873 95.1854 44.1834 95.1977 43.9764L95.2138 43.7188H95.9498ZM98.2492 43.4888V42.8103L100.248 39.6524H100.814V40.6184H100.469L99.1232 42.7505V42.7873H101.913V43.4888H98.2492ZM100.496 44.3628V43.2818L100.506 42.9782V39.6524H101.311V44.3628H100.496ZM104.389 44.4525C104.01 44.4525 103.685 44.3567 103.414 44.165C103.144 43.9718 102.936 43.6935 102.791 43.3301C102.646 42.9651 102.574 42.5258 102.574 42.0122C102.576 41.4985 102.649 41.0615 102.793 40.7012C102.939 40.3393 103.146 40.0633 103.416 39.8732C103.688 39.683 104.012 39.5879 104.389 39.5879C104.766 39.5879 105.091 39.683 105.362 39.8732C105.633 40.0633 105.841 40.3393 105.985 40.7012C106.131 41.063 106.204 41.5 106.204 42.0122C106.204 42.5274 106.131 42.9674 105.985 43.3324C105.841 43.6958 105.633 43.9733 105.362 44.165C105.092 44.3567 104.768 44.4525 104.389 44.4525ZM104.389 43.7326C104.684 43.7326 104.916 43.5877 105.086 43.2979C105.258 43.0065 105.344 42.578 105.344 42.0122C105.344 41.638 105.305 41.3237 105.226 41.0692C105.148 40.8146 105.038 40.623 104.895 40.4942C104.753 40.3638 104.584 40.2987 104.389 40.2987C104.096 40.2987 103.865 40.4443 103.695 40.7357C103.524 41.0255 103.438 41.451 103.437 42.0122C103.435 42.3878 103.473 42.7037 103.55 42.9598C103.628 43.2158 103.738 43.4091 103.881 43.5394C104.023 43.6682 104.193 43.7326 104.389 43.7326ZM108.709 44.4525C108.33 44.4525 108.005 44.3567 107.734 44.165C107.464 43.9718 107.256 43.6935 107.111 43.3301C106.966 42.9651 106.894 42.5258 106.894 42.0122C106.896 41.4985 106.969 41.0615 107.113 40.7012C107.259 40.3393 107.466 40.0633 107.736 39.8732C108.008 39.683 108.332 39.5879 108.709 39.5879C109.086 39.5879 109.411 39.683 109.682 39.8732C109.953 40.0633 110.161 40.3393 110.305 40.7012C110.451 41.063 110.524 41.5 110.524 42.0122C110.524 42.5274 110.451 42.9674 110.305 43.3324C110.161 43.6958 109.953 43.9733 109.682 44.165C109.412 44.3567 109.088 44.4525 108.709 44.4525ZM108.709 43.7326C109.004 43.7326 109.236 43.5877 109.406 43.2979C109.578 43.0065 109.664 42.578 109.664 42.0122C109.664 41.638 109.625 41.3237 109.546 41.0692C109.468 40.8146 109.358 40.623 109.215 40.4942C109.073 40.3638 108.904 40.2987 108.709 40.2987C108.416 40.2987 108.185 40.4443 108.015 40.7357C107.844 41.0255 107.758 41.451 107.757 42.0122C107.755 42.3878 107.793 42.7037 107.87 42.9598C107.948 43.2158 108.058 43.4091 108.201 43.5394C108.343 43.6682 108.513 43.7326 108.709 43.7326ZM111.297 44.3628V40.83H112.093V41.4303H112.134C112.208 41.2279 112.33 41.0699 112.5 40.9565C112.67 40.8415 112.874 40.784 113.11 40.784C113.349 40.784 113.55 40.8422 113.715 40.9588C113.88 41.0738 113.997 41.2309 114.064 41.4303H114.101C114.179 41.234 114.311 41.0776 114.497 40.9611C114.684 40.843 114.905 40.784 115.161 40.784C115.486 40.784 115.752 40.8867 115.957 41.0922C116.163 41.2976 116.265 41.5974 116.265 41.9915V44.3628H115.43V42.1203C115.43 41.901 115.372 41.7408 115.256 41.6396C115.139 41.5368 114.996 41.4855 114.828 41.4855C114.627 41.4855 114.47 41.5483 114.356 41.6741C114.244 41.7983 114.188 41.96 114.188 42.1594V44.3628H113.372V42.0858C113.372 41.9033 113.317 41.7576 113.206 41.6488C113.097 41.5399 112.955 41.4855 112.778 41.4855C112.659 41.4855 112.55 41.5161 112.452 41.5775C112.354 41.6373 112.276 41.7224 112.217 41.8328C112.159 41.9416 112.13 42.0689 112.13 42.2146V44.3628H111.297ZM117.943 39.6524V44.3628H117.11V39.6524H117.943ZM119.776 43.7188L119.746 43.9718C119.725 44.165 119.687 44.3613 119.631 44.5606C119.578 44.7615 119.521 44.9462 119.461 45.1149C119.401 45.2836 119.353 45.4162 119.316 45.5128H118.755C118.777 45.4193 118.806 45.292 118.842 45.131C118.881 44.97 118.918 44.7891 118.953 44.5882C118.988 44.3873 119.012 44.1834 119.024 43.9764L119.04 43.7188H119.776ZM123.798 44.4272C123.492 44.4272 123.217 44.3697 122.975 44.2547C122.733 44.1382 122.54 43.9787 122.398 43.7763C122.257 43.5739 122.182 43.3424 122.172 43.0817H123C123.016 43.2749 123.099 43.4328 123.251 43.5555C123.403 43.6766 123.585 43.7372 123.798 43.7372C123.966 43.7372 124.114 43.6989 124.245 43.6222C124.375 43.5455 124.478 43.439 124.553 43.3025C124.628 43.166 124.665 43.0104 124.663 42.8356C124.665 42.6577 124.627 42.4998 124.551 42.3618C124.474 42.2238 124.369 42.1157 124.235 42.0375C124.102 41.9577 123.949 41.9179 123.775 41.9179C123.634 41.9163 123.496 41.9424 123.359 41.9961C123.223 42.0497 123.115 42.1203 123.035 42.2077L122.264 42.0812L122.51 39.6524H125.243V40.3654H123.217L123.081 41.6143H123.108C123.196 41.5115 123.319 41.4264 123.479 41.359C123.638 41.29 123.813 41.2555 124.003 41.2555C124.288 41.2555 124.543 41.3229 124.767 41.4579C124.991 41.5913 125.167 41.7753 125.296 42.0099C125.425 42.2445 125.489 42.5128 125.489 42.8149C125.489 43.1261 125.417 43.4037 125.273 43.6475C125.13 43.8898 124.932 44.0807 124.677 44.2202C124.424 44.3582 124.131 44.4272 123.798 44.4272ZM128.001 44.4525C127.622 44.4525 127.297 44.3567 127.025 44.165C126.755 43.9718 126.548 43.6935 126.402 43.3301C126.258 42.9651 126.186 42.5258 126.186 42.0122C126.187 41.4985 126.26 41.0615 126.404 40.7012C126.55 40.3393 126.758 40.0633 127.028 39.8732C127.299 39.683 127.623 39.5879 128.001 39.5879C128.378 39.5879 128.702 39.683 128.973 39.8732C129.245 40.0633 129.453 40.3393 129.597 40.7012C129.742 41.063 129.815 41.5 129.815 42.0122C129.815 42.5274 129.742 42.9674 129.597 43.3324C129.453 43.6958 129.245 43.9733 128.973 44.165C128.704 44.3567 128.379 44.4525 128.001 44.4525ZM128.001 43.7326C128.295 43.7326 128.527 43.5877 128.697 43.2979C128.869 43.0065 128.955 42.578 128.955 42.0122C128.955 41.638 128.916 41.3237 128.838 41.0692C128.76 40.8146 128.649 40.623 128.507 40.4942C128.364 40.3638 128.195 40.2987 128.001 40.2987C127.708 40.2987 127.476 40.4443 127.306 40.7357C127.136 41.0255 127.05 41.451 127.048 42.0122C127.047 42.3878 127.084 42.7037 127.161 42.9598C127.239 43.2158 127.35 43.4091 127.492 43.5394C127.635 43.6682 127.804 43.7326 128.001 43.7326ZM132.321 44.4525C131.942 44.4525 131.617 44.3567 131.345 44.165C131.076 43.9718 130.868 43.6935 130.722 43.3301C130.578 42.9651 130.506 42.5258 130.506 42.0122C130.507 41.4985 130.58 41.0615 130.724 40.7012C130.87 40.3393 131.078 40.0633 131.348 39.8732C131.619 39.683 131.943 39.5879 132.321 39.5879C132.698 39.5879 133.022 39.683 133.293 39.8732C133.565 40.0633 133.773 40.3393 133.917 40.7012C134.062 41.063 134.135 41.5 134.135 42.0122C134.135 42.5274 134.062 42.9674 133.917 43.3324C133.773 43.6958 133.565 43.9733 133.293 44.165C133.024 44.3567 132.699 44.4525 132.321 44.4525ZM132.321 43.7326C132.615 43.7326 132.847 43.5877 133.017 43.2979C133.189 43.0065 133.275 42.578 133.275 42.0122C133.275 41.638 133.236 41.3237 133.158 41.0692C133.08 40.8146 132.969 40.623 132.827 40.4942C132.684 40.3638 132.515 40.2987 132.321 40.2987C132.028 40.2987 131.796 40.4443 131.626 40.7357C131.456 41.0255 131.37 41.451 131.368 42.0122C131.367 42.3878 131.404 42.7037 131.481 42.9598C131.559 43.2158 131.67 43.4091 131.812 43.5394C131.955 43.6682 132.124 43.7326 132.321 43.7326ZM134.909 44.3628V40.83H135.704V41.4303H135.746C135.819 41.2279 135.941 41.0699 136.112 40.9565C136.282 40.8415 136.485 40.784 136.721 40.784C136.96 40.784 137.162 40.8422 137.326 40.9588C137.492 41.0738 137.608 41.2309 137.676 41.4303H137.712C137.791 41.234 137.922 41.0776 138.108 40.9611C138.295 40.843 138.517 40.784 138.773 40.784C139.098 40.784 139.363 40.8867 139.569 41.0922C139.774 41.2976 139.877 41.5974 139.877 41.9915V44.3628H139.042V42.1203C139.042 41.901 138.984 41.7408 138.867 41.6396C138.75 41.5368 138.608 41.4855 138.439 41.4855C138.238 41.4855 138.081 41.5483 137.968 41.6741C137.856 41.7983 137.8 41.96 137.8 42.1594V44.3628H136.983V42.0858C136.983 41.9033 136.928 41.7576 136.818 41.6488C136.709 41.5399 136.566 41.4855 136.39 41.4855C136.27 41.4855 136.161 41.5161 136.063 41.5775C135.965 41.6373 135.887 41.7224 135.829 41.8328C135.77 41.9416 135.741 42.0689 135.741 42.2146V44.3628H134.909ZM141.554 39.6524V44.3628H140.721V39.6524H141.554ZM143.388 43.7188L143.358 43.9718C143.336 44.165 143.298 44.3613 143.243 44.5606C143.189 44.7615 143.132 44.9462 143.073 45.1149C143.013 45.2836 142.965 45.4162 142.928 45.5128H142.366C142.388 45.4193 142.417 45.292 142.454 45.131C142.492 44.97 142.529 44.7891 142.564 44.5882C142.6 44.3873 142.623 44.1834 142.636 43.9764L142.652 43.7188H143.388ZM75.1927 55.3628L77.196 51.3976V51.3654H74.8707V50.6524H78.0792V51.3815L76.0782 55.3628H75.1927ZM80.3959 55.4272C80.0892 55.4272 79.8148 55.3697 79.5725 55.2547C79.3302 55.1382 79.1378 54.9787 78.9952 54.7763C78.8541 54.5739 78.779 54.3424 78.7698 54.0817H79.5978C79.6131 54.2749 79.6967 54.4328 79.8485 54.5555C80.0003 54.6766 80.1828 54.7372 80.3959 54.7372C80.563 54.7372 80.7118 54.6989 80.8421 54.6222C80.9724 54.5455 81.0752 54.439 81.1503 54.3025C81.2254 54.166 81.2622 54.0104 81.2607 53.8356C81.2622 53.6577 81.2247 53.4998 81.148 53.3618C81.0713 53.2238 80.9663 53.1157 80.8329 53.0375C80.6995 52.9577 80.5462 52.9179 80.3729 52.9179C80.2318 52.9163 80.0931 52.9424 79.9566 52.9961C79.8201 53.0497 79.712 53.1203 79.6323 53.2077L78.8618 53.0812L79.1079 50.6524H81.8403V51.3654H79.814L79.6783 52.6143H79.7059C79.7933 52.5115 79.9167 52.4264 80.0762 52.359C80.2357 52.29 80.4105 52.2555 80.6006 52.2555C80.8858 52.2555 81.1403 52.3229 81.3642 52.4579C81.5881 52.5913 81.7644 52.7753 81.8932 53.0099C82.022 53.2445 82.0864 53.5128 82.0864 53.8149C82.0864 54.1261 82.0143 54.4037 81.8702 54.6475C81.7276 54.8898 81.529 55.0807 81.2745 55.2202C81.0215 55.3582 80.7286 55.4272 80.3959 55.4272ZM84.598 55.4525C84.2193 55.4525 83.8942 55.3567 83.6228 55.165C83.3529 54.9718 83.1452 54.6935 82.9995 54.3301C82.8554 53.9651 82.7833 53.5258 82.7833 53.0122C82.7848 52.4985 82.8577 52.0615 83.0018 51.7012C83.1475 51.3393 83.3552 51.0633 83.6251 50.8732C83.8965 50.683 84.2208 50.5879 84.598 50.5879C84.9752 50.5879 85.2995 50.683 85.5709 50.8732C85.8423 51.0633 86.0501 51.3393 86.1942 51.7012C86.3399 52.063 86.4127 52.5 86.4127 53.0122C86.4127 53.5274 86.3399 53.9674 86.1942 54.3324C86.0501 54.6958 85.8423 54.9733 85.5709 55.165C85.3011 55.3567 84.9768 55.4525 84.598 55.4525ZM84.598 54.7326C84.8924 54.7326 85.1247 54.5877 85.2949 54.2979C85.4667 54.0065 85.5525 53.578 85.5525 53.0122C85.5525 52.638 85.5134 52.3237 85.4352 52.0692C85.357 51.8146 85.2466 51.623 85.104 51.4942C84.9614 51.3638 84.7928 51.2987 84.598 51.2987C84.3052 51.2987 84.0736 51.4443 83.9034 51.7357C83.7332 52.0255 83.6474 52.451 83.6458 53.0122C83.6443 53.3878 83.6819 53.7037 83.7585 53.9598C83.8367 54.2158 83.9471 54.4091 84.0897 54.5394C84.2323 54.6682 84.4018 54.7326 84.598 54.7326ZM87.1861 55.3628V51.83H87.9819V52.4303H88.0233C88.0969 52.2279 88.2188 52.0699 88.389 51.9565C88.5592 51.8415 88.7624 51.784 88.9985 51.784C89.2377 51.784 89.4394 51.8422 89.6034 51.9588C89.769 52.0738 89.8856 52.2309 89.9531 52.4303H89.9899C90.0681 52.234 90.1999 52.0776 90.3855 51.9611C90.5725 51.843 90.7941 51.784 91.0502 51.784C91.3752 51.784 91.6405 51.8867 91.846 52.0922C92.0514 52.2976 92.1542 52.5974 92.1542 52.9915V55.3628H91.3193V53.1203C91.3193 52.901 91.261 52.7408 91.1445 52.6396C91.0279 52.5368 90.8853 52.4855 90.7167 52.4855C90.5158 52.4855 90.3586 52.5483 90.2452 52.6741C90.1332 52.7983 90.0773 52.96 90.0773 53.1594V55.3628H89.2607V53.0858C89.2607 52.9033 89.2055 52.7576 89.0951 52.6488C88.9863 52.5399 88.8437 52.4855 88.6673 52.4855C88.5477 52.4855 88.4389 52.5161 88.3407 52.5775C88.2426 52.6373 88.1644 52.7224 88.1061 52.8328C88.0479 52.9416 88.0187 53.0689 88.0187 53.2146V55.3628H87.1861ZM93.8315 50.6524V55.3628H92.9989V50.6524H93.8315ZM98.0583 51.83V52.474H96.0274V51.83H98.0583ZM96.5288 50.9836H97.3614V54.3002C97.3614 54.4121 97.3783 54.498 97.412 54.5578C97.4473 54.6161 97.4933 54.6559 97.55 54.6774C97.6068 54.6989 97.6696 54.7096 97.7386 54.7096C97.7908 54.7096 97.8383 54.7058 97.8812 54.6981C97.9257 54.6904 97.9594 54.6835 97.9824 54.6774L98.1227 55.3283C98.0783 55.3436 98.0146 55.3605 97.9318 55.3789C97.8506 55.3973 97.7509 55.408 97.6328 55.4111C97.4243 55.4172 97.2364 55.3858 97.0693 55.3168C96.9022 55.2463 96.7695 55.1374 96.6714 54.9902C96.5748 54.843 96.5273 54.659 96.5288 54.4382V50.9836ZM99.7713 55.4341C99.5474 55.4341 99.3458 55.3942 99.1664 55.3145C98.9885 55.2332 98.8474 55.1136 98.7432 54.9557C98.6404 54.7978 98.5891 54.603 98.5891 54.3715C98.5891 54.1721 98.6259 54.0073 98.6995 53.877C98.7731 53.7466 98.8735 53.6424 99.0008 53.5642C99.128 53.486 99.2714 53.4269 99.4309 53.3871C99.5919 53.3457 99.7582 53.3158 99.93 53.2974C100.137 53.2759 100.305 53.2567 100.434 53.2399C100.562 53.2215 100.656 53.1939 100.714 53.1571C100.774 53.1187 100.804 53.0597 100.804 52.98V52.9662C100.804 52.7929 100.753 52.6587 100.65 52.5637C100.547 52.4686 100.399 52.4211 100.206 52.4211C100.002 52.4211 99.8403 52.4655 99.7207 52.5545C99.6026 52.6434 99.5229 52.7484 99.4815 52.8696L98.7041 52.7592C98.7654 52.5445 98.8666 52.3651 99.0077 52.221C99.1487 52.0753 99.3212 51.9664 99.5252 51.8944C99.7291 51.8208 99.9545 51.784 100.201 51.784C100.372 51.784 100.541 51.8039 100.71 51.8438C100.878 51.8836 101.032 51.9496 101.172 52.0416C101.312 52.132 101.423 52.2555 101.508 52.4119C101.594 52.5683 101.637 52.7638 101.637 52.9984V55.3628H100.836V54.8775H100.809C100.758 54.9756 100.687 55.0676 100.595 55.1535C100.504 55.2378 100.39 55.3061 100.252 55.3582C100.116 55.4088 99.9553 55.4341 99.7713 55.4341ZM99.9875 54.8223C100.155 54.8223 100.3 54.7893 100.422 54.7234C100.545 54.6559 100.639 54.567 100.705 54.4566C100.773 54.3462 100.806 54.2258 100.806 54.0955V53.6792C100.78 53.7006 100.736 53.7206 100.673 53.739C100.612 53.7574 100.543 53.7735 100.466 53.7873C100.389 53.8011 100.313 53.8133 100.238 53.8241C100.163 53.8348 100.098 53.844 100.043 53.8517C99.9185 53.8685 99.8073 53.8961 99.7092 53.9345C99.611 53.9728 99.5336 54.0265 99.4769 54.0955C99.4201 54.1629 99.3918 54.2503 99.3918 54.3577C99.3918 54.511 99.4477 54.6268 99.5597 54.705C99.6716 54.7832 99.8142 54.8223 99.9875 54.8223ZM103.306 50.6524V55.3628H102.474V50.6524H103.306ZM104.995 50.6524V55.3628H104.163V50.6524H104.995ZM106.829 54.7188L106.799 54.9718C106.778 55.165 106.739 55.3613 106.684 55.5606C106.63 55.7615 106.574 55.9462 106.514 56.1149C106.454 56.2836 106.406 56.4162 106.369 56.5128H105.808C105.829 56.4193 105.858 56.292 105.895 56.131C105.933 55.97 105.97 55.7891 106.005 55.5882C106.041 55.3873 106.065 55.1834 106.077 54.9764L106.093 54.7188H106.829ZM111.129 50.6524V55.3628H110.276V51.4827H110.248L109.147 52.1865V51.4045L110.317 50.6524H111.129ZM114.066 55.4525C113.688 55.4525 113.363 55.3567 113.091 55.165C112.821 54.9718 112.614 54.6935 112.468 54.3301C112.324 53.9651 112.252 53.5258 112.252 53.0122C112.253 52.4985 112.326 52.0615 112.47 51.7012C112.616 51.3393 112.824 51.0633 113.094 50.8732C113.365 50.683 113.689 50.5879 114.066 50.5879C114.444 50.5879 114.768 50.683 115.039 50.8732C115.311 51.0633 115.519 51.3393 115.663 51.7012C115.808 52.063 115.881 52.5 115.881 53.0122C115.881 53.5274 115.808 53.9674 115.663 54.3324C115.519 54.6958 115.311 54.9733 115.039 55.165C114.77 55.3567 114.445 55.4525 114.066 55.4525ZM114.066 54.7326C114.361 54.7326 114.593 54.5877 114.763 54.2979C114.935 54.0065 115.021 53.578 115.021 53.0122C115.021 52.638 114.982 52.3237 114.904 52.0692C114.825 51.8146 114.715 51.623 114.572 51.4942C114.43 51.3638 114.261 51.2987 114.066 51.2987C113.774 51.2987 113.542 51.4443 113.372 51.7357C113.202 52.0255 113.116 52.451 113.114 53.0122C113.113 53.3878 113.15 53.7037 113.227 53.9598C113.305 54.2158 113.416 54.4091 113.558 54.5394C113.701 54.6682 113.87 54.7326 114.066 54.7326ZM118.386 55.4525C118.008 55.4525 117.683 55.3567 117.411 55.165C117.141 54.9718 116.934 54.6935 116.788 54.3301C116.644 53.9651 116.572 53.5258 116.572 53.0122C116.573 52.4985 116.646 52.0615 116.79 51.7012C116.936 51.3393 117.144 51.0633 117.414 50.8732C117.685 50.683 118.009 50.5879 118.386 50.5879C118.764 50.5879 119.088 50.683 119.359 50.8732C119.631 51.0633 119.839 51.3393 119.983 51.7012C120.128 52.063 120.201 52.5 120.201 53.0122C120.201 53.5274 120.128 53.9674 119.983 54.3324C119.839 54.6958 119.631 54.9733 119.359 55.165C119.09 55.3567 118.765 55.4525 118.386 55.4525ZM118.386 54.7326C118.681 54.7326 118.913 54.5877 119.083 54.2979C119.255 54.0065 119.341 53.578 119.341 53.0122C119.341 52.638 119.302 52.3237 119.224 52.0692C119.145 51.8146 119.035 51.623 118.892 51.4942C118.75 51.3638 118.581 51.2987 118.386 51.2987C118.094 51.2987 117.862 51.4443 117.692 51.7357C117.522 52.0255 117.436 52.451 117.434 53.0122C117.433 53.3878 117.47 53.7037 117.547 53.9598C117.625 54.2158 117.736 54.4091 117.878 54.5394C118.021 54.6682 118.19 54.7326 118.386 54.7326ZM122.706 55.4525C122.328 55.4525 122.003 55.3567 121.731 55.165C121.461 54.9718 121.254 54.6935 121.108 54.3301C120.964 53.9651 120.892 53.5258 120.892 53.0122C120.893 52.4985 120.966 52.0615 121.11 51.7012C121.256 51.3393 121.464 51.0633 121.734 50.8732C122.005 50.683 122.329 50.5879 122.706 50.5879C123.084 50.5879 123.408 50.683 123.679 50.8732C123.951 51.0633 124.159 51.3393 124.303 51.7012C124.448 52.063 124.521 52.5 124.521 53.0122C124.521 53.5274 124.448 53.9674 124.303 54.3324C124.159 54.6958 123.951 54.9733 123.679 55.165C123.41 55.3567 123.085 55.4525 122.706 55.4525ZM122.706 54.7326C123.001 54.7326 123.233 54.5877 123.403 54.2979C123.575 54.0065 123.661 53.578 123.661 53.0122C123.661 52.638 123.622 52.3237 123.544 52.0692C123.466 51.8146 123.355 51.623 123.212 51.4942C123.07 51.3638 122.901 51.2987 122.706 51.2987C122.414 51.2987 122.182 51.4443 122.012 51.7357C121.842 52.0255 121.756 52.451 121.754 53.0122C121.753 53.3878 121.79 53.7037 121.867 53.9598C121.945 54.2158 122.056 54.4091 122.198 54.5394C122.341 54.6682 122.51 54.7326 122.706 54.7326ZM125.295 55.3628V51.83H126.09V52.4303H126.132C126.205 52.2279 126.327 52.0699 126.498 51.9565C126.668 51.8415 126.871 51.784 127.107 51.784C127.346 51.784 127.548 51.8422 127.712 51.9588C127.878 52.0738 127.994 52.2309 128.062 52.4303H128.098C128.177 52.234 128.308 52.0776 128.494 51.9611C128.681 51.843 128.903 51.784 129.159 51.784C129.484 51.784 129.749 51.8867 129.954 52.0922C130.16 52.2976 130.263 52.5974 130.263 52.9915V55.3628H129.428V53.1203C129.428 52.901 129.369 52.7408 129.253 52.6396C129.136 52.5368 128.994 52.4855 128.825 52.4855C128.624 52.4855 128.467 52.5483 128.354 52.6741C128.242 52.7983 128.186 52.96 128.186 53.1594V55.3628H127.369V53.0858C127.369 52.9033 127.314 52.7576 127.204 52.6488C127.095 52.5399 126.952 52.4855 126.776 52.4855C126.656 52.4855 126.547 52.5161 126.449 52.5775C126.351 52.6373 126.273 52.7224 126.215 52.8328C126.156 52.9416 126.127 53.0689 126.127 53.2146V55.3628H125.295ZM131.94 50.6524V55.3628H131.107V50.6524H131.94Z" fill="#878C90"/>
<path d="M212.356 40.6991V40.0967H214.902V40.6991H212.356ZM216.066 40.6991V40.0967H218.611V40.6991H216.066ZM219.776 40.6991V40.0967H222.321V40.6991H219.776ZM223.485 40.6991V40.0967H226.031V40.6991H223.485ZM227.195 40.6991V40.0967H229.74V40.6991H227.195ZM230.905 40.6991V40.0967H233.45V40.6991H230.905ZM234.614 40.6991V40.0967H237.16V40.6991H234.614ZM238.324 40.6991V40.0967H240.869V40.6991H238.324ZM242.034 40.6991V40.0967H244.579V40.6991H242.034ZM245.743 40.6991V40.0967H248.289V40.6991H245.743ZM249.453 40.6991V40.0967H251.998V40.6991H249.453ZM253.162 40.6991V40.0967H255.708V40.6991H253.162ZM256.872 40.6991V40.0967H259.418V40.6991H256.872ZM260.582 40.6991V40.0967H263.127V40.6991H260.582ZM264.291 40.6991V40.0967H266.837V40.6991H264.291ZM268.001 40.6991V40.0967H270.546V40.6991H268.001ZM271.711 40.6991V40.0967H274.256V40.6991H271.711ZM275.42 40.6991V40.0967H277.966V40.6991H275.42ZM279.13 40.6991V40.0967H281.675V40.6991H279.13ZM282.84 40.6991V40.0967H285.385V40.6991H282.84ZM286.549 40.6991V40.0967H289.095V40.6991H286.549ZM290.259 40.6991V40.0967H292.804V40.6991H290.259ZM293.969 40.6991V40.0967H296.514V40.6991H293.969ZM297.678 40.6991V40.0967H300.224V40.6991H297.678ZM301.388 40.6991V40.0967H303.933V40.6991H301.388ZM305.097 40.6991V40.0967H307.643V40.6991H305.097ZM308.807 40.6991V40.0967H311.353V40.6991H308.807ZM312.517 40.6991V40.0967H315.062V40.6991H312.517ZM316.226 40.6991V40.0967H318.772V40.6991H316.226ZM319.936 40.6991V40.0967H322.481V40.6991H319.936ZM323.646 40.6991V40.0967H326.191V40.6991H323.646ZM327.355 40.6991V40.0967H329.901V40.6991H327.355ZM331.065 40.6991V40.0967H333.61V40.6991H331.065ZM334.775 40.6991V40.0967H337.32V40.6991H334.775Z" fill="#8F8E8E"/>
<rect x="337.667" y="21.4824" width="50.1956" height="37.2419" rx="5.26245" fill="#F1F3F2" stroke="#ADB4B7" stroke-width="0.809607"/>
<path d="M356.12 39.7085C356.12 38.0375 356.441 36.721 357.082 35.7592C357.733 34.7974 358.777 34.3165 360.215 34.3165C361.653 34.3165 362.692 34.7974 363.334 35.7592C363.985 36.721 364.31 38.0375 364.31 39.7085C364.31 41.399 363.985 42.7251 363.334 43.6869C362.692 44.6487 361.653 45.1296 360.215 45.1296C358.777 45.1296 357.733 44.6487 357.082 43.6869C356.441 42.7251 356.12 41.399 356.12 39.7085ZM361.862 39.7085C361.862 38.7272 361.755 37.9743 361.541 37.4497C361.327 36.9153 360.885 36.6482 360.215 36.6482C359.545 36.6482 359.103 36.9153 358.889 37.4497C358.675 37.9743 358.568 38.7272 358.568 39.7085C358.568 40.3691 358.607 40.918 358.685 41.3552C358.763 41.7827 358.918 42.1325 359.151 42.4045C359.394 42.6668 359.749 42.798 360.215 42.798C360.681 42.798 361.031 42.6668 361.264 42.4045C361.507 42.1325 361.667 41.7827 361.745 41.3552C361.823 40.918 361.862 40.3691 361.862 39.7085ZM365.364 36.8522V34.5351H369.401V45.1733H366.807V36.8522H365.364Z" fill="#36404B"/>
<defs>
<filter id="filter0_d_1104_72" x="0.000161171" y="-0.000179291" width="419.203" height="85.1745" filterUnits="userSpaceOnUse" color-interpolation-filters="sRGB">
<feFlood flood-opacity="0" result="BackgroundImageFix"/>
<feColorMatrix in="SourceAlpha" type="matrix" values="0 0 0 0 0 0 0 0 0 0 0 0 0 0 0 0 0 0 127 0" result="hardAlpha"/>
<feOffset dy="3.23843"/>
<feGaussianBlur stdDeviation="6.8007"/>
<feComposite in2="hardAlpha" operator="out"/>
<feColorMatrix type="matrix" values="0 0 0 0 0 0 0 0 0 0 0 0 0 0 0 0 0 0 0.17 0"/>
<feBlend mode="normal" in2="BackgroundImageFix" result="effect1_dropShadow_1104_72"/>
<feBlend mode="normal" in="SourceGraphic" in2="effect1_dropShadow_1104_72" result="shape"/>
</filter>
</defs>
</svg>
