<svg width="420" height="86" viewBox="0 0 420 86" fill="none" xmlns="http://www.w3.org/2000/svg">
<g filter="url(#filter0_d_1139_65)">
<rect x="13.6016" y="10.363" width="392" height="57.9718" rx="10.5249" fill="#FEFFFE"/>
</g>
<circle cx="43.3389" cy="38.0788" r="21.0498" fill="#D9F2EE"/>
<circle cx="43.5575" cy="38.0787" r="17.8114" fill="#0C2461"/>
<path d="M40.281 45.2027C39.5718 45.2027 38.9791 45.0619 38.5031 44.7801C38.027 44.4887 37.6676 44.0903 37.4247 43.5851C37.1818 43.0799 37.0604 42.4922 37.0604 41.8218V36.4735C37.0604 35.7838 37.1721 35.1814 37.3956 34.6665C37.6287 34.1419 37.9833 33.7338 38.4594 33.4424C38.9354 33.1509 39.5426 33.0052 40.281 33.0052C41.0194 33.0052 41.6217 33.1509 42.088 33.4424C42.5641 33.7338 42.9138 34.1419 43.1373 34.6665C43.3705 35.1814 43.487 35.7838 43.487 36.4735V41.8218C43.487 42.4824 43.3656 43.0702 43.1227 43.5851C42.8798 44.0903 42.5204 44.4887 42.0443 44.7801C41.5683 45.0619 40.9805 45.2027 40.281 45.2027ZM40.281 43.0314C40.5142 43.0314 40.6793 42.9585 40.7765 42.8128C40.8833 42.6573 40.9465 42.4824 40.9659 42.2881C40.9951 42.0841 41.0096 41.9092 41.0096 41.7635V36.5318C41.0096 36.3667 40.9999 36.1821 40.9805 35.9781C40.9611 35.7643 40.8979 35.5797 40.791 35.4243C40.6939 35.2591 40.5239 35.1765 40.281 35.1765C40.0381 35.1765 39.8632 35.2591 39.7564 35.4243C39.6592 35.5797 39.6009 35.7643 39.5815 35.9781C39.5621 36.1821 39.5523 36.3667 39.5523 36.5318V41.7635C39.5523 41.9092 39.5669 42.0841 39.5961 42.2881C39.6252 42.4824 39.6884 42.6573 39.7855 42.8128C39.8924 42.9585 40.0575 43.0314 40.281 43.0314ZM46.5154 44.9841V35.5846C46.4085 35.6429 46.2871 35.7012 46.151 35.7595C46.015 35.8178 45.8693 35.8809 45.7139 35.9489C45.5681 36.0072 45.4224 36.0655 45.2767 36.1238C45.1406 36.1821 45.0144 36.2404 44.8978 36.2987V34.4916C45.0046 34.4333 45.1552 34.3556 45.3495 34.2585C45.5438 34.1516 45.7527 34.035 45.9762 33.9087C46.1996 33.7824 46.4085 33.6561 46.6028 33.5298C46.7971 33.3938 46.9428 33.2772 47.04 33.1801H48.949V44.9841H46.5154Z" fill="#FEFFFE"/>
<path d="M75.293 31.5076V22.3266H77.4919C78.1115 22.3266 78.6329 22.4022 79.056 22.5533C79.4867 22.6969 79.8117 22.9462 80.0308 23.3014C80.2575 23.6565 80.3708 24.1401 80.3708 24.7522C80.3708 25.1225 80.3368 25.4549 80.2688 25.7496C80.2008 26.0443 80.0837 26.2975 79.9174 26.5091C79.7588 26.7131 79.5358 26.8718 79.2487 26.9851L80.5295 31.5076H78.852L77.7412 27.3025H76.9705V31.5076H75.293ZM76.9705 26.2484H77.4919C77.8168 26.2484 78.0737 26.203 78.2626 26.1123C78.4591 26.0141 78.5989 25.863 78.682 25.659C78.7651 25.4474 78.8067 25.1791 78.8067 24.8542C78.8067 24.3933 78.7198 24.0495 78.546 23.8228C78.3797 23.5885 78.0586 23.4714 77.5825 23.4714H76.9705V26.2484ZM84.0737 31.6322C83.4238 31.6322 82.9062 31.5113 82.5208 31.2695C82.1355 31.0277 81.8597 30.6801 81.6934 30.2268C81.5272 29.7734 81.4441 29.2369 81.4441 28.6173V25.1829C81.4441 24.5633 81.5272 24.0344 81.6934 23.5961C81.8597 23.1503 82.1355 22.8102 82.5208 22.576C82.9062 22.3417 83.4238 22.2246 84.0737 22.2246C84.7386 22.2246 85.26 22.3417 85.6378 22.576C86.0232 22.8102 86.299 23.1503 86.4652 23.5961C86.639 24.0344 86.7259 24.5633 86.7259 25.1829V28.6286C86.7259 29.2407 86.639 29.7734 86.4652 30.2268C86.299 30.6726 86.0232 31.0202 85.6378 31.2695C85.26 31.5113 84.7386 31.6322 84.0737 31.6322ZM84.0737 30.3968C84.3532 30.3968 84.5573 30.3363 84.6857 30.2154C84.8217 30.0945 84.9124 29.9283 84.9578 29.7167C85.0031 29.5051 85.0258 29.2747 85.0258 29.0253V24.7975C85.0258 24.5406 85.0031 24.3102 84.9578 24.1061C84.9124 23.9021 84.8217 23.7434 84.6857 23.6301C84.5573 23.5092 84.3532 23.4487 84.0737 23.4487C83.8092 23.4487 83.6089 23.5092 83.4729 23.6301C83.3369 23.7434 83.2462 23.9021 83.2009 24.1061C83.1556 24.3102 83.1329 24.5406 83.1329 24.7975V29.0253C83.1329 29.2747 83.1518 29.5051 83.1896 29.7167C83.2349 29.9283 83.3256 30.0945 83.4616 30.2154C83.5976 30.3363 83.8016 30.3968 84.0737 30.3968ZM90.4831 31.6322C89.803 31.6322 89.274 31.5076 88.8962 31.2582C88.5184 31.0089 88.2577 30.6537 88.1141 30.1928C87.9706 29.7318 87.8988 29.1802 87.8988 28.5379V22.3266H89.531V28.7306C89.531 29.0178 89.5499 29.2898 89.5876 29.5467C89.6254 29.7961 89.7123 30.0001 89.8483 30.1588C89.9919 30.3099 90.2035 30.3855 90.4831 30.3855C90.7778 30.3855 90.9893 30.3099 91.1178 30.1588C91.2538 30.0001 91.3407 29.7961 91.3785 29.5467C91.4238 29.2898 91.4465 29.0178 91.4465 28.7306V22.3266H93.0673V28.5379C93.0673 29.1802 92.9955 29.7318 92.852 30.1928C92.7084 30.6537 92.4477 31.0089 92.0699 31.2582C91.6996 31.5076 91.1707 31.6322 90.4831 31.6322ZM94.3867 31.5076V22.3266H95.5542L97.7871 27.5632V22.3266H99.1699V31.5076H98.0591L95.8149 26.0217V31.5076H94.3867ZM100.563 31.5076V22.3266H102.728C103.476 22.3266 104.058 22.4286 104.474 22.6327C104.897 22.8367 105.195 23.1503 105.369 23.5734C105.55 23.9966 105.641 24.5331 105.641 25.1829V28.5379C105.641 29.2029 105.55 29.7583 105.369 30.2041C105.195 30.6424 104.9 30.9711 104.485 31.1902C104.077 31.4018 103.514 31.5076 102.796 31.5076H100.563ZM102.241 30.3401H102.751C103.136 30.3401 103.412 30.2721 103.578 30.1361C103.744 30.0001 103.846 29.8036 103.884 29.5467C103.922 29.2822 103.941 28.9611 103.941 28.5833V25.0696C103.941 24.6993 103.914 24.4008 103.861 24.1741C103.809 23.9475 103.699 23.7812 103.533 23.6754C103.367 23.5696 103.098 23.5167 102.728 23.5167H102.241V30.3401ZM112.099 31.6322C111.427 31.6322 110.898 31.5 110.513 31.2355C110.135 30.9711 109.87 30.6121 109.719 30.1588C109.568 29.6978 109.493 29.1689 109.493 28.5719V25.2963C109.493 24.6691 109.568 24.125 109.719 23.6641C109.87 23.2032 110.135 22.848 110.513 22.5987C110.898 22.3493 111.427 22.2246 112.099 22.2246C112.734 22.2246 113.229 22.3342 113.584 22.5533C113.947 22.7649 114.204 23.0709 114.355 23.4714C114.506 23.8719 114.582 24.3366 114.582 24.8656V25.6363H112.972V24.8429C112.972 24.586 112.957 24.3517 112.927 24.1401C112.904 23.9286 112.832 23.7623 112.712 23.6414C112.598 23.513 112.398 23.4487 112.111 23.4487C111.824 23.4487 111.612 23.5167 111.476 23.6528C111.348 23.7812 111.264 23.9588 111.227 24.1855C111.189 24.4046 111.17 24.654 111.17 24.9336V28.9233C111.17 29.2558 111.196 29.5316 111.249 29.7507C111.302 29.9623 111.397 30.1248 111.533 30.2381C111.676 30.3439 111.869 30.3968 112.111 30.3968C112.39 30.3968 112.587 30.3326 112.7 30.2041C112.821 30.0681 112.897 29.8905 112.927 29.6714C112.957 29.4522 112.972 29.2067 112.972 28.9346V28.1072H114.582V28.844C114.582 29.388 114.51 29.8716 114.366 30.2948C114.223 30.7104 113.97 31.0391 113.607 31.2809C113.252 31.5151 112.749 31.6322 112.099 31.6322ZM118.243 31.6322C117.593 31.6322 117.076 31.5113 116.69 31.2695C116.305 31.0277 116.029 30.6801 115.863 30.2268C115.697 29.7734 115.614 29.2369 115.614 28.6173V25.1829C115.614 24.5633 115.697 24.0344 115.863 23.5961C116.029 23.1503 116.305 22.8102 116.69 22.576C117.076 22.3417 117.593 22.2246 118.243 22.2246C118.908 22.2246 119.43 22.3417 119.807 22.576C120.193 22.8102 120.469 23.1503 120.635 23.5961C120.809 24.0344 120.895 24.5633 120.895 25.1829V28.6286C120.895 29.2407 120.809 29.7734 120.635 30.2268C120.469 30.6726 120.193 31.0202 119.807 31.2695C119.43 31.5113 118.908 31.6322 118.243 31.6322ZM118.243 30.3968C118.523 30.3968 118.727 30.3363 118.855 30.2154C118.991 30.0945 119.082 29.9283 119.127 29.7167C119.173 29.5051 119.195 29.2747 119.195 29.0253V24.7975C119.195 24.5406 119.173 24.3102 119.127 24.1061C119.082 23.9021 118.991 23.7434 118.855 23.6301C118.727 23.5092 118.523 23.4487 118.243 23.4487C117.979 23.4487 117.778 23.5092 117.642 23.6301C117.506 23.7434 117.416 23.9021 117.37 24.1061C117.325 24.3102 117.302 24.5406 117.302 24.7975V29.0253C117.302 29.2747 117.321 29.5051 117.359 29.7167C117.404 29.9283 117.495 30.0945 117.631 30.2154C117.767 30.3363 117.971 30.3968 118.243 30.3968ZM122.136 31.5076V22.3266H123.304L125.537 27.5632V22.3266H126.919V31.5076H125.809L123.564 26.0217V31.5076H122.136ZM129.231 31.5076V23.5621H127.769V22.3266H132.348V23.5621H130.908V31.5076H129.231ZM132.231 31.5076L134.067 22.3266H135.858L137.695 31.5076H136.142L135.779 29.388H134.181L133.807 31.5076H132.231ZM134.351 28.3226H135.598L134.974 24.4688L134.351 28.3226ZM138.663 31.5076V22.3266H140.318V31.5076H138.663ZM141.739 31.5076V22.3266H142.907L145.14 27.5632V22.3266H146.522V31.5076H145.412L143.167 26.0217V31.5076H141.739ZM147.916 31.5076V22.3266H151.769V23.5054H149.593V26.1463H151.305V27.3138H149.593V30.3514H151.792V31.5076H147.916ZM152.764 31.5076V22.3266H154.963C155.582 22.3266 156.104 22.4022 156.527 22.5533C156.958 22.6969 157.283 22.9462 157.502 23.3014C157.728 23.6565 157.842 24.1401 157.842 24.7522C157.842 25.1225 157.808 25.4549 157.74 25.7496C157.672 26.0443 157.555 26.2975 157.388 26.5091C157.23 26.7131 157.007 26.8718 156.72 26.9851L158 31.5076H156.323L155.212 27.3025H154.441V31.5076H152.764ZM154.441 26.2484H154.963C155.288 26.2484 155.545 26.203 155.733 26.1123C155.93 26.0141 156.07 25.863 156.153 25.659C156.236 25.4474 156.278 25.1791 156.278 24.8542C156.278 24.3933 156.191 24.0495 156.017 23.8228C155.851 23.5885 155.529 23.4714 155.053 23.4714H154.441V26.2484ZM161.396 31.6322C160.845 31.6322 160.384 31.5265 160.014 31.3149C159.643 31.0957 159.364 30.7784 159.175 30.3628C158.986 29.9472 158.88 29.4371 158.857 28.8326L160.297 28.5493C160.312 28.9044 160.354 29.218 160.422 29.49C160.497 29.7621 160.607 29.9736 160.75 30.1248C160.901 30.2683 161.098 30.3401 161.34 30.3401C161.612 30.3401 161.804 30.2608 161.918 30.1021C162.031 29.9359 162.088 29.7281 162.088 29.4787C162.088 29.0782 161.997 28.7495 161.816 28.4926C161.634 28.2357 161.393 27.9788 161.09 27.7218L159.934 26.7017C159.609 26.4222 159.349 26.1123 159.152 25.7723C158.963 25.4247 158.869 24.9978 158.869 24.4915C158.869 23.7661 159.08 23.2069 159.504 22.814C159.927 22.4211 160.505 22.2246 161.238 22.2246C161.668 22.2246 162.027 22.2926 162.314 22.4286C162.602 22.5571 162.828 22.7384 162.995 22.9727C163.168 23.2069 163.297 23.4752 163.38 23.7774C163.463 24.0721 163.516 24.3857 163.539 24.7182L162.11 24.9676C162.095 24.6804 162.061 24.4235 162.008 24.1968C161.963 23.9701 161.876 23.7926 161.748 23.6641C161.627 23.5356 161.446 23.4714 161.204 23.4714C160.954 23.4714 160.762 23.5545 160.626 23.7208C160.497 23.8794 160.433 24.0797 160.433 24.3215C160.433 24.6313 160.497 24.8882 160.626 25.0922C160.754 25.2887 160.939 25.4927 161.181 25.7043L162.326 26.7131C162.704 27.0304 163.025 27.4045 163.289 27.8352C163.561 28.2583 163.697 28.7722 163.697 29.3767C163.697 29.8149 163.599 30.2041 163.403 30.5441C163.214 30.8842 162.945 31.1524 162.598 31.3489C162.258 31.5378 161.857 31.6322 161.396 31.6322Z" fill="#0C2461"/>
<path d="M75.0202 44.363V43.7466L76.6555 42.1435C76.8119 41.9856 76.9422 41.8453 77.0465 41.7226C77.1508 41.5999 77.229 41.4811 77.2811 41.3661C77.3332 41.2511 77.3593 41.1284 77.3593 40.9981C77.3593 40.8494 77.3256 40.7221 77.2581 40.6163C77.1906 40.509 77.0979 40.4262 76.9798 40.3679C76.8617 40.3096 76.7275 40.2805 76.5773 40.2805C76.4224 40.2805 76.2867 40.3127 76.1702 40.3771C76.0536 40.44 75.9632 40.5297 75.8988 40.6462C75.8359 40.7627 75.8045 40.9015 75.8045 41.0625H74.9926C74.9926 40.7635 75.0608 40.5036 75.1973 40.2828C75.3337 40.062 75.5216 39.891 75.7608 39.7699C76.0015 39.6488 76.2775 39.5882 76.5888 39.5882C76.9046 39.5882 77.1822 39.6472 77.4214 39.7653C77.6606 39.8834 77.8461 40.0451 77.978 40.2506C78.1114 40.4561 78.1781 40.6907 78.1781 40.9544C78.1781 41.1307 78.1444 41.304 78.0769 41.4742C78.0094 41.6444 77.8906 41.833 77.7204 42.04C77.5517 42.247 77.3148 42.4977 77.0097 42.7921L76.1978 43.6178V43.65H78.2494V44.363H75.0202ZM80.6805 44.4274C80.3738 44.4274 80.0994 44.3699 79.8571 44.2549C79.6148 44.1384 79.4224 43.9789 79.2798 43.7765C79.1387 43.5741 79.0636 43.3426 79.0544 43.0819H79.8824C79.8977 43.2751 79.9813 43.4331 80.1331 43.5557C80.2849 43.6769 80.4674 43.7374 80.6805 43.7374C80.8477 43.7374 80.9964 43.6991 81.1267 43.6224C81.2571 43.5458 81.3598 43.4392 81.4349 43.3027C81.5101 43.1663 81.5469 43.0106 81.5453 42.8358C81.5469 42.658 81.5093 42.5 81.4326 42.362C81.356 42.224 81.2509 42.1159 81.1175 42.0377C80.9841 41.958 80.8308 41.9181 80.6575 41.9181C80.5164 41.9166 80.3777 41.9426 80.2412 41.9963C80.1047 42.05 79.9966 42.1205 79.9169 42.2079L79.1464 42.0814L79.3925 39.6526H82.1249V40.3656H80.0986L79.9629 41.6145H79.9905C80.0779 41.5118 80.2013 41.4267 80.3608 41.3592C80.5203 41.2902 80.6951 41.2557 80.8852 41.2557C81.1704 41.2557 81.425 41.3232 81.6488 41.4581C81.8727 41.5915 82.049 41.7755 82.1778 42.0101C82.3066 42.2447 82.371 42.5131 82.371 42.8151C82.371 43.1264 82.299 43.4039 82.1548 43.6477C82.0122 43.89 81.8137 44.0809 81.5591 44.2204C81.3061 44.3584 81.0133 44.4274 80.6805 44.4274ZM84.8827 44.4527C84.5039 44.4527 84.1788 44.3569 83.9074 44.1652C83.6376 43.972 83.4298 43.6937 83.2841 43.3303C83.14 42.9654 83.0679 42.5261 83.0679 42.0124C83.0695 41.4987 83.1423 41.0617 83.2864 40.7014C83.4321 40.3395 83.6399 40.0635 83.9097 39.8734C84.1811 39.6833 84.5055 39.5882 84.8827 39.5882C85.2599 39.5882 85.5842 39.6833 85.8556 39.8734C86.127 40.0635 86.3347 40.3395 86.4789 40.7014C86.6245 41.0633 86.6974 41.5003 86.6974 42.0124C86.6974 42.5276 86.6245 42.9677 86.4789 43.3326C86.3347 43.696 86.127 43.9736 85.8556 44.1652C85.5857 44.3569 85.2614 44.4527 84.8827 44.4527ZM84.8827 43.7328C85.1771 43.7328 85.4094 43.5879 85.5796 43.2981C85.7513 43.0068 85.8372 42.5782 85.8372 42.0124C85.8372 41.6383 85.7981 41.3239 85.7199 41.0694C85.6417 40.8149 85.5313 40.6232 85.3887 40.4944C85.2461 40.3641 85.0774 40.2989 84.8827 40.2989C84.5898 40.2989 84.3582 40.4446 84.188 40.7359C84.0178 41.0257 83.932 41.4512 83.9304 42.0124C83.9289 42.3881 83.9665 42.704 84.0431 42.96C84.1213 43.2161 84.2317 43.4093 84.3743 43.5396C84.517 43.6684 84.6864 43.7328 84.8827 43.7328ZM87.4708 44.363V40.8302H88.2666V41.4305H88.308C88.3816 41.2281 88.5035 41.0702 88.6737 40.9567C88.8439 40.8417 89.047 40.7842 89.2832 40.7842C89.5224 40.7842 89.724 40.8425 89.8881 40.959C90.0537 41.074 90.1702 41.2312 90.2377 41.4305H90.2745C90.3527 41.2342 90.4845 41.0778 90.6701 40.9613C90.8572 40.8432 91.0787 40.7842 91.3348 40.7842C91.6599 40.7842 91.9251 40.8869 92.1306 41.0924C92.3361 41.2979 92.4388 41.5976 92.4388 41.9917V44.363H91.6039V42.1205C91.6039 41.9012 91.5456 41.741 91.4291 41.6398C91.3126 41.5371 91.17 41.4857 91.0013 41.4857C90.8004 41.4857 90.6432 41.5486 90.5298 41.6743C90.4178 41.7985 90.3619 41.9603 90.3619 42.1596V44.363H89.5454V42.086C89.5454 41.9035 89.4902 41.7579 89.3798 41.649C89.2709 41.5401 89.1283 41.4857 88.952 41.4857C88.8324 41.4857 88.7235 41.5164 88.6254 41.5777C88.5272 41.6375 88.449 41.7226 88.3908 41.833C88.3325 41.9419 88.3034 42.0691 88.3034 42.2148V44.363H87.4708ZM94.1161 39.6526V44.363H93.2835V39.6526H94.1161ZM95.9498 43.719L95.9199 43.972C95.8984 44.1652 95.8601 44.3615 95.8049 44.5608C95.7512 44.7617 95.6945 44.9465 95.6347 45.1151C95.5749 45.2838 95.5266 45.4164 95.4898 45.513H94.9286C94.95 45.4195 94.9792 45.2922 95.016 45.1312C95.0543 44.9702 95.0911 44.7893 95.1264 44.5884C95.1616 44.3876 95.1854 44.1836 95.1977 43.9766L95.2138 43.719H95.9498ZM98.2492 43.489V42.8105L100.248 39.6526H100.814V40.6186H100.469L99.1232 42.7507V42.7875H101.913V43.489H98.2492ZM100.496 44.363V43.282L100.506 42.9784V39.6526H101.311V44.363H100.496ZM104.389 44.4527C104.01 44.4527 103.685 44.3569 103.414 44.1652C103.144 43.972 102.936 43.6937 102.791 43.3303C102.646 42.9654 102.574 42.5261 102.574 42.0124C102.576 41.4987 102.649 41.0617 102.793 40.7014C102.939 40.3395 103.146 40.0635 103.416 39.8734C103.688 39.6833 104.012 39.5882 104.389 39.5882C104.766 39.5882 105.091 39.6833 105.362 39.8734C105.633 40.0635 105.841 40.3395 105.985 40.7014C106.131 41.0633 106.204 41.5003 106.204 42.0124C106.204 42.5276 106.131 42.9677 105.985 43.3326C105.841 43.696 105.633 43.9736 105.362 44.1652C105.092 44.3569 104.768 44.4527 104.389 44.4527ZM104.389 43.7328C104.684 43.7328 104.916 43.5879 105.086 43.2981C105.258 43.0068 105.344 42.5782 105.344 42.0124C105.344 41.6383 105.305 41.3239 105.226 41.0694C105.148 40.8149 105.038 40.6232 104.895 40.4944C104.753 40.3641 104.584 40.2989 104.389 40.2989C104.096 40.2989 103.865 40.4446 103.695 40.7359C103.524 41.0257 103.438 41.4512 103.437 42.0124C103.435 42.3881 103.473 42.704 103.55 42.96C103.628 43.2161 103.738 43.4093 103.881 43.5396C104.023 43.6684 104.193 43.7328 104.389 43.7328ZM108.709 44.4527C108.33 44.4527 108.005 44.3569 107.734 44.1652C107.464 43.972 107.256 43.6937 107.111 43.3303C106.966 42.9654 106.894 42.5261 106.894 42.0124C106.896 41.4987 106.969 41.0617 107.113 40.7014C107.259 40.3395 107.466 40.0635 107.736 39.8734C108.008 39.6833 108.332 39.5882 108.709 39.5882C109.086 39.5882 109.411 39.6833 109.682 39.8734C109.953 40.0635 110.161 40.3395 110.305 40.7014C110.451 41.0633 110.524 41.5003 110.524 42.0124C110.524 42.5276 110.451 42.9677 110.305 43.3326C110.161 43.696 109.953 43.9736 109.682 44.1652C109.412 44.3569 109.088 44.4527 108.709 44.4527ZM108.709 43.7328C109.004 43.7328 109.236 43.5879 109.406 43.2981C109.578 43.0068 109.664 42.5782 109.664 42.0124C109.664 41.6383 109.625 41.3239 109.546 41.0694C109.468 40.8149 109.358 40.6232 109.215 40.4944C109.073 40.3641 108.904 40.2989 108.709 40.2989C108.416 40.2989 108.185 40.4446 108.015 40.7359C107.844 41.0257 107.758 41.4512 107.757 42.0124C107.755 42.3881 107.793 42.704 107.87 42.96C107.948 43.2161 108.058 43.4093 108.201 43.5396C108.343 43.6684 108.513 43.7328 108.709 43.7328ZM111.297 44.363V40.8302H112.093V41.4305H112.134C112.208 41.2281 112.33 41.0702 112.5 40.9567C112.67 40.8417 112.874 40.7842 113.11 40.7842C113.349 40.7842 113.55 40.8425 113.715 40.959C113.88 41.074 113.997 41.2312 114.064 41.4305H114.101C114.179 41.2342 114.311 41.0778 114.497 40.9613C114.684 40.8432 114.905 40.7842 115.161 40.7842C115.486 40.7842 115.752 40.8869 115.957 41.0924C116.163 41.2979 116.265 41.5976 116.265 41.9917V44.363H115.43V42.1205C115.43 41.9012 115.372 41.741 115.256 41.6398C115.139 41.5371 114.996 41.4857 114.828 41.4857C114.627 41.4857 114.47 41.5486 114.356 41.6743C114.244 41.7985 114.188 41.9603 114.188 42.1596V44.363H113.372V42.086C113.372 41.9035 113.317 41.7579 113.206 41.649C113.097 41.5401 112.955 41.4857 112.778 41.4857C112.659 41.4857 112.55 41.5164 112.452 41.5777C112.354 41.6375 112.276 41.7226 112.217 41.833C112.159 41.9419 112.13 42.0691 112.13 42.2148V44.363H111.297ZM117.943 39.6526V44.363H117.11V39.6526H117.943ZM119.776 43.719L119.746 43.972C119.725 44.1652 119.687 44.3615 119.631 44.5608C119.578 44.7617 119.521 44.9465 119.461 45.1151C119.401 45.2838 119.353 45.4164 119.316 45.513H118.755C118.777 45.4195 118.806 45.2922 118.842 45.1312C118.881 44.9702 118.918 44.7893 118.953 44.5884C118.988 44.3876 119.012 44.1836 119.024 43.9766L119.04 43.719H119.776ZM123.798 44.4274C123.492 44.4274 123.217 44.3699 122.975 44.2549C122.733 44.1384 122.54 43.9789 122.398 43.7765C122.257 43.5741 122.182 43.3426 122.172 43.0819H123C123.016 43.2751 123.099 43.4331 123.251 43.5557C123.403 43.6769 123.585 43.7374 123.798 43.7374C123.966 43.7374 124.114 43.6991 124.245 43.6224C124.375 43.5458 124.478 43.4392 124.553 43.3027C124.628 43.1663 124.665 43.0106 124.663 42.8358C124.665 42.658 124.627 42.5 124.551 42.362C124.474 42.224 124.369 42.1159 124.235 42.0377C124.102 41.958 123.949 41.9181 123.775 41.9181C123.634 41.9166 123.496 41.9426 123.359 41.9963C123.223 42.05 123.115 42.1205 123.035 42.2079L122.264 42.0814L122.51 39.6526H125.243V40.3656H123.217L123.081 41.6145H123.108C123.196 41.5118 123.319 41.4267 123.479 41.3592C123.638 41.2902 123.813 41.2557 124.003 41.2557C124.288 41.2557 124.543 41.3232 124.767 41.4581C124.991 41.5915 125.167 41.7755 125.296 42.0101C125.425 42.2447 125.489 42.5131 125.489 42.8151C125.489 43.1264 125.417 43.4039 125.273 43.6477C125.13 43.89 124.932 44.0809 124.677 44.2204C124.424 44.3584 124.131 44.4274 123.798 44.4274ZM128.001 44.4527C127.622 44.4527 127.297 44.3569 127.025 44.1652C126.755 43.972 126.548 43.6937 126.402 43.3303C126.258 42.9654 126.186 42.5261 126.186 42.0124C126.187 41.4987 126.26 41.0617 126.404 40.7014C126.55 40.3395 126.758 40.0635 127.028 39.8734C127.299 39.6833 127.623 39.5882 128.001 39.5882C128.378 39.5882 128.702 39.6833 128.973 39.8734C129.245 40.0635 129.453 40.3395 129.597 40.7014C129.742 41.0633 129.815 41.5003 129.815 42.0124C129.815 42.5276 129.742 42.9677 129.597 43.3326C129.453 43.696 129.245 43.9736 128.973 44.1652C128.704 44.3569 128.379 44.4527 128.001 44.4527ZM128.001 43.7328C128.295 43.7328 128.527 43.5879 128.697 43.2981C128.869 43.0068 128.955 42.5782 128.955 42.0124C128.955 41.6383 128.916 41.3239 128.838 41.0694C128.76 40.8149 128.649 40.6232 128.507 40.4944C128.364 40.3641 128.195 40.2989 128.001 40.2989C127.708 40.2989 127.476 40.4446 127.306 40.7359C127.136 41.0257 127.05 41.4512 127.048 42.0124C127.047 42.3881 127.084 42.704 127.161 42.96C127.239 43.2161 127.35 43.4093 127.492 43.5396C127.635 43.6684 127.804 43.7328 128.001 43.7328ZM132.321 44.4527C131.942 44.4527 131.617 44.3569 131.345 44.1652C131.076 43.972 130.868 43.6937 130.722 43.3303C130.578 42.9654 130.506 42.5261 130.506 42.0124C130.507 41.4987 130.58 41.0617 130.724 40.7014C130.87 40.3395 131.078 40.0635 131.348 39.8734C131.619 39.6833 131.943 39.5882 132.321 39.5882C132.698 39.5882 133.022 39.6833 133.293 39.8734C133.565 40.0635 133.773 40.3395 133.917 40.7014C134.062 41.0633 134.135 41.5003 134.135 42.0124C134.135 42.5276 134.062 42.9677 133.917 43.3326C133.773 43.696 133.565 43.9736 133.293 44.1652C133.024 44.3569 132.699 44.4527 132.321 44.4527ZM132.321 43.7328C132.615 43.7328 132.847 43.5879 133.017 43.2981C133.189 43.0068 133.275 42.5782 133.275 42.0124C133.275 41.6383 133.236 41.3239 133.158 41.0694C133.08 40.8149 132.969 40.6232 132.827 40.4944C132.684 40.3641 132.515 40.2989 132.321 40.2989C132.028 40.2989 131.796 40.4446 131.626 40.7359C131.456 41.0257 131.37 41.4512 131.368 42.0124C131.367 42.3881 131.404 42.704 131.481 42.96C131.559 43.2161 131.67 43.4093 131.812 43.5396C131.955 43.6684 132.124 43.7328 132.321 43.7328ZM134.909 44.363V40.8302H135.704V41.4305H135.746C135.819 41.2281 135.941 41.0702 136.112 40.9567C136.282 40.8417 136.485 40.7842 136.721 40.7842C136.96 40.7842 137.162 40.8425 137.326 40.959C137.492 41.074 137.608 41.2312 137.676 41.4305H137.712C137.791 41.2342 137.922 41.0778 138.108 40.9613C138.295 40.8432 138.517 40.7842 138.773 40.7842C139.098 40.7842 139.363 40.8869 139.569 41.0924C139.774 41.2979 139.877 41.5976 139.877 41.9917V44.363H139.042V42.1205C139.042 41.9012 138.984 41.741 138.867 41.6398C138.75 41.5371 138.608 41.4857 138.439 41.4857C138.238 41.4857 138.081 41.5486 137.968 41.6743C137.856 41.7985 137.8 41.9603 137.8 42.1596V44.363H136.983V42.086C136.983 41.9035 136.928 41.7579 136.818 41.649C136.709 41.5401 136.566 41.4857 136.39 41.4857C136.27 41.4857 136.161 41.5164 136.063 41.5777C135.965 41.6375 135.887 41.7226 135.829 41.833C135.77 41.9419 135.741 42.0691 135.741 42.2148V44.363H134.909ZM141.554 39.6526V44.363H140.721V39.6526H141.554ZM143.388 43.719L143.358 43.972C143.336 44.1652 143.298 44.3615 143.243 44.5608C143.189 44.7617 143.132 44.9465 143.073 45.1151C143.013 45.2838 142.965 45.4164 142.928 45.513H142.366C142.388 45.4195 142.417 45.2922 142.454 45.1312C142.492 44.9702 142.529 44.7893 142.564 44.5884C142.6 44.3876 142.623 44.1836 142.636 43.9766L142.652 43.719H143.388ZM75.1927 55.363L77.196 51.3978V51.3656H74.8707V50.6526H78.0792V51.3817L76.0782 55.363H75.1927ZM80.3959 55.4274C80.0892 55.4274 79.8148 55.3699 79.5725 55.2549C79.3302 55.1384 79.1378 54.9789 78.9952 54.7765C78.8541 54.5741 78.779 54.3426 78.7698 54.0819H79.5978C79.6131 54.2751 79.6967 54.4331 79.8485 54.5557C80.0003 54.6769 80.1828 54.7374 80.3959 54.7374C80.563 54.7374 80.7118 54.6991 80.8421 54.6224C80.9724 54.5458 81.0752 54.4392 81.1503 54.3027C81.2254 54.1663 81.2622 54.0106 81.2607 53.8358C81.2622 53.658 81.2247 53.5 81.148 53.362C81.0713 53.224 80.9663 53.1159 80.8329 53.0377C80.6995 52.958 80.5462 52.9181 80.3729 52.9181C80.2318 52.9166 80.0931 52.9426 79.9566 52.9963C79.8201 53.05 79.712 53.1205 79.6323 53.2079L78.8618 53.0814L79.1079 50.6526H81.8403V51.3656H79.814L79.6783 52.6145H79.7059C79.7933 52.5118 79.9167 52.4267 80.0762 52.3592C80.2357 52.2902 80.4105 52.2557 80.6006 52.2557C80.8858 52.2557 81.1403 52.3232 81.3642 52.4581C81.5881 52.5915 81.7644 52.7755 81.8932 53.0101C82.022 53.2447 82.0864 53.5131 82.0864 53.8151C82.0864 54.1264 82.0143 54.4039 81.8702 54.6477C81.7276 54.89 81.529 55.0809 81.2745 55.2204C81.0215 55.3584 80.7286 55.4274 80.3959 55.4274ZM84.598 55.4527C84.2193 55.4527 83.8942 55.3569 83.6228 55.1652C83.3529 54.972 83.1452 54.6937 82.9995 54.3303C82.8554 53.9654 82.7833 53.5261 82.7833 53.0124C82.7848 52.4987 82.8577 52.0617 83.0018 51.7014C83.1475 51.3395 83.3552 51.0635 83.6251 50.8734C83.8965 50.6833 84.2208 50.5882 84.598 50.5882C84.9752 50.5882 85.2995 50.6833 85.5709 50.8734C85.8423 51.0635 86.0501 51.3395 86.1942 51.7014C86.3399 52.0633 86.4127 52.5003 86.4127 53.0124C86.4127 53.5276 86.3399 53.9677 86.1942 54.3326C86.0501 54.696 85.8423 54.9736 85.5709 55.1652C85.3011 55.3569 84.9768 55.4527 84.598 55.4527ZM84.598 54.7328C84.8924 54.7328 85.1247 54.5879 85.2949 54.2981C85.4667 54.0068 85.5525 53.5782 85.5525 53.0124C85.5525 52.6383 85.5134 52.3239 85.4352 52.0694C85.357 51.8149 85.2466 51.6232 85.104 51.4944C84.9614 51.3641 84.7928 51.2989 84.598 51.2989C84.3052 51.2989 84.0736 51.4446 83.9034 51.7359C83.7332 52.0257 83.6474 52.4512 83.6458 53.0124C83.6443 53.3881 83.6819 53.704 83.7585 53.96C83.8367 54.2161 83.9471 54.4093 84.0897 54.5396C84.2323 54.6684 84.4018 54.7328 84.598 54.7328ZM87.1861 55.363V51.8302H87.9819V52.4305H88.0233C88.0969 52.2281 88.2188 52.0702 88.389 51.9567C88.5592 51.8417 88.7624 51.7842 88.9985 51.7842C89.2377 51.7842 89.4394 51.8425 89.6034 51.959C89.769 52.074 89.8856 52.2312 89.9531 52.4305H89.9899C90.0681 52.2342 90.1999 52.0778 90.3855 51.9613C90.5725 51.8432 90.7941 51.7842 91.0502 51.7842C91.3752 51.7842 91.6405 51.8869 91.846 52.0924C92.0514 52.2979 92.1542 52.5976 92.1542 52.9917V55.363H91.3193V53.1205C91.3193 52.9012 91.261 52.741 91.1445 52.6398C91.0279 52.5371 90.8853 52.4857 90.7167 52.4857C90.5158 52.4857 90.3586 52.5486 90.2452 52.6743C90.1332 52.7985 90.0773 52.9603 90.0773 53.1596V55.363H89.2607V53.086C89.2607 52.9035 89.2055 52.7579 89.0951 52.649C88.9863 52.5401 88.8437 52.4857 88.6673 52.4857C88.5477 52.4857 88.4389 52.5164 88.3407 52.5777C88.2426 52.6375 88.1644 52.7226 88.1061 52.833C88.0479 52.9419 88.0187 53.0691 88.0187 53.2148V55.363H87.1861ZM93.8315 50.6526V55.363H92.9989V50.6526H93.8315ZM98.0583 51.8302V52.4742H96.0274V51.8302H98.0583ZM96.5288 50.9838H97.3614V54.3004C97.3614 54.4124 97.3783 54.4982 97.412 54.558C97.4473 54.6163 97.4933 54.6562 97.55 54.6776C97.6068 54.6991 97.6696 54.7098 97.7386 54.7098C97.7908 54.7098 97.8383 54.706 97.8812 54.6983C97.9257 54.6907 97.9594 54.6838 97.9824 54.6776L98.1227 55.3285C98.0783 55.3439 98.0146 55.3607 97.9318 55.3791C97.8506 55.3975 97.7509 55.4083 97.6328 55.4113C97.4243 55.4175 97.2364 55.386 97.0693 55.317C96.9022 55.2465 96.7695 55.1376 96.6714 54.9904C96.5748 54.8432 96.5273 54.6592 96.5288 54.4384V50.9838ZM99.7713 55.4343C99.5474 55.4343 99.3458 55.3945 99.1664 55.3147C98.9885 55.2335 98.8474 55.1139 98.7432 54.9559C98.6404 54.798 98.5891 54.6033 98.5891 54.3717C98.5891 54.1724 98.6259 54.0076 98.6995 53.8772C98.7731 53.7469 98.8735 53.6426 99.0008 53.5644C99.128 53.4862 99.2714 53.4272 99.4309 53.3873C99.5919 53.3459 99.7582 53.316 99.93 53.2976C100.137 53.2762 100.305 53.257 100.434 53.2401C100.562 53.2217 100.656 53.1941 100.714 53.1573C100.774 53.119 100.804 53.0599 100.804 52.9802V52.9664C100.804 52.7931 100.753 52.659 100.65 52.5639C100.547 52.4688 100.399 52.4213 100.206 52.4213C100.002 52.4213 99.8403 52.4658 99.7207 52.5547C99.6026 52.6436 99.5229 52.7487 99.4815 52.8698L98.7041 52.7594C98.7654 52.5447 98.8666 52.3653 99.0077 52.2212C99.1487 52.0755 99.3212 51.9667 99.5252 51.8946C99.7291 51.821 99.9545 51.7842 100.201 51.7842C100.372 51.7842 100.541 51.8041 100.71 51.844C100.878 51.8839 101.032 51.9498 101.172 52.0418C101.312 52.1323 101.423 52.2557 101.508 52.4121C101.594 52.5685 101.637 52.764 101.637 52.9986V55.363H100.836V54.8777H100.809C100.758 54.9759 100.687 55.0679 100.595 55.1537C100.504 55.2381 100.39 55.3063 100.252 55.3584C100.116 55.409 99.9553 55.4343 99.7713 55.4343ZM99.9875 54.8225C100.155 54.8225 100.3 54.7896 100.422 54.7236C100.545 54.6562 100.639 54.5672 100.705 54.4568C100.773 54.3464 100.806 54.2261 100.806 54.0957V53.6794C100.78 53.7009 100.736 53.7208 100.673 53.7392C100.612 53.7576 100.543 53.7737 100.466 53.7875C100.389 53.8013 100.313 53.8136 100.238 53.8243C100.163 53.8351 100.098 53.8443 100.043 53.8519C99.9185 53.8688 99.8073 53.8964 99.7092 53.9347C99.611 53.9731 99.5336 54.0267 99.4769 54.0957C99.4201 54.1632 99.3918 54.2506 99.3918 54.3579C99.3918 54.5113 99.4477 54.627 99.5597 54.7052C99.6716 54.7834 99.8142 54.8225 99.9875 54.8225ZM103.306 50.6526V55.363H102.474V50.6526H103.306ZM104.995 50.6526V55.363H104.163V50.6526H104.995ZM106.829 54.719L106.799 54.972C106.778 55.1652 106.739 55.3615 106.684 55.5608C106.63 55.7617 106.574 55.9465 106.514 56.1151C106.454 56.2838 106.406 56.4164 106.369 56.513H105.808C105.829 56.4195 105.858 56.2922 105.895 56.1312C105.933 55.9702 105.97 55.7893 106.005 55.5884C106.041 55.3876 106.065 55.1836 106.077 54.9766L106.093 54.719H106.829ZM111.129 50.6526V55.363H110.276V51.4829H110.248L109.147 52.1867V51.4047L110.317 50.6526H111.129ZM114.066 55.4527C113.688 55.4527 113.363 55.3569 113.091 55.1652C112.821 54.972 112.614 54.6937 112.468 54.3303C112.324 53.9654 112.252 53.5261 112.252 53.0124C112.253 52.4987 112.326 52.0617 112.47 51.7014C112.616 51.3395 112.824 51.0635 113.094 50.8734C113.365 50.6833 113.689 50.5882 114.066 50.5882C114.444 50.5882 114.768 50.6833 115.039 50.8734C115.311 51.0635 115.519 51.3395 115.663 51.7014C115.808 52.0633 115.881 52.5003 115.881 53.0124C115.881 53.5276 115.808 53.9677 115.663 54.3326C115.519 54.696 115.311 54.9736 115.039 55.1652C114.77 55.3569 114.445 55.4527 114.066 55.4527ZM114.066 54.7328C114.361 54.7328 114.593 54.5879 114.763 54.2981C114.935 54.0068 115.021 53.5782 115.021 53.0124C115.021 52.6383 114.982 52.3239 114.904 52.0694C114.825 51.8149 114.715 51.6232 114.572 51.4944C114.43 51.3641 114.261 51.2989 114.066 51.2989C113.774 51.2989 113.542 51.4446 113.372 51.7359C113.202 52.0257 113.116 52.4512 113.114 53.0124C113.113 53.3881 113.15 53.704 113.227 53.96C113.305 54.2161 113.416 54.4093 113.558 54.5396C113.701 54.6684 113.87 54.7328 114.066 54.7328ZM118.386 55.4527C118.008 55.4527 117.683 55.3569 117.411 55.1652C117.141 54.972 116.934 54.6937 116.788 54.3303C116.644 53.9654 116.572 53.5261 116.572 53.0124C116.573 52.4987 116.646 52.0617 116.79 51.7014C116.936 51.3395 117.144 51.0635 117.414 50.8734C117.685 50.6833 118.009 50.5882 118.386 50.5882C118.764 50.5882 119.088 50.6833 119.359 50.8734C119.631 51.0635 119.839 51.3395 119.983 51.7014C120.128 52.0633 120.201 52.5003 120.201 53.0124C120.201 53.5276 120.128 53.9677 119.983 54.3326C119.839 54.696 119.631 54.9736 119.359 55.1652C119.09 55.3569 118.765 55.4527 118.386 55.4527ZM118.386 54.7328C118.681 54.7328 118.913 54.5879 119.083 54.2981C119.255 54.0068 119.341 53.5782 119.341 53.0124C119.341 52.6383 119.302 52.3239 119.224 52.0694C119.145 51.8149 119.035 51.6232 118.892 51.4944C118.75 51.3641 118.581 51.2989 118.386 51.2989C118.094 51.2989 117.862 51.4446 117.692 51.7359C117.522 52.0257 117.436 52.4512 117.434 53.0124C117.433 53.3881 117.47 53.704 117.547 53.96C117.625 54.2161 117.736 54.4093 117.878 54.5396C118.021 54.6684 118.19 54.7328 118.386 54.7328ZM122.706 55.4527C122.328 55.4527 122.003 55.3569 121.731 55.1652C121.461 54.972 121.254 54.6937 121.108 54.3303C120.964 53.9654 120.892 53.5261 120.892 53.0124C120.893 52.4987 120.966 52.0617 121.11 51.7014C121.256 51.3395 121.464 51.0635 121.734 50.8734C122.005 50.6833 122.329 50.5882 122.706 50.5882C123.084 50.5882 123.408 50.6833 123.679 50.8734C123.951 51.0635 124.159 51.3395 124.303 51.7014C124.448 52.0633 124.521 52.5003 124.521 53.0124C124.521 53.5276 124.448 53.9677 124.303 54.3326C124.159 54.696 123.951 54.9736 123.679 55.1652C123.41 55.3569 123.085 55.4527 122.706 55.4527ZM122.706 54.7328C123.001 54.7328 123.233 54.5879 123.403 54.2981C123.575 54.0068 123.661 53.5782 123.661 53.0124C123.661 52.6383 123.622 52.3239 123.544 52.0694C123.466 51.8149 123.355 51.6232 123.212 51.4944C123.07 51.3641 122.901 51.2989 122.706 51.2989C122.414 51.2989 122.182 51.4446 122.012 51.7359C121.842 52.0257 121.756 52.4512 121.754 53.0124C121.753 53.3881 121.79 53.704 121.867 53.96C121.945 54.2161 122.056 54.4093 122.198 54.5396C122.341 54.6684 122.51 54.7328 122.706 54.7328ZM125.295 55.363V51.8302H126.09V52.4305H126.132C126.205 52.2281 126.327 52.0702 126.498 51.9567C126.668 51.8417 126.871 51.7842 127.107 51.7842C127.346 51.7842 127.548 51.8425 127.712 51.959C127.878 52.074 127.994 52.2312 128.062 52.4305H128.098C128.177 52.2342 128.308 52.0778 128.494 51.9613C128.681 51.8432 128.903 51.7842 129.159 51.7842C129.484 51.7842 129.749 51.8869 129.954 52.0924C130.16 52.2979 130.263 52.5976 130.263 52.9917V55.363H129.428V53.1205C129.428 52.9012 129.369 52.741 129.253 52.6398C129.136 52.5371 128.994 52.4857 128.825 52.4857C128.624 52.4857 128.467 52.5486 128.354 52.6743C128.242 52.7985 128.186 52.9603 128.186 53.1596V55.363H127.369V53.086C127.369 52.9035 127.314 52.7579 127.204 52.649C127.095 52.5401 126.952 52.4857 126.776 52.4857C126.656 52.4857 126.547 52.5164 126.449 52.5777C126.351 52.6375 126.273 52.7226 126.215 52.833C126.156 52.9419 126.127 53.0691 126.127 53.2148V55.363H125.295ZM131.94 50.6526V55.363H131.107V50.6526H131.94Z" fill="#878C90"/>
<path d="M212.356 40.6993V40.097H214.902V40.6993H212.356ZM216.066 40.6993V40.097H218.611V40.6993H216.066ZM219.776 40.6993V40.097H222.321V40.6993H219.776ZM223.485 40.6993V40.097H226.031V40.6993H223.485ZM227.195 40.6993V40.097H229.74V40.6993H227.195ZM230.905 40.6993V40.097H233.45V40.6993H230.905ZM234.614 40.6993V40.097H237.16V40.6993H234.614ZM238.324 40.6993V40.097H240.869V40.6993H238.324ZM242.034 40.6993V40.097H244.579V40.6993H242.034ZM245.743 40.6993V40.097H248.289V40.6993H245.743ZM249.453 40.6993V40.097H251.998V40.6993H249.453ZM253.162 40.6993V40.097H255.708V40.6993H253.162ZM256.872 40.6993V40.097H259.418V40.6993H256.872ZM260.582 40.6993V40.097H263.127V40.6993H260.582ZM264.291 40.6993V40.097H266.837V40.6993H264.291ZM268.001 40.6993V40.097H270.546V40.6993H268.001ZM271.711 40.6993V40.097H274.256V40.6993H271.711ZM275.42 40.6993V40.097H277.966V40.6993H275.42ZM279.13 40.6993V40.097H281.675V40.6993H279.13ZM282.84 40.6993V40.097H285.385V40.6993H282.84ZM286.549 40.6993V40.097H289.095V40.6993H286.549ZM290.259 40.6993V40.097H292.804V40.6993H290.259ZM293.969 40.6993V40.097H296.514V40.6993H293.969ZM297.678 40.6993V40.097H300.224V40.6993H297.678ZM301.388 40.6993V40.097H303.933V40.6993H301.388ZM305.097 40.6993V40.097H307.643V40.6993H305.097ZM308.807 40.6993V40.097H311.353V40.6993H308.807ZM312.517 40.6993V40.097H315.062V40.6993H312.517ZM316.226 40.6993V40.097H318.772V40.6993H316.226ZM319.936 40.6993V40.097H322.481V40.6993H319.936ZM323.646 40.6993V40.097H326.191V40.6993H323.646ZM327.355 40.6993V40.097H329.901V40.6993H327.355ZM331.065 40.6993V40.097H333.61V40.6993H331.065ZM334.775 40.6993V40.097H337.32V40.6993H334.775Z" fill="#8F8E8E"/>
<rect x="337.667" y="21.4827" width="50.1956" height="37.2419" rx="5.26245" fill="#F1F3F2" stroke="#ADB4B7" stroke-width="0.809607"/>
<path d="M356.12 39.7087C356.12 38.0377 356.441 36.7213 357.082 35.7595C357.733 34.7977 358.777 34.3167 360.215 34.3167C361.653 34.3167 362.692 34.7977 363.334 35.7595C363.985 36.7213 364.31 38.0377 364.31 39.7087C364.31 41.3992 363.985 42.7253 363.334 43.6871C362.692 44.649 361.653 45.1299 360.215 45.1299C358.777 45.1299 357.733 44.649 357.082 43.6871C356.441 42.7253 356.12 41.3992 356.12 39.7087ZM361.862 39.7087C361.862 38.7275 361.755 37.9746 361.541 37.4499C361.327 36.9156 360.885 36.6484 360.215 36.6484C359.545 36.6484 359.103 36.9156 358.889 37.4499C358.675 37.9746 358.568 38.7275 358.568 39.7087C358.568 40.3694 358.607 40.9183 358.685 41.3555C358.763 41.7829 358.918 42.1327 359.151 42.4047C359.394 42.667 359.749 42.7982 360.215 42.7982C360.681 42.7982 361.031 42.667 361.264 42.4047C361.507 42.1327 361.667 41.7829 361.745 41.3555C361.823 40.9183 361.862 40.3694 361.862 39.7087ZM365.364 36.8524V34.5353H369.401V45.1736H366.807V36.8524H365.364Z" fill="#36404B"/>
<defs>
<filter id="filter0_d_1139_65" x="0.000161171" y="6.48499e-05" width="419.203" height="85.1747" filterUnits="userSpaceOnUse" color-interpolation-filters="sRGB">
<feFlood flood-opacity="0" result="BackgroundImageFix"/>
<feColorMatrix in="SourceAlpha" type="matrix" values="0 0 0 0 0 0 0 0 0 0 0 0 0 0 0 0 0 0 127 0" result="hardAlpha"/>
<feOffset dy="3.23843"/>
<feGaussianBlur stdDeviation="6.8007"/>
<feComposite in2="hardAlpha" operator="out"/>
<feColorMatrix type="matrix" values="0 0 0 0 0 0 0 0 0 0 0 0 0 0 0 0 0 0 0.17 0"/>
<feBlend mode="normal" in2="BackgroundImageFix" result="effect1_dropShadow_1139_65"/>
<feBlend mode="normal" in="SourceGraphic" in2="effect1_dropShadow_1139_65" result="shape"/>
</filter>
</defs>
</svg>
