<svg width="420" height="86" viewBox="0 0 420 86" fill="none" xmlns="http://www.w3.org/2000/svg">
<g filter="url(#filter0_d_1139_105)">
<rect x="13.6016" y="10.363" width="392" height="57.9718" rx="10.5249" fill="#FEFFFE"/>
</g>
<circle cx="43.3389" cy="37.7624" r="21.0498" fill="#D9F2EE"/>
<circle cx="43.5575" cy="37.7623" r="17.8114" fill="#0C2461"/>
<path d="M40.281 44.8844C39.5718 44.8844 38.9791 44.7435 38.5031 44.4618C38.027 44.1703 37.6676 43.772 37.4247 43.2668C37.1818 42.7616 37.0604 42.1738 37.0604 41.5034V36.1552C37.0604 35.4654 37.1721 34.863 37.3956 34.3481C37.6287 33.8235 37.9833 33.4155 38.4594 33.124C38.9354 32.8326 39.5426 32.6868 40.281 32.6868C41.0194 32.6868 41.6217 32.8326 42.088 33.124C42.5641 33.4155 42.9138 33.8235 43.1373 34.3481C43.3705 34.863 43.487 35.4654 43.487 36.1552V41.5034C43.487 42.1641 43.3656 42.7519 43.1227 43.2668C42.8798 43.772 42.5204 44.1703 42.0443 44.4618C41.5683 44.7435 40.9805 44.8844 40.281 44.8844ZM40.281 42.713C40.5142 42.713 40.6793 42.6401 40.7765 42.4944C40.8833 42.339 40.9465 42.1641 40.9659 41.9698C40.9951 41.7658 41.0096 41.5909 41.0096 41.4452V36.2135C41.0096 36.0483 40.9999 35.8637 40.9805 35.6597C40.9611 35.446 40.8979 35.2614 40.791 35.1059C40.6939 34.9408 40.5239 34.8582 40.281 34.8582C40.0381 34.8582 39.8632 34.9408 39.7564 35.1059C39.6592 35.2614 39.6009 35.446 39.5815 35.6597C39.5621 35.8637 39.5523 36.0483 39.5523 36.2135V41.4452C39.5523 41.5909 39.5669 41.7658 39.5961 41.9698C39.6252 42.1641 39.6884 42.339 39.7855 42.4944C39.8924 42.6401 40.0575 42.713 40.281 42.713ZM48.2933 44.8844C47.4286 44.8844 46.7728 44.7338 46.3259 44.4326C45.8887 44.1217 45.5924 43.6894 45.437 43.1356C45.2815 42.5818 45.2038 41.9406 45.2038 41.212H47.55C47.55 41.6589 47.5743 42.0232 47.6229 42.305C47.6715 42.5867 47.7589 42.7907 47.8852 42.917C48.0212 43.0336 48.2107 43.087 48.4536 43.0773C48.7062 43.0676 48.8859 42.9656 48.9928 42.7713C49.0996 42.577 49.1628 42.3001 49.1822 41.9406C49.2114 41.5715 49.2259 41.1294 49.2259 40.6145C49.2259 40.2259 49.2016 39.881 49.1531 39.5798C49.1142 39.2786 49.0268 39.0406 48.8908 38.8657C48.7645 38.6812 48.5701 38.5889 48.3078 38.5889C48.065 38.5889 47.8658 38.6763 47.7103 38.8512C47.5549 39.026 47.4432 39.2981 47.3752 39.6673H45.2767L45.4953 32.8617H51.0038V34.9019H47.448L47.3169 37.3356C47.414 37.1996 47.5986 37.083 47.8706 36.9858C48.1427 36.879 48.4341 36.811 48.745 36.7818C49.3474 36.7138 49.8526 36.8255 50.2606 37.117C50.6784 37.3987 50.9893 37.8311 51.1933 38.414C51.407 38.9969 51.5139 39.711 51.5139 40.5562C51.5139 41.1877 51.475 41.7706 51.3973 42.305C51.3196 42.8296 51.169 43.2862 50.9455 43.6748C50.7221 44.0537 50.3966 44.35 49.9691 44.5638C49.5417 44.7775 48.983 44.8844 48.2933 44.8844Z" fill="#FEFFFE"/>
<path d="M77.6052 32.3139C77.0536 32.3139 76.5927 32.2081 76.2224 31.9965C75.8521 31.7774 75.5726 31.46 75.3836 31.0444C75.1947 30.6288 75.0889 30.1188 75.0663 29.5143L76.5058 29.2309C76.5209 29.5861 76.5624 29.8996 76.6304 30.1717C76.706 30.4437 76.8156 30.6553 76.9591 30.8064C77.1103 30.95 77.3067 31.0218 77.5485 31.0218C77.8206 31.0218 78.0132 30.9424 78.1266 30.7837C78.2399 30.6175 78.2966 30.4097 78.2966 30.1603C78.2966 29.7598 78.2059 29.4311 78.0246 29.1742C77.8432 28.9173 77.6014 28.6604 77.2992 28.4035L76.1431 27.3834C75.8181 27.1038 75.5574 26.794 75.361 26.454C75.1721 26.1064 75.0776 25.6794 75.0776 25.1732C75.0776 24.4477 75.2892 23.8886 75.7123 23.4956C76.1355 23.1027 76.7136 22.9063 77.4465 22.9063C77.8772 22.9063 78.2362 22.9743 78.5233 23.1103C78.8104 23.2387 79.0371 23.4201 79.2034 23.6543C79.3772 23.8886 79.5056 24.1568 79.5887 24.4591C79.6719 24.7538 79.7248 25.0674 79.7474 25.3998L78.3193 25.6492C78.3042 25.3621 78.2702 25.1051 78.2173 24.8785C78.1719 24.6518 78.085 24.4742 77.9566 24.3457C77.8357 24.2173 77.6543 24.153 77.4125 24.153C77.1632 24.153 76.9705 24.2362 76.8345 24.4024C76.706 24.5611 76.6418 24.7613 76.6418 25.0031C76.6418 25.3129 76.706 25.5699 76.8345 25.7739C76.9629 25.9703 77.148 26.1744 77.3898 26.3859L78.5346 27.3947C78.9125 27.7121 79.2336 28.0861 79.4981 28.5168C79.7701 28.94 79.9061 29.4538 79.9061 30.0583C79.9061 30.4966 79.8079 30.8857 79.6114 31.2258C79.4225 31.5658 79.1543 31.8341 78.8067 32.0305C78.4666 32.2194 78.0661 32.3139 77.6052 32.3139ZM80.8938 32.1892V23.0083H83.1494C83.5574 23.0083 83.9239 23.046 84.2488 23.1216C84.5813 23.1972 84.8647 23.3256 85.0989 23.507C85.3407 23.6808 85.5258 23.9188 85.6543 24.2211C85.7828 24.5233 85.847 24.9049 85.847 25.3658C85.847 25.7361 85.7941 26.0535 85.6883 26.3179C85.5901 26.5824 85.4427 26.794 85.2463 26.9527C85.0498 27.1038 84.8042 27.2058 84.5095 27.2587C84.8722 27.3192 85.1707 27.4476 85.4049 27.6441C85.6467 27.833 85.8243 28.0823 85.9377 28.3922C86.0586 28.702 86.119 29.076 86.119 29.5143C86.119 29.9525 86.0623 30.3417 85.949 30.6817C85.8432 31.0142 85.6807 31.2938 85.4616 31.5205C85.25 31.7396 84.9818 31.9058 84.6569 32.0192C84.3395 32.1325 83.9655 32.1892 83.5347 32.1892H80.8938ZM82.5713 31.0104H83.206C83.7123 31.0104 84.0561 30.8895 84.2375 30.6477C84.4188 30.3984 84.5095 30.0168 84.5095 29.5029C84.5095 29.1327 84.4642 28.8342 84.3735 28.6075C84.2904 28.3733 84.1468 28.1995 83.9428 28.0861C83.7463 27.9728 83.4818 27.9161 83.1494 27.9161H82.5713V31.0104ZM82.5713 26.76H83.138C83.4705 26.76 83.7274 26.7109 83.9088 26.6126C84.0901 26.5144 84.2148 26.3633 84.2828 26.1593C84.3584 25.9552 84.3962 25.6983 84.3962 25.3885C84.3962 25.0636 84.3395 24.8142 84.2261 24.6404C84.1204 24.4591 83.9579 24.3382 83.7388 24.2777C83.5196 24.2097 83.24 24.1757 82.9 24.1757H82.5713V26.76ZM89.9592 32.1892V23.0083H93.7336V24.1644H91.6367V26.8393H93.3482V28.0068H91.6367V32.1892H89.9592ZM97.1349 32.3139C96.4851 32.3139 95.9675 32.193 95.5821 31.9512C95.1967 31.7094 94.9209 31.3618 94.7547 30.9084C94.5884 30.455 94.5053 29.9185 94.5053 29.2989V25.8646C94.5053 25.2449 94.5884 24.716 94.7547 24.2777C94.9209 23.8319 95.1967 23.4919 95.5821 23.2576C95.9675 23.0234 96.4851 22.9063 97.1349 22.9063C97.7999 22.9063 98.3213 23.0234 98.6991 23.2576C99.0844 23.4919 99.3602 23.8319 99.5265 24.2777C99.7003 24.716 99.7872 25.2449 99.7872 25.8646V29.3102C99.7872 29.9223 99.7003 30.455 99.5265 30.9084C99.3602 31.3542 99.0844 31.7018 98.6991 31.9512C98.3213 32.193 97.7999 32.3139 97.1349 32.3139ZM97.1349 31.0784C97.4145 31.0784 97.6185 31.018 97.747 30.8971C97.883 30.7762 97.9737 30.6099 98.019 30.3984C98.0643 30.1868 98.087 29.9563 98.087 29.707V25.4792C98.087 25.2223 98.0643 24.9918 98.019 24.7878C97.9737 24.5838 97.883 24.4251 97.747 24.3117C97.6185 24.1908 97.4145 24.1304 97.1349 24.1304C96.8704 24.1304 96.6702 24.1908 96.5342 24.3117C96.3982 24.4251 96.3075 24.5838 96.2621 24.7878C96.2168 24.9918 96.1941 25.2223 96.1941 25.4792V29.707C96.1941 29.9563 96.213 30.1868 96.2508 30.3984C96.2962 30.6099 96.3868 30.7762 96.5228 30.8971C96.6589 31.018 96.8629 31.0784 97.1349 31.0784ZM101.028 32.1892V23.0083H103.227C103.847 23.0083 104.368 23.0838 104.791 23.235C105.222 23.3785 105.547 23.6279 105.766 23.983C105.993 24.3382 106.106 24.8218 106.106 25.4338C106.106 25.8041 106.072 26.1366 106.004 26.4313C105.936 26.726 105.819 26.9791 105.653 27.1907C105.494 27.3947 105.271 27.5534 104.984 27.6667L106.265 32.1892H104.587L103.476 27.9841H102.706V32.1892H101.028ZM102.706 26.93H103.227C103.552 26.93 103.809 26.8847 103.998 26.794C104.194 26.6958 104.334 26.5446 104.417 26.3406C104.5 26.129 104.542 25.8608 104.542 25.5359C104.542 25.0749 104.455 24.7311 104.281 24.5044C104.115 24.2702 103.794 24.153 103.318 24.153H102.706V26.93ZM112.269 32.3252C111.657 32.3252 111.18 32.2119 110.84 31.9852C110.508 31.7585 110.277 31.4374 110.149 31.0218C110.021 30.6062 109.956 30.1188 109.956 29.5596H111.487C111.487 29.8694 111.505 30.1452 111.543 30.387C111.589 30.6213 111.672 30.8064 111.793 30.9424C111.921 31.0709 112.106 31.1313 112.348 31.1238C112.612 31.1238 112.798 31.0406 112.903 30.8744C113.017 30.7006 113.088 30.4626 113.119 30.1603C113.149 29.8505 113.164 29.4916 113.164 29.0836C113.164 28.7284 113.141 28.4186 113.096 28.1541C113.058 27.8897 112.979 27.6856 112.858 27.5421C112.737 27.3909 112.548 27.3154 112.291 27.3154C112.072 27.3154 111.891 27.3909 111.747 27.5421C111.604 27.6856 111.498 27.8783 111.43 28.1201H110.081L110.172 23.0083H114.297V24.4137H111.487L111.396 26.624C111.509 26.488 111.672 26.3784 111.883 26.2953C112.102 26.2121 112.344 26.163 112.609 26.1479C113.092 26.1253 113.485 26.2273 113.787 26.454C114.09 26.6806 114.313 27.0093 114.456 27.4401C114.6 27.8708 114.672 28.3846 114.672 28.9815C114.672 29.4652 114.638 29.911 114.569 30.319C114.509 30.7271 114.392 31.0822 114.218 31.3845C114.044 31.6792 113.799 31.9096 113.481 32.0759C113.172 32.2421 112.767 32.3252 112.269 32.3252ZM120.796 32.3139C120.244 32.3139 119.783 32.2081 119.413 31.9965C119.043 31.7774 118.763 31.46 118.574 31.0444C118.385 30.6288 118.28 30.1188 118.257 29.5143L119.696 29.2309C119.712 29.5861 119.753 29.8996 119.821 30.1717C119.897 30.4437 120.006 30.6553 120.15 30.8064C120.301 30.95 120.497 31.0218 120.739 31.0218C121.011 31.0218 121.204 30.9424 121.317 30.7837C121.431 30.6175 121.487 30.4097 121.487 30.1603C121.487 29.7598 121.397 29.4311 121.215 29.1742C121.034 28.9173 120.792 28.6604 120.49 28.4035L119.334 27.3834C119.009 27.1038 118.748 26.794 118.552 26.454C118.363 26.1064 118.268 25.6794 118.268 25.1732C118.268 24.4477 118.48 23.8886 118.903 23.4956C119.326 23.1027 119.904 22.9063 120.637 22.9063C121.068 22.9063 121.427 22.9743 121.714 23.1103C122.001 23.2387 122.228 23.4201 122.394 23.6543C122.568 23.8886 122.696 24.1568 122.779 24.4591C122.863 24.7538 122.915 25.0674 122.938 25.3998L121.51 25.6492C121.495 25.3621 121.461 25.1051 121.408 24.8785C121.363 24.6518 121.276 24.4742 121.147 24.3457C121.026 24.2173 120.845 24.153 120.603 24.153C120.354 24.153 120.161 24.2362 120.025 24.4024C119.897 24.5611 119.832 24.7613 119.832 25.0031C119.832 25.3129 119.897 25.5699 120.025 25.7739C120.154 25.9703 120.339 26.1744 120.58 26.3859L121.725 27.3947C122.103 27.7121 122.424 28.0861 122.689 28.5168C122.961 28.94 123.097 29.4538 123.097 30.0583C123.097 30.4966 122.999 30.8857 122.802 31.2258C122.613 31.5658 122.345 31.8341 121.997 32.0305C121.657 32.2194 121.257 32.3139 120.796 32.3139ZM124.13 32.1892V23.0083H125.785V32.1892H124.13ZM127.206 32.1892V23.0083H129.371C130.119 23.0083 130.701 23.1103 131.116 23.3143C131.539 23.5183 131.838 23.8319 132.012 24.2551C132.193 24.6782 132.284 25.2147 132.284 25.8646V29.2196C132.284 29.8845 132.193 30.4399 132.012 30.8857C131.838 31.324 131.543 31.6527 131.128 31.8718C130.72 32.0834 130.157 32.1892 129.439 32.1892H127.206ZM128.883 31.0218H129.393C129.779 31.0218 130.055 30.9537 130.221 30.8177C130.387 30.6817 130.489 30.4853 130.527 30.2283C130.565 29.9639 130.584 29.6427 130.584 29.2649V25.7512C130.584 25.381 130.557 25.0825 130.504 24.8558C130.451 24.6291 130.342 24.4629 130.176 24.3571C130.009 24.2513 129.741 24.1984 129.371 24.1984H128.883V31.0218ZM133.515 32.1892V23.0083H137.369V24.1871H135.193V26.828H136.904V27.9954H135.193V31.0331H137.392V32.1892H133.515ZM141.165 32.1892V23.0083H142.82V32.1892H141.165ZM144.218 32.1892L144.377 23.0083H146.111L147.414 29.3669L148.775 23.0083H150.452L150.622 32.1892H149.375L149.239 25.8079L147.936 32.1892H146.927L145.601 25.7852L145.476 32.1892H144.218ZM151.978 32.1892V23.0083H153.655V31.0331H155.877V32.1892H151.978Z" fill="#0C2461"/>
<path d="M76.6578 45.2536C76.3511 45.2536 76.0766 45.1961 75.8344 45.0811C75.5921 44.9646 75.3997 44.8051 75.2571 44.6027C75.116 44.4003 75.0409 44.1688 75.0317 43.9081H75.8597C75.875 44.1013 75.9586 44.2592 76.1104 44.3819C76.2622 44.503 76.4446 44.5636 76.6578 44.5636C76.8249 44.5636 76.9737 44.5253 77.104 44.4486C77.2343 44.3719 77.3371 44.2654 77.4122 44.1289C77.4873 43.9924 77.5241 43.8368 77.5226 43.662C77.5241 43.4841 77.4866 43.3262 77.4099 43.1882C77.3332 43.0502 77.2282 42.9421 77.0948 42.8639C76.9614 42.7842 76.808 42.7443 76.6348 42.7443C76.4937 42.7428 76.3549 42.7688 76.2185 42.8225C76.082 42.8762 75.9739 42.9467 75.8942 43.0341L75.1237 42.9076L75.3698 40.4788H78.1022V41.1918H76.0759L75.9402 42.4407H75.9678C76.0552 42.3379 76.1786 42.2528 76.3381 42.1854C76.4975 42.1164 76.6723 42.0819 76.8625 42.0819C77.1477 42.0819 77.4022 42.1493 77.6261 42.2843C77.85 42.4177 78.0263 42.6017 78.1551 42.8363C78.2839 43.0709 78.3483 43.3392 78.3483 43.6413C78.3483 43.9526 78.2762 44.2301 78.1321 44.4739C77.9895 44.7162 77.7909 44.9071 77.5364 45.0466C77.2834 45.1846 76.9905 45.2536 76.6578 45.2536ZM80.8599 45.2789C80.4812 45.2789 80.1561 45.1831 79.8847 44.9914C79.6148 44.7982 79.4071 44.5199 79.2614 44.1565C79.1173 43.7916 79.0452 43.3523 79.0452 42.8386C79.0467 42.3249 79.1196 41.8879 79.2637 41.5276C79.4094 41.1657 79.6171 40.8897 79.887 40.6996C80.1584 40.5094 80.4827 40.4144 80.8599 40.4144C81.2371 40.4144 81.5614 40.5094 81.8328 40.6996C82.1042 40.8897 82.312 41.1657 82.4561 41.5276C82.6018 41.8894 82.6746 42.3264 82.6746 42.8386C82.6746 43.3538 82.6018 43.7939 82.4561 44.1588C82.312 44.5222 82.1042 44.7997 81.8328 44.9914C81.563 45.1831 81.2387 45.2789 80.8599 45.2789ZM80.8599 44.559C81.1543 44.559 81.3866 44.4141 81.5568 44.1243C81.7286 43.833 81.8144 43.4044 81.8144 42.8386C81.8144 42.4645 81.7753 42.1501 81.6971 41.8956C81.6189 41.641 81.5085 41.4494 81.3659 41.3206C81.2233 41.1902 81.0547 41.1251 80.8599 41.1251C80.567 41.1251 80.3355 41.2707 80.1653 41.5621C79.9951 41.8519 79.9092 42.2774 79.9077 42.8386C79.9062 43.2143 79.9437 43.5301 80.0204 43.7862C80.0986 44.0423 80.209 44.2355 80.3516 44.3658C80.4942 44.4946 80.6637 44.559 80.8599 44.559ZM85.1799 45.2789C84.8012 45.2789 84.4761 45.1831 84.2047 44.9914C83.9349 44.7982 83.7271 44.5199 83.5814 44.1565C83.4373 43.7916 83.3652 43.3523 83.3652 42.8386C83.3667 42.3249 83.4396 41.8879 83.5837 41.5276C83.7294 41.1657 83.9372 40.8897 84.207 40.6996C84.4784 40.5094 84.8027 40.4144 85.1799 40.4144C85.5571 40.4144 85.8814 40.5094 86.1528 40.6996C86.4242 40.8897 86.632 41.1657 86.7761 41.5276C86.9218 41.8894 86.9946 42.3264 86.9946 42.8386C86.9946 43.3538 86.9218 43.7939 86.7761 44.1588C86.632 44.5222 86.4242 44.7997 86.1528 44.9914C85.883 45.1831 85.5587 45.2789 85.1799 45.2789ZM85.1799 44.559C85.4743 44.559 85.7066 44.4141 85.8768 44.1243C86.0486 43.833 86.1344 43.4044 86.1344 42.8386C86.1344 42.4645 86.0953 42.1501 86.0171 41.8956C85.9389 41.641 85.8285 41.4494 85.6859 41.3206C85.5433 41.1902 85.3747 41.1251 85.1799 41.1251C84.8871 41.1251 84.6555 41.2707 84.4853 41.5621C84.3151 41.8519 84.2293 42.2774 84.2277 42.8386C84.2262 43.2143 84.2638 43.5301 84.3404 43.7862C84.4186 44.0423 84.529 44.2355 84.6716 44.3658C84.8142 44.4946 84.9837 44.559 85.1799 44.559ZM89.3044 46.5876C89.0054 46.5876 88.7486 46.547 88.5339 46.4657C88.3193 46.386 88.1468 46.2787 88.0164 46.1437C87.8861 46.0088 87.7956 45.8593 87.745 45.6952L88.4948 45.5135C88.5286 45.5825 88.5776 45.6507 88.642 45.7182C88.7064 45.7872 88.7931 45.8439 88.9019 45.8884C89.0123 45.9344 89.1511 45.9574 89.3182 45.9574C89.5544 45.9574 89.7499 45.8999 89.9048 45.7849C90.0596 45.6714 90.1371 45.4844 90.1371 45.2237V44.5544H90.0957C90.0527 44.6403 89.9899 44.7284 89.9071 44.8189C89.8258 44.9094 89.7177 44.9853 89.5827 45.0466C89.4493 45.1079 89.2814 45.1386 89.079 45.1386C88.8076 45.1386 88.5615 45.075 88.3407 44.9477C88.1215 44.8189 87.9467 44.6272 87.8163 44.3727C87.6875 44.1166 87.6231 43.7962 87.6231 43.4113C87.6231 43.0234 87.6875 42.696 87.8163 42.4292C87.9467 42.1608 88.1222 41.9577 88.343 41.8197C88.5638 41.6801 88.8099 41.6104 89.0813 41.6104C89.2883 41.6104 89.4585 41.6456 89.5919 41.7162C89.7269 41.7852 89.8342 41.8687 89.914 41.9669C89.9937 42.0635 90.0543 42.1547 90.0957 42.2406H90.1417V41.6564H90.9628V45.2467C90.9628 45.5488 90.8907 45.7987 90.7466 45.9965C90.6024 46.1943 90.4054 46.3423 90.1555 46.4404C89.9055 46.5386 89.6218 46.5876 89.3044 46.5876ZM89.3113 44.4854C89.4877 44.4854 89.6379 44.4425 89.7621 44.3566C89.8864 44.2707 89.9807 44.1473 90.0451 43.9863C90.1095 43.8253 90.1417 43.6321 90.1417 43.4067C90.1417 43.1844 90.1095 42.9896 90.0451 42.8225C89.9822 42.6554 89.8887 42.5258 89.7644 42.4338C89.6418 42.3402 89.4907 42.2935 89.3113 42.2935C89.1258 42.2935 88.9709 42.3418 88.8467 42.4384C88.7225 42.535 88.629 42.6676 88.5661 42.8363C88.5033 43.0034 88.4718 43.1936 88.4718 43.4067C88.4718 43.6229 88.5033 43.8123 88.5661 43.9748C88.6305 44.1358 88.7248 44.2615 88.849 44.352C88.9748 44.4409 89.1289 44.4854 89.3113 44.4854Z" fill="#878C90"/>
<path d="M212.356 40.3829V39.7806H214.902V40.3829H212.356ZM216.066 40.3829V39.7806H218.611V40.3829H216.066ZM219.776 40.3829V39.7806H222.321V40.3829H219.776ZM223.485 40.3829V39.7806H226.031V40.3829H223.485ZM227.195 40.3829V39.7806H229.74V40.3829H227.195ZM230.905 40.3829V39.7806H233.45V40.3829H230.905ZM234.614 40.3829V39.7806H237.16V40.3829H234.614ZM238.324 40.3829V39.7806H240.869V40.3829H238.324ZM242.034 40.3829V39.7806H244.579V40.3829H242.034ZM245.743 40.3829V39.7806H248.289V40.3829H245.743ZM249.453 40.3829V39.7806H251.998V40.3829H249.453ZM253.162 40.3829V39.7806H255.708V40.3829H253.162ZM256.872 40.3829V39.7806H259.418V40.3829H256.872ZM260.582 40.3829V39.7806H263.127V40.3829H260.582ZM264.291 40.3829V39.7806H266.837V40.3829H264.291ZM268.001 40.3829V39.7806H270.546V40.3829H268.001ZM271.711 40.3829V39.7806H274.256V40.3829H271.711ZM275.42 40.3829V39.7806H277.966V40.3829H275.42ZM279.13 40.3829V39.7806H281.675V40.3829H279.13ZM282.84 40.3829V39.7806H285.385V40.3829H282.84ZM286.549 40.3829V39.7806H289.095V40.3829H286.549ZM290.259 40.3829V39.7806H292.804V40.3829H290.259ZM293.969 40.3829V39.7806H296.514V40.3829H293.969ZM297.678 40.3829V39.7806H300.224V40.3829H297.678ZM301.388 40.3829V39.7806H303.933V40.3829H301.388ZM305.097 40.3829V39.7806H307.643V40.3829H305.097ZM308.807 40.3829V39.7806H311.353V40.3829H308.807ZM312.517 40.3829V39.7806H315.062V40.3829H312.517ZM316.226 40.3829V39.7806H318.772V40.3829H316.226ZM319.936 40.3829V39.7806H322.481V40.3829H319.936ZM323.646 40.3829V39.7806H326.191V40.3829H323.646ZM327.355 40.3829V39.7806H329.901V40.3829H327.355ZM331.065 40.3829V39.7806H333.61V40.3829H331.065ZM334.775 40.3829V39.7806H337.32V40.3829H334.775Z" fill="#8F8E8E"/>
<rect x="337.667" y="21.1663" width="50.1956" height="37.2419" rx="5.26245" fill="#F1F3F2" stroke="#ADB4B7" stroke-width="0.809607"/>
<path d="M354.12 39.3923C354.12 37.7213 354.441 36.4049 355.082 35.4431C355.733 34.4812 356.778 34.0003 358.215 34.0003C359.653 34.0003 360.693 34.4812 361.334 35.4431C361.985 36.4049 362.31 37.7213 362.31 39.3923C362.31 41.0828 361.985 42.4089 361.334 43.3707C360.693 44.3326 359.653 44.8135 358.215 44.8135C356.778 44.8135 355.733 44.3326 355.082 43.3707C354.441 42.4089 354.12 41.0828 354.12 39.3923ZM359.862 39.3923C359.862 38.4111 359.755 37.6581 359.542 37.1335C359.328 36.5992 358.886 36.332 358.215 36.332C357.545 36.332 357.103 36.5992 356.889 37.1335C356.676 37.6581 356.569 38.4111 356.569 39.3923C356.569 40.053 356.608 40.6019 356.685 41.0391C356.763 41.4665 356.918 41.8163 357.152 42.0883C357.395 42.3506 357.749 42.4818 358.215 42.4818C358.682 42.4818 359.032 42.3506 359.265 42.0883C359.508 41.8163 359.668 41.4665 359.746 41.0391C359.823 40.6019 359.862 40.053 359.862 39.3923ZM371.118 36.3903H366.571V38.4014C366.765 38.1876 367.037 38.0128 367.387 37.8767C367.737 37.7407 368.116 37.6727 368.524 37.6727C369.252 37.6727 369.855 37.8379 370.331 38.1682C370.816 38.4985 371.171 38.926 371.394 39.4506C371.618 39.9752 371.73 40.5436 371.73 41.1557C371.73 42.2923 371.409 43.1959 370.768 43.8662C370.127 44.5269 369.223 44.8572 368.057 44.8572C367.28 44.8572 366.605 44.726 366.032 44.4637C365.458 44.1917 365.016 43.8176 364.705 43.3416C364.395 42.8655 364.225 42.3166 364.195 41.6949H366.629C366.687 41.996 366.828 42.2486 367.052 42.4526C367.275 42.6469 367.581 42.7441 367.97 42.7441C368.426 42.7441 368.766 42.5984 368.99 42.3069C369.213 42.0155 369.325 41.6268 369.325 41.1411C369.325 40.665 369.208 40.3007 368.975 40.0481C368.742 39.7955 368.402 39.6692 367.955 39.6692C367.625 39.6692 367.353 39.7518 367.139 39.917C366.925 40.0724 366.785 40.2813 366.717 40.5436H364.312V34.2044H371.118V36.3903Z" fill="#36404B"/>
<defs>
<filter id="filter0_d_1139_105" x="0.000161171" y="6.48499e-05" width="419.203" height="85.1747" filterUnits="userSpaceOnUse" color-interpolation-filters="sRGB">
<feFlood flood-opacity="0" result="BackgroundImageFix"/>
<feColorMatrix in="SourceAlpha" type="matrix" values="0 0 0 0 0 0 0 0 0 0 0 0 0 0 0 0 0 0 127 0" result="hardAlpha"/>
<feOffset dy="3.23843"/>
<feGaussianBlur stdDeviation="6.8007"/>
<feComposite in2="hardAlpha" operator="out"/>
<feColorMatrix type="matrix" values="0 0 0 0 0 0 0 0 0 0 0 0 0 0 0 0 0 0 0.17 0"/>
<feBlend mode="normal" in2="BackgroundImageFix" result="effect1_dropShadow_1139_105"/>
<feBlend mode="normal" in="SourceGraphic" in2="effect1_dropShadow_1139_105" result="shape"/>
</filter>
</defs>
</svg>
