<svg width="420" height="86" viewBox="0 0 420 86" fill="none" xmlns="http://www.w3.org/2000/svg">
<g filter="url(#filter0_d_1104_112)">
<rect x="13.6016" y="10.3628" width="392" height="57.9718" rx="10.5249" fill="#FEFFFE"/>
</g>
<circle cx="43.3389" cy="37.7622" r="21.0498" fill="#D9F2EE"/>
<circle cx="43.5575" cy="37.762" r="17.8114" fill="#0C2461"/>
<path d="M40.281 44.8841C39.5718 44.8841 38.9791 44.7432 38.5031 44.4615C38.027 44.17 37.6676 43.7717 37.4247 43.2665C37.1818 42.7613 37.0604 42.1736 37.0604 41.5032V36.1549C37.0604 35.4651 37.1721 34.8628 37.3956 34.3479C37.6287 33.8233 37.9833 33.4152 38.4594 33.1238C38.9354 32.8323 39.5426 32.6866 40.281 32.6866C41.0194 32.6866 41.6217 32.8323 42.088 33.1238C42.5641 33.4152 42.9138 33.8233 43.1373 34.3479C43.3705 34.8628 43.487 35.4651 43.487 36.1549V41.5032C43.487 42.1638 43.3656 42.7516 43.1227 43.2665C42.8798 43.7717 42.5204 44.17 42.0443 44.4615C41.5683 44.7432 40.9805 44.8841 40.281 44.8841ZM40.281 42.7128C40.5142 42.7128 40.6793 42.6399 40.7765 42.4942C40.8833 42.3387 40.9465 42.1638 40.9659 41.9695C40.9951 41.7655 41.0096 41.5906 41.0096 41.4449V36.2132C41.0096 36.0481 40.9999 35.8635 40.9805 35.6595C40.9611 35.4457 40.8979 35.2611 40.791 35.1057C40.6939 34.9405 40.5239 34.8579 40.281 34.8579C40.0381 34.8579 39.8632 34.9405 39.7564 35.1057C39.6592 35.2611 39.6009 35.4457 39.5815 35.6595C39.5621 35.8635 39.5523 36.0481 39.5523 36.2132V41.4449C39.5523 41.5906 39.5669 41.7655 39.5961 41.9695C39.6252 42.1638 39.6884 42.3387 39.7855 42.4942C39.8924 42.6399 40.0575 42.7128 40.281 42.7128ZM48.2933 44.8841C47.4286 44.8841 46.7728 44.7335 46.3259 44.4324C45.8887 44.1215 45.5924 43.6891 45.437 43.1354C45.2815 42.5816 45.2038 41.9404 45.2038 41.2117H47.55C47.55 41.6586 47.5743 42.023 47.6229 42.3047C47.6715 42.5865 47.7589 42.7905 47.8852 42.9168C48.0212 43.0334 48.2107 43.0868 48.4536 43.0771C48.7062 43.0674 48.8859 42.9654 48.9928 42.771C49.0996 42.5767 49.1628 42.2999 49.1822 41.9404C49.2114 41.5712 49.2259 41.1292 49.2259 40.6143C49.2259 40.2256 49.2016 39.8807 49.1531 39.5796C49.1142 39.2784 49.0268 39.0404 48.8908 38.8655C48.7645 38.6809 48.5701 38.5886 48.3078 38.5886C48.065 38.5886 47.8658 38.6761 47.7103 38.8509C47.5549 39.0258 47.4432 39.2978 47.3752 39.667H45.2767L45.4953 32.8615H51.0038V34.9017H47.448L47.3169 37.3353C47.414 37.1993 47.5986 37.0827 47.8706 36.9856C48.1427 36.8787 48.4341 36.8107 48.745 36.7816C49.3474 36.7136 49.8526 36.8253 50.2606 37.1167C50.6784 37.3985 50.9893 37.8308 51.1933 38.4137C51.407 38.9967 51.5139 39.7107 51.5139 40.556C51.5139 41.1875 51.475 41.7704 51.3973 42.3047C51.3196 42.8293 51.169 43.286 50.9455 43.6746C50.7221 44.0535 50.3966 44.3498 49.9691 44.5635C49.5417 44.7773 48.983 44.8841 48.2933 44.8841Z" fill="#FEFFFE"/>
<path d="M77.6052 32.3136C77.0536 32.3136 76.5927 32.2079 76.2224 31.9963C75.8521 31.7771 75.5726 31.4598 75.3836 31.0442C75.1947 30.6286 75.0889 30.1185 75.0663 29.514L76.5058 29.2307C76.5209 29.5858 76.5624 29.8994 76.6304 30.1714C76.706 30.4435 76.8156 30.655 76.9591 30.8062C77.1103 30.9497 77.3067 31.0215 77.5485 31.0215C77.8206 31.0215 78.0132 30.9422 78.1266 30.7835C78.2399 30.6172 78.2966 30.4094 78.2966 30.1601C78.2966 29.7596 78.2059 29.4309 78.0246 29.174C77.8432 28.9171 77.6014 28.6602 77.2992 28.4032L76.1431 27.3831C75.8181 27.1036 75.5574 26.7937 75.361 26.4537C75.1721 26.1061 75.0776 25.6792 75.0776 25.1729C75.0776 24.4475 75.2892 23.8883 75.7123 23.4954C76.1355 23.1025 76.7136 22.906 77.4465 22.906C77.8772 22.906 78.2362 22.974 78.5233 23.11C78.8104 23.2385 79.0371 23.4198 79.2034 23.6541C79.3772 23.8883 79.5056 24.1566 79.5887 24.4588C79.6719 24.7535 79.7248 25.0671 79.7474 25.3996L78.3193 25.649C78.3042 25.3618 78.2702 25.1049 78.2173 24.8782C78.1719 24.6515 78.085 24.4739 77.9566 24.3455C77.8357 24.217 77.6543 24.1528 77.4125 24.1528C77.1632 24.1528 76.9705 24.2359 76.8345 24.4022C76.706 24.5608 76.6418 24.7611 76.6418 25.0029C76.6418 25.3127 76.706 25.5696 76.8345 25.7736C76.9629 25.9701 77.148 26.1741 77.3898 26.3857L78.5346 27.3945C78.9125 27.7118 79.2336 28.0859 79.4981 28.5166C79.7701 28.9397 79.9061 29.4536 79.9061 30.0581C79.9061 30.4963 79.8079 30.8855 79.6114 31.2255C79.4225 31.5656 79.1543 31.8338 78.8067 32.0303C78.4666 32.2192 78.0661 32.3136 77.6052 32.3136ZM80.8938 32.189V23.008H83.1494C83.5574 23.008 83.9239 23.0458 84.2488 23.1214C84.5813 23.1969 84.8647 23.3254 85.0989 23.5067C85.3407 23.6805 85.5258 23.9186 85.6543 24.2208C85.7828 24.5231 85.847 24.9047 85.847 25.3656C85.847 25.7359 85.7941 26.0532 85.6883 26.3177C85.5901 26.5822 85.4427 26.7937 85.2463 26.9524C85.0498 27.1036 84.8042 27.2056 84.5095 27.2585C84.8722 27.3189 85.1707 27.4474 85.4049 27.6438C85.6467 27.8327 85.8243 28.0821 85.9377 28.3919C86.0586 28.7017 86.119 29.0758 86.119 29.514C86.119 29.9523 86.0623 30.3414 85.949 30.6815C85.8432 31.014 85.6807 31.2935 85.4616 31.5202C85.25 31.7394 84.9818 31.9056 84.6569 32.0189C84.3395 32.1323 83.9655 32.189 83.5347 32.189H80.8938ZM82.5713 31.0102H83.206C83.7123 31.0102 84.0561 30.8893 84.2375 30.6475C84.4188 30.3981 84.5095 30.0165 84.5095 29.5027C84.5095 29.1324 84.4642 28.834 84.3735 28.6073C84.2904 28.373 84.1468 28.1992 83.9428 28.0859C83.7463 27.9725 83.4818 27.9159 83.1494 27.9159H82.5713V31.0102ZM82.5713 26.7597H83.138C83.4705 26.7597 83.7274 26.7106 83.9088 26.6124C84.0901 26.5142 84.2148 26.363 84.2828 26.159C84.3584 25.955 84.3962 25.6981 84.3962 25.3883C84.3962 25.0633 84.3395 24.814 84.2261 24.6402C84.1204 24.4588 83.9579 24.3379 83.7388 24.2775C83.5196 24.2095 83.24 24.1755 82.9 24.1755H82.5713V26.7597ZM89.9592 32.189V23.008H93.7336V24.1641H91.6367V26.8391H93.3482V28.0065H91.6367V32.189H89.9592ZM97.1349 32.3136C96.4851 32.3136 95.9675 32.1927 95.5821 31.9509C95.1967 31.7091 94.9209 31.3615 94.7547 30.9082C94.5884 30.4548 94.5053 29.9183 94.5053 29.2987V25.8643C94.5053 25.2447 94.5884 24.7157 94.7547 24.2775C94.9209 23.8317 95.1967 23.4916 95.5821 23.2574C95.9675 23.0231 96.4851 22.906 97.1349 22.906C97.7999 22.906 98.3213 23.0231 98.6991 23.2574C99.0844 23.4916 99.3602 23.8317 99.5265 24.2775C99.7003 24.7157 99.7872 25.2447 99.7872 25.8643V29.31C99.7872 29.9221 99.7003 30.4548 99.5265 30.9082C99.3602 31.354 99.0844 31.7016 98.6991 31.9509C98.3213 32.1927 97.7999 32.3136 97.1349 32.3136ZM97.1349 31.0782C97.4145 31.0782 97.6185 31.0177 97.747 30.8968C97.883 30.7759 97.9737 30.6097 98.019 30.3981C98.0643 30.1865 98.087 29.9561 98.087 29.7067V25.4789C98.087 25.222 98.0643 24.9916 98.019 24.7875C97.9737 24.5835 97.883 24.4248 97.747 24.3115C97.6185 24.1906 97.4145 24.1301 97.1349 24.1301C96.8704 24.1301 96.6702 24.1906 96.5342 24.3115C96.3982 24.4248 96.3075 24.5835 96.2621 24.7875C96.2168 24.9916 96.1941 25.222 96.1941 25.4789V29.7067C96.1941 29.9561 96.213 30.1865 96.2508 30.3981C96.2962 30.6097 96.3868 30.7759 96.5228 30.8968C96.6589 31.0177 96.8629 31.0782 97.1349 31.0782ZM101.028 32.189V23.008H103.227C103.847 23.008 104.368 23.0836 104.791 23.2347C105.222 23.3783 105.547 23.6276 105.766 23.9828C105.993 24.3379 106.106 24.8215 106.106 25.4336C106.106 25.8039 106.072 26.1363 106.004 26.431C105.936 26.7257 105.819 26.9789 105.653 27.1904C105.494 27.3945 105.271 27.5532 104.984 27.6665L106.265 32.189H104.587L103.476 27.9839H102.706V32.189H101.028ZM102.706 26.9298H103.227C103.552 26.9298 103.809 26.8844 103.998 26.7937C104.194 26.6955 104.334 26.5444 104.417 26.3404C104.5 26.1288 104.542 25.8605 104.542 25.5356C104.542 25.0747 104.455 24.7309 104.281 24.5042C104.115 24.2699 103.794 24.1528 103.318 24.1528H102.706V26.9298ZM112.269 32.325C111.657 32.325 111.18 32.2116 110.84 31.9849C110.508 31.7583 110.277 31.4371 110.149 31.0215C110.021 30.6059 109.956 30.1185 109.956 29.5594H111.487C111.487 29.8692 111.505 30.145 111.543 30.3868C111.589 30.621 111.672 30.8062 111.793 30.9422C111.921 31.0706 112.106 31.1311 112.348 31.1235C112.612 31.1235 112.798 31.0404 112.903 30.8742C113.017 30.7004 113.088 30.4623 113.119 30.1601C113.149 29.8503 113.164 29.4914 113.164 29.0833C113.164 28.7282 113.141 28.4184 113.096 28.1539C113.058 27.8894 112.979 27.6854 112.858 27.5418C112.737 27.3907 112.548 27.3151 112.291 27.3151C112.072 27.3151 111.891 27.3907 111.747 27.5418C111.604 27.6854 111.498 27.8781 111.43 28.1199H110.081L110.172 23.008H114.297V24.4135H111.487L111.396 26.6237C111.509 26.4877 111.672 26.3781 111.883 26.295C112.102 26.2119 112.344 26.1628 112.609 26.1477C113.092 26.125 113.485 26.227 113.787 26.4537C114.09 26.6804 114.313 27.0091 114.456 27.4398C114.6 27.8705 114.672 28.3844 114.672 28.9813C114.672 29.4649 114.638 29.9107 114.569 30.3188C114.509 30.7268 114.392 31.082 114.218 31.3842C114.044 31.6789 113.799 31.9094 113.481 32.0756C113.172 32.2419 112.767 32.325 112.269 32.325ZM120.796 32.3136C120.244 32.3136 119.783 32.2079 119.413 31.9963C119.043 31.7771 118.763 31.4598 118.574 31.0442C118.385 30.6286 118.28 30.1185 118.257 29.514L119.696 29.2307C119.712 29.5858 119.753 29.8994 119.821 30.1714C119.897 30.4435 120.006 30.655 120.15 30.8062C120.301 30.9497 120.497 31.0215 120.739 31.0215C121.011 31.0215 121.204 30.9422 121.317 30.7835C121.431 30.6172 121.487 30.4094 121.487 30.1601C121.487 29.7596 121.397 29.4309 121.215 29.174C121.034 28.9171 120.792 28.6602 120.49 28.4032L119.334 27.3831C119.009 27.1036 118.748 26.7937 118.552 26.4537C118.363 26.1061 118.268 25.6792 118.268 25.1729C118.268 24.4475 118.48 23.8883 118.903 23.4954C119.326 23.1025 119.904 22.906 120.637 22.906C121.068 22.906 121.427 22.974 121.714 23.11C122.001 23.2385 122.228 23.4198 122.394 23.6541C122.568 23.8883 122.696 24.1566 122.779 24.4588C122.863 24.7535 122.915 25.0671 122.938 25.3996L121.51 25.649C121.495 25.3618 121.461 25.1049 121.408 24.8782C121.363 24.6515 121.276 24.4739 121.147 24.3455C121.026 24.217 120.845 24.1528 120.603 24.1528C120.354 24.1528 120.161 24.2359 120.025 24.4022C119.897 24.5608 119.832 24.7611 119.832 25.0029C119.832 25.3127 119.897 25.5696 120.025 25.7736C120.154 25.9701 120.339 26.1741 120.58 26.3857L121.725 27.3945C122.103 27.7118 122.424 28.0859 122.689 28.5166C122.961 28.9397 123.097 29.4536 123.097 30.0581C123.097 30.4963 122.999 30.8855 122.802 31.2255C122.613 31.5656 122.345 31.8338 121.997 32.0303C121.657 32.2192 121.257 32.3136 120.796 32.3136ZM124.13 32.189V23.008H125.785V32.189H124.13ZM127.206 32.189V23.008H129.371C130.119 23.008 130.701 23.11 131.116 23.314C131.539 23.5181 131.838 23.8317 132.012 24.2548C132.193 24.678 132.284 25.2145 132.284 25.8643V29.2193C132.284 29.8843 132.193 30.4397 132.012 30.8855C131.838 31.3238 131.543 31.6525 131.128 31.8716C130.72 32.0832 130.157 32.189 129.439 32.189H127.206ZM128.883 31.0215H129.393C129.779 31.0215 130.055 30.9535 130.221 30.8175C130.387 30.6815 130.489 30.485 130.527 30.2281C130.565 29.9636 130.584 29.6425 130.584 29.2647V25.751C130.584 25.3807 130.557 25.0822 130.504 24.8555C130.451 24.6289 130.342 24.4626 130.176 24.3568C130.009 24.251 129.741 24.1981 129.371 24.1981H128.883V31.0215ZM133.515 32.189V23.008H137.369V24.1868H135.193V26.8277H136.904V27.9952H135.193V31.0328H137.392V32.189H133.515ZM141.165 32.189V23.008H142.82V32.189H141.165ZM144.218 32.189L144.377 23.008H146.111L147.414 29.3667L148.775 23.008H150.452L150.622 32.189H149.375L149.239 25.8076L147.936 32.189H146.927L145.601 25.785L145.476 32.189H144.218ZM151.978 32.189V23.008H153.655V31.0328H155.877V32.189H151.978ZM161.976 32.3136C161.303 32.3136 160.774 32.1814 160.389 31.9169C160.011 31.6525 159.747 31.2935 159.595 30.8402C159.444 30.3792 159.369 29.8503 159.369 29.2533V25.9777C159.369 25.3505 159.444 24.8064 159.595 24.3455C159.747 23.8846 160.011 23.5294 160.389 23.28C160.774 23.0307 161.303 22.906 161.976 22.906C162.61 22.906 163.105 23.0156 163.461 23.2347C163.823 23.4463 164.08 23.7523 164.231 24.1528C164.382 24.5533 164.458 25.018 164.458 25.5469V26.3177H162.848V25.5243C162.848 25.2674 162.833 25.0331 162.803 24.8215C162.78 24.61 162.709 24.4437 162.588 24.3228C162.474 24.1944 162.274 24.1301 161.987 24.1301C161.7 24.1301 161.488 24.1981 161.352 24.3342C161.224 24.4626 161.141 24.6402 161.103 24.8669C161.065 25.086 161.046 25.3354 161.046 25.615V29.6047C161.046 29.9372 161.073 30.213 161.126 30.4321C161.178 30.6437 161.273 30.8062 161.409 30.9195C161.553 31.0253 161.745 31.0782 161.987 31.0782C162.267 31.0782 162.463 31.014 162.576 30.8855C162.697 30.7495 162.773 30.5719 162.803 30.3528C162.833 30.1336 162.848 29.8881 162.848 29.616V28.7886H164.458V29.5254C164.458 30.0694 164.386 30.553 164.243 30.9762C164.099 31.3918 163.846 31.7205 163.483 31.9623C163.128 32.1965 162.626 32.3136 161.976 32.3136ZM168.119 32.3136C167.47 32.3136 166.952 32.1927 166.567 31.9509C166.181 31.7091 165.905 31.3615 165.739 30.9082C165.573 30.4548 165.49 29.9183 165.49 29.2987V25.8643C165.49 25.2447 165.573 24.7157 165.739 24.2775C165.905 23.8317 166.181 23.4916 166.567 23.2574C166.952 23.0231 167.47 22.906 168.119 22.906C168.784 22.906 169.306 23.0231 169.684 23.2574C170.069 23.4916 170.345 23.8317 170.511 24.2775C170.685 24.7157 170.772 25.2447 170.772 25.8643V29.31C170.772 29.9221 170.685 30.4548 170.511 30.9082C170.345 31.354 170.069 31.7016 169.684 31.9509C169.306 32.1927 168.784 32.3136 168.119 32.3136ZM168.119 31.0782C168.399 31.0782 168.603 31.0177 168.731 30.8968C168.868 30.7759 168.958 30.6097 169.004 30.3981C169.049 30.1865 169.072 29.9561 169.072 29.7067V25.4789C169.072 25.222 169.049 24.9916 169.004 24.7875C168.958 24.5835 168.868 24.4248 168.731 24.3115C168.603 24.1906 168.399 24.1301 168.119 24.1301C167.855 24.1301 167.655 24.1906 167.519 24.3115C167.383 24.4248 167.292 24.5835 167.247 24.7875C167.201 24.9916 167.179 25.222 167.179 25.4789V29.7067C167.179 29.9561 167.198 30.1865 167.235 30.3981C167.281 30.6097 167.371 30.7759 167.507 30.8968C167.643 31.0177 167.847 31.0782 168.119 31.0782ZM172.013 32.189V23.008H173.18L175.413 28.2446V23.008H176.796V32.189H175.685L173.441 26.7031V32.189H172.013ZM179.107 32.189V24.2435H177.645V23.008H182.224V24.2435H180.785V32.189H179.107ZM182.108 32.189L183.944 23.008H185.735L187.571 32.189H186.018L185.655 30.0694H184.057L183.683 32.189H182.108ZM184.227 29.004H185.474L184.85 25.1502L184.227 29.004ZM188.539 32.189V23.008H190.194V32.189H188.539ZM191.615 32.189V23.008H192.783L195.016 28.2446V23.008H196.399V32.189H195.288L193.044 26.7031V32.189H191.615ZM197.792 32.189V23.008H201.646V24.1868H199.469V26.8277H201.181V27.9952H199.469V31.0328H201.668V32.189H197.792ZM202.64 32.189V23.008H204.839C205.459 23.008 205.98 23.0836 206.403 23.2347C206.834 23.3783 207.159 23.6276 207.378 23.9828C207.605 24.3379 207.718 24.8215 207.718 25.4336C207.718 25.8039 207.684 26.1363 207.616 26.431C207.548 26.7257 207.431 26.9789 207.265 27.1904C207.106 27.3945 206.883 27.5532 206.596 27.6665L207.877 32.189H206.199L205.088 27.9839H204.318V32.189H202.64ZM204.318 26.9298H204.839C205.164 26.9298 205.421 26.8844 205.61 26.7937C205.806 26.6955 205.946 26.5444 206.029 26.3404C206.112 26.1288 206.154 25.8605 206.154 25.5356C206.154 25.0747 206.067 24.7309 205.893 24.5042C205.727 24.2699 205.406 24.1528 204.93 24.1528H204.318V26.9298Z" fill="#0C2461"/>
<path d="M76.6578 45.2534C76.3511 45.2534 76.0766 45.1959 75.8344 45.0809C75.5921 44.9643 75.3997 44.8049 75.2571 44.6025C75.116 44.4001 75.0409 44.1685 75.0317 43.9079H75.8597C75.875 44.1011 75.9586 44.259 76.1104 44.3817C76.2622 44.5028 76.4446 44.5634 76.6578 44.5634C76.8249 44.5634 76.9737 44.525 77.104 44.4484C77.2343 44.3717 77.3371 44.2651 77.4122 44.1287C77.4873 43.9922 77.5241 43.8366 77.5226 43.6618C77.5241 43.4839 77.4866 43.3259 77.4099 43.1879C77.3332 43.0499 77.2282 42.9418 77.0948 42.8636C76.9614 42.7839 76.808 42.744 76.6348 42.744C76.4937 42.7425 76.3549 42.7686 76.2185 42.8222C76.082 42.8759 75.9739 42.9464 75.8942 43.0338L75.1237 42.9073L75.3698 40.4785H78.1022V41.1915H76.0759L75.9402 42.4404H75.9678C76.0552 42.3377 76.1786 42.2526 76.3381 42.1851C76.4975 42.1161 76.6723 42.0816 76.8625 42.0816C77.1477 42.0816 77.4022 42.1491 77.6261 42.284C77.85 42.4174 78.0263 42.6014 78.1551 42.836C78.2839 43.0706 78.3483 43.339 78.3483 43.6411C78.3483 43.9523 78.2762 44.2299 78.1321 44.4737C77.9895 44.7159 77.7909 44.9068 77.5364 45.0464C77.2834 45.1844 76.9905 45.2534 76.6578 45.2534ZM80.8599 45.2787C80.4812 45.2787 80.1561 45.1828 79.8847 44.9912C79.6148 44.798 79.4071 44.5197 79.2614 44.1563C79.1173 43.7913 79.0452 43.352 79.0452 42.8383C79.0467 42.3247 79.1196 41.8877 79.2637 41.5273C79.4094 41.1655 79.6171 40.8895 79.887 40.6993C80.1584 40.5092 80.4827 40.4141 80.8599 40.4141C81.2371 40.4141 81.5614 40.5092 81.8328 40.6993C82.1042 40.8895 82.312 41.1655 82.4561 41.5273C82.6018 41.8892 82.6746 42.3262 82.6746 42.8383C82.6746 43.3535 82.6018 43.7936 82.4561 44.1586C82.312 44.522 82.1042 44.7995 81.8328 44.9912C81.563 45.1828 81.2387 45.2787 80.8599 45.2787ZM80.8599 44.5588C81.1543 44.5588 81.3866 44.4139 81.5568 44.1241C81.7286 43.8327 81.8144 43.4041 81.8144 42.8383C81.8144 42.4642 81.7753 42.1499 81.6971 41.8953C81.6189 41.6408 81.5085 41.4491 81.3659 41.3203C81.2233 41.19 81.0547 41.1248 80.8599 41.1248C80.567 41.1248 80.3355 41.2705 80.1653 41.5618C79.9951 41.8516 79.9092 42.2771 79.9077 42.8383C79.9062 43.214 79.9437 43.5299 80.0204 43.786C80.0986 44.042 80.209 44.2352 80.3516 44.3656C80.4942 44.4944 80.6637 44.5588 80.8599 44.5588ZM85.1799 45.2787C84.8012 45.2787 84.4761 45.1828 84.2047 44.9912C83.9349 44.798 83.7271 44.5197 83.5814 44.1563C83.4373 43.7913 83.3652 43.352 83.3652 42.8383C83.3667 42.3247 83.4396 41.8877 83.5837 41.5273C83.7294 41.1655 83.9372 40.8895 84.207 40.6993C84.4784 40.5092 84.8027 40.4141 85.1799 40.4141C85.5571 40.4141 85.8814 40.5092 86.1528 40.6993C86.4242 40.8895 86.632 41.1655 86.7761 41.5273C86.9218 41.8892 86.9946 42.3262 86.9946 42.8383C86.9946 43.3535 86.9218 43.7936 86.7761 44.1586C86.632 44.522 86.4242 44.7995 86.1528 44.9912C85.883 45.1828 85.5587 45.2787 85.1799 45.2787ZM85.1799 44.5588C85.4743 44.5588 85.7066 44.4139 85.8768 44.1241C86.0486 43.8327 86.1344 43.4041 86.1344 42.8383C86.1344 42.4642 86.0953 42.1499 86.0171 41.8953C85.9389 41.6408 85.8285 41.4491 85.6859 41.3203C85.5433 41.19 85.3747 41.1248 85.1799 41.1248C84.8871 41.1248 84.6555 41.2705 84.4853 41.5618C84.3151 41.8516 84.2293 42.2771 84.2277 42.8383C84.2262 43.214 84.2638 43.5299 84.3404 43.786C84.4186 44.042 84.529 44.2352 84.6716 44.3656C84.8142 44.4944 84.9837 44.5588 85.1799 44.5588ZM89.3044 46.5874C89.0054 46.5874 88.7486 46.5467 88.5339 46.4655C88.3193 46.3857 88.1468 46.2784 88.0164 46.1435C87.8861 46.0085 87.7956 45.859 87.745 45.695L88.4948 45.5133C88.5286 45.5823 88.5776 45.6505 88.642 45.718C88.7064 45.787 88.7931 45.8437 88.9019 45.8882C89.0123 45.9342 89.1511 45.9572 89.3182 45.9572C89.5544 45.9572 89.7499 45.8997 89.9048 45.7847C90.0596 45.6712 90.1371 45.4841 90.1371 45.2235V44.5542H90.0957C90.0527 44.64 89.9899 44.7282 89.9071 44.8187C89.8258 44.9091 89.7177 44.985 89.5827 45.0464C89.4493 45.1077 89.2814 45.1384 89.079 45.1384C88.8076 45.1384 88.5615 45.0747 88.3407 44.9475C88.1215 44.8187 87.9467 44.627 87.8163 44.3725C87.6875 44.1164 87.6231 43.7959 87.6231 43.411C87.6231 43.0231 87.6875 42.6957 87.8163 42.4289C87.9467 42.1606 88.1222 41.9574 88.343 41.8194C88.5638 41.6799 88.8099 41.6101 89.0813 41.6101C89.2883 41.6101 89.4585 41.6454 89.5919 41.7159C89.7269 41.7849 89.8342 41.8685 89.914 41.9666C89.9937 42.0632 90.0543 42.1545 90.0957 42.2403H90.1417V41.6561H90.9628V45.2465C90.9628 45.5485 90.8907 45.7985 90.7466 45.9963C90.6024 46.1941 90.4054 46.342 90.1555 46.4402C89.9055 46.5383 89.6218 46.5874 89.3044 46.5874ZM89.3113 44.4852C89.4877 44.4852 89.6379 44.4422 89.7621 44.3564C89.8864 44.2705 89.9807 44.1471 90.0451 43.9861C90.1095 43.8251 90.1417 43.6319 90.1417 43.4064C90.1417 43.1841 90.1095 42.9894 90.0451 42.8222C89.9822 42.6551 89.8887 42.5255 89.7644 42.4335C89.6418 42.34 89.4907 42.2932 89.3113 42.2932C89.1258 42.2932 88.9709 42.3415 88.8467 42.4381C88.7225 42.5347 88.629 42.6674 88.5661 42.836C88.5033 43.0032 88.4718 43.1933 88.4718 43.4064C88.4718 43.6227 88.5033 43.812 88.5661 43.9746C88.6305 44.1356 88.7248 44.2613 88.849 44.3518C88.9748 44.4407 89.1289 44.4852 89.3113 44.4852Z" fill="#878C90"/>
<path d="M212.356 40.3827V39.7803H214.902V40.3827H212.356ZM216.066 40.3827V39.7803H218.611V40.3827H216.066ZM219.776 40.3827V39.7803H222.321V40.3827H219.776ZM223.485 40.3827V39.7803H226.031V40.3827H223.485ZM227.195 40.3827V39.7803H229.74V40.3827H227.195ZM230.905 40.3827V39.7803H233.45V40.3827H230.905ZM234.614 40.3827V39.7803H237.16V40.3827H234.614ZM238.324 40.3827V39.7803H240.869V40.3827H238.324ZM242.034 40.3827V39.7803H244.579V40.3827H242.034ZM245.743 40.3827V39.7803H248.289V40.3827H245.743ZM249.453 40.3827V39.7803H251.998V40.3827H249.453ZM253.162 40.3827V39.7803H255.708V40.3827H253.162ZM256.872 40.3827V39.7803H259.418V40.3827H256.872ZM260.582 40.3827V39.7803H263.127V40.3827H260.582ZM264.291 40.3827V39.7803H266.837V40.3827H264.291ZM268.001 40.3827V39.7803H270.546V40.3827H268.001ZM271.711 40.3827V39.7803H274.256V40.3827H271.711ZM275.42 40.3827V39.7803H277.966V40.3827H275.42ZM279.13 40.3827V39.7803H281.675V40.3827H279.13ZM282.84 40.3827V39.7803H285.385V40.3827H282.84ZM286.549 40.3827V39.7803H289.095V40.3827H286.549ZM290.259 40.3827V39.7803H292.804V40.3827H290.259ZM293.969 40.3827V39.7803H296.514V40.3827H293.969ZM297.678 40.3827V39.7803H300.224V40.3827H297.678ZM301.388 40.3827V39.7803H303.933V40.3827H301.388ZM305.097 40.3827V39.7803H307.643V40.3827H305.097ZM308.807 40.3827V39.7803H311.353V40.3827H308.807ZM312.517 40.3827V39.7803H315.062V40.3827H312.517ZM316.226 40.3827V39.7803H318.772V40.3827H316.226ZM319.936 40.3827V39.7803H322.481V40.3827H319.936ZM323.646 40.3827V39.7803H326.191V40.3827H323.646ZM327.355 40.3827V39.7803H329.901V40.3827H327.355ZM331.065 40.3827V39.7803H333.61V40.3827H331.065ZM334.775 40.3827V39.7803H337.32V40.3827H334.775Z" fill="#8F8E8E"/>
<rect x="337.667" y="21.166" width="50.1956" height="37.2419" rx="5.26245" fill="#F1F3F2" stroke="#ADB4B7" stroke-width="0.809607"/>
<path d="M354.12 39.3921C354.12 37.7211 354.441 36.4046 355.082 35.4428C355.733 34.481 356.778 34.0001 358.215 34.0001C359.653 34.0001 360.693 34.481 361.334 35.4428C361.985 36.4046 362.31 37.7211 362.31 39.3921C362.31 41.0825 361.985 42.4087 361.334 43.3705C360.693 44.3323 359.653 44.8132 358.215 44.8132C356.778 44.8132 355.733 44.3323 355.082 43.3705C354.441 42.4087 354.12 41.0825 354.12 39.3921ZM359.862 39.3921C359.862 38.4108 359.755 37.6579 359.542 37.1333C359.328 36.5989 358.886 36.3318 358.215 36.3318C357.545 36.3318 357.103 36.5989 356.889 37.1333C356.676 37.6579 356.569 38.4108 356.569 39.3921C356.569 40.0527 356.608 40.6016 356.685 41.0388C356.763 41.4663 356.918 41.816 357.152 42.0881C357.395 42.3504 357.749 42.4815 358.215 42.4815C358.682 42.4815 359.032 42.3504 359.265 42.0881C359.508 41.816 359.668 41.4663 359.746 41.0388C359.823 40.6016 359.862 40.0527 359.862 39.3921ZM371.118 36.3901H366.571V38.4011C366.765 38.1874 367.037 38.0125 367.387 37.8765C367.737 37.7405 368.116 37.6725 368.524 37.6725C369.252 37.6725 369.855 37.8376 370.331 38.168C370.816 38.4983 371.171 38.9258 371.394 39.4504C371.618 39.975 371.73 40.5433 371.73 41.1554C371.73 42.2921 371.409 43.1956 370.768 43.866C370.127 44.5266 369.223 44.8569 368.057 44.8569C367.28 44.8569 366.605 44.7258 366.032 44.4635C365.458 44.1914 365.016 43.8174 364.705 43.3413C364.395 42.8653 364.225 42.3164 364.195 41.6946H366.629C366.687 41.9958 366.828 42.2484 367.052 42.4524C367.275 42.6467 367.581 42.7439 367.97 42.7439C368.426 42.7439 368.766 42.5981 368.99 42.3067C369.213 42.0152 369.325 41.6266 369.325 41.1408C369.325 40.6648 369.208 40.3005 368.975 40.0479C368.742 39.7953 368.402 39.669 367.955 39.669C367.625 39.669 367.353 39.7515 367.139 39.9167C366.925 40.0722 366.785 40.281 366.717 40.5433H364.312V34.2041H371.118V36.3901Z" fill="#36404B"/>
<defs>
<filter id="filter0_d_1104_112" x="0.000161171" y="-0.000179291" width="419.203" height="85.1745" filterUnits="userSpaceOnUse" color-interpolation-filters="sRGB">
<feFlood flood-opacity="0" result="BackgroundImageFix"/>
<feColorMatrix in="SourceAlpha" type="matrix" values="0 0 0 0 0 0 0 0 0 0 0 0 0 0 0 0 0 0 127 0" result="hardAlpha"/>
<feOffset dy="3.23843"/>
<feGaussianBlur stdDeviation="6.8007"/>
<feComposite in2="hardAlpha" operator="out"/>
<feColorMatrix type="matrix" values="0 0 0 0 0 0 0 0 0 0 0 0 0 0 0 0 0 0 0.17 0"/>
<feBlend mode="normal" in2="BackgroundImageFix" result="effect1_dropShadow_1104_112"/>
<feBlend mode="normal" in="SourceGraphic" in2="effect1_dropShadow_1104_112" result="shape"/>
</filter>
</defs>
</svg>
