<svg width="420" height="86" viewBox="0 0 420 86" fill="none" xmlns="http://www.w3.org/2000/svg">
<g filter="url(#filter0_d_1139_95)">
<rect x="13.6016" y="10.363" width="392" height="57.9718" rx="10.5249" fill="#FEFFFE"/>
</g>
<circle cx="43.3389" cy="38.1472" r="21.0498" fill="#D9F2EE"/>
<circle cx="43.5575" cy="38.1471" r="17.8114" fill="#0C2461"/>
<path d="M40.281 45.2691C39.5718 45.2691 38.9791 45.1283 38.5031 44.8465C38.027 44.5551 37.6676 44.1567 37.4247 43.6515C37.1818 43.1463 37.0604 42.5586 37.0604 41.8882V36.5399C37.0604 35.8502 37.1721 35.2478 37.3956 34.7329C37.6287 34.2083 37.9833 33.8002 38.4594 33.5088C38.9354 33.2173 39.5426 33.0716 40.281 33.0716C41.0194 33.0716 41.6217 33.2173 42.088 33.5088C42.5641 33.8002 42.9138 34.2083 43.1373 34.7329C43.3705 35.2478 43.487 35.8502 43.487 36.5399V41.8882C43.487 42.5489 43.3656 43.1366 43.1227 43.6515C42.8798 44.1567 42.5204 44.5551 42.0443 44.8465C41.5683 45.1283 40.9805 45.2691 40.281 45.2691ZM40.281 43.0978C40.5142 43.0978 40.6793 43.0249 40.7765 42.8792C40.8833 42.7237 40.9465 42.5489 40.9659 42.3545C40.9951 42.1505 41.0096 41.9756 41.0096 41.8299V36.5982C41.0096 36.4331 40.9999 36.2485 40.9805 36.0445C40.9611 35.8307 40.8979 35.6461 40.791 35.4907C40.6939 35.3255 40.5239 35.243 40.281 35.243C40.0381 35.243 39.8632 35.3255 39.7564 35.4907C39.6592 35.6461 39.6009 35.8307 39.5815 36.0445C39.5621 36.2485 39.5523 36.4331 39.5523 36.5982V41.8299C39.5523 41.9756 39.5669 42.1505 39.5961 42.3545C39.6252 42.5489 39.6884 42.7237 39.7855 42.8792C39.8924 43.0249 40.0575 43.0978 40.281 43.0978ZM48.5701 45.0505V42.3983H44.9415V40.6058L48.0164 33.2465H50.8435V40.5912H51.9365V42.3983H50.8435V45.0505H48.5701ZM46.7922 40.5912H48.5701V35.6801L46.7922 40.5912Z" fill="#FEFFFE"/>
<path d="M77.6052 31.6987C77.0536 31.6987 76.5927 31.5929 76.2224 31.3813C75.8521 31.1622 75.5726 30.8448 75.3836 30.4292C75.1947 30.0136 75.0889 29.5035 75.0663 28.899L76.5058 28.6157C76.5209 28.9708 76.5624 29.2844 76.6304 29.5564C76.706 29.8285 76.8156 30.04 76.9591 30.1912C77.1103 30.3347 77.3067 30.4065 77.5485 30.4065C77.8206 30.4065 78.0132 30.3272 78.1266 30.1685C78.2399 30.0023 78.2966 29.7945 78.2966 29.5451C78.2966 29.1446 78.2059 28.8159 78.0246 28.559C77.8432 28.3021 77.6014 28.0452 77.2992 27.7883L76.1431 26.7681C75.8181 26.4886 75.5574 26.1788 75.361 25.8387C75.1721 25.4911 75.0776 25.0642 75.0776 24.5579C75.0776 23.8325 75.2892 23.2733 75.7123 22.8804C76.1355 22.4875 76.7136 22.291 77.4465 22.291C77.8772 22.291 78.2362 22.359 78.5233 22.495C78.8104 22.6235 79.0371 22.8048 79.2034 23.0391C79.3772 23.2733 79.5056 23.5416 79.5887 23.8438C79.6719 24.1385 79.7248 24.4521 79.7474 24.7846L78.3193 25.034C78.3042 24.7468 78.2702 24.4899 78.2173 24.2632C78.1719 24.0365 78.085 23.859 77.9566 23.7305C77.8357 23.602 77.6543 23.5378 77.4125 23.5378C77.1632 23.5378 76.9705 23.6209 76.8345 23.7872C76.706 23.9459 76.6418 24.1461 76.6418 24.3879C76.6418 24.6977 76.706 24.9546 76.8345 25.1586C76.9629 25.3551 77.148 25.5591 77.3898 25.7707L78.5346 26.7795C78.9125 27.0968 79.2336 27.4709 79.4981 27.9016C79.7701 28.3248 79.9061 28.8386 79.9061 29.4431C79.9061 29.8814 79.8079 30.2705 79.6114 30.6105C79.4225 30.9506 79.1543 31.2188 78.8067 31.4153C78.4666 31.6042 78.0661 31.6987 77.6052 31.6987ZM81.8572 31.574L80.5538 22.393H81.9592L82.7187 28.3436L83.6708 22.4157H84.8155L85.7903 28.3436L86.5384 22.393H87.9212L86.6404 31.574H85.2803L84.2602 25.4193L83.2514 31.574H81.8572ZM88.963 31.574V22.393H92.8167V23.5718H90.6405V26.2128H92.352V27.3802H90.6405V30.4179H92.8394V31.574H88.963ZM93.8112 31.574V22.393H97.6649V23.5718H95.4887V26.2128H97.2002V27.3802H95.4887V30.4179H97.6876V31.574H93.8112ZM99.5774 31.574V23.6285H98.1153V22.393H102.694V23.6285H101.255V31.574H99.5774ZM106.286 31.574V22.393H108.541C108.949 22.393 109.316 22.4308 109.641 22.5064C109.973 22.5819 110.257 22.7104 110.491 22.8917C110.733 23.0655 110.918 23.3036 111.046 23.6058C111.175 23.9081 111.239 24.2897 111.239 24.7506C111.239 25.1209 111.186 25.4382 111.08 25.7027C110.982 25.9672 110.835 26.1788 110.638 26.3374C110.442 26.4886 110.196 26.5906 109.901 26.6435C110.264 26.7039 110.563 26.8324 110.797 27.0288C111.039 27.2177 111.216 27.4671 111.33 27.7769C111.45 28.0867 111.511 28.4608 111.511 28.899C111.511 29.3373 111.454 29.7265 111.341 30.0665C111.235 30.399 111.073 30.6785 110.854 30.9052C110.642 31.1244 110.374 31.2906 110.049 31.404C109.731 31.5173 109.357 31.574 108.927 31.574H106.286ZM107.963 30.3952H108.598C109.104 30.3952 109.448 30.2743 109.629 30.0325C109.811 29.7831 109.901 29.4015 109.901 28.8877C109.901 28.5174 109.856 28.219 109.765 27.9923C109.682 27.758 109.539 27.5842 109.335 27.4709C109.138 27.3575 108.874 27.3009 108.541 27.3009H107.963V30.3952ZM107.963 26.1447H108.53C108.862 26.1447 109.119 26.0956 109.301 25.9974C109.482 25.8992 109.607 25.748 109.675 25.544C109.75 25.34 109.788 25.0831 109.788 24.7733C109.788 24.4484 109.731 24.199 109.618 24.0252C109.512 23.8438 109.35 23.7229 109.131 23.6625C108.912 23.5945 108.632 23.5605 108.292 23.5605H107.963V26.1447ZM115.089 31.6987C114.439 31.6987 113.921 31.5778 113.536 31.336C113.15 31.0941 112.875 30.7466 112.708 30.2932C112.542 29.8398 112.459 29.3033 112.459 28.6837V25.2493C112.459 24.6297 112.542 24.1008 112.708 23.6625C112.875 23.2167 113.15 22.8766 113.536 22.6424C113.921 22.4081 114.439 22.291 115.089 22.291C115.754 22.291 116.275 22.4081 116.653 22.6424C117.038 22.8766 117.314 23.2167 117.48 23.6625C117.654 24.1008 117.741 24.6297 117.741 25.2493V28.695C117.741 29.3071 117.654 29.8398 117.48 30.2932C117.314 30.739 117.038 31.0866 116.653 31.336C116.275 31.5778 115.754 31.6987 115.089 31.6987ZM115.089 30.4632C115.368 30.4632 115.572 30.4027 115.701 30.2818C115.837 30.1609 115.927 29.9947 115.973 29.7831C116.018 29.5715 116.041 29.3411 116.041 29.0917V24.8639C116.041 24.607 116.018 24.3766 115.973 24.1725C115.927 23.9685 115.837 23.8098 115.701 23.6965C115.572 23.5756 115.368 23.5151 115.089 23.5151C114.824 23.5151 114.624 23.5756 114.488 23.6965C114.352 23.8098 114.261 23.9685 114.216 24.1725C114.17 24.3766 114.148 24.607 114.148 24.8639V29.0917C114.148 29.3411 114.167 29.5715 114.204 29.7831C114.25 29.9947 114.341 30.1609 114.477 30.2818C114.613 30.4027 114.817 30.4632 115.089 30.4632ZM118.271 31.574L120.118 26.7001L118.327 22.393H119.892L121.082 25.238L122.125 22.393H123.575L121.807 27.0175L123.711 31.574H122.147L120.844 28.491L119.71 31.574H118.271Z" fill="#0C2461"/>
<path d="M75.0202 44.574V43.9576L76.6555 42.3545C76.8119 42.1965 76.9422 42.0562 77.0465 41.9336C77.1508 41.8109 77.229 41.692 77.2811 41.577C77.3332 41.462 77.3593 41.3394 77.3593 41.209C77.3593 41.0603 77.3256 40.933 77.2581 40.8272C77.1906 40.7199 77.0979 40.6371 76.9798 40.5788C76.8617 40.5206 76.7275 40.4914 76.5773 40.4914C76.4224 40.4914 76.2867 40.5236 76.1702 40.588C76.0536 40.6509 75.9632 40.7406 75.8988 40.8571C75.8359 40.9737 75.8045 41.1124 75.8045 41.2734H74.9926C74.9926 40.9744 75.0608 40.7145 75.1973 40.4937C75.3337 40.2729 75.5216 40.102 75.7608 39.9808C76.0015 39.8597 76.2775 39.7991 76.5888 39.7991C76.9046 39.7991 77.1822 39.8582 77.4214 39.9762C77.6606 40.0943 77.8461 40.2561 77.978 40.4615C78.1114 40.667 78.1781 40.9016 78.1781 41.1653C78.1781 41.3417 78.1444 41.5149 78.0769 41.6851C78.0094 41.8554 77.8906 42.044 77.7204 42.251C77.5517 42.458 77.3148 42.7087 77.0097 43.0031L76.1978 43.8288V43.861H78.2494V44.574H75.0202ZM80.6805 44.6384C80.3738 44.6384 80.0994 44.5809 79.8571 44.4659C79.6148 44.3493 79.4224 44.1899 79.2798 43.9875C79.1387 43.7851 79.0636 43.5535 79.0544 43.2929H79.8824C79.8977 43.4861 79.9813 43.644 80.1331 43.7667C80.2849 43.8878 80.4674 43.9484 80.6805 43.9484C80.8477 43.9484 80.9964 43.91 81.1267 43.8334C81.2571 43.7567 81.3598 43.6501 81.4349 43.5137C81.5101 43.3772 81.5469 43.2216 81.5453 43.0468C81.5469 42.8689 81.5093 42.711 81.4326 42.573C81.356 42.435 81.2509 42.3269 81.1175 42.2487C80.9841 42.1689 80.8308 42.1291 80.6575 42.1291C80.5164 42.1275 80.3777 42.1536 80.2412 42.2073C80.1047 42.2609 79.9966 42.3315 79.9169 42.4189L79.1464 42.2924L79.3925 39.8635H82.1249V40.5765H80.0986L79.9629 41.8254H79.9905C80.0779 41.7227 80.2013 41.6376 80.3608 41.5701C80.5203 41.5011 80.6951 41.4666 80.8852 41.4666C81.1704 41.4666 81.425 41.5341 81.6488 41.669C81.8727 41.8024 82.049 41.9865 82.1778 42.2211C82.3066 42.4557 82.371 42.724 82.371 43.0261C82.371 43.3373 82.299 43.6149 82.1548 43.8587C82.0122 44.1009 81.8137 44.2918 81.5591 44.4314C81.3061 44.5694 81.0133 44.6384 80.6805 44.6384ZM84.8827 44.6637C84.5039 44.6637 84.1788 44.5678 83.9074 44.3762C83.6376 44.183 83.4298 43.9047 83.2841 43.5413C83.14 43.1763 83.0679 42.737 83.0679 42.2234C83.0695 41.7097 83.1423 41.2727 83.2864 40.9123C83.4321 40.5505 83.6399 40.2745 83.9097 40.0843C84.1811 39.8942 84.5055 39.7991 84.8827 39.7991C85.2599 39.7991 85.5842 39.8942 85.8556 40.0843C86.127 40.2745 86.3347 40.5505 86.4789 40.9123C86.6245 41.2742 86.6974 41.7112 86.6974 42.2234C86.6974 42.7386 86.6245 43.1786 86.4789 43.5436C86.3347 43.907 86.127 44.1845 85.8556 44.3762C85.5857 44.5678 85.2614 44.6637 84.8827 44.6637ZM84.8827 43.9438C85.1771 43.9438 85.4094 43.7989 85.5796 43.5091C85.7513 43.2177 85.8372 42.7892 85.8372 42.2234C85.8372 41.8492 85.7981 41.5349 85.7199 41.2803C85.6417 41.0258 85.5313 40.8341 85.3887 40.7053C85.2461 40.575 85.0774 40.5098 84.8827 40.5098C84.5898 40.5098 84.3582 40.6555 84.188 40.9468C84.0178 41.2366 83.932 41.6621 83.9304 42.2234C83.9289 42.599 83.9665 42.9149 84.0431 43.171C84.1213 43.427 84.2317 43.6202 84.3743 43.7506C84.517 43.8794 84.6864 43.9438 84.8827 43.9438ZM89.0072 45.9724C88.7082 45.9724 88.4513 45.9318 88.2367 45.8505C88.022 45.7708 87.8495 45.6634 87.7192 45.5285C87.5888 45.3935 87.4984 45.244 87.4478 45.08L88.1976 44.8983C88.2313 44.9673 88.2804 45.0355 88.3448 45.103C88.4092 45.172 88.4958 45.2287 88.6047 45.2732C88.7151 45.3192 88.8538 45.3422 89.021 45.3422C89.2571 45.3422 89.4526 45.2847 89.6075 45.1697C89.7623 45.0562 89.8398 44.8691 89.8398 44.6085V43.9392H89.7984C89.7554 44.025 89.6926 44.1132 89.6098 44.2037C89.5285 44.2941 89.4204 44.37 89.2855 44.4314C89.1521 44.4927 88.9842 44.5234 88.7818 44.5234C88.5104 44.5234 88.2643 44.4597 88.0435 44.3325C87.8242 44.2037 87.6494 44.012 87.5191 43.7575C87.3903 43.5014 87.3259 43.1809 87.3259 42.7961C87.3259 42.4081 87.3903 42.0808 87.5191 41.8139C87.6494 41.5456 87.825 41.3424 88.0458 41.2044C88.2666 41.0649 88.5127 40.9951 88.7841 40.9951C88.9911 40.9951 89.1613 41.0304 89.2947 41.1009C89.4296 41.1699 89.5369 41.2535 89.6167 41.3516C89.6964 41.4482 89.757 41.5395 89.7984 41.6253H89.8444V41.0411H90.6655V44.6315C90.6655 44.9335 90.5934 45.1835 90.4493 45.3813C90.3051 45.5791 90.1081 45.7271 89.8582 45.8252C89.6082 45.9233 89.3246 45.9724 89.0072 45.9724ZM89.0141 43.8702C89.1904 43.8702 89.3407 43.8272 89.4649 43.7414C89.5891 43.6555 89.6834 43.5321 89.7478 43.3711C89.8122 43.2101 89.8444 43.0169 89.8444 42.7915C89.8444 42.5691 89.8122 42.3744 89.7478 42.2073C89.6849 42.0401 89.5914 41.9106 89.4672 41.8185C89.3445 41.725 89.1935 41.6782 89.0141 41.6782C88.8285 41.6782 88.6737 41.7265 88.5495 41.8231C88.4253 41.9198 88.3317 42.0524 88.2689 42.2211C88.206 42.3882 88.1746 42.5783 88.1746 42.7915C88.1746 43.0077 88.206 43.197 88.2689 43.3596C88.3333 43.5206 88.4276 43.6463 88.5518 43.7368C88.6775 43.8257 88.8316 43.8702 89.0141 43.8702ZM92.4963 43.93L92.4664 44.183C92.4449 44.3762 92.4066 44.5724 92.3514 44.7718C92.2977 44.9726 92.241 45.1574 92.1812 45.3261C92.1214 45.4947 92.0731 45.6274 92.0363 45.724H91.4751C91.4966 45.6305 91.5257 45.5032 91.5625 45.3422C91.6008 45.1812 91.6376 45.0002 91.6729 44.7994C91.7082 44.5985 91.7319 44.3946 91.7442 44.1876L91.7603 43.93H92.4963ZM96.5185 44.6384C96.2118 44.6384 95.9373 44.5809 95.6951 44.4659C95.4528 44.3493 95.2603 44.1899 95.1177 43.9875C94.9767 43.7851 94.9015 43.5535 94.8923 43.2929H95.7204C95.7357 43.4861 95.8193 43.644 95.9711 43.7667C96.1229 43.8878 96.3053 43.9484 96.5185 43.9484C96.6856 43.9484 96.8343 43.91 96.9647 43.8334C97.095 43.7567 97.1977 43.6501 97.2729 43.5137C97.348 43.3772 97.3848 43.2216 97.3833 43.0468C97.3848 42.8689 97.3472 42.711 97.2706 42.573C97.1939 42.435 97.0889 42.3269 96.9555 42.2487C96.8221 42.1689 96.6687 42.1291 96.4955 42.1291C96.3544 42.1275 96.2156 42.1536 96.0792 42.2073C95.9427 42.2609 95.8346 42.3315 95.7549 42.4189L94.9843 42.2924L95.2304 39.8635H97.9629V40.5765H95.9366L95.8009 41.8254H95.8285C95.9159 41.7227 96.0393 41.6376 96.1988 41.5701C96.3582 41.5011 96.533 41.4666 96.7232 41.4666C97.0084 41.4666 97.2629 41.5341 97.4868 41.669C97.7106 41.8024 97.887 41.9865 98.0158 42.2211C98.1446 42.4557 98.209 42.724 98.209 43.0261C98.209 43.3373 98.1369 43.6149 97.9928 43.8587C97.8502 44.1009 97.6516 44.2918 97.3971 44.4314C97.1441 44.5694 96.8512 44.6384 96.5185 44.6384ZM100.721 44.6637C100.342 44.6637 100.017 44.5678 99.7454 44.3762C99.4755 44.183 99.2677 43.9047 99.1221 43.5413C98.9779 43.1763 98.9059 42.737 98.9059 42.2234C98.9074 41.7097 98.9802 41.2727 99.1244 40.9123C99.27 40.5505 99.4778 40.2745 99.7477 40.0843C100.019 39.8942 100.343 39.7991 100.721 39.7991C101.098 39.7991 101.422 39.8942 101.694 40.0843C101.965 40.2745 102.173 40.5505 102.317 40.9123C102.462 41.2742 102.535 41.7112 102.535 42.2234C102.535 42.7386 102.462 43.1786 102.317 43.5436C102.173 43.907 101.965 44.1845 101.694 44.3762C101.424 44.5678 101.099 44.6637 100.721 44.6637ZM100.721 43.9438C101.015 43.9438 101.247 43.7989 101.418 43.5091C101.589 43.2177 101.675 42.7892 101.675 42.2234C101.675 41.8492 101.636 41.5349 101.558 41.2803C101.48 41.0258 101.369 40.8341 101.227 40.7053C101.084 40.575 100.915 40.5098 100.721 40.5098C100.428 40.5098 100.196 40.6555 100.026 40.9468C99.8558 41.2366 99.7699 41.6621 99.7684 42.2234C99.7669 42.599 99.8044 42.9149 99.8811 43.171C99.9593 43.427 100.07 43.6202 100.212 43.7506C100.355 43.8794 100.524 43.9438 100.721 43.9438ZM105.041 44.6637C104.662 44.6637 104.337 44.5678 104.065 44.3762C103.796 44.183 103.588 43.9047 103.442 43.5413C103.298 43.1763 103.226 42.737 103.226 42.2234C103.227 41.7097 103.3 41.2727 103.444 40.9123C103.59 40.5505 103.798 40.2745 104.068 40.0843C104.339 39.8942 104.663 39.7991 105.041 39.7991C105.418 39.7991 105.742 39.8942 106.014 40.0843C106.285 40.2745 106.493 40.5505 106.637 40.9123C106.782 41.2742 106.855 41.7112 106.855 42.2234C106.855 42.7386 106.782 43.1786 106.637 43.5436C106.493 43.907 106.285 44.1845 106.014 44.3762C105.744 44.5678 105.419 44.6637 105.041 44.6637ZM105.041 43.9438C105.335 43.9438 105.567 43.7989 105.738 43.5091C105.909 43.2177 105.995 42.7892 105.995 42.2234C105.995 41.8492 105.956 41.5349 105.878 41.2803C105.8 41.0258 105.689 40.8341 105.547 40.7053C105.404 40.575 105.235 40.5098 105.041 40.5098C104.748 40.5098 104.516 40.6555 104.346 40.9468C104.176 41.2366 104.09 41.6621 104.088 42.2234C104.087 42.599 104.124 42.9149 104.201 43.171C104.279 43.427 104.39 43.6202 104.532 43.7506C104.675 43.8794 104.844 43.9438 105.041 43.9438ZM109.165 45.9724C108.866 45.9724 108.609 45.9318 108.395 45.8505C108.18 45.7708 108.007 45.6634 107.877 45.5285C107.747 45.3935 107.656 45.244 107.606 45.08L108.356 44.8983C108.389 44.9673 108.438 45.0355 108.503 45.103C108.567 45.172 108.654 45.2287 108.763 45.2732C108.873 45.3192 109.012 45.3422 109.179 45.3422C109.415 45.3422 109.611 45.2847 109.765 45.1697C109.92 45.0562 109.998 44.8691 109.998 44.6085V43.9392H109.956C109.913 44.025 109.851 44.1132 109.768 44.2037C109.686 44.2941 109.578 44.37 109.443 44.4314C109.31 44.4927 109.142 44.5234 108.94 44.5234C108.668 44.5234 108.422 44.4597 108.201 44.3325C107.982 44.2037 107.807 44.012 107.677 43.7575C107.548 43.5014 107.484 43.1809 107.484 42.7961C107.484 42.4081 107.548 42.0808 107.677 41.8139C107.807 41.5456 107.983 41.3424 108.204 41.2044C108.425 41.0649 108.671 40.9951 108.942 40.9951C109.149 40.9951 109.319 41.0304 109.453 41.1009C109.588 41.1699 109.695 41.2535 109.775 41.3516C109.854 41.4482 109.915 41.5395 109.956 41.6253H110.002V41.0411H110.823V44.6315C110.823 44.9335 110.751 45.1835 110.607 45.3813C110.463 45.5791 110.266 45.7271 110.016 45.8252C109.766 45.9233 109.483 45.9724 109.165 45.9724ZM109.172 43.8702C109.348 43.8702 109.499 43.8272 109.623 43.7414C109.747 43.6555 109.841 43.5321 109.906 43.3711C109.97 43.2101 110.002 43.0169 110.002 42.7915C110.002 42.5691 109.97 42.3744 109.906 42.2073C109.843 42.0401 109.749 41.9106 109.625 41.8185C109.502 41.725 109.351 41.6782 109.172 41.6782C108.986 41.6782 108.832 41.7265 108.707 41.8231C108.583 41.9198 108.49 42.0524 108.427 42.2211C108.364 42.3882 108.333 42.5783 108.333 42.7915C108.333 43.0077 108.364 43.197 108.427 43.3596C108.491 43.5206 108.586 43.6463 108.71 43.7368C108.835 43.8257 108.99 43.8702 109.172 43.8702ZM112.654 43.93L112.624 44.183C112.603 44.3762 112.565 44.5724 112.509 44.7718C112.456 44.9726 112.399 45.1574 112.339 45.3261C112.279 45.4947 112.231 45.6274 112.194 45.724H111.633C111.655 45.6305 111.684 45.5032 111.72 45.3422C111.759 45.1812 111.796 45.0002 111.831 44.7994C111.866 44.5985 111.89 44.3946 111.902 44.1876L111.918 43.93H112.654ZM116.955 39.8635V44.574H116.101V40.6938H116.074L114.972 41.3976V40.6156L116.143 39.8635H116.955ZM119.892 44.6637C119.513 44.6637 119.188 44.5678 118.917 44.3762C118.647 44.183 118.439 43.9047 118.293 43.5413C118.149 43.1763 118.077 42.737 118.077 42.2234C118.079 41.7097 118.151 41.2727 118.296 40.9123C118.441 40.5505 118.649 40.2745 118.919 40.0843C119.19 39.8942 119.515 39.7991 119.892 39.7991C120.269 39.7991 120.593 39.8942 120.865 40.0843C121.136 40.2745 121.344 40.5505 121.488 40.9123C121.634 41.2742 121.707 41.7112 121.707 42.2234C121.707 42.7386 121.634 43.1786 121.488 43.5436C121.344 43.907 121.136 44.1845 120.865 44.3762C120.595 44.5678 120.271 44.6637 119.892 44.6637ZM119.892 43.9438C120.186 43.9438 120.419 43.7989 120.589 43.5091C120.76 43.2177 120.846 42.7892 120.846 42.2234C120.846 41.8492 120.807 41.5349 120.729 41.2803C120.651 41.0258 120.54 40.8341 120.398 40.7053C120.255 40.575 120.087 40.5098 119.892 40.5098C119.599 40.5098 119.367 40.6555 119.197 40.9468C119.027 41.2366 118.941 41.6621 118.94 42.2234C118.938 42.599 118.976 42.9149 119.052 43.171C119.131 43.427 119.241 43.6202 119.384 43.7506C119.526 43.8794 119.696 43.9438 119.892 43.9438ZM124.212 44.6637C123.833 44.6637 123.508 44.5678 123.237 44.3762C122.967 44.183 122.759 43.9047 122.613 43.5413C122.469 43.1763 122.397 42.737 122.397 42.2234C122.399 41.7097 122.472 41.2727 122.616 40.9123C122.761 40.5505 122.969 40.2745 123.239 40.0843C123.51 39.8942 123.835 39.7991 124.212 39.7991C124.589 39.7991 124.913 39.8942 125.185 40.0843C125.456 40.2745 125.664 40.5505 125.808 40.9123C125.954 41.2742 126.027 41.7112 126.027 42.2234C126.027 42.7386 125.954 43.1786 125.808 43.5436C125.664 43.907 125.456 44.1845 125.185 44.3762C124.915 44.5678 124.591 44.6637 124.212 44.6637ZM124.212 43.9438C124.506 43.9438 124.739 43.7989 124.909 43.5091C125.08 43.2177 125.166 42.7892 125.166 42.2234C125.166 41.8492 125.127 41.5349 125.049 41.2803C124.971 41.0258 124.86 40.8341 124.718 40.7053C124.575 40.575 124.407 40.5098 124.212 40.5098C123.919 40.5098 123.687 40.6555 123.517 40.9468C123.347 41.2366 123.261 41.6621 123.26 42.2234C123.258 42.599 123.296 42.9149 123.372 43.171C123.451 43.427 123.561 43.6202 123.704 43.7506C123.846 43.8794 124.016 43.9438 124.212 43.9438ZM128.532 44.6637C128.153 44.6637 127.828 44.5678 127.557 44.3762C127.287 44.183 127.079 43.9047 126.933 43.5413C126.789 43.1763 126.717 42.737 126.717 42.2234C126.719 41.7097 126.792 41.2727 126.936 40.9123C127.081 40.5505 127.289 40.2745 127.559 40.0843C127.83 39.8942 128.155 39.7991 128.532 39.7991C128.909 39.7991 129.233 39.8942 129.505 40.0843C129.776 40.2745 129.984 40.5505 130.128 40.9123C130.274 41.2742 130.347 41.7112 130.347 42.2234C130.347 42.7386 130.274 43.1786 130.128 43.5436C129.984 43.907 129.776 44.1845 129.505 44.3762C129.235 44.5678 128.911 44.6637 128.532 44.6637ZM128.532 43.9438C128.826 43.9438 129.059 43.7989 129.229 43.5091C129.401 43.2177 129.486 42.7892 129.486 42.2234C129.486 41.8492 129.447 41.5349 129.369 41.2803C129.291 41.0258 129.18 40.8341 129.038 40.7053C128.895 40.575 128.727 40.5098 128.532 40.5098C128.239 40.5098 128.007 40.6555 127.837 40.9468C127.667 41.2366 127.581 41.6621 127.58 42.2234C127.578 42.599 127.616 42.9149 127.692 43.171C127.771 43.427 127.881 43.6202 128.024 43.7506C128.166 43.8794 128.336 43.9438 128.532 43.9438ZM132.656 45.9724C132.357 45.9724 132.101 45.9318 131.886 45.8505C131.671 45.7708 131.499 45.6634 131.368 45.5285C131.238 45.3935 131.148 45.244 131.097 45.08L131.847 44.8983C131.881 44.9673 131.93 45.0355 131.994 45.103C132.058 45.172 132.145 45.2287 132.254 45.2732C132.364 45.3192 132.503 45.3422 132.67 45.3422C132.906 45.3422 133.102 45.2847 133.257 45.1697C133.412 45.0562 133.489 44.8691 133.489 44.6085V43.9392H133.448C133.405 44.025 133.342 44.1132 133.259 44.2037C133.178 44.2941 133.07 44.37 132.935 44.4314C132.801 44.4927 132.633 44.5234 132.431 44.5234C132.16 44.5234 131.913 44.4597 131.693 44.3325C131.473 44.2037 131.299 44.012 131.168 43.7575C131.039 43.5014 130.975 43.1809 130.975 42.7961C130.975 42.4081 131.039 42.0808 131.168 41.8139C131.299 41.5456 131.474 41.3424 131.695 41.2044C131.916 41.0649 132.162 40.9951 132.433 40.9951C132.64 40.9951 132.81 41.0304 132.944 41.1009C133.079 41.1699 133.186 41.2535 133.266 41.3516C133.346 41.4482 133.406 41.5395 133.448 41.6253H133.494V41.0411H134.315V44.6315C134.315 44.9335 134.243 45.1835 134.098 45.3813C133.954 45.5791 133.757 45.7271 133.507 45.8252C133.257 45.9233 132.974 45.9724 132.656 45.9724ZM132.663 43.8702C132.84 43.8702 132.99 43.8272 133.114 43.7414C133.238 43.6555 133.333 43.5321 133.397 43.3711C133.461 43.2101 133.494 43.0169 133.494 42.7915C133.494 42.5691 133.461 42.3744 133.397 42.2073C133.334 42.0401 133.241 41.9106 133.116 41.8185C132.994 41.725 132.843 41.6782 132.663 41.6782C132.478 41.6782 132.323 41.7265 132.199 41.8231C132.074 41.9198 131.981 42.0524 131.918 42.2211C131.855 42.3882 131.824 42.5783 131.824 42.7915C131.824 43.0077 131.855 43.197 131.918 43.3596C131.982 43.5206 132.077 43.6463 132.201 43.7368C132.327 43.8257 132.481 43.8702 132.663 43.8702Z" fill="#878C90"/>
<path d="M212.356 40.7677V40.1653H214.902V40.7677H212.356ZM216.066 40.7677V40.1653H218.611V40.7677H216.066ZM219.776 40.7677V40.1653H222.321V40.7677H219.776ZM223.485 40.7677V40.1653H226.031V40.7677H223.485ZM227.195 40.7677V40.1653H229.74V40.7677H227.195ZM230.905 40.7677V40.1653H233.45V40.7677H230.905ZM234.614 40.7677V40.1653H237.16V40.7677H234.614ZM238.324 40.7677V40.1653H240.869V40.7677H238.324ZM242.034 40.7677V40.1653H244.579V40.7677H242.034ZM245.743 40.7677V40.1653H248.289V40.7677H245.743ZM249.453 40.7677V40.1653H251.998V40.7677H249.453ZM253.162 40.7677V40.1653H255.708V40.7677H253.162ZM256.872 40.7677V40.1653H259.418V40.7677H256.872ZM260.582 40.7677V40.1653H263.127V40.7677H260.582ZM264.291 40.7677V40.1653H266.837V40.7677H264.291ZM268.001 40.7677V40.1653H270.546V40.7677H268.001ZM271.711 40.7677V40.1653H274.256V40.7677H271.711ZM275.42 40.7677V40.1653H277.966V40.7677H275.42ZM279.13 40.7677V40.1653H281.675V40.7677H279.13ZM282.84 40.7677V40.1653H285.385V40.7677H282.84ZM286.549 40.7677V40.1653H289.095V40.7677H286.549ZM290.259 40.7677V40.1653H292.804V40.7677H290.259ZM293.969 40.7677V40.1653H296.514V40.7677H293.969ZM297.678 40.7677V40.1653H300.224V40.7677H297.678ZM301.388 40.7677V40.1653H303.933V40.7677H301.388ZM305.097 40.7677V40.1653H307.643V40.7677H305.097ZM308.807 40.7677V40.1653H311.353V40.7677H308.807ZM312.517 40.7677V40.1653H315.062V40.7677H312.517ZM316.226 40.7677V40.1653H318.772V40.7677H316.226ZM319.936 40.7677V40.1653H322.481V40.7677H319.936ZM323.646 40.7677V40.1653H326.191V40.7677H323.646ZM327.355 40.7677V40.1653H329.901V40.7677H327.355ZM331.065 40.7677V40.1653H333.61V40.7677H331.065ZM334.775 40.7677V40.1653H337.32V40.7677H334.775Z" fill="#8F8E8E"/>
<rect x="337.667" y="21.5491" width="50.1956" height="37.2419" rx="5.26245" fill="#F1F3F2" stroke="#ADB4B7" stroke-width="0.809607"/>
<path d="M353.428 39.7771C353.428 38.1061 353.749 36.7896 354.39 35.8278C355.041 34.866 356.085 34.3851 357.523 34.3851C358.961 34.3851 360.001 34.866 360.642 35.8278C361.293 36.7896 361.618 38.1061 361.618 39.7771C361.618 41.4676 361.293 42.7937 360.642 43.7555C360.001 44.7173 358.961 45.1982 357.523 45.1982C356.085 45.1982 355.041 44.7173 354.39 43.7555C353.749 42.7937 353.428 41.4676 353.428 39.7771ZM359.17 39.7771C359.17 38.7958 359.063 38.0429 358.849 37.5183C358.636 36.9839 358.194 36.7168 357.523 36.7168C356.853 36.7168 356.411 36.9839 356.197 37.5183C355.983 38.0429 355.877 38.7958 355.877 39.7771C355.877 40.4377 355.915 40.9866 355.993 41.4238C356.071 41.8513 356.226 42.2011 356.46 42.4731C356.702 42.7354 357.057 42.8666 357.523 42.8666C357.99 42.8666 358.339 42.7354 358.573 42.4731C358.815 42.2011 358.976 41.8513 359.054 41.4238C359.131 40.9866 359.17 40.4377 359.17 39.7771ZM362.993 43.3475V41.3364L367.598 34.7494H370.382V41.1907H371.577V43.3475H370.382V45.2419H367.89V43.3475H362.993ZM368.065 37.4891L365.616 41.1907H368.065V37.4891Z" fill="#36404B"/>
<defs>
<filter id="filter0_d_1139_95" x="0.000161171" y="6.48499e-05" width="419.203" height="85.1747" filterUnits="userSpaceOnUse" color-interpolation-filters="sRGB">
<feFlood flood-opacity="0" result="BackgroundImageFix"/>
<feColorMatrix in="SourceAlpha" type="matrix" values="0 0 0 0 0 0 0 0 0 0 0 0 0 0 0 0 0 0 127 0" result="hardAlpha"/>
<feOffset dy="3.23843"/>
<feGaussianBlur stdDeviation="6.8007"/>
<feComposite in2="hardAlpha" operator="out"/>
<feColorMatrix type="matrix" values="0 0 0 0 0 0 0 0 0 0 0 0 0 0 0 0 0 0 0.17 0"/>
<feBlend mode="normal" in2="BackgroundImageFix" result="effect1_dropShadow_1139_95"/>
<feBlend mode="normal" in="SourceGraphic" in2="effect1_dropShadow_1139_95" result="shape"/>
</filter>
</defs>
</svg>
