<svg width="420" height="87" viewBox="0 0 420 87" fill="none" xmlns="http://www.w3.org/2000/svg">
<g filter="url(#filter0_d_1139_115)">
<rect x="13.6016" y="10.363" width="392" height="58.892" rx="10.5249" fill="#FEFFFE"/>
</g>
<circle cx="43.3389" cy="38.2995" r="21.0498" fill="#D9F2EE"/>
<circle cx="43.5575" cy="38.2994" r="17.8114" fill="#0C2461"/>
<path d="M40.281 45.4234C39.5718 45.4234 38.9791 45.2826 38.5031 45.0008C38.027 44.7094 37.6676 44.311 37.4247 43.8058C37.1818 43.3006 37.0604 42.7129 37.0604 42.0425V36.6942C37.0604 36.0045 37.1721 35.4021 37.3956 34.8872C37.6287 34.3626 37.9833 33.9545 38.4594 33.6631C38.9354 33.3716 39.5426 33.2259 40.281 33.2259C41.0194 33.2259 41.6217 33.3716 42.088 33.6631C42.5641 33.9545 42.9138 34.3626 43.1373 34.8872C43.3705 35.4021 43.487 36.0045 43.487 36.6942V42.0425C43.487 42.7031 43.3656 43.2909 43.1227 43.8058C42.8798 44.311 42.5204 44.7094 42.0443 45.0008C41.5683 45.2826 40.9805 45.4234 40.281 45.4234ZM40.281 43.2521C40.5142 43.2521 40.6793 43.1792 40.7765 43.0335C40.8833 42.878 40.9465 42.7031 40.9659 42.5088C40.9951 42.3048 41.0096 42.1299 41.0096 41.9842V36.7525C41.0096 36.5874 40.9999 36.4028 40.9805 36.1988C40.9611 35.985 40.8979 35.8004 40.791 35.645C40.6939 35.4798 40.5239 35.3973 40.281 35.3973C40.0381 35.3973 39.8632 35.4798 39.7564 35.645C39.6592 35.8004 39.6009 35.985 39.5815 36.1988C39.5621 36.4028 39.5523 36.5874 39.5523 36.7525V41.9842C39.5523 42.1299 39.5669 42.3048 39.5961 42.5088C39.6252 42.7031 39.6884 42.878 39.7855 43.0335C39.8924 43.1792 40.0575 43.2521 40.281 43.2521ZM48.5993 45.3797C47.8318 45.3797 47.2051 45.2145 46.7194 44.8842C46.2433 44.5442 45.8936 44.0827 45.6701 43.4998C45.4467 42.9169 45.335 42.2514 45.335 41.5033V37.2334C45.335 36.4659 45.4224 35.781 45.5973 35.1787C45.7819 34.5763 46.1073 34.1051 46.5737 33.7651C47.04 33.4153 47.7103 33.2405 48.5847 33.2405C49.3425 33.2405 49.94 33.357 50.3772 33.5902C50.8144 33.8234 51.1253 34.1634 51.3099 34.6103C51.4944 35.0572 51.5867 35.611 51.5867 36.2716C51.5867 36.3105 51.5867 36.3493 51.5867 36.3882C51.5965 36.4174 51.6013 36.4465 51.6013 36.4756H49.3134C49.3134 35.9996 49.2745 35.6498 49.1968 35.4264C49.1288 35.1932 48.9296 35.0766 48.5993 35.0766C48.3758 35.0766 48.2058 35.1447 48.0892 35.2807C47.9824 35.4167 47.9095 35.6547 47.8706 35.9947C47.8318 36.3348 47.8124 36.8108 47.8124 37.4229V38.4721C47.9289 38.2681 48.1184 38.1127 48.3807 38.0058C48.643 37.8892 48.9393 37.8261 49.2696 37.8164C49.8914 37.7969 50.3869 37.9378 50.7561 38.239C51.135 38.5401 51.407 38.953 51.5722 39.4777C51.7373 39.9926 51.8199 40.5706 51.8199 41.2119C51.8199 42.0377 51.7228 42.7663 51.5285 43.3978C51.3341 44.0196 51.0038 44.5053 50.5375 44.8551C50.0712 45.2048 49.4251 45.3797 48.5993 45.3797ZM48.6284 43.5872C48.8519 43.5872 49.0122 43.5144 49.1093 43.3686C49.2162 43.2132 49.2842 42.9897 49.3134 42.6983C49.3522 42.3971 49.3717 42.0279 49.3717 41.5907C49.3717 41.2021 49.3571 40.867 49.3279 40.5852C49.3085 40.3035 49.2454 40.0849 49.1385 39.9294C49.0316 39.7643 48.8519 39.6817 48.5993 39.6817C48.4827 39.6817 48.371 39.706 48.2641 39.7546C48.1572 39.8031 48.065 39.8663 47.9872 39.944C47.9095 40.012 47.8512 40.08 47.8124 40.148V42.0717C47.8124 42.334 47.8318 42.5817 47.8706 42.8149C47.9192 43.048 48.0018 43.2375 48.1184 43.3832C48.2447 43.5192 48.4147 43.5872 48.6284 43.5872Z" fill="#FEFFFE"/>
<path d="M76.2111 32.7263V24.7808H74.7489V23.5454H79.328V24.7808H77.8886V32.7263H76.2111ZM82.6795 32.851C81.9995 32.851 81.4705 32.7263 81.0927 32.477C80.7149 32.2276 80.4542 31.8725 80.3106 31.4115C80.167 30.9506 80.0953 30.399 80.0953 29.7567V23.5454H81.7274V29.9494C81.7274 30.2365 81.7463 30.5085 81.7841 30.7654C81.8219 31.0148 81.9088 31.2188 82.0448 31.3775C82.1884 31.5286 82.3999 31.6042 82.6795 31.6042C82.9742 31.6042 83.1858 31.5286 83.3143 31.3775C83.4503 31.2188 83.5372 31.0148 83.5749 30.7654C83.6203 30.5085 83.643 30.2365 83.643 29.9494V23.5454H85.2638V29.7567C85.2638 30.399 85.192 30.9506 85.0484 31.4115C84.9049 31.8725 84.6442 32.2276 84.2664 32.477C83.8961 32.7263 83.3671 32.851 82.6795 32.851ZM86.5832 32.7263V23.5454H88.8388C89.2468 23.5454 89.6133 23.5832 89.9382 23.6587C90.2707 23.7343 90.554 23.8627 90.7883 24.0441C91.0301 24.2179 91.2152 24.4559 91.3437 24.7582C91.4721 25.0604 91.5364 25.442 91.5364 25.9029C91.5364 26.2732 91.4835 26.5906 91.3777 26.855C91.2795 27.1195 91.1321 27.3311 90.9356 27.4898C90.7392 27.6409 90.4936 27.7429 90.1989 27.7958C90.5616 27.8563 90.8601 27.9847 91.0943 28.1812C91.3361 28.3701 91.5137 28.6195 91.627 28.9293C91.7479 29.2391 91.8084 29.6131 91.8084 30.0514C91.8084 30.4896 91.7517 30.8788 91.6384 31.2188C91.5326 31.5513 91.3701 31.8309 91.151 32.0576C90.9394 32.2767 90.6712 32.443 90.3462 32.5563C90.0289 32.6696 89.6548 32.7263 89.2241 32.7263H86.5832ZM88.2607 31.5475H88.8954C89.4017 31.5475 89.7455 31.4266 89.9269 31.1848C90.1082 30.9355 90.1989 30.5539 90.1989 30.04C90.1989 29.6698 90.1536 29.3713 90.0629 29.1446C89.9798 28.9104 89.8362 28.7366 89.6322 28.6232C89.4357 28.5099 89.1712 28.4532 88.8388 28.4532H88.2607V31.5475ZM88.2607 27.2971H88.8274C89.1599 27.2971 89.4168 27.248 89.5982 27.1497C89.7795 27.0515 89.9042 26.9004 89.9722 26.6964C90.0478 26.4923 90.0856 26.2354 90.0856 25.9256C90.0856 25.6007 90.0289 25.3513 89.9155 25.1775C89.8097 24.9962 89.6473 24.8753 89.4282 24.8148C89.209 24.7468 88.9294 24.7128 88.5894 24.7128H88.2607V27.2971Z" fill="#0C2461"/>
<path d="M75.0202 45.7263V45.1099L76.6555 43.5068C76.8119 43.3489 76.9422 43.2086 77.0465 43.0859C77.1508 42.9632 77.229 42.8444 77.2811 42.7294C77.3332 42.6144 77.3593 42.4917 77.3593 42.3614C77.3593 42.2127 77.3256 42.0854 77.2581 41.9796C77.1906 41.8723 77.0979 41.7894 76.9798 41.7312C76.8617 41.6729 76.7275 41.6438 76.5773 41.6438C76.4224 41.6438 76.2867 41.676 76.1702 41.7404C76.0536 41.8032 75.9632 41.893 75.8988 42.0095C75.8359 42.126 75.8045 42.2648 75.8045 42.4258H74.9926C74.9926 42.1268 75.0608 41.8669 75.1973 41.6461C75.3337 41.4253 75.5216 41.2543 75.7608 41.1332C76.0015 41.012 76.2775 40.9515 76.5888 40.9515C76.9046 40.9515 77.1822 41.0105 77.4214 41.1286C77.6606 41.2466 77.8461 41.4084 77.978 41.6139C78.1114 41.8193 78.1781 42.054 78.1781 42.3177C78.1781 42.494 78.1444 42.6673 78.0769 42.8375C78.0094 43.0077 77.8906 43.1963 77.7204 43.4033C77.5517 43.6103 77.3148 43.861 77.0097 44.1554L76.1978 44.9811V45.0133H78.2494V45.7263H75.0202ZM80.6805 45.7907C80.3738 45.7907 80.0994 45.7332 79.8571 45.6182C79.6148 45.5017 79.4224 45.3422 79.2798 45.1398C79.1387 44.9374 79.0636 44.7059 79.0544 44.4452H79.8824C79.8977 44.6384 79.9813 44.7963 80.1331 44.919C80.2849 45.0401 80.4674 45.1007 80.6805 45.1007C80.8477 45.1007 80.9964 45.0624 81.1267 44.9857C81.2571 44.909 81.3598 44.8025 81.4349 44.666C81.5101 44.5295 81.5469 44.3739 81.5453 44.1991C81.5469 44.0212 81.5093 43.8633 81.4326 43.7253C81.356 43.5873 81.2509 43.4792 81.1175 43.401C80.9841 43.3213 80.8308 43.2814 80.6575 43.2814C80.5164 43.2799 80.3777 43.3059 80.2412 43.3596C80.1047 43.4133 79.9966 43.4838 79.9169 43.5712L79.1464 43.4447L79.3925 41.0159H82.1249V41.7289H80.0986L79.9629 42.9778H79.9905C80.0779 42.8751 80.2013 42.79 80.3608 42.7225C80.5203 42.6535 80.6951 42.619 80.8852 42.619C81.1704 42.619 81.425 42.6865 81.6488 42.8214C81.8727 42.9548 82.049 43.1388 82.1778 43.3734C82.3066 43.608 82.371 43.8763 82.371 44.1784C82.371 44.4897 82.299 44.7672 82.1548 45.011C82.0122 45.2533 81.8137 45.4442 81.5591 45.5837C81.3061 45.7217 81.0133 45.7907 80.6805 45.7907ZM84.8827 45.816C84.5039 45.816 84.1788 45.7202 83.9074 45.5285C83.6376 45.3353 83.4298 45.057 83.2841 44.6936C83.14 44.3287 83.0679 43.8894 83.0679 43.3757C83.0695 42.862 83.1423 42.425 83.2864 42.0647C83.4321 41.7028 83.6399 41.4268 83.9097 41.2367C84.1811 41.0465 84.5055 40.9515 84.8827 40.9515C85.2599 40.9515 85.5842 41.0465 85.8556 41.2367C86.127 41.4268 86.3347 41.7028 86.4789 42.0647C86.6245 42.4266 86.6974 42.8636 86.6974 43.3757C86.6974 43.8909 86.6245 44.331 86.4789 44.6959C86.3347 45.0593 86.127 45.3368 85.8556 45.5285C85.5857 45.7202 85.2614 45.816 84.8827 45.816ZM84.8827 45.0961C85.1771 45.0961 85.4094 44.9512 85.5796 44.6614C85.7513 44.3701 85.8372 43.9415 85.8372 43.3757C85.8372 43.0016 85.7981 42.6872 85.7199 42.4327C85.6417 42.1782 85.5313 41.9865 85.3887 41.8577C85.2461 41.7273 85.0774 41.6622 84.8827 41.6622C84.5898 41.6622 84.3582 41.8078 84.188 42.0992C84.0178 42.389 83.932 42.8145 83.9304 43.3757C83.9289 43.7514 83.9665 44.0672 84.0431 44.3233C84.1213 44.5794 84.2317 44.7726 84.3743 44.9029C84.517 45.0317 84.6864 45.0961 84.8827 45.0961ZM87.4708 45.7263V42.1935H88.2666V42.7938H88.308C88.3816 42.5914 88.5035 42.4335 88.6737 42.32C88.8439 42.205 89.047 42.1475 89.2832 42.1475C89.5224 42.1475 89.724 42.2058 89.8881 42.3223C90.0537 42.4373 90.1702 42.5945 90.2377 42.7938H90.2745C90.3527 42.5975 90.4845 42.4411 90.6701 42.3246C90.8572 42.2065 91.0787 42.1475 91.3348 42.1475C91.6599 42.1475 91.9251 42.2502 92.1306 42.4557C92.3361 42.6612 92.4388 42.9609 92.4388 43.355V45.7263H91.6039V43.4838C91.6039 43.2645 91.5456 43.1043 91.4291 43.0031C91.3126 42.9004 91.17 42.849 91.0013 42.849C90.8004 42.849 90.6432 42.9119 90.5298 43.0376C90.4178 43.1618 90.3619 43.3236 90.3619 43.5229V45.7263H89.5454V43.4493C89.5454 43.2668 89.4902 43.1212 89.3798 43.0123C89.2709 42.9034 89.1283 42.849 88.952 42.849C88.8324 42.849 88.7235 42.8797 88.6254 42.941C88.5272 43.0008 88.449 43.0859 88.3908 43.1963C88.3325 43.3052 88.3034 43.4324 88.3034 43.5781V45.7263H87.4708ZM94.1161 41.0159V45.7263H93.2835V41.0159H94.1161ZM95.9498 45.0823L95.9199 45.3353C95.8984 45.5285 95.8601 45.7248 95.8049 45.9241C95.7512 46.125 95.6945 46.3098 95.6347 46.4784C95.5749 46.6471 95.5266 46.7797 95.4898 46.8763H94.9286C94.95 46.7828 94.9792 46.6555 95.016 46.4945C95.0543 46.3335 95.0911 46.1526 95.1264 45.9517C95.1616 45.7509 95.1854 45.5469 95.1977 45.3399L95.2138 45.0823H95.9498ZM99.9719 45.7907C99.6653 45.7907 99.3908 45.7332 99.1485 45.6182C98.9063 45.5017 98.7138 45.3422 98.5712 45.1398C98.4302 44.9374 98.355 44.7059 98.3458 44.4452H99.1738C99.1892 44.6384 99.2727 44.7963 99.4245 44.919C99.5763 45.0401 99.7588 45.1007 99.9719 45.1007C100.139 45.1007 100.288 45.0624 100.418 44.9857C100.548 44.909 100.651 44.8025 100.726 44.666C100.801 44.5295 100.838 44.3739 100.837 44.1991C100.838 44.0212 100.801 43.8633 100.724 43.7253C100.647 43.5873 100.542 43.4792 100.409 43.401C100.276 43.3213 100.122 43.2814 99.9489 43.2814C99.8079 43.2799 99.6691 43.3059 99.5326 43.3596C99.3962 43.4133 99.2881 43.4838 99.2083 43.5712L98.4378 43.4447L98.6839 41.0159H101.416V41.7289H99.39L99.2543 42.9778H99.2819C99.3693 42.8751 99.4928 42.79 99.6522 42.7225C99.8117 42.6535 99.9865 42.619 100.177 42.619C100.462 42.619 100.716 42.6865 100.94 42.8214C101.164 42.9548 101.34 43.1388 101.469 43.3734C101.598 43.608 101.662 43.8763 101.662 44.1784C101.662 44.4897 101.59 44.7672 101.446 45.011C101.304 45.2533 101.105 45.4442 100.851 45.5837C100.598 45.7217 100.305 45.7907 99.9719 45.7907ZM104.174 45.816C103.795 45.816 103.47 45.7202 103.199 45.5285C102.929 45.3353 102.721 45.057 102.576 44.6936C102.431 44.3287 102.359 43.8894 102.359 43.3757C102.361 42.862 102.434 42.425 102.578 42.0647C102.724 41.7028 102.931 41.4268 103.201 41.2367C103.473 41.0465 103.797 40.9515 104.174 40.9515C104.551 40.9515 104.876 41.0465 105.147 41.2367C105.418 41.4268 105.626 41.7028 105.77 42.0647C105.916 42.4266 105.989 42.8636 105.989 43.3757C105.989 43.8909 105.916 44.331 105.77 44.6959C105.626 45.0593 105.418 45.3368 105.147 45.5285C104.877 45.7202 104.553 45.816 104.174 45.816ZM104.174 45.0961C104.468 45.0961 104.701 44.9512 104.871 44.6614C105.043 44.3701 105.129 43.9415 105.129 43.3757C105.129 43.0016 105.089 42.6872 105.011 42.4327C104.933 42.1782 104.823 41.9865 104.68 41.8577C104.537 41.7273 104.369 41.6622 104.174 41.6622C103.881 41.6622 103.65 41.8078 103.479 42.0992C103.309 42.389 103.223 42.8145 103.222 43.3757C103.22 43.7514 103.258 44.0672 103.335 44.3233C103.413 44.5794 103.523 44.7726 103.666 44.9029C103.808 45.0317 103.978 45.0961 104.174 45.0961ZM108.494 45.816C108.115 45.816 107.79 45.7202 107.519 45.5285C107.249 45.3353 107.041 45.057 106.896 44.6936C106.751 44.3287 106.679 43.8894 106.679 43.3757C106.681 42.862 106.754 42.425 106.898 42.0647C107.044 41.7028 107.251 41.4268 107.521 41.2367C107.793 41.0465 108.117 40.9515 108.494 40.9515C108.871 40.9515 109.196 41.0465 109.467 41.2367C109.738 41.4268 109.946 41.7028 110.09 42.0647C110.236 42.4266 110.309 42.8636 110.309 43.3757C110.309 43.8909 110.236 44.331 110.09 44.6959C109.946 45.0593 109.738 45.3368 109.467 45.5285C109.197 45.7202 108.873 45.816 108.494 45.816ZM108.494 45.0961C108.788 45.0961 109.021 44.9512 109.191 44.6614C109.363 44.3701 109.449 43.9415 109.449 43.3757C109.449 43.0016 109.409 42.6872 109.331 42.4327C109.253 42.1782 109.143 41.9865 109 41.8577C108.857 41.7273 108.689 41.6622 108.494 41.6622C108.201 41.6622 107.97 41.8078 107.799 42.0992C107.629 42.389 107.543 42.8145 107.542 43.3757C107.54 43.7514 107.578 44.0672 107.655 44.3233C107.733 44.5794 107.843 44.7726 107.986 44.9029C108.128 45.0317 108.298 45.0961 108.494 45.0961ZM111.082 45.7263V42.1935H111.878V42.7938H111.919C111.993 42.5914 112.115 42.4335 112.285 42.32C112.455 42.205 112.658 42.1475 112.895 42.1475C113.134 42.1475 113.335 42.2058 113.5 42.3223C113.665 42.4373 113.782 42.5945 113.849 42.7938H113.886C113.964 42.5975 114.096 42.4411 114.282 42.3246C114.469 42.2065 114.69 42.1475 114.946 42.1475C115.271 42.1475 115.537 42.2502 115.742 42.4557C115.947 42.6612 116.05 42.9609 116.05 43.355V45.7263H115.215V43.4838C115.215 43.2645 115.157 43.1043 115.041 43.0031C114.924 42.9004 114.781 42.849 114.613 42.849C114.412 42.849 114.255 42.9119 114.141 43.0376C114.029 43.1618 113.973 43.3236 113.973 43.5229V45.7263H113.157V43.4493C113.157 43.2668 113.102 43.1212 112.991 43.0123C112.882 42.9034 112.74 42.849 112.563 42.849C112.444 42.849 112.335 42.8797 112.237 42.941C112.139 43.0008 112.06 43.0859 112.002 43.1963C111.944 43.3052 111.915 43.4324 111.915 43.5781V45.7263H111.082ZM117.728 41.0159V45.7263H116.895V41.0159H117.728Z" fill="#878C90"/>
<path d="M212.356 40.92V40.3177H214.902V40.92H212.356ZM216.066 40.92V40.3177H218.611V40.92H216.066ZM219.776 40.92V40.3177H222.321V40.92H219.776ZM223.485 40.92V40.3177H226.031V40.92H223.485ZM227.195 40.92V40.3177H229.74V40.92H227.195ZM230.905 40.92V40.3177H233.45V40.92H230.905ZM234.614 40.92V40.3177H237.16V40.92H234.614ZM238.324 40.92V40.3177H240.869V40.92H238.324ZM242.034 40.92V40.3177H244.579V40.92H242.034ZM245.743 40.92V40.3177H248.289V40.92H245.743ZM249.453 40.92V40.3177H251.998V40.92H249.453ZM253.162 40.92V40.3177H255.708V40.92H253.162ZM256.872 40.92V40.3177H259.418V40.92H256.872ZM260.582 40.92V40.3177H263.127V40.92H260.582ZM264.291 40.92V40.3177H266.837V40.92H264.291ZM268.001 40.92V40.3177H270.546V40.92H268.001ZM271.711 40.92V40.3177H274.256V40.92H271.711ZM275.42 40.92V40.3177H277.966V40.92H275.42ZM279.13 40.92V40.3177H281.675V40.92H279.13ZM282.84 40.92V40.3177H285.385V40.92H282.84ZM286.549 40.92V40.3177H289.095V40.92H286.549ZM290.259 40.92V40.3177H292.804V40.92H290.259ZM293.969 40.92V40.3177H296.514V40.92H293.969ZM297.678 40.92V40.3177H300.224V40.92H297.678ZM301.388 40.92V40.3177H303.933V40.92H301.388ZM305.097 40.92V40.3177H307.643V40.92H305.097ZM308.807 40.92V40.3177H311.353V40.92H308.807ZM312.517 40.92V40.3177H315.062V40.92H312.517ZM316.226 40.92V40.3177H318.772V40.92H316.226ZM319.936 40.92V40.3177H322.481V40.92H319.936ZM323.646 40.92V40.3177H326.191V40.92H323.646ZM327.355 40.92V40.3177H329.901V40.92H327.355ZM331.065 40.92V40.3177H333.61V40.92H331.065ZM334.775 40.92V40.3177H337.32V40.92H334.775Z" fill="#8F8E8E"/>
<rect x="337.667" y="21.7034" width="50.1956" height="37.2419" rx="5.26245" fill="#F1F3F2" stroke="#ADB4B7" stroke-width="0.809607"/>
<path d="M354.22 39.9294C354.22 38.2584 354.541 36.942 355.182 35.9802C355.833 35.0184 356.877 34.5375 358.315 34.5375C359.753 34.5375 360.792 35.0184 361.434 35.9802C362.085 36.942 362.41 38.2584 362.41 39.9294C362.41 41.6199 362.085 42.946 361.434 43.9078C360.792 44.8697 359.753 45.3506 358.315 45.3506C356.877 45.3506 355.833 44.8697 355.182 43.9078C354.541 42.946 354.22 41.6199 354.22 39.9294ZM359.962 39.9294C359.962 38.9482 359.855 38.1953 359.641 37.6706C359.427 37.1363 358.985 36.8691 358.315 36.8691C357.645 36.8691 357.203 37.1363 356.989 37.6706C356.775 38.1953 356.668 38.9482 356.668 39.9294C356.668 40.5901 356.707 41.139 356.785 41.5762C356.863 42.0037 357.018 42.3534 357.251 42.6254C357.494 42.8877 357.849 43.0189 358.315 43.0189C358.781 43.0189 359.131 42.8877 359.364 42.6254C359.607 42.3534 359.768 42.0037 359.845 41.5762C359.923 41.139 359.962 40.5901 359.962 39.9294ZM368.987 37.6269C368.91 37.2674 368.774 37.0003 368.579 36.8254C368.385 36.6408 368.108 36.5485 367.749 36.5485C367.195 36.5485 366.797 36.7914 366.554 37.2772C366.311 37.7532 366.185 38.511 366.175 39.5505C366.389 39.2105 366.695 38.9433 367.093 38.749C367.501 38.5547 367.948 38.4576 368.434 38.4576C369.386 38.4576 370.148 38.7587 370.722 39.3611C371.305 39.9634 371.596 40.8038 371.596 41.8822C371.596 42.5914 371.45 43.2132 371.159 43.7475C370.877 44.2819 370.459 44.6996 369.906 45.0008C369.362 45.302 368.715 45.4526 367.967 45.4526C366.471 45.4526 365.432 44.9862 364.849 44.0536C364.266 43.1112 363.974 41.7608 363.974 40.0023C363.974 38.1564 364.28 36.7865 364.892 35.8927C365.514 34.9892 366.505 34.5375 367.865 34.5375C368.594 34.5375 369.206 34.6832 369.702 34.9746C370.207 35.2564 370.586 35.6304 370.838 36.0968C371.101 36.5631 371.256 37.0731 371.305 37.6269H368.987ZM367.836 40.4249C367.418 40.4249 367.069 40.5512 366.787 40.8038C366.515 41.0467 366.379 41.3964 366.379 41.8531C366.379 42.3194 366.505 42.6837 366.758 42.946C367.02 43.2083 367.389 43.3395 367.865 43.3395C368.293 43.3395 368.628 43.2132 368.871 42.9606C369.124 42.6983 369.25 42.3437 369.25 41.8968C369.25 41.4402 369.128 41.0807 368.885 40.8184C368.643 40.5561 368.293 40.4249 367.836 40.4249Z" fill="#36404B"/>
<defs>
<filter id="filter0_d_1139_115" x="0.000161171" y="6.48499e-05" width="419.203" height="86.0949" filterUnits="userSpaceOnUse" color-interpolation-filters="sRGB">
<feFlood flood-opacity="0" result="BackgroundImageFix"/>
<feColorMatrix in="SourceAlpha" type="matrix" values="0 0 0 0 0 0 0 0 0 0 0 0 0 0 0 0 0 0 127 0" result="hardAlpha"/>
<feOffset dy="3.23843"/>
<feGaussianBlur stdDeviation="6.8007"/>
<feComposite in2="hardAlpha" operator="out"/>
<feColorMatrix type="matrix" values="0 0 0 0 0 0 0 0 0 0 0 0 0 0 0 0 0 0 0.17 0"/>
<feBlend mode="normal" in2="BackgroundImageFix" result="effect1_dropShadow_1139_115"/>
<feBlend mode="normal" in="SourceGraphic" in2="effect1_dropShadow_1139_115" result="shape"/>
</filter>
</defs>
</svg>
