<svg width="112" height="37" viewBox="0 0 112 37" fill="none" xmlns="http://www.w3.org/2000/svg">
<rect width="36.5" height="36.5" rx="18.25" fill="white"/>
<path d="M16.4163 20.9974V18.2474M20.083 20.9974V18.2474M23.7497 20.9974V18.2474M9.08301 14.5807V10.9141M27.4163 12.7474H9.08301M27.4163 14.5807V10.9141M12.7497 20.9974V18.2474" stroke="#3A8ECB" stroke-width="2.06182" stroke-linecap="round" stroke-linejoin="round"/>
<path d="M25.583 18.2479H10.9163C9.90382 18.2479 9.08301 19.0687 9.08301 20.0813V23.7479C9.08301 24.7604 9.90382 25.5813 10.9163 25.5813H25.583C26.5955 25.5813 27.4163 24.7604 27.4163 23.7479V20.0813C27.4163 19.0687 26.5955 18.2479 25.583 18.2479Z" stroke="#3A8ECB" stroke-width="2.06182" stroke-linecap="round" stroke-linejoin="round"/>
<path d="M49.725 11.4827C49.725 12.0127 49.6367 12.4994 49.46 12.9427C49.2833 13.3861 49.035 13.7677 48.715 14.0877C48.395 14.4077 48.01 14.6561 47.56 14.8327C47.11 15.0094 46.61 15.0977 46.06 15.0977H43.305V7.86772H46.06C46.61 7.86772 47.11 7.95772 47.56 8.13772C48.01 8.31438 48.395 8.56272 48.715 8.88272C49.035 9.19938 49.2833 9.57938 49.46 10.0227C49.6367 10.4661 49.725 10.9527 49.725 11.4827ZM48.345 11.4827C48.345 11.0861 48.2917 10.7311 48.185 10.4177C48.0817 10.1011 47.93 9.83438 47.73 9.61772C47.5333 9.39772 47.2933 9.22938 47.01 9.11272C46.73 8.99605 46.4133 8.93772 46.06 8.93772H44.655V14.0277H46.06C46.4133 14.0277 46.73 13.9694 47.01 13.8527C47.2933 13.7361 47.5333 13.5694 47.73 13.3527C47.93 13.1327 48.0817 12.8661 48.185 12.5527C48.2917 12.2361 48.345 11.8794 48.345 11.4827ZM51.9095 9.96772V15.0977H50.6695V9.96772H51.9095ZM52.0795 8.47272C52.0795 8.57938 52.0579 8.67938 52.0145 8.77272C51.9712 8.86605 51.9129 8.94772 51.8395 9.01772C51.7695 9.08772 51.6862 9.14438 51.5895 9.18772C51.4929 9.22772 51.3895 9.24772 51.2795 9.24772C51.1729 9.24772 51.0712 9.22772 50.9745 9.18772C50.8812 9.14438 50.7995 9.08772 50.7295 9.01772C50.6595 8.94772 50.6029 8.86605 50.5595 8.77272C50.5195 8.67938 50.4995 8.57938 50.4995 8.47272C50.4995 8.36272 50.5195 8.25938 50.5595 8.16272C50.6029 8.06605 50.6595 7.98272 50.7295 7.91272C50.7995 7.84272 50.8812 7.78772 50.9745 7.74772C51.0712 7.70438 51.1729 7.68272 51.2795 7.68272C51.3895 7.68272 51.4929 7.70438 51.5895 7.74772C51.6862 7.78772 51.7695 7.84272 51.8395 7.91272C51.9129 7.98272 51.9712 8.06605 52.0145 8.16272C52.0579 8.25938 52.0795 8.36272 52.0795 8.47272ZM53.1686 15.0977V9.96772H53.9236C54.0836 9.96772 54.1886 10.0427 54.2386 10.1927L54.3186 10.5727C54.4086 10.4727 54.5019 10.3811 54.5986 10.2977C54.6986 10.2144 54.8036 10.1427 54.9136 10.0827C55.0269 10.0227 55.1469 9.97605 55.2736 9.94272C55.4036 9.90605 55.5453 9.88772 55.6986 9.88772C56.0219 9.88772 56.2869 9.97605 56.4936 10.1527C56.7036 10.3261 56.8603 10.5577 56.9636 10.8477C57.0436 10.6777 57.1436 10.5327 57.2636 10.4127C57.3836 10.2894 57.5153 10.1894 57.6586 10.1127C57.8019 10.0361 57.9536 9.97938 58.1136 9.94272C58.2769 9.90605 58.4403 9.88772 58.6036 9.88772C58.8869 9.88772 59.1386 9.93105 59.3586 10.0177C59.5786 10.1044 59.7636 10.2311 59.9136 10.3977C60.0636 10.5644 60.1769 10.7677 60.2536 11.0077C60.3336 11.2477 60.3736 11.5227 60.3736 11.8327V15.0977H59.1386V11.8327C59.1386 11.5061 59.0669 11.2611 58.9236 11.0977C58.7803 10.9311 58.5703 10.8477 58.2936 10.8477C58.1669 10.8477 58.0486 10.8694 57.9386 10.9127C57.8319 10.9561 57.7369 11.0194 57.6536 11.1027C57.5736 11.1827 57.5103 11.2844 57.4636 11.4077C57.4169 11.5311 57.3936 11.6727 57.3936 11.8327V15.0977H56.1536V11.8327C56.1536 11.4894 56.0836 11.2394 55.9436 11.0827C55.8069 10.9261 55.6053 10.8477 55.3386 10.8477C55.1586 10.8477 54.9903 10.8927 54.8336 10.9827C54.6803 11.0694 54.5369 11.1894 54.4036 11.3427V15.0977H53.1686ZM64.8525 11.9427C64.8525 11.7827 64.8292 11.6327 64.7825 11.4927C64.7392 11.3494 64.6725 11.2244 64.5825 11.1177C64.4925 11.0111 64.3775 10.9277 64.2375 10.8677C64.1008 10.8044 63.9408 10.7727 63.7575 10.7727C63.4008 10.7727 63.1192 10.8744 62.9125 11.0777C62.7092 11.2811 62.5792 11.5694 62.5225 11.9427H64.8525ZM62.4975 12.6877C62.5175 12.9511 62.5642 13.1794 62.6375 13.3727C62.7108 13.5627 62.8075 13.7211 62.9275 13.8477C63.0475 13.9711 63.1892 14.0644 63.3525 14.1277C63.5192 14.1877 63.7025 14.2177 63.9025 14.2177C64.1025 14.2177 64.2742 14.1944 64.4175 14.1477C64.5642 14.1011 64.6908 14.0494 64.7975 13.9927C64.9075 13.9361 65.0025 13.8844 65.0825 13.8377C65.1658 13.7911 65.2458 13.7677 65.3225 13.7677C65.4258 13.7677 65.5025 13.8061 65.5525 13.8827L65.9075 14.3327C65.7708 14.4927 65.6175 14.6277 65.4475 14.7377C65.2775 14.8444 65.0992 14.9311 64.9125 14.9977C64.7292 15.0611 64.5408 15.1061 64.3475 15.1327C64.1575 15.1594 63.9725 15.1727 63.7925 15.1727C63.4358 15.1727 63.1042 15.1144 62.7975 14.9977C62.4908 14.8777 62.2242 14.7027 61.9975 14.4727C61.7708 14.2394 61.5925 13.9527 61.4625 13.6127C61.3325 13.2694 61.2675 12.8727 61.2675 12.4227C61.2675 12.0727 61.3242 11.7444 61.4375 11.4377C61.5508 11.1277 61.7125 10.8594 61.9225 10.6327C62.1358 10.4027 62.3942 10.2211 62.6975 10.0877C63.0042 9.95438 63.3492 9.88772 63.7325 9.88772C64.0558 9.88772 64.3542 9.93938 64.6275 10.0427C64.9008 10.1461 65.1358 10.2977 65.3325 10.4977C65.5292 10.6944 65.6825 10.9377 65.7925 11.2277C65.9058 11.5144 65.9625 11.8427 65.9625 12.2127C65.9625 12.3994 65.9425 12.5261 65.9025 12.5927C65.8625 12.6561 65.7858 12.6877 65.6725 12.6877H62.4975ZM68.0443 10.5977C68.1476 10.4944 68.256 10.3994 68.3693 10.3127C68.486 10.2227 68.6076 10.1477 68.7343 10.0877C68.8643 10.0244 69.0026 9.97605 69.1493 9.94272C69.296 9.90605 69.456 9.88772 69.6293 9.88772C69.9093 9.88772 70.1576 9.93605 70.3743 10.0327C70.591 10.1261 70.771 10.2594 70.9143 10.4327C71.061 10.6027 71.171 10.8077 71.2443 11.0477C71.321 11.2844 71.3593 11.5461 71.3593 11.8327V15.0977H70.1243V11.8327C70.1243 11.5194 70.0526 11.2777 69.9093 11.1077C69.766 10.9344 69.5476 10.8477 69.2543 10.8477C69.041 10.8477 68.841 10.8961 68.6543 10.9927C68.4676 11.0894 68.291 11.2211 68.1243 11.3877V15.0977H66.8893V9.96772H67.6443C67.8043 9.96772 67.9093 10.0427 67.9593 10.1927L68.0443 10.5977ZM75.6638 10.9677C75.6305 11.0211 75.5955 11.0594 75.5588 11.0827C75.5222 11.1027 75.4755 11.1127 75.4188 11.1127C75.3588 11.1127 75.2938 11.0961 75.2238 11.0627C75.1572 11.0294 75.0788 10.9927 74.9888 10.9527C74.8988 10.9094 74.7955 10.8711 74.6788 10.8377C74.5655 10.8044 74.4305 10.7877 74.2738 10.7877C74.0305 10.7877 73.8388 10.8394 73.6988 10.9427C73.5622 11.0461 73.4938 11.1811 73.4938 11.3477C73.4938 11.4577 73.5288 11.5511 73.5988 11.6277C73.6722 11.7011 73.7672 11.7661 73.8838 11.8227C74.0038 11.8794 74.1388 11.9311 74.2888 11.9777C74.4388 12.0211 74.5905 12.0694 74.7438 12.1227C74.9005 12.1761 75.0538 12.2377 75.2038 12.3077C75.3538 12.3744 75.4872 12.4611 75.6038 12.5677C75.7238 12.6711 75.8188 12.7961 75.8888 12.9427C75.9622 13.0894 75.9988 13.2661 75.9988 13.4727C75.9988 13.7194 75.9538 13.9477 75.8638 14.1577C75.7772 14.3644 75.6472 14.5444 75.4738 14.6977C75.3005 14.8477 75.0855 14.9661 74.8288 15.0527C74.5755 15.1361 74.2822 15.1777 73.9488 15.1777C73.7722 15.1777 73.5988 15.1611 73.4288 15.1277C73.2622 15.0977 73.1005 15.0544 72.9438 14.9977C72.7905 14.9411 72.6472 14.8744 72.5138 14.7977C72.3838 14.7211 72.2688 14.6377 72.1688 14.5477L72.4538 14.0777C72.4905 14.0211 72.5338 13.9777 72.5838 13.9477C72.6338 13.9177 72.6972 13.9027 72.7738 13.9027C72.8505 13.9027 72.9222 13.9244 72.9888 13.9677C73.0588 14.0111 73.1388 14.0577 73.2288 14.1077C73.3188 14.1577 73.4238 14.2044 73.5438 14.2477C73.6672 14.2911 73.8222 14.3127 74.0088 14.3127C74.1555 14.3127 74.2805 14.2961 74.3838 14.2627C74.4905 14.2261 74.5772 14.1794 74.6438 14.1227C74.7138 14.0661 74.7638 14.0011 74.7938 13.9277C74.8272 13.8511 74.8438 13.7727 74.8438 13.6927C74.8438 13.5727 74.8072 13.4744 74.7338 13.3977C74.6638 13.3211 74.5688 13.2544 74.4488 13.1977C74.3322 13.1411 74.1972 13.0911 74.0438 13.0477C73.8938 13.0011 73.7388 12.9511 73.5788 12.8977C73.4222 12.8444 73.2672 12.7827 73.1138 12.7127C72.9638 12.6394 72.8288 12.5477 72.7088 12.4377C72.5922 12.3277 72.4972 12.1927 72.4238 12.0327C72.3538 11.8727 72.3188 11.6794 72.3188 11.4527C72.3188 11.2427 72.3605 11.0427 72.4438 10.8527C72.5272 10.6627 72.6488 10.4977 72.8088 10.3577C72.9722 10.2144 73.1738 10.1011 73.4138 10.0177C73.6572 9.93105 73.9372 9.88772 74.2538 9.88772C74.6072 9.88772 74.9288 9.94605 75.2188 10.0627C75.5088 10.1794 75.7505 10.3327 75.9438 10.5227L75.6638 10.9677ZM78.2084 9.96772V15.0977H76.9684V9.96772H78.2084ZM78.3784 8.47272C78.3784 8.57938 78.3567 8.67938 78.3134 8.77272C78.27 8.86605 78.2117 8.94772 78.1384 9.01772C78.0684 9.08772 77.985 9.14438 77.8884 9.18772C77.7917 9.22772 77.6884 9.24772 77.5784 9.24772C77.4717 9.24772 77.37 9.22772 77.2734 9.18772C77.18 9.14438 77.0984 9.08772 77.0284 9.01772C76.9584 8.94772 76.9017 8.86605 76.8584 8.77272C76.8184 8.67938 76.7984 8.57938 76.7984 8.47272C76.7984 8.36272 76.8184 8.25938 76.8584 8.16272C76.9017 8.06605 76.9584 7.98272 77.0284 7.91272C77.0984 7.84272 77.18 7.78772 77.2734 7.74772C77.37 7.70438 77.4717 7.68272 77.5784 7.68272C77.6884 7.68272 77.7917 7.70438 77.8884 7.74772C77.985 7.78772 78.0684 7.84272 78.1384 7.91272C78.2117 7.98272 78.27 8.06605 78.3134 8.16272C78.3567 8.25938 78.3784 8.36272 78.3784 8.47272ZM81.7374 9.88772C82.1174 9.88772 82.4624 9.94938 82.7724 10.0727C83.0858 10.1961 83.3524 10.3711 83.5724 10.5977C83.7958 10.8244 83.9674 11.1011 84.0874 11.4277C84.2074 11.7544 84.2674 12.1194 84.2674 12.5227C84.2674 12.9294 84.2074 13.2961 84.0874 13.6227C83.9674 13.9494 83.7958 14.2277 83.5724 14.4577C83.3524 14.6877 83.0858 14.8644 82.7724 14.9877C82.4624 15.1111 82.1174 15.1727 81.7374 15.1727C81.3541 15.1727 81.0058 15.1111 80.6924 14.9877C80.3791 14.8644 80.1108 14.6877 79.8874 14.4577C79.6674 14.2277 79.4958 13.9494 79.3724 13.6227C79.2524 13.2961 79.1924 12.9294 79.1924 12.5227C79.1924 12.1194 79.2524 11.7544 79.3724 11.4277C79.4958 11.1011 79.6674 10.8244 79.8874 10.5977C80.1108 10.3711 80.3791 10.1961 80.6924 10.0727C81.0058 9.94938 81.3541 9.88772 81.7374 9.88772ZM81.7374 14.2227C82.1641 14.2227 82.4791 14.0794 82.6824 13.7927C82.8891 13.5061 82.9924 13.0861 82.9924 12.5327C82.9924 11.9794 82.8891 11.5577 82.6824 11.2677C82.4791 10.9777 82.1641 10.8327 81.7374 10.8327C81.3041 10.8327 80.9824 10.9794 80.7724 11.2727C80.5658 11.5627 80.4624 11.9827 80.4624 12.5327C80.4624 13.0827 80.5658 13.5027 80.7724 13.7927C80.9824 14.0794 81.3041 14.2227 81.7374 14.2227ZM86.3646 10.5977C86.4679 10.4944 86.5763 10.3994 86.6896 10.3127C86.8063 10.2227 86.9279 10.1477 87.0546 10.0877C87.1846 10.0244 87.3229 9.97605 87.4696 9.94272C87.6163 9.90605 87.7763 9.88772 87.9496 9.88772C88.2296 9.88772 88.4779 9.93605 88.6946 10.0327C88.9113 10.1261 89.0913 10.2594 89.2346 10.4327C89.3813 10.6027 89.4913 10.8077 89.5646 11.0477C89.6413 11.2844 89.6796 11.5461 89.6796 11.8327V15.0977H88.4446V11.8327C88.4446 11.5194 88.3729 11.2777 88.2296 11.1077C88.0863 10.9344 87.8679 10.8477 87.5746 10.8477C87.3613 10.8477 87.1613 10.8961 86.9746 10.9927C86.7879 11.0894 86.6113 11.2211 86.4446 11.3877V15.0977H85.2096V9.96772H85.9646C86.1246 9.96772 86.2296 10.0427 86.2796 10.1927L86.3646 10.5977Z" fill="white"/>
<path d="M42.804 23.2822V22.6182H44.308V28.4022H43.572V23.2822H42.804ZM45.3665 23.2822V22.6182H46.8705V28.4022H46.1345V23.2822H45.3665ZM51.681 23.1862L49.457 28.4022H48.721L50.977 23.2582H47.889V22.6342H51.681V23.1862ZM57.973 27.2022L56.701 25.9302L55.429 27.2022L54.949 26.7222L56.221 25.4502L54.973 24.2022L55.437 23.7302L56.693 24.9862L57.949 23.7302L58.429 24.2102L57.173 25.4662L58.437 26.7382L57.973 27.2022ZM62.8304 26.8502C62.8838 27.1542 63.0064 27.3889 63.1984 27.5542C63.3958 27.7196 63.6598 27.8022 63.9904 27.8022C64.4331 27.8022 64.7584 27.6289 64.9664 27.2822C65.1798 26.9356 65.2811 26.3516 65.2704 25.5302C65.1584 25.7702 64.9718 25.9596 64.7104 26.0982C64.4491 26.2316 64.1584 26.2982 63.8384 26.2982C63.4811 26.2982 63.1611 26.2262 62.8784 26.0822C62.6011 25.9329 62.3824 25.7169 62.2224 25.4342C62.0624 25.1516 61.9824 24.8102 61.9824 24.4102C61.9824 23.8396 62.1478 23.3809 62.4784 23.0342C62.8091 22.6822 63.2784 22.5062 63.8864 22.5062C64.6331 22.5062 65.1558 22.7489 65.4544 23.2342C65.7584 23.7196 65.9104 24.4422 65.9104 25.4022C65.9104 26.0742 65.8491 26.6289 65.7264 27.0662C65.6091 27.5036 65.4064 27.8369 65.1184 28.0662C64.8358 28.2956 64.4464 28.4102 63.9504 28.4102C63.4064 28.4102 62.9824 28.2636 62.6784 27.9702C62.3744 27.6769 62.2011 27.3036 62.1584 26.8502H62.8304ZM63.9584 25.6822C64.3158 25.6822 64.6091 25.5729 64.8384 25.3542C65.0678 25.1302 65.1824 24.8289 65.1824 24.4502C65.1824 24.0502 65.0704 23.7276 64.8464 23.4822C64.6224 23.2369 64.3078 23.1142 63.9024 23.1142C63.5291 23.1142 63.2304 23.2316 63.0064 23.4662C62.7878 23.7009 62.6784 24.0102 62.6784 24.3942C62.6784 24.7836 62.7878 25.0956 63.0064 25.3302C63.2251 25.5649 63.5424 25.6822 63.9584 25.6822ZM70.1575 23.9942C70.0402 23.4022 69.6748 23.1062 69.0615 23.1062C68.5868 23.1062 68.2322 23.2902 67.9975 23.6582C67.7628 24.0209 67.6482 24.6209 67.6535 25.4582C67.7762 25.1809 67.9788 24.9649 68.2615 24.8102C68.5495 24.6502 68.8695 24.5702 69.2215 24.5702C69.7708 24.5702 70.2082 24.7409 70.5335 25.0822C70.8642 25.4236 71.0295 25.8956 71.0295 26.4982C71.0295 26.8609 70.9575 27.1862 70.8135 27.4742C70.6748 27.7622 70.4615 27.9916 70.1735 28.1622C69.8908 28.3329 69.5468 28.4182 69.1415 28.4182C68.5922 28.4182 68.1628 28.2956 67.8535 28.0502C67.5442 27.8049 67.3282 27.4662 67.2055 27.0342C67.0828 26.6022 67.0215 26.0689 67.0215 25.4342C67.0215 23.4769 67.7042 22.4982 69.0695 22.4982C69.5922 22.4982 70.0028 22.6396 70.3015 22.9222C70.6002 23.2049 70.7762 23.5622 70.8295 23.9942H70.1575ZM69.0695 25.1862C68.8402 25.1862 68.6242 25.2342 68.4215 25.3302C68.2188 25.4209 68.0535 25.5622 67.9255 25.7542C67.8028 25.9409 67.7415 26.1702 67.7415 26.4422C67.7415 26.8476 67.8588 27.1782 68.0935 27.4342C68.3282 27.6849 68.6642 27.8102 69.1015 27.8102C69.4748 27.8102 69.7708 27.6956 69.9895 27.4662C70.2135 27.2316 70.3255 26.9169 70.3255 26.5222C70.3255 26.1062 70.2188 25.7809 70.0055 25.5462C69.7922 25.3062 69.4802 25.1862 69.0695 25.1862ZM77.4964 27.2022L76.2244 25.9302L74.9524 27.2022L74.4724 26.7222L75.7444 25.4502L74.4964 24.2022L74.9604 23.7302L76.2164 24.9862L77.4724 23.7302L77.9524 24.2102L76.6964 25.4662L77.9604 26.7382L77.4964 27.2022ZM85.1059 23.2502H82.2979V25.0742C82.4205 24.9036 82.6019 24.7649 82.8419 24.6582C83.0819 24.5462 83.3405 24.4902 83.6179 24.4902C84.0605 24.4902 84.4205 24.5836 84.6979 24.7702C84.9752 24.9516 85.1725 25.1889 85.2899 25.4822C85.4125 25.7702 85.4739 26.0769 85.4739 26.4022C85.4739 26.7862 85.4019 27.1302 85.2579 27.4342C85.1139 27.7382 84.8925 27.9782 84.5939 28.1542C84.3005 28.3302 83.9352 28.4182 83.4979 28.4182C82.9379 28.4182 82.4845 28.2742 82.1379 27.9862C81.7912 27.6982 81.5805 27.3142 81.5059 26.8342H82.2179C82.2872 27.1382 82.4339 27.3756 82.6579 27.5462C82.8819 27.7169 83.1645 27.8022 83.5059 27.8022C83.9272 27.8022 84.2445 27.6769 84.4579 27.4262C84.6712 27.1702 84.7779 26.8342 84.7779 26.4182C84.7779 26.0022 84.6712 25.6822 84.4579 25.4582C84.2445 25.2289 83.9299 25.1142 83.5139 25.1142C83.2312 25.1142 82.9832 25.1836 82.7699 25.3222C82.5619 25.4556 82.4099 25.6396 82.3139 25.8742H81.6259V22.6102H85.1059V23.2502ZM86.2493 23.2822V22.6182H87.7533V28.4022H87.0173V23.2822H86.2493ZM96.5286 23.9382C96.87 23.9382 97.174 24.0102 97.4406 24.1542C97.7073 24.2929 97.918 24.5036 98.0726 24.7862C98.2273 25.0689 98.3046 25.4129 98.3046 25.8182V28.4022H97.5846V25.9222C97.5846 25.4849 97.4753 25.1516 97.2566 24.9222C97.0433 24.6876 96.7526 24.5702 96.3846 24.5702C96.006 24.5702 95.7046 24.6929 95.4806 24.9382C95.2566 25.1782 95.1446 25.5276 95.1446 25.9862V28.4022H94.4246V25.9222C94.4246 25.4849 94.3153 25.1516 94.0966 24.9222C93.8833 24.6876 93.5926 24.5702 93.2246 24.5702C92.846 24.5702 92.5446 24.6929 92.3206 24.9382C92.0966 25.1782 91.9846 25.5276 91.9846 25.9862V28.4022H91.2566V24.0182H91.9846V24.6502C92.1286 24.4209 92.3206 24.2449 92.5606 24.1222C92.806 23.9996 93.0753 23.9382 93.3686 23.9382C93.7366 23.9382 94.062 24.0209 94.3446 24.1862C94.6273 24.3516 94.838 24.5942 94.9766 24.9142C95.0993 24.6049 95.302 24.3649 95.5846 24.1942C95.8673 24.0236 96.182 23.9382 96.5286 23.9382ZM104.771 23.9382C105.112 23.9382 105.416 24.0102 105.683 24.1542C105.949 24.2929 106.16 24.5036 106.315 24.7862C106.469 25.0689 106.547 25.4129 106.547 25.8182V28.4022H105.827V25.9222C105.827 25.4849 105.717 25.1516 105.499 24.9222C105.285 24.6876 104.995 24.5702 104.627 24.5702C104.248 24.5702 103.947 24.6929 103.723 24.9382C103.499 25.1782 103.387 25.5276 103.387 25.9862V28.4022H102.667V25.9222C102.667 25.4849 102.557 25.1516 102.339 24.9222C102.125 24.6876 101.835 24.5702 101.467 24.5702C101.088 24.5702 100.787 24.6929 100.563 24.9382C100.339 25.1782 100.227 25.5276 100.227 25.9862V28.4022H99.4988V24.0182H100.227V24.6502C100.371 24.4209 100.563 24.2449 100.803 24.1222C101.048 23.9996 101.317 23.9382 101.611 23.9382C101.979 23.9382 102.304 24.0209 102.587 24.1862C102.869 24.3516 103.08 24.5942 103.219 24.9142C103.341 24.6049 103.544 24.3649 103.827 24.1942C104.109 24.0236 104.424 23.9382 104.771 23.9382Z" fill="white"/>
</svg>
