<svg width="126" height="30" viewBox="0 0 126 30" fill="none" xmlns="http://www.w3.org/2000/svg">
<rect x="6.06787" y="0.21435" width="21.8637" height="21.0063" rx="10.5031" stroke="black" stroke-width="0.4287"/>
<path d="M12.3574 12.1106V8.39517C12.3574 7.51927 12.3574 7.08178 12.6296 6.80963C12.9017 6.53748 13.3392 6.53748 14.2151 6.53748H19.7882C20.6641 6.53748 21.1016 6.53748 21.3738 6.80963C21.6459 7.08178 21.6459 7.51927 21.6459 8.39517V12.1106C21.6459 12.9865 21.6459 13.424 21.3738 13.6961C21.1016 13.9683 20.6641 13.9683 19.7882 13.9683H14.2151C13.3392 13.9683 12.9017 13.9683 12.6296 13.6961C12.3574 13.424 12.3574 12.9865 12.3574 12.1106Z" stroke="black" stroke-width="0.696637" stroke-linecap="round"/>
<path d="M20.2529 7.93497V7.93079M20.2529 9.32592V9.3222M20.2529 10.7173V10.7132" stroke="black" stroke-width="0.696637" stroke-linecap="round" stroke-linejoin="round"/>
<path d="M13.751 11.6462V8.85964C13.751 8.42168 13.751 8.20294 13.8871 8.06686C14.0231 7.93079 14.2419 7.93079 14.6798 7.93079H17.9308C18.3687 7.93079 18.5875 7.93079 18.7236 8.06686C18.8596 8.20294 18.8596 8.42168 18.8596 8.85964V11.6462C18.8596 12.0841 18.8596 12.3029 18.7236 12.439C18.5875 12.575 18.3687 12.575 17.9308 12.575H14.6798C14.2419 12.575 14.0231 12.575 13.8871 12.439C13.751 12.3029 13.751 12.0841 13.751 11.6462Z" stroke="black" stroke-width="0.696637" stroke-linejoin="round"/>
<path d="M13.751 13.9686V14.8975M20.2529 13.9686V14.8975" stroke="black" stroke-width="0.696637" stroke-linecap="round"/>
<path d="M3.57375 24.2576L3.06381 27.15H2.68344L3.06381 24.9932L1.72209 27.15H1.45458L0.869403 25.0016L0.489039 27.15H0.108675L0.622793 24.2576H1.03242L1.68029 26.6484L3.1683 24.2576H3.57375ZM4.37346 24.4875C4.31216 24.4875 4.26061 24.468 4.21881 24.429C4.1798 24.3872 4.16029 24.3356 4.16029 24.2743C4.16029 24.1907 4.19095 24.1197 4.25225 24.0611C4.31355 23.9998 4.38461 23.9692 4.46542 23.9692C4.52951 23.9692 4.58106 23.9887 4.62007 24.0277C4.65909 24.0667 4.67859 24.1183 4.67859 24.1824C4.67859 24.2659 4.64794 24.3384 4.58663 24.3997C4.52533 24.4582 4.45427 24.4875 4.37346 24.4875ZM4.49468 24.8595L4.08924 27.15H3.70887L4.11432 24.8595H4.49468ZM4.79602 26.0006C4.83782 25.7637 4.92141 25.5575 5.04681 25.382C5.17499 25.2036 5.33243 25.0657 5.51913 24.9682C5.70583 24.8706 5.90785 24.8219 6.1252 24.8219C6.40664 24.8219 6.62539 24.8901 6.78143 25.0267C6.94027 25.1632 7.02804 25.3527 7.04476 25.5951H6.63514C6.62121 25.4558 6.56408 25.3457 6.46377 25.2649C6.36624 25.1841 6.23388 25.1437 6.06668 25.1437C5.84933 25.1437 5.65985 25.2189 5.49823 25.3694C5.33939 25.5171 5.23629 25.7275 5.18892 26.0006C5.17499 26.0925 5.16802 26.1692 5.16802 26.2305C5.16802 26.4339 5.22236 26.5913 5.33103 26.7028C5.43971 26.8115 5.58461 26.8658 5.76574 26.8658C5.93293 26.8658 6.07783 26.8268 6.20044 26.7488C6.32583 26.6707 6.42197 26.5593 6.48884 26.4144H6.89847C6.79815 26.6484 6.6435 26.8365 6.43451 26.9787C6.22552 27.118 5.98309 27.1876 5.70722 27.1876C5.4202 27.1876 5.19171 27.1054 5.02173 26.941C4.85454 26.7766 4.77094 26.5523 4.77094 26.2681C4.77094 26.1817 4.7793 26.0925 4.79602 26.0006ZM7.98698 25.2942C8.07894 25.1437 8.19458 25.0267 8.33391 24.9431C8.47324 24.8595 8.63207 24.8177 8.81041 24.8177L8.73935 25.2106H8.63904C8.44119 25.2106 8.27539 25.2635 8.14164 25.3694C8.01067 25.4753 7.92289 25.6536 7.87831 25.9044L7.65678 27.15H7.27641L7.68186 24.8595H8.06222L7.98698 25.2942ZM9.84302 27.1876C9.65075 27.1876 9.48077 27.1486 9.33308 27.0706C9.18818 26.9898 9.07533 26.8783 8.99452 26.7362C8.91371 26.5913 8.8733 26.4241 8.8733 26.2346C8.8733 25.9755 8.93321 25.7386 9.05303 25.5241C9.17286 25.3067 9.33726 25.1354 9.54625 25.01C9.75803 24.8846 9.99349 24.8219 10.2526 24.8219C10.4449 24.8219 10.6149 24.8623 10.7626 24.9431C10.9131 25.0211 11.0287 25.1326 11.1095 25.2775C11.1931 25.4196 11.2349 25.5868 11.2349 25.779C11.2349 26.0382 11.1736 26.275 11.051 26.4896C10.9284 26.7042 10.7612 26.8742 10.5494 26.9996C10.3376 27.1249 10.1022 27.1876 9.84302 27.1876ZM9.889 26.8658C10.0701 26.8658 10.2331 26.817 10.378 26.7195C10.5229 26.6192 10.6358 26.4882 10.7166 26.3266C10.8002 26.1622 10.842 25.9866 10.842 25.7999C10.842 25.5882 10.7807 25.4265 10.6581 25.3151C10.5355 25.2008 10.3822 25.1437 10.1983 25.1437C10.0172 25.1437 9.85556 25.1939 9.71345 25.2942C9.57133 25.3917 9.46126 25.5227 9.38324 25.6871C9.30522 25.8515 9.2662 26.0284 9.2662 26.2179C9.2662 26.4241 9.32472 26.5844 9.44176 26.6986C9.55879 26.8101 9.70787 26.8658 9.889 26.8658ZM14.966 24.8595L13.8458 27.15H13.4529L13.2272 25.3276L12.3494 27.15H11.9565L11.6431 24.8595H12.0318L12.2199 26.7822L13.1227 24.8595H13.5156L13.733 26.7697L14.5898 24.8595H14.966ZM14.9966 25.9964C15.0384 25.7623 15.122 25.5575 15.2474 25.382C15.3755 25.2036 15.5302 25.0657 15.7113 24.9682C15.8952 24.8706 16.0903 24.8219 16.2965 24.8219C16.4971 24.8219 16.6629 24.8651 16.7939 24.9514C16.9249 25.0378 17.0154 25.1465 17.0656 25.2775L17.1408 24.8595H17.5254L17.1199 27.15H16.7354L16.8148 26.7237C16.7145 26.8574 16.5821 26.9689 16.4177 27.0581C16.2533 27.1445 16.0722 27.1876 15.8743 27.1876C15.696 27.1876 15.5386 27.15 15.402 27.0748C15.2655 26.9968 15.1596 26.8867 15.0844 26.7446C15.0091 26.6025 14.9715 26.4381 14.9715 26.2514C14.9715 26.1678 14.9799 26.0828 14.9966 25.9964ZM16.9402 26.0006C16.9513 25.9421 16.9569 25.8794 16.9569 25.8125C16.9569 25.6091 16.8956 25.4488 16.773 25.3318C16.6532 25.212 16.4999 25.1521 16.3132 25.1521C16.1711 25.1521 16.0346 25.1855 15.9036 25.2524C15.7754 25.3193 15.6653 25.4168 15.5734 25.545C15.4814 25.6732 15.4201 25.8236 15.3895 25.9964C15.3783 26.0549 15.3728 26.119 15.3728 26.1887C15.3728 26.3949 15.4327 26.5579 15.5525 26.6777C15.6723 26.7947 15.8256 26.8533 16.0123 26.8533C16.1544 26.8533 16.2895 26.8198 16.4177 26.7529C16.5487 26.6833 16.6601 26.5844 16.7521 26.4562C16.8468 26.3252 16.9095 26.1733 16.9402 26.0006ZM18.6781 26.7906L19.7314 24.8595H20.141L18.8369 27.15H18.3897L17.8965 24.8595H18.3061L18.6781 26.7906ZM21.5059 24.8219C21.6982 24.8219 21.864 24.8595 22.0033 24.9347C22.1454 25.0072 22.2527 25.1103 22.3252 25.244C22.4004 25.375 22.438 25.5255 22.438 25.6954C22.438 25.754 22.4311 25.825 22.4171 25.9086C22.406 25.9811 22.3879 26.0563 22.3628 26.1343H20.532C20.5265 26.1901 20.5237 26.2305 20.5237 26.2555C20.5237 26.4478 20.5808 26.5983 20.695 26.707C20.8121 26.8129 20.9639 26.8658 21.1506 26.8658C21.315 26.8658 21.4586 26.8282 21.5812 26.7529C21.7066 26.6749 21.8013 26.5718 21.8654 26.4436H22.275C22.1747 26.6638 22.02 26.8435 21.8111 26.9828C21.6049 27.1194 21.3652 27.1876 21.0921 27.1876C20.8051 27.1876 20.5738 27.1054 20.3983 26.941C20.2255 26.7738 20.1391 26.5467 20.1391 26.2597C20.1391 26.1789 20.1475 26.0925 20.1642 26.0006C20.206 25.7637 20.291 25.5561 20.4192 25.3778C20.5474 25.1994 20.7048 25.0629 20.8915 24.9682C21.081 24.8706 21.2858 24.8219 21.5059 24.8219ZM22.0326 25.8585C22.0409 25.8027 22.0451 25.7512 22.0451 25.7038C22.0451 25.5255 21.988 25.3875 21.8738 25.29C21.7623 25.1925 21.616 25.1437 21.4349 25.1437C21.2398 25.1437 21.0629 25.2078 20.904 25.336C20.7452 25.4614 20.6379 25.6355 20.5822 25.8585H22.0326ZM24.5869 25.4572L24.5284 25.779H22.8607L22.9192 25.4572H24.5869ZM25.8065 27.1876C25.5669 27.1876 25.3704 27.1305 25.2172 27.0163C25.0639 26.902 24.9873 26.7488 24.9873 26.5565C24.9873 26.5203 24.9887 26.4938 24.9915 26.4771H25.3635C25.3523 26.5969 25.3872 26.6944 25.468 26.7697C25.5516 26.8449 25.6714 26.8825 25.8274 26.8825C25.9835 26.8825 26.1089 26.8533 26.2036 26.7947C26.3011 26.7334 26.3499 26.6484 26.3499 26.5398C26.3499 26.4478 26.3109 26.3754 26.2329 26.3224C26.1549 26.2695 26.035 26.2124 25.8734 26.151C25.7313 26.0981 25.6143 26.0479 25.5223 26.0006C25.4304 25.9532 25.3523 25.8877 25.2882 25.8041C25.2241 25.7177 25.1921 25.6091 25.1921 25.4781C25.1921 25.3499 25.2283 25.2357 25.3008 25.1354C25.376 25.035 25.4791 24.9584 25.6101 24.9055C25.7438 24.8497 25.8957 24.8219 26.0657 24.8219C26.2998 24.8219 26.492 24.8804 26.6425 24.9974C26.793 25.1145 26.8682 25.2677 26.8682 25.4572C26.8682 25.4934 26.8668 25.5213 26.864 25.5408H26.5004L26.5046 25.4906C26.5046 25.3792 26.4614 25.2914 26.375 25.2273C26.2914 25.1604 26.1799 25.127 26.0406 25.127C25.9041 25.127 25.7912 25.1576 25.702 25.2189C25.6157 25.2803 25.5725 25.3625 25.5725 25.4656C25.5725 25.5631 25.6129 25.6397 25.6937 25.6954C25.7745 25.7512 25.8999 25.8125 26.0699 25.8794C26.212 25.9351 26.3262 25.9866 26.4126 26.034C26.499 26.0786 26.5728 26.1413 26.6341 26.2221C26.6954 26.3029 26.7261 26.4046 26.7261 26.5272C26.7261 26.661 26.6857 26.778 26.6049 26.8783C26.5269 26.9787 26.4182 27.0553 26.2789 27.1082C26.1395 27.1612 25.9821 27.1876 25.8065 27.1876ZM27.2421 25.9964C27.2839 25.7623 27.3675 25.5575 27.4929 25.382C27.6211 25.2036 27.7758 25.0657 27.9569 24.9682C28.1408 24.8706 28.3359 24.8219 28.5421 24.8219C28.7427 24.8219 28.9085 24.8651 29.0395 24.9514C29.1704 25.0378 29.261 25.1465 29.3112 25.2775L29.3864 24.8595H29.7709L29.3655 27.15H28.9809L29.0604 26.7237C28.9601 26.8574 28.8277 26.9689 28.6633 27.0581C28.4989 27.1445 28.3178 27.1876 28.1199 27.1876C27.9416 27.1876 27.7841 27.15 27.6476 27.0748C27.511 26.9968 27.4052 26.8867 27.3299 26.7446C27.2547 26.6025 27.2171 26.4381 27.2171 26.2514C27.2171 26.1678 27.2254 26.0828 27.2421 25.9964ZM29.1858 26.0006C29.1969 25.9421 29.2025 25.8794 29.2025 25.8125C29.2025 25.6091 29.1412 25.4488 29.0186 25.3318C28.8987 25.212 28.7455 25.1521 28.5588 25.1521C28.4167 25.1521 28.2801 25.1855 28.1492 25.2524C28.021 25.3193 27.9109 25.4168 27.819 25.545C27.727 25.6732 27.6657 25.8236 27.635 25.9964C27.6239 26.0549 27.6183 26.119 27.6183 26.1887C27.6183 26.3949 27.6782 26.5579 27.7981 26.6777C27.9179 26.7947 28.0711 26.8533 28.2578 26.8533C28.4 26.8533 28.5351 26.8198 28.6633 26.7529C28.7943 26.6833 28.9057 26.5844 28.9977 26.4562C29.0924 26.3252 29.1551 26.1733 29.1858 26.0006ZM31.4252 24.2743C31.2553 24.2743 31.1299 24.3077 31.049 24.3746C30.971 24.4387 30.9195 24.546 30.8944 24.6965L30.8651 24.8595H31.3458L31.2915 25.173H30.8108L30.4597 27.15H30.0793L30.4263 25.173H30.1337L30.188 24.8595H30.4806L30.5098 24.6965C30.5572 24.4401 30.6575 24.2534 30.8108 24.1364C30.9641 24.0166 31.187 23.9566 31.4796 23.9566L31.4252 24.2743ZM32.7841 24.8219C32.9764 24.8219 33.1422 24.8595 33.2815 24.9347C33.4236 25.0072 33.5309 25.1103 33.6033 25.244C33.6786 25.375 33.7162 25.5255 33.7162 25.6954C33.7162 25.754 33.7092 25.825 33.6953 25.9086C33.6842 25.9811 33.666 26.0563 33.641 26.1343H31.8102C31.8046 26.1901 31.8018 26.2305 31.8018 26.2555C31.8018 26.4478 31.859 26.5983 31.9732 26.707C32.0902 26.8129 32.2421 26.8658 32.4288 26.8658C32.5932 26.8658 32.7367 26.8282 32.8593 26.7529C32.9847 26.6749 33.0795 26.5718 33.1436 26.4436H33.5532C33.4529 26.6638 33.2982 26.8435 33.0892 26.9828C32.883 27.1194 32.6434 27.1876 32.3703 27.1876C32.0833 27.1876 31.852 27.1054 31.6764 26.941C31.5037 26.7738 31.4173 26.5467 31.4173 26.2597C31.4173 26.1789 31.4257 26.0925 31.4424 26.0006C31.4842 25.7637 31.5692 25.5561 31.6973 25.3778C31.8255 25.1994 31.983 25.0629 32.1697 24.9682C32.3591 24.8706 32.564 24.8219 32.7841 24.8219ZM33.3108 25.8585C33.3191 25.8027 33.3233 25.7512 33.3233 25.7038C33.3233 25.5255 33.2662 25.3875 33.1519 25.29C33.0405 25.1925 32.8942 25.1437 32.713 25.1437C32.518 25.1437 32.341 25.2078 32.1822 25.336C32.0234 25.4614 31.9161 25.6355 31.8604 25.8585H33.3108Z" fill="black"/>
<rect x="45.9966" y="0.21435" width="21.0063" height="21.0063" rx="10.5031" stroke="black" stroke-width="0.4287"/>
<g clip-path="url(#clip0_893_1171)">
<path d="M55.0717 6.07312L56.5007 7.50212M56.5007 7.50212L57.9297 6.07312M56.5007 7.50212V13.9326M51.8564 12.1464L53.2854 10.7174M53.2854 10.7174L51.8564 9.28837M53.2854 10.7174H59.7159M57.9297 15.3616L56.5007 13.9326M56.5007 13.9326L55.0717 15.3616M61.1449 9.28837L59.7159 10.7174M59.7159 10.7174L61.1449 12.1464M53.9999 8.21662L55.0717 9.28837M55.0717 12.1464L53.9999 13.2181M59.0014 8.21662L57.9297 9.28837M57.9297 12.1464L59.0014 13.2181" stroke="black" stroke-width="0.597117" stroke-linecap="round" stroke-linejoin="round"/>
</g>
<path d="M45.2696 24.2364L45.2153 24.5332H43.953L43.7774 25.5322H44.8057L44.7513 25.829H43.7231L43.489 27.1498H43.1087L43.627 24.2364H45.2696ZM45.9255 25.2939C46.0174 25.1435 46.1331 25.0264 46.2724 24.9428C46.4117 24.8592 46.5706 24.8174 46.7489 24.8174L46.6779 25.2103H46.5775C46.3797 25.2103 46.2139 25.2633 46.0801 25.3692C45.9492 25.4751 45.8614 25.6534 45.8168 25.9042L45.5953 27.1498H45.2149L45.6204 24.8592H46.0007L45.9255 25.2939ZM48.1744 24.8216C48.3667 24.8216 48.5325 24.8592 48.6718 24.9345C48.8139 25.0069 48.9212 25.11 48.9937 25.2438C49.0689 25.3747 49.1065 25.5252 49.1065 25.6952C49.1065 25.7537 49.0996 25.8248 49.0856 25.9084C49.0745 25.9808 49.0564 26.0561 49.0313 26.1341H47.2005C47.195 26.1898 47.1922 26.2302 47.1922 26.2553C47.1922 26.4476 47.2493 26.598 47.3635 26.7067C47.4806 26.8126 47.6324 26.8656 47.8191 26.8656C47.9835 26.8656 48.1271 26.8279 48.2497 26.7527C48.3751 26.6747 48.4698 26.5716 48.5339 26.4434H48.9435C48.8432 26.6635 48.6885 26.8433 48.4795 26.9826C48.2733 27.1191 48.0337 27.1874 47.7606 27.1874C47.4736 27.1874 47.2423 27.1052 47.0668 26.9408C46.894 26.7736 46.8076 26.5465 46.8076 26.2595C46.8076 26.1787 46.816 26.0923 46.8327 26.0003C46.8745 25.7635 46.9595 25.5559 47.0877 25.3775C47.2158 25.1992 47.3733 25.0627 47.56 24.9679C47.7495 24.8704 47.9543 24.8216 48.1744 24.8216ZM48.7011 25.8582C48.7094 25.8025 48.7136 25.7509 48.7136 25.7036C48.7136 25.5252 48.6565 25.3873 48.5422 25.2898C48.4308 25.1922 48.2845 25.1435 48.1034 25.1435C47.9083 25.1435 47.7314 25.2076 47.5725 25.3357C47.4137 25.4611 47.3064 25.6353 47.2507 25.8582H48.7011ZM50.7664 24.8216C50.9587 24.8216 51.1245 24.8592 51.2638 24.9345C51.4059 25.0069 51.5132 25.11 51.5856 25.2438C51.6609 25.3747 51.6985 25.5252 51.6985 25.6952C51.6985 25.7537 51.6915 25.8248 51.6776 25.9084C51.6665 25.9808 51.6483 26.0561 51.6233 26.1341H49.7925C49.7869 26.1898 49.7841 26.2302 49.7841 26.2553C49.7841 26.4476 49.8413 26.598 49.9555 26.7067C50.0726 26.8126 50.2244 26.8656 50.4111 26.8656C50.5755 26.8656 50.719 26.8279 50.8416 26.7527C50.967 26.6747 51.0618 26.5716 51.1259 26.4434H51.5355C51.4352 26.6635 51.2805 26.8433 51.0715 26.9826C50.8653 27.1191 50.6257 27.1874 50.3526 27.1874C50.0656 27.1874 49.8343 27.1052 49.6587 26.9408C49.486 26.7736 49.3996 26.5465 49.3996 26.2595C49.3996 26.1787 49.408 26.0923 49.4247 26.0003C49.4665 25.7635 49.5515 25.5559 49.6796 25.3775C49.8078 25.1992 49.9653 25.0627 50.152 24.9679C50.3415 24.8704 50.5463 24.8216 50.7664 24.8216ZM51.2931 25.8582C51.3014 25.8025 51.3056 25.7509 51.3056 25.7036C51.3056 25.5252 51.2485 25.3873 51.1342 25.2898C51.0228 25.1922 50.8765 25.1435 50.6953 25.1435C50.5003 25.1435 50.3233 25.2076 50.1645 25.3357C50.0057 25.4611 49.8984 25.6353 49.8427 25.8582H51.2931ZM52.3009 26.8363H53.4253L53.3667 27.1498H51.8077L51.862 26.8363L53.2706 25.1685H52.1671L52.2215 24.8592H53.7596L53.7053 25.1685L52.3009 26.8363ZM55.2605 24.8216C55.4528 24.8216 55.6186 24.8592 55.7579 24.9345C55.9 25.0069 56.0073 25.11 56.0798 25.2438C56.155 25.3747 56.1926 25.5252 56.1926 25.6952C56.1926 25.7537 56.1857 25.8248 56.1717 25.9084C56.1606 25.9808 56.1425 26.0561 56.1174 26.1341H54.2866C54.2811 26.1898 54.2783 26.2302 54.2783 26.2553C54.2783 26.4476 54.3354 26.598 54.4496 26.7067C54.5667 26.8126 54.7185 26.8656 54.9052 26.8656C55.0696 26.8656 55.2132 26.8279 55.3358 26.7527C55.4612 26.6747 55.5559 26.5716 55.62 26.4434H56.0296C55.9293 26.6635 55.7746 26.8433 55.5657 26.9826C55.3594 27.1191 55.1198 27.1874 54.8467 27.1874C54.5597 27.1874 54.3284 27.1052 54.1529 26.9408C53.9801 26.7736 53.8937 26.5465 53.8937 26.2595C53.8937 26.1787 53.9021 26.0923 53.9188 26.0003C53.9606 25.7635 54.0456 25.5559 54.1738 25.3775C54.302 25.1992 54.4594 25.0627 54.6461 24.9679C54.8356 24.8704 55.0404 24.8216 55.2605 24.8216ZM55.7872 25.8582C55.7955 25.8025 55.7997 25.7509 55.7997 25.7036C55.7997 25.5252 55.7426 25.3873 55.6283 25.2898C55.5169 25.1922 55.3706 25.1435 55.1895 25.1435C54.9944 25.1435 54.8175 25.2076 54.6586 25.3357C54.4998 25.4611 54.3925 25.6353 54.3368 25.8582H55.7872ZM57.1628 25.2939C57.2548 25.1435 57.3704 25.0264 57.5098 24.9428C57.6491 24.8592 57.8079 24.8174 57.9863 24.8174L57.9152 25.2103H57.8149C57.617 25.2103 57.4512 25.2633 57.3175 25.3692C57.1865 25.4751 57.0987 25.6534 57.0542 25.9042L56.8326 27.1498H56.4523L56.8577 24.8592H57.2381L57.1628 25.2939ZM59.9008 25.457L59.8423 25.7788H58.1745L58.2331 25.457H59.9008ZM61.1204 27.1874C60.8808 27.1874 60.6843 27.1303 60.531 27.016C60.3778 26.9018 60.3012 26.7485 60.3012 26.5562C60.3012 26.52 60.3026 26.4935 60.3053 26.4768H60.6773C60.6662 26.5967 60.701 26.6942 60.7818 26.7694C60.8654 26.8447 60.9853 26.8823 61.1413 26.8823C61.2973 26.8823 61.4227 26.853 61.5175 26.7945C61.615 26.7332 61.6638 26.6482 61.6638 26.5395C61.6638 26.4476 61.6248 26.3751 61.5467 26.3222C61.4687 26.2692 61.3489 26.2121 61.1873 26.1508C61.0452 26.0979 60.9281 26.0477 60.8362 26.0003C60.7442 25.953 60.6662 25.8875 60.6021 25.8039C60.538 25.7175 60.506 25.6088 60.506 25.4779C60.506 25.3497 60.5422 25.2354 60.6146 25.1351C60.6899 25.0348 60.793 24.9582 60.924 24.9052C61.0577 24.8495 61.2096 24.8216 61.3796 24.8216C61.6136 24.8216 61.8059 24.8801 61.9564 24.9972C62.1068 25.1142 62.1821 25.2675 62.1821 25.457C62.1821 25.4932 62.1807 25.521 62.1779 25.5405H61.8143L61.8184 25.4904C61.8184 25.3789 61.7752 25.2912 61.6889 25.2271C61.6053 25.1602 61.4938 25.1267 61.3545 25.1267C61.2179 25.1267 61.1051 25.1574 61.0159 25.2187C60.9295 25.28 60.8863 25.3622 60.8863 25.4653C60.8863 25.5628 60.9267 25.6395 61.0075 25.6952C61.0884 25.7509 61.2138 25.8122 61.3837 25.8791C61.5258 25.9348 61.6401 25.9864 61.7265 26.0338C61.8129 26.0784 61.8867 26.1411 61.948 26.2219C62.0093 26.3027 62.04 26.4044 62.04 26.527C62.04 26.6607 61.9996 26.7778 61.9187 26.8781C61.8407 26.9784 61.7321 27.055 61.5927 27.108C61.4534 27.1609 61.296 27.1874 61.1204 27.1874ZM62.556 25.9961C62.5978 25.7621 62.6814 25.5573 62.8068 25.3817C62.935 25.2034 63.0896 25.0654 63.2708 24.9679C63.4547 24.8704 63.6497 24.8216 63.8559 24.8216C64.0566 24.8216 64.2224 24.8648 64.3533 24.9512C64.4843 25.0376 64.5749 25.1463 64.625 25.2772L64.7003 24.8592H65.0848L64.6794 27.1498H64.2948L64.3742 26.7234C64.2739 26.8572 64.1416 26.9687 63.9771 27.0578C63.8127 27.1442 63.6316 27.1874 63.4338 27.1874C63.2554 27.1874 63.098 27.1498 62.9615 27.0745C62.8249 26.9965 62.719 26.8865 62.6438 26.7443C62.5685 26.6022 62.5309 26.4378 62.5309 26.2511C62.5309 26.1675 62.5393 26.0825 62.556 25.9961ZM64.4996 26.0003C64.5108 25.9418 64.5163 25.8791 64.5163 25.8122C64.5163 25.6088 64.455 25.4486 64.3324 25.3316C64.2126 25.2117 64.0594 25.1518 63.8727 25.1518C63.7305 25.1518 63.594 25.1853 63.463 25.2521C63.3348 25.319 63.2248 25.4165 63.1328 25.5447C63.0409 25.6729 62.9796 25.8234 62.9489 25.9961C62.9378 26.0547 62.9322 26.1188 62.9322 26.1884C62.9322 26.3946 62.9921 26.5576 63.1119 26.6775C63.2317 26.7945 63.385 26.853 63.5717 26.853C63.7138 26.853 63.849 26.8196 63.9771 26.7527C64.1081 26.683 64.2196 26.5841 64.3115 26.4559C64.4063 26.325 64.469 26.1731 64.4996 26.0003ZM66.7391 24.2741C66.5691 24.2741 66.4437 24.3075 66.3629 24.3744C66.2849 24.4385 66.2333 24.5458 66.2083 24.6962L66.179 24.8592H66.6597L66.6053 25.1727H66.1247L65.7736 27.1498H65.3932L65.7401 25.1727H65.4475L65.5019 24.8592H65.7945L65.8237 24.6962C65.8711 24.4399 65.9714 24.2532 66.1247 24.1361C66.2779 24.0163 66.5008 23.9564 66.7934 23.9564L66.7391 24.2741ZM68.098 24.8216C68.2902 24.8216 68.456 24.8592 68.5954 24.9345C68.7375 25.0069 68.8448 25.11 68.9172 25.2438C68.9924 25.3747 69.0301 25.5252 69.0301 25.6952C69.0301 25.7537 69.0231 25.8248 69.0092 25.9084C68.998 25.9808 68.9799 26.0561 68.9548 26.1341H67.1241C67.1185 26.1898 67.1157 26.2302 67.1157 26.2553C67.1157 26.4476 67.1728 26.598 67.2871 26.7067C67.4041 26.8126 67.556 26.8656 67.7427 26.8656C67.9071 26.8656 68.0506 26.8279 68.1732 26.7527C68.2986 26.6747 68.3933 26.5716 68.4574 26.4434H68.867C68.7667 26.6635 68.6121 26.8433 68.4031 26.9826C68.1969 27.1191 67.9572 27.1874 67.6842 27.1874C67.3971 27.1874 67.1659 27.1052 66.9903 26.9408C66.8175 26.7736 66.7312 26.5465 66.7312 26.2595C66.7312 26.1787 66.7395 26.0923 66.7562 26.0003C66.798 25.7635 66.883 25.5559 67.0112 25.3775C67.1394 25.1992 67.2968 25.0627 67.4835 24.9679C67.673 24.8704 67.8778 24.8216 68.098 24.8216ZM68.6246 25.8582C68.633 25.8025 68.6372 25.7509 68.6372 25.7036C68.6372 25.5252 68.58 25.3873 68.4658 25.2898C68.3543 25.1922 68.208 25.1435 68.0269 25.1435C67.8318 25.1435 67.6549 25.2076 67.4961 25.3357C67.3372 25.4611 67.23 25.6353 67.1742 25.8582H68.6246Z" fill="black"/>
<rect x="91.647" y="0.21435" width="21.0063" height="21.0063" rx="10.5031" stroke="black" stroke-width="0.4287"/>
<g clip-path="url(#clip1_893_1171)">
<path d="M105.52 12.0703C105.103 12.3241 104.623 12.4576 104.134 12.456C103.725 12.4528 103.32 12.3691 102.943 12.2096C102.653 12.6199 102.497 13.1105 102.498 13.6133V14.8973C102.498 14.9451 102.489 14.9923 102.47 15.0361C102.451 15.08 102.423 15.1195 102.388 15.1521C102.353 15.1848 102.312 15.21 102.267 15.226C102.222 15.2421 102.175 15.2488 102.127 15.2456C102.037 15.2378 101.954 15.1965 101.894 15.1299C101.833 15.0632 101.801 14.9763 101.802 14.8864V14.3448L100.12 12.6633C99.8701 12.7565 99.6058 12.8053 99.339 12.8074C98.9717 12.8083 98.6113 12.7078 98.2975 12.517C97.3488 11.9405 96.8381 10.6139 96.9369 8.96675C96.9419 8.88153 96.978 8.80111 97.0383 8.74075C97.0987 8.6804 97.1791 8.6443 97.2643 8.63933C98.9114 8.54223 100.238 9.05121 100.813 9.99994C101.039 10.3718 101.137 10.8071 101.094 11.24C101.091 11.2735 101.079 11.3055 101.058 11.3322C101.038 11.3589 101.01 11.379 100.978 11.3902C100.946 11.4014 100.912 11.4031 100.879 11.3953C100.847 11.3874 100.817 11.3702 100.794 11.3458L99.9577 10.4706C99.8919 10.408 99.8042 10.3737 99.7133 10.3748C99.6225 10.376 99.5357 10.4126 99.4715 10.4768C99.4073 10.5411 99.3707 10.6278 99.3695 10.7187C99.3683 10.8095 99.4027 10.8972 99.4653 10.963L101.811 13.3686C101.814 13.3347 101.817 13.3007 101.82 13.2672C101.897 12.6214 102.181 12.0181 102.632 11.5491L104.835 9.22145C104.9 9.15615 104.937 9.06756 104.937 8.97517C104.937 8.88278 104.9 8.79416 104.835 8.7288C104.77 8.66344 104.681 8.6267 104.589 8.62666C104.496 8.62662 104.408 8.66328 104.342 8.72858L102.209 10.9848C102.187 11.0074 102.16 11.0239 102.13 11.0326C102.101 11.0412 102.069 11.0417 102.039 11.0339C102.009 11.0262 101.981 11.0106 101.959 10.9886C101.937 10.9666 101.921 10.9392 101.914 10.9091C101.707 10.148 101.798 9.39039 102.192 8.7399C102.97 7.45635 104.779 6.76929 107.033 6.90165C107.118 6.90663 107.199 6.94272 107.259 7.00308C107.319 7.06344 107.355 7.14386 107.36 7.22907C107.491 9.48313 106.804 11.2926 105.52 12.0703Z" fill="black"/>
</g>
<path d="M81.9191 24.2364L81.8647 24.5332H80.6024L80.4269 25.5322H81.4551L81.4008 25.829H80.3725L80.1385 27.1498H79.7581L80.2764 24.2364H81.9191ZM82.8717 27.1874C82.6794 27.1874 82.5094 27.1484 82.3617 27.0704C82.2168 26.9896 82.104 26.8781 82.0232 26.736C81.9424 26.5911 81.9019 26.4239 81.9019 26.2344C81.9019 25.9753 81.9619 25.7384 82.0817 25.5238C82.2015 25.3065 82.3659 25.1351 82.5749 25.0097C82.7867 24.8843 83.0221 24.8216 83.2813 24.8216C83.4736 24.8216 83.6435 24.862 83.7912 24.9428C83.9417 25.0209 84.0573 25.1323 84.1381 25.2772C84.2217 25.4193 84.2635 25.5865 84.2635 25.7788C84.2635 26.0379 84.2022 26.2748 84.0796 26.4894C83.957 26.7039 83.7898 26.8739 83.5781 26.9993C83.3663 27.1247 83.1308 27.1874 82.8717 27.1874ZM82.9176 26.8656C83.0988 26.8656 83.2618 26.8168 83.4067 26.7193C83.5516 26.6189 83.6644 26.488 83.7452 26.3264C83.8288 26.1619 83.8706 25.9864 83.8706 25.7997C83.8706 25.5879 83.8093 25.4263 83.6867 25.3148C83.5641 25.2006 83.4109 25.1435 83.2269 25.1435C83.0458 25.1435 82.8842 25.1936 82.7421 25.2939C82.6 25.3915 82.4899 25.5224 82.4119 25.6868C82.3339 25.8512 82.2948 26.0282 82.2948 26.2177C82.2948 26.4239 82.3534 26.5841 82.4704 26.6984C82.5874 26.8098 82.7365 26.8656 82.9176 26.8656ZM85.5453 27.1874C85.353 27.1874 85.183 27.1484 85.0353 27.0704C84.8904 26.9896 84.7776 26.8781 84.6968 26.736C84.616 26.5911 84.5756 26.4239 84.5756 26.2344C84.5756 25.9753 84.6355 25.7384 84.7553 25.5238C84.8751 25.3065 85.0395 25.1351 85.2485 25.0097C85.4603 24.8843 85.6958 24.8216 85.9549 24.8216C86.1472 24.8216 86.3172 24.862 86.4648 24.9428C86.6153 25.0209 86.731 25.1323 86.8118 25.2772C86.8954 25.4193 86.9372 25.5865 86.9372 25.7788C86.9372 26.0379 86.8759 26.2748 86.7532 26.4894C86.6306 26.7039 86.4634 26.8739 86.2517 26.9993C86.0399 27.1247 85.8044 27.1874 85.5453 27.1874ZM85.5913 26.8656C85.7724 26.8656 85.9354 26.8168 86.0803 26.7193C86.2252 26.6189 86.3381 26.488 86.4189 26.3264C86.5025 26.1619 86.5443 25.9864 86.5443 25.7997C86.5443 25.5879 86.483 25.4263 86.3603 25.3148C86.2377 25.2006 86.0845 25.1435 85.9006 25.1435C85.7194 25.1435 85.5578 25.1936 85.4157 25.2939C85.2736 25.3915 85.1635 25.5224 85.0855 25.6868C85.0075 25.8512 84.9685 26.0282 84.9685 26.2177C84.9685 26.4239 85.027 26.5841 85.144 26.6984C85.2611 26.8098 85.4101 26.8656 85.5913 26.8656ZM87.2701 25.9961C87.3119 25.7621 87.3955 25.5573 87.5209 25.3817C87.649 25.2034 87.8051 25.0654 87.989 24.9679C88.1729 24.8704 88.368 24.8216 88.5742 24.8216C88.7497 24.8216 88.9072 24.8634 89.0465 24.947C89.1858 25.0278 89.2847 25.1351 89.3433 25.2689L89.5564 24.0567H89.941L89.3934 27.1498H89.0089L89.0883 26.7193C88.9908 26.8558 88.8598 26.9687 88.6954 27.0578C88.531 27.1442 88.3499 27.1874 88.152 27.1874C87.9737 27.1874 87.8162 27.1498 87.6797 27.0745C87.5432 26.9965 87.4359 26.8865 87.3579 26.7443C87.2826 26.6022 87.245 26.4378 87.245 26.2511C87.245 26.1675 87.2534 26.0825 87.2701 25.9961ZM89.2137 26.0003C89.2248 25.9418 89.2304 25.8791 89.2304 25.8122C89.2304 25.6088 89.1691 25.4486 89.0465 25.3316C88.9267 25.2117 88.7734 25.1518 88.5867 25.1518C88.4446 25.1518 88.3081 25.1853 88.1771 25.2521C88.0489 25.319 87.9388 25.4165 87.8469 25.5447C87.7549 25.6729 87.6936 25.8234 87.663 25.9961C87.6518 26.0547 87.6463 26.1188 87.6463 26.1884C87.6463 26.3946 87.7062 26.5576 87.826 26.6775C87.9458 26.7945 88.0991 26.853 88.2858 26.853C88.4279 26.853 88.563 26.8196 88.6912 26.7527C88.8222 26.683 88.9336 26.5841 89.0256 26.4559C89.1203 26.325 89.183 26.1731 89.2137 26.0003ZM91.9255 25.457L91.867 25.7788H90.1992L90.2577 25.457H91.9255ZM93.6968 24.8216C93.8947 24.8216 94.0605 24.8648 94.1942 24.9512C94.328 25.0376 94.4185 25.1463 94.4659 25.2772L94.5411 24.8592H94.9257L94.5119 27.1999C94.4757 27.4089 94.3976 27.5942 94.2778 27.7559C94.1608 27.9203 94.0117 28.0484 93.8306 28.1404C93.6494 28.2324 93.4488 28.2783 93.2287 28.2783C92.9277 28.2783 92.6895 28.2059 92.5139 28.061C92.3384 27.9189 92.2534 27.7266 92.259 27.4842H92.6393C92.656 27.6235 92.7215 27.735 92.8358 27.8186C92.9528 27.9049 93.1033 27.9481 93.2872 27.9481C93.4962 27.9481 93.6787 27.8826 93.8347 27.7517C93.9908 27.6207 94.0897 27.4368 94.1315 27.1999L94.2151 26.7193C94.1148 26.853 93.9824 26.9645 93.818 27.0536C93.6564 27.1428 93.4767 27.1874 93.2788 27.1874C93.1005 27.1874 92.9431 27.1498 92.8065 27.0745C92.67 26.9965 92.5627 26.8865 92.4847 26.7443C92.4094 26.6022 92.3718 26.4378 92.3718 26.2511C92.3718 26.1675 92.3802 26.0825 92.3969 25.9961C92.4387 25.7621 92.5223 25.5573 92.6477 25.3817C92.7759 25.2034 92.9305 25.0654 93.1116 24.9679C93.2955 24.8704 93.4906 24.8216 93.6968 24.8216ZM94.3405 26.0003C94.3516 25.9418 94.3572 25.8791 94.3572 25.8122C94.3572 25.6088 94.2959 25.4486 94.1733 25.3316C94.0535 25.2117 93.9002 25.1518 93.7135 25.1518C93.5714 25.1518 93.4349 25.1853 93.3039 25.2521C93.1757 25.319 93.0657 25.4165 92.9737 25.5447C92.8817 25.6729 92.8204 25.8234 92.7898 25.9961C92.7786 26.0547 92.7731 26.1188 92.7731 26.1884C92.7731 26.3946 92.833 26.5576 92.9528 26.6775C93.0726 26.7945 93.2259 26.853 93.4126 26.853C93.5547 26.853 93.6898 26.8196 93.818 26.7527C93.949 26.683 94.0605 26.5841 94.1524 26.4559C94.2472 26.325 94.3099 26.1731 94.3405 26.0003ZM95.8736 25.2939C95.9655 25.1435 96.0812 25.0264 96.2205 24.9428C96.3598 24.8592 96.5187 24.8174 96.697 24.8174L96.626 25.2103H96.5256C96.3278 25.2103 96.162 25.2633 96.0282 25.3692C95.8973 25.4751 95.8095 25.6534 95.7649 25.9042L95.5434 27.1498H95.163L95.5685 24.8592H95.9488L95.8736 25.2939ZM96.7808 25.9961C96.8226 25.7621 96.9062 25.5573 97.0316 25.3817C97.1598 25.2034 97.3144 25.0654 97.4955 24.9679C97.6795 24.8704 97.8745 24.8216 98.0807 24.8216C98.2814 24.8216 98.4472 24.8648 98.5781 24.9512C98.7091 25.0376 98.7997 25.1463 98.8498 25.2772L98.925 24.8592H99.3096L98.9041 27.1498H98.5196L98.599 26.7234C98.4987 26.8572 98.3663 26.9687 98.2019 27.0578C98.0375 27.1442 97.8564 27.1874 97.6586 27.1874C97.4802 27.1874 97.3228 27.1498 97.1862 27.0745C97.0497 26.9965 96.9438 26.8865 96.8686 26.7443C96.7933 26.6022 96.7557 26.4378 96.7557 26.2511C96.7557 26.1675 96.7641 26.0825 96.7808 25.9961ZM98.7244 26.0003C98.7356 25.9418 98.7411 25.8791 98.7411 25.8122C98.7411 25.6088 98.6798 25.4486 98.5572 25.3316C98.4374 25.2117 98.2841 25.1518 98.0974 25.1518C97.9553 25.1518 97.8188 25.1853 97.6878 25.2521C97.5596 25.319 97.4496 25.4165 97.3576 25.5447C97.2657 25.6729 97.2044 25.8234 97.1737 25.9961C97.1626 26.0547 97.157 26.1188 97.157 26.1884C97.157 26.3946 97.2169 26.5576 97.3367 26.6775C97.4565 26.7945 97.6098 26.853 97.7965 26.853C97.9386 26.853 98.0738 26.8196 98.2019 26.7527C98.3329 26.683 98.4444 26.5841 98.5363 26.4559C98.6311 26.325 98.6938 26.1731 98.7244 26.0003ZM99.6054 25.9961C99.6472 25.7621 99.7308 25.5573 99.8562 25.3817C99.9844 25.2034 100.14 25.0654 100.324 24.9679C100.508 24.8704 100.703 24.8216 100.91 24.8216C101.085 24.8216 101.243 24.8634 101.382 24.947C101.521 25.0278 101.62 25.1351 101.679 25.2689L101.892 24.0567H102.276L101.729 27.1498H101.344L101.424 26.7193C101.326 26.8558 101.195 26.9687 101.031 27.0578C100.866 27.1442 100.685 27.1874 100.487 27.1874C100.309 27.1874 100.152 27.1498 100.015 27.0745C99.8785 26.9965 99.7712 26.8865 99.6932 26.7443C99.618 26.6022 99.5804 26.4378 99.5804 26.2511C99.5804 26.1675 99.5887 26.0825 99.6054 25.9961ZM101.549 26.0003C101.56 25.9418 101.566 25.8791 101.566 25.8122C101.566 25.6088 101.504 25.4486 101.382 25.3316C101.262 25.2117 101.109 25.1518 100.922 25.1518C100.78 25.1518 100.643 25.1853 100.512 25.2521C100.384 25.319 100.274 25.4165 100.182 25.5447C100.09 25.6729 100.029 25.8234 99.9983 25.9961C99.9872 26.0547 99.9816 26.1188 99.9816 26.1884C99.9816 26.3946 100.042 26.5576 100.161 26.6775C100.281 26.7945 100.434 26.853 100.621 26.853C100.763 26.853 100.898 26.8196 101.027 26.7527C101.158 26.683 101.269 26.5841 101.361 26.4559C101.456 26.325 101.518 26.1731 101.549 26.0003ZM103.772 24.8216C103.964 24.8216 104.13 24.8592 104.269 24.9345C104.411 25.0069 104.519 25.11 104.591 25.2438C104.666 25.3747 104.704 25.5252 104.704 25.6952C104.704 25.7537 104.697 25.8248 104.683 25.9084C104.672 25.9808 104.654 26.0561 104.629 26.1341H102.798C102.792 26.1898 102.79 26.2302 102.79 26.2553C102.79 26.4476 102.847 26.598 102.961 26.7067C103.078 26.8126 103.23 26.8656 103.417 26.8656C103.581 26.8656 103.724 26.8279 103.847 26.7527C103.972 26.6747 104.067 26.5716 104.131 26.4434H104.541C104.441 26.6635 104.286 26.8433 104.077 26.9826C103.871 27.1191 103.631 27.1874 103.358 27.1874C103.071 27.1874 102.84 27.1052 102.664 26.9408C102.491 26.7736 102.405 26.5465 102.405 26.2595C102.405 26.1787 102.413 26.0923 102.43 26.0003C102.472 25.7635 102.557 25.5559 102.685 25.3775C102.813 25.1992 102.971 25.0627 103.157 24.9679C103.347 24.8704 103.552 24.8216 103.772 24.8216ZM104.298 25.8582C104.307 25.8025 104.311 25.7509 104.311 25.7036C104.311 25.5252 104.254 25.3873 104.14 25.2898C104.028 25.1922 103.882 25.1435 103.701 25.1435C103.506 25.1435 103.329 25.2076 103.17 25.3357C103.011 25.4611 102.904 25.6353 102.848 25.8582H104.298ZM109.377 24.8174C109.611 24.8174 109.798 24.8815 109.937 25.0097C110.079 25.1351 110.15 25.319 110.15 25.5614C110.15 25.6506 110.143 25.73 110.129 25.7997L109.891 27.1498H109.515L109.745 25.854C109.756 25.7955 109.761 25.7328 109.761 25.6659C109.761 25.496 109.715 25.3678 109.623 25.2814C109.534 25.1922 109.407 25.1476 109.243 25.1476C109.054 25.1476 108.891 25.2062 108.754 25.3232C108.62 25.4374 108.528 25.6032 108.478 25.8206L108.24 27.1498H107.864L108.094 25.854C108.105 25.7899 108.11 25.7259 108.11 25.6618C108.11 25.4946 108.064 25.3678 107.972 25.2814C107.883 25.1922 107.756 25.1476 107.592 25.1476C107.394 25.1476 107.226 25.2117 107.086 25.3399C106.947 25.4653 106.856 25.6478 106.815 25.8875V25.8791L106.589 27.1498H106.209L106.614 24.8592H106.994L106.936 25.1894C107.031 25.0696 107.148 24.9777 107.287 24.9136C107.426 24.8495 107.573 24.8174 107.726 24.8174C107.918 24.8174 108.08 24.8606 108.211 24.947C108.344 25.0334 108.432 25.1602 108.474 25.3274C108.569 25.1658 108.697 25.0404 108.859 24.9512C109.023 24.862 109.196 24.8174 109.377 24.8174ZM110.573 25.9961C110.615 25.7621 110.699 25.5573 110.824 25.3817C110.952 25.2034 111.107 25.0654 111.288 24.9679C111.472 24.8704 111.667 24.8216 111.873 24.8216C112.074 24.8216 112.24 24.8648 112.371 24.9512C112.502 25.0376 112.592 25.1463 112.642 25.2772L112.718 24.8592H113.102L112.697 27.1498H112.312L112.392 26.7234C112.291 26.8572 112.159 26.9687 111.995 27.0578C111.83 27.1442 111.649 27.1874 111.451 27.1874C111.273 27.1874 111.115 27.1498 110.979 27.0745C110.842 26.9965 110.736 26.8865 110.661 26.7443C110.586 26.6022 110.548 26.4378 110.548 26.2511C110.548 26.1675 110.557 26.0825 110.573 25.9961ZM112.517 26.0003C112.528 25.9418 112.534 25.8791 112.534 25.8122C112.534 25.6088 112.472 25.4486 112.35 25.3316C112.23 25.2117 112.077 25.1518 111.89 25.1518C111.748 25.1518 111.611 25.1853 111.48 25.2521C111.352 25.319 111.242 25.4165 111.15 25.5447C111.058 25.6729 110.997 25.8234 110.966 25.9961C110.955 26.0547 110.95 26.1188 110.95 26.1884C110.95 26.3946 111.009 26.5576 111.129 26.6775C111.249 26.7945 111.402 26.853 111.589 26.853C111.731 26.853 111.866 26.8196 111.995 26.7527C112.125 26.683 112.237 26.5841 112.329 26.4559C112.424 26.325 112.486 26.1731 112.517 26.0003ZM113.916 26.5228C113.908 26.5646 113.904 26.6008 113.904 26.6315C113.904 26.7011 113.925 26.7513 113.966 26.782C114.011 26.8126 114.082 26.8279 114.18 26.8279H114.46L114.401 27.1498H114.058C113.877 27.1498 113.741 27.1149 113.649 27.0453C113.56 26.9756 113.515 26.8614 113.515 26.7025C113.515 26.6412 113.521 26.5813 113.532 26.5228L113.77 25.1727H113.477L113.532 24.8592H113.829L113.929 24.2824H114.313L114.213 24.8592H114.807L114.752 25.1727H114.155L113.916 26.5228ZM116.262 24.8216C116.455 24.8216 116.62 24.8592 116.76 24.9345C116.902 25.0069 117.009 25.11 117.082 25.2438C117.157 25.3747 117.194 25.5252 117.194 25.6952C117.194 25.7537 117.187 25.8248 117.173 25.9084C117.162 25.9808 117.144 26.0561 117.119 26.1341H115.288C115.283 26.1898 115.28 26.2302 115.28 26.2553C115.28 26.4476 115.337 26.598 115.451 26.7067C115.568 26.8126 115.72 26.8656 115.907 26.8656C116.071 26.8656 116.215 26.8279 116.338 26.7527C116.463 26.6747 116.558 26.5716 116.622 26.4434H117.031C116.931 26.6635 116.776 26.8433 116.567 26.9826C116.361 27.1191 116.122 27.1874 115.848 27.1874C115.561 27.1874 115.33 27.1052 115.155 26.9408C114.982 26.7736 114.895 26.5465 114.895 26.2595C114.895 26.1787 114.904 26.0923 114.921 26.0003C114.962 25.7635 115.047 25.5559 115.176 25.3775C115.304 25.1992 115.461 25.0627 115.648 24.9679C115.837 24.8704 116.042 24.8216 116.262 24.8216ZM116.789 25.8582C116.797 25.8025 116.801 25.7509 116.801 25.7036C116.801 25.5252 116.744 25.3873 116.63 25.2898C116.519 25.1922 116.372 25.1435 116.191 25.1435C115.996 25.1435 115.819 25.2076 115.66 25.3357C115.502 25.4611 115.394 25.6353 115.339 25.8582H116.789ZM118.165 25.2939C118.257 25.1435 118.372 25.0264 118.512 24.9428C118.651 24.8592 118.81 24.8174 118.988 24.8174L118.917 25.2103H118.817C118.619 25.2103 118.453 25.2633 118.319 25.3692C118.188 25.4751 118.101 25.6534 118.056 25.9042L117.834 27.1498H117.454L117.859 24.8592H118.24L118.165 25.2939ZM119.678 24.4872C119.617 24.4872 119.565 24.4677 119.523 24.4287C119.484 24.3869 119.465 24.3354 119.465 24.2741C119.465 24.1905 119.495 24.1194 119.557 24.0609C119.618 23.9996 119.689 23.9689 119.77 23.9689C119.834 23.9689 119.885 23.9884 119.924 24.0275C119.964 24.0665 119.983 24.118 119.983 24.1821C119.983 24.2657 119.952 24.3382 119.891 24.3995C119.83 24.458 119.759 24.4872 119.678 24.4872ZM119.799 24.8592L119.394 27.1498H119.013L119.419 24.8592H119.799ZM120.1 25.9961C120.142 25.7621 120.226 25.5573 120.351 25.3817C120.479 25.2034 120.634 25.0654 120.815 24.9679C120.999 24.8704 121.194 24.8216 121.4 24.8216C121.601 24.8216 121.767 24.8648 121.898 24.9512C122.029 25.0376 122.119 25.1463 122.169 25.2772L122.245 24.8592H122.629L122.224 27.1498H121.839L121.919 26.7234C121.818 26.8572 121.686 26.9687 121.522 27.0578C121.357 27.1442 121.176 27.1874 120.978 27.1874C120.8 27.1874 120.642 27.1498 120.506 27.0745C120.369 26.9965 120.263 26.8865 120.188 26.7443C120.113 26.6022 120.075 26.4378 120.075 26.2511C120.075 26.1675 120.084 26.0825 120.1 25.9961ZM122.044 26.0003C122.055 25.9418 122.061 25.8791 122.061 25.8122C122.061 25.6088 121.999 25.4486 121.877 25.3316C121.757 25.2117 121.604 25.1518 121.417 25.1518C121.275 25.1518 121.138 25.1853 121.007 25.2521C120.879 25.319 120.769 25.4165 120.677 25.5447C120.585 25.6729 120.524 25.8234 120.493 25.9961C120.482 26.0547 120.477 26.1188 120.477 26.1884C120.477 26.3946 120.537 26.5576 120.656 26.6775C120.776 26.7945 120.929 26.853 121.116 26.853C121.258 26.853 121.393 26.8196 121.522 26.7527C121.653 26.683 121.764 26.5841 121.856 26.4559C121.951 26.325 122.013 26.1731 122.044 26.0003ZM123.794 24.0567L123.247 27.1498H122.867L123.414 24.0567H123.794Z" fill="black"/>
<defs>
<clipPath id="clip0_893_1171">
<rect width="11.1462" height="11.1462" fill="white" transform="translate(50.9268 5.14441)"/>
</clipPath>
<clipPath id="clip1_893_1171">
<rect width="11.1462" height="11.1462" fill="white" transform="translate(96.5771 5.14465)"/>
</clipPath>
</defs>
</svg>
