<svg width="147" height="37" viewBox="0 0 147 37" fill="none" xmlns="http://www.w3.org/2000/svg">
<rect width="36.5" height="36.5" rx="18.25" fill="#D2EEEE"/>
<path fill-rule="evenodd" clip-rule="evenodd" d="M27.336 19.2569H9.164L11.043 21.1354C11.1359 21.2283 11.2096 21.3386 11.2598 21.4599C11.3101 21.5813 11.336 21.7113 11.336 21.8427C11.336 21.974 11.3101 22.1041 11.2598 22.2254C11.2096 22.3468 11.1359 22.4571 11.043 22.5499C10.9501 22.6428 10.8399 22.7165 10.7185 22.7668C10.5972 22.817 10.4671 22.8429 10.3358 22.8429C10.2044 22.8429 10.0743 22.817 9.95299 22.7668C9.83164 22.7165 9.72138 22.6428 9.6285 22.5499L6.0935 19.0144L6.0685 18.9884C5.96805 18.8949 5.88793 18.7817 5.83314 18.6558C5.77834 18.53 5.75004 18.3942 5.75 18.2569C5.75 18.0104 5.839 17.7844 5.987 17.6104C6.01867 17.5664 6.054 17.5248 6.093 17.4854L9.6285 13.9504C9.81601 13.7629 10.0703 13.6575 10.3356 13.6574C10.6008 13.6574 10.8552 13.7627 11.0427 13.9502C11.2303 14.1377 11.3357 14.392 11.3358 14.6573C11.3358 14.9225 11.2305 15.1769 11.043 15.3644L9.15 17.2569H27.349L25.4565 15.3644C25.3636 15.2716 25.2899 15.1613 25.2397 15.0399C25.1894 14.9186 25.1635 14.7885 25.1635 14.6572C25.1635 14.5258 25.1894 14.3958 25.2397 14.2744C25.2899 14.1531 25.3636 14.0428 25.4565 13.9499C25.6441 13.7624 25.8985 13.657 26.1637 13.657C26.2951 13.657 26.4252 13.6829 26.5465 13.7331C26.6679 13.7834 26.7781 13.8571 26.871 13.9499L30.406 17.4854C30.446 17.5248 30.4815 17.5664 30.5125 17.6104C30.6605 17.7844 30.7495 18.0104 30.7495 18.2569C30.7495 18.5459 30.627 18.8059 30.431 18.9884L30.406 19.0144L26.871 22.5494C26.6835 22.737 26.4292 22.8424 26.1639 22.8425C25.8987 22.8425 25.6443 22.7372 25.4568 22.5497C25.2692 22.3622 25.1638 22.1078 25.1637 21.8426C25.1637 21.5774 25.269 21.323 25.4565 21.1354L27.336 19.2569Z" fill="black" fill-opacity="0.7"/>
<path d="M48.2501 13.3985C48.3232 13.3985 48.388 13.4268 48.4444 13.4832L48.9726 14.0563C48.6803 14.4183 48.3199 14.6957 47.8914 14.8884C47.4662 15.081 46.9546 15.1774 46.3567 15.1774C45.8218 15.1774 45.3402 15.086 44.9117 14.9033C44.4865 14.7206 44.1227 14.4665 43.8204 14.141C43.5181 13.8154 43.2856 13.4268 43.1228 12.975C42.9634 12.5232 42.8837 12.0299 42.8837 11.4951C42.8837 10.9537 42.97 10.4587 43.1428 10.0102C43.3155 9.55848 43.558 9.16982 43.8703 8.84428C44.1858 8.51874 44.5612 8.26628 44.9964 8.0869C45.4315 7.9042 45.9132 7.81285 46.4414 7.81285C46.9662 7.81285 47.4313 7.89922 47.8365 8.07195C48.2451 8.24469 48.5923 8.47057 48.8779 8.74961L48.4295 9.37245C48.4029 9.41232 48.368 9.4472 48.3249 9.47709C48.285 9.50699 48.2285 9.52194 48.1554 9.52194C48.1056 9.52194 48.0541 9.50865 48.001 9.48207C47.9478 9.45218 47.8897 9.4173 47.8266 9.37744C47.7635 9.33425 47.6904 9.28775 47.6073 9.23792C47.5243 9.18809 47.428 9.14325 47.3183 9.10338C47.2087 9.0602 47.0808 9.02532 46.9347 8.99875C46.7918 8.96885 46.6257 8.9539 46.4364 8.9539C46.1142 8.9539 45.8185 9.01203 45.5495 9.1283C45.2837 9.24124 45.0545 9.40733 44.8618 9.62658C44.6692 9.8425 44.5197 10.1082 44.4134 10.4238C44.3071 10.7361 44.2539 11.0932 44.2539 11.4951C44.2539 11.9004 44.3104 12.2608 44.4233 12.5764C44.5396 12.892 44.6957 13.1577 44.8917 13.3736C45.0877 13.5895 45.3186 13.7556 45.5843 13.8719C45.8501 13.9848 46.1358 14.0413 46.4414 14.0413C46.6241 14.0413 46.7885 14.0313 46.9347 14.0114C47.0841 13.9915 47.2203 13.9599 47.3433 13.9167C47.4695 13.8736 47.5874 13.8187 47.697 13.7523C47.81 13.6825 47.9213 13.5978 48.0309 13.4982C48.0641 13.4683 48.099 13.445 48.1355 13.4284C48.1721 13.4085 48.2103 13.3985 48.2501 13.3985ZM52.3971 12.9152C52.0417 12.9318 51.7427 12.9634 51.5002 13.0099C51.2577 13.0531 51.0634 13.1095 50.9172 13.1793C50.7711 13.249 50.6664 13.3304 50.6033 13.4234C50.5402 13.5165 50.5086 13.6178 50.5086 13.7274C50.5086 13.9433 50.5717 14.0978 50.698 14.1908C50.8275 14.2838 50.9953 14.3303 51.2012 14.3303C51.4537 14.3303 51.6713 14.2855 51.854 14.1958C52.04 14.1028 52.221 13.9632 52.3971 13.7772V12.9152ZM49.5769 10.6979C50.1648 10.1597 50.8724 9.89066 51.6995 9.89066C51.9985 9.89066 52.2659 9.94049 52.5017 10.0401C52.7376 10.1365 52.9369 10.2727 53.0997 10.4487C53.2624 10.6215 53.3854 10.8291 53.4684 11.0716C53.5548 11.3141 53.598 11.5798 53.598 11.8688V15.0977H53.0399C52.9236 15.0977 52.8339 15.081 52.7708 15.0478C52.7077 15.0113 52.6579 14.9399 52.6213 14.8336L52.5117 14.4648C52.3822 14.5811 52.2559 14.6841 52.133 14.7738C52.0101 14.8601 51.8822 14.9332 51.7493 14.993C51.6165 15.0528 51.4736 15.0977 51.3208 15.1276C51.1713 15.1608 51.0053 15.1774 50.8225 15.1774C50.6066 15.1774 50.4073 15.1491 50.2246 15.0927C50.0419 15.0329 49.8841 14.9449 49.7513 14.8286C49.6184 14.7123 49.5154 14.5678 49.4423 14.3951C49.3692 14.2223 49.3327 14.0214 49.3327 13.7922C49.3327 13.6626 49.3543 13.5347 49.3975 13.4085C49.4407 13.2789 49.5104 13.156 49.6068 13.0398C49.7064 12.9235 49.8343 12.8139 49.9904 12.7109C50.1466 12.6079 50.3376 12.5182 50.5634 12.4418C50.7927 12.3654 51.0584 12.304 51.3607 12.2575C51.663 12.2076 52.0084 12.1778 52.3971 12.1678V11.8688C52.3971 11.5267 52.324 11.2742 52.1779 11.1114C52.0317 10.9453 51.8208 10.8623 51.5451 10.8623C51.3457 10.8623 51.1796 10.8856 51.0468 10.9321C50.9172 10.9786 50.8026 11.0317 50.703 11.0915C50.6033 11.148 50.512 11.1995 50.4289 11.246C50.3492 11.2925 50.2595 11.3157 50.1598 11.3157C50.0735 11.3157 50.0004 11.2941 49.9406 11.251C49.8808 11.2045 49.8326 11.1513 49.7961 11.0915L49.5769 10.6979ZM55.9181 10.8723C56.0775 10.5667 56.2668 10.3275 56.4861 10.1547C56.7053 9.97869 56.9644 9.89066 57.2634 9.89066C57.4993 9.89066 57.6886 9.94215 57.8314 10.0451L57.7517 10.9669C57.7351 11.0267 57.7102 11.0699 57.677 11.0965C57.6471 11.1197 57.6056 11.1314 57.5524 11.1314C57.5026 11.1314 57.4278 11.1231 57.3282 11.1065C57.2318 11.0898 57.1372 11.0815 57.0442 11.0815C56.908 11.0815 56.7867 11.1015 56.6804 11.1413C56.5741 11.1812 56.4778 11.2393 56.3914 11.3157C56.3084 11.3888 56.2336 11.4785 56.1672 11.5848C56.1041 11.6911 56.0443 11.8124 55.9878 11.9485V15.0977H54.7571V9.98533H55.4796C55.6058 9.98533 55.6938 10.0086 55.7437 10.0551C55.7935 10.0983 55.8267 10.178 55.8433 10.2943L55.9181 10.8723ZM60.1788 15.1774C59.7337 15.1774 59.3915 15.0528 59.1523 14.8037C58.9165 14.5512 58.7986 14.2041 58.7986 13.7623V10.9071H58.2754C58.2089 10.9071 58.1525 10.8856 58.106 10.8424C58.0595 10.7992 58.0362 10.7344 58.0362 10.648V10.1597L58.8584 10.0252L59.1175 8.63002C59.1341 8.56358 59.1656 8.5121 59.2121 8.47556C59.2586 8.43901 59.3184 8.42074 59.3915 8.42074H60.0293V10.0302H61.3946V10.9071H60.0293V13.6776C60.0293 13.837 60.0675 13.9616 60.1439 14.0513C60.2236 14.141 60.3316 14.1858 60.4678 14.1858C60.5442 14.1858 60.6073 14.1775 60.6571 14.1609C60.7103 14.141 60.7551 14.121 60.7917 14.1011C60.8315 14.0812 60.8664 14.0629 60.8963 14.0463C60.9262 14.0264 60.9561 14.0164 60.986 14.0164C61.0225 14.0164 61.0524 14.0264 61.0757 14.0463C61.0989 14.0629 61.1239 14.0895 61.1504 14.126L61.5192 14.7239C61.3398 14.8734 61.1338 14.9864 60.9013 15.0628C60.6688 15.1392 60.4279 15.1774 60.1788 15.1774ZM64.4058 9.90561C64.7845 9.90561 65.1283 9.96706 65.4372 10.09C65.7495 10.2129 66.0152 10.3873 66.2345 10.6132C66.4571 10.839 66.6281 11.1148 66.7477 11.4403C66.8673 11.7658 66.9271 12.1296 66.9271 12.5315C66.9271 12.9368 66.8673 13.3022 66.7477 13.6277C66.6281 13.9533 66.4571 14.2307 66.2345 14.4599C66.0152 14.6891 65.7495 14.8651 65.4372 14.988C65.1283 15.1109 64.7845 15.1724 64.4058 15.1724C64.0238 15.1724 63.6767 15.1109 63.3644 14.988C63.0522 14.8651 62.7848 14.6891 62.5622 14.4599C62.3429 14.2307 62.1719 13.9533 62.049 13.6277C61.9294 13.3022 61.8696 12.9368 61.8696 12.5315C61.8696 12.1296 61.9294 11.7658 62.049 11.4403C62.1719 11.1148 62.3429 10.839 62.5622 10.6132C62.7848 10.3873 63.0522 10.2129 63.3644 10.09C63.6767 9.96706 64.0238 9.90561 64.4058 9.90561ZM64.4058 14.2257C64.831 14.2257 65.1449 14.0828 65.3476 13.7972C65.5535 13.5115 65.6565 13.0929 65.6565 12.5415C65.6565 11.9901 65.5535 11.5699 65.3476 11.2809C65.1449 10.9919 64.831 10.8474 64.4058 10.8474C63.974 10.8474 63.6534 10.9935 63.4441 11.2858C63.2382 11.5748 63.1352 11.9934 63.1352 12.5415C63.1352 13.0896 63.2382 13.5082 63.4441 13.7972C63.6534 14.0828 63.974 14.2257 64.4058 14.2257ZM69.0171 10.6132C69.12 10.5102 69.228 10.4155 69.3409 10.3291C69.4572 10.2395 69.5784 10.1647 69.7047 10.1049C69.8342 10.0418 69.9721 9.99364 70.1182 9.96042C70.2644 9.92388 70.4239 9.90561 70.5966 9.90561C70.8756 9.90561 71.1231 9.95378 71.339 10.0501C71.5549 10.1431 71.7343 10.276 71.8772 10.4487C72.0233 10.6181 72.1329 10.8224 72.206 11.0616C72.2824 11.2975 72.3206 11.5582 72.3206 11.8439V15.0977H71.0899V11.8439C71.0899 11.5317 71.0185 11.2908 70.8756 11.1214C70.7328 10.9487 70.5152 10.8623 70.2229 10.8623C70.0103 10.8623 69.811 10.9105 69.625 11.0068C69.4389 11.1031 69.2629 11.2343 69.0968 11.4004V15.0977H67.866V9.98533H68.6184C68.7779 9.98533 68.8825 10.0601 68.9323 10.2096L69.0171 10.6132ZM79.9454 9.20304C79.9056 9.2728 79.8624 9.32429 79.8159 9.35751C79.7727 9.3874 79.7179 9.40235 79.6515 9.40235C79.5817 9.40235 79.5053 9.37744 79.4222 9.32761C79.3425 9.27446 79.2462 9.21633 79.1332 9.15321C79.0203 9.0901 78.8874 9.03363 78.7346 8.9838C78.5851 8.93065 78.4074 8.90407 78.2015 8.90407C78.0154 8.90407 77.8527 8.92733 77.7132 8.97383C77.5736 9.01702 77.4557 9.07847 77.3594 9.15819C77.2664 9.23792 77.1966 9.33425 77.1501 9.4472C77.1036 9.55682 77.0803 9.67806 77.0803 9.81094C77.0803 9.98035 77.1268 10.1215 77.2199 10.2345C77.3162 10.3474 77.4424 10.4437 77.5986 10.5235C77.7547 10.6032 77.9324 10.6746 78.1317 10.7377C78.331 10.8008 78.5353 10.8689 78.7446 10.942C78.9539 11.0118 79.1582 11.0948 79.3575 11.1912C79.5568 11.2842 79.7345 11.4038 79.8906 11.5499C80.0468 11.6928 80.1713 11.8688 80.2643 12.0781C80.3607 12.2874 80.4088 12.5415 80.4088 12.8405C80.4088 13.166 80.3524 13.4716 80.2394 13.7573C80.1298 14.0396 79.967 14.2871 79.7511 14.4997C79.5385 14.709 79.2777 14.8751 78.9688 14.998C78.6599 15.1176 78.3061 15.1774 77.9075 15.1774C77.6783 15.1774 77.4524 15.1541 77.2298 15.1076C77.0073 15.0644 76.793 15.0013 76.587 14.9183C76.3844 14.8352 76.1934 14.7356 76.014 14.6193C75.8347 14.503 75.6752 14.3735 75.5357 14.2307L75.9293 13.5879C75.9625 13.5414 76.0057 13.5032 76.0589 13.4733C76.112 13.4401 76.1685 13.4234 76.2283 13.4234C76.3113 13.4234 76.401 13.4583 76.4974 13.5281C76.5937 13.5945 76.7083 13.6693 76.8412 13.7523C76.974 13.8354 77.1285 13.9118 77.3046 13.9815C77.4839 14.048 77.6982 14.0812 77.9473 14.0812C78.3294 14.0812 78.625 13.9915 78.8343 13.8121C79.0436 13.6294 79.1482 13.3686 79.1482 13.0298C79.1482 12.8405 79.1 12.686 79.0037 12.5664C78.9107 12.4468 78.7861 12.3472 78.63 12.2674C78.4739 12.1844 78.2961 12.1146 78.0968 12.0582C77.8975 12.0017 77.6949 11.9402 77.4889 11.8738C77.283 11.8074 77.0803 11.7276 76.881 11.6346C76.6817 11.5416 76.504 11.4204 76.3479 11.2709C76.1917 11.1214 76.0655 10.9354 75.9692 10.7128C75.8762 10.4869 75.8297 10.2096 75.8297 9.8807C75.8297 9.61827 75.8812 9.36249 75.9841 9.11335C76.0904 8.86421 76.2432 8.64331 76.4425 8.45064C76.6419 8.25797 76.8877 8.10351 77.18 7.98724C77.4723 7.87098 77.8078 7.81285 78.1865 7.81285C78.6117 7.81285 79.0037 7.87928 79.3625 8.01216C79.7212 8.14503 80.0268 8.33105 80.2793 8.57023L79.9454 9.20304ZM82.6399 9.98533V15.0977H81.4041V9.98533H82.6399ZM82.8093 8.49549C82.8093 8.60179 82.7877 8.70144 82.7445 8.79445C82.7013 8.88746 82.6432 8.96885 82.5701 9.03861C82.5004 9.10837 82.4173 9.16484 82.321 9.20802C82.2246 9.24788 82.1217 9.26782 82.012 9.26782C81.9057 9.26782 81.8044 9.24788 81.7081 9.20802C81.6151 9.16484 81.5337 9.10837 81.4639 9.03861C81.3942 8.96885 81.3377 8.88746 81.2945 8.79445C81.2547 8.70144 81.2347 8.60179 81.2347 8.49549C81.2347 8.38587 81.2547 8.28289 81.2945 8.18655C81.3377 8.09022 81.3942 8.00718 81.4639 7.93742C81.5337 7.86766 81.6151 7.81285 81.7081 7.77298C81.8044 7.7298 81.9057 7.70821 82.012 7.70821C82.1217 7.70821 82.2246 7.7298 82.321 7.77298C82.4173 7.81285 82.5004 7.86766 82.5701 7.93742C82.6432 8.00718 82.7013 8.09022 82.7445 8.18655C82.7877 8.28289 82.8093 8.38587 82.8093 8.49549ZM87.5669 10.4936C87.5669 10.5799 87.5519 10.6647 87.522 10.7477C87.4922 10.8307 87.4523 10.8988 87.4025 10.952L84.9759 14.1509H87.4922V15.0977H83.5458V14.5844C83.5458 14.528 83.5591 14.4615 83.5857 14.3851C83.6122 14.3054 83.6521 14.2307 83.7052 14.1609L86.1568 10.9271H83.6903V9.98533H87.5669V10.4936ZM91.6844 11.9535C91.6844 11.7941 91.6611 11.6446 91.6146 11.5051C91.5714 11.3622 91.505 11.2377 91.4153 11.1314C91.3256 11.0251 91.211 10.942 91.0715 10.8822C90.9353 10.8191 90.7758 10.7876 90.5931 10.7876C90.2377 10.7876 89.957 10.8889 89.7511 11.0915C89.5484 11.2941 89.4189 11.5815 89.3624 11.9535H91.6844ZM89.3375 12.696C89.3574 12.9584 89.4039 13.1859 89.477 13.3786C89.5501 13.5679 89.6464 13.7257 89.766 13.852C89.8856 13.9749 90.0268 14.0679 90.1895 14.131C90.3556 14.1908 90.5383 14.2207 90.7376 14.2207C90.937 14.2207 91.108 14.1974 91.2509 14.1509C91.397 14.1044 91.5233 14.0529 91.6296 13.9965C91.7392 13.94 91.8339 13.8885 91.9136 13.842C91.9966 13.7955 92.0764 13.7722 92.1528 13.7722C92.2557 13.7722 92.3321 13.8104 92.382 13.8868L92.7357 14.3353C92.5995 14.4947 92.4467 14.6293 92.2773 14.7389C92.1079 14.8452 91.9302 14.9316 91.7442 14.998C91.5615 15.0611 91.3738 15.106 91.1811 15.1325C90.9918 15.1591 90.8074 15.1724 90.628 15.1724C90.2726 15.1724 89.9421 15.1143 89.6365 14.998C89.3308 14.8784 89.0651 14.704 88.8392 14.4748C88.6133 14.2423 88.4356 13.9566 88.3061 13.6178C88.1765 13.2756 88.1117 12.8803 88.1117 12.4319C88.1117 12.0831 88.1682 11.7559 88.2811 11.4503C88.3941 11.1413 88.5552 10.8739 88.7645 10.648C88.9771 10.4188 89.2345 10.2378 89.5368 10.1049C89.8424 9.97205 90.1862 9.90561 90.5682 9.90561C90.8905 9.90561 91.1878 9.9571 91.4601 10.0601C91.7325 10.1631 91.9667 10.3142 92.1627 10.5135C92.3587 10.7095 92.5115 10.952 92.6211 11.241C92.7341 11.5267 92.7905 11.8539 92.7905 12.2226C92.7905 12.4086 92.7706 12.5349 92.7308 12.6013C92.6909 12.6644 92.6145 12.696 92.5015 12.696H89.3375Z" fill="black"/>
<path d="M42.98 24.0741C43.0173 23.5834 43.2067 23.1994 43.548 22.9221C43.8893 22.6448 44.332 22.5061 44.876 22.5061C45.2387 22.5061 45.5507 22.5728 45.812 22.7061C46.0787 22.8341 46.2787 23.0101 46.412 23.2341C46.5507 23.4581 46.62 23.7114 46.62 23.9941C46.62 24.3248 46.524 24.6101 46.332 24.8501C46.1453 25.0901 45.9 25.2448 45.596 25.3141V25.3541C45.9427 25.4394 46.2173 25.6074 46.42 25.8581C46.6227 26.1088 46.724 26.4368 46.724 26.8421C46.724 27.1461 46.6547 27.4208 46.516 27.6661C46.3773 27.9061 46.1693 28.0954 45.892 28.2341C45.6147 28.3728 45.2813 28.4421 44.892 28.4421C44.3267 28.4421 43.8627 28.2954 43.5 28.0021C43.1373 27.7034 42.9347 27.2821 42.892 26.7381H43.596C43.6333 27.0581 43.764 27.3194 43.988 27.5221C44.212 27.7248 44.5107 27.8261 44.884 27.8261C45.2573 27.8261 45.54 27.7301 45.732 27.5381C45.9293 27.3408 46.028 27.0874 46.028 26.7781C46.028 26.3781 45.8947 26.0901 45.628 25.9141C45.3613 25.7381 44.9587 25.6501 44.42 25.6501H44.236V25.0421H44.428C44.9187 25.0368 45.2893 24.9568 45.54 24.8021C45.7907 24.6421 45.916 24.3968 45.916 24.0661C45.916 23.7834 45.8227 23.5568 45.636 23.3861C45.4547 23.2154 45.1933 23.1301 44.852 23.1301C44.5213 23.1301 44.2547 23.2154 44.052 23.3861C43.8493 23.5568 43.7293 23.7861 43.692 24.0741H42.98ZM47.6189 27.8181C48.2963 27.2741 48.8269 26.8288 49.2109 26.4821C49.5949 26.1301 49.9176 25.7648 50.1789 25.3861C50.4456 25.0021 50.5789 24.6261 50.5789 24.2581C50.5789 23.9114 50.4936 23.6394 50.3229 23.4421C50.1576 23.2394 49.8883 23.1381 49.5149 23.1381C49.1523 23.1381 48.8696 23.2528 48.6669 23.4821C48.4696 23.7061 48.3629 24.0074 48.3469 24.3861H47.6429C47.6643 23.7888 47.8456 23.3274 48.1869 23.0021C48.5283 22.6768 48.9683 22.5141 49.5069 22.5141C50.0563 22.5141 50.4909 22.6661 50.8109 22.9701C51.1363 23.2741 51.2989 23.6928 51.2989 24.2261C51.2989 24.6688 51.1656 25.1008 50.8989 25.5221C50.6376 25.9381 50.3389 26.3061 50.0029 26.6261C49.6669 26.9408 49.2376 27.3088 48.7149 27.7301H51.4669V28.3381H47.6189V27.8181ZM57.7933 27.2021L56.5213 25.9301L55.2493 27.2021L54.7693 26.7221L56.0413 25.4501L54.7933 24.2021L55.2573 23.7301L56.5133 24.9861L57.7693 23.7301L58.2493 24.2101L56.9933 25.4661L58.2573 26.7381L57.7933 27.2021ZM61.6268 27.8181C62.3041 27.2741 62.8348 26.8288 63.2188 26.4821C63.6028 26.1301 63.9254 25.7648 64.1868 25.3861C64.4534 25.0021 64.5868 24.6261 64.5868 24.2581C64.5868 23.9114 64.5014 23.6394 64.3308 23.4421C64.1654 23.2394 63.8961 23.1381 63.5228 23.1381C63.1601 23.1381 62.8774 23.2528 62.6748 23.4821C62.4774 23.7061 62.3708 24.0074 62.3548 24.3861H61.6508C61.6721 23.7888 61.8534 23.3274 62.1948 23.0021C62.5361 22.6768 62.9761 22.5141 63.5148 22.5141C64.0641 22.5141 64.4988 22.6661 64.8188 22.9701C65.1441 23.2741 65.3068 23.6928 65.3068 24.2261C65.3068 24.6688 65.1734 25.1008 64.9068 25.5221C64.6454 25.9381 64.3468 26.3061 64.0108 26.6261C63.6748 26.9408 63.2454 27.3088 62.7228 27.7301H65.4748V28.3381H61.6268V27.8181ZM66.2283 27.8181C66.9056 27.2741 67.4363 26.8288 67.8203 26.4821C68.2043 26.1301 68.527 25.7648 68.7883 25.3861C69.055 25.0021 69.1883 24.6261 69.1883 24.2581C69.1883 23.9114 69.103 23.6394 68.9323 23.4421C68.767 23.2394 68.4976 23.1381 68.1243 23.1381C67.7616 23.1381 67.479 23.2528 67.2763 23.4821C67.079 23.7061 66.9723 24.0074 66.9563 24.3861H66.2523C66.2736 23.7888 66.455 23.3274 66.7963 23.0021C67.1376 22.6768 67.5776 22.5141 68.1163 22.5141C68.6656 22.5141 69.1003 22.6661 69.4203 22.9701C69.7456 23.2741 69.9083 23.6928 69.9083 24.2261C69.9083 24.6688 69.775 25.1008 69.5083 25.5221C69.247 25.9381 68.9483 26.3061 68.6123 26.6261C68.2763 26.9408 67.847 27.3088 67.3243 27.7301H70.0763V28.3381H66.2283V27.8181ZM71.2699 28.4501C71.1312 28.4501 71.0139 28.4021 70.9179 28.3061C70.8219 28.2101 70.7739 28.0928 70.7739 27.9541C70.7739 27.8154 70.8219 27.6981 70.9179 27.6021C71.0139 27.5061 71.1312 27.4581 71.2699 27.4581C71.4032 27.4581 71.5152 27.5061 71.6059 27.6021C71.7019 27.6981 71.7499 27.8154 71.7499 27.9541C71.7499 28.0928 71.7019 28.2101 71.6059 28.3061C71.5152 28.4021 71.4032 28.4501 71.2699 28.4501ZM76.2856 23.2501H73.4776V25.0741C73.6002 24.9034 73.7816 24.7648 74.0216 24.6581C74.2616 24.5461 74.5202 24.4901 74.7976 24.4901C75.2402 24.4901 75.6002 24.5834 75.8776 24.7701C76.1549 24.9514 76.3522 25.1888 76.4696 25.4821C76.5922 25.7701 76.6536 26.0768 76.6536 26.4021C76.6536 26.7861 76.5816 27.1301 76.4376 27.4341C76.2936 27.7381 76.0722 27.9781 75.7736 28.1541C75.4802 28.3301 75.1149 28.4181 74.6776 28.4181C74.1176 28.4181 73.6642 28.2741 73.3176 27.9861C72.9709 27.6981 72.7602 27.3141 72.6856 26.8341H73.3976C73.4669 27.1381 73.6136 27.3754 73.8376 27.5461C74.0616 27.7168 74.3442 27.8021 74.6856 27.8021C75.1069 27.8021 75.4242 27.6768 75.6376 27.4261C75.8509 27.1701 75.9576 26.8341 75.9576 26.4181C75.9576 26.0021 75.8509 25.6821 75.6376 25.4581C75.4242 25.2288 75.1096 25.1141 74.6936 25.1141C74.4109 25.1141 74.1629 25.1834 73.9496 25.3221C73.7416 25.4554 73.5896 25.6394 73.4936 25.8741H72.8056V22.6101H76.2856V23.2501ZM83.1058 27.2021L81.8338 25.9301L80.5618 27.2021L80.0818 26.7221L81.3538 25.4501L80.1058 24.2021L80.5698 23.7301L81.8258 24.9861L83.0818 23.7301L83.5618 24.2101L82.3058 25.4661L83.5698 26.7381L83.1058 27.2021ZM86.9393 27.8181C87.6166 27.2741 88.1473 26.8288 88.5312 26.4821C88.9153 26.1301 89.2379 25.7648 89.4993 25.3861C89.7659 25.0021 89.8993 24.6261 89.8993 24.2581C89.8993 23.9114 89.8139 23.6394 89.6433 23.4421C89.4779 23.2394 89.2086 23.1381 88.8353 23.1381C88.4726 23.1381 88.1899 23.2528 87.9873 23.4821C87.7899 23.7061 87.6833 24.0074 87.6673 24.3861H86.9633C86.9846 23.7888 87.1659 23.3274 87.5073 23.0021C87.8486 22.6768 88.2886 22.5141 88.8273 22.5141C89.3766 22.5141 89.8113 22.6661 90.1313 22.9701C90.4566 23.2741 90.6193 23.6928 90.6193 24.2261C90.6193 24.6688 90.4859 25.1008 90.2193 25.5221C89.9579 25.9381 89.6593 26.3061 89.3233 26.6261C88.9873 26.9408 88.5579 27.3088 88.0353 27.7301H90.7873V28.3381H86.9393V27.8181ZM91.6288 25.4501C91.6288 24.5328 91.7781 23.8181 92.0768 23.3061C92.3755 22.7888 92.8981 22.5301 93.6448 22.5301C94.3861 22.5301 94.9061 22.7888 95.2048 23.3061C95.5035 23.8181 95.6528 24.5328 95.6528 25.4501C95.6528 26.3834 95.5035 27.1088 95.2048 27.6261C94.9061 28.1434 94.3861 28.4021 93.6448 28.4021C92.8981 28.4021 92.3755 28.1434 92.0768 27.6261C91.7781 27.1088 91.6288 26.3834 91.6288 25.4501ZM94.9328 25.4501C94.9328 24.9861 94.9008 24.5941 94.8368 24.2741C94.7781 23.9488 94.6528 23.6874 94.4608 23.4901C94.2741 23.2928 94.0021 23.1941 93.6448 23.1941C93.2821 23.1941 93.0048 23.2928 92.8128 23.4901C92.6261 23.6874 92.5008 23.9488 92.4368 24.2741C92.3781 24.5941 92.3488 24.9861 92.3488 25.4501C92.3488 25.9301 92.3781 26.3328 92.4368 26.6581C92.5008 26.9834 92.6261 27.2448 92.8128 27.4421C93.0048 27.6394 93.2821 27.7381 93.6448 27.7381C94.0021 27.7381 94.2741 27.6394 94.4608 27.4421C94.6528 27.2448 94.7781 26.9834 94.8368 26.6581C94.9008 26.3328 94.9328 25.9301 94.9328 25.4501ZM97.0043 28.4501C96.8656 28.4501 96.7483 28.4021 96.6523 28.3061C96.5563 28.2101 96.5083 28.0928 96.5083 27.9541C96.5083 27.8154 96.5563 27.6981 96.6523 27.6021C96.7483 27.5061 96.8656 27.4581 97.0043 27.4581C97.1376 27.4581 97.2496 27.5061 97.3403 27.6021C97.4363 27.6981 97.4843 27.8154 97.4843 27.9541C97.4843 28.0928 97.4363 28.2101 97.3403 28.3061C97.2496 28.4021 97.1376 28.4501 97.0043 28.4501ZM102.02 23.2501H99.2119V25.0741C99.3346 24.9034 99.5159 24.7648 99.7559 24.6581C99.9959 24.5461 100.255 24.4901 100.532 24.4901C100.975 24.4901 101.335 24.5834 101.612 24.7701C101.889 24.9514 102.087 25.1888 102.204 25.4821C102.327 25.7701 102.388 26.0768 102.388 26.4021C102.388 26.7861 102.316 27.1301 102.172 27.4341C102.028 27.7381 101.807 27.9781 101.508 28.1541C101.215 28.3301 100.849 28.4181 100.412 28.4181C99.8519 28.4181 99.3986 28.2741 99.0519 27.9861C98.7053 27.6981 98.4946 27.3141 98.4199 26.8341H99.1319C99.2013 27.1381 99.3479 27.3754 99.5719 27.5461C99.7959 27.7168 100.079 27.8021 100.42 27.8021C100.841 27.8021 101.159 27.6768 101.372 27.4261C101.585 27.1701 101.692 26.8341 101.692 26.4181C101.692 26.0021 101.585 25.6821 101.372 25.4581C101.159 25.2288 100.844 25.1141 100.428 25.1141C100.145 25.1141 99.8973 25.1834 99.6839 25.3221C99.4759 25.4554 99.3239 25.6394 99.2279 25.8741H98.5399V22.6101H102.02V23.2501ZM110.88 23.9381C111.222 23.9381 111.526 24.0101 111.792 24.1541C112.059 24.2928 112.27 24.5034 112.424 24.7861C112.579 25.0688 112.656 25.4128 112.656 25.8181V28.4021H111.936V25.9221C111.936 25.4848 111.827 25.1514 111.608 24.9221C111.395 24.6874 111.104 24.5701 110.736 24.5701C110.358 24.5701 110.056 24.6928 109.832 24.9381C109.608 25.1781 109.496 25.5274 109.496 25.9861V28.4021H108.776V25.9221C108.776 25.4848 108.667 25.1514 108.448 24.9221C108.235 24.6874 107.944 24.5701 107.576 24.5701C107.198 24.5701 106.896 24.6928 106.672 24.9381C106.448 25.1781 106.336 25.5274 106.336 25.9861V28.4021H105.608V24.0181H106.336V24.6501C106.48 24.4208 106.672 24.2448 106.912 24.1221C107.158 23.9994 107.427 23.9381 107.72 23.9381C108.088 23.9381 108.414 24.0208 108.696 24.1861C108.979 24.3514 109.19 24.5941 109.328 24.9141C109.451 24.6048 109.654 24.3648 109.936 24.1941C110.219 24.0234 110.534 23.9381 110.88 23.9381ZM119.122 23.9381C119.464 23.9381 119.768 24.0101 120.034 24.1541C120.301 24.2928 120.512 24.5034 120.666 24.7861C120.821 25.0688 120.898 25.4128 120.898 25.8181V28.4021H120.178V25.9221C120.178 25.4848 120.069 25.1514 119.85 24.9221C119.637 24.6874 119.346 24.5701 118.978 24.5701C118.6 24.5701 118.298 24.6928 118.074 24.9381C117.85 25.1781 117.738 25.5274 117.738 25.9861V28.4021H117.018V25.9221C117.018 25.4848 116.909 25.1514 116.69 24.9221C116.477 24.6874 116.186 24.5701 115.818 24.5701C115.44 24.5701 115.138 24.6928 114.914 24.9381C114.69 25.1781 114.578 25.5274 114.578 25.9861V28.4021H113.85V24.0181H114.578V24.6501C114.722 24.4208 114.914 24.2448 115.154 24.1221C115.4 23.9994 115.669 23.9381 115.962 23.9381C116.33 23.9381 116.656 24.0208 116.938 24.1861C117.221 24.3514 117.432 24.5941 117.57 24.9141C117.693 24.6048 117.896 24.3648 118.178 24.1941C118.461 24.0234 118.776 23.9381 119.122 23.9381Z" fill="black" fill-opacity="0.59"/>
</svg>
