<svg width="162" height="37" viewBox="0 0 162 37" fill="none" xmlns="http://www.w3.org/2000/svg">
<path d="M5.88 17L3.836 13.29H3.262V17H0.868V7.172H4.886C5.66067 7.172 6.31867 7.30733 6.86 7.578C7.41067 7.84867 7.82133 8.222 8.092 8.698C8.36267 9.16467 8.498 9.68733 8.498 10.266C8.498 10.9193 8.31133 11.5027 7.938 12.016C7.574 12.5293 7.03267 12.8933 6.314 13.108L8.582 17H5.88ZM3.262 11.596H4.746C5.18467 11.596 5.51133 11.4887 5.726 11.274C5.95 11.0593 6.062 10.756 6.062 10.364C6.062 9.99067 5.95 9.69667 5.726 9.482C5.51133 9.26733 5.18467 9.16 4.746 9.16H3.262V11.596ZM15.6988 17L12.3948 12.66V17H10.0008V7.172H12.3948V11.484L15.6708 7.172H18.4848L14.6768 11.988L18.6248 17H15.6988ZM30.2193 10.336C30.2193 10.9053 30.0887 11.428 29.8273 11.904C29.566 12.3707 29.1647 12.7487 28.6233 13.038C28.082 13.3273 27.41 13.472 26.6073 13.472H25.1233V17H22.7293V7.172H26.6073C27.3913 7.172 28.054 7.30733 28.5953 7.578C29.1367 7.84867 29.5427 8.222 29.8133 8.698C30.084 9.174 30.2193 9.72 30.2193 10.336ZM26.4253 11.568C26.8827 11.568 27.2233 11.4607 27.4473 11.246C27.6713 11.0313 27.7833 10.728 27.7833 10.336C27.7833 9.944 27.6713 9.64067 27.4473 9.426C27.2233 9.21133 26.8827 9.104 26.4253 9.104H25.1233V11.568H26.4253ZM36.1137 17.098C35.1897 17.098 34.3403 16.8833 33.5657 16.454C32.8003 16.0247 32.189 15.4273 31.7317 14.662C31.2837 13.8873 31.0597 13.0193 31.0597 12.058C31.0597 11.0967 31.2837 10.2333 31.7317 9.468C32.189 8.70267 32.8003 8.10533 33.5657 7.676C34.3403 7.24667 35.1897 7.032 36.1137 7.032C37.0377 7.032 37.8823 7.24667 38.6477 7.676C39.4223 8.10533 40.029 8.70267 40.4677 9.468C40.9157 10.2333 41.1397 11.0967 41.1397 12.058C41.1397 13.0193 40.9157 13.8873 40.4677 14.662C40.0197 15.4273 39.413 16.0247 38.6477 16.454C37.8823 16.8833 37.0377 17.098 36.1137 17.098ZM36.1137 14.914C36.8977 14.914 37.523 14.6527 37.9897 14.13C38.4657 13.6073 38.7037 12.9167 38.7037 12.058C38.7037 11.19 38.4657 10.4993 37.9897 9.986C37.523 9.46333 36.8977 9.202 36.1137 9.202C35.3203 9.202 34.6857 9.45867 34.2097 9.972C33.743 10.4853 33.5097 11.1807 33.5097 12.058C33.5097 12.926 33.743 13.6213 34.2097 14.144C34.6857 14.6573 35.3203 14.914 36.1137 14.914ZM44.8655 15.152H48.0015V17H42.4715V7.172H44.8655V15.152ZM57.5714 7.172L54.1694 13.752V17H51.7754V13.752L48.3734 7.172H51.0894L52.9934 11.288L54.8834 7.172H57.5714ZM64.0636 12.072C64.0636 11.1013 64.2736 10.238 64.6936 9.482C65.1136 8.71667 65.6969 8.124 66.4436 7.704C67.1996 7.27467 68.0536 7.06 69.0056 7.06C70.1722 7.06 71.1709 7.368 72.0016 7.984C72.8322 8.6 73.3876 9.44 73.6676 10.504H71.0356C70.8396 10.0933 70.5596 9.78067 70.1956 9.566C69.8409 9.35133 69.4349 9.244 68.9776 9.244C68.2402 9.244 67.6429 9.50067 67.1856 10.014C66.7282 10.5273 66.4996 11.2133 66.4996 12.072C66.4996 12.9307 66.7282 13.6167 67.1856 14.13C67.6429 14.6433 68.2402 14.9 68.9776 14.9C69.4349 14.9 69.8409 14.7927 70.1956 14.578C70.5596 14.3633 70.8396 14.0507 71.0356 13.64H73.6676C73.3876 14.704 72.8322 15.544 72.0016 16.16C71.1709 16.7667 70.1722 17.07 69.0056 17.07C68.0536 17.07 67.1996 16.86 66.4436 16.44C65.6969 16.0107 65.1136 15.418 64.6936 14.662C64.2736 13.906 64.0636 13.0427 64.0636 12.072ZM79.7816 17.098C78.8576 17.098 78.0083 16.8833 77.2336 16.454C76.4683 16.0247 75.857 15.4273 75.3996 14.662C74.9516 13.8873 74.7276 13.0193 74.7276 12.058C74.7276 11.0967 74.9516 10.2333 75.3996 9.468C75.857 8.70267 76.4683 8.10533 77.2336 7.676C78.0083 7.24667 78.8576 7.032 79.7816 7.032C80.7056 7.032 81.5503 7.24667 82.3156 7.676C83.0903 8.10533 83.697 8.70267 84.1356 9.468C84.5836 10.2333 84.8076 11.0967 84.8076 12.058C84.8076 13.0193 84.5836 13.8873 84.1356 14.662C83.6876 15.4273 83.081 16.0247 82.3156 16.454C81.5503 16.8833 80.7056 17.098 79.7816 17.098ZM79.7816 14.914C80.5656 14.914 81.191 14.6527 81.6576 14.13C82.1336 13.6073 82.3716 12.9167 82.3716 12.058C82.3716 11.19 82.1336 10.4993 81.6576 9.986C81.191 9.46333 80.5656 9.202 79.7816 9.202C78.9883 9.202 78.3536 9.45867 77.8776 9.972C77.411 10.4853 77.1776 11.1807 77.1776 12.058C77.1776 12.926 77.411 13.6213 77.8776 14.144C78.3536 14.6573 78.9883 14.914 79.7816 14.914ZM94.9315 17H92.5375L88.5335 10.938V17H86.1395V7.172H88.5335L92.5375 13.262V7.172H94.9315V17ZM103.737 7.172V9.09H101.133V17H98.7388V9.09H96.1348V7.172H103.737ZM111.056 15.264H107.388L106.8 17H104.294L107.85 7.172H110.622L114.178 17H111.644L111.056 15.264ZM110.44 13.416L109.222 9.818L108.018 13.416H110.44ZM117.655 7.172V17H115.261V7.172H117.655ZM128.181 17H125.787L121.783 10.938V17H119.389V7.172H121.783L125.787 13.262V7.172H128.181V17ZM132.311 9.09V11.078H135.517V12.926H132.311V15.082H135.937V17H129.917V7.172H135.937V9.09H132.311ZM142.503 17L140.459 13.29H139.885V17H137.491V7.172H141.509C142.284 7.172 142.942 7.30733 143.483 7.578C144.034 7.84867 144.444 8.222 144.715 8.698C144.986 9.16467 145.121 9.68733 145.121 10.266C145.121 10.9193 144.934 11.5027 144.561 12.016C144.197 12.5293 143.656 12.8933 142.937 13.108L145.205 17H142.503ZM139.885 11.596H141.369C141.808 11.596 142.134 11.4887 142.349 11.274C142.573 11.0593 142.685 10.756 142.685 10.364C142.685 9.99067 142.573 9.69667 142.349 9.482C142.134 9.26733 141.808 9.16 141.369 9.16H139.885V11.596ZM150.18 17.098C149.461 17.098 148.817 16.9813 148.248 16.748C147.679 16.5147 147.221 16.1693 146.876 15.712C146.54 15.2547 146.363 14.704 146.344 14.06H148.892C148.929 14.424 149.055 14.704 149.27 14.9C149.485 15.0867 149.765 15.18 150.11 15.18C150.465 15.18 150.745 15.1007 150.95 14.942C151.155 14.774 151.258 14.5453 151.258 14.256C151.258 14.0133 151.174 13.8127 151.006 13.654C150.847 13.4953 150.647 13.3647 150.404 13.262C150.171 13.1593 149.835 13.0427 149.396 12.912C148.761 12.716 148.243 12.52 147.842 12.324C147.441 12.128 147.095 11.8387 146.806 11.456C146.517 11.0733 146.372 10.574 146.372 9.958C146.372 9.04333 146.703 8.32933 147.366 7.816C148.029 7.29333 148.892 7.032 149.956 7.032C151.039 7.032 151.911 7.29333 152.574 7.816C153.237 8.32933 153.591 9.048 153.638 9.972H151.048C151.029 9.65467 150.913 9.40733 150.698 9.23C150.483 9.04333 150.208 8.95 149.872 8.95C149.583 8.95 149.349 9.02933 149.172 9.188C148.995 9.33733 148.906 9.55667 148.906 9.846C148.906 10.1633 149.055 10.4107 149.354 10.588C149.653 10.7653 150.119 10.9567 150.754 11.162C151.389 11.3767 151.902 11.582 152.294 11.778C152.695 11.974 153.041 12.2587 153.33 12.632C153.619 13.0053 153.764 13.486 153.764 14.074C153.764 14.634 153.619 15.1427 153.33 15.6C153.05 16.0573 152.639 16.4213 152.098 16.692C151.557 16.9627 150.917 17.098 150.18 17.098Z" fill="white"/>
<path d="M4.048 28.424V29.016H2.528V34H1.8V29.016H0.272V28.424H4.048ZM5.65613 28.424V31.952C5.65613 32.448 5.77613 32.816 6.01613 33.056C6.26146 33.296 6.60013 33.416 7.03213 33.416C7.45879 33.416 7.79213 33.296 8.03213 33.056C8.27746 32.816 8.40013 32.448 8.40013 31.952V28.424H9.12813V31.944C9.12813 32.408 9.03479 32.8 8.84812 33.12C8.66146 33.4347 8.40813 33.6693 8.08813 33.824C7.77346 33.9787 7.41879 34.056 7.02413 34.056C6.62946 34.056 6.27213 33.9787 5.95213 33.824C5.63746 33.6693 5.38679 33.4347 5.20013 33.12C5.01879 32.8 4.92813 32.408 4.92813 31.944V28.424H5.65613ZM13.1346 31.128C13.3372 31.16 13.5212 31.2427 13.6866 31.376C13.8572 31.5093 13.9906 31.6747 14.0866 31.872C14.1879 32.0693 14.2386 32.28 14.2386 32.504C14.2386 32.7867 14.1666 33.0427 14.0226 33.272C13.8786 33.496 13.6679 33.6747 13.3906 33.808C13.1186 33.936 12.7959 34 12.4226 34H10.3426V28.424H12.3426C12.7212 28.424 13.0439 28.488 13.3106 28.616C13.5772 28.7387 13.7772 28.9067 13.9106 29.12C14.0439 29.3333 14.1106 29.5733 14.1106 29.84C14.1106 30.1707 14.0199 30.4453 13.8386 30.664C13.6626 30.8773 13.4279 31.032 13.1346 31.128ZM11.0706 30.832H12.2946C12.6359 30.832 12.8999 30.752 13.0866 30.592C13.2732 30.432 13.3666 30.2107 13.3666 29.928C13.3666 29.6453 13.2732 29.424 13.0866 29.264C12.8999 29.104 12.6306 29.024 12.2786 29.024H11.0706V30.832ZM12.3586 33.4C12.7212 33.4 13.0039 33.3147 13.2066 33.144C13.4092 32.9733 13.5106 32.736 13.5106 32.432C13.5106 32.1227 13.4039 31.88 13.1906 31.704C12.9772 31.5227 12.6919 31.432 12.3346 31.432H11.0706V33.4H12.3586ZM17.1096 31.208C17.1096 30.664 17.2323 30.176 17.4776 29.744C17.723 29.3067 18.0563 28.9653 18.4776 28.72C18.9043 28.4747 19.3763 28.352 19.8936 28.352C20.5016 28.352 21.0323 28.4987 21.4856 28.792C21.939 29.0853 22.2696 29.5013 22.4776 30.04H21.6056C21.451 29.704 21.227 29.4453 20.9336 29.264C20.6456 29.0827 20.299 28.992 19.8936 28.992C19.5043 28.992 19.155 29.0827 18.8456 29.264C18.5363 29.4453 18.2936 29.704 18.1176 30.04C17.9416 30.3707 17.8536 30.76 17.8536 31.208C17.8536 31.6507 17.9416 32.04 18.1176 32.376C18.2936 32.7067 18.5363 32.9627 18.8456 33.144C19.155 33.3253 19.5043 33.416 19.8936 33.416C20.299 33.416 20.6456 33.328 20.9336 33.152C21.227 32.9707 21.451 32.712 21.6056 32.376H22.4776C22.2696 32.9093 21.939 33.3227 21.4856 33.616C21.0323 33.904 20.5016 34.048 19.8936 34.048C19.3763 34.048 18.9043 33.928 18.4776 33.688C18.0563 33.4427 17.723 33.104 17.4776 32.672C17.2323 32.24 17.1096 31.752 17.1096 31.208ZM26.0893 34.056C25.572 34.056 25.1 33.936 24.6733 33.696C24.2466 33.4507 23.908 33.112 23.6573 32.68C23.412 32.2427 23.2893 31.752 23.2893 31.208C23.2893 30.664 23.412 30.176 23.6573 29.744C23.908 29.3067 24.2466 28.968 24.6733 28.728C25.1 28.4827 25.572 28.36 26.0893 28.36C26.612 28.36 27.0866 28.4827 27.5133 28.728C27.94 28.968 28.276 29.304 28.5213 29.736C28.7666 30.168 28.8893 30.6587 28.8893 31.208C28.8893 31.7573 28.7666 32.248 28.5213 32.68C28.276 33.112 27.94 33.4507 27.5133 33.696C27.0866 33.936 26.612 34.056 26.0893 34.056ZM26.0893 33.424C26.4786 33.424 26.828 33.3333 27.1373 33.152C27.452 32.9707 27.6973 32.712 27.8733 32.376C28.0546 32.04 28.1453 31.6507 28.1453 31.208C28.1453 30.76 28.0546 30.3707 27.8733 30.04C27.6973 29.704 27.4546 29.4453 27.1453 29.264C26.836 29.0827 26.484 28.992 26.0893 28.992C25.6946 28.992 25.3426 29.0827 25.0333 29.264C24.724 29.4453 24.4786 29.704 24.2973 30.04C24.1213 30.3707 24.0333 30.76 24.0333 31.208C24.0333 31.6507 24.1213 32.04 24.2973 32.376C24.4786 32.712 24.724 32.9707 25.0333 33.152C25.348 33.3333 25.7 33.424 26.0893 33.424ZM34.2344 34H33.5064L30.5784 29.56V34H29.8504V28.416H30.5784L33.5064 32.848V28.416H34.2344V34ZM38.9074 28.424V29.016H37.3874V34H36.6594V29.016H35.1314V28.424H38.9074ZM43.0995 32.76H40.6675L40.2195 34H39.4515L41.4675 28.456H42.3075L44.3155 34H43.5475L43.0995 32.76ZM42.8915 32.168L41.8835 29.352L40.8755 32.168H42.8915ZM45.9221 28.424V34H45.1941V28.424H45.9221ZM51.5469 34H50.8189L47.8909 29.56V34H47.1629V28.416H47.8909L50.8189 32.848V28.416H51.5469V34ZM53.5159 29.016V30.88H55.5479V31.48H53.5159V33.4H55.7879V34H52.7879V28.416H55.7879V29.016H53.5159ZM59.8254 34L58.4974 31.72H57.6174V34H56.8894V28.424H58.6894C59.1108 28.424 59.4654 28.496 59.7534 28.64C60.0468 28.784 60.2654 28.9787 60.4094 29.224C60.5534 29.4693 60.6254 29.7493 60.6254 30.064C60.6254 30.448 60.5134 30.7867 60.2894 31.08C60.0708 31.3733 59.7401 31.568 59.2974 31.664L60.6974 34H59.8254ZM57.6174 31.136H58.6894C59.0841 31.136 59.3801 31.04 59.5774 30.848C59.7748 30.6507 59.8734 30.3893 59.8734 30.064C59.8734 29.7333 59.7748 29.4773 59.5774 29.296C59.3854 29.1147 59.0894 29.024 58.6894 29.024H57.6174V31.136ZM66.9294 30.76V31.376H63.7374V30.76H66.9294ZM74.1565 30.056C74.1565 30.52 73.9965 30.9067 73.6765 31.216C73.3618 31.52 72.8792 31.672 72.2285 31.672H71.1565V34H70.4285V28.424H72.2285C72.8578 28.424 73.3352 28.576 73.6605 28.88C73.9912 29.184 74.1565 29.576 74.1565 30.056ZM72.2285 31.072C72.6338 31.072 72.9325 30.984 73.1245 30.808C73.3165 30.632 73.4125 30.3813 73.4125 30.056C73.4125 29.368 73.0178 29.024 72.2285 29.024H71.1565V31.072H72.2285ZM77.9973 34L76.6693 31.72H75.7893V34H75.0613V28.424H76.8613C77.2826 28.424 77.6373 28.496 77.9253 28.64C78.2186 28.784 78.4373 28.9787 78.5813 29.224C78.7253 29.4693 78.7973 29.7493 78.7973 30.064C78.7973 30.448 78.6853 30.7867 78.4613 31.08C78.2426 31.3733 77.912 31.568 77.4693 31.664L78.8693 34H77.9973ZM75.7893 31.136H76.8613C77.256 31.136 77.552 31.04 77.7493 30.848C77.9466 30.6507 78.0453 30.3893 78.0453 30.064C78.0453 29.7333 77.9466 29.4773 77.7493 29.296C77.5573 29.1147 77.2613 29.024 76.8613 29.024H75.7893V31.136ZM82.4565 34.056C81.9392 34.056 81.4672 33.936 81.0405 33.696C80.6138 33.4507 80.2752 33.112 80.0245 32.68C79.7792 32.2427 79.6565 31.752 79.6565 31.208C79.6565 30.664 79.7792 30.176 80.0245 29.744C80.2752 29.3067 80.6138 28.968 81.0405 28.728C81.4672 28.4827 81.9392 28.36 82.4565 28.36C82.9792 28.36 83.4538 28.4827 83.8805 28.728C84.3072 28.968 84.6432 29.304 84.8885 29.736C85.1338 30.168 85.2565 30.6587 85.2565 31.208C85.2565 31.7573 85.1338 32.248 84.8885 32.68C84.6432 33.112 84.3072 33.4507 83.8805 33.696C83.4538 33.936 82.9792 34.056 82.4565 34.056ZM82.4565 33.424C82.8458 33.424 83.1952 33.3333 83.5045 33.152C83.8192 32.9707 84.0645 32.712 84.2405 32.376C84.4218 32.04 84.5125 31.6507 84.5125 31.208C84.5125 30.76 84.4218 30.3707 84.2405 30.04C84.0645 29.704 83.8218 29.4453 83.5125 29.264C83.2032 29.0827 82.8512 28.992 82.4565 28.992C82.0618 28.992 81.7098 29.0827 81.4005 29.264C81.0912 29.4453 80.8458 29.704 80.6645 30.04C80.4885 30.3707 80.4005 30.76 80.4005 31.208C80.4005 31.6507 80.4885 32.04 80.6645 32.376C80.8458 32.712 81.0912 32.9707 81.4005 33.152C81.7152 33.3333 82.0672 33.424 82.4565 33.424ZM87.9536 28.424C88.5616 28.424 89.0869 28.5387 89.5296 28.768C89.9776 28.992 90.3189 29.3147 90.5536 29.736C90.7936 30.1573 90.9136 30.6533 90.9136 31.224C90.9136 31.7947 90.7936 32.2907 90.5536 32.712C90.3189 33.128 89.9776 33.448 89.5296 33.672C89.0869 33.8907 88.5616 34 87.9536 34H86.2176V28.424H87.9536ZM87.9536 33.4C88.6736 33.4 89.2229 33.2107 89.6016 32.832C89.9802 32.448 90.1696 31.912 90.1696 31.224C90.1696 30.5307 89.9776 29.9893 89.5936 29.6C89.2149 29.2107 88.6682 29.016 87.9536 29.016H86.9456V33.4H87.9536ZM92.5858 28.424V31.952C92.5858 32.448 92.7058 32.816 92.9458 33.056C93.1911 33.296 93.5298 33.416 93.9618 33.416C94.3885 33.416 94.7218 33.296 94.9618 33.056C95.2071 32.816 95.3298 32.448 95.3298 31.952V28.424H96.0578V31.944C96.0578 32.408 95.9645 32.8 95.7778 33.12C95.5911 33.4347 95.3378 33.6693 95.0178 33.824C94.7031 33.9787 94.3485 34.056 93.9538 34.056C93.5591 34.056 93.2018 33.9787 92.8818 33.824C92.5671 33.6693 92.3165 33.4347 92.1298 33.12C91.9485 32.8 91.8578 32.408 91.8578 31.944V28.424H92.5858ZM97.0003 31.208C97.0003 30.664 97.1229 30.176 97.3683 29.744C97.6136 29.3067 97.9469 28.9653 98.3683 28.72C98.7949 28.4747 99.2669 28.352 99.7843 28.352C100.392 28.352 100.923 28.4987 101.376 28.792C101.83 29.0853 102.16 29.5013 102.368 30.04H101.496C101.342 29.704 101.118 29.4453 100.824 29.264C100.536 29.0827 100.19 28.992 99.7843 28.992C99.3949 28.992 99.0456 29.0827 98.7363 29.264C98.4269 29.4453 98.1843 29.704 98.0083 30.04C97.8323 30.3707 97.7443 30.76 97.7443 31.208C97.7443 31.6507 97.8323 32.04 98.0083 32.376C98.1843 32.7067 98.4269 32.9627 98.7363 33.144C99.0456 33.3253 99.3949 33.416 99.7843 33.416C100.19 33.416 100.536 33.328 100.824 33.152C101.118 32.9707 101.342 32.712 101.496 32.376H102.368C102.16 32.9093 101.83 33.3227 101.376 33.616C100.923 33.904 100.392 34.048 99.7843 34.048C99.2669 34.048 98.7949 33.928 98.3683 33.688C97.9469 33.4427 97.6136 33.104 97.3683 32.672C97.1229 32.24 97.0003 31.752 97.0003 31.208ZM106.884 28.424V29.016H105.364V34H104.636V29.016H103.108V28.424H106.884ZM113.641 30.056C113.641 30.52 113.481 30.9067 113.161 31.216C112.846 31.52 112.364 31.672 111.713 31.672H110.641V34H109.913V28.424H111.713C112.342 28.424 112.82 28.576 113.145 28.88C113.476 29.184 113.641 29.576 113.641 30.056ZM111.713 31.072C112.118 31.072 112.417 30.984 112.609 30.808C112.801 30.632 112.897 30.3813 112.897 30.056C112.897 29.368 112.502 29.024 111.713 29.024H110.641V31.072H111.713ZM117.842 32.76H115.41L114.962 34H114.194L116.21 28.456H117.05L119.058 34H118.29L117.842 32.76ZM117.634 32.168L116.626 29.352L115.618 32.168H117.634ZM124.16 30.04C124.006 29.7147 123.782 29.464 123.488 29.288C123.195 29.1067 122.854 29.016 122.464 29.016C122.075 29.016 121.723 29.1067 121.408 29.288C121.099 29.464 120.854 29.72 120.672 30.056C120.496 30.3867 120.408 30.7707 120.408 31.208C120.408 31.6453 120.496 32.0293 120.672 32.36C120.854 32.6907 121.099 32.9467 121.408 33.128C121.723 33.304 122.075 33.392 122.464 33.392C123.008 33.392 123.456 33.2293 123.808 32.904C124.16 32.5787 124.366 32.1387 124.424 31.584H122.2V30.992H125.2V31.552C125.158 32.0107 125.014 32.432 124.768 32.816C124.523 33.1947 124.2 33.496 123.8 33.72C123.4 33.9387 122.955 34.048 122.464 34.048C121.947 34.048 121.475 33.928 121.048 33.688C120.622 33.4427 120.283 33.104 120.032 32.672C119.787 32.24 119.664 31.752 119.664 31.208C119.664 30.664 119.787 30.176 120.032 29.744C120.283 29.3067 120.622 28.968 121.048 28.728C121.475 28.4827 121.947 28.36 122.464 28.36C123.056 28.36 123.579 28.5067 124.032 28.8C124.491 29.0933 124.824 29.5067 125.032 30.04H124.16ZM126.891 29.016V30.88H128.923V31.48H126.891V33.4H129.163V34H126.163V28.416H129.163V29.016H126.891Z" fill="white"/>
</svg>
