<svg width="82" height="22" viewBox="0 0 82 22" fill="none" xmlns="http://www.w3.org/2000/svg">
<path d="M0 2C0 0.89543 0.89543 0 2 0H79.1446C80.5325 0 81.4985 1.37912 81.0242 2.68349L74.4787 20.6835C74.1913 21.4739 73.4402 22 72.5991 22H2C0.895429 22 0 21.1046 0 20V2Z" fill="#C17E61"/>
<path d="M26.491 14L26.491 8.35128L28.7195 8.35128C29.148 8.35128 29.513 8.43311 29.8145 8.59676C30.1161 8.75857 30.3459 8.98382 30.5041 9.27251C30.6641 9.55936 30.744 9.89034 30.744 10.2654C30.744 10.6406 30.6631 10.9715 30.5013 11.2584C30.3395 11.5452 30.1051 11.7686 29.798 11.9286C29.4928 12.0886 29.1232 12.1686 28.6892 12.1686L27.2688 12.1686L27.2688 11.2115L28.4961 11.2115C28.726 11.2115 28.9154 11.172 29.0643 11.0929C29.2151 11.012 29.3273 10.9007 29.4008 10.7592C29.4762 10.6157 29.5139 10.4512 29.5139 10.2654C29.5139 10.0779 29.4762 9.91424 29.4008 9.77449C29.3273 9.63291 29.2151 9.5235 29.0643 9.44627C28.9135 9.3672 28.7223 9.32767 28.4906 9.32767L27.6852 9.32767L27.6852 14L26.491 14ZM31.1094 14L31.1094 9.76346L32.2485 9.76346L32.2485 10.5026L32.2926 10.5026C32.3698 10.2397 32.4995 10.0411 32.6815 9.90689C32.8636 9.77082 33.0732 9.70278 33.3104 9.70278C33.3692 9.70278 33.4327 9.70646 33.5007 9.71381C33.5687 9.72117 33.6285 9.73128 33.68 9.74415L33.68 10.7867C33.6248 10.7702 33.5485 10.7555 33.451 10.7426C33.3536 10.7297 33.2644 10.7233 33.1835 10.7233C33.0107 10.7233 32.8562 10.761 32.7201 10.8364C32.5859 10.9099 32.4792 11.0129 32.4002 11.1453C32.323 11.2777 32.2843 11.4303 32.2843 11.6032L32.2843 14L31.1094 14ZM35.6326 14.0827C35.1968 14.0827 34.8217 13.9945 34.5073 13.818C34.1947 13.6396 33.9538 13.3877 33.7846 13.0622C33.6155 12.7349 33.5309 12.3479 33.5309 11.901C33.5309 11.4652 33.6155 11.0828 33.7846 10.7536C33.9538 10.4245 34.1919 10.168 34.499 9.98411C34.8079 9.80024 35.1702 9.7083 35.5857 9.7083C35.8652 9.7083 36.1254 9.75335 36.3663 9.84345C36.609 9.93171 36.8205 10.065 37.0007 10.2434C37.1827 10.4217 37.3243 10.6461 37.4254 10.9164C37.5266 11.1848 37.5771 11.4993 37.5771 11.8597L37.5771 12.1824L33.9998 12.1824L33.9998 11.4542L36.4711 11.4542C36.4711 11.285 36.4343 11.1352 36.3608 11.0046C36.2872 10.8741 36.1852 10.772 36.0546 10.6985C35.9259 10.6231 35.776 10.5854 35.605 10.5854C35.4267 10.5854 35.2685 10.6268 35.1306 10.7095C34.9946 10.7904 34.8879 10.8998 34.8107 11.0377C34.7334 11.1738 34.6939 11.3255 34.6921 11.4928L34.6921 12.1851C34.6921 12.3947 34.7307 12.5759 34.8079 12.7285C34.887 12.8811 34.9982 12.9988 35.1417 13.0815C35.2851 13.1643 35.4552 13.2056 35.6519 13.2056C35.7825 13.2056 35.902 13.1873 36.0105 13.1505C36.119 13.1137 36.2118 13.0585 36.2891 12.985C36.3663 12.9114 36.4251 12.8213 36.4656 12.7147L37.5523 12.7864C37.4971 13.0475 37.384 13.2755 37.213 13.4704C37.0439 13.6635 36.8251 13.8143 36.5566 13.9228C36.29 14.0294 35.982 14.0827 35.6326 14.0827ZM41.7915 9.76346L40.3103 14L38.9864 14L37.5053 9.76346L38.7464 9.76346L39.6263 12.7947L39.6704 12.7947L40.5475 9.76346L41.7915 9.76346ZM42.0044 14L42.0044 9.76346L43.1794 9.76346L43.1794 14L42.0044 14ZM42.5946 9.21734C42.4199 9.21734 42.2701 9.15942 42.145 9.04358C42.0219 8.9259 41.9603 8.78523 41.9603 8.62158C41.9603 8.45977 42.0219 8.32094 42.145 8.2051C42.2701 8.08742 42.4199 8.02858 42.5946 8.02858C42.7693 8.02858 42.9183 8.08742 43.0415 8.2051C43.1665 8.32094 43.229 8.45977 43.229 8.62158C43.229 8.78523 43.1665 8.9259 43.0415 9.04358C42.9183 9.15942 42.7693 9.21734 42.5946 9.21734ZM45.663 14.0827C45.2272 14.0827 44.852 13.9945 44.5376 13.818C44.225 13.6396 43.9841 13.3877 43.815 13.0622C43.6458 12.7349 43.5612 12.3479 43.5612 11.901C43.5612 11.4652 43.6458 11.0828 43.815 10.7536C43.9841 10.4245 44.2223 10.168 44.5293 9.98411C44.8383 9.80024 45.2005 9.7083 45.6161 9.7083C45.8956 9.7083 46.1557 9.75335 46.3966 9.84345C46.6393 9.93171 46.8508 10.065 47.031 10.2434C47.213 10.4217 47.3546 10.6461 47.4558 10.9164C47.5569 11.1848 47.6075 11.4993 47.6075 11.8597L47.6075 12.1824L44.0301 12.1824L44.0301 11.4542L46.5014 11.4542C46.5014 11.285 46.4647 11.1352 46.3911 11.0046C46.3176 10.8741 46.2155 10.772 46.0849 10.6985C45.9562 10.6231 45.8064 10.5854 45.6354 10.5854C45.457 10.5854 45.2989 10.6268 45.161 10.7095C45.0249 10.7904 44.9182 10.8998 44.841 11.0377C44.7638 11.1738 44.7243 11.3255 44.7224 11.4928L44.7224 12.1851C44.7224 12.3947 44.761 12.5759 44.8383 12.7285C44.9173 12.8811 45.0286 12.9988 45.172 13.0815C45.3154 13.1643 45.4855 13.2056 45.6823 13.2056C45.8128 13.2056 45.9323 13.1873 46.0408 13.1505C46.1493 13.1137 46.2422 13.0585 46.3194 12.985C46.3966 12.9114 46.4555 12.8213 46.4959 12.7147L47.5826 12.7864C47.5275 13.0475 47.4144 13.2755 47.2434 13.4704C47.0742 13.6635 46.8554 13.8143 46.5869 13.9228C46.3203 14.0294 46.0123 14.0827 45.663 14.0827ZM48.7913 14L47.6383 9.76346L48.8271 9.76346L49.4836 12.6099L49.5222 12.6099L50.2062 9.76346L51.3729 9.76346L52.068 12.5933L52.1038 12.5933L52.7492 9.76346L53.9352 9.76346L52.7851 14L51.5411 14L50.813 11.3356L50.7606 11.3356L50.0324 14L48.7913 14Z" fill="#D9D9D9"/>
</svg>
