<svg width="330" height="22" viewBox="0 0 330 22" fill="none" xmlns="http://www.w3.org/2000/svg">
<path d="M4.05694 2.35936C4.05694 2.8643 3.88282 3.28509 3.53458 3.62171C3.19215 3.95254 2.6669 4.11795 1.95882 4.11795H0.792227V6.65137H-1.01507e-05V0.583356H1.95882C2.64368 0.583356 3.16313 0.748768 3.51717 1.07959C3.87702 1.41042 4.05694 1.83701 4.05694 2.35936ZM1.95882 3.46501C2.39992 3.46501 2.72494 3.36924 2.93388 3.17771C3.14282 2.98618 3.24729 2.7134 3.24729 2.35936C3.24729 1.61065 2.8178 1.2363 1.95882 1.2363H0.792227V3.46501H1.95882ZM9.39454 4.08313C9.39454 4.23403 9.38583 4.39364 9.36842 4.56195H5.55524C5.58426 5.03207 5.74386 5.40062 6.03406 5.6676C6.33006 5.92878 6.687 6.05937 7.10489 6.05937C7.44732 6.05937 7.73171 5.98101 7.95807 5.82431C8.19022 5.6618 8.35273 5.44705 8.4456 5.18007H9.29877C9.17109 5.63858 8.91571 6.01293 8.53265 6.30313C8.14959 6.58752 7.67367 6.72972 7.10489 6.72972C6.65218 6.72972 6.24591 6.62815 5.88606 6.42501C5.53202 6.22188 5.25343 5.93458 5.05029 5.56313C4.84716 5.18587 4.74559 4.75058 4.74559 4.25725C4.74559 3.76391 4.84426 3.33152 5.04159 2.96007C5.23892 2.58861 5.51461 2.30422 5.86865 2.10689C6.22849 1.90375 6.64057 1.80218 7.10489 1.80218C7.55759 1.80218 7.95807 1.90085 8.3063 2.09818C8.65454 2.29552 8.92152 2.5683 9.10724 2.91654C9.29877 3.25897 9.39454 3.64783 9.39454 4.08313ZM8.57618 3.91772C8.57618 3.61591 8.50944 3.35764 8.37595 3.14289C8.24246 2.92234 8.05963 2.75693 7.82748 2.64665C7.60112 2.53058 7.34865 2.47254 7.07006 2.47254C6.66959 2.47254 6.32716 2.60022 6.04277 2.8556C5.76418 3.11097 5.60457 3.46501 5.56394 3.91772H8.57618ZM11.2325 2.65536C11.3718 2.38257 11.5691 2.17073 11.8245 2.01983C12.0857 1.86893 12.402 1.79348 12.7734 1.79348V2.61183H12.5645C11.6765 2.61183 11.2325 3.09356 11.2325 4.05701V6.65137H10.4403V1.88053H11.2325V2.65536ZM15.6294 2.53348H14.6282V6.65137H13.836V2.53348H13.2179V1.88053H13.836V1.541C13.836 1.00704 13.9724 0.61818 14.2452 0.374414C14.5237 0.124845 14.9677 6.03914e-05 15.5772 6.03914e-05V0.661709C15.2289 0.661709 14.9823 0.731356 14.8372 0.87065C14.6979 1.00414 14.6282 1.22759 14.6282 1.541V1.88053H15.6294V2.53348ZM20.906 4.08313C20.906 4.23403 20.8973 4.39364 20.8799 4.56195H17.0667C17.0958 5.03207 17.2554 5.40062 17.5456 5.6676C17.8416 5.92878 18.1985 6.05937 18.6164 6.05937C18.9588 6.05937 19.2432 5.98101 19.4696 5.82431C19.7017 5.6618 19.8642 5.44705 19.9571 5.18007H20.8103C20.6826 5.63858 20.4272 6.01293 20.0442 6.30313C19.6611 6.58752 19.1852 6.72972 18.6164 6.72972C18.1637 6.72972 17.7574 6.62815 17.3976 6.42501C17.0435 6.22188 16.7649 5.93458 16.5618 5.56313C16.3587 5.18587 16.2571 4.75058 16.2571 4.25725C16.2571 3.76391 16.3558 3.33152 16.5531 2.96007C16.7504 2.58861 17.0261 2.30422 17.3802 2.10689C17.74 1.90375 18.1521 1.80218 18.6164 1.80218C19.0691 1.80218 19.4696 1.90085 19.8178 2.09818C20.166 2.29552 20.433 2.5683 20.6188 2.91654C20.8103 3.25897 20.906 3.64783 20.906 4.08313ZM20.0877 3.91772C20.0877 3.61591 20.0209 3.35764 19.8875 3.14289C19.754 2.92234 19.5711 2.75693 19.339 2.64665C19.1126 2.53058 18.8602 2.47254 18.5816 2.47254C18.1811 2.47254 17.8387 2.60022 17.5543 2.8556C17.2757 3.11097 17.1161 3.46501 17.0755 3.91772H20.0877ZM21.6558 4.25725C21.6558 3.76391 21.7544 3.33442 21.9518 2.96877C22.1491 2.59732 22.4219 2.31003 22.7701 2.10689C23.1242 1.90375 23.5275 1.80218 23.9803 1.80218C24.5664 1.80218 25.0482 1.94438 25.4254 2.22877C25.8085 2.51316 26.061 2.90783 26.1828 3.41277H25.3297C25.2484 3.12258 25.0888 2.89332 24.8508 2.72501C24.6187 2.55669 24.3285 2.47254 23.9803 2.47254C23.5275 2.47254 23.1619 2.62924 22.8833 2.94265C22.6047 3.25026 22.4654 3.68846 22.4654 4.25725C22.4654 4.83183 22.6047 5.27584 22.8833 5.58925C23.1619 5.90266 23.5275 6.05937 23.9803 6.05937C24.3285 6.05937 24.6187 5.97811 24.8508 5.8156C25.083 5.65309 25.2426 5.42093 25.3297 5.11913H26.1828C26.0552 5.60666 25.7998 5.99842 25.4167 6.29443C25.0337 6.58462 24.5548 6.72972 23.9803 6.72972C23.5275 6.72972 23.1242 6.62815 22.7701 6.42501C22.4219 6.22188 22.1491 5.93458 21.9518 5.56313C21.7544 5.19168 21.6558 4.75638 21.6558 4.25725ZM28.2063 2.53348V5.34548C28.2063 5.57764 28.2556 5.74305 28.3543 5.84172C28.453 5.93458 28.6242 5.98101 28.8679 5.98101H29.4512V6.65137H28.7373C28.2962 6.65137 27.9654 6.5498 27.7449 6.34666C27.5243 6.14352 27.414 5.8098 27.414 5.34548V2.53348H26.7959V1.88053H27.414V0.679121H28.2063V1.88053H29.4512V2.53348H28.2063ZM34.6735 2.53348H33.6724V6.65137H32.8801V2.53348H32.262V1.88053H32.8801V1.541C32.8801 1.00704 33.0165 0.61818 33.2893 0.374414C33.5679 0.124845 34.0119 6.03914e-05 34.6213 6.03914e-05V0.661709C34.2731 0.661709 34.0264 0.731356 33.8813 0.87065C33.742 1.00414 33.6724 1.22759 33.6724 1.541V1.88053H34.6735V2.53348ZM37.678 6.72972C37.2311 6.72972 36.8248 6.62815 36.4591 6.42501C36.0993 6.22188 35.8149 5.93458 35.606 5.56313C35.4028 5.18587 35.3013 4.75058 35.3013 4.25725C35.3013 3.76971 35.4057 3.34022 35.6147 2.96877C35.8294 2.59152 36.1196 2.30422 36.4853 2.10689C36.8509 1.90375 37.2601 1.80218 37.7128 1.80218C38.1655 1.80218 38.5747 1.90375 38.9403 2.10689C39.306 2.30422 39.5933 2.58861 39.8022 2.96007C40.0169 3.33152 40.1243 3.76391 40.1243 4.25725C40.1243 4.75058 40.014 5.18587 39.7935 5.56313C39.5788 5.93458 39.2857 6.22188 38.9142 6.42501C38.5427 6.62815 38.1307 6.72972 37.678 6.72972ZM37.678 6.03325C37.9624 6.03325 38.2293 5.9665 38.4789 5.83301C38.7285 5.69952 38.9287 5.49929 39.0796 5.23231C39.2363 4.96532 39.3147 4.6403 39.3147 4.25725C39.3147 3.87419 39.2392 3.54917 39.0883 3.28218C38.9374 3.0152 38.7401 2.81787 38.4963 2.69018C38.2526 2.55669 37.9885 2.48995 37.7041 2.48995C37.4139 2.48995 37.1469 2.55669 36.9031 2.69018C36.6652 2.81787 36.4736 3.0152 36.3285 3.28218C36.1835 3.54917 36.1109 3.87419 36.1109 4.25725C36.1109 4.64611 36.1805 4.97403 36.3198 5.24101C36.4649 5.50799 36.6565 5.70823 36.8944 5.84172C37.1324 5.96941 37.3936 6.03325 37.678 6.03325ZM41.9582 2.65536C42.0975 2.38257 42.2948 2.17073 42.5502 2.01983C42.8114 1.86893 43.1277 1.79348 43.4991 1.79348V2.61183H43.2902C42.4022 2.61183 41.9582 3.09356 41.9582 4.05701V6.65137H41.166V1.88053H41.9582V2.65536ZM48.4236 6.72972C48.058 6.72972 47.7301 6.66878 47.4399 6.5469C47.1497 6.41921 46.9204 6.24509 46.7521 6.02454C46.5838 5.79819 46.4909 5.53991 46.4735 5.24972H47.2919C47.3151 5.48768 47.4253 5.68211 47.6227 5.83301C47.8258 5.98391 48.0899 6.05937 48.4149 6.05937C48.7167 6.05937 48.9547 5.99262 49.1288 5.85913C49.3029 5.72564 49.39 5.55733 49.39 5.35419C49.39 5.14525 49.2971 4.99144 49.1114 4.89278C48.9257 4.7883 48.6384 4.68674 48.2495 4.58807C47.8955 4.49521 47.6053 4.40234 47.3789 4.30948C47.1584 4.21081 46.9668 4.06862 46.8043 3.88289C46.6476 3.69136 46.5693 3.44179 46.5693 3.13418C46.5693 2.89042 46.6418 2.66697 46.7869 2.46383C46.932 2.26069 47.1381 2.10108 47.405 1.98501C47.672 1.86312 47.9767 1.80218 48.3192 1.80218C48.8473 1.80218 49.2739 1.93567 49.5989 2.20265C49.9239 2.46963 50.0981 2.83528 50.1213 3.2996H49.329C49.3116 3.05003 49.2101 2.84979 49.0243 2.69889C48.8444 2.54799 48.6006 2.47254 48.293 2.47254C48.0086 2.47254 47.7823 2.53348 47.614 2.65536C47.4457 2.77724 47.3615 2.93685 47.3615 3.13418C47.3615 3.29089 47.4108 3.42148 47.5095 3.52595C47.614 3.62462 47.7417 3.70587 47.8926 3.76971C48.0493 3.82775 48.264 3.8945 48.5368 3.96995C48.8792 4.06281 49.1578 4.15568 49.3726 4.24854C49.5873 4.3356 49.7701 4.46909 49.921 4.64901C50.0777 4.82893 50.159 5.06399 50.1648 5.35419C50.1648 5.61537 50.0923 5.85042 49.9472 6.05937C49.8021 6.26831 49.596 6.43372 49.329 6.5556C49.0679 6.67168 48.7661 6.72972 48.4236 6.72972ZM57.0204 1.79348C57.3918 1.79348 57.7226 1.87183 58.0128 2.02854C58.303 2.17944 58.5323 2.40869 58.7006 2.7163C58.8689 3.02391 58.9531 3.39826 58.9531 3.83936V6.65137H58.1695V3.95254C58.1695 3.47662 58.0506 3.11387 57.8126 2.8643C57.5804 2.60893 57.2641 2.48124 56.8637 2.48124C56.4516 2.48124 56.1237 2.61473 55.8799 2.88171C55.6361 3.14289 55.5142 3.52305 55.5142 4.02219V6.65137H54.7307V3.95254C54.7307 3.47662 54.6117 3.11387 54.3738 2.8643C54.1416 2.60893 53.8253 2.48124 53.4248 2.48124C53.0127 2.48124 52.6848 2.61473 52.4411 2.88171C52.1973 3.14289 52.0754 3.52305 52.0754 4.02219V6.65137H51.2832V1.88053H52.0754V2.5683C52.2321 2.31873 52.4411 2.1272 52.7022 1.99371C52.9692 1.86022 53.2623 1.79348 53.5815 1.79348C53.982 1.79348 54.336 1.88344 54.6437 2.06336C54.9513 2.24328 55.1805 2.50736 55.3314 2.8556C55.4649 2.51897 55.6855 2.25779 55.9931 2.07206C56.3007 1.88634 56.6431 1.79348 57.0204 1.79348ZM59.9566 4.24854C59.9566 3.76101 60.0553 3.33442 60.2526 2.96877C60.45 2.59732 60.7198 2.31003 61.0623 2.10689C61.4105 1.90375 61.7965 1.80218 62.2202 1.80218C62.638 1.80218 63.0008 1.89214 63.3084 2.07206C63.616 2.25199 63.8453 2.47834 63.9962 2.75112V1.88053H64.7971V6.65137H63.9962V5.76337C63.8395 6.04195 63.6044 6.27411 63.291 6.45984C62.9834 6.63976 62.6235 6.72972 62.2115 6.72972C61.7878 6.72972 61.4047 6.62525 61.0623 6.41631C60.7198 6.20737 60.45 5.91427 60.2526 5.53701C60.0553 5.15976 59.9566 4.73027 59.9566 4.24854ZM63.9962 4.25725C63.9962 3.8974 63.9236 3.58399 63.7785 3.31701C63.6334 3.05003 63.4361 2.84689 63.1865 2.7076C62.9428 2.5625 62.6729 2.48995 62.3769 2.48995C62.0809 2.48995 61.811 2.55959 61.5672 2.69889C61.3235 2.83818 61.129 3.04132 60.9839 3.3083C60.8388 3.57528 60.7663 3.8887 60.7663 4.24854C60.7663 4.61419 60.8388 4.9334 60.9839 5.20619C61.129 5.47317 61.3235 5.67921 61.5672 5.82431C61.811 5.9636 62.0809 6.03325 62.3769 6.03325C62.6729 6.03325 62.9428 5.9636 63.1865 5.82431C63.4361 5.67921 63.6334 5.47317 63.7785 5.20619C63.9236 4.9334 63.9962 4.61709 63.9962 4.25725ZM66.9281 0.209002V6.65137H66.1359V0.209002H66.9281ZM69.0706 0.209002V6.65137H68.2784V0.209002H69.0706ZM73.5341 2.75983C73.6908 2.48705 73.9229 2.26069 74.2306 2.08077C74.544 1.89504 74.9067 1.80218 75.3188 1.80218C75.7425 1.80218 76.1255 1.90375 76.468 2.10689C76.8162 2.31003 77.089 2.59732 77.2863 2.96877C77.4837 3.33442 77.5823 3.76101 77.5823 4.24854C77.5823 4.73027 77.4837 5.15976 77.2863 5.53701C77.089 5.91427 76.8162 6.20737 76.468 6.41631C76.1255 6.62525 75.7425 6.72972 75.3188 6.72972C74.9125 6.72972 74.5527 6.63976 74.2393 6.45984C73.9317 6.27411 73.6966 6.04486 73.5341 5.77207V8.9149H72.7418V1.88053H73.5341V2.75983ZM76.7727 4.24854C76.7727 3.8887 76.7001 3.57528 76.555 3.3083C76.4099 3.04132 76.2126 2.83818 75.963 2.69889C75.7193 2.55959 75.4494 2.48995 75.1534 2.48995C74.8632 2.48995 74.5933 2.5625 74.3437 2.7076C74.1 2.84689 73.9026 3.05293 73.7517 3.32571C73.6066 3.59269 73.5341 3.90321 73.5341 4.25725C73.5341 4.61709 73.6066 4.9334 73.7517 5.20619C73.9026 5.47317 74.1 5.67921 74.3437 5.82431C74.5933 5.9636 74.8632 6.03325 75.1534 6.03325C75.4494 6.03325 75.7193 5.9636 75.963 5.82431C76.2126 5.67921 76.4099 5.47317 76.555 5.20619C76.7001 4.9334 76.7727 4.61419 76.7727 4.24854ZM80.7058 6.72972C80.2589 6.72972 79.8527 6.62815 79.487 6.42501C79.1272 6.22188 78.8428 5.93458 78.6338 5.56313C78.4307 5.18587 78.3291 4.75058 78.3291 4.25725C78.3291 3.76971 78.4336 3.34022 78.6425 2.96877C78.8573 2.59152 79.1475 2.30422 79.5131 2.10689C79.8788 1.90375 80.288 1.80218 80.7407 1.80218C81.1934 1.80218 81.6026 1.90375 81.9682 2.10689C82.3338 2.30422 82.6211 2.58861 82.8301 2.96007C83.0448 3.33152 83.1522 3.76391 83.1522 4.25725C83.1522 4.75058 83.0419 5.18587 82.8214 5.56313C82.6066 5.93458 82.3135 6.22188 81.9421 6.42501C81.5706 6.62815 81.1586 6.72972 80.7058 6.72972ZM80.7058 6.03325C80.9902 6.03325 81.2572 5.9665 81.5068 5.83301C81.7564 5.69952 81.9566 5.49929 82.1075 5.23231C82.2642 4.96532 82.3426 4.6403 82.3426 4.25725C82.3426 3.87419 82.2671 3.54917 82.1162 3.28218C81.9653 3.0152 81.768 2.81787 81.5242 2.69018C81.2804 2.55669 81.0164 2.48995 80.732 2.48995C80.4418 2.48995 80.1748 2.55669 79.931 2.69018C79.6931 2.81787 79.5015 3.0152 79.3564 3.28218C79.2113 3.54917 79.1388 3.87419 79.1388 4.25725C79.1388 4.64611 79.2084 4.97403 79.3477 5.24101C79.4928 5.50799 79.6844 5.70823 79.9223 5.84172C80.1603 5.96941 80.4215 6.03325 80.7058 6.03325ZM84.9861 2.65536C85.1254 2.38257 85.3227 2.17073 85.5781 2.01983C85.8393 1.86893 86.1556 1.79348 86.527 1.79348V2.61183H86.3181C85.4301 2.61183 84.9861 3.09356 84.9861 4.05701V6.65137H84.1938V1.88053H84.9861V2.65536ZM88.4079 2.53348V5.34548C88.4079 5.57764 88.4572 5.74305 88.5559 5.84172C88.6546 5.93458 88.8258 5.98101 89.0696 5.98101H89.6529V6.65137H88.939C88.4979 6.65137 88.167 6.5498 87.9465 6.34666C87.7259 6.14352 87.6157 5.8098 87.6157 5.34548V2.53348H86.9976V1.88053H87.6157V0.679121H88.4079V1.88053H89.6529V2.53348H88.4079ZM91.0219 1.10571C90.871 1.10571 90.7433 1.05347 90.6389 0.949004C90.5344 0.844533 90.4822 0.716846 90.4822 0.565944C90.4822 0.415042 90.5344 0.287355 90.6389 0.182884C90.7433 0.0784137 90.871 0.0261783 91.0219 0.0261783C91.167 0.0261783 91.2889 0.0784137 91.3876 0.182884C91.492 0.287355 91.5443 0.415042 91.5443 0.565944C91.5443 0.716846 91.492 0.844533 91.3876 0.949004C91.2889 1.05347 91.167 1.10571 91.0219 1.10571ZM91.405 1.88053V6.65137H90.6127V1.88053H91.405ZM94.8359 6.72972C94.389 6.72972 93.9827 6.62815 93.6171 6.42501C93.2573 6.22188 92.9729 5.93458 92.7639 5.56313C92.5608 5.18587 92.4592 4.75058 92.4592 4.25725C92.4592 3.76971 92.5637 3.34022 92.7726 2.96877C92.9874 2.59152 93.2776 2.30422 93.6432 2.10689C94.0089 1.90375 94.418 1.80218 94.8707 1.80218C95.3235 1.80218 95.7326 1.90375 96.0983 2.10689C96.4639 2.30422 96.7512 2.58861 96.9602 2.96007C97.1749 3.33152 97.2823 3.76391 97.2823 4.25725C97.2823 4.75058 97.172 5.18587 96.9515 5.56313C96.7367 5.93458 96.4436 6.22188 96.0722 6.42501C95.7007 6.62815 95.2886 6.72972 94.8359 6.72972ZM94.8359 6.03325C95.1203 6.03325 95.3873 5.9665 95.6369 5.83301C95.8864 5.69952 96.0867 5.49929 96.2376 5.23231C96.3943 4.96532 96.4726 4.6403 96.4726 4.25725C96.4726 3.87419 96.3972 3.54917 96.2463 3.28218C96.0954 3.0152 95.898 2.81787 95.6543 2.69018C95.4105 2.55669 95.1464 2.48995 94.862 2.48995C94.5718 2.48995 94.3049 2.55669 94.0611 2.69018C93.8231 2.81787 93.6316 3.0152 93.4865 3.28218C93.3414 3.54917 93.2689 3.87419 93.2689 4.25725C93.2689 4.64611 93.3385 4.97403 93.4778 5.24101C93.6229 5.50799 93.8144 5.70823 94.0524 5.84172C94.2904 5.96941 94.5515 6.03325 94.8359 6.03325ZM100.648 1.79348C101.229 1.79348 101.699 1.9705 102.059 2.32454C102.419 2.67277 102.599 3.17771 102.599 3.83936V6.65137H101.815V3.95254C101.815 3.47662 101.696 3.11387 101.458 2.8643C101.22 2.60893 100.895 2.48124 100.483 2.48124C100.065 2.48124 99.7314 2.61183 99.4818 2.87301C99.238 3.13418 99.1162 3.51434 99.1162 4.01348V6.65137H98.3239V1.88053H99.1162V2.55959C99.2729 2.31583 99.4847 2.1272 99.7517 1.99371C100.024 1.86022 100.323 1.79348 100.648 1.79348ZM105.582 6.72972C105.216 6.72972 104.888 6.66878 104.598 6.5469C104.308 6.41921 104.078 6.24509 103.91 6.02454C103.742 5.79819 103.649 5.53991 103.631 5.24972H104.45C104.473 5.48768 104.583 5.68211 104.781 5.83301C104.984 5.98391 105.248 6.05937 105.573 6.05937C105.875 6.05937 106.113 5.99262 106.287 5.85913C106.461 5.72564 106.548 5.55733 106.548 5.35419C106.548 5.14525 106.455 4.99144 106.269 4.89278C106.084 4.7883 105.796 4.68674 105.407 4.58807C105.053 4.49521 104.763 4.40234 104.537 4.30948C104.316 4.21081 104.125 4.06862 103.962 3.88289C103.806 3.69136 103.727 3.44179 103.727 3.13418C103.727 2.89042 103.8 2.66697 103.945 2.46383C104.09 2.26069 104.296 2.10108 104.563 1.98501C104.83 1.86312 105.135 1.80218 105.477 1.80218C106.005 1.80218 106.432 1.93567 106.757 2.20265C107.082 2.46963 107.256 2.83528 107.279 3.2996H106.487C106.47 3.05003 106.368 2.84979 106.182 2.69889C106.002 2.54799 105.759 2.47254 105.451 2.47254C105.167 2.47254 104.94 2.53348 104.772 2.65536C104.604 2.77724 104.519 2.93685 104.519 3.13418C104.519 3.29089 104.569 3.42148 104.667 3.52595C104.772 3.62462 104.9 3.70587 105.051 3.76971C105.207 3.82775 105.422 3.8945 105.695 3.96995C106.037 4.06281 106.316 4.15568 106.531 4.24854C106.745 4.3356 106.928 4.46909 107.079 4.64901C107.236 4.82893 107.317 5.06399 107.323 5.35419C107.323 5.61537 107.25 5.85042 107.105 6.05937C106.96 6.26831 106.754 6.43372 106.487 6.5556C106.226 6.67168 105.924 6.72972 105.582 6.72972ZM112.843 6.72972C112.396 6.72972 111.99 6.62815 111.624 6.42501C111.264 6.22188 110.98 5.93458 110.771 5.56313C110.568 5.18587 110.466 4.75058 110.466 4.25725C110.466 3.76971 110.571 3.34022 110.78 2.96877C110.994 2.59152 111.284 2.30422 111.65 2.10689C112.016 1.90375 112.425 1.80218 112.878 1.80218C113.33 1.80218 113.74 1.90375 114.105 2.10689C114.471 2.30422 114.758 2.58861 114.967 2.96007C115.182 3.33152 115.289 3.76391 115.289 4.25725C115.289 4.75058 115.179 5.18587 114.958 5.56313C114.744 5.93458 114.451 6.22188 114.079 6.42501C113.708 6.62815 113.296 6.72972 112.843 6.72972ZM112.843 6.03325C113.127 6.03325 113.394 5.9665 113.644 5.83301C113.893 5.69952 114.094 5.49929 114.245 5.23231C114.401 4.96532 114.48 4.6403 114.48 4.25725C114.48 3.87419 114.404 3.54917 114.253 3.28218C114.102 3.0152 113.905 2.81787 113.661 2.69018C113.417 2.55669 113.153 2.48995 112.869 2.48995C112.579 2.48995 112.312 2.55669 112.068 2.69018C111.83 2.81787 111.639 3.0152 111.493 3.28218C111.348 3.54917 111.276 3.87419 111.276 4.25725C111.276 4.64611 111.345 4.97403 111.485 5.24101C111.63 5.50799 111.821 5.70823 112.059 5.84172C112.297 5.96941 112.558 6.03325 112.843 6.03325ZM118.272 2.53348H117.271V6.65137H116.479V2.53348H115.861V1.88053H116.479V1.541C116.479 1.00704 116.615 0.61818 116.888 0.374414C117.167 0.124845 117.611 6.03914e-05 118.22 6.03914e-05V0.661709C117.872 0.661709 117.625 0.731356 117.48 0.87065C117.341 1.00414 117.271 1.22759 117.271 1.541V1.88053H118.272V2.53348ZM123.206 6.72972C122.84 6.72972 122.512 6.66878 122.222 6.5469C121.932 6.41921 121.703 6.24509 121.534 6.02454C121.366 5.79819 121.273 5.53991 121.256 5.24972H122.074C122.097 5.48768 122.208 5.68211 122.405 5.83301C122.608 5.98391 122.872 6.05937 123.197 6.05937C123.499 6.05937 123.737 5.99262 123.911 5.85913C124.085 5.72564 124.172 5.55733 124.172 5.35419C124.172 5.14525 124.079 4.99144 123.894 4.89278C123.708 4.7883 123.421 4.68674 123.032 4.58807C122.678 4.49521 122.388 4.40234 122.161 4.30948C121.941 4.21081 121.749 4.06862 121.587 3.88289C121.43 3.69136 121.352 3.44179 121.352 3.13418C121.352 2.89042 121.424 2.66697 121.569 2.46383C121.714 2.26069 121.92 2.10108 122.187 1.98501C122.454 1.86312 122.759 1.80218 123.101 1.80218C123.63 1.80218 124.056 1.93567 124.381 2.20265C124.706 2.46963 124.88 2.83528 124.904 3.2996H124.111C124.094 3.05003 123.992 2.84979 123.807 2.69889C123.627 2.54799 123.383 2.47254 123.075 2.47254C122.791 2.47254 122.565 2.53348 122.396 2.65536C122.228 2.77724 122.144 2.93685 122.144 3.13418C122.144 3.29089 122.193 3.42148 122.292 3.52595C122.396 3.62462 122.524 3.70587 122.675 3.76971C122.832 3.82775 123.046 3.8945 123.319 3.96995C123.662 4.06281 123.94 4.15568 124.155 4.24854C124.37 4.3356 124.552 4.46909 124.703 4.64901C124.86 4.82893 124.941 5.06399 124.947 5.35419C124.947 5.61537 124.875 5.85042 124.729 6.05937C124.584 6.26831 124.378 6.43372 124.111 6.5556C123.85 6.67168 123.548 6.72972 123.206 6.72972ZM132.421 1.88053L130.932 6.65137H130.114L128.965 2.8643L127.815 6.65137H126.997L125.5 1.88053H126.309L127.406 5.88525L128.59 1.88053H129.4L130.558 5.89395L131.637 1.88053H132.421ZM137.56 4.08313C137.56 4.23403 137.551 4.39364 137.534 4.56195H133.721C133.75 5.03207 133.909 5.40062 134.2 5.6676C134.496 5.92878 134.852 6.05937 135.27 6.05937C135.613 6.05937 135.897 5.98101 136.124 5.82431C136.356 5.6618 136.518 5.44705 136.611 5.18007H137.464C137.337 5.63858 137.081 6.01293 136.698 6.30313C136.315 6.58752 135.839 6.72972 135.27 6.72972C134.818 6.72972 134.411 6.62815 134.052 6.42501C133.697 6.22188 133.419 5.93458 133.216 5.56313C133.013 5.18587 132.911 4.75058 132.911 4.25725C132.911 3.76391 133.01 3.33152 133.207 2.96007C133.404 2.58861 133.68 2.30422 134.034 2.10689C134.394 1.90375 134.806 1.80218 135.27 1.80218C135.723 1.80218 136.124 1.90085 136.472 2.09818C136.82 2.29552 137.087 2.5683 137.273 2.91654C137.464 3.25897 137.56 3.64783 137.56 4.08313ZM136.742 3.91772C136.742 3.61591 136.675 3.35764 136.541 3.14289C136.408 2.92234 136.225 2.75693 135.993 2.64665C135.767 2.53058 135.514 2.47254 135.236 2.47254C134.835 2.47254 134.493 2.60022 134.208 2.8556C133.93 3.11097 133.77 3.46501 133.729 3.91772H136.742ZM142.959 4.08313C142.959 4.23403 142.95 4.39364 142.933 4.56195H139.119C139.148 5.03207 139.308 5.40062 139.598 5.6676C139.894 5.92878 140.251 6.05937 140.669 6.05937C141.011 6.05937 141.296 5.98101 141.522 5.82431C141.754 5.6618 141.917 5.44705 142.01 5.18007H142.863C142.735 5.63858 142.48 6.01293 142.097 6.30313C141.714 6.58752 141.238 6.72972 140.669 6.72972C140.216 6.72972 139.81 6.62815 139.45 6.42501C139.096 6.22188 138.818 5.93458 138.614 5.56313C138.411 5.18587 138.31 4.75058 138.31 4.25725C138.31 3.76391 138.408 3.33152 138.606 2.96007C138.803 2.58861 139.079 2.30422 139.433 2.10689C139.793 1.90375 140.205 1.80218 140.669 1.80218C141.122 1.80218 141.522 1.90085 141.87 2.09818C142.219 2.29552 142.486 2.5683 142.671 2.91654C142.863 3.25897 142.959 3.64783 142.959 4.08313ZM142.14 3.91772C142.14 3.61591 142.074 3.35764 141.94 3.14289C141.807 2.92234 141.624 2.75693 141.392 2.64665C141.165 2.53058 140.913 2.47254 140.634 2.47254C140.234 2.47254 139.891 2.60022 139.607 2.8556C139.328 3.11097 139.169 3.46501 139.128 3.91772H142.14ZM144.971 2.53348V5.34548C144.971 5.57764 145.02 5.74305 145.119 5.84172C145.217 5.93458 145.389 5.98101 145.632 5.98101H146.216V6.65137H145.502C145.061 6.65137 144.73 6.5498 144.509 6.34666C144.289 6.14352 144.179 5.8098 144.179 5.34548V2.53348H143.56V1.88053H144.179V0.679121H144.971V1.88053H146.216V2.53348H144.971ZM148.865 6.72972C148.499 6.72972 148.171 6.66878 147.881 6.5469C147.591 6.41921 147.361 6.24509 147.193 6.02454C147.025 5.79819 146.932 5.53991 146.914 5.24972H147.733C147.756 5.48768 147.866 5.68211 148.064 5.83301C148.267 5.98391 148.531 6.05937 148.856 6.05937C149.158 6.05937 149.396 5.99262 149.57 5.85913C149.744 5.72564 149.831 5.55733 149.831 5.35419C149.831 5.14525 149.738 4.99144 149.552 4.89278C149.367 4.7883 149.079 4.68674 148.69 4.58807C148.336 4.49521 148.046 4.40234 147.82 4.30948C147.599 4.21081 147.408 4.06862 147.245 3.88289C147.089 3.69136 147.01 3.44179 147.01 3.13418C147.01 2.89042 147.083 2.66697 147.228 2.46383C147.373 2.26069 147.579 2.10108 147.846 1.98501C148.113 1.86312 148.418 1.80218 148.76 1.80218C149.288 1.80218 149.715 1.93567 150.04 2.20265C150.365 2.46963 150.539 2.83528 150.562 3.2996H149.77C149.753 3.05003 149.651 2.84979 149.465 2.69889C149.285 2.54799 149.042 2.47254 148.734 2.47254C148.45 2.47254 148.223 2.53348 148.055 2.65536C147.887 2.77724 147.802 2.93685 147.802 3.13418C147.802 3.29089 147.852 3.42148 147.95 3.52595C148.055 3.62462 148.183 3.70587 148.333 3.76971C148.49 3.82775 148.705 3.8945 148.978 3.96995C149.32 4.06281 149.599 4.15568 149.813 4.24854C150.028 4.3356 150.211 4.46909 150.362 4.64901C150.519 4.82893 150.6 5.06399 150.606 5.35419C150.606 5.61537 150.533 5.85042 150.388 6.05937C150.243 6.26831 150.037 6.43372 149.77 6.5556C149.509 6.67168 149.207 6.72972 148.865 6.72972ZM152.542 5.55442L151.567 7.89631H151.036L151.672 5.55442H152.542ZM157.46 6.72972C157.094 6.72972 156.766 6.66878 156.476 6.5469C156.186 6.41921 155.957 6.24509 155.788 6.02454C155.62 5.79819 155.527 5.53991 155.51 5.24972H156.328C156.351 5.48768 156.462 5.68211 156.659 5.83301C156.862 5.98391 157.126 6.05937 157.451 6.05937C157.753 6.05937 157.991 5.99262 158.165 5.85913C158.339 5.72564 158.426 5.55733 158.426 5.35419C158.426 5.14525 158.333 4.99144 158.148 4.89278C157.962 4.7883 157.675 4.68674 157.286 4.58807C156.932 4.49521 156.642 4.40234 156.415 4.30948C156.195 4.21081 156.003 4.06862 155.841 3.88289C155.684 3.69136 155.606 3.44179 155.606 3.13418C155.606 2.89042 155.678 2.66697 155.823 2.46383C155.968 2.26069 156.174 2.10108 156.441 1.98501C156.708 1.86312 157.013 1.80218 157.355 1.80218C157.884 1.80218 158.31 1.93567 158.635 2.20265C158.96 2.46963 159.134 2.83528 159.158 3.2996H158.365C158.348 3.05003 158.246 2.84979 158.061 2.69889C157.881 2.54799 157.637 2.47254 157.329 2.47254C157.045 2.47254 156.819 2.53348 156.65 2.65536C156.482 2.77724 156.398 2.93685 156.398 3.13418C156.398 3.29089 156.447 3.42148 156.546 3.52595C156.65 3.62462 156.778 3.70587 156.929 3.76971C157.086 3.82775 157.3 3.8945 157.573 3.96995C157.916 4.06281 158.194 4.15568 158.409 4.24854C158.624 4.3356 158.806 4.46909 158.957 4.64901C159.114 4.82893 159.195 5.06399 159.201 5.35419C159.201 5.61537 159.129 5.85042 158.983 6.05937C158.838 6.26831 158.632 6.43372 158.365 6.5556C158.104 6.67168 157.802 6.72972 157.46 6.72972ZM162.644 1.79348C163.224 1.79348 163.694 1.9705 164.054 2.32454C164.414 2.67277 164.594 3.17771 164.594 3.83936V6.65137H163.811V3.95254C163.811 3.47662 163.692 3.11387 163.454 2.8643C163.216 2.60893 162.891 2.48124 162.479 2.48124C162.061 2.48124 161.727 2.61183 161.477 2.87301C161.234 3.13418 161.112 3.51434 161.112 4.01348V6.65137H160.319V1.88053H161.112V2.55959C161.268 2.31583 161.48 2.1272 161.747 1.99371C162.02 1.86022 162.319 1.79348 162.644 1.79348ZM165.592 4.24854C165.592 3.76101 165.691 3.33442 165.888 2.96877C166.085 2.59732 166.355 2.31003 166.698 2.10689C167.046 1.90375 167.432 1.80218 167.856 1.80218C168.274 1.80218 168.636 1.89214 168.944 2.07206C169.252 2.25199 169.481 2.47834 169.632 2.75112V1.88053H170.433V6.65137H169.632V5.76337C169.475 6.04195 169.24 6.27411 168.927 6.45984C168.619 6.63976 168.259 6.72972 167.847 6.72972C167.423 6.72972 167.04 6.62525 166.698 6.41631C166.355 6.20737 166.085 5.91427 165.888 5.53701C165.691 5.15976 165.592 4.73027 165.592 4.24854ZM169.632 4.25725C169.632 3.8974 169.559 3.58399 169.414 3.31701C169.269 3.05003 169.072 2.84689 168.822 2.7076C168.578 2.5625 168.308 2.48995 168.012 2.48995C167.716 2.48995 167.447 2.55959 167.203 2.69889C166.959 2.83818 166.765 3.04132 166.619 3.3083C166.474 3.57528 166.402 3.8887 166.402 4.24854C166.402 4.61419 166.474 4.9334 166.619 5.20619C166.765 5.47317 166.959 5.67921 167.203 5.82431C167.447 5.9636 167.716 6.03325 168.012 6.03325C168.308 6.03325 168.578 5.9636 168.822 5.82431C169.072 5.67921 169.269 5.47317 169.414 5.20619C169.559 4.9334 169.632 4.61709 169.632 4.25725ZM171.475 4.25725C171.475 3.76391 171.574 3.33442 171.771 2.96877C171.969 2.59732 172.242 2.31003 172.59 2.10689C172.944 1.90375 173.347 1.80218 173.8 1.80218C174.386 1.80218 174.868 1.94438 175.245 2.22877C175.628 2.51316 175.881 2.90783 176.003 3.41277H175.149C175.068 3.12258 174.908 2.89332 174.671 2.72501C174.438 2.55669 174.148 2.47254 173.8 2.47254C173.347 2.47254 172.982 2.62924 172.703 2.94265C172.424 3.25026 172.285 3.68846 172.285 4.25725C172.285 4.83183 172.424 5.27584 172.703 5.58925C172.982 5.90266 173.347 6.05937 173.8 6.05937C174.148 6.05937 174.438 5.97811 174.671 5.8156C174.903 5.65309 175.062 5.42093 175.149 5.11913H176.003C175.875 5.60666 175.619 5.99842 175.236 6.29443C174.853 6.58462 174.375 6.72972 173.8 6.72972C173.347 6.72972 172.944 6.62815 172.59 6.42501C172.242 6.22188 171.969 5.93458 171.771 5.56313C171.574 5.19168 171.475 4.75638 171.475 4.25725ZM179.724 6.65137L177.852 4.54454V6.65137H177.06V0.209002H177.852V3.99607L179.689 1.88053H180.794L178.548 4.25725L180.803 6.65137H179.724ZM183.229 6.72972C182.863 6.72972 182.535 6.66878 182.245 6.5469C181.955 6.41921 181.726 6.24509 181.557 6.02454C181.389 5.79819 181.296 5.53991 181.279 5.24972H182.097C182.12 5.48768 182.231 5.68211 182.428 5.83301C182.631 5.98391 182.895 6.05937 183.22 6.05937C183.522 6.05937 183.76 5.99262 183.934 5.85913C184.108 5.72564 184.195 5.55733 184.195 5.35419C184.195 5.14525 184.103 4.99144 183.917 4.89278C183.731 4.7883 183.444 4.68674 183.055 4.58807C182.701 4.49521 182.411 4.40234 182.184 4.30948C181.964 4.21081 181.772 4.06862 181.61 3.88289C181.453 3.69136 181.375 3.44179 181.375 3.13418C181.375 2.89042 181.447 2.66697 181.592 2.46383C181.737 2.26069 181.943 2.10108 182.21 1.98501C182.477 1.86312 182.782 1.80218 183.125 1.80218C183.653 1.80218 184.079 1.93567 184.404 2.20265C184.729 2.46963 184.903 2.83528 184.927 3.2996H184.134C184.117 3.05003 184.015 2.84979 183.83 2.69889C183.65 2.54799 183.406 2.47254 183.098 2.47254C182.814 2.47254 182.588 2.53348 182.419 2.65536C182.251 2.77724 182.167 2.93685 182.167 3.13418C182.167 3.29089 182.216 3.42148 182.315 3.52595C182.419 3.62462 182.547 3.70587 182.698 3.76971C182.855 3.82775 183.069 3.8945 183.342 3.96995C183.685 4.06281 183.963 4.15568 184.178 4.24854C184.393 4.3356 184.576 4.46909 184.726 4.64901C184.883 4.82893 184.964 5.06399 184.97 5.35419C184.97 5.61537 184.898 5.85042 184.753 6.05937C184.607 6.26831 184.401 6.43372 184.134 6.5556C183.873 6.67168 183.571 6.72972 183.229 6.72972ZM186.907 5.55442L185.932 7.89631H185.401L186.036 5.55442H186.907ZM192.216 6.72972C191.769 6.72972 191.363 6.62815 190.997 6.42501C190.637 6.22188 190.353 5.93458 190.144 5.56313C189.941 5.18587 189.839 4.75058 189.839 4.25725C189.839 3.76971 189.944 3.34022 190.153 2.96877C190.368 2.59152 190.658 2.30422 191.023 2.10689C191.389 1.90375 191.798 1.80218 192.251 1.80218C192.704 1.80218 193.113 1.90375 193.479 2.10689C193.844 2.30422 194.131 2.58861 194.34 2.96007C194.555 3.33152 194.663 3.76391 194.663 4.25725C194.663 4.75058 194.552 5.18587 194.332 5.56313C194.117 5.93458 193.824 6.22188 193.452 6.42501C193.081 6.62815 192.669 6.72972 192.216 6.72972ZM192.216 6.03325C192.501 6.03325 192.768 5.9665 193.017 5.83301C193.267 5.69952 193.467 5.49929 193.618 5.23231C193.775 4.96532 193.853 4.6403 193.853 4.25725C193.853 3.87419 193.777 3.54917 193.627 3.28218C193.476 3.0152 193.278 2.81787 193.035 2.69018C192.791 2.55669 192.527 2.48995 192.242 2.48995C191.952 2.48995 191.685 2.55669 191.441 2.69018C191.203 2.81787 191.012 3.0152 190.867 3.28218C190.722 3.54917 190.649 3.87419 190.649 4.25725C190.649 4.64611 190.719 4.97403 190.858 5.24101C191.003 5.50799 191.195 5.70823 191.433 5.84172C191.671 5.96941 191.932 6.03325 192.216 6.03325ZM196.496 2.65536C196.636 2.38257 196.833 2.17073 197.088 2.01983C197.35 1.86893 197.666 1.79348 198.037 1.79348V2.61183H197.828C196.94 2.61183 196.496 3.09356 196.496 4.05701V6.65137H195.704V1.88053H196.496V2.65536ZM202.065 2.75983C202.222 2.48705 202.454 2.26069 202.762 2.08077C203.075 1.89504 203.438 1.80218 203.85 1.80218C204.274 1.80218 204.657 1.90375 204.999 2.10689C205.347 2.31003 205.62 2.59732 205.817 2.96877C206.015 3.33442 206.113 3.76101 206.113 4.24854C206.113 4.73027 206.015 5.15976 205.817 5.53701C205.62 5.91427 205.347 6.20737 204.999 6.41631C204.657 6.62525 204.274 6.72972 203.85 6.72972C203.444 6.72972 203.084 6.63976 202.77 6.45984C202.463 6.27411 202.228 6.04486 202.065 5.77207V8.9149H201.273V1.88053H202.065V2.75983ZM205.304 4.24854C205.304 3.8887 205.231 3.57528 205.086 3.3083C204.941 3.04132 204.744 2.83818 204.494 2.69889C204.25 2.55959 203.98 2.48995 203.684 2.48995C203.394 2.48995 203.124 2.5625 202.875 2.7076C202.631 2.84689 202.434 3.05293 202.283 3.32571C202.138 3.59269 202.065 3.90321 202.065 4.25725C202.065 4.61709 202.138 4.9334 202.283 5.20619C202.434 5.47317 202.631 5.67921 202.875 5.82431C203.124 5.9636 203.394 6.03325 203.684 6.03325C203.98 6.03325 204.25 5.9636 204.494 5.82431C204.744 5.67921 204.941 5.47317 205.086 5.20619C205.231 4.9334 205.304 4.61419 205.304 4.24854ZM207.565 1.10571C207.414 1.10571 207.287 1.05347 207.182 0.949004C207.078 0.844533 207.026 0.716846 207.026 0.565944C207.026 0.415042 207.078 0.287355 207.182 0.182884C207.287 0.0784137 207.414 0.0261783 207.565 0.0261783C207.71 0.0261783 207.832 0.0784137 207.931 0.182884C208.035 0.287355 208.088 0.415042 208.088 0.565944C208.088 0.716846 208.035 0.844533 207.931 0.949004C207.832 1.05347 207.71 1.10571 207.565 1.10571ZM207.948 1.88053V6.65137H207.156V1.88053H207.948ZM209.003 4.25725C209.003 3.76391 209.101 3.33442 209.299 2.96877C209.496 2.59732 209.769 2.31003 210.117 2.10689C210.471 1.90375 210.874 1.80218 211.327 1.80218C211.913 1.80218 212.395 1.94438 212.772 2.22877C213.155 2.51316 213.408 2.90783 213.53 3.41277H212.677C212.595 3.12258 212.436 2.89332 212.198 2.72501C211.966 2.55669 211.675 2.47254 211.327 2.47254C210.874 2.47254 210.509 2.62924 210.23 2.94265C209.952 3.25026 209.812 3.68846 209.812 4.25725C209.812 4.83183 209.952 5.27584 210.23 5.58925C210.509 5.90266 210.874 6.05937 211.327 6.05937C211.675 6.05937 211.966 5.97811 212.198 5.8156C212.43 5.65309 212.589 5.42093 212.677 5.11913H213.53C213.402 5.60666 213.147 5.99842 212.764 6.29443C212.381 6.58462 211.902 6.72972 211.327 6.72972C210.874 6.72972 210.471 6.62815 210.117 6.42501C209.769 6.22188 209.496 5.93458 209.299 5.56313C209.101 5.19168 209.003 4.75638 209.003 4.25725ZM217.251 6.65137L215.379 4.54454V6.65137H214.587V0.209002H215.379V3.99607L217.216 1.88053H218.322L216.075 4.25725L218.33 6.65137H217.251ZM219.859 0.209002V6.65137H219.067V0.209002H219.859ZM225.563 4.08313C225.563 4.23403 225.554 4.39364 225.537 4.56195H221.723C221.752 5.03207 221.912 5.40062 222.202 5.6676C222.498 5.92878 222.855 6.05937 223.273 6.05937C223.615 6.05937 223.9 5.98101 224.126 5.82431C224.358 5.6618 224.521 5.44705 224.614 5.18007H225.467C225.339 5.63858 225.084 6.01293 224.701 6.30313C224.318 6.58752 223.842 6.72972 223.273 6.72972C222.82 6.72972 222.414 6.62815 222.054 6.42501C221.7 6.22188 221.422 5.93458 221.218 5.56313C221.015 5.18587 220.914 4.75058 220.914 4.25725C220.914 3.76391 221.012 3.33152 221.21 2.96007C221.407 2.58861 221.683 2.30422 222.037 2.10689C222.397 1.90375 222.809 1.80218 223.273 1.80218C223.726 1.80218 224.126 1.90085 224.474 2.09818C224.823 2.29552 225.09 2.5683 225.275 2.91654C225.467 3.25897 225.563 3.64783 225.563 4.08313ZM224.744 3.91772C224.744 3.61591 224.678 3.35764 224.544 3.14289C224.411 2.92234 224.228 2.75693 223.996 2.64665C223.769 2.53058 223.517 2.47254 223.238 2.47254C222.838 2.47254 222.495 2.60022 222.211 2.8556C221.932 3.11097 221.773 3.46501 221.732 3.91772H224.744ZM228.297 6.72972C227.932 6.72972 227.604 6.66878 227.314 6.5469C227.023 6.41921 226.794 6.24509 226.626 6.02454C226.458 5.79819 226.365 5.53991 226.347 5.24972H227.166C227.189 5.48768 227.299 5.68211 227.496 5.83301C227.7 5.98391 227.964 6.05937 228.289 6.05937C228.59 6.05937 228.828 5.99262 229.003 5.85913C229.177 5.72564 229.264 5.55733 229.264 5.35419C229.264 5.14525 229.171 4.99144 228.985 4.89278C228.799 4.7883 228.512 4.68674 228.123 4.58807C227.769 4.49521 227.479 4.40234 227.253 4.30948C227.032 4.21081 226.841 4.06862 226.678 3.88289C226.521 3.69136 226.443 3.44179 226.443 3.13418C226.443 2.89042 226.516 2.66697 226.661 2.46383C226.806 2.26069 227.012 2.10108 227.279 1.98501C227.546 1.86312 227.85 1.80218 228.193 1.80218C228.721 1.80218 229.148 1.93567 229.473 2.20265C229.798 2.46963 229.972 2.83528 229.995 3.2996H229.203C229.185 3.05003 229.084 2.84979 228.898 2.69889C228.718 2.54799 228.474 2.47254 228.167 2.47254C227.882 2.47254 227.656 2.53348 227.488 2.65536C227.319 2.77724 227.235 2.93685 227.235 3.13418C227.235 3.29089 227.285 3.42148 227.383 3.52595C227.488 3.62462 227.615 3.70587 227.766 3.76971C227.923 3.82775 228.138 3.8945 228.411 3.96995C228.753 4.06281 229.032 4.15568 229.246 4.24854C229.461 4.3356 229.644 4.46909 229.795 4.64901C229.951 4.82893 230.033 5.06399 230.039 5.35419C230.039 5.61537 229.966 5.85042 229.821 6.05937C229.676 6.26831 229.47 6.43372 229.203 6.5556C228.942 6.67168 228.64 6.72972 228.297 6.72972ZM239.833 1.88053L238.344 6.65137H237.526L236.377 2.8643L235.228 6.65137H234.409L232.912 1.88053H233.722L234.819 5.88525L236.003 1.88053H236.812L237.97 5.89395L239.05 1.88053H239.833ZM241.029 1.10571C240.878 1.10571 240.75 1.05347 240.646 0.949004C240.541 0.844533 240.489 0.716846 240.489 0.565944C240.489 0.415042 240.541 0.287355 240.646 0.182884C240.75 0.0784137 240.878 0.0261783 241.029 0.0261783C241.174 0.0261783 241.296 0.0784137 241.394 0.182884C241.499 0.287355 241.551 0.415042 241.551 0.565944C241.551 0.716846 241.499 0.844533 241.394 0.949004C241.296 1.05347 241.174 1.10571 241.029 1.10571ZM241.412 1.88053V6.65137H240.619V1.88053H241.412ZM243.728 2.53348V5.34548C243.728 5.57764 243.778 5.74305 243.876 5.84172C243.975 5.93458 244.146 5.98101 244.39 5.98101H244.973V6.65137H244.259C243.818 6.65137 243.487 6.5498 243.267 6.34666C243.046 6.14352 242.936 5.8098 242.936 5.34548V2.53348H242.318V1.88053H242.936V0.679121H243.728V1.88053H244.973V2.53348H243.728ZM248.301 1.79348C248.661 1.79348 248.986 1.87183 249.276 2.02854C249.566 2.17944 249.793 2.40869 249.955 2.7163C250.124 3.02391 250.208 3.39826 250.208 3.83936V6.65137H249.424V3.95254C249.424 3.47662 249.305 3.11387 249.067 2.8643C248.829 2.60893 248.504 2.48124 248.092 2.48124C247.674 2.48124 247.341 2.61183 247.091 2.87301C246.847 3.13418 246.725 3.51434 246.725 4.01348V6.65137H245.933V0.209002H246.725V2.55959C246.882 2.31583 247.097 2.1272 247.37 1.99371C247.648 1.86022 247.959 1.79348 248.301 1.79348ZM253.527 4.24854C253.527 3.76101 253.625 3.33442 253.823 2.96877C254.02 2.59732 254.29 2.31003 254.632 2.10689C254.981 1.90375 255.367 1.80218 255.79 1.80218C256.208 1.80218 256.571 1.89214 256.879 2.07206C257.186 2.25199 257.415 2.47834 257.566 2.75112V1.88053H258.367V6.65137H257.566V5.76337C257.41 6.04195 257.175 6.27411 256.861 6.45984C256.554 6.63976 256.194 6.72972 255.782 6.72972C255.358 6.72972 254.975 6.62525 254.632 6.41631C254.29 6.20737 254.02 5.91427 253.823 5.53701C253.625 5.15976 253.527 4.73027 253.527 4.24854ZM257.566 4.25725C257.566 3.8974 257.494 3.58399 257.349 3.31701C257.204 3.05003 257.006 2.84689 256.757 2.7076C256.513 2.5625 256.243 2.48995 255.947 2.48995C255.651 2.48995 255.381 2.55959 255.137 2.69889C254.894 2.83818 254.699 3.04132 254.554 3.3083C254.409 3.57528 254.336 3.8887 254.336 4.24854C254.336 4.61419 254.409 4.9334 254.554 5.20619C254.699 5.47317 254.894 5.67921 255.137 5.82431C255.381 5.9636 255.651 6.03325 255.947 6.03325C256.243 6.03325 256.513 5.9636 256.757 5.82431C257.006 5.67921 257.204 5.47317 257.349 5.20619C257.494 4.9334 257.566 4.61709 257.566 4.25725ZM261.731 4.25725C261.731 3.76391 261.83 3.33442 262.027 2.96877C262.224 2.59732 262.497 2.31003 262.845 2.10689C263.199 1.90375 263.603 1.80218 264.056 1.80218C264.642 1.80218 265.124 1.94438 265.501 2.22877C265.884 2.51316 266.136 2.90783 266.258 3.41277H265.405C265.324 3.12258 265.164 2.89332 264.926 2.72501C264.694 2.55669 264.404 2.47254 264.056 2.47254C263.603 2.47254 263.237 2.62924 262.959 2.94265C262.68 3.25026 262.541 3.68846 262.541 4.25725C262.541 4.83183 262.68 5.27584 262.959 5.58925C263.237 5.90266 263.603 6.05937 264.056 6.05937C264.404 6.05937 264.694 5.97811 264.926 5.8156C265.158 5.65309 265.318 5.42093 265.405 5.11913H266.258C266.13 5.60666 265.875 5.99842 265.492 6.29443C265.109 6.58462 264.63 6.72972 264.056 6.72972C263.603 6.72972 263.199 6.62815 262.845 6.42501C262.497 6.22188 262.224 5.93458 262.027 5.56313C261.83 5.19168 261.731 4.75638 261.731 4.25725ZM268.107 0.209002V6.65137H267.315V0.209002H268.107ZM273.811 4.08313C273.811 4.23403 273.802 4.39364 273.785 4.56195H269.971C270 5.03207 270.16 5.40062 270.45 5.6676C270.746 5.92878 271.103 6.05937 271.521 6.05937C271.863 6.05937 272.148 5.98101 272.374 5.82431C272.606 5.6618 272.769 5.44705 272.862 5.18007H273.715C273.587 5.63858 273.332 6.01293 272.949 6.30313C272.566 6.58752 272.09 6.72972 271.521 6.72972C271.068 6.72972 270.662 6.62815 270.302 6.42501C269.948 6.22188 269.67 5.93458 269.466 5.56313C269.263 5.18587 269.162 4.75058 269.162 4.25725C269.162 3.76391 269.26 3.33152 269.458 2.96007C269.655 2.58861 269.931 2.30422 270.285 2.10689C270.645 1.90375 271.057 1.80218 271.521 1.80218C271.974 1.80218 272.374 1.90085 272.722 2.09818C273.071 2.29552 273.338 2.5683 273.523 2.91654C273.715 3.25897 273.811 3.64783 273.811 4.08313ZM272.992 3.91772C272.992 3.61591 272.926 3.35764 272.792 3.14289C272.659 2.92234 272.476 2.75693 272.244 2.64665C272.017 2.53058 271.765 2.47254 271.486 2.47254C271.086 2.47254 270.743 2.60022 270.459 2.8556C270.18 3.11097 270.021 3.46501 269.98 3.91772H272.992ZM274.56 4.24854C274.56 3.76101 274.659 3.33442 274.856 2.96877C275.054 2.59732 275.324 2.31003 275.666 2.10689C276.014 1.90375 276.4 1.80218 276.824 1.80218C277.242 1.80218 277.605 1.89214 277.912 2.07206C278.22 2.25199 278.449 2.47834 278.6 2.75112V1.88053H279.401V6.65137H278.6V5.76337C278.443 6.04195 278.208 6.27411 277.895 6.45984C277.587 6.63976 277.227 6.72972 276.815 6.72972C276.392 6.72972 276.009 6.62525 275.666 6.41631C275.324 6.20737 275.054 5.91427 274.856 5.53701C274.659 5.15976 274.56 4.73027 274.56 4.24854ZM278.6 4.25725C278.6 3.8974 278.527 3.58399 278.382 3.31701C278.237 3.05003 278.04 2.84689 277.79 2.7076C277.547 2.5625 277.277 2.48995 276.981 2.48995C276.685 2.48995 276.415 2.55959 276.171 2.69889C275.927 2.83818 275.733 3.04132 275.588 3.3083C275.443 3.57528 275.37 3.8887 275.37 4.24854C275.37 4.61419 275.443 4.9334 275.588 5.20619C275.733 5.47317 275.927 5.67921 276.171 5.82431C276.415 5.9636 276.685 6.03325 276.981 6.03325C277.277 6.03325 277.547 5.9636 277.79 5.82431C278.04 5.67921 278.237 5.47317 278.382 5.20619C278.527 4.9334 278.6 4.61709 278.6 4.25725ZM283.064 1.79348C283.645 1.79348 284.115 1.9705 284.475 2.32454C284.834 2.67277 285.014 3.17771 285.014 3.83936V6.65137H284.231V3.95254C284.231 3.47662 284.112 3.11387 283.874 2.8643C283.636 2.60893 283.311 2.48124 282.899 2.48124C282.481 2.48124 282.147 2.61183 281.898 2.87301C281.654 3.13418 281.532 3.51434 281.532 4.01348V6.65137H280.74V1.88053H281.532V2.55959C281.689 2.31583 281.9 2.1272 282.167 1.99371C282.44 1.86022 282.739 1.79348 283.064 1.79348ZM287.127 5.55442L286.152 7.89631H285.621L286.256 5.55442H287.127ZM291.148 2.75983C291.304 2.48705 291.536 2.26069 291.844 2.08077C292.157 1.89504 292.52 1.80218 292.932 1.80218C293.356 1.80218 293.739 1.90375 294.081 2.10689C294.43 2.31003 294.702 2.59732 294.9 2.96877C295.097 3.33442 295.196 3.76101 295.196 4.24854C295.196 4.73027 295.097 5.15976 294.9 5.53701C294.702 5.91427 294.43 6.20737 294.081 6.41631C293.739 6.62525 293.356 6.72972 292.932 6.72972C292.526 6.72972 292.166 6.63976 291.853 6.45984C291.545 6.27411 291.31 6.04486 291.148 5.77207V8.9149H290.355V1.88053H291.148V2.75983ZM294.386 4.24854C294.386 3.8887 294.314 3.57528 294.168 3.3083C294.023 3.04132 293.826 2.83818 293.576 2.69889C293.333 2.55959 293.063 2.48995 292.767 2.48995C292.477 2.48995 292.207 2.5625 291.957 2.7076C291.713 2.84689 291.516 3.05293 291.365 3.32571C291.22 3.59269 291.148 3.90321 291.148 4.25725C291.148 4.61709 291.22 4.9334 291.365 5.20619C291.516 5.47317 291.713 5.67921 291.957 5.82431C292.207 5.9636 292.477 6.03325 292.767 6.03325C293.063 6.03325 293.333 5.9636 293.576 5.82431C293.826 5.67921 294.023 5.47317 294.168 5.20619C294.314 4.9334 294.386 4.61419 294.386 4.24854ZM297.031 2.65536C297.17 2.38257 297.367 2.17073 297.623 2.01983C297.884 1.86893 298.2 1.79348 298.572 1.79348V2.61183H298.363C297.475 2.61183 297.031 3.09356 297.031 4.05701V6.65137H296.239V1.88053H297.031V2.65536ZM303.839 4.08313C303.839 4.23403 303.831 4.39364 303.813 4.56195H300C300.029 5.03207 300.189 5.40062 300.479 5.6676C300.775 5.92878 301.132 6.05937 301.55 6.05937C301.892 6.05937 302.176 5.98101 302.403 5.82431C302.635 5.6618 302.797 5.44705 302.89 5.18007H303.743C303.616 5.63858 303.36 6.01293 302.977 6.30313C302.594 6.58752 302.118 6.72972 301.55 6.72972C301.097 6.72972 300.691 6.62815 300.331 6.42501C299.977 6.22188 299.698 5.93458 299.495 5.56313C299.292 5.18587 299.19 4.75058 299.19 4.25725C299.19 3.76391 299.289 3.33152 299.486 2.96007C299.684 2.58861 299.959 2.30422 300.313 2.10689C300.673 1.90375 301.085 1.80218 301.55 1.80218C302.002 1.80218 302.403 1.90085 302.751 2.09818C303.099 2.29552 303.366 2.5683 303.552 2.91654C303.743 3.25897 303.839 3.64783 303.839 4.08313ZM303.021 3.91772C303.021 3.61591 302.954 3.35764 302.821 3.14289C302.687 2.92234 302.504 2.75693 302.272 2.64665C302.046 2.53058 301.793 2.47254 301.515 2.47254C301.114 2.47254 300.772 2.60022 300.487 2.8556C300.209 3.11097 300.049 3.46501 300.009 3.91772H303.021ZM310.622 1.79348C310.994 1.79348 311.324 1.87183 311.615 2.02854C311.905 2.17944 312.134 2.40869 312.302 2.7163C312.471 3.02391 312.555 3.39826 312.555 3.83936V6.65137H311.771V3.95254C311.771 3.47662 311.652 3.11387 311.414 2.8643C311.182 2.60893 310.866 2.48124 310.465 2.48124C310.053 2.48124 309.725 2.61473 309.482 2.88171C309.238 3.14289 309.116 3.52305 309.116 4.02219V6.65137H308.332V3.95254C308.332 3.47662 308.214 3.11387 307.976 2.8643C307.743 2.60893 307.427 2.48124 307.027 2.48124C306.615 2.48124 306.287 2.61473 306.043 2.88171C305.799 3.14289 305.677 3.52305 305.677 4.02219V6.65137H304.885V1.88053H305.677V2.5683C305.834 2.31873 306.043 2.1272 306.304 1.99371C306.571 1.86022 306.864 1.79348 307.183 1.79348C307.584 1.79348 307.938 1.88344 308.245 2.06336C308.553 2.24328 308.782 2.50736 308.933 2.8556C309.067 2.51897 309.287 2.25779 309.595 2.07206C309.902 1.88634 310.245 1.79348 310.622 1.79348ZM314.264 1.10571C314.113 1.10571 313.985 1.05347 313.881 0.949004C313.776 0.844533 313.724 0.716846 313.724 0.565944C313.724 0.415042 313.776 0.287355 313.881 0.182884C313.985 0.0784137 314.113 0.0261783 314.264 0.0261783C314.409 0.0261783 314.531 0.0784137 314.629 0.182884C314.734 0.287355 314.786 0.415042 314.786 0.565944C314.786 0.716846 314.734 0.844533 314.629 0.949004C314.531 1.05347 314.409 1.10571 314.264 1.10571ZM314.647 1.88053V6.65137H313.854V1.88053H314.647ZM320.228 1.88053V6.65137H319.436V5.94619C319.285 6.18995 319.073 6.38148 318.8 6.52078C318.533 6.65427 318.237 6.72101 317.912 6.72101C317.541 6.72101 317.207 6.64556 316.911 6.49466C316.615 6.33795 316.38 6.1058 316.206 5.79819C316.038 5.49058 315.953 5.11623 315.953 4.67513V1.88053H316.737V4.57066C316.737 5.04078 316.856 5.40352 317.094 5.65889C317.332 5.90846 317.657 6.03325 318.069 6.03325C318.493 6.03325 318.826 5.90266 319.07 5.64148C319.314 5.38031 319.436 5.00015 319.436 4.50101V1.88053H320.228ZM327.303 1.79348C327.674 1.79348 328.005 1.87183 328.295 2.02854C328.585 2.17944 328.815 2.40869 328.983 2.7163C329.151 3.02391 329.236 3.39826 329.236 3.83936V6.65137H328.452V3.95254C328.452 3.47662 328.333 3.11387 328.095 2.8643C327.863 2.60893 327.547 2.48124 327.146 2.48124C326.734 2.48124 326.406 2.61473 326.162 2.88171C325.919 3.14289 325.797 3.52305 325.797 4.02219V6.65137H325.013V3.95254C325.013 3.47662 324.894 3.11387 324.656 2.8643C324.424 2.60893 324.108 2.48124 323.707 2.48124C323.295 2.48124 322.967 2.61473 322.724 2.88171C322.48 3.14289 322.358 3.52305 322.358 4.02219V6.65137H321.566V1.88053H322.358V2.5683C322.515 2.31873 322.724 2.1272 322.985 1.99371C323.252 1.86022 323.545 1.79348 323.864 1.79348C324.264 1.79348 324.618 1.88344 324.926 2.06336C325.234 2.24328 325.463 2.50736 325.614 2.8556C325.747 2.51897 325.968 2.25779 326.276 2.07206C326.583 1.88634 326.926 1.79348 327.303 1.79348ZM21.779 13.209V19.6514H20.9868V13.209H21.779ZM25.21 19.7297C24.7631 19.7297 24.3568 19.6282 23.9912 19.425C23.6313 19.2219 23.3469 18.9346 23.138 18.5631C22.9348 18.1859 22.8333 17.7506 22.8333 17.2572C22.8333 16.7697 22.9377 16.3402 23.1467 15.9688C23.3614 15.5915 23.6516 15.3042 24.0173 15.1069C24.3829 14.9038 24.7921 14.8022 25.2448 14.8022C25.6975 14.8022 26.1067 14.9038 26.4723 15.1069C26.838 15.3042 27.1253 15.5886 27.3342 15.9601C27.549 16.3315 27.6563 16.7639 27.6563 17.2572C27.6563 17.7506 27.5461 18.1859 27.3255 18.5631C27.1108 18.9346 26.8177 19.2219 26.4462 19.425C26.0748 19.6282 25.6627 19.7297 25.21 19.7297ZM25.21 19.0332C25.4944 19.0332 25.7614 18.9665 26.0109 18.833C26.2605 18.6995 26.4607 18.4993 26.6116 18.2323C26.7683 17.9653 26.8467 17.6403 26.8467 17.2572C26.8467 16.8742 26.7712 16.5492 26.6203 16.2822C26.4694 16.0152 26.2721 15.8179 26.0283 15.6902C25.7846 15.5567 25.5205 15.4899 25.2361 15.4899C24.9459 15.4899 24.6789 15.5567 24.4352 15.6902C24.1972 15.8179 24.0057 16.0152 23.8606 16.2822C23.7155 16.5492 23.6429 16.8742 23.6429 17.2572C23.6429 17.6461 23.7126 17.974 23.8519 18.241C23.997 18.508 24.1885 18.7082 24.4265 18.8417C24.6644 18.9694 24.9256 19.0332 25.21 19.0332ZM30.7787 19.7297C30.3318 19.7297 29.9255 19.6282 29.5599 19.425C29.2 19.2219 28.9156 18.9346 28.7067 18.5631C28.5036 18.1859 28.402 17.7506 28.402 17.2572C28.402 16.7697 28.5065 16.3402 28.7154 15.9688C28.9301 15.5915 29.2203 15.3042 29.586 15.1069C29.9516 14.9038 30.3608 14.8022 30.8135 14.8022C31.2662 14.8022 31.6754 14.9038 32.0411 15.1069C32.4067 15.3042 32.694 15.5886 32.9029 15.9601C33.1177 16.3315 33.2251 16.7639 33.2251 17.2572C33.2251 17.7506 33.1148 18.1859 32.8942 18.5631C32.6795 18.9346 32.3864 19.2219 32.0149 19.425C31.6435 19.6282 31.2314 19.7297 30.7787 19.7297ZM30.7787 19.0332C31.0631 19.0332 31.3301 18.9665 31.5796 18.833C31.8292 18.6995 32.0294 18.4993 32.1803 18.2323C32.3371 17.9653 32.4154 17.6403 32.4154 17.2572C32.4154 16.8742 32.34 16.5492 32.1891 16.2822C32.0382 16.0152 31.8408 15.8179 31.5971 15.6902C31.3533 15.5567 31.0892 15.4899 30.8048 15.4899C30.5146 15.4899 30.2476 15.5567 30.0039 15.6902C29.7659 15.8179 29.5744 16.0152 29.4293 16.2822C29.2842 16.5492 29.2116 16.8742 29.2116 17.2572C29.2116 17.6461 29.2813 17.974 29.4206 18.241C29.5657 18.508 29.7572 18.7082 29.9952 18.8417C30.2331 18.9694 30.4943 19.0332 30.7787 19.0332ZM36.9307 19.6514L35.0589 17.5445V19.6514H34.2667V13.209H35.0589V16.9961L36.8959 14.8805H38.0015L35.7554 17.2572L38.0102 19.6514H36.9307ZM38.9996 19.7036C38.8487 19.7036 38.7211 19.6514 38.6166 19.5469C38.5121 19.4424 38.4599 19.3147 38.4599 19.1638C38.4599 19.0129 38.5121 18.8852 38.6166 18.7808C38.7211 18.6763 38.8487 18.6241 38.9996 18.6241C39.1447 18.6241 39.2666 18.6763 39.3653 18.7808C39.4698 18.8852 39.522 19.0129 39.522 19.1638C39.522 19.3147 39.4698 19.4424 39.3653 19.5469C39.2666 19.6514 39.1447 19.7036 38.9996 19.7036ZM44.8201 19.7123C44.4196 19.7123 44.0598 19.6427 43.7406 19.5034C43.4271 19.3583 43.1805 19.1609 43.0006 18.9114C42.8206 18.656 42.7278 18.3629 42.722 18.0321H43.5664C43.5955 18.3165 43.7115 18.5573 43.9147 18.7547C44.1236 18.9462 44.4254 19.042 44.8201 19.042C45.1973 19.042 45.4933 18.9491 45.7081 18.7634C45.9286 18.5718 46.0389 18.3281 46.0389 18.0321C46.0389 17.7999 45.9751 17.6113 45.8474 17.4662C45.7197 17.3211 45.5601 17.2108 45.3686 17.1354C45.177 17.0599 44.9188 16.9787 44.5937 16.8916C44.1933 16.7871 43.8711 16.6827 43.6274 16.5782C43.3894 16.4737 43.1834 16.3112 43.0093 16.0907C42.8409 15.8643 42.7568 15.5625 42.7568 15.1852C42.7568 14.8544 42.8409 14.5613 43.0093 14.3059C43.1776 14.0506 43.4126 13.8532 43.7144 13.7139C44.022 13.5746 44.3732 13.505 44.7679 13.505C45.3366 13.505 45.801 13.6472 46.1608 13.9316C46.5264 14.216 46.7325 14.5932 46.7789 15.0634H45.9083C45.8793 14.8312 45.7574 14.6281 45.5427 14.4539C45.3279 14.274 45.0435 14.1841 44.6895 14.1841C44.3587 14.1841 44.0888 14.2711 43.8799 14.4452C43.6709 14.6136 43.5664 14.8515 43.5664 15.1591C43.5664 15.3797 43.6274 15.5596 43.7493 15.6989C43.8769 15.8382 44.0308 15.9456 44.2107 16.021C44.3964 16.0907 44.6547 16.1719 44.9855 16.2648C45.386 16.375 45.7081 16.4853 45.9519 16.5956C46.1956 16.7001 46.4046 16.8655 46.5787 17.0918C46.7528 17.3124 46.8399 17.6142 46.8399 17.9972C46.8399 18.2932 46.7615 18.5718 46.6048 18.833C46.4481 19.0942 46.2159 19.306 45.9083 19.4685C45.6007 19.6311 45.238 19.7123 44.8201 19.7123ZM48.9721 15.5335V18.3455C48.9721 18.5776 49.0214 18.7431 49.1201 18.8417C49.2187 18.9346 49.3899 18.981 49.6337 18.981H50.217V19.6514H49.5031C49.062 19.6514 48.7312 19.5498 48.5106 19.3467C48.2901 19.1435 48.1798 18.8098 48.1798 18.3455V15.5335H47.5617V14.8805H48.1798V13.6791H48.9721V14.8805H50.217V15.5335H48.9721ZM51.9691 15.6554C52.1084 15.3826 52.3058 15.1707 52.5611 15.0198C52.8223 14.8689 53.1386 14.7935 53.5101 14.7935V15.6118H53.3011C52.4131 15.6118 51.9691 16.0936 51.9691 17.057V19.6514H51.1769V14.8805H51.9691V15.6554ZM56.5053 19.7297C56.0584 19.7297 55.6521 19.6282 55.2865 19.425C54.9266 19.2219 54.6422 18.9346 54.4333 18.5631C54.2302 18.1859 54.1286 17.7506 54.1286 17.2572C54.1286 16.7697 54.2331 16.3402 54.442 15.9688C54.6568 15.5915 54.947 15.3042 55.3126 15.1069C55.6782 14.9038 56.0874 14.8022 56.5401 14.8022C56.9928 14.8022 57.402 14.9038 57.7677 15.1069C58.1333 15.3042 58.4206 15.5886 58.6295 15.9601C58.8443 16.3315 58.9517 16.7639 58.9517 17.2572C58.9517 17.7506 58.8414 18.1859 58.6208 18.5631C58.4061 18.9346 58.113 19.2219 57.7415 19.425C57.3701 19.6282 56.958 19.7297 56.5053 19.7297ZM56.5053 19.0332C56.7897 19.0332 57.0567 18.9665 57.3062 18.833C57.5558 18.6995 57.7561 18.4993 57.907 18.2323C58.0637 17.9653 58.142 17.6403 58.142 17.2572C58.142 16.8742 58.0666 16.5492 57.9157 16.2822C57.7648 16.0152 57.5674 15.8179 57.3237 15.6902C57.0799 15.5567 56.8158 15.4899 56.5314 15.4899C56.2412 15.4899 55.9742 15.5567 55.7305 15.6902C55.4925 15.8179 55.301 16.0152 55.1559 16.2822C55.0108 16.5492 54.9382 16.8742 54.9382 17.2572C54.9382 17.6461 55.0079 17.974 55.1472 18.241C55.2923 18.508 55.4838 18.7082 55.7218 18.8417C55.9597 18.9694 56.2209 19.0332 56.5053 19.0332ZM62.3178 14.7935C62.8982 14.7935 63.3683 14.9705 63.7281 15.3245C64.088 15.6728 64.2679 16.1777 64.2679 16.8394V19.6514H63.4844V16.9525C63.4844 16.4766 63.3654 16.1139 63.1274 15.8643C62.8895 15.6089 62.5645 15.4812 62.1524 15.4812C61.7345 15.4812 61.4008 15.6118 61.1512 15.873C60.9074 16.1342 60.7855 16.5143 60.7855 17.0135V19.6514H59.9933V14.8805H60.7855V15.5596C60.9423 15.3158 61.1541 15.1272 61.4211 14.9937C61.6939 14.8602 61.9928 14.7935 62.3178 14.7935ZM67.5296 14.8022C67.9416 14.8022 68.3015 14.8921 68.6091 15.0721C68.9225 15.252 69.1547 15.4783 69.3056 15.7511V14.8805H70.1065V19.7558C70.1065 20.1911 70.0136 20.5771 69.8279 20.9137C69.6422 21.2562 69.3752 21.5231 69.027 21.7147C68.6845 21.9062 68.2841 22.002 67.8256 22.002C67.1987 22.002 66.6764 21.854 66.2585 21.558C65.8406 21.262 65.5939 20.8586 65.5185 20.3478H66.302C66.3891 20.638 66.569 20.8702 66.8418 21.0443C67.1146 21.2242 67.4425 21.3142 67.8256 21.3142C68.2609 21.3142 68.6149 21.1778 68.8877 20.905C69.1663 20.6322 69.3056 20.2492 69.3056 19.7558V18.7547C69.1489 19.0332 68.9167 19.2654 68.6091 19.4511C68.3015 19.6369 67.9416 19.7297 67.5296 19.7297C67.1059 19.7297 66.7199 19.6252 66.3717 19.4163C66.0292 19.2074 65.7594 18.9143 65.562 18.537C65.3647 18.1598 65.266 17.7303 65.266 17.2485C65.266 16.761 65.3647 16.3344 65.562 15.9688C65.7594 15.5973 66.0292 15.31 66.3717 15.1069C66.7199 14.9038 67.1059 14.8022 67.5296 14.8022ZM69.3056 17.2572C69.3056 16.8974 69.233 16.584 69.0879 16.317C68.9428 16.05 68.7455 15.8469 68.4959 15.7076C68.2521 15.5625 67.9823 15.4899 67.6863 15.4899C67.3903 15.4899 67.1204 15.5596 66.8766 15.6989C66.6328 15.8382 66.4384 16.0413 66.2933 16.3083C66.1482 16.5753 66.0757 16.8887 66.0757 17.2485C66.0757 17.6142 66.1482 17.9334 66.2933 18.2062C66.4384 18.4732 66.6328 18.6792 66.8766 18.8243C67.1204 18.9636 67.3903 19.0332 67.6863 19.0332C67.9823 19.0332 68.2521 18.9636 68.4959 18.8243C68.7455 18.6792 68.9428 18.4732 69.0879 18.2062C69.233 17.9334 69.3056 17.6171 69.3056 17.2572ZM72.2637 18.5544L71.2886 20.8963H70.7575L71.3931 18.5544H72.2637ZM77.4336 15.5335H76.4324V19.6514H75.6402V15.5335H75.0221V14.8805H75.6402V14.541C75.6402 14.007 75.7766 13.6182 76.0494 13.3744C76.328 13.1248 76.772 13.0001 77.3814 13.0001V13.6617C77.0331 13.6617 76.7865 13.7314 76.6414 13.8707C76.5021 14.0041 76.4324 14.2276 76.4324 14.541V14.8805H77.4336V15.5335ZM80.438 19.7297C79.9911 19.7297 79.5849 19.6282 79.2192 19.425C78.8594 19.2219 78.575 18.9346 78.366 18.5631C78.1629 18.1859 78.0613 17.7506 78.0613 17.2572C78.0613 16.7697 78.1658 16.3402 78.3747 15.9688C78.5895 15.5915 78.8797 15.3042 79.2453 15.1069C79.611 14.9038 80.0201 14.8022 80.4729 14.8022C80.9256 14.8022 81.3347 14.9038 81.7004 15.1069C82.066 15.3042 82.3533 15.5886 82.5623 15.9601C82.777 16.3315 82.8844 16.7639 82.8844 17.2572C82.8844 17.7506 82.7741 18.1859 82.5536 18.5631C82.3388 18.9346 82.0457 19.2219 81.6743 19.425C81.3028 19.6282 80.8907 19.7297 80.438 19.7297ZM80.438 19.0332C80.7224 19.0332 80.9894 18.9665 81.239 18.833C81.4885 18.6995 81.6888 18.4993 81.8397 18.2323C81.9964 17.9653 82.0747 17.6403 82.0747 17.2572C82.0747 16.8742 81.9993 16.5492 81.8484 16.2822C81.6975 16.0152 81.5001 15.8179 81.2564 15.6902C81.0126 15.5567 80.7485 15.4899 80.4641 15.4899C80.174 15.4899 79.907 15.5567 79.6632 15.6902C79.4252 15.8179 79.2337 16.0152 79.0886 16.2822C78.9435 16.5492 78.871 16.8742 78.871 17.2572C78.871 17.6461 78.9406 17.974 79.0799 18.241C79.225 18.508 79.4165 18.7082 79.6545 18.8417C79.8925 18.9694 80.1536 19.0332 80.438 19.0332ZM86.0067 19.7297C85.5598 19.7297 85.1536 19.6282 84.7879 19.425C84.4281 19.2219 84.1437 18.9346 83.9347 18.5631C83.7316 18.1859 83.63 17.7506 83.63 17.2572C83.63 16.7697 83.7345 16.3402 83.9434 15.9688C84.1582 15.5915 84.4484 15.3042 84.814 15.1069C85.1797 14.9038 85.5889 14.8022 86.0416 14.8022C86.4943 14.8022 86.9034 14.9038 87.2691 15.1069C87.6347 15.3042 87.922 15.5886 88.131 15.9601C88.3457 16.3315 88.4531 16.7639 88.4531 17.2572C88.4531 17.7506 88.3428 18.1859 88.1223 18.5631C87.9075 18.9346 87.6144 19.2219 87.243 19.425C86.8715 19.6282 86.4594 19.7297 86.0067 19.7297ZM86.0067 19.0332C86.2911 19.0332 86.5581 18.9665 86.8077 18.833C87.0573 18.6995 87.2575 18.4993 87.4084 18.2323C87.5651 17.9653 87.6434 17.6403 87.6434 17.2572C87.6434 16.8742 87.568 16.5492 87.4171 16.2822C87.2662 16.0152 87.0689 15.8179 86.8251 15.6902C86.5813 15.5567 86.3173 15.4899 86.0329 15.4899C85.7427 15.4899 85.4757 15.5567 85.2319 15.6902C84.994 15.8179 84.8024 16.0152 84.6573 16.2822C84.5122 16.5492 84.4397 16.8742 84.4397 17.2572C84.4397 17.6461 84.5093 17.974 84.6486 18.241C84.7937 18.508 84.9852 18.7082 85.2232 18.8417C85.4612 18.9694 85.7223 19.0332 86.0067 19.0332ZM89.1987 17.2485C89.1987 16.761 89.2974 16.3344 89.4947 15.9688C89.6921 15.5973 89.962 15.31 90.3044 15.1069C90.6526 14.9038 91.0415 14.8022 91.471 14.8022C91.8424 14.8022 92.1878 14.8892 92.507 15.0634C92.8262 15.2317 93.07 15.4551 93.2383 15.7337V13.209H94.0392V19.6514H93.2383V18.7547C93.0816 19.0391 92.8494 19.2741 92.5418 19.4598C92.2342 19.6398 91.8744 19.7297 91.4623 19.7297C91.0386 19.7297 90.6526 19.6252 90.3044 19.4163C89.962 19.2074 89.6921 18.9143 89.4947 18.537C89.2974 18.1598 89.1987 17.7303 89.1987 17.2485ZM93.2383 17.2572C93.2383 16.8974 93.1657 16.584 93.0206 16.317C92.8755 16.05 92.6782 15.8469 92.4286 15.7076C92.1849 15.5625 91.915 15.4899 91.619 15.4899C91.323 15.4899 91.0531 15.5596 90.8093 15.6989C90.5656 15.8382 90.3711 16.0413 90.226 16.3083C90.0809 16.5753 90.0084 16.8887 90.0084 17.2485C90.0084 17.6142 90.0809 17.9334 90.226 18.2062C90.3711 18.4732 90.5656 18.6792 90.8093 18.8243C91.0531 18.9636 91.323 19.0332 91.619 19.0332C91.915 19.0332 92.1849 18.9636 92.4286 18.8243C92.6782 18.6792 92.8755 18.4732 93.0206 18.2062C93.1657 17.9334 93.2383 17.6171 93.2383 17.2572ZM98.6863 16.1255V16.7958H95.2126V16.1255H98.6863ZM102.141 14.8022C102.553 14.8022 102.913 14.8921 103.22 15.0721C103.534 15.252 103.766 15.4783 103.917 15.7511V14.8805H104.718V19.7558C104.718 20.1911 104.625 20.5771 104.439 20.9137C104.253 21.2562 103.986 21.5231 103.638 21.7147C103.296 21.9062 102.895 22.002 102.437 22.002C101.81 22.002 101.287 21.854 100.87 21.558C100.452 21.262 100.205 20.8586 100.13 20.3478H100.913C101 20.638 101.18 20.8702 101.453 21.0443C101.726 21.2242 102.054 21.3142 102.437 21.3142C102.872 21.3142 103.226 21.1778 103.499 20.905C103.777 20.6322 103.917 20.2492 103.917 19.7558V18.7547C103.76 19.0332 103.528 19.2654 103.22 19.4511C102.913 19.6369 102.553 19.7297 102.141 19.7297C101.717 19.7297 101.331 19.6252 100.983 19.4163C100.64 19.2074 100.37 18.9143 100.173 18.537C99.9757 18.1598 99.8771 17.7303 99.8771 17.2485C99.8771 16.761 99.9757 16.3344 100.173 15.9688C100.37 15.5973 100.64 15.31 100.983 15.1069C101.331 14.9038 101.717 14.8022 102.141 14.8022ZM103.917 17.2572C103.917 16.8974 103.844 16.584 103.699 16.317C103.554 16.05 103.357 15.8469 103.107 15.7076C102.863 15.5625 102.593 15.4899 102.297 15.4899C102.001 15.4899 101.731 15.5596 101.488 15.6989C101.244 15.8382 101.049 16.0413 100.904 16.3083C100.759 16.5753 100.687 16.8887 100.687 17.2485C100.687 17.6142 100.759 17.9334 100.904 18.2062C101.049 18.4732 101.244 18.6792 101.488 18.8243C101.731 18.9636 102.001 19.0332 102.297 19.0332C102.593 19.0332 102.863 18.9636 103.107 18.8243C103.357 18.6792 103.554 18.4732 103.699 18.2062C103.844 17.9334 103.917 17.6171 103.917 17.2572ZM106.849 15.6554C106.988 15.3826 107.185 15.1707 107.441 15.0198C107.702 14.8689 108.018 14.7935 108.39 14.7935V15.6118H108.181C107.293 15.6118 106.849 16.0936 106.849 17.057V19.6514H106.056V14.8805H106.849V15.6554ZM109.008 17.2485C109.008 16.761 109.107 16.3344 109.304 15.9688C109.501 15.5973 109.771 15.31 110.114 15.1069C110.462 14.9038 110.848 14.8022 111.272 14.8022C111.689 14.8022 112.052 14.8921 112.36 15.0721C112.667 15.252 112.897 15.4783 113.048 15.7511V14.8805H113.849V19.6514H113.048V18.7634C112.891 19.042 112.656 19.2741 112.342 19.4598C112.035 19.6398 111.675 19.7297 111.263 19.7297C110.839 19.7297 110.456 19.6252 110.114 19.4163C109.771 19.2074 109.501 18.9143 109.304 18.537C109.107 18.1598 109.008 17.7303 109.008 17.2485ZM113.048 17.2572C113.048 16.8974 112.975 16.584 112.83 16.317C112.685 16.05 112.488 15.8469 112.238 15.7076C111.994 15.5625 111.724 15.4899 111.428 15.4899C111.132 15.4899 110.862 15.5596 110.619 15.6989C110.375 15.8382 110.18 16.0413 110.035 16.3083C109.89 16.5753 109.818 16.8887 109.818 17.2485C109.818 17.6142 109.89 17.9334 110.035 18.2062C110.18 18.4732 110.375 18.6792 110.619 18.8243C110.862 18.9636 111.132 19.0332 111.428 19.0332C111.724 19.0332 111.994 18.9636 112.238 18.8243C112.488 18.6792 112.685 18.4732 112.83 18.2062C112.975 17.9334 113.048 17.6171 113.048 17.2572ZM114.891 17.2485C114.891 16.761 114.99 16.3344 115.187 15.9688C115.385 15.5973 115.655 15.31 115.997 15.1069C116.345 14.9038 116.734 14.8022 117.164 14.8022C117.535 14.8022 117.88 14.8892 118.2 15.0634C118.519 15.2317 118.763 15.4551 118.931 15.7337V13.209H119.732V19.6514H118.931V18.7547C118.774 19.0391 118.542 19.2741 118.234 19.4598C117.927 19.6398 117.567 19.7297 117.155 19.7297C116.731 19.7297 116.345 19.6252 115.997 19.4163C115.655 19.2074 115.385 18.9143 115.187 18.537C114.99 18.1598 114.891 17.7303 114.891 17.2485ZM118.931 17.2572C118.931 16.8974 118.858 16.584 118.713 16.317C118.568 16.05 118.371 15.8469 118.121 15.7076C117.877 15.5625 117.608 15.4899 117.312 15.4899C117.016 15.4899 116.746 15.5596 116.502 15.6989C116.258 15.8382 116.064 16.0413 115.919 16.3083C115.774 16.5753 115.701 16.8887 115.701 17.2485C115.701 17.6142 115.774 17.9334 115.919 18.2062C116.064 18.4732 116.258 18.6792 116.502 18.8243C116.746 18.9636 117.016 19.0332 117.312 19.0332C117.608 19.0332 117.877 18.9636 118.121 18.8243C118.371 18.6792 118.568 18.4732 118.713 18.2062C118.858 17.9334 118.931 17.6171 118.931 17.2572ZM125.424 17.0831C125.424 17.234 125.415 17.3936 125.397 17.562H121.584C121.613 18.0321 121.773 18.4006 122.063 18.6676C122.359 18.9288 122.716 19.0594 123.134 19.0594C123.476 19.0594 123.761 18.981 123.987 18.8243C124.219 18.6618 124.382 18.4471 124.475 18.1801H125.328C125.2 18.6386 124.945 19.0129 124.562 19.3031C124.179 19.5875 123.703 19.7297 123.134 19.7297C122.681 19.7297 122.275 19.6282 121.915 19.425C121.561 19.2219 121.282 18.9346 121.079 18.5631C120.876 18.1859 120.775 17.7506 120.775 17.2572C120.775 16.7639 120.873 16.3315 121.071 15.9601C121.268 15.5886 121.544 15.3042 121.898 15.1069C122.258 14.9038 122.67 14.8022 123.134 14.8022C123.587 14.8022 123.987 14.9008 124.335 15.0982C124.684 15.2955 124.951 15.5683 125.136 15.9165C125.328 16.259 125.424 16.6478 125.424 17.0831ZM124.605 16.9177C124.605 16.6159 124.538 16.3576 124.405 16.1429C124.271 15.9223 124.089 15.7569 123.857 15.6467C123.63 15.5306 123.378 15.4725 123.099 15.4725C122.699 15.4725 122.356 15.6002 122.072 15.8556C121.793 16.111 121.634 16.465 121.593 16.9177H124.605ZM129.583 15.7685C129.745 15.4841 129.983 15.252 130.296 15.0721C130.61 14.8921 130.967 14.8022 131.367 14.8022C131.797 14.8022 132.183 14.9038 132.525 15.1069C132.868 15.31 133.137 15.5973 133.335 15.9688C133.532 16.3344 133.631 16.761 133.631 17.2485C133.631 17.7303 133.532 18.1598 133.335 18.537C133.137 18.9143 132.865 19.2074 132.516 19.4163C132.174 19.6252 131.791 19.7297 131.367 19.7297C130.955 19.7297 130.592 19.6398 130.279 19.4598C129.971 19.2799 129.739 19.0507 129.583 18.7721V19.6514H128.79V13.209H129.583V15.7685ZM132.821 17.2485C132.821 16.8887 132.749 16.5753 132.604 16.3083C132.458 16.0413 132.261 15.8382 132.012 15.6989C131.768 15.5596 131.498 15.4899 131.202 15.4899C130.912 15.4899 130.642 15.5625 130.392 15.7076C130.148 15.8469 129.951 16.0529 129.8 16.3257C129.655 16.5927 129.583 16.9032 129.583 17.2572C129.583 17.6171 129.655 17.9334 129.8 18.2062C129.951 18.4732 130.148 18.6792 130.392 18.8243C130.642 18.9636 130.912 19.0332 131.202 19.0332C131.498 19.0332 131.768 18.9636 132.012 18.8243C132.261 18.6792 132.458 18.4732 132.604 18.2062C132.749 17.9334 132.821 17.6142 132.821 17.2485ZM138.905 14.8805V19.6514H138.112V18.9462C137.962 19.19 137.75 19.3815 137.477 19.5208C137.21 19.6543 136.914 19.721 136.589 19.721C136.217 19.721 135.884 19.6456 135.588 19.4947C135.292 19.338 135.057 19.1058 134.883 18.7982C134.714 18.4906 134.63 18.1162 134.63 17.6751V14.8805H135.414V17.5707C135.414 18.0408 135.533 18.4035 135.771 18.6589C136.008 18.9085 136.334 19.0332 136.746 19.0332C137.169 19.0332 137.503 18.9027 137.747 18.6415C137.991 18.3803 138.112 18.0001 138.112 17.501V14.8805H138.905ZM140.651 14.1057C140.501 14.1057 140.373 14.0535 140.268 13.949C140.164 13.8445 140.112 13.7168 140.112 13.5659C140.112 13.415 140.164 13.2874 140.268 13.1829C140.373 13.0784 140.501 13.0262 140.651 13.0262C140.797 13.0262 140.918 13.0784 141.017 13.1829C141.122 13.2874 141.174 13.415 141.174 13.5659C141.174 13.7168 141.122 13.8445 141.017 13.949C140.918 14.0535 140.797 14.1057 140.651 14.1057ZM141.035 14.8805V19.6514H140.242V14.8805H141.035ZM143.177 13.209V19.6514H142.385V13.209H143.177ZM144.231 17.2485C144.231 16.761 144.33 16.3344 144.527 15.9688C144.725 15.5973 144.994 15.31 145.337 15.1069C145.685 14.9038 146.074 14.8022 146.503 14.8022C146.875 14.8022 147.22 14.8892 147.539 15.0634C147.859 15.2317 148.102 15.4551 148.271 15.7337V13.209H149.072V19.6514H148.271V18.7547C148.114 19.0391 147.882 19.2741 147.574 19.4598C147.267 19.6398 146.907 19.7297 146.495 19.7297C146.071 19.7297 145.685 19.6252 145.337 19.4163C144.994 19.2074 144.725 18.9143 144.527 18.537C144.33 18.1598 144.231 17.7303 144.231 17.2485ZM148.271 17.2572C148.271 16.8974 148.198 16.584 148.053 16.317C147.908 16.05 147.711 15.8469 147.461 15.7076C147.217 15.5625 146.947 15.4899 146.651 15.4899C146.355 15.4899 146.086 15.5596 145.842 15.6989C145.598 15.8382 145.404 16.0413 145.259 16.3083C145.113 16.5753 145.041 16.8887 145.041 17.2485C145.041 17.6142 145.113 17.9334 145.259 18.2062C145.404 18.4732 145.598 18.6792 145.842 18.8243C146.086 18.9636 146.355 19.0332 146.651 19.0332C146.947 19.0332 147.217 18.9636 147.461 18.8243C147.711 18.6792 147.908 18.4732 148.053 18.2062C148.198 17.9334 148.271 17.6171 148.271 17.2572ZM157.084 17.0831C157.084 17.234 157.076 17.3936 157.058 17.562H153.245C153.274 18.0321 153.434 18.4006 153.724 18.6676C154.02 18.9288 154.377 19.0594 154.795 19.0594C155.137 19.0594 155.422 18.981 155.648 18.8243C155.88 18.6618 156.043 18.4471 156.136 18.1801H156.989C156.861 18.6386 156.606 19.0129 156.223 19.3031C155.84 19.5875 155.364 19.7297 154.795 19.7297C154.342 19.7297 153.936 19.6282 153.576 19.425C153.222 19.2219 152.943 18.9346 152.74 18.5631C152.537 18.1859 152.436 17.7506 152.436 17.2572C152.436 16.7639 152.534 16.3315 152.732 15.9601C152.929 15.5886 153.205 15.3042 153.559 15.1069C153.918 14.9038 154.331 14.8022 154.795 14.8022C155.248 14.8022 155.648 14.9008 155.996 15.0982C156.344 15.2955 156.611 15.5683 156.797 15.9165C156.989 16.259 157.084 16.6478 157.084 17.0831ZM156.266 16.9177C156.266 16.6159 156.199 16.3576 156.066 16.1429C155.932 15.9223 155.75 15.7569 155.517 15.6467C155.291 15.5306 155.039 15.4725 154.76 15.4725C154.36 15.4725 154.017 15.6002 153.733 15.8556C153.454 16.111 153.295 16.465 153.254 16.9177H156.266ZM160.455 14.7935C161.035 14.7935 161.505 14.9705 161.865 15.3245C162.225 15.6728 162.405 16.1777 162.405 16.8394V19.6514H161.621V16.9525C161.621 16.4766 161.502 16.1139 161.264 15.8643C161.026 15.6089 160.701 15.4812 160.289 15.4812C159.871 15.4812 159.538 15.6118 159.288 15.873C159.044 16.1342 158.922 16.5143 158.922 17.0135V19.6514H158.13V14.8805H158.922V15.5596C159.079 15.3158 159.291 15.1272 159.558 14.9937C159.831 14.8602 160.13 14.7935 160.455 14.7935ZM165.388 19.7297C165.022 19.7297 164.694 19.6688 164.404 19.5469C164.114 19.4192 163.885 19.2451 163.716 19.0245C163.548 18.7982 163.455 18.5399 163.438 18.2497H164.256C164.279 18.4877 164.39 18.6821 164.587 18.833C164.79 18.9839 165.054 19.0594 165.379 19.0594C165.681 19.0594 165.919 18.9926 166.093 18.8591C166.267 18.7256 166.354 18.5573 166.354 18.3542C166.354 18.1452 166.261 17.9914 166.076 17.8928C165.89 17.7883 165.603 17.6867 165.214 17.5881C164.86 17.4952 164.57 17.4023 164.343 17.3095C164.123 17.2108 163.931 17.0686 163.769 16.8829C163.612 16.6914 163.534 16.4418 163.534 16.1342C163.534 15.8904 163.606 15.667 163.751 15.4638C163.896 15.2607 164.102 15.1011 164.369 14.985C164.636 14.8631 164.941 14.8022 165.283 14.8022C165.812 14.8022 166.238 14.9357 166.563 15.2027C166.888 15.4696 167.062 15.8353 167.086 16.2996H166.293C166.276 16.05 166.174 15.8498 165.989 15.6989C165.809 15.548 165.565 15.4725 165.257 15.4725C164.973 15.4725 164.747 15.5335 164.578 15.6554C164.41 15.7772 164.326 15.9369 164.326 16.1342C164.326 16.2909 164.375 16.4215 164.474 16.5259C164.578 16.6246 164.706 16.7059 164.857 16.7697C165.014 16.8278 165.228 16.8945 165.501 16.97C165.843 17.0628 166.122 17.1557 166.337 17.2485C166.552 17.3356 166.734 17.4691 166.885 17.649C167.042 17.8289 167.123 18.064 167.129 18.3542C167.129 18.6154 167.056 18.8504 166.911 19.0594C166.766 19.2683 166.56 19.4337 166.293 19.5556C166.032 19.6717 165.73 19.7297 165.388 19.7297ZM172.478 14.8805V19.6514H171.686V18.9462C171.535 19.19 171.323 19.3815 171.051 19.5208C170.784 19.6543 170.488 19.721 170.163 19.721C169.791 19.721 169.458 19.6456 169.162 19.4947C168.866 19.338 168.63 19.1058 168.456 18.7982C168.288 18.4906 168.204 18.1162 168.204 17.6751V14.8805H168.987V17.5707C168.987 18.0408 169.106 18.4035 169.344 18.6589C169.582 18.9085 169.907 19.0332 170.319 19.0332C170.743 19.0332 171.077 18.9027 171.321 18.6415C171.564 18.3803 171.686 18.0001 171.686 17.501V14.8805H172.478ZM174.608 15.6554C174.748 15.3826 174.945 15.1707 175.2 15.0198C175.462 14.8689 175.778 14.7935 176.149 14.7935V15.6118H175.94C175.052 15.6118 174.608 16.0936 174.608 17.057V19.6514H173.816V14.8805H174.608V15.6554ZM181.417 17.0831C181.417 17.234 181.408 17.3936 181.391 17.562H177.577C177.607 18.0321 177.766 18.4006 178.056 18.6676C178.352 18.9288 178.709 19.0594 179.127 19.0594C179.47 19.0594 179.754 18.981 179.98 18.8243C180.212 18.6618 180.375 18.4471 180.468 18.1801H181.321C181.193 18.6386 180.938 19.0129 180.555 19.3031C180.172 19.5875 179.696 19.7297 179.127 19.7297C178.674 19.7297 178.268 19.6282 177.908 19.425C177.554 19.2219 177.276 18.9346 177.073 18.5631C176.869 18.1859 176.768 17.7506 176.768 17.2572C176.768 16.7639 176.866 16.3315 177.064 15.9601C177.261 15.5886 177.537 15.3042 177.891 15.1069C178.251 14.9038 178.663 14.8022 179.127 14.8022C179.58 14.8022 179.98 14.9008 180.329 15.0982C180.677 15.2955 180.944 15.5683 181.129 15.9165C181.321 16.259 181.417 16.6478 181.417 17.0831ZM180.598 16.9177C180.598 16.6159 180.532 16.3576 180.398 16.1429C180.265 15.9223 180.082 15.7569 179.85 15.6467C179.623 15.5306 179.371 15.4725 179.092 15.4725C178.692 15.4725 178.349 15.6002 178.065 15.8556C177.786 16.111 177.627 16.465 177.586 16.9177H180.598ZM184.151 19.7297C183.786 19.7297 183.458 19.6688 183.168 19.5469C182.877 19.4192 182.648 19.2451 182.48 19.0245C182.312 18.7982 182.219 18.5399 182.201 18.2497H183.02C183.043 18.4877 183.153 18.6821 183.351 18.833C183.554 18.9839 183.818 19.0594 184.143 19.0594C184.445 19.0594 184.683 18.9926 184.857 18.8591C185.031 18.7256 185.118 18.5573 185.118 18.3542C185.118 18.1452 185.025 17.9914 184.839 17.8928C184.653 17.7883 184.366 17.6867 183.977 17.5881C183.623 17.4952 183.333 17.4023 183.107 17.3095C182.886 17.2108 182.695 17.0686 182.532 16.8829C182.375 16.6914 182.297 16.4418 182.297 16.1342C182.297 15.8904 182.37 15.667 182.515 15.4638C182.66 15.2607 182.866 15.1011 183.133 14.985C183.4 14.8631 183.705 14.8022 184.047 14.8022C184.575 14.8022 185.002 14.9357 185.327 15.2027C185.652 15.4696 185.826 15.8353 185.849 16.2996H185.057C185.039 16.05 184.938 15.8498 184.752 15.6989C184.572 15.548 184.328 15.4725 184.021 15.4725C183.736 15.4725 183.51 15.5335 183.342 15.6554C183.173 15.7772 183.089 15.9369 183.089 16.1342C183.089 16.2909 183.139 16.4215 183.237 16.5259C183.342 16.6246 183.469 16.7059 183.62 16.7697C183.777 16.8278 183.992 16.8945 184.265 16.97C184.607 17.0628 184.886 17.1557 185.1 17.2485C185.315 17.3356 185.498 17.4691 185.649 17.649C185.806 17.8289 185.887 18.064 185.893 18.3542C185.893 18.6154 185.82 18.8504 185.675 19.0594C185.53 19.2683 185.324 19.4337 185.057 19.5556C184.796 19.6717 184.494 19.7297 184.151 19.7297ZM191.273 15.5335H190.272V19.6514H189.48V15.5335H188.862V14.8805H189.48V14.541C189.48 14.007 189.616 13.6182 189.889 13.3744C190.168 13.1248 190.612 13.0001 191.221 13.0001V13.6617C190.873 13.6617 190.626 13.7314 190.481 13.8707C190.342 14.0041 190.272 14.2276 190.272 14.541V14.8805H191.273V15.5335ZM192.989 15.6554C193.129 15.3826 193.326 15.1707 193.581 15.0198C193.843 14.8689 194.159 14.7935 194.53 14.7935V15.6118H194.321C193.433 15.6118 192.989 16.0936 192.989 17.057V19.6514H192.197V14.8805H192.989V15.6554ZM199.798 17.0831C199.798 17.234 199.789 17.3936 199.772 17.562H195.958C195.988 18.0321 196.147 18.4006 196.437 18.6676C196.733 18.9288 197.09 19.0594 197.508 19.0594C197.851 19.0594 198.135 18.981 198.361 18.8243C198.593 18.6618 198.756 18.4471 198.849 18.1801H199.702C199.574 18.6386 199.319 19.0129 198.936 19.3031C198.553 19.5875 198.077 19.7297 197.508 19.7297C197.055 19.7297 196.649 19.6282 196.289 19.425C195.935 19.2219 195.657 18.9346 195.454 18.5631C195.25 18.1859 195.149 17.7506 195.149 17.2572C195.149 16.7639 195.248 16.3315 195.445 15.9601C195.642 15.5886 195.918 15.3042 196.272 15.1069C196.632 14.9038 197.044 14.8022 197.508 14.8022C197.961 14.8022 198.361 14.9008 198.71 15.0982C199.058 15.2955 199.325 15.5683 199.51 15.9165C199.702 16.259 199.798 16.6478 199.798 17.0831ZM198.979 16.9177C198.979 16.6159 198.913 16.3576 198.779 16.1429C198.646 15.9223 198.463 15.7569 198.231 15.6467C198.004 15.5306 197.752 15.4725 197.473 15.4725C197.073 15.4725 196.73 15.6002 196.446 15.8556C196.167 16.111 196.008 16.465 195.967 16.9177H198.979ZM202.532 19.7297C202.167 19.7297 201.839 19.6688 201.549 19.5469C201.259 19.4192 201.029 19.2451 200.861 19.0245C200.693 18.7982 200.6 18.5399 200.582 18.2497H201.401C201.424 18.4877 201.534 18.6821 201.732 18.833C201.935 18.9839 202.199 19.0594 202.524 19.0594C202.826 19.0594 203.064 18.9926 203.238 18.8591C203.412 18.7256 203.499 18.5573 203.499 18.3542C203.499 18.1452 203.406 17.9914 203.22 17.8928C203.035 17.7883 202.747 17.6867 202.358 17.5881C202.004 17.4952 201.714 17.4023 201.488 17.3095C201.267 17.2108 201.076 17.0686 200.913 16.8829C200.756 16.6914 200.678 16.4418 200.678 16.1342C200.678 15.8904 200.751 15.667 200.896 15.4638C201.041 15.2607 201.247 15.1011 201.514 14.985C201.781 14.8631 202.086 14.8022 202.428 14.8022C202.956 14.8022 203.383 14.9357 203.708 15.2027C204.033 15.4696 204.207 15.8353 204.23 16.2996H203.438C203.42 16.05 203.319 15.8498 203.133 15.6989C202.953 15.548 202.709 15.4725 202.402 15.4725C202.117 15.4725 201.891 15.5335 201.723 15.6554C201.555 15.7772 201.47 15.9369 201.47 16.1342C201.47 16.2909 201.52 16.4215 201.618 16.5259C201.723 16.6246 201.851 16.7059 202.001 16.7697C202.158 16.8278 202.373 16.8945 202.646 16.97C202.988 17.0628 203.267 17.1557 203.481 17.2485C203.696 17.3356 203.879 17.4691 204.03 17.649C204.187 17.8289 204.268 18.064 204.274 18.3542C204.274 18.6154 204.201 18.8504 204.056 19.0594C203.911 19.2683 203.705 19.4337 203.438 19.5556C203.177 19.6717 202.875 19.7297 202.532 19.7297ZM207.76 14.7935C208.12 14.7935 208.445 14.8718 208.735 15.0285C209.025 15.1794 209.252 15.4087 209.414 15.7163C209.582 16.0239 209.667 16.3983 209.667 16.8394V19.6514H208.883V16.9525C208.883 16.4766 208.764 16.1139 208.526 15.8643C208.288 15.6089 207.963 15.4812 207.551 15.4812C207.133 15.4812 206.799 15.6118 206.55 15.873C206.306 16.1342 206.184 16.5143 206.184 17.0135V19.6514H205.392V13.209H206.184V15.5596C206.341 15.3158 206.556 15.1272 206.828 14.9937C207.107 14.8602 207.418 14.7935 207.76 14.7935ZM213.285 14.7935C213.866 14.7935 214.336 14.9705 214.696 15.3245C215.055 15.6728 215.235 16.1777 215.235 16.8394V19.6514H214.452V16.9525C214.452 16.4766 214.333 16.1139 214.095 15.8643C213.857 15.6089 213.532 15.4812 213.12 15.4812C212.702 15.4812 212.368 15.6118 212.119 15.873C211.875 16.1342 211.753 16.5143 211.753 17.0135V19.6514H210.961V14.8805H211.753V15.5596C211.91 15.3158 212.122 15.1272 212.388 14.9937C212.661 14.8602 212.96 14.7935 213.285 14.7935ZM220.882 17.0831C220.882 17.234 220.874 17.3936 220.856 17.562H217.043C217.072 18.0321 217.232 18.4006 217.522 18.6676C217.818 18.9288 218.175 19.0594 218.593 19.0594C218.935 19.0594 219.22 18.981 219.446 18.8243C219.678 18.6618 219.841 18.4471 219.933 18.1801H220.787C220.659 18.6386 220.404 19.0129 220.021 19.3031C219.637 19.5875 219.162 19.7297 218.593 19.7297C218.14 19.7297 217.734 19.6282 217.374 19.425C217.02 19.2219 216.741 18.9346 216.538 18.5631C216.335 18.1859 216.233 17.7506 216.233 17.2572C216.233 16.7639 216.332 16.3315 216.529 15.9601C216.727 15.5886 217.002 15.3042 217.356 15.1069C217.716 14.9038 218.128 14.8022 218.593 14.8022C219.045 14.8022 219.446 14.9008 219.794 15.0982C220.142 15.2955 220.409 15.5683 220.595 15.9165C220.787 16.259 220.882 16.6478 220.882 17.0831ZM220.064 16.9177C220.064 16.6159 219.997 16.3576 219.864 16.1429C219.73 15.9223 219.547 15.7569 219.315 15.6467C219.089 15.5306 218.837 15.4725 218.558 15.4725C218.157 15.4725 217.815 15.6002 217.531 15.8556C217.252 16.111 217.092 16.465 217.052 16.9177H220.064ZM223.617 19.7297C223.251 19.7297 222.923 19.6688 222.633 19.5469C222.343 19.4192 222.114 19.2451 221.946 19.0245C221.777 18.7982 221.684 18.5399 221.667 18.2497H222.485C222.509 18.4877 222.619 18.6821 222.816 18.833C223.019 18.9839 223.283 19.0594 223.608 19.0594C223.91 19.0594 224.148 18.9926 224.322 18.8591C224.496 18.7256 224.583 18.5573 224.583 18.3542C224.583 18.1452 224.491 17.9914 224.305 17.8928C224.119 17.7883 223.832 17.6867 223.443 17.5881C223.089 17.4952 222.799 17.4023 222.572 17.3095C222.352 17.2108 222.16 17.0686 221.998 16.8829C221.841 16.6914 221.763 16.4418 221.763 16.1342C221.763 15.8904 221.835 15.667 221.98 15.4638C222.125 15.2607 222.331 15.1011 222.598 14.985C222.865 14.8631 223.17 14.8022 223.513 14.8022C224.041 14.8022 224.467 14.9357 224.792 15.2027C225.117 15.4696 225.291 15.8353 225.315 16.2996H224.522C224.505 16.05 224.403 15.8498 224.218 15.6989C224.038 15.548 223.794 15.4725 223.486 15.4725C223.202 15.4725 222.976 15.5335 222.807 15.6554C222.639 15.7772 222.555 15.9369 222.555 16.1342C222.555 16.2909 222.604 16.4215 222.703 16.5259C222.807 16.6246 222.935 16.7059 223.086 16.7697C223.243 16.8278 223.457 16.8945 223.73 16.97C224.073 17.0628 224.351 17.1557 224.566 17.2485C224.781 17.3356 224.964 17.4691 225.114 17.649C225.271 17.8289 225.352 18.064 225.358 18.3542C225.358 18.6154 225.286 18.8504 225.141 19.0594C224.995 19.2683 224.789 19.4337 224.522 19.5556C224.261 19.6717 223.959 19.7297 223.617 19.7297ZM228.166 19.7297C227.8 19.7297 227.472 19.6688 227.182 19.5469C226.892 19.4192 226.662 19.2451 226.494 19.0245C226.326 18.7982 226.233 18.5399 226.215 18.2497H227.034C227.057 18.4877 227.167 18.6821 227.365 18.833C227.568 18.9839 227.832 19.0594 228.157 19.0594C228.459 19.0594 228.697 18.9926 228.871 18.8591C229.045 18.7256 229.132 18.5573 229.132 18.3542C229.132 18.1452 229.039 17.9914 228.853 17.8928C228.668 17.7883 228.38 17.6867 227.991 17.5881C227.637 17.4952 227.347 17.4023 227.121 17.3095C226.9 17.2108 226.709 17.0686 226.546 16.8829C226.39 16.6914 226.311 16.4418 226.311 16.1342C226.311 15.8904 226.384 15.667 226.529 15.4638C226.674 15.2607 226.88 15.1011 227.147 14.985C227.414 14.8631 227.719 14.8022 228.061 14.8022C228.589 14.8022 229.016 14.9357 229.341 15.2027C229.666 15.4696 229.84 15.8353 229.863 16.2996H229.071C229.054 16.05 228.952 15.8498 228.766 15.6989C228.586 15.548 228.343 15.4725 228.035 15.4725C227.751 15.4725 227.524 15.5335 227.356 15.6554C227.188 15.7772 227.103 15.9369 227.103 16.1342C227.103 16.2909 227.153 16.4215 227.251 16.5259C227.356 16.6246 227.484 16.7059 227.634 16.7697C227.791 16.8278 228.006 16.8945 228.279 16.97C228.621 17.0628 228.9 17.1557 229.115 17.2485C229.329 17.3356 229.512 17.4691 229.663 17.649C229.82 17.8289 229.901 18.064 229.907 18.3542C229.907 18.6154 229.834 18.8504 229.689 19.0594C229.544 19.2683 229.338 19.4337 229.071 19.5556C228.81 19.6717 228.508 19.7297 228.166 19.7297ZM233.05 17.2485C233.05 16.761 233.149 16.3344 233.346 15.9688C233.543 15.5973 233.813 15.31 234.156 15.1069C234.504 14.9038 234.89 14.8022 235.314 14.8022C235.732 14.8022 236.094 14.8921 236.402 15.0721C236.709 15.252 236.939 15.4783 237.09 15.7511V14.8805H237.891V19.6514H237.09V18.7634C236.933 19.042 236.698 19.2741 236.384 19.4598C236.077 19.6398 235.717 19.7297 235.305 19.7297C234.881 19.7297 234.498 19.6252 234.156 19.4163C233.813 19.2074 233.543 18.9143 233.346 18.537C233.149 18.1598 233.05 17.7303 233.05 17.2485ZM237.09 17.2572C237.09 16.8974 237.017 16.584 236.872 16.317C236.727 16.05 236.53 15.8469 236.28 15.7076C236.036 15.5625 235.766 15.4899 235.47 15.4899C235.174 15.4899 234.904 15.5596 234.661 15.6989C234.417 15.8382 234.222 16.0413 234.077 16.3083C233.932 16.5753 233.86 16.8887 233.86 17.2485C233.86 17.6142 233.932 17.9334 234.077 18.2062C234.222 18.4732 234.417 18.6792 234.661 18.8243C234.904 18.9636 235.174 19.0332 235.47 19.0332C235.766 19.0332 236.036 18.9636 236.28 18.8243C236.53 18.6792 236.727 18.4732 236.872 18.2062C237.017 17.9334 237.09 17.6171 237.09 17.2572ZM241.554 14.7935C242.134 14.7935 242.604 14.9705 242.964 15.3245C243.324 15.6728 243.504 16.1777 243.504 16.8394V19.6514H242.72V16.9525C242.72 16.4766 242.601 16.1139 242.364 15.8643C242.126 15.6089 241.801 15.4812 241.388 15.4812C240.971 15.4812 240.637 15.6118 240.387 15.873C240.144 16.1342 240.022 16.5143 240.022 17.0135V19.6514H239.229V14.8805H240.022V15.5596C240.178 15.3158 240.39 15.1272 240.657 14.9937C240.93 14.8602 241.229 14.7935 241.554 14.7935ZM244.502 17.2485C244.502 16.761 244.601 16.3344 244.798 15.9688C244.995 15.5973 245.265 15.31 245.608 15.1069C245.956 14.9038 246.345 14.8022 246.774 14.8022C247.146 14.8022 247.491 14.8892 247.81 15.0634C248.13 15.2317 248.373 15.4551 248.542 15.7337V13.209H249.343V19.6514H248.542V18.7547C248.385 19.0391 248.153 19.2741 247.845 19.4598C247.538 19.6398 247.178 19.7297 246.766 19.7297C246.342 19.7297 245.956 19.6252 245.608 19.4163C245.265 19.2074 244.995 18.9143 244.798 18.537C244.601 18.1598 244.502 17.7303 244.502 17.2485ZM248.542 17.2572C248.542 16.8974 248.469 16.584 248.324 16.317C248.179 16.05 247.982 15.8469 247.732 15.7076C247.488 15.5625 247.218 15.4899 246.922 15.4899C246.626 15.4899 246.356 15.5596 246.113 15.6989C245.869 15.8382 245.674 16.0413 245.529 16.3083C245.384 16.5753 245.312 16.8887 245.312 17.2485C245.312 17.6142 245.384 17.9334 245.529 18.2062C245.674 18.4732 245.869 18.6792 246.113 18.8243C246.356 18.9636 246.626 19.0332 246.922 19.0332C247.218 19.0332 247.488 18.9636 247.732 18.8243C247.982 18.6792 248.179 18.4732 248.324 18.2062C248.469 17.9334 248.542 17.6171 248.542 17.2572ZM254.691 19.7297C254.326 19.7297 253.998 19.6688 253.708 19.5469C253.417 19.4192 253.188 19.2451 253.02 19.0245C252.851 18.7982 252.759 18.5399 252.741 18.2497H253.56C253.583 18.4877 253.693 18.6821 253.89 18.833C254.094 18.9839 254.358 19.0594 254.683 19.0594C254.984 19.0594 255.222 18.9926 255.397 18.8591C255.571 18.7256 255.658 18.5573 255.658 18.3542C255.658 18.1452 255.565 17.9914 255.379 17.8928C255.193 17.7883 254.906 17.6867 254.517 17.5881C254.163 17.4952 253.873 17.4023 253.647 17.3095C253.426 17.2108 253.235 17.0686 253.072 16.8829C252.915 16.6914 252.837 16.4418 252.837 16.1342C252.837 15.8904 252.91 15.667 253.055 15.4638C253.2 15.2607 253.406 15.1011 253.673 14.985C253.94 14.8631 254.244 14.8022 254.587 14.8022C255.115 14.8022 255.542 14.9357 255.867 15.2027C256.192 15.4696 256.366 15.8353 256.389 16.2996H255.597C255.579 16.05 255.478 15.8498 255.292 15.6989C255.112 15.548 254.868 15.4725 254.561 15.4725C254.276 15.4725 254.05 15.5335 253.882 15.6554C253.713 15.7772 253.629 15.9369 253.629 16.1342C253.629 16.2909 253.679 16.4215 253.777 16.5259C253.882 16.6246 254.009 16.7059 254.16 16.7697C254.317 16.8278 254.532 16.8945 254.805 16.97C255.147 17.0628 255.426 17.1557 255.64 17.2485C255.855 17.3356 256.038 17.4691 256.189 17.649C256.345 17.8289 256.427 18.064 256.433 18.3542C256.433 18.6154 256.36 18.8504 256.215 19.0594C256.07 19.2683 255.864 19.4337 255.597 19.5556C255.336 19.6717 255.034 19.7297 254.691 19.7297ZM257.255 17.2485C257.255 16.761 257.354 16.3344 257.551 15.9688C257.748 15.5973 258.018 15.31 258.361 15.1069C258.709 14.9038 259.095 14.8022 259.518 14.8022C259.936 14.8022 260.299 14.8921 260.607 15.0721C260.914 15.252 261.144 15.4783 261.294 15.7511V14.8805H262.095V19.6514H261.294V18.7634C261.138 19.042 260.903 19.2741 260.589 19.4598C260.282 19.6398 259.922 19.7297 259.51 19.7297C259.086 19.7297 258.703 19.6252 258.361 19.4163C258.018 19.2074 257.748 18.9143 257.551 18.537C257.354 18.1598 257.255 17.7303 257.255 17.2485ZM261.294 17.2572C261.294 16.8974 261.222 16.584 261.077 16.317C260.932 16.05 260.734 15.8469 260.485 15.7076C260.241 15.5625 259.971 15.4899 259.675 15.4899C259.379 15.4899 259.109 15.5596 258.865 15.6989C258.622 15.8382 258.427 16.0413 258.282 16.3083C258.137 16.5753 258.065 16.8887 258.065 17.2485C258.065 17.6142 258.137 17.9334 258.282 18.2062C258.427 18.4732 258.622 18.6792 258.865 18.8243C259.109 18.9636 259.379 19.0332 259.675 19.0332C259.971 19.0332 260.241 18.9636 260.485 18.8243C260.734 18.6792 260.932 18.4732 261.077 18.2062C261.222 17.9334 261.294 17.6171 261.294 17.2572ZM265.376 15.5335H264.374V19.6514H263.582V15.5335H262.964V14.8805H263.582V14.541C263.582 14.007 263.719 13.6182 263.991 13.3744C264.27 13.1248 264.714 13.0001 265.323 13.0001V13.6617C264.975 13.6617 264.728 13.7314 264.583 13.8707C264.444 14.0041 264.374 14.2276 264.374 14.541V14.8805H265.376V15.5335ZM270.652 17.0831C270.652 17.234 270.644 17.3936 270.626 17.562H266.813C266.842 18.0321 267.002 18.4006 267.292 18.6676C267.588 18.9288 267.945 19.0594 268.363 19.0594C268.705 19.0594 268.989 18.981 269.216 18.8243C269.448 18.6618 269.61 18.4471 269.703 18.1801H270.556C270.429 18.6386 270.173 19.0129 269.79 19.3031C269.407 19.5875 268.931 19.7297 268.363 19.7297C267.91 19.7297 267.504 19.6282 267.144 19.425C266.79 19.2219 266.511 18.9346 266.308 18.5631C266.105 18.1859 266.003 17.7506 266.003 17.2572C266.003 16.7639 266.102 16.3315 266.299 15.9601C266.497 15.5886 266.772 15.3042 267.126 15.1069C267.486 14.9038 267.898 14.8022 268.363 14.8022C268.815 14.8022 269.216 14.9008 269.564 15.0982C269.912 15.2955 270.179 15.5683 270.365 15.9165C270.556 16.259 270.652 16.6478 270.652 17.0831ZM269.834 16.9177C269.834 16.6159 269.767 16.3576 269.634 16.1429C269.5 15.9223 269.317 15.7569 269.085 15.6467C268.859 15.5306 268.606 15.4725 268.328 15.4725C267.927 15.4725 267.585 15.6002 267.3 15.8556C267.022 16.111 266.862 16.465 266.822 16.9177H269.834ZM275.708 19.7297C275.342 19.7297 275.014 19.6688 274.724 19.5469C274.434 19.4192 274.205 19.2451 274.036 19.0245C273.868 18.7982 273.775 18.5399 273.758 18.2497H274.576C274.599 18.4877 274.71 18.6821 274.907 18.833C275.11 18.9839 275.374 19.0594 275.699 19.0594C276.001 19.0594 276.239 18.9926 276.413 18.8591C276.587 18.7256 276.674 18.5573 276.674 18.3542C276.674 18.1452 276.581 17.9914 276.396 17.8928C276.21 17.7883 275.923 17.6867 275.534 17.5881C275.18 17.4952 274.89 17.4023 274.663 17.3095C274.443 17.2108 274.251 17.0686 274.089 16.8829C273.932 16.6914 273.854 16.4418 273.854 16.1342C273.854 15.8904 273.926 15.667 274.071 15.4638C274.216 15.2607 274.422 15.1011 274.689 14.985C274.956 14.8631 275.261 14.8022 275.603 14.8022C276.132 14.8022 276.558 14.9357 276.883 15.2027C277.208 15.4696 277.382 15.8353 277.406 16.2996H276.613C276.596 16.05 276.494 15.8498 276.309 15.6989C276.129 15.548 275.885 15.4725 275.577 15.4725C275.293 15.4725 275.067 15.5335 274.898 15.6554C274.73 15.7772 274.646 15.9369 274.646 16.1342C274.646 16.2909 274.695 16.4215 274.794 16.5259C274.898 16.6246 275.026 16.7059 275.177 16.7697C275.334 16.8278 275.548 16.8945 275.821 16.97C276.164 17.0628 276.442 17.1557 276.657 17.2485C276.872 17.3356 277.054 17.4691 277.205 17.649C277.362 17.8289 277.443 18.064 277.449 18.3542C277.449 18.6154 277.377 18.8504 277.231 19.0594C277.086 19.2683 276.88 19.4337 276.613 19.5556C276.352 19.6717 276.05 19.7297 275.708 19.7297ZM279.534 15.5335V18.3455C279.534 18.5776 279.583 18.7431 279.682 18.8417C279.78 18.9346 279.952 18.981 280.195 18.981H280.779V19.6514H280.065C279.624 19.6514 279.293 19.5498 279.072 19.3467C278.852 19.1435 278.742 18.8098 278.742 18.3455V15.5335H278.123V14.8805H278.742V13.6791H279.534V14.8805H280.779V15.5335H279.534ZM283.819 19.7297C283.372 19.7297 282.966 19.6282 282.601 19.425C282.241 19.2219 281.956 18.9346 281.747 18.5631C281.544 18.1859 281.443 17.7506 281.443 17.2572C281.443 16.7697 281.547 16.3402 281.756 15.9688C281.971 15.5915 282.261 15.3042 282.627 15.1069C282.992 14.9038 283.401 14.8022 283.854 14.8022C284.307 14.8022 284.716 14.9038 285.082 15.1069C285.447 15.3042 285.735 15.5886 285.944 15.9601C286.158 16.3315 286.266 16.7639 286.266 17.2572C286.266 17.7506 286.155 18.1859 285.935 18.5631C285.72 18.9346 285.427 19.2219 285.056 19.425C284.684 19.6282 284.272 19.7297 283.819 19.7297ZM283.819 19.0332C284.104 19.0332 284.371 18.9665 284.62 18.833C284.87 18.6995 285.07 18.4993 285.221 18.2323C285.378 17.9653 285.456 17.6403 285.456 17.2572C285.456 16.8742 285.381 16.5492 285.23 16.2822C285.079 16.0152 284.881 15.8179 284.638 15.6902C284.394 15.5567 284.13 15.4899 283.845 15.4899C283.555 15.4899 283.288 15.5567 283.045 15.6902C282.807 15.8179 282.615 16.0152 282.47 16.2822C282.325 16.5492 282.252 16.8742 282.252 17.2572C282.252 17.6461 282.322 17.974 282.461 18.241C282.606 18.508 282.798 18.7082 283.036 18.8417C283.274 18.9694 283.535 19.0332 283.819 19.0332ZM288.1 15.6554C288.239 15.3826 288.436 15.1707 288.692 15.0198C288.953 14.8689 289.269 14.7935 289.641 14.7935V15.6118H289.432C288.544 15.6118 288.1 16.0936 288.1 17.057V19.6514H287.307V14.8805H288.1V15.6554ZM290.259 17.2485C290.259 16.761 290.358 16.3344 290.555 15.9688C290.752 15.5973 291.022 15.31 291.365 15.1069C291.713 14.9038 292.099 14.8022 292.523 14.8022C292.94 14.8022 293.303 14.8921 293.611 15.0721C293.918 15.252 294.148 15.4783 294.299 15.7511V14.8805H295.1V19.6514H294.299V18.7634C294.142 19.042 293.907 19.2741 293.593 19.4598C293.286 19.6398 292.926 19.7297 292.514 19.7297C292.09 19.7297 291.707 19.6252 291.365 19.4163C291.022 19.2074 290.752 18.9143 290.555 18.537C290.358 18.1598 290.259 17.7303 290.259 17.2485ZM294.299 17.2572C294.299 16.8974 294.226 16.584 294.081 16.317C293.936 16.05 293.739 15.8469 293.489 15.7076C293.245 15.5625 292.975 15.4899 292.679 15.4899C292.383 15.4899 292.113 15.5596 291.87 15.6989C291.626 15.8382 291.431 16.0413 291.286 16.3083C291.141 16.5753 291.069 16.8887 291.069 17.2485C291.069 17.6142 291.141 17.9334 291.286 18.2062C291.431 18.4732 291.626 18.6792 291.87 18.8243C292.113 18.9636 292.383 19.0332 292.679 19.0332C292.975 19.0332 293.245 18.9636 293.489 18.8243C293.739 18.6792 293.936 18.4732 294.081 18.2062C294.226 17.9334 294.299 17.6171 294.299 17.2572ZM298.406 14.8022C298.818 14.8022 299.178 14.8921 299.485 15.0721C299.799 15.252 300.031 15.4783 300.182 15.7511V14.8805H300.983V19.7558C300.983 20.1911 300.89 20.5771 300.704 20.9137C300.519 21.2562 300.252 21.5231 299.903 21.7147C299.561 21.9062 299.16 22.002 298.702 22.002C298.075 22.002 297.553 21.854 297.135 21.558C296.717 21.262 296.47 20.8586 296.395 20.3478H297.178C297.265 20.638 297.445 20.8702 297.718 21.0443C297.991 21.2242 298.319 21.3142 298.702 21.3142C299.137 21.3142 299.491 21.1778 299.764 20.905C300.043 20.6322 300.182 20.2492 300.182 19.7558V18.7547C300.025 19.0332 299.793 19.2654 299.485 19.4511C299.178 19.6369 298.818 19.7297 298.406 19.7297C297.982 19.7297 297.596 19.6252 297.248 19.4163C296.906 19.2074 296.636 18.9143 296.438 18.537C296.241 18.1598 296.142 17.7303 296.142 17.2485C296.142 16.761 296.241 16.3344 296.438 15.9688C296.636 15.5973 296.906 15.31 297.248 15.1069C297.596 14.9038 297.982 14.8022 298.406 14.8022ZM300.182 17.2572C300.182 16.8974 300.109 16.584 299.964 16.317C299.819 16.05 299.622 15.8469 299.372 15.7076C299.128 15.5625 298.859 15.4899 298.563 15.4899C298.267 15.4899 297.997 15.5596 297.753 15.6989C297.509 15.8382 297.315 16.0413 297.17 16.3083C297.025 16.5753 296.952 16.8887 296.952 17.2485C296.952 17.6142 297.025 17.9334 297.17 18.2062C297.315 18.4732 297.509 18.6792 297.753 18.8243C297.997 18.9636 298.267 19.0332 298.563 19.0332C298.859 19.0332 299.128 18.9636 299.372 18.8243C299.622 18.6792 299.819 18.4732 299.964 18.2062C300.109 17.9334 300.182 17.6171 300.182 17.2572ZM306.675 17.0831C306.675 17.234 306.666 17.3936 306.648 17.562H302.835C302.864 18.0321 303.024 18.4006 303.314 18.6676C303.61 18.9288 303.967 19.0594 304.385 19.0594C304.727 19.0594 305.012 18.981 305.238 18.8243C305.47 18.6618 305.633 18.4471 305.726 18.1801H306.579C306.451 18.6386 306.196 19.0129 305.813 19.3031C305.43 19.5875 304.954 19.7297 304.385 19.7297C303.932 19.7297 303.526 19.6282 303.166 19.425C302.812 19.2219 302.534 18.9346 302.33 18.5631C302.127 18.1859 302.026 17.7506 302.026 17.2572C302.026 16.7639 302.124 16.3315 302.322 15.9601C302.519 15.5886 302.795 15.3042 303.149 15.1069C303.509 14.9038 303.921 14.8022 304.385 14.8022C304.838 14.8022 305.238 14.9008 305.586 15.0982C305.935 15.2955 306.202 15.5683 306.387 15.9165C306.579 16.259 306.675 16.6478 306.675 17.0831ZM305.856 16.9177C305.856 16.6159 305.79 16.3576 305.656 16.1429C305.523 15.9223 305.34 15.7569 305.108 15.6467C304.881 15.5306 304.629 15.4725 304.35 15.4725C303.95 15.4725 303.607 15.6002 303.323 15.8556C303.044 16.111 302.885 16.465 302.844 16.9177H305.856ZM307.973 19.7036C307.822 19.7036 307.694 19.6514 307.59 19.5469C307.485 19.4424 307.433 19.3147 307.433 19.1638C307.433 19.0129 307.485 18.8852 307.59 18.7808C307.694 18.6763 307.822 18.6241 307.973 18.6241C308.118 18.6241 308.24 18.6763 308.338 18.7808C308.443 18.8852 308.495 19.0129 308.495 19.1638C308.495 19.3147 308.443 19.4424 308.338 19.5469C308.24 19.6514 308.118 19.7036 307.973 19.7036Z" fill="white"/>
</svg>
