<svg width="132" height="8" viewBox="0 0 132 8" fill="none" xmlns="http://www.w3.org/2000/svg">
<path d="M1.90909 6.05957H-5.54323e-06L0.965904 0.241388H2.88352C3.45549 0.241388 3.92802 0.360706 4.30113 0.599343C4.67424 0.836085 4.9356 1.1751 5.08522 1.61639C5.23484 2.05578 5.25852 2.58135 5.15624 3.19309C5.05776 3.79158 4.86458 4.30484 4.5767 4.73287C4.29071 5.159 3.92234 5.48665 3.47159 5.71582C3.02083 5.94499 2.49999 6.05957 1.90909 6.05957ZM1.00852 5.29252H1.94602C2.3892 5.29252 2.77272 5.20635 3.09659 5.034C3.42234 4.86165 3.68655 4.61165 3.8892 4.284C4.09185 3.95635 4.232 3.55768 4.30965 3.08798C4.38541 2.64101 4.37878 2.26317 4.28977 1.95446C4.20075 1.64385 4.0284 1.409 3.77272 1.24991C3.51704 1.08893 3.17708 1.00843 2.75284 1.00843H1.7159L1.00852 5.29252ZM7.57457 6.14764C7.14654 6.14764 6.79237 6.05578 6.51207 5.87207C6.23366 5.68646 6.03858 5.42605 5.92684 5.09082C5.8151 4.7537 5.79711 4.35881 5.87286 3.90616C5.94673 3.45919 6.0954 3.06525 6.31889 2.72434C6.54237 2.38343 6.82078 2.11734 7.15411 1.92605C7.48934 1.73476 7.85961 1.63912 8.26491 1.63912C8.51112 1.63912 8.74313 1.67984 8.96093 1.76127C9.18063 1.84271 9.36718 1.97056 9.52059 2.1448C9.674 2.31904 9.78006 2.54537 9.83877 2.82377C9.89938 3.10029 9.89749 3.43646 9.83309 3.8323L9.7848 4.13343H6.3132L6.41264 3.49707H9.049C9.08877 3.27359 9.07836 3.07567 9.01775 2.90332C8.95714 2.72908 8.85298 2.59177 8.70525 2.49139C8.55942 2.39101 8.3757 2.34082 8.15411 2.34082C7.92684 2.34082 7.71472 2.40048 7.51775 2.5198C7.32078 2.63912 7.15601 2.79158 7.02343 2.97718C6.89275 3.1609 6.81036 3.35029 6.77627 3.54537L6.67684 4.12775C6.6276 4.44593 6.63612 4.70162 6.70241 4.8948C6.77059 5.08798 6.88991 5.22813 7.06036 5.31525C7.23082 5.40237 7.44389 5.44593 7.69957 5.44593C7.86434 5.44593 8.0168 5.42321 8.15695 5.37775C8.299 5.3304 8.42495 5.26127 8.5348 5.17037C8.64464 5.07756 8.7365 4.96203 8.81036 4.82377L9.58877 4.96866C9.48461 5.2054 9.33499 5.41279 9.13991 5.59082C8.94483 5.76696 8.71472 5.90427 8.44957 6.00275C8.18631 6.09934 7.89464 6.14764 7.57457 6.14764ZM14.2372 2.76127L13.4446 2.89764C13.4276 2.79726 13.3925 2.70256 13.3395 2.61355C13.2883 2.52453 13.2097 2.45256 13.1037 2.39764C12.9976 2.34082 12.8565 2.31241 12.6804 2.31241C12.4361 2.31241 12.2221 2.36828 12.0383 2.48002C11.8565 2.59177 11.7524 2.73381 11.7258 2.90616C11.7012 3.04631 11.7344 3.15995 11.8253 3.24707C11.9162 3.3323 12.0762 3.40332 12.3054 3.46014L12.9758 3.61923C13.3622 3.71203 13.6387 3.85692 13.8054 4.05389C13.974 4.24896 14.0327 4.50275 13.9815 4.81525C13.938 5.07472 13.8243 5.30484 13.6406 5.50559C13.4588 5.70635 13.2258 5.86355 12.9418 5.97718C12.6577 6.09082 12.3414 6.14764 11.9929 6.14764C11.4967 6.14764 11.1103 6.04252 10.8338 5.8323C10.5573 5.62207 10.4152 5.32472 10.4077 4.94025L11.2486 4.81525C11.2637 5.02927 11.3404 5.1912 11.4787 5.30105C11.6188 5.409 11.813 5.46298 12.0611 5.46298C12.3452 5.46487 12.5829 5.40521 12.7741 5.284C12.9654 5.16279 13.0743 5.01601 13.1008 4.84366C13.1236 4.70919 13.0933 4.59745 13.0099 4.50843C12.9285 4.41942 12.7846 4.35124 12.5781 4.30389L11.8736 4.14196C11.4796 4.04915 11.2012 3.89953 11.0383 3.69309C10.8755 3.48665 10.8205 3.22718 10.8736 2.91468C10.9152 2.659 11.0232 2.43646 11.1974 2.24707C11.3736 2.05578 11.5961 1.90711 11.8651 1.80105C12.134 1.69309 12.4313 1.63912 12.7571 1.63912C13.2325 1.63912 13.5895 1.74139 13.8281 1.94593C14.0668 2.14859 14.2031 2.42037 14.2372 2.76127ZM14.7053 6.05957L15.4325 1.69593H16.282L15.5547 6.05957H14.7053ZM16.0348 1.01412C15.8871 1.01412 15.7621 0.964873 15.6598 0.866388C15.5594 0.76601 15.513 0.646691 15.5206 0.508434C15.5282 0.368282 15.5869 0.248964 15.6967 0.150479C15.8066 0.0501003 15.9344 -8.91685e-05 16.0803 -8.91685e-05C16.228 -8.91685e-05 16.352 0.0501003 16.4524 0.150479C16.5528 0.248964 16.6001 0.368282 16.5945 0.508434C16.5869 0.646691 16.5282 0.76601 16.4183 0.866388C16.3104 0.964873 16.1825 1.01412 16.0348 1.01412ZM18.2543 7.78684C17.9058 7.78684 17.6141 7.74139 17.3793 7.65048C17.1463 7.55957 16.9626 7.43931 16.8281 7.28968C16.6955 7.14006 16.6037 6.97624 16.5526 6.79821L17.3366 6.49707C17.3745 6.5804 17.4276 6.66847 17.4957 6.76127C17.5639 6.85597 17.6652 6.93646 17.7997 7.00275C17.9361 7.06904 18.1226 7.10218 18.3594 7.10218C18.6813 7.10218 18.9626 7.02359 19.2031 6.86639C19.4436 6.71109 19.5923 6.46298 19.6491 6.12207L19.7827 5.26412H19.7287C19.6643 5.35692 19.5753 5.46014 19.4616 5.57377C19.348 5.68741 19.2012 5.7859 19.0213 5.86923C18.8414 5.95256 18.6179 5.99423 18.3508 5.99423C18.0061 5.99423 17.7088 5.91374 17.4588 5.75275C17.2107 5.58987 17.0327 5.35029 16.9247 5.034C16.8168 4.71582 16.8016 4.32472 16.8793 3.86071C16.955 3.39669 17.099 2.99896 17.3111 2.66752C17.5251 2.33609 17.7846 2.0823 18.0895 1.90616C18.3963 1.72813 18.7249 1.63912 19.0753 1.63912C19.3461 1.63912 19.5573 1.68457 19.7088 1.77548C19.8622 1.86449 19.9758 1.96866 20.0497 2.08798C20.1236 2.2073 20.1776 2.31241 20.2116 2.40332H20.2741L20.3906 1.69593H21.223L20.4844 6.15616C20.4238 6.53116 20.2865 6.83893 20.0724 7.07946C19.8603 7.31999 19.5961 7.49802 19.2798 7.61355C18.9654 7.72908 18.6236 7.78684 18.2543 7.78684ZM18.6406 5.28968C18.883 5.28968 19.099 5.23287 19.2883 5.11923C19.4796 5.0037 19.6387 4.83893 19.7656 4.62491C19.8925 4.409 19.9806 4.15048 20.0298 3.84934C20.0791 3.55578 20.0762 3.29726 20.0213 3.07377C19.9683 2.85029 19.8651 2.67605 19.7116 2.55105C19.5601 2.42415 19.3622 2.36071 19.1179 2.36071C18.8603 2.36071 18.6368 2.42699 18.4474 2.55957C18.258 2.69025 18.1037 2.86828 17.9844 3.09366C17.8669 3.31904 17.7846 3.57093 17.7372 3.84934C17.6918 4.13533 17.6927 4.38627 17.7401 4.60218C17.7893 4.81809 17.8878 4.98665 18.0355 5.10787C18.1832 5.22908 18.3849 5.28968 18.6406 5.28968ZM22.9133 3.46866L22.4872 6.05957H21.6378L22.3651 1.69593H23.1804L23.0611 2.40616H23.1151C23.2533 2.17321 23.4418 1.9876 23.6804 1.84934C23.9209 1.70919 24.205 1.63912 24.5327 1.63912C24.8281 1.63912 25.0762 1.70162 25.277 1.82662C25.4796 1.94972 25.6226 2.13343 25.706 2.37775C25.7912 2.62207 25.8044 2.92415 25.7457 3.284L25.2798 6.05957H24.4304L24.8764 3.38627C24.9276 3.06999 24.8859 2.82283 24.7514 2.6448C24.6188 2.46487 24.4077 2.37491 24.1179 2.37491C23.9209 2.37491 23.7382 2.41752 23.5696 2.50275C23.4029 2.58798 23.2618 2.71298 23.1463 2.87775C23.0327 3.04063 22.955 3.2376 22.9133 3.46866ZM28.2855 6.14764C27.8575 6.14764 27.5033 6.05578 27.223 5.87207C26.9446 5.68646 26.7495 5.42605 26.6378 5.09082C26.526 4.7537 26.508 4.35881 26.5838 3.90616C26.6577 3.45919 26.8063 3.06525 27.0298 2.72434C27.2533 2.38343 27.5317 2.11734 27.8651 1.92605C28.2003 1.73476 28.5705 1.63912 28.9758 1.63912C29.2221 1.63912 29.4541 1.67984 29.6719 1.76127C29.8916 1.84271 30.0781 1.97056 30.2315 2.1448C30.3849 2.31904 30.491 2.54537 30.5497 2.82377C30.6103 3.10029 30.6084 3.43646 30.544 3.8323L30.4957 4.13343H27.0241L27.1236 3.49707H29.7599C29.7997 3.27359 29.7893 3.07567 29.7287 2.90332C29.6681 2.72908 29.5639 2.59177 29.4162 2.49139C29.2704 2.39101 29.0866 2.34082 28.8651 2.34082C28.6378 2.34082 28.4257 2.40048 28.2287 2.5198C28.0317 2.63912 27.8669 2.79158 27.7344 2.97718C27.6037 3.1609 27.5213 3.35029 27.4872 3.54537L27.3878 4.12775C27.3385 4.44593 27.3471 4.70162 27.4133 4.8948C27.4815 5.08798 27.6008 5.22813 27.7713 5.31525C27.9418 5.40237 28.1548 5.44593 28.4105 5.44593C28.5753 5.44593 28.7277 5.42321 28.8679 5.37775C29.0099 5.3304 29.1359 5.26127 29.2457 5.17037C29.3556 5.07756 29.4474 4.96203 29.5213 4.82377L30.2997 4.96866C30.1955 5.2054 30.0459 5.41279 29.8508 5.59082C29.6558 5.76696 29.4257 5.90427 29.1605 6.00275C28.8972 6.09934 28.6056 6.14764 28.2855 6.14764ZM32.755 6.1448C32.4008 6.1448 32.1006 6.05484 31.8544 5.87491C31.6101 5.69309 31.4368 5.43457 31.3345 5.09934C31.2341 4.76222 31.2228 4.35787 31.3004 3.88627C31.38 3.41468 31.5267 3.01127 31.7408 2.67605C31.9548 2.34082 32.2142 2.08419 32.5192 1.90616C32.8241 1.72813 33.1527 1.63912 33.505 1.63912C33.7758 1.63912 33.986 1.68457 34.1356 1.77548C34.2872 1.86449 34.3989 1.96866 34.4709 2.08798C34.5428 2.2073 34.5968 2.31241 34.6328 2.40332H34.6811L35.0419 0.241388H35.8913L34.9254 6.05957H34.0959L34.2124 5.38059H34.1413C34.075 5.4734 33.9832 5.57946 33.8658 5.69877C33.7502 5.81809 33.6025 5.92226 33.4226 6.01127C33.2427 6.10029 33.0201 6.1448 32.755 6.1448ZM33.0419 5.42037C33.2862 5.42037 33.505 5.35597 33.6981 5.22718C33.8932 5.0965 34.0552 4.91563 34.1839 4.68457C34.3146 4.45351 34.4055 4.18457 34.4567 3.87775C34.5078 3.57472 34.5069 3.30957 34.4538 3.0823C34.4008 2.85502 34.2985 2.67794 34.147 2.55105C33.9955 2.42415 33.7957 2.36071 33.5476 2.36071C33.2919 2.36071 33.0694 2.42699 32.88 2.55957C32.6906 2.69215 32.5353 2.87302 32.4141 3.10218C32.2947 3.33135 32.2114 3.58987 32.1641 3.87775C32.1148 4.16942 32.1129 4.43173 32.1584 4.66468C32.2038 4.89764 32.2995 5.0823 32.4453 5.21866C32.5911 5.35313 32.79 5.42037 33.0419 5.42037ZM38.3203 6.05957L39.2862 0.241388H40.1356L39.7805 2.40332H39.8317C39.8961 2.31241 39.9841 2.2073 40.0959 2.08798C40.2095 1.96866 40.3563 1.86449 40.5362 1.77548C40.7161 1.68457 40.9415 1.63912 41.2124 1.63912C41.5646 1.63912 41.8639 1.72813 42.1101 1.90616C42.3563 2.08419 42.5305 2.34082 42.6328 2.67605C42.7351 3.01127 42.7474 3.41468 42.6697 3.88627C42.5921 4.35787 42.4463 4.76222 42.2322 5.09934C42.0201 5.43457 41.7616 5.69309 41.4567 5.87491C41.1517 6.05484 40.8231 6.1448 40.4709 6.1448C40.2057 6.1448 39.9964 6.10029 39.843 6.01127C39.6915 5.92226 39.5779 5.81809 39.5021 5.69877C39.4283 5.57946 39.3724 5.4734 39.3345 5.38059H39.2635L39.1499 6.05957H38.3203ZM39.5163 3.87775C39.4671 4.18457 39.4671 4.45351 39.5163 4.68457C39.5675 4.91563 39.6669 5.0965 39.8146 5.22718C39.9642 5.35597 40.1603 5.42037 40.4027 5.42037C40.6565 5.42037 40.88 5.35313 41.0731 5.21866C41.2663 5.0823 41.4254 4.89764 41.5504 4.66468C41.6754 4.43173 41.7625 4.16942 41.8118 3.87775C41.8572 3.58987 41.8563 3.33135 41.8089 3.10218C41.7616 2.87302 41.6631 2.69215 41.5135 2.55957C41.3658 2.42699 41.1641 2.36071 40.9084 2.36071C40.6622 2.36071 40.4434 2.42415 40.2521 2.55105C40.0608 2.67794 39.9027 2.85502 39.7777 3.0823C39.6527 3.30957 39.5656 3.57472 39.5163 3.87775ZM43.3814 7.69593C43.2526 7.69593 43.138 7.68552 43.0376 7.66468C42.9373 7.64574 42.8624 7.62491 42.8132 7.60218L43.1371 6.90616C43.2867 6.94783 43.4202 6.96393 43.5376 6.95446C43.657 6.94499 43.7687 6.89574 43.8729 6.80673C43.977 6.71771 44.0831 6.57756 44.191 6.38627L44.3501 6.09934L43.495 1.69593H44.37L44.9098 5.09082H44.9553L46.6257 1.69593H47.5717L44.9553 6.63627C44.8321 6.87112 44.692 7.0662 44.5348 7.2215C44.3795 7.3787 44.2053 7.49707 44.0121 7.57662C43.8208 7.65616 43.6106 7.69593 43.3814 7.69593ZM49.8281 6.05957L50.794 0.241388H54.402L54.277 0.99707H51.5469L51.2514 2.7698H53.723L53.598 3.52264H51.1264L50.706 6.05957H49.8281ZM56.3594 0.241388L55.3935 6.05957H54.5156L55.4815 0.241388H56.3594ZM60.5497 1.80389C60.5516 1.5179 60.4588 1.29915 60.2713 1.14764C60.0857 0.996123 59.8262 0.920366 59.4929 0.920366C59.2543 0.920366 59.0412 0.958244 58.8537 1.034C58.6681 1.10787 58.5166 1.21014 58.3991 1.34082C58.2836 1.46961 58.2126 1.61639 58.1861 1.78116C58.1615 1.91942 58.1738 2.03874 58.223 2.13912C58.2741 2.23949 58.3471 2.32377 58.4418 2.39196C58.5383 2.45824 58.6444 2.51412 58.7599 2.55957C58.8755 2.60313 58.9872 2.63912 59.0952 2.66752L59.6406 2.81525C59.8168 2.86071 59.9957 2.92226 60.1776 2.99991C60.3594 3.07756 60.5232 3.17984 60.669 3.30673C60.8149 3.43362 60.9238 3.59082 60.9957 3.77832C61.0677 3.96582 61.0819 4.19025 61.0383 4.45162C60.9815 4.78116 60.848 5.07377 60.6378 5.32946C60.4276 5.58514 60.1501 5.78684 59.8054 5.93457C59.4607 6.0823 59.0611 6.15616 58.6065 6.15616C58.1709 6.15616 57.8044 6.08703 57.5071 5.94877C57.2116 5.81052 56.9948 5.61449 56.8565 5.36071C56.7183 5.10502 56.669 4.80199 56.7088 4.45162H57.5923C57.5715 4.66184 57.6094 4.83703 57.706 4.97718C57.8044 5.11544 57.9427 5.21866 58.1207 5.28684C58.2988 5.35313 58.5005 5.38627 58.7258 5.38627C58.9758 5.38627 59.2041 5.34745 59.4105 5.2698C59.6169 5.19025 59.7874 5.0804 59.9219 4.94025C60.0563 4.79821 60.1387 4.63249 60.169 4.44309C60.1993 4.27074 60.1747 4.12965 60.0952 4.0198C60.0175 3.90995 59.9001 3.81904 59.7429 3.74707C59.5876 3.6751 59.4105 3.61165 59.2116 3.55673L58.5554 3.36923C58.1103 3.24234 57.7732 3.05578 57.544 2.80957C57.3149 2.56336 57.2325 2.2376 57.2969 1.8323C57.3537 1.49707 57.4938 1.20446 57.7173 0.954456C57.9408 0.704456 58.2192 0.510328 58.5526 0.37207C58.8859 0.231919 59.2476 0.161843 59.6378 0.161843C60.0317 0.161843 60.3669 0.231919 60.6435 0.37207C60.92 0.512222 61.1245 0.705403 61.2571 0.951616C61.3897 1.19783 61.4361 1.48192 61.3963 1.80389H60.5497ZM62.3743 0.99707L62.4993 0.241388H67.0021L66.8771 0.99707H65.0618L64.2209 6.05957H63.3459L64.1868 0.99707H62.3743ZM72.3097 3.2073C72.2074 3.81904 72.0085 4.34366 71.7131 4.78116C71.4195 5.21866 71.0597 5.55484 70.6335 5.78968C70.2093 6.02264 69.7509 6.13912 69.2585 6.13912C68.7453 6.13912 68.3068 6.01696 67.9432 5.77264C67.5814 5.52643 67.322 5.17699 67.1648 4.72434C67.0076 4.2698 66.9811 3.72813 67.0852 3.09934C67.1875 2.4876 67.3854 1.96298 67.679 1.52548C67.9744 1.08609 68.3352 0.748964 68.7614 0.514116C69.1894 0.279267 69.6515 0.161843 70.1477 0.161843C70.6572 0.161843 71.0919 0.284949 71.4517 0.531161C71.8134 0.775479 72.0729 1.12586 72.2301 1.5823C72.3873 2.03684 72.4138 2.57851 72.3097 3.2073ZM71.4545 3.09934C71.5322 2.63533 71.5227 2.24518 71.4261 1.92889C71.3314 1.61071 71.1695 1.37018 70.9403 1.2073C70.7112 1.04442 70.4347 0.962979 70.1108 0.962979C69.7661 0.962979 69.4432 1.0501 69.142 1.22434C68.8428 1.39859 68.5871 1.65237 68.375 1.98571C68.1629 2.31904 68.018 2.72624 67.9403 3.2073C67.8608 3.67131 67.8693 4.06146 67.9659 4.37775C68.0625 4.69404 68.2254 4.93362 68.4545 5.0965C68.6856 5.25749 68.9631 5.33798 69.2869 5.33798C69.6297 5.33798 69.9508 5.25181 70.25 5.07946C70.5511 4.90521 70.8078 4.65237 71.0199 4.32093C71.232 3.9876 71.3769 3.5804 71.4545 3.09934ZM75.6008 0.99707L75.7258 0.241388H80.2287L80.1037 0.99707H78.2883L77.4474 6.05957H76.5724L77.4133 0.99707H75.6008ZM80.2578 6.05957L81.2237 0.241388H84.8714L84.7464 0.99707H81.9766L81.6811 2.7698H84.2606L84.1356 3.52264H81.5561L81.2606 5.30389H84.0646L83.9396 6.05957H80.2578ZM90.5554 2.13343H89.6861C89.6823 1.94404 89.6472 1.77737 89.581 1.63343C89.5147 1.4876 89.4238 1.36544 89.3082 1.26696C89.1946 1.16658 89.0611 1.09082 88.9077 1.03968C88.7543 0.988547 88.5885 0.962979 88.4105 0.962979C88.0677 0.962979 87.7457 1.0501 87.4446 1.22434C87.1435 1.39859 86.8868 1.65237 86.6747 1.98571C86.4626 2.31904 86.3168 2.72529 86.2372 3.20446C86.1596 3.67037 86.169 4.06146 86.2656 4.37775C86.3622 4.69404 86.5251 4.93362 86.7543 5.0965C86.9853 5.25749 87.2628 5.33798 87.5866 5.33798C87.776 5.33798 87.9607 5.31336 88.1406 5.26412C88.3224 5.21298 88.491 5.13817 88.6463 5.03968C88.8016 4.9412 88.9389 4.82093 89.0582 4.67889C89.1794 4.53495 89.2741 4.37018 89.3423 4.18457H90.223C90.1283 4.47245 89.9948 4.73571 89.8224 4.97434C89.6501 5.21298 89.4465 5.41942 89.2116 5.59366C88.9768 5.7679 88.7192 5.90237 88.4389 5.99707C88.1586 6.09177 87.8622 6.13912 87.5497 6.13912C87.0365 6.13912 86.599 6.01696 86.2372 5.77264C85.8774 5.52643 85.6188 5.17605 85.4616 4.7215C85.3063 4.26696 85.2798 3.72529 85.3821 3.0965C85.4863 2.48476 85.6851 1.96014 85.9787 1.52264C86.2741 1.08324 86.634 0.74707 87.0582 0.514116C87.4844 0.279267 87.9446 0.161843 88.4389 0.161843C88.7514 0.161843 89.0374 0.20635 89.2969 0.295366C89.5563 0.382487 89.7798 0.511275 89.9673 0.681729C90.1567 0.85029 90.3026 1.05673 90.4048 1.30105C90.5071 1.54347 90.5573 1.82093 90.5554 2.13343ZM90.9609 6.05957L91.9268 0.241388H92.8047L92.3842 2.7698H95.2848L95.7053 0.241388H96.5859L95.62 6.05957H94.7393L95.1598 3.52264H92.2592L91.8388 6.05957H90.9609ZM99.0156 6.05957L99.9815 0.241388H102.055C102.506 0.241388 102.866 0.323775 103.135 0.488547C103.406 0.65332 103.591 0.877752 103.692 1.16184C103.794 1.44593 103.816 1.76696 103.757 2.12491C103.696 2.48287 103.568 2.80484 103.371 3.09082C103.176 3.37491 102.915 3.60029 102.589 3.76696C102.264 3.93173 101.876 4.01412 101.428 4.01412H99.9986L100.121 3.2698H101.467C101.753 3.2698 101.994 3.22056 102.189 3.12207C102.386 3.02169 102.54 2.88533 102.652 2.71298C102.764 2.53874 102.837 2.34271 102.871 2.12491C102.907 1.90332 102.897 1.70824 102.842 1.53968C102.787 1.36923 102.678 1.23571 102.516 1.13912C102.355 1.04252 102.129 0.994229 101.839 0.994229H100.737L99.8935 6.05957H99.0156ZM105.592 0.241388L106.43 4.98002H106.495L108.896 0.241388H109.844L106.785 6.05957H105.771L104.643 0.241388H105.592ZM110.273 0.99707L110.398 0.241388H114.901L114.776 0.99707H112.96L112.119 6.05957H111.244L112.085 0.99707H110.273ZM117.047 6.05957L118.013 0.241388H118.891L118.05 5.30389H120.686L120.561 6.05957H117.047ZM121.359 0.99707L121.484 0.241388H125.987L125.862 0.99707H124.046L123.205 6.05957H122.33L123.171 0.99707H121.359ZM127.925 6.05957H126.016L126.982 0.241388H128.899C129.471 0.241388 129.944 0.360706 130.317 0.599343C130.69 0.836085 130.951 1.1751 131.101 1.61639C131.25 2.05578 131.274 2.58135 131.172 3.19309C131.073 3.79158 130.88 4.30484 130.592 4.73287C130.306 5.159 129.938 5.48665 129.487 5.71582C129.036 5.94499 128.516 6.05957 127.925 6.05957ZM127.024 5.29252H127.962C128.405 5.29252 128.788 5.20635 129.112 5.034C129.438 4.86165 129.702 4.61165 129.905 4.284C130.107 3.95635 130.248 3.55768 130.325 3.08798C130.401 2.64101 130.394 2.26317 130.305 1.95446C130.216 1.64385 130.044 1.409 129.788 1.24991C129.533 1.08893 129.193 1.00843 128.768 1.00843H127.732L127.024 5.29252Z" fill="black"/>
</svg>
