<svg width="148" height="48" viewBox="0 0 148 48" fill="none" xmlns="http://www.w3.org/2000/svg">
<path d="M0.647727 22.5V22.1108L2.5483 19.9744C2.7964 19.6941 2.99621 19.4545 3.14773 19.2557C3.29924 19.0568 3.40909 18.8731 3.47727 18.7045C3.54735 18.536 3.58239 18.3608 3.58239 18.179C3.58239 17.9574 3.5303 17.7642 3.42614 17.5994C3.32386 17.4328 3.18277 17.303 3.00284 17.2102C2.82292 17.1174 2.62027 17.071 2.39489 17.071C2.15625 17.071 1.94697 17.1222 1.76705 17.2244C1.58902 17.3267 1.45076 17.4669 1.35227 17.6449C1.25379 17.8229 1.20455 18.0275 1.20455 18.2585H0.696023C0.696023 17.9366 0.769886 17.6515 0.917614 17.4034C1.06723 17.1534 1.27083 16.9574 1.52841 16.8153C1.78788 16.6733 2.08144 16.6023 2.40909 16.6023C2.73295 16.6023 3.02083 16.6723 3.27273 16.8125C3.52462 16.9508 3.72254 17.1392 3.86648 17.3778C4.01042 17.6165 4.08239 17.8835 4.08239 18.179C4.08239 18.393 4.04451 18.6004 3.96875 18.8011C3.89489 19.0019 3.76705 19.2254 3.58523 19.4716C3.40341 19.7178 3.15152 20.0189 2.82955 20.375L1.38636 21.9858V22.0227H4.2642V22.5H0.647727ZM5.26634 21.25V20.8182L7.86009 16.6818H8.17827V17.4062H7.94247L5.86009 20.7358V20.7727H9.26065V21.25H5.26634ZM7.98224 22.5V21.1136V20.9148V16.6818H8.48793V22.5H7.98224ZM12.2202 22.5795C11.8111 22.5795 11.4616 22.4621 11.1719 22.2273C10.884 21.9905 10.6624 21.6487 10.5071 21.2017C10.3537 20.7547 10.277 20.2178 10.277 19.5909C10.277 18.9659 10.3537 18.4309 10.5071 17.9858C10.6624 17.5388 10.8849 17.197 11.1747 16.9602C11.4664 16.7216 11.8149 16.6023 12.2202 16.6023C12.6255 16.6023 12.973 16.7216 13.2628 16.9602C13.5545 17.197 13.777 17.5388 13.9304 17.9858C14.0857 18.4309 14.1634 18.9659 14.1634 19.5909C14.1634 20.2178 14.0857 20.7547 13.9304 21.2017C13.777 21.6487 13.5554 21.9905 13.2656 22.2273C12.9777 22.4621 12.6293 22.5795 12.2202 22.5795ZM12.2202 22.1023C12.669 22.1023 13.0194 21.8835 13.2713 21.446C13.5232 21.0066 13.6491 20.3883 13.6491 19.5909C13.6491 19.0606 13.5914 18.608 13.4759 18.233C13.3622 17.8561 13.1984 17.5682 12.9844 17.3693C12.7723 17.1705 12.5175 17.071 12.2202 17.071C11.7751 17.071 11.4257 17.2926 11.1719 17.7358C10.9181 18.1771 10.7912 18.7955 10.7912 19.5909C10.7912 20.1212 10.848 20.5739 10.9616 20.9489C11.0772 21.3239 11.241 21.6098 11.4531 21.8068C11.6671 22.0038 11.9228 22.1023 12.2202 22.1023ZM17.2287 16.4091L15.3537 23.375H14.8793L16.7543 16.4091H17.2287ZM18.2188 22.5H17.6619L19.7784 16.6818H20.3466L22.4631 22.5H21.9062L20.0824 17.3722H20.0426L18.2188 22.5ZM18.6193 20.2699H21.5057V20.7472H18.6193V20.2699ZM24.8572 16.6818V22.5H24.326V17.2386H24.2919L22.9283 18.1449V17.5938L24.3033 16.6818H24.8572ZM27.1413 21.7045L27.0902 22.0085C27.058 22.2131 27.0125 22.4384 26.9538 22.6847C26.8951 22.9309 26.8345 23.1648 26.772 23.3864C26.7095 23.608 26.6555 23.786 26.6101 23.9205H26.2209C26.2455 23.7917 26.2768 23.6278 26.3146 23.429C26.3544 23.2301 26.3951 23.0095 26.4368 22.767C26.4785 22.5265 26.5163 22.2784 26.5504 22.0227L26.5902 21.7045H27.1413ZM32.5398 22.5H30.8352V16.6818H32.642C33.197 16.6818 33.6714 16.7973 34.0653 17.0284C34.4612 17.2595 34.7642 17.5909 34.9744 18.0227C35.1847 18.4545 35.2898 18.9725 35.2898 19.5767C35.2898 20.1866 35.1818 20.7102 34.9659 21.1477C34.7519 21.5833 34.4394 21.9176 34.0284 22.1506C33.6193 22.3835 33.1231 22.5 32.5398 22.5ZM31.3665 22.0227H32.5085C33.0085 22.0227 33.4271 21.9242 33.7642 21.7273C34.1013 21.5303 34.3542 21.2491 34.5227 20.8835C34.6913 20.518 34.7756 20.0824 34.7756 19.5767C34.7737 19.0748 34.6903 18.643 34.5256 18.2812C34.3627 17.9195 34.1203 17.642 33.7983 17.4489C33.4782 17.2557 33.0824 17.1591 32.6108 17.1591H31.3665V22.0227ZM36.4723 22.5V18.1364H36.9638V18.8068H37.0007C37.0878 18.5871 37.2393 18.41 37.4553 18.2756C37.6731 18.1392 37.9193 18.071 38.1939 18.071C38.2356 18.071 38.282 18.072 38.3331 18.0739C38.3842 18.0758 38.4268 18.0777 38.4609 18.0795V18.5938C38.4382 18.59 38.3984 18.5843 38.3416 18.5767C38.2848 18.5691 38.2232 18.5653 38.157 18.5653C37.9297 18.5653 37.727 18.6136 37.549 18.7102C37.3729 18.8049 37.2337 18.9366 37.1314 19.1051C37.0291 19.2737 36.978 19.4659 36.978 19.6818V22.5H36.4723ZM39.2273 22.5426C39.1155 22.5426 39.0189 22.5028 38.9375 22.4233C38.858 22.3419 38.8182 22.2453 38.8182 22.1335C38.8182 22.0199 38.858 21.9233 38.9375 21.8438C39.0189 21.7642 39.1155 21.7244 39.2273 21.7244C39.3409 21.7244 39.4375 21.7642 39.517 21.8438C39.5966 21.9233 39.6364 22.0199 39.6364 22.1335C39.6364 22.2074 39.6174 22.2756 39.5795 22.3381C39.5436 22.4006 39.4943 22.4508 39.4318 22.4886C39.3712 22.5246 39.303 22.5426 39.2273 22.5426ZM43.3359 22.5H42.7791L44.8956 16.6818H45.4638L47.5803 22.5H47.0234L45.1996 17.3722H45.1598L43.3359 22.5ZM43.7365 20.2699H46.6229V20.7472H43.7365V20.2699ZM48.5774 22.5V16.6818H49.0859V18.9688H49.1314C49.1882 18.8381 49.2696 18.7036 49.3757 18.5653C49.4837 18.4271 49.6248 18.3116 49.799 18.2188C49.9751 18.1241 50.1967 18.0767 50.4638 18.0767C50.8217 18.0767 51.1361 18.1714 51.407 18.3608C51.6778 18.5483 51.889 18.8116 52.0405 19.1506C52.192 19.4877 52.2678 19.8807 52.2678 20.3295C52.2678 20.7803 52.192 21.1752 52.0405 21.5142C51.8909 21.8532 51.6806 22.1174 51.4098 22.3068C51.1409 22.4962 50.8284 22.5909 50.4723 22.5909C50.2071 22.5909 49.9856 22.5436 49.8075 22.4489C49.6314 22.3542 49.4893 22.2377 49.3814 22.0994C49.2734 21.9593 49.1901 21.8229 49.1314 21.6903H49.0689V22.5H48.5774ZM49.0774 20.321C49.0774 20.6733 49.1295 20.9858 49.2337 21.2585C49.3397 21.5294 49.4912 21.7424 49.6882 21.8977C49.8871 22.0511 50.1276 22.1278 50.4098 22.1278C50.6996 22.1278 50.9448 22.0483 51.1456 21.8892C51.3464 21.7282 51.4988 21.5114 51.603 21.2386C51.7071 20.9659 51.7592 20.66 51.7592 20.321C51.7592 19.9858 51.7071 19.6837 51.603 19.4148C51.5007 19.1458 51.3492 18.9328 51.1484 18.7756C50.9477 18.6165 50.7015 18.5369 50.4098 18.5369C50.1257 18.5369 49.8842 18.6136 49.6854 18.767C49.4884 18.9186 49.3378 19.1288 49.2337 19.3977C49.1295 19.6648 49.0774 19.9725 49.0774 20.321ZM54.9496 22.5909C54.5916 22.5909 54.2782 22.4962 54.0092 22.3068C53.7403 22.1174 53.5301 21.8532 53.3786 21.5142C53.2289 21.1752 53.1541 20.7803 53.1541 20.3295C53.1541 19.8807 53.2289 19.4877 53.3786 19.1506C53.5301 18.8116 53.7412 18.5483 54.0121 18.3608C54.2829 18.1714 54.5982 18.0767 54.9581 18.0767C55.2232 18.0767 55.4439 18.1241 55.62 18.2188C55.7962 18.3116 55.9373 18.4271 56.0433 18.5653C56.1494 18.7036 56.2318 18.8381 56.2905 18.9688H56.3359V16.6818H56.8445V22.5H56.3501V21.6903H56.2905C56.2318 21.8229 56.1484 21.9593 56.0405 22.0994C55.9325 22.2377 55.7895 22.3542 55.6115 22.4489C55.4354 22.5436 55.2147 22.5909 54.9496 22.5909ZM55.0092 22.1278C55.2914 22.1278 55.532 22.0511 55.7308 21.8977C55.9297 21.7424 56.0812 21.5294 56.1854 21.2585C56.2914 20.9858 56.3445 20.6733 56.3445 20.321C56.3445 19.9725 56.2924 19.6648 56.1882 19.3977C56.084 19.1288 55.9325 18.9186 55.7337 18.767C55.5348 18.6136 55.2933 18.5369 55.0092 18.5369C54.7176 18.5369 54.4714 18.6165 54.2706 18.7756C54.0717 18.9328 53.9202 19.1458 53.8161 19.4148C53.7138 19.6837 53.6626 19.9858 53.6626 20.321C53.6626 20.66 53.7147 20.9659 53.8189 21.2386C53.9231 21.5114 54.0746 21.7282 54.2734 21.8892C54.4742 22.0483 54.7195 22.1278 55.0092 22.1278ZM61.0575 20.8324V18.1364H61.5632V22.5H61.0575V21.7756H61.0178C60.9155 21.9991 60.7536 22.1856 60.532 22.3352C60.3104 22.483 60.0395 22.5568 59.7195 22.5568C59.4411 22.5568 59.1939 22.4962 58.978 22.375C58.7621 22.2519 58.5926 22.072 58.4695 21.8352C58.3464 21.5985 58.2848 21.3078 58.2848 20.9631V18.1364H58.7905V20.9318C58.7905 21.2727 58.8909 21.5473 59.0916 21.7557C59.2924 21.9621 59.55 22.0653 59.8643 22.0653C60.0613 22.0653 60.2507 22.018 60.4325 21.9233C60.6143 21.8286 60.764 21.6903 60.8814 21.5085C60.9988 21.3248 61.0575 21.0994 61.0575 20.8324ZM63.4077 16.6818V22.5H62.902V16.6818H63.4077ZM67.1009 22.5V16.6818H67.6321V19.8153H67.6832L70.5241 16.6818H71.223L68.7372 19.3722L71.2116 22.5H70.5639L68.4077 19.7415L67.6321 20.6108V22.5H67.1009ZM73.3395 22.5994C73.0762 22.5994 72.8357 22.5483 72.6179 22.446C72.4001 22.3419 72.2268 22.1922 72.098 21.9972C71.9692 21.8002 71.9048 21.5616 71.9048 21.2812C71.9048 21.0653 71.9455 20.8835 72.027 20.7358C72.1084 20.5881 72.224 20.4669 72.3736 20.3722C72.5232 20.2775 72.7003 20.2027 72.9048 20.1477C73.1094 20.0928 73.3348 20.0502 73.581 20.0199C73.8253 19.9896 74.0317 19.9631 74.2003 19.9403C74.3707 19.9176 74.5005 19.8816 74.5895 19.8324C74.6785 19.7831 74.723 19.7036 74.723 19.5938V19.4915C74.723 19.1941 74.634 18.9602 74.456 18.7898C74.2798 18.6174 74.026 18.5312 73.6946 18.5312C73.3802 18.5312 73.1236 18.6004 72.9247 18.7386C72.7277 18.8769 72.5895 19.0398 72.5099 19.2273L72.0298 19.054C72.1283 18.8153 72.2647 18.625 72.4389 18.483C72.6132 18.339 72.8082 18.2358 73.0241 18.1733C73.2401 18.1089 73.4588 18.0767 73.6804 18.0767C73.8471 18.0767 74.0204 18.0985 74.2003 18.142C74.3821 18.1856 74.5507 18.2614 74.706 18.3693C74.8613 18.4754 74.9872 18.6241 75.0838 18.8153C75.1804 19.0047 75.2287 19.2453 75.2287 19.5369V22.5H74.723V21.8097H74.6918C74.6312 21.9384 74.5412 22.0634 74.4219 22.1847C74.3026 22.3059 74.1529 22.4053 73.973 22.483C73.7931 22.5606 73.5819 22.5994 73.3395 22.5994ZM73.4077 22.1364C73.6766 22.1364 73.9096 22.0767 74.1065 21.9574C74.3035 21.8381 74.455 21.6799 74.5611 21.483C74.669 21.2841 74.723 21.0653 74.723 20.8267V20.196C74.6851 20.232 74.6217 20.2642 74.5327 20.2926C74.4455 20.321 74.3442 20.3466 74.2287 20.3693C74.1151 20.3902 74.0014 20.4081 73.8878 20.4233C73.7741 20.4384 73.6719 20.4517 73.581 20.4631C73.3348 20.4934 73.1245 20.5407 72.9503 20.6051C72.776 20.6695 72.6425 20.7585 72.5497 20.8722C72.4569 20.9839 72.4105 21.1278 72.4105 21.304C72.4105 21.5691 72.5052 21.7746 72.6946 21.9205C72.884 22.0644 73.1217 22.1364 73.4077 22.1364ZM77.0795 16.6818V22.5H76.5739V16.6818H77.0795ZM79.6364 22.5994C79.3731 22.5994 79.1326 22.5483 78.9148 22.446C78.697 22.3419 78.5237 22.1922 78.3949 21.9972C78.2661 21.8002 78.2017 21.5616 78.2017 21.2812C78.2017 21.0653 78.2424 20.8835 78.3239 20.7358C78.4053 20.5881 78.5208 20.4669 78.6705 20.3722C78.8201 20.2775 78.9972 20.2027 79.2017 20.1477C79.4063 20.0928 79.6316 20.0502 79.8778 20.0199C80.1222 19.9896 80.3286 19.9631 80.4972 19.9403C80.6676 19.9176 80.7973 19.8816 80.8864 19.8324C80.9754 19.7831 81.0199 19.7036 81.0199 19.5938V19.4915C81.0199 19.1941 80.9309 18.9602 80.7528 18.7898C80.5767 18.6174 80.3229 18.5312 79.9915 18.5312C79.6771 18.5312 79.4205 18.6004 79.2216 18.7386C79.0246 18.8769 78.8864 19.0398 78.8068 19.2273L78.3267 19.054C78.4252 18.8153 78.5616 18.625 78.7358 18.483C78.91 18.339 79.1051 18.2358 79.321 18.1733C79.5369 18.1089 79.7557 18.0767 79.9773 18.0767C80.1439 18.0767 80.3172 18.0985 80.4972 18.142C80.679 18.1856 80.8475 18.2614 81.0028 18.3693C81.1581 18.4754 81.2841 18.6241 81.3807 18.8153C81.4773 19.0047 81.5256 19.2453 81.5256 19.5369V22.5H81.0199V21.8097H80.9886C80.928 21.9384 80.8381 22.0634 80.7188 22.1847C80.5994 22.3059 80.4498 22.4053 80.2699 22.483C80.09 22.5606 79.8788 22.5994 79.6364 22.5994ZM79.7045 22.1364C79.9735 22.1364 80.2064 22.0767 80.4034 21.9574C80.6004 21.8381 80.7519 21.6799 80.858 21.483C80.9659 21.2841 81.0199 21.0653 81.0199 20.8267V20.196C80.982 20.232 80.9186 20.2642 80.8295 20.2926C80.7424 20.321 80.6411 20.3466 80.5256 20.3693C80.4119 20.3902 80.2983 20.4081 80.1847 20.4233C80.071 20.4384 79.9688 20.4517 79.8778 20.4631C79.6316 20.4934 79.4214 20.5407 79.2472 20.6051C79.0729 20.6695 78.9394 20.7585 78.8466 20.8722C78.7538 20.9839 78.7074 21.1278 78.7074 21.304C78.7074 21.5691 78.8021 21.7746 78.9915 21.9205C79.1809 22.0644 79.4186 22.1364 79.7045 22.1364ZM82.8707 22.5V18.1364H83.3622V18.8068H83.4077C83.4948 18.5814 83.6397 18.4044 83.8423 18.2756C84.0469 18.1449 84.2921 18.0795 84.5781 18.0795C84.8793 18.0795 85.1264 18.1506 85.3196 18.2926C85.5147 18.4328 85.6605 18.6259 85.7571 18.8722H85.794C85.8925 18.6297 86.0526 18.4375 86.2741 18.2955C86.4976 18.1515 86.7685 18.0795 87.0866 18.0795C87.492 18.0795 87.812 18.2074 88.0469 18.4631C88.2817 18.7169 88.3991 19.0881 88.3991 19.5767V22.5H87.8935V19.5767C87.8935 19.232 87.8054 18.9735 87.6293 18.8011C87.4531 18.6288 87.2211 18.5426 86.9332 18.5426C86.5999 18.5426 86.3433 18.6449 86.1634 18.8494C85.9834 19.054 85.8935 19.3134 85.8935 19.6278V22.5H85.3764V19.5312C85.3764 19.2358 85.294 18.9972 85.1293 18.8153C84.9645 18.6335 84.7325 18.5426 84.4332 18.5426C84.2325 18.5426 84.0516 18.5919 83.8906 18.6903C83.7315 18.7888 83.6056 18.9261 83.5128 19.1023C83.4219 19.2765 83.3764 19.4773 83.3764 19.7045V22.5H82.8707ZM96.6243 16.6818V22.5H96.1072L92.6697 17.6278H92.6243V22.5H92.093V16.6818H92.6072L96.0561 21.5597H96.1016V16.6818H96.6243ZM99.2848 22.5994C99.0215 22.5994 98.781 22.5483 98.5632 22.446C98.3454 22.3419 98.1721 22.1922 98.0433 21.9972C97.9145 21.8002 97.8501 21.5616 97.8501 21.2812C97.8501 21.0653 97.8909 20.8835 97.9723 20.7358C98.0537 20.5881 98.1693 20.4669 98.3189 20.3722C98.4685 20.2775 98.6456 20.2027 98.8501 20.1477C99.0547 20.0928 99.2801 20.0502 99.5263 20.0199C99.7706 19.9896 99.977 19.9631 100.146 19.9403C100.316 19.9176 100.446 19.8816 100.535 19.8324C100.624 19.7831 100.668 19.7036 100.668 19.5938V19.4915C100.668 19.1941 100.579 18.9602 100.401 18.7898C100.225 18.6174 99.9714 18.5312 99.6399 18.5312C99.3255 18.5312 99.0689 18.6004 98.87 18.7386C98.6731 18.8769 98.5348 19.0398 98.4553 19.2273L97.9751 19.054C98.0736 18.8153 98.21 18.625 98.3842 18.483C98.5585 18.339 98.7536 18.2358 98.9695 18.1733C99.1854 18.1089 99.4041 18.0767 99.6257 18.0767C99.7924 18.0767 99.9657 18.0985 100.146 18.142C100.327 18.1856 100.496 18.2614 100.651 18.3693C100.807 18.4754 100.933 18.6241 101.029 18.8153C101.126 19.0047 101.174 19.2453 101.174 19.5369V22.5H100.668V21.8097H100.637C100.576 21.9384 100.487 22.0634 100.367 22.1847C100.248 22.3059 100.098 22.4053 99.9183 22.483C99.7384 22.5606 99.5272 22.5994 99.2848 22.5994ZM99.353 22.1364C99.6219 22.1364 99.8549 22.0767 100.052 21.9574C100.249 21.8381 100.4 21.6799 100.506 21.483C100.614 21.2841 100.668 21.0653 100.668 20.8267V20.196C100.63 20.232 100.567 20.2642 100.478 20.2926C100.391 20.321 100.29 20.3466 100.174 20.3693C100.06 20.3902 99.9467 20.4081 99.8331 20.4233C99.7195 20.4384 99.6172 20.4517 99.5263 20.4631C99.2801 20.4934 99.0698 20.5407 98.8956 20.6051C98.7214 20.6695 98.5878 20.7585 98.495 20.8722C98.4022 20.9839 98.3558 21.1278 98.3558 21.304C98.3558 21.5691 98.4505 21.7746 98.6399 21.9205C98.8293 22.0644 99.067 22.1364 99.353 22.1364ZM104.184 24.2273C103.887 24.2273 103.626 24.1884 103.403 24.1108C103.179 24.035 102.991 23.9309 102.837 23.7983C102.684 23.6657 102.565 23.517 102.479 23.3523L102.894 23.0795C102.957 23.1894 103.04 23.2973 103.144 23.4034C103.25 23.5095 103.388 23.5975 103.556 23.6676C103.727 23.7377 103.936 23.7727 104.184 23.7727C104.57 23.7727 104.882 23.6761 105.119 23.483C105.357 23.2898 105.477 22.9896 105.477 22.5824V21.5994H105.431C105.372 21.732 105.288 21.8646 105.178 21.9972C105.068 22.1278 104.924 22.2367 104.746 22.3239C104.57 22.411 104.352 22.4545 104.09 22.4545C103.742 22.4545 103.432 22.3684 103.161 22.196C102.892 22.0237 102.68 21.7775 102.525 21.4574C102.371 21.1354 102.295 20.7519 102.295 20.3068C102.295 19.8655 102.37 19.4773 102.519 19.142C102.671 18.8068 102.882 18.5455 103.153 18.358C103.424 18.1705 103.739 18.0767 104.099 18.0767C104.366 18.0767 104.587 18.1241 104.763 18.2188C104.94 18.3116 105.081 18.4271 105.187 18.5653C105.295 18.7036 105.379 18.8381 105.44 18.9688H105.491V18.1364H105.985V22.6136C105.985 22.983 105.906 23.2869 105.749 23.5256C105.592 23.7642 105.378 23.9403 105.107 24.054C104.836 24.1695 104.529 24.2273 104.184 24.2273ZM104.15 21.9915C104.43 21.9915 104.67 21.9242 104.869 21.7898C105.067 21.6534 105.22 21.4583 105.326 21.2045C105.432 20.9508 105.485 20.6487 105.485 20.2983C105.485 19.9574 105.433 19.6553 105.329 19.392C105.225 19.1269 105.073 18.9186 104.874 18.767C104.677 18.6136 104.436 18.5369 104.15 18.5369C103.858 18.5369 103.612 18.6155 103.411 18.7727C103.21 18.9299 103.059 19.142 102.957 19.4091C102.854 19.6742 102.803 19.9706 102.803 20.2983C102.803 20.6316 102.855 20.9261 102.96 21.1818C103.064 21.4356 103.216 21.6345 103.417 21.7784C103.618 21.9205 103.862 21.9915 104.15 21.9915ZM108.543 22.5994C108.279 22.5994 108.039 22.5483 107.821 22.446C107.603 22.3419 107.43 22.1922 107.301 21.9972C107.172 21.8002 107.108 21.5616 107.108 21.2812C107.108 21.0653 107.149 20.8835 107.23 20.7358C107.312 20.5881 107.427 20.4669 107.577 20.3722C107.726 20.2775 107.903 20.2027 108.108 20.1477C108.313 20.0928 108.538 20.0502 108.784 20.0199C109.028 19.9896 109.235 19.9631 109.403 19.9403C109.574 19.9176 109.704 19.8816 109.793 19.8324C109.882 19.7831 109.926 19.7036 109.926 19.5938V19.4915C109.926 19.1941 109.837 18.9602 109.659 18.7898C109.483 18.6174 109.229 18.5312 108.898 18.5312C108.583 18.5312 108.327 18.6004 108.128 18.7386C107.931 18.8769 107.793 19.0398 107.713 19.2273L107.233 19.054C107.331 18.8153 107.468 18.625 107.642 18.483C107.816 18.339 108.011 18.2358 108.227 18.1733C108.443 18.1089 108.662 18.0767 108.884 18.0767C109.05 18.0767 109.223 18.0985 109.403 18.142C109.585 18.1856 109.754 18.2614 109.909 18.3693C110.064 18.4754 110.19 18.6241 110.287 18.8153C110.384 19.0047 110.432 19.2453 110.432 19.5369V22.5H109.926V21.8097H109.895C109.834 21.9384 109.744 22.0634 109.625 22.1847C109.506 22.3059 109.356 22.4053 109.176 22.483C108.996 22.5606 108.785 22.5994 108.543 22.5994ZM108.611 22.1364C108.88 22.1364 109.113 22.0767 109.31 21.9574C109.507 21.8381 109.658 21.6799 109.764 21.483C109.872 21.2841 109.926 21.0653 109.926 20.8267V20.196C109.888 20.232 109.825 20.2642 109.736 20.2926C109.649 20.321 109.547 20.3466 109.432 20.3693C109.318 20.3902 109.205 20.4081 109.091 20.4233C108.977 20.4384 108.875 20.4517 108.784 20.4631C108.538 20.4934 108.328 20.5407 108.153 20.6051C107.979 20.6695 107.846 20.7585 107.753 20.8722C107.66 20.9839 107.614 21.1278 107.614 21.304C107.614 21.5691 107.708 21.7746 107.898 21.9205C108.087 22.0644 108.325 22.1364 108.611 22.1364ZM111.777 22.5V18.1364H112.268V18.8068H112.305C112.393 18.5871 112.544 18.41 112.76 18.2756C112.978 18.1392 113.224 18.071 113.499 18.071C113.54 18.071 113.587 18.072 113.638 18.0739C113.689 18.0758 113.732 18.0777 113.766 18.0795V18.5938C113.743 18.59 113.703 18.5843 113.646 18.5767C113.589 18.5691 113.528 18.5653 113.462 18.5653C113.234 18.5653 113.032 18.6136 112.854 18.7102C112.678 18.8049 112.538 18.9366 112.436 19.1051C112.334 19.2737 112.283 19.4659 112.283 19.6818V22.5H111.777ZM114.969 21.7045L114.918 22.0085C114.886 22.2131 114.841 22.4384 114.782 22.6847C114.723 22.9309 114.663 23.1648 114.6 23.3864C114.538 23.608 114.484 23.786 114.438 23.9205H114.049C114.074 23.7917 114.105 23.6278 114.143 23.429C114.183 23.2301 114.223 23.0095 114.265 22.767C114.307 22.5265 114.344 22.2784 114.379 22.0227L114.418 21.7045H114.969ZM0.420455 28.1591V27.6818H4.6392V28.1591H2.79545V33.5H2.2642V28.1591H0.420455ZM6.2358 30.7727V33.5H5.73011V27.6818H6.2358V29.821H6.28125C6.38352 29.5956 6.54167 29.4157 6.75568 29.2812C6.97159 29.1468 7.24432 29.0795 7.57386 29.0795C7.86932 29.0795 8.12879 29.1402 8.35227 29.2614C8.57576 29.3826 8.75 29.5616 8.875 29.7983C9 30.035 9.0625 30.3267 9.0625 30.6733V33.5H8.55398V30.7045C8.55398 30.3447 8.4536 30.0616 8.25284 29.8551C8.05398 29.6468 7.78504 29.5426 7.44602 29.5426C7.21307 29.5426 7.00568 29.5919 6.82386 29.6903C6.64205 29.7888 6.49811 29.9309 6.39205 30.1165C6.28788 30.3002 6.2358 30.5189 6.2358 30.7727ZM11.6129 33.5994C11.3497 33.5994 11.1091 33.5483 10.8913 33.446C10.6735 33.3419 10.5002 33.1922 10.3714 32.9972C10.2427 32.8002 10.1783 32.5616 10.1783 32.2812C10.1783 32.0653 10.219 31.8835 10.3004 31.7358C10.3819 31.5881 10.4974 31.4669 10.647 31.3722C10.7966 31.2775 10.9737 31.2027 11.1783 31.1477C11.3828 31.0928 11.6082 31.0502 11.8544 31.0199C12.0987 30.9896 12.3052 30.9631 12.4737 30.9403C12.6442 30.9176 12.7739 30.8816 12.8629 30.8324C12.9519 30.7831 12.9964 30.7036 12.9964 30.5938V30.4915C12.9964 30.1941 12.9074 29.9602 12.7294 29.7898C12.5533 29.6174 12.2995 29.5312 11.968 29.5312C11.6536 29.5312 11.397 29.6004 11.1982 29.7386C11.0012 29.8769 10.8629 30.0398 10.7834 30.2273L10.3033 30.054C10.4018 29.8153 10.5381 29.625 10.7124 29.483C10.8866 29.339 11.0817 29.2358 11.2976 29.1733C11.5135 29.1089 11.7322 29.0767 11.9538 29.0767C12.1205 29.0767 12.2938 29.0985 12.4737 29.142C12.6555 29.1856 12.8241 29.2614 12.9794 29.3693C13.1347 29.4754 13.2607 29.6241 13.3572 29.8153C13.4538 30.0047 13.5021 30.2453 13.5021 30.5369V33.5H12.9964V32.8097H12.9652C12.9046 32.9384 12.8146 33.0634 12.6953 33.1847C12.576 33.3059 12.4264 33.4053 12.2464 33.483C12.0665 33.5606 11.8554 33.5994 11.6129 33.5994ZM11.6811 33.1364C11.95 33.1364 12.183 33.0767 12.38 32.9574C12.5769 32.8381 12.7285 32.6799 12.8345 32.483C12.9425 32.2841 12.9964 32.0653 12.9964 31.8267V31.196C12.9586 31.232 12.8951 31.2642 12.8061 31.2926C12.719 31.321 12.6177 31.3466 12.5021 31.3693C12.3885 31.3902 12.2749 31.4081 12.1612 31.4233C12.0476 31.4384 11.9453 31.4517 11.8544 31.4631C11.6082 31.4934 11.398 31.5407 11.2237 31.6051C11.0495 31.6695 10.916 31.7585 10.8232 31.8722C10.7304 31.9839 10.6839 32.1278 10.6839 32.304C10.6839 32.5691 10.7786 32.7746 10.968 32.9205C11.1574 33.0644 11.3951 33.1364 11.6811 33.1364ZM16.4183 33.5909C16.0604 33.5909 15.7469 33.4962 15.478 33.3068C15.209 33.1174 14.9988 32.8532 14.8473 32.5142C14.6977 32.1752 14.6229 31.7803 14.6229 31.3295C14.6229 30.8807 14.6977 30.4877 14.8473 30.1506C14.9988 29.8116 15.21 29.5483 15.4808 29.3608C15.7517 29.1714 16.067 29.0767 16.4268 29.0767C16.692 29.0767 16.9126 29.1241 17.0888 29.2188C17.2649 29.3116 17.406 29.4271 17.5121 29.5653C17.6181 29.7036 17.7005 29.8381 17.7592 29.9688H17.8047V27.6818H18.3132V33.5H17.8189V32.6903H17.7592C17.7005 32.8229 17.6172 32.9593 17.5092 33.0994C17.4013 33.2377 17.2583 33.3542 17.0803 33.4489C16.9041 33.5436 16.6835 33.5909 16.4183 33.5909ZM16.478 33.1278C16.7602 33.1278 17.0007 33.0511 17.1996 32.8977C17.3984 32.7424 17.55 32.5294 17.6541 32.2585C17.7602 31.9858 17.8132 31.6733 17.8132 31.321C17.8132 30.9725 17.7611 30.6648 17.657 30.3977C17.5528 30.1288 17.4013 29.9186 17.2024 29.767C17.0036 29.6136 16.7621 29.5369 16.478 29.5369C16.1863 29.5369 15.9401 29.6165 15.7393 29.7756C15.5405 29.9328 15.389 30.1458 15.2848 30.4148C15.1825 30.6837 15.1314 30.9858 15.1314 31.321C15.1314 31.66 15.1835 31.9659 15.2876 32.2386C15.3918 32.5114 15.5433 32.7282 15.7422 32.8892C15.9429 33.0483 16.1882 33.1278 16.478 33.1278ZM20.9723 33.5994C20.709 33.5994 20.4685 33.5483 20.2507 33.446C20.0329 33.3419 19.8596 33.1922 19.7308 32.9972C19.602 32.8002 19.5376 32.5616 19.5376 32.2812C19.5376 32.0653 19.5784 31.8835 19.6598 31.7358C19.7412 31.5881 19.8568 31.4669 20.0064 31.3722C20.156 31.2775 20.3331 31.2027 20.5376 31.1477C20.7422 31.0928 20.9676 31.0502 21.2138 31.0199C21.4581 30.9896 21.6645 30.9631 21.8331 30.9403C22.0036 30.9176 22.1333 30.8816 22.2223 30.8324C22.3113 30.7831 22.3558 30.7036 22.3558 30.5938V30.4915C22.3558 30.1941 22.2668 29.9602 22.0888 29.7898C21.9126 29.6174 21.6589 29.5312 21.3274 29.5312C21.013 29.5312 20.7564 29.6004 20.5575 29.7386C20.3606 29.8769 20.2223 30.0398 20.1428 30.2273L19.6626 30.054C19.7611 29.8153 19.8975 29.625 20.0717 29.483C20.246 29.339 20.4411 29.2358 20.657 29.1733C20.8729 29.1089 21.0916 29.0767 21.3132 29.0767C21.4799 29.0767 21.6532 29.0985 21.8331 29.142C22.0149 29.1856 22.1835 29.2614 22.3388 29.3693C22.4941 29.4754 22.62 29.6241 22.7166 29.8153C22.8132 30.0047 22.8615 30.2453 22.8615 30.5369V33.5H22.3558V32.8097H22.3246C22.264 32.9384 22.174 33.0634 22.0547 33.1847C21.9354 33.3059 21.7857 33.4053 21.6058 33.483C21.4259 33.5606 21.2147 33.5994 20.9723 33.5994ZM21.0405 33.1364C21.3094 33.1364 21.5424 33.0767 21.7393 32.9574C21.9363 32.8381 22.0878 32.6799 22.1939 32.483C22.3018 32.2841 22.3558 32.0653 22.3558 31.8267V31.196C22.3179 31.232 22.2545 31.2642 22.1655 31.2926C22.0784 31.321 21.977 31.3466 21.8615 31.3693C21.7479 31.3902 21.6342 31.4081 21.5206 31.4233C21.407 31.4384 21.3047 31.4517 21.2138 31.4631C20.9676 31.4934 20.7573 31.5407 20.5831 31.6051C20.4089 31.6695 20.2753 31.7585 20.1825 31.8722C20.0897 31.9839 20.0433 32.1278 20.0433 32.304C20.0433 32.5691 20.138 32.7746 20.3274 32.9205C20.5168 33.0644 20.7545 33.1364 21.0405 33.1364ZM25.8714 35.2273C25.5741 35.2273 25.3137 35.1884 25.0902 35.1108C24.8667 35.035 24.6783 34.9309 24.5249 34.7983C24.3714 34.6657 24.2521 34.517 24.1669 34.3523L24.5817 34.0795C24.6442 34.1894 24.7275 34.2973 24.8317 34.4034C24.9377 34.5095 25.075 34.5975 25.2436 34.6676C25.4141 34.7377 25.6233 34.7727 25.8714 34.7727C26.2578 34.7727 26.5694 34.6761 26.8061 34.483C27.0447 34.2898 27.1641 33.9896 27.1641 33.5824V32.5994H27.1186C27.0599 32.732 26.9756 32.8646 26.8658 32.9972C26.7559 33.1278 26.612 33.2367 26.4339 33.3239C26.2578 33.411 26.0391 33.4545 25.7777 33.4545C25.4292 33.4545 25.1196 33.3684 24.8487 33.196C24.5798 33.0237 24.3677 32.7775 24.2124 32.4574C24.0589 32.1354 23.9822 31.7519 23.9822 31.3068C23.9822 30.8655 24.0571 30.4773 24.2067 30.142C24.3582 29.8068 24.5694 29.5455 24.8402 29.358C25.111 29.1705 25.4264 29.0767 25.7862 29.0767C26.0533 29.0767 26.2749 29.1241 26.451 29.2188C26.6271 29.3116 26.7682 29.4271 26.8743 29.5653C26.9822 29.7036 27.0665 29.8381 27.1271 29.9688H27.1783V29.1364H27.6726V33.6136C27.6726 33.983 27.594 34.2869 27.4368 34.5256C27.2796 34.7642 27.0656 34.9403 26.7947 35.054C26.5239 35.1695 26.2161 35.2273 25.8714 35.2273ZM25.8374 32.9915C26.1177 32.9915 26.3572 32.9242 26.5561 32.7898C26.755 32.6534 26.9074 32.4583 27.0135 32.2045C27.1196 31.9508 27.1726 31.6487 27.1726 31.2983C27.1726 30.9574 27.1205 30.6553 27.0163 30.392C26.9122 30.1269 26.7607 29.9186 26.5618 29.767C26.3648 29.6136 26.1233 29.5369 25.8374 29.5369C25.5457 29.5369 25.2995 29.6155 25.0987 29.7727C24.898 29.9299 24.7464 30.142 24.6442 30.4091C24.5419 30.6742 24.4908 30.9706 24.4908 31.2983C24.4908 31.6316 24.5429 31.9261 24.647 32.1818C24.7512 32.4356 24.9036 32.6345 25.1044 32.7784C25.3052 32.9205 25.5495 32.9915 25.8374 32.9915ZM30.2301 33.5994C29.9669 33.5994 29.7263 33.5483 29.5085 33.446C29.2907 33.3419 29.1174 33.1922 28.9886 32.9972C28.8598 32.8002 28.7955 32.5616 28.7955 32.2812C28.7955 32.0653 28.8362 31.8835 28.9176 31.7358C28.9991 31.5881 29.1146 31.4669 29.2642 31.3722C29.4138 31.2775 29.5909 31.2027 29.7955 31.1477C30 31.0928 30.2254 31.0502 30.4716 31.0199C30.7159 30.9896 30.9223 30.9631 31.0909 30.9403C31.2614 30.9176 31.3911 30.8816 31.4801 30.8324C31.5691 30.7831 31.6136 30.7036 31.6136 30.5938V30.4915C31.6136 30.1941 31.5246 29.9602 31.3466 29.7898C31.1705 29.6174 30.9167 29.5312 30.5852 29.5312C30.2708 29.5312 30.0142 29.6004 29.8153 29.7386C29.6184 29.8769 29.4801 30.0398 29.4006 30.2273L28.9205 30.054C29.0189 29.8153 29.1553 29.625 29.3295 29.483C29.5038 29.339 29.6989 29.2358 29.9148 29.1733C30.1307 29.1089 30.3494 29.0767 30.571 29.0767C30.7377 29.0767 30.911 29.0985 31.0909 29.142C31.2727 29.1856 31.4413 29.2614 31.5966 29.3693C31.7519 29.4754 31.8778 29.6241 31.9744 29.8153C32.071 30.0047 32.1193 30.2453 32.1193 30.5369V33.5H31.6136V32.8097H31.5824C31.5218 32.9384 31.4318 33.0634 31.3125 33.1847C31.1932 33.3059 31.0436 33.4053 30.8636 33.483C30.6837 33.5606 30.4725 33.5994 30.2301 33.5994ZM30.2983 33.1364C30.5672 33.1364 30.8002 33.0767 30.9972 32.9574C31.1941 32.8381 31.3456 32.6799 31.4517 32.483C31.5597 32.2841 31.6136 32.0653 31.6136 31.8267V31.196C31.5758 31.232 31.5123 31.2642 31.4233 31.2926C31.3362 31.321 31.2348 31.3466 31.1193 31.3693C31.0057 31.3902 30.892 31.4081 30.7784 31.4233C30.6648 31.4384 30.5625 31.4517 30.4716 31.4631C30.2254 31.4934 30.0152 31.5407 29.8409 31.6051C29.6667 31.6695 29.5331 31.7585 29.4403 31.8722C29.3475 31.9839 29.3011 32.1278 29.3011 32.304C29.3011 32.5691 29.3958 32.7746 29.5852 32.9205C29.7746 33.0644 30.0123 33.1364 30.2983 33.1364ZM33.4645 33.5V29.1364H33.956V29.8068H34.0014C34.0885 29.5814 34.2334 29.4044 34.4361 29.2756C34.6406 29.1449 34.8859 29.0795 35.1719 29.0795C35.473 29.0795 35.7202 29.1506 35.9134 29.2926C36.1084 29.4328 36.2543 29.6259 36.3509 29.8722H36.3878C36.4863 29.6297 36.6463 29.4375 36.8679 29.2955C37.0914 29.1515 37.3622 29.0795 37.6804 29.0795C38.0857 29.0795 38.4058 29.2074 38.6406 29.4631C38.8755 29.7169 38.9929 30.0881 38.9929 30.5767V33.5H38.4872V30.5767C38.4872 30.232 38.3991 29.9735 38.223 29.8011C38.0469 29.6288 37.8149 29.5426 37.527 29.5426C37.1937 29.5426 36.937 29.6449 36.7571 29.8494C36.5772 30.054 36.4872 30.3134 36.4872 30.6278V33.5H35.9702V30.5312C35.9702 30.2358 35.8878 29.9972 35.723 29.8153C35.5582 29.6335 35.3262 29.5426 35.027 29.5426C34.8262 29.5426 34.6454 29.5919 34.4844 29.6903C34.3253 29.7888 34.1993 29.9261 34.1065 30.1023C34.0156 30.2765 33.9702 30.4773 33.9702 30.7045V33.5H33.4645ZM42.6868 33.5V27.6818H44.5646C44.9775 27.6818 45.3222 27.7566 45.5987 27.9062C45.8771 28.054 46.0864 28.2595 46.2266 28.5227C46.3686 28.7841 46.4396 29.0843 46.4396 29.4233C46.4396 29.7623 46.3686 30.0616 46.2266 30.321C46.0864 30.5805 45.8781 30.7831 45.6016 30.929C45.325 31.0748 44.9822 31.1477 44.5732 31.1477H42.9737V30.6619H44.5589C44.862 30.6619 45.1139 30.6117 45.3146 30.5114C45.5173 30.411 45.6679 30.268 45.7663 30.0824C45.8667 29.8968 45.9169 29.6771 45.9169 29.4233C45.9169 29.1695 45.8667 28.9479 45.7663 28.7585C45.666 28.5672 45.5144 28.4195 45.3118 28.3153C45.111 28.2112 44.8572 28.1591 44.5504 28.1591H43.218V33.5H42.6868ZM45.2521 30.875L46.6839 33.5H46.0703L44.6527 30.875H45.2521ZM49.2777 33.5909C48.9008 33.5909 48.5675 33.4953 48.2777 33.304C47.9898 33.1127 47.7644 32.8485 47.6016 32.5114C47.4387 32.1723 47.3572 31.7812 47.3572 31.3381C47.3572 30.8911 47.4387 30.4981 47.6016 30.1591C47.7644 29.8182 47.9898 29.553 48.2777 29.3636C48.5675 29.1723 48.9008 29.0767 49.2777 29.0767C49.6546 29.0767 49.987 29.1723 50.2749 29.3636C50.5627 29.5549 50.7881 29.8201 50.951 30.1591C51.1158 30.4981 51.1982 30.8911 51.1982 31.3381C51.1982 31.7812 51.1167 32.1723 50.9538 32.5114C50.791 32.8485 50.5646 33.1127 50.2749 33.304C49.987 33.4953 49.6546 33.5909 49.2777 33.5909ZM49.2777 33.1278C49.5807 33.1278 49.8374 33.0464 50.0476 32.8835C50.2578 32.7206 50.4169 32.5038 50.5249 32.233C50.6347 31.9621 50.6896 31.6638 50.6896 31.3381C50.6896 31.0123 50.6347 30.7131 50.5249 30.4403C50.4169 30.1676 50.2578 29.9489 50.0476 29.7841C49.8374 29.6193 49.5807 29.5369 49.2777 29.5369C48.9766 29.5369 48.7199 29.6193 48.5078 29.7841C48.2976 29.9489 48.1375 30.1676 48.0277 30.4403C47.9197 30.7131 47.8658 31.0123 47.8658 31.3381C47.8658 31.6638 47.9197 31.9621 48.0277 32.233C48.1375 32.5038 48.2976 32.7206 48.5078 32.8835C48.718 33.0464 48.9747 33.1278 49.2777 33.1278ZM53.527 33.5994C53.2637 33.5994 53.0232 33.5483 52.8054 33.446C52.5876 33.3419 52.4143 33.1922 52.2855 32.9972C52.1567 32.8002 52.0923 32.5616 52.0923 32.2812C52.0923 32.0653 52.133 31.8835 52.2145 31.7358C52.2959 31.5881 52.4115 31.4669 52.5611 31.3722C52.7107 31.2775 52.8878 31.2027 53.0923 31.1477C53.2969 31.0928 53.5223 31.0502 53.7685 31.0199C54.0128 30.9896 54.2192 30.9631 54.3878 30.9403C54.5582 30.9176 54.688 30.8816 54.777 30.8324C54.866 30.7831 54.9105 30.7036 54.9105 30.5938V30.4915C54.9105 30.1941 54.8215 29.9602 54.6435 29.7898C54.4673 29.6174 54.2135 29.5312 53.8821 29.5312C53.5677 29.5312 53.3111 29.6004 53.1122 29.7386C52.9152 29.8769 52.777 30.0398 52.6974 30.2273L52.2173 30.054C52.3158 29.8153 52.4522 29.625 52.6264 29.483C52.8007 29.339 52.9957 29.2358 53.2116 29.1733C53.4276 29.1089 53.6463 29.0767 53.8679 29.0767C54.0346 29.0767 54.2079 29.0985 54.3878 29.142C54.5696 29.1856 54.7382 29.2614 54.8935 29.3693C55.0488 29.4754 55.1747 29.6241 55.2713 29.8153C55.3679 30.0047 55.4162 30.2453 55.4162 30.5369V33.5H54.9105V32.8097H54.8793C54.8187 32.9384 54.7287 33.0634 54.6094 33.1847C54.4901 33.3059 54.3404 33.4053 54.1605 33.483C53.9806 33.5606 53.7694 33.5994 53.527 33.5994ZM53.5952 33.1364C53.8641 33.1364 54.0971 33.0767 54.294 32.9574C54.491 32.8381 54.6425 32.6799 54.7486 32.483C54.8565 32.2841 54.9105 32.0653 54.9105 31.8267V31.196C54.8726 31.232 54.8092 31.2642 54.7202 31.2926C54.633 31.321 54.5317 31.3466 54.4162 31.3693C54.3026 31.3902 54.1889 31.4081 54.0753 31.4233C53.9616 31.4384 53.8594 31.4517 53.7685 31.4631C53.5223 31.4934 53.312 31.5407 53.1378 31.6051C52.9635 31.6695 52.83 31.7585 52.7372 31.8722C52.6444 31.9839 52.598 32.1278 52.598 32.304C52.598 32.5691 52.6927 32.7746 52.8821 32.9205C53.0715 33.0644 53.3092 33.1364 53.5952 33.1364ZM58.3324 33.5909C57.9744 33.5909 57.661 33.4962 57.392 33.3068C57.1231 33.1174 56.9129 32.8532 56.7614 32.5142C56.6117 32.1752 56.5369 31.7803 56.5369 31.3295C56.5369 30.8807 56.6117 30.4877 56.7614 30.1506C56.9129 29.8116 57.1241 29.5483 57.3949 29.3608C57.6657 29.1714 57.9811 29.0767 58.3409 29.0767C58.6061 29.0767 58.8267 29.1241 59.0028 29.2188C59.179 29.3116 59.3201 29.4271 59.4261 29.5653C59.5322 29.7036 59.6146 29.8381 59.6733 29.9688H59.7188V27.6818H60.2273V33.5H59.733V32.6903H59.6733C59.6146 32.8229 59.5313 32.9593 59.4233 33.0994C59.3153 33.2377 59.1723 33.3542 58.9943 33.4489C58.8182 33.5436 58.5975 33.5909 58.3324 33.5909ZM58.392 33.1278C58.6742 33.1278 58.9148 33.0511 59.1136 32.8977C59.3125 32.7424 59.464 32.5294 59.5682 32.2585C59.6742 31.9858 59.7273 31.6733 59.7273 31.321C59.7273 30.9725 59.6752 30.6648 59.571 30.3977C59.4669 30.1288 59.3153 29.9186 59.1165 29.767C58.9176 29.6136 58.6761 29.5369 58.392 29.5369C58.1004 29.5369 57.8542 29.6165 57.6534 29.7756C57.4545 29.9328 57.303 30.1458 57.1989 30.4148C57.0966 30.6837 57.0455 30.9858 57.0455 31.321C57.0455 31.66 57.0975 31.9659 57.2017 32.2386C57.3059 32.5114 57.4574 32.7282 57.6562 32.8892C57.857 33.0483 58.1023 33.1278 58.392 33.1278ZM62.5085 32.7045L62.4574 33.0085C62.4252 33.2131 62.3797 33.4384 62.321 33.6847C62.2623 33.9309 62.2017 34.1648 62.1392 34.3864C62.0767 34.608 62.0227 34.786 61.9773 34.9205H61.5881C61.6127 34.7917 61.6439 34.6278 61.6818 34.429C61.7216 34.2301 61.7623 34.0095 61.804 33.767C61.8456 33.5265 61.8835 33.2784 61.9176 33.0227L61.9574 32.7045H62.5085ZM5.32955 40.5H4.79545C4.75568 40.3011 4.68371 40.1174 4.57955 39.9489C4.47727 39.7784 4.34848 39.6297 4.19318 39.5028C4.03788 39.3759 3.86174 39.2775 3.66477 39.2074C3.4678 39.1373 3.25473 39.1023 3.02557 39.1023C2.65814 39.1023 2.32292 39.1979 2.01989 39.3892C1.71875 39.5805 1.47727 39.8617 1.29545 40.233C1.11553 40.6023 1.02557 41.0549 1.02557 41.5909C1.02557 42.1307 1.11553 42.5852 1.29545 42.9545C1.47727 43.3239 1.71875 43.6042 2.01989 43.7955C2.32292 43.9848 2.65814 44.0795 3.02557 44.0795C3.25473 44.0795 3.4678 44.0445 3.66477 43.9744C3.86174 43.9044 4.03788 43.8068 4.19318 43.6818C4.34848 43.5549 4.47727 43.4062 4.57955 43.2358C4.68371 43.0653 4.75568 42.8807 4.79545 42.6818H5.32955C5.2822 42.9489 5.19318 43.1979 5.0625 43.429C4.93371 43.6581 4.76894 43.8589 4.56818 44.0312C4.36932 44.2036 4.14015 44.3381 3.88068 44.4347C3.62121 44.5312 3.33617 44.5795 3.02557 44.5795C2.53693 44.5795 2.10322 44.4574 1.72443 44.2131C1.34564 43.9669 1.0483 43.6203 0.832386 43.1733C0.618371 42.7263 0.511364 42.1989 0.511364 41.5909C0.511364 40.983 0.618371 40.4555 0.832386 40.0085C1.0483 39.5616 1.34564 39.2159 1.72443 38.9716C2.10322 38.7254 2.53693 38.6023 3.02557 38.6023C3.33617 38.6023 3.62121 38.6506 3.88068 38.7472C4.14015 38.8419 4.36932 38.9763 4.56818 39.1506C4.76894 39.3229 4.93371 39.5237 5.0625 39.7528C5.19318 39.982 5.2822 40.2311 5.32955 40.5ZM8.16832 44.5909C7.79143 44.5909 7.4581 44.4953 7.16832 44.304C6.88045 44.1127 6.65507 43.8485 6.49219 43.5114C6.32931 43.1723 6.24787 42.7812 6.24787 42.3381C6.24787 41.8911 6.32931 41.4981 6.49219 41.1591C6.65507 40.8182 6.88045 40.553 7.16832 40.3636C7.4581 40.1723 7.79143 40.0767 8.16832 40.0767C8.54522 40.0767 8.8776 40.1723 9.16548 40.3636C9.45336 40.5549 9.67874 40.8201 9.84162 41.1591C10.0064 41.4981 10.0888 41.8911 10.0888 42.3381C10.0888 42.7812 10.0073 43.1723 9.84446 43.5114C9.68158 43.8485 9.45526 44.1127 9.16548 44.304C8.8776 44.4953 8.54522 44.5909 8.16832 44.5909ZM8.16832 44.1278C8.47135 44.1278 8.72798 44.0464 8.93821 43.8835C9.14844 43.7206 9.30753 43.5038 9.41548 43.233C9.52533 42.9621 9.58026 42.6638 9.58026 42.3381C9.58026 42.0123 9.52533 41.7131 9.41548 41.4403C9.30753 41.1676 9.14844 40.9489 8.93821 40.7841C8.72798 40.6193 8.47135 40.5369 8.16832 40.5369C7.86719 40.5369 7.61056 40.6193 7.39844 40.7841C7.18821 40.9489 7.02817 41.1676 6.91832 41.4403C6.81037 41.7131 6.75639 42.0123 6.75639 42.3381C6.75639 42.6638 6.81037 42.9621 6.91832 43.233C7.02817 43.5038 7.18821 43.7206 7.39844 43.8835C7.60866 44.0464 7.86529 44.1278 8.16832 44.1278ZM11.2045 44.5V40.1364H11.7131V44.5H11.2045ZM11.4631 39.3864C11.3589 39.3864 11.2699 39.3513 11.196 39.2812C11.1222 39.2093 11.0852 39.1231 11.0852 39.0227C11.0852 38.9223 11.1222 38.8371 11.196 38.767C11.2699 38.6951 11.3589 38.6591 11.4631 38.6591C11.5672 38.6591 11.6563 38.6951 11.7301 38.767C11.804 38.8371 11.8409 38.9223 11.8409 39.0227C11.8409 39.1231 11.804 39.2093 11.7301 39.2812C11.6563 39.3513 11.5672 39.3864 11.4631 39.3864ZM13.0504 44.5V40.1364H13.5419V40.8068H13.5874C13.6745 40.5814 13.8194 40.4044 14.022 40.2756C14.2266 40.1449 14.4718 40.0795 14.7578 40.0795C15.0589 40.0795 15.3061 40.1506 15.4993 40.2926C15.6944 40.4328 15.8402 40.6259 15.9368 40.8722H15.9737C16.0722 40.6297 16.2322 40.4375 16.4538 40.2955C16.6773 40.1515 16.9482 40.0795 17.2663 40.0795C17.6716 40.0795 17.9917 40.2074 18.2266 40.4631C18.4614 40.7169 18.5788 41.0881 18.5788 41.5767V44.5H18.0732V41.5767C18.0732 41.232 17.9851 40.9735 17.8089 40.8011C17.6328 40.6288 17.4008 40.5426 17.1129 40.5426C16.7796 40.5426 16.523 40.6449 16.343 40.8494C16.1631 41.054 16.0732 41.3134 16.0732 41.6278V44.5H15.5561V41.5312C15.5561 41.2358 15.4737 40.9972 15.3089 40.8153C15.1442 40.6335 14.9122 40.5426 14.6129 40.5426C14.4122 40.5426 14.2313 40.5919 14.0703 40.6903C13.9112 40.7888 13.7853 40.9261 13.6925 41.1023C13.6016 41.2765 13.5561 41.4773 13.5561 41.7045V44.5H13.0504ZM20.0227 44.5V38.6818H20.5312V40.9688H20.5767C20.6335 40.8381 20.715 40.7036 20.821 40.5653C20.929 40.4271 21.0701 40.3116 21.2443 40.2188C21.4205 40.1241 21.642 40.0767 21.9091 40.0767C22.267 40.0767 22.5814 40.1714 22.8523 40.3608C23.1231 40.5483 23.3343 40.8116 23.4858 41.1506C23.6373 41.4877 23.7131 41.8807 23.7131 42.3295C23.7131 42.7803 23.6373 43.1752 23.4858 43.5142C23.3362 43.8532 23.1259 44.1174 22.8551 44.3068C22.5862 44.4962 22.2737 44.5909 21.9176 44.5909C21.6525 44.5909 21.4309 44.5436 21.2528 44.4489C21.0767 44.3542 20.9347 44.2377 20.8267 44.0994C20.7188 43.9593 20.6354 43.8229 20.5767 43.6903H20.5142V44.5H20.0227ZM20.5227 42.321C20.5227 42.6733 20.5748 42.9858 20.679 43.2585C20.785 43.5294 20.9366 43.7424 21.1335 43.8977C21.3324 44.0511 21.5729 44.1278 21.8551 44.1278C22.1449 44.1278 22.3902 44.0483 22.5909 43.8892C22.7917 43.7282 22.9441 43.5114 23.0483 43.2386C23.1525 42.9659 23.2045 42.66 23.2045 42.321C23.2045 41.9858 23.1525 41.6837 23.0483 41.4148C22.946 41.1458 22.7945 40.9328 22.5938 40.7756C22.393 40.6165 22.1468 40.5369 21.8551 40.5369C21.571 40.5369 21.3295 40.6136 21.1307 40.767C20.9337 40.9186 20.7831 41.1288 20.679 41.3977C20.5748 41.6648 20.5227 41.9725 20.5227 42.321ZM26.0426 44.5994C25.7794 44.5994 25.5388 44.5483 25.321 44.446C25.1032 44.3419 24.9299 44.1922 24.8011 43.9972C24.6723 43.8002 24.608 43.5616 24.608 43.2812C24.608 43.0653 24.6487 42.8835 24.7301 42.7358C24.8116 42.5881 24.9271 42.4669 25.0767 42.3722C25.2263 42.2775 25.4034 42.2027 25.608 42.1477C25.8125 42.0928 26.0379 42.0502 26.2841 42.0199C26.5284 41.9896 26.7348 41.9631 26.9034 41.9403C27.0739 41.9176 27.2036 41.8816 27.2926 41.8324C27.3816 41.7831 27.4261 41.7036 27.4261 41.5938V41.4915C27.4261 41.1941 27.3371 40.9602 27.1591 40.7898C26.983 40.6174 26.7292 40.5312 26.3977 40.5312C26.0833 40.5312 25.8267 40.6004 25.6278 40.7386C25.4309 40.8769 25.2926 41.0398 25.2131 41.2273L24.733 41.054C24.8314 40.8153 24.9678 40.625 25.142 40.483C25.3163 40.339 25.5114 40.2358 25.7273 40.1733C25.9432 40.1089 26.1619 40.0767 26.3835 40.0767C26.5502 40.0767 26.7235 40.0985 26.9034 40.142C27.0852 40.1856 27.2538 40.2614 27.4091 40.3693C27.5644 40.4754 27.6903 40.6241 27.7869 40.8153C27.8835 41.0047 27.9318 41.2453 27.9318 41.5369V44.5H27.4261V43.8097H27.3949C27.3343 43.9384 27.2443 44.0634 27.125 44.1847C27.0057 44.3059 26.8561 44.4053 26.6761 44.483C26.4962 44.5606 26.285 44.5994 26.0426 44.5994ZM26.1108 44.1364C26.3797 44.1364 26.6127 44.0767 26.8097 43.9574C27.0066 43.8381 27.1581 43.6799 27.2642 43.483C27.3722 43.2841 27.4261 43.0653 27.4261 42.8267V42.196C27.3883 42.232 27.3248 42.2642 27.2358 42.2926C27.1487 42.321 27.0473 42.3466 26.9318 42.3693C26.8182 42.3902 26.7045 42.4081 26.5909 42.4233C26.4773 42.4384 26.375 42.4517 26.2841 42.4631C26.0379 42.4934 25.8277 42.5407 25.6534 42.6051C25.4792 42.6695 25.3456 42.7585 25.2528 42.8722C25.16 42.9839 25.1136 43.1278 25.1136 43.304C25.1136 43.5691 25.2083 43.7746 25.3977 43.9205C25.5871 44.0644 25.8248 44.1364 26.1108 44.1364ZM30.9957 40.1364V40.5767H28.9134V40.1364H30.9957ZM29.5639 39.0909H30.0724V43.3608C30.0724 43.5426 30.1037 43.6856 30.1662 43.7898C30.2287 43.892 30.3101 43.965 30.4105 44.0085C30.5109 44.0502 30.6179 44.071 30.7315 44.071C30.7978 44.071 30.8546 44.0672 30.902 44.0597C30.9493 44.0502 30.991 44.0407 31.027 44.0312L31.1349 44.4886C31.0857 44.5076 31.0251 44.5246 30.9531 44.5398C30.8812 44.5568 30.7921 44.5653 30.6861 44.5653C30.5005 44.5653 30.3215 44.5246 30.1491 44.4432C29.9787 44.3617 29.8385 44.2405 29.7287 44.0795C29.6188 43.9186 29.5639 43.7188 29.5639 43.4801V39.0909ZM33.7933 44.5909C33.4164 44.5909 33.0831 44.4953 32.7933 44.304C32.5054 44.1127 32.2801 43.8485 32.1172 43.5114C31.9543 43.1723 31.8729 42.7812 31.8729 42.3381C31.8729 41.8911 31.9543 41.4981 32.1172 41.1591C32.2801 40.8182 32.5054 40.553 32.7933 40.3636C33.0831 40.1723 33.4164 40.0767 33.7933 40.0767C34.1702 40.0767 34.5026 40.1723 34.7905 40.3636C35.0784 40.5549 35.3037 40.8201 35.4666 41.1591C35.6314 41.4981 35.7138 41.8911 35.7138 42.3381C35.7138 42.7812 35.6323 43.1723 35.4695 43.5114C35.3066 43.8485 35.0803 44.1127 34.7905 44.304C34.5026 44.4953 34.1702 44.5909 33.7933 44.5909ZM33.7933 44.1278C34.0964 44.1278 34.353 44.0464 34.5632 43.8835C34.7734 43.7206 34.9325 43.5038 35.0405 43.233C35.1503 42.9621 35.2053 42.6638 35.2053 42.3381C35.2053 42.0123 35.1503 41.7131 35.0405 41.4403C34.9325 41.1676 34.7734 40.9489 34.5632 40.7841C34.353 40.6193 34.0964 40.5369 33.7933 40.5369C33.4922 40.5369 33.2356 40.6193 33.0234 40.7841C32.8132 40.9489 32.6532 41.1676 32.5433 41.4403C32.4354 41.7131 32.3814 42.0123 32.3814 42.3381C32.3814 42.6638 32.4354 42.9621 32.5433 43.233C32.6532 43.5038 32.8132 43.7206 33.0234 43.8835C33.2337 44.0464 33.4903 44.1278 33.7933 44.1278ZM36.8239 44.5V40.1364H37.3153V40.8068H37.3523C37.4394 40.5871 37.5909 40.41 37.8068 40.2756C38.0246 40.1392 38.2708 40.071 38.5455 40.071C38.5871 40.071 38.6335 40.072 38.6847 40.0739C38.7358 40.0758 38.7784 40.0777 38.8125 40.0795V40.5938C38.7898 40.59 38.75 40.5843 38.6932 40.5767C38.6364 40.5691 38.5748 40.5653 38.5085 40.5653C38.2813 40.5653 38.0786 40.6136 37.9006 40.7102C37.7244 40.8049 37.5852 40.9366 37.483 41.1051C37.3807 41.2737 37.3295 41.4659 37.3295 41.6818V44.5H36.8239ZM41.3068 44.5909C40.8996 44.5909 40.5473 44.4962 40.25 44.3068C39.9527 44.1155 39.7225 43.8513 39.5597 43.5142C39.3987 43.1752 39.3182 42.785 39.3182 42.3438C39.3182 41.9044 39.3987 41.5142 39.5597 41.1733C39.7225 40.8305 39.947 40.5625 40.233 40.3693C40.5208 40.1742 40.8532 40.0767 41.2301 40.0767C41.4669 40.0767 41.6951 40.1203 41.9148 40.2074C42.1345 40.2926 42.3314 40.4242 42.5057 40.6023C42.6818 40.7784 42.821 41.0009 42.9233 41.2699C43.0256 41.5369 43.0767 41.8532 43.0767 42.2188V42.4688H39.6676V42.0227H42.5597C42.5597 41.7424 42.5028 41.4905 42.3892 41.267C42.2775 41.0417 42.1212 40.8636 41.9205 40.733C41.7216 40.6023 41.4915 40.5369 41.2301 40.5369C40.9536 40.5369 40.7102 40.6108 40.5 40.7585C40.2898 40.9062 40.125 41.1013 40.0057 41.3438C39.8883 41.5862 39.8286 41.8513 39.8267 42.1392V42.4062C39.8267 42.7528 39.8864 43.0559 40.0057 43.3153C40.1269 43.5729 40.2983 43.7727 40.5199 43.9148C40.7415 44.0568 41.0038 44.1278 41.3068 44.1278C41.5133 44.1278 41.6941 44.0956 41.8494 44.0312C42.0066 43.9669 42.1383 43.8807 42.2443 43.7727C42.3523 43.6629 42.4337 43.5426 42.4886 43.4119L42.9688 43.5682C42.9025 43.7519 42.7936 43.9214 42.642 44.0767C42.4924 44.232 42.3049 44.357 42.0795 44.4517C41.8561 44.5445 41.5985 44.5909 41.3068 44.5909ZM49.7734 41.3523V41.8295H45.7734V41.3523H49.7734ZM54.5036 44.5795C54.263 44.5777 54.0282 44.5294 53.799 44.4347C53.5698 44.3381 53.3634 44.1837 53.1797 43.9716C52.996 43.7576 52.8501 43.4754 52.7422 43.125C52.6342 42.7746 52.5803 42.3437 52.5803 41.8324C52.5803 41.3589 52.6219 40.9252 52.7053 40.5312C52.7886 40.1373 52.9136 39.7964 53.0803 39.5085C53.2469 39.2206 53.4553 38.9981 53.7053 38.8409C53.9553 38.6818 54.2479 38.6023 54.5831 38.6023C54.8975 38.6023 55.175 38.6676 55.4155 38.7983C55.656 38.9271 55.8511 39.107 56.0007 39.3381C56.1503 39.5691 56.2441 39.8352 56.282 40.1364H55.7592C55.7062 39.8295 55.5803 39.5767 55.3814 39.3778C55.1825 39.179 54.9164 39.0795 54.5831 39.0795C54.1058 39.0795 53.7365 39.3011 53.4751 39.7443C53.2138 40.1856 53.0821 40.8125 53.0803 41.625H53.1172C53.21 41.4527 53.3293 41.304 53.4751 41.179C53.6229 41.0521 53.7905 40.9536 53.978 40.8835C54.1655 40.8116 54.3625 40.7756 54.5689 40.7756C54.8928 40.7756 55.1892 40.858 55.4581 41.0227C55.727 41.1856 55.942 41.41 56.103 41.696C56.264 41.9801 56.3445 42.3049 56.3445 42.6705C56.3445 43.017 56.2678 43.3362 56.1143 43.6278C55.9628 43.9195 55.7488 44.1515 55.4723 44.3239C55.1977 44.4962 54.8748 44.5814 54.5036 44.5795ZM54.5036 44.1023C54.7573 44.1023 54.9837 44.0379 55.1825 43.9091C55.3833 43.7803 55.5414 43.608 55.657 43.392C55.7725 43.1742 55.8303 42.9337 55.8303 42.6705C55.8303 42.4072 55.7725 42.1686 55.657 41.9545C55.5414 41.7405 55.3833 41.5701 55.1825 41.4432C54.9837 41.3163 54.7573 41.2528 54.5036 41.2528C54.3104 41.2528 54.1304 41.2926 53.9638 41.3722C53.7971 41.4498 53.6522 41.5568 53.5291 41.6932C53.4079 41.8277 53.3151 41.982 53.2507 42.1562C53.1882 42.3305 53.1645 42.5133 53.1797 42.7045C53.2005 42.9716 53.2696 43.2112 53.3871 43.4233C53.5064 43.6335 53.6617 43.7992 53.853 43.9205C54.0462 44.0417 54.263 44.1023 54.5036 44.1023ZM57.407 43.25V42.8182L60.0007 38.6818H60.3189V39.4062H60.0831L58.0007 42.7358V42.7727H61.4013V43.25H57.407ZM60.1229 44.5V43.1136V42.9148V38.6818H60.6286V44.5H60.1229ZM64.2713 38.6818V44.5H63.7401V39.2386H63.706L62.3423 40.1449V39.5938L63.7173 38.6818H64.2713ZM67.8338 38.6818V44.5H67.3026V39.2386H67.2685L65.9048 40.1449V39.5938L67.2798 38.6818H67.8338ZM71.4077 44.5795C70.9986 44.5795 70.6491 44.4621 70.3594 44.2273C70.0715 43.9905 69.8499 43.6487 69.6946 43.2017C69.5412 42.7547 69.4645 42.2178 69.4645 41.5909C69.4645 40.9659 69.5412 40.4309 69.6946 39.9858C69.8499 39.5388 70.0724 39.197 70.3622 38.9602C70.6539 38.7216 71.0024 38.6023 71.4077 38.6023C71.813 38.6023 72.1605 38.7216 72.4503 38.9602C72.742 39.197 72.9645 39.5388 73.1179 39.9858C73.2732 40.4309 73.3509 40.9659 73.3509 41.5909C73.3509 42.2178 73.2732 42.7547 73.1179 43.2017C72.9645 43.6487 72.7429 43.9905 72.4531 44.2273C72.1652 44.4621 71.8168 44.5795 71.4077 44.5795ZM71.4077 44.1023C71.8565 44.1023 72.2069 43.8835 72.4588 43.446C72.7107 43.0066 72.8366 42.3883 72.8366 41.5909C72.8366 41.0606 72.7789 40.608 72.6634 40.233C72.5497 39.8561 72.3859 39.5682 72.1719 39.3693C71.9598 39.1705 71.705 39.071 71.4077 39.071C70.9626 39.071 70.6132 39.2926 70.3594 39.7358C70.1056 40.1771 69.9787 40.7955 69.9787 41.5909C69.9787 42.1212 70.0355 42.5739 70.1491 42.9489C70.2647 43.3239 70.4285 43.6098 70.6406 43.8068C70.8546 44.0038 71.1103 44.1023 71.4077 44.1023ZM76.3054 44.5795C75.9342 44.5795 75.6037 44.5095 75.3139 44.3693C75.0241 44.2292 74.7969 44.0379 74.6321 43.7955C74.4673 43.5511 74.3849 43.2756 74.3849 42.9688C74.3849 42.7282 74.4351 42.5038 74.5355 42.2955C74.6359 42.0852 74.7741 41.9091 74.9503 41.767C75.1264 41.6231 75.3243 41.5294 75.544 41.4858V41.4545C75.258 41.3712 75.0279 41.2074 74.8537 40.9631C74.6795 40.7169 74.5933 40.4375 74.5952 40.125C74.5933 39.8352 74.6671 39.5758 74.8168 39.3466C74.9664 39.1174 75.17 38.9366 75.4276 38.804C75.687 38.6695 75.9796 38.6023 76.3054 38.6023C76.6293 38.6023 76.92 38.6695 77.1776 38.804C77.4351 38.9366 77.6387 39.1174 77.7884 39.3466C77.9399 39.5758 78.0166 39.8352 78.0185 40.125C78.0166 40.4356 77.9285 40.715 77.7543 40.9631C77.58 41.2093 77.3509 41.3731 77.0668 41.4545V41.4858C77.2865 41.5275 77.4834 41.6203 77.6577 41.7642C77.8319 41.9081 77.9702 42.0852 78.0724 42.2955C78.1747 42.5038 78.2259 42.7282 78.2259 42.9688C78.2259 43.2756 78.1425 43.5511 77.9759 43.7955C77.8111 44.0379 77.5838 44.2292 77.294 44.3693C77.0062 44.5095 76.6766 44.5795 76.3054 44.5795ZM76.3054 44.1023C76.5819 44.1023 76.8243 44.053 77.0327 43.9545C77.2429 43.8542 77.4067 43.7169 77.5241 43.5426C77.6435 43.3684 77.7031 43.1686 77.7031 42.9432C77.7031 42.7102 77.6416 42.5028 77.5185 42.321C77.3954 42.1373 77.2287 41.9924 77.0185 41.8864C76.8082 41.7784 76.5705 41.7244 76.3054 41.7244C76.0402 41.7244 75.8016 41.7784 75.5895 41.8864C75.3793 41.9924 75.2126 42.1373 75.0895 42.321C74.9683 42.5028 74.9077 42.7102 74.9077 42.9432C74.9077 43.1686 74.9654 43.3684 75.081 43.5426C75.1984 43.7169 75.3622 43.8542 75.5724 43.9545C75.7846 44.053 76.0289 44.1023 76.3054 44.1023ZM76.3054 41.2699C76.5327 41.2699 76.7363 41.2216 76.9162 41.125C77.0961 41.0284 77.2382 40.8968 77.3423 40.7301C77.4484 40.5616 77.5024 40.3703 77.5043 40.1562C77.5024 39.9441 77.4493 39.7566 77.3452 39.5938C77.241 39.429 77.099 39.3011 76.919 39.2102C76.741 39.1174 76.5365 39.071 76.3054 39.071C76.0743 39.071 75.8679 39.1174 75.6861 39.2102C75.5062 39.3011 75.3641 39.429 75.2599 39.5938C75.1577 39.7566 75.1075 39.9441 75.1094 40.1562C75.1075 40.3703 75.1586 40.5616 75.2628 40.7301C75.3688 40.8968 75.5118 41.0284 75.6918 41.125C75.8736 41.2216 76.0781 41.2699 76.3054 41.2699ZM80.0554 43.7045L80.0043 44.0085C79.9721 44.2131 79.9266 44.4384 79.8679 44.6847C79.8092 44.9309 79.7486 45.1648 79.6861 45.3864C79.6236 45.608 79.5696 45.786 79.5241 45.9205H79.1349C79.1596 45.7917 79.1908 45.6278 79.2287 45.429C79.2685 45.2301 79.3092 45.0095 79.3509 44.767C79.3925 44.5265 79.4304 44.2784 79.4645 44.0227L79.5043 43.7045H80.0554ZM83.397 39.1591V38.6818H87.6158V39.1591H85.772V44.5H85.2408V39.1591H83.397ZM89.3317 44.5994C89.0684 44.5994 88.8279 44.5483 88.6101 44.446C88.3923 44.3419 88.219 44.1922 88.0902 43.9972C87.9614 43.8002 87.897 43.5616 87.897 43.2812C87.897 43.0653 87.9377 42.8835 88.0192 42.7358C88.1006 42.5881 88.2161 42.4669 88.3658 42.3722C88.5154 42.2775 88.6925 42.2027 88.897 42.1477C89.1016 42.0928 89.3269 42.0502 89.5732 42.0199C89.8175 41.9896 90.0239 41.9631 90.1925 41.9403C90.3629 41.9176 90.4927 41.8816 90.5817 41.8324C90.6707 41.7831 90.7152 41.7036 90.7152 41.5938V41.4915C90.7152 41.1941 90.6262 40.9602 90.4482 40.7898C90.272 40.6174 90.0182 40.5312 89.6868 40.5312C89.3724 40.5312 89.1158 40.6004 88.9169 40.7386C88.7199 40.8769 88.5817 41.0398 88.5021 41.2273L88.022 41.054C88.1205 40.8153 88.2569 40.625 88.4311 40.483C88.6054 40.339 88.8004 40.2358 89.0163 40.1733C89.2322 40.1089 89.451 40.0767 89.6726 40.0767C89.8393 40.0767 90.0125 40.0985 90.1925 40.142C90.3743 40.1856 90.5429 40.2614 90.6982 40.3693C90.8535 40.4754 90.9794 40.6241 91.076 40.8153C91.1726 41.0047 91.2209 41.2453 91.2209 41.5369V44.5H90.7152V43.8097H90.6839C90.6233 43.9384 90.5334 44.0634 90.4141 44.1847C90.2947 44.3059 90.1451 44.4053 89.9652 44.483C89.7853 44.5606 89.5741 44.5994 89.3317 44.5994ZM89.3999 44.1364C89.6688 44.1364 89.9018 44.0767 90.0987 43.9574C90.2957 43.8381 90.4472 43.6799 90.5533 43.483C90.6612 43.2841 90.7152 43.0653 90.7152 42.8267V42.196C90.6773 42.232 90.6139 42.2642 90.5249 42.2926C90.4377 42.321 90.3364 42.3466 90.2209 42.3693C90.1072 42.3902 89.9936 42.4081 89.88 42.4233C89.7663 42.4384 89.6641 42.4517 89.5732 42.4631C89.3269 42.4934 89.1167 42.5407 88.9425 42.6051C88.7682 42.6695 88.6347 42.7585 88.5419 42.8722C88.4491 42.9839 88.4027 43.1278 88.4027 43.304C88.4027 43.5691 88.4974 43.7746 88.6868 43.9205C88.8762 44.0644 89.1139 44.1364 89.3999 44.1364ZM92.5661 44.5V40.1364H93.0575V40.8068H93.103C93.1901 40.5814 93.335 40.4044 93.5376 40.2756C93.7422 40.1449 93.9875 40.0795 94.2734 40.0795C94.5746 40.0795 94.8217 40.1506 95.0149 40.2926C95.21 40.4328 95.3558 40.6259 95.4524 40.8722H95.4893C95.5878 40.6297 95.7479 40.4375 95.9695 40.2955C96.1929 40.1515 96.4638 40.0795 96.782 40.0795C97.1873 40.0795 97.5073 40.2074 97.7422 40.4631C97.977 40.7169 98.0945 41.0881 98.0945 41.5767V44.5H97.5888V41.5767C97.5888 41.232 97.5007 40.9735 97.3246 40.8011C97.1484 40.6288 96.9164 40.5426 96.6286 40.5426C96.2952 40.5426 96.0386 40.6449 95.8587 40.8494C95.6787 41.054 95.5888 41.3134 95.5888 41.6278V44.5H95.0717V41.5312C95.0717 41.2358 94.9893 40.9972 94.8246 40.8153C94.6598 40.6335 94.4278 40.5426 94.1286 40.5426C93.9278 40.5426 93.7469 40.5919 93.5859 40.6903C93.4268 40.7888 93.3009 40.9261 93.2081 41.1023C93.1172 41.2765 93.0717 41.4773 93.0717 41.7045V44.5H92.5661ZM99.4389 44.5V40.1364H99.9474V44.5H99.4389ZM99.6974 39.3864C99.5933 39.3864 99.5043 39.3513 99.4304 39.2812C99.3565 39.2093 99.3196 39.1231 99.3196 39.0227C99.3196 38.9223 99.3565 38.8371 99.4304 38.767C99.5043 38.6951 99.5933 38.6591 99.6974 38.6591C99.8016 38.6591 99.8906 38.6951 99.9645 38.767C100.038 38.8371 100.075 38.9223 100.075 39.0227C100.075 39.1231 100.038 39.2093 99.9645 39.2812C99.8906 39.3513 99.8016 39.3864 99.6974 39.3864ZM101.79 38.6818V44.5H101.285V38.6818H101.79ZM110.015 38.6818V44.5H109.498L106.06 39.6278H106.015V44.5H105.484V38.6818H105.998L109.447 43.5597H109.492V38.6818H110.015ZM112.675 44.5994C112.412 44.5994 112.172 44.5483 111.954 44.446C111.736 44.3419 111.563 44.1922 111.434 43.9972C111.305 43.8002 111.241 43.5616 111.241 43.2812C111.241 43.0653 111.281 42.8835 111.363 42.7358C111.444 42.5881 111.56 42.4669 111.71 42.3722C111.859 42.2775 112.036 42.2027 112.241 42.1477C112.445 42.0928 112.671 42.0502 112.917 42.0199C113.161 41.9896 113.368 41.9631 113.536 41.9403C113.707 41.9176 113.836 41.8816 113.925 41.8324C114.014 41.7831 114.059 41.7036 114.059 41.5938V41.4915C114.059 41.1941 113.97 40.9602 113.792 40.7898C113.616 40.6174 113.362 40.5312 113.031 40.5312C112.716 40.5312 112.46 40.6004 112.261 40.7386C112.064 40.8769 111.925 41.0398 111.846 41.2273L111.366 41.054C111.464 40.8153 111.601 40.625 111.775 40.483C111.949 40.339 112.144 40.2358 112.36 40.1733C112.576 40.1089 112.795 40.0767 113.016 40.0767C113.183 40.0767 113.356 40.0985 113.536 40.142C113.718 40.1856 113.887 40.2614 114.042 40.3693C114.197 40.4754 114.323 40.6241 114.42 40.8153C114.516 41.0047 114.565 41.2453 114.565 41.5369V44.5H114.059V43.8097H114.028C113.967 43.9384 113.877 44.0634 113.758 44.1847C113.638 44.3059 113.489 44.4053 113.309 44.483C113.129 44.5606 112.918 44.5994 112.675 44.5994ZM112.744 44.1364C113.013 44.1364 113.246 44.0767 113.442 43.9574C113.639 43.8381 113.791 43.6799 113.897 43.483C114.005 43.2841 114.059 43.0653 114.059 42.8267V42.196C114.021 42.232 113.958 42.2642 113.869 42.2926C113.781 42.321 113.68 42.3466 113.565 42.3693C113.451 42.3902 113.337 42.4081 113.224 42.4233C113.11 42.4384 113.008 42.4517 112.917 42.4631C112.671 42.4934 112.46 42.5407 112.286 42.6051C112.112 42.6695 111.978 42.7585 111.886 42.8722C111.793 42.9839 111.746 43.1278 111.746 43.304C111.746 43.5691 111.841 43.7746 112.031 43.9205C112.22 44.0644 112.458 44.1364 112.744 44.1364ZM117.481 44.5909C117.123 44.5909 116.809 44.4962 116.54 44.3068C116.272 44.1174 116.061 43.8532 115.91 43.5142C115.76 43.1752 115.685 42.7803 115.685 42.3295C115.685 41.8807 115.76 41.4877 115.91 41.1506C116.061 40.8116 116.272 40.5483 116.543 40.3608C116.814 40.1714 117.129 40.0767 117.489 40.0767C117.754 40.0767 117.975 40.1241 118.151 40.2188C118.327 40.3116 118.469 40.4271 118.575 40.5653C118.681 40.7036 118.763 40.8381 118.822 40.9688H118.867V38.6818H119.376V44.5H118.881V43.6903H118.822C118.763 43.8229 118.68 43.9593 118.572 44.0994C118.464 44.2377 118.321 44.3542 118.143 44.4489C117.967 44.5436 117.746 44.5909 117.481 44.5909ZM117.54 44.1278C117.823 44.1278 118.063 44.0511 118.262 43.8977C118.461 43.7424 118.612 43.5294 118.717 43.2585C118.823 42.9858 118.876 42.6733 118.876 42.321C118.876 41.9725 118.824 41.6648 118.719 41.3977C118.615 41.1288 118.464 40.9186 118.265 40.767C118.066 40.6136 117.825 40.5369 117.54 40.5369C117.249 40.5369 117.003 40.6165 116.802 40.7756C116.603 40.9328 116.451 41.1458 116.347 41.4148C116.245 41.6837 116.194 41.9858 116.194 42.321C116.194 42.66 116.246 42.9659 116.35 43.2386C116.454 43.5114 116.606 43.7282 116.805 43.8892C117.005 44.0483 117.251 44.1278 117.54 44.1278ZM123.589 42.8324V40.1364H124.094V44.5H123.589V43.7756H123.549C123.447 43.9991 123.285 44.1856 123.063 44.3352C122.842 44.483 122.571 44.5568 122.251 44.5568C121.972 44.5568 121.725 44.4962 121.509 44.375C121.293 44.2519 121.124 44.072 121.001 43.8352C120.878 43.5985 120.816 43.3078 120.816 42.9631V40.1364H121.322V42.9318C121.322 43.2727 121.422 43.5473 121.623 43.7557C121.824 43.9621 122.081 44.0653 122.396 44.0653C122.593 44.0653 122.782 44.018 122.964 43.9233C123.146 43.8286 123.295 43.6903 123.413 43.5085C123.53 43.3248 123.589 43.0994 123.589 42.8324ZM126.274 43.7045L126.223 44.0085C126.191 44.2131 126.145 44.4384 126.087 44.6847C126.028 44.9309 125.967 45.1648 125.905 45.3864C125.842 45.608 125.788 45.786 125.743 45.9205H125.354C125.378 45.7917 125.41 45.6278 125.447 45.429C125.487 45.2301 125.528 45.0095 125.57 44.767C125.611 44.5265 125.649 44.2784 125.683 44.0227L125.723 43.7045H126.274ZM130.499 38.6818V44.5H129.968V38.6818H130.499ZM132.447 41.7727V44.5H131.941V40.1364H132.433V40.821H132.478C132.58 40.5975 132.739 40.4186 132.955 40.2841C133.173 40.1477 133.442 40.0795 133.762 40.0795C134.056 40.0795 134.313 40.1411 134.535 40.2642C134.758 40.3854 134.932 40.5644 135.055 40.8011C135.18 41.0379 135.242 41.3286 135.242 41.6733V44.5H134.737V41.7045C134.737 41.3466 134.636 41.0634 134.435 40.8551C134.237 40.6468 133.969 40.5426 133.634 40.5426C133.405 40.5426 133.201 40.5919 133.023 40.6903C132.845 40.7888 132.704 40.9309 132.6 41.1165C132.498 41.3002 132.447 41.5189 132.447 41.7727ZM138.145 44.5909C137.787 44.5909 137.473 44.4962 137.205 44.3068C136.936 44.1174 136.725 43.8532 136.574 43.5142C136.424 43.1752 136.349 42.7803 136.349 42.3295C136.349 41.8807 136.424 41.4877 136.574 41.1506C136.725 40.8116 136.937 40.5483 137.207 40.3608C137.478 40.1714 137.794 40.0767 138.153 40.0767C138.419 40.0767 138.639 40.1241 138.815 40.2188C138.991 40.3116 139.133 40.4271 139.239 40.5653C139.345 40.7036 139.427 40.8381 139.486 40.9688H139.531V38.6818H140.04V44.5H139.545V43.6903H139.486C139.427 43.8229 139.344 43.9593 139.236 44.0994C139.128 44.2377 138.985 44.3542 138.807 44.4489C138.631 44.5436 138.41 44.5909 138.145 44.5909ZM138.205 44.1278C138.487 44.1278 138.727 44.0511 138.926 43.8977C139.125 43.7424 139.277 43.5294 139.381 43.2585C139.487 42.9858 139.54 42.6733 139.54 42.321C139.54 41.9725 139.488 41.6648 139.384 41.3977C139.279 41.1288 139.128 40.9186 138.929 40.767C138.73 40.6136 138.489 40.5369 138.205 40.5369C137.913 40.5369 137.667 40.6165 137.466 40.7756C137.267 40.9328 137.116 41.1458 137.011 41.4148C136.909 41.6837 136.858 41.9858 136.858 42.321C136.858 42.66 136.91 42.9659 137.014 43.2386C137.118 43.5114 137.27 43.7282 137.469 43.8892C137.67 44.0483 137.915 44.1278 138.205 44.1278ZM141.486 44.5V40.1364H141.994V44.5H141.486ZM141.744 39.3864C141.64 39.3864 141.551 39.3513 141.477 39.2812C141.403 39.2093 141.366 39.1231 141.366 39.0227C141.366 38.9223 141.403 38.8371 141.477 38.767C141.551 38.6951 141.64 38.6591 141.744 38.6591C141.848 38.6591 141.938 38.6951 142.011 38.767C142.085 38.8371 142.122 38.9223 142.122 39.0227C142.122 39.1231 142.085 39.2093 142.011 39.2812C141.938 39.3513 141.848 39.3864 141.744 39.3864ZM144.55 44.5994C144.287 44.5994 144.047 44.5483 143.829 44.446C143.611 44.3419 143.438 44.1922 143.309 43.9972C143.18 43.8002 143.116 43.5616 143.116 43.2812C143.116 43.0653 143.156 42.8835 143.238 42.7358C143.319 42.5881 143.435 42.4669 143.585 42.3722C143.734 42.2775 143.911 42.2027 144.116 42.1477C144.32 42.0928 144.546 42.0502 144.792 42.0199C145.036 41.9896 145.243 41.9631 145.411 41.9403C145.582 41.9176 145.711 41.8816 145.8 41.8324C145.889 41.7831 145.934 41.7036 145.934 41.5938V41.4915C145.934 41.1941 145.845 40.9602 145.667 40.7898C145.491 40.6174 145.237 40.5312 144.906 40.5312C144.591 40.5312 144.335 40.6004 144.136 40.7386C143.939 40.8769 143.8 41.0398 143.721 41.2273L143.241 41.054C143.339 40.8153 143.476 40.625 143.65 40.483C143.824 40.339 144.019 40.2358 144.235 40.1733C144.451 40.1089 144.67 40.0767 144.891 40.0767C145.058 40.0767 145.231 40.0985 145.411 40.142C145.593 40.1856 145.762 40.2614 145.917 40.3693C146.072 40.4754 146.198 40.6241 146.295 40.8153C146.391 41.0047 146.44 41.2453 146.44 41.5369V44.5H145.934V43.8097H145.903C145.842 43.9384 145.752 44.0634 145.633 44.1847C145.513 44.3059 145.364 44.4053 145.184 44.483C145.004 44.5606 144.793 44.5994 144.55 44.5994ZM144.619 44.1364C144.888 44.1364 145.121 44.0767 145.317 43.9574C145.514 43.8381 145.666 43.6799 145.772 43.483C145.88 43.2841 145.934 43.0653 145.934 42.8267V42.196C145.896 42.232 145.833 42.2642 145.744 42.2926C145.656 42.321 145.555 42.3466 145.44 42.3693C145.326 42.3902 145.212 42.4081 145.099 42.4233C144.985 42.4384 144.883 42.4517 144.792 42.4631C144.546 42.4934 144.335 42.5407 144.161 42.6051C143.987 42.6695 143.853 42.7585 143.761 42.8722C143.668 42.9839 143.621 43.1278 143.621 43.304C143.621 43.5691 143.716 43.7746 143.906 43.9205C144.095 44.0644 144.333 44.1364 144.619 44.1364Z" fill="#5D5A5A"/>
<path d="M0.505682 8V2.18182H1.7358V4.58239H4.23295V2.18182H5.46023V8H4.23295V5.59659H1.7358V8H0.505682ZM8.44034 8.08523C7.99148 8.08523 7.60511 7.99432 7.28125 7.8125C6.95928 7.62879 6.71117 7.36932 6.53693 7.03409C6.36269 6.69697 6.27557 6.2983 6.27557 5.83807C6.27557 5.3892 6.36269 4.99527 6.53693 4.65625C6.71117 4.31723 6.95644 4.05303 7.27273 3.86364C7.59091 3.67424 7.96402 3.57955 8.39205 3.57955C8.67992 3.57955 8.94792 3.62595 9.19602 3.71875C9.44602 3.80966 9.66383 3.94697 9.84943 4.13068C10.0369 4.31439 10.1828 4.54545 10.2869 4.82386C10.3911 5.10038 10.4432 5.42424 10.4432 5.79545V6.12784H6.75852V5.37784H9.30398C9.30398 5.2036 9.2661 5.04924 9.19034 4.91477C9.11458 4.7803 9.00947 4.67519 8.875 4.59943C8.74242 4.52178 8.58807 4.48295 8.41193 4.48295C8.22822 4.48295 8.06534 4.52557 7.9233 4.6108C7.78314 4.69413 7.6733 4.80682 7.59375 4.94886C7.5142 5.08902 7.47348 5.24527 7.47159 5.41761V6.13068C7.47159 6.34659 7.51136 6.53314 7.59091 6.69034C7.67235 6.84754 7.78693 6.96875 7.93466 7.05398C8.08239 7.1392 8.25758 7.18182 8.46023 7.18182C8.5947 7.18182 8.7178 7.16288 8.82955 7.125C8.94129 7.08712 9.03693 7.0303 9.11648 6.95455C9.19602 6.87879 9.25663 6.78598 9.2983 6.67614L10.4176 6.75C10.3608 7.01894 10.2443 7.25379 10.0682 7.45455C9.89394 7.65341 9.66856 7.80871 9.39205 7.92045C9.11742 8.0303 8.80019 8.08523 8.44034 8.08523ZM12.4773 8.08239C12.1989 8.08239 11.9508 8.03409 11.733 7.9375C11.5152 7.83902 11.3428 7.69413 11.2159 7.50284C11.0909 7.30966 11.0284 7.06913 11.0284 6.78125C11.0284 6.53883 11.0729 6.33523 11.1619 6.17045C11.2509 6.00568 11.3722 5.87311 11.5256 5.77273C11.679 5.67235 11.8532 5.59659 12.0483 5.54545C12.2453 5.49432 12.4517 5.45833 12.6676 5.4375C12.9214 5.41098 13.1259 5.38636 13.2812 5.36364C13.4366 5.33902 13.5492 5.30303 13.6193 5.25568C13.6894 5.20833 13.7244 5.13826 13.7244 5.04545V5.02841C13.7244 4.84848 13.6676 4.70928 13.554 4.6108C13.4422 4.51231 13.2831 4.46307 13.0767 4.46307C12.8589 4.46307 12.6856 4.51136 12.5568 4.60795C12.428 4.70265 12.3428 4.82197 12.3011 4.96591L11.1818 4.875C11.2386 4.60985 11.3504 4.38068 11.517 4.1875C11.6837 3.99242 11.8987 3.8428 12.1619 3.73864C12.4271 3.63258 12.7339 3.57955 13.0824 3.57955C13.3248 3.57955 13.5568 3.60795 13.7784 3.66477C14.0019 3.72159 14.1998 3.80966 14.3722 3.92898C14.5464 4.0483 14.6837 4.2017 14.7841 4.3892C14.8845 4.57481 14.9347 4.79735 14.9347 5.05682V8H13.7869V7.39489H13.7528C13.6828 7.53125 13.589 7.65152 13.4716 7.75568C13.3542 7.85795 13.2131 7.93845 13.0483 7.99716C12.8835 8.05398 12.6932 8.08239 12.4773 8.08239ZM12.8239 7.24716C13.0019 7.24716 13.1591 7.21212 13.2955 7.14205C13.4318 7.07008 13.5388 6.97348 13.6165 6.85227C13.6941 6.73106 13.733 6.59375 13.733 6.44034V5.97727C13.6951 6.00189 13.643 6.02462 13.5767 6.04545C13.5123 6.06439 13.4394 6.08239 13.358 6.09943C13.2765 6.11458 13.1951 6.12879 13.1136 6.14205C13.0322 6.15341 12.9583 6.16383 12.892 6.1733C12.75 6.19413 12.6259 6.22727 12.5199 6.27273C12.4138 6.31818 12.3314 6.37973 12.2727 6.45739C12.214 6.53314 12.1847 6.62784 12.1847 6.74148C12.1847 6.90625 12.2443 7.0322 12.3636 7.11932C12.4848 7.20455 12.6383 7.24716 12.8239 7.24716ZM17.4815 8.07102C17.1501 8.07102 16.8499 7.9858 16.581 7.81534C16.3139 7.64299 16.1018 7.39015 15.9446 7.05682C15.7893 6.72159 15.7116 6.31061 15.7116 5.82386C15.7116 5.32386 15.7921 4.90814 15.9531 4.5767C16.1141 4.24337 16.3281 3.99432 16.5952 3.82955C16.8641 3.66288 17.1586 3.57955 17.4787 3.57955C17.723 3.57955 17.9266 3.62121 18.0895 3.70455C18.2543 3.78598 18.3868 3.88826 18.4872 4.01136C18.5895 4.13258 18.6671 4.25189 18.7202 4.36932H18.7571V2.18182H19.9645V8H18.7713V7.30114H18.7202C18.6634 7.42235 18.5829 7.54261 18.4787 7.66193C18.3764 7.77936 18.2429 7.87689 18.0781 7.95455C17.9152 8.0322 17.7164 8.07102 17.4815 8.07102ZM17.8651 7.10795C18.0601 7.10795 18.2249 7.05492 18.3594 6.94886C18.4957 6.84091 18.5999 6.69034 18.6719 6.49716C18.7457 6.30398 18.7827 6.07765 18.7827 5.81818C18.7827 5.55871 18.7467 5.33333 18.6747 5.14205C18.6027 4.95076 18.4986 4.80303 18.3622 4.69886C18.2259 4.5947 18.0601 4.54261 17.8651 4.54261C17.6662 4.54261 17.4986 4.59659 17.3622 4.70455C17.2259 4.8125 17.1226 4.96212 17.0526 5.15341C16.9825 5.3447 16.9474 5.56629 16.9474 5.81818C16.9474 6.07197 16.9825 6.2964 17.0526 6.49148C17.1245 6.68466 17.2277 6.83617 17.3622 6.94602C17.4986 7.05398 17.6662 7.10795 17.8651 7.10795ZM28.1804 5.09091C28.1804 5.72538 28.0601 6.26515 27.8196 6.71023C27.581 7.1553 27.2552 7.49527 26.8423 7.73011C26.4313 7.96307 25.9692 8.07955 25.456 8.07955C24.9389 8.07955 24.4749 7.96212 24.0639 7.72727C23.6529 7.49242 23.3281 7.15246 23.0895 6.70739C22.8509 6.26231 22.7315 5.72348 22.7315 5.09091C22.7315 4.45644 22.8509 3.91667 23.0895 3.47159C23.3281 3.02652 23.6529 2.6875 24.0639 2.45455C24.4749 2.2197 24.9389 2.10227 25.456 2.10227C25.9692 2.10227 26.4313 2.2197 26.8423 2.45455C27.2552 2.6875 27.581 3.02652 27.8196 3.47159C28.0601 3.91667 28.1804 4.45644 28.1804 5.09091ZM26.9332 5.09091C26.9332 4.67992 26.8717 4.33333 26.7486 4.05114C26.6274 3.76894 26.456 3.55492 26.2344 3.40909C26.0128 3.26326 25.7533 3.19034 25.456 3.19034C25.1586 3.19034 24.8991 3.26326 24.6776 3.40909C24.456 3.55492 24.2836 3.76894 24.1605 4.05114C24.0393 4.33333 23.9787 4.67992 23.9787 5.09091C23.9787 5.50189 24.0393 5.84848 24.1605 6.13068C24.2836 6.41288 24.456 6.62689 24.6776 6.77273C24.8991 6.91856 25.1586 6.99148 25.456 6.99148C25.7533 6.99148 26.0128 6.91856 26.2344 6.77273C26.456 6.62689 26.6274 6.41288 26.7486 6.13068C26.8717 5.84848 26.9332 5.50189 26.9332 5.09091ZM31.4155 3.63636V4.54545H28.7223V3.63636H31.4155ZM29.3388 8V3.32102C29.3388 3.00473 29.4003 2.74242 29.5234 2.53409C29.6484 2.32576 29.8189 2.16951 30.0348 2.06534C30.2507 1.96117 30.496 1.90909 30.7706 1.90909C30.9562 1.90909 31.1257 1.9233 31.2791 1.9517C31.4344 1.98011 31.55 2.00568 31.6257 2.02841L31.4098 2.9375C31.3625 2.92235 31.3037 2.90814 31.2337 2.89489C31.1655 2.88163 31.0954 2.875 31.0234 2.875C30.8454 2.875 30.7214 2.91667 30.6513 3C30.5812 3.08144 30.5462 3.19602 30.5462 3.34375V8H29.3388ZM34.5014 3.63636V4.54545H31.8082V3.63636H34.5014ZM32.4247 8V3.32102C32.4247 3.00473 32.4863 2.74242 32.6094 2.53409C32.7344 2.32576 32.9048 2.16951 33.1207 2.06534C33.3366 1.96117 33.5819 1.90909 33.8565 1.90909C34.0421 1.90909 34.2116 1.9233 34.3651 1.9517C34.5204 1.98011 34.6359 2.00568 34.7116 2.02841L34.4957 2.9375C34.4484 2.92235 34.3897 2.90814 34.3196 2.89489C34.2514 2.88163 34.1813 2.875 34.1094 2.875C33.9313 2.875 33.8073 2.91667 33.7372 3C33.6671 3.08144 33.6321 3.19602 33.6321 3.34375V8H32.4247ZM35.2408 8V3.63636H36.451V8H35.2408ZM35.8487 3.07386C35.6688 3.07386 35.5144 3.0142 35.3857 2.89489C35.2588 2.77367 35.1953 2.62879 35.1953 2.46023C35.1953 2.29356 35.2588 2.15057 35.3857 2.03125C35.5144 1.91004 35.6688 1.84943 35.8487 1.84943C36.0286 1.84943 36.1821 1.91004 36.3089 2.03125C36.4377 2.15057 36.5021 2.29356 36.5021 2.46023C36.5021 2.62879 36.4377 2.77367 36.3089 2.89489C36.1821 3.0142 36.0286 3.07386 35.8487 3.07386ZM39.392 8.08523C38.9451 8.08523 38.5606 7.99053 38.2386 7.80114C37.9186 7.60985 37.6723 7.3447 37.5 7.00568C37.3295 6.66667 37.2443 6.27652 37.2443 5.83523C37.2443 5.38826 37.3305 4.99621 37.5028 4.65909C37.6771 4.32008 37.9242 4.05587 38.2443 3.86648C38.5644 3.67519 38.9451 3.57955 39.3864 3.57955C39.767 3.57955 40.1004 3.64867 40.3864 3.78693C40.6723 3.92519 40.8987 4.11932 41.0653 4.36932C41.232 4.61932 41.3239 4.91288 41.3409 5.25H40.1989C40.1667 5.0322 40.0814 4.85701 39.9432 4.72443C39.8068 4.58996 39.6278 4.52273 39.4062 4.52273C39.2188 4.52273 39.0549 4.57386 38.9148 4.67614C38.7765 4.77652 38.6686 4.9233 38.5909 5.11648C38.5133 5.30966 38.4744 5.54356 38.4744 5.81818C38.4744 6.09659 38.5123 6.33333 38.5881 6.52841C38.6657 6.72348 38.7746 6.87216 38.9148 6.97443C39.0549 7.0767 39.2188 7.12784 39.4062 7.12784C39.5445 7.12784 39.6686 7.09943 39.7784 7.04261C39.8902 6.9858 39.982 6.90341 40.054 6.79545C40.1278 6.68561 40.1761 6.55398 40.1989 6.40057H41.3409C41.322 6.7339 41.2311 7.02746 41.0682 7.28125C40.9072 7.53314 40.6847 7.73011 40.4006 7.87216C40.1165 8.0142 39.7803 8.08523 39.392 8.08523ZM44.1044 8.08523C43.6555 8.08523 43.2692 7.99432 42.9453 7.8125C42.6233 7.62879 42.3752 7.36932 42.201 7.03409C42.0268 6.69697 41.9396 6.2983 41.9396 5.83807C41.9396 5.3892 42.0268 4.99527 42.201 4.65625C42.3752 4.31723 42.6205 4.05303 42.9368 3.86364C43.255 3.67424 43.6281 3.57955 44.0561 3.57955C44.344 3.57955 44.612 3.62595 44.8601 3.71875C45.1101 3.80966 45.3279 3.94697 45.5135 4.13068C45.701 4.31439 45.8468 4.54545 45.951 4.82386C46.0552 5.10038 46.1072 5.42424 46.1072 5.79545V6.12784H42.4226V5.37784H44.968C44.968 5.2036 44.9302 5.04924 44.8544 4.91477C44.7786 4.7803 44.6735 4.67519 44.5391 4.59943C44.4065 4.52178 44.2521 4.48295 44.076 4.48295C43.8923 4.48295 43.7294 4.52557 43.5874 4.6108C43.4472 4.69413 43.3374 4.80682 43.2578 4.94886C43.1783 5.08902 43.1375 5.24527 43.1357 5.41761V6.13068C43.1357 6.34659 43.1754 6.53314 43.255 6.69034C43.3364 6.84754 43.451 6.96875 43.5987 7.05398C43.7464 7.1392 43.9216 7.18182 44.1243 7.18182C44.2588 7.18182 44.3819 7.16288 44.4936 7.125C44.6054 7.08712 44.701 7.0303 44.7805 6.95455C44.8601 6.87879 44.9207 6.78598 44.9624 6.67614L46.0817 6.75C46.0249 7.01894 45.9084 7.25379 45.7322 7.45455C45.558 7.65341 45.3326 7.80871 45.0561 7.92045C44.7815 8.0303 44.4643 8.08523 44.1044 8.08523ZM47.6044 8.07386C47.4169 8.07386 47.2559 8.00758 47.1214 7.875C46.9889 7.74053 46.9226 7.57955 46.9226 7.39205C46.9226 7.20644 46.9889 7.04735 47.1214 6.91477C47.2559 6.7822 47.4169 6.71591 47.6044 6.71591C47.7862 6.71591 47.9453 6.7822 48.0817 6.91477C48.218 7.04735 48.2862 7.20644 48.2862 7.39205C48.2862 7.51705 48.254 7.63163 48.1896 7.7358C48.1271 7.83807 48.0447 7.92045 47.9425 7.98295C47.8402 8.04356 47.7275 8.07386 47.6044 8.07386ZM47.6044 5.01705C47.4169 5.01705 47.2559 4.95076 47.1214 4.81818C46.9889 4.68561 46.9226 4.52462 46.9226 4.33523C46.9226 4.14962 46.9889 3.99148 47.1214 3.8608C47.2559 3.72822 47.4169 3.66193 47.6044 3.66193C47.7862 3.66193 47.9453 3.72822 48.0817 3.8608C48.218 3.99148 48.2862 4.14962 48.2862 4.33523C48.2862 4.46212 48.254 4.57765 48.1896 4.68182C48.1271 4.78409 48.0447 4.86553 47.9425 4.92614C47.8402 4.98674 47.7275 5.01705 47.6044 5.01705Z" fill="#5D5A5A"/>
</svg>
