<svg width="60" height="6" viewBox="0 0 60 6" fill="none" xmlns="http://www.w3.org/2000/svg">
<path d="M-0.000177562 5.81836V0.000177383H2.29528C2.73656 0.000177383 3.11251 0.0844577 3.42312 0.253018C3.73372 0.419685 3.97047 0.651693 4.13335 0.949041C4.29812 1.2445 4.3805 1.5854 4.3805 1.97177C4.3805 2.35813 4.29717 2.69904 4.1305 2.9945C3.96384 3.28995 3.72236 3.52006 3.40607 3.68484C3.09168 3.84961 2.711 3.932 2.26403 3.932H0.800959V2.9462H2.06516C2.30191 2.9462 2.49698 2.90548 2.65039 2.82404C2.80569 2.74071 2.92122 2.62612 2.99698 2.48029C3.07463 2.33256 3.11346 2.16306 3.11346 1.97177C3.11346 1.77859 3.07463 1.61003 2.99698 1.46609C2.92122 1.32025 2.80569 1.20756 2.65039 1.12802C2.49509 1.04658 2.29812 1.00586 2.05948 1.00586H1.22994V5.81836H-0.000177562ZM6.36701 3.29563V5.81836H5.15678V0.000177383H6.33292V2.22461H6.38406C6.48254 1.96703 6.64163 1.76533 6.86133 1.6195C7.08103 1.47177 7.35659 1.3979 7.68803 1.3979C7.99106 1.3979 8.25527 1.46419 8.48065 1.59677C8.70792 1.72745 8.88406 1.9159 9.00906 2.16211C9.13595 2.40643 9.19845 2.69904 9.19656 3.03995V5.81836H7.98633V3.25586C7.98822 2.98692 7.92004 2.77764 7.78178 2.62802C7.64542 2.4784 7.45413 2.40359 7.20792 2.40359C7.04315 2.40359 6.89731 2.43862 6.77042 2.5087C6.64542 2.57878 6.54693 2.68105 6.47496 2.81552C6.40489 2.94809 6.3689 3.10813 6.36701 3.29563ZM12.1206 5.90359C11.6793 5.90359 11.2976 5.80984 10.9757 5.62234C10.6556 5.43294 10.4084 5.16969 10.2342 4.83256C10.06 4.49355 9.97283 4.10056 9.97283 3.65359C9.97283 3.20283 10.06 2.80889 10.2342 2.47177C10.4084 2.13275 10.6556 1.8695 10.9757 1.682C11.2976 1.4926 11.6793 1.3979 12.1206 1.3979C12.5618 1.3979 12.9425 1.4926 13.2626 1.682C13.5846 1.8695 13.8327 2.13275 14.0069 2.47177C14.1812 2.80889 14.2683 3.20283 14.2683 3.65359C14.2683 4.10056 14.1812 4.49355 14.0069 4.83256C13.8327 5.16969 13.5846 5.43294 13.2626 5.62234C12.9425 5.80984 12.5618 5.90359 12.1206 5.90359ZM12.1262 4.96609C12.327 4.96609 12.4946 4.90927 12.6291 4.79563C12.7636 4.6801 12.8649 4.5229 12.9331 4.32404C13.0031 4.12518 13.0382 3.89885 13.0382 3.64506C13.0382 3.39128 13.0031 3.16495 12.9331 2.96609C12.8649 2.76722 12.7636 2.61003 12.6291 2.4945C12.4946 2.37897 12.327 2.3212 12.1262 2.3212C11.9236 2.3212 11.7531 2.37897 11.6149 2.4945C11.4785 2.61003 11.3753 2.76722 11.3052 2.96609C11.237 3.16495 11.2029 3.39128 11.2029 3.64506C11.2029 3.89885 11.237 4.12518 11.3052 4.32404C11.3753 4.5229 11.4785 4.6801 11.6149 4.79563C11.7531 4.90927 11.9236 4.96609 12.1262 4.96609ZM16.2654 3.29563V5.81836H15.0552V1.45472H16.2086V2.22461H16.2598C16.3564 1.97082 16.5183 1.77006 16.7456 1.62234C16.9728 1.47272 17.2484 1.3979 17.5723 1.3979C17.8753 1.3979 18.1395 1.46419 18.3649 1.59677C18.5903 1.72934 18.7654 1.91874 18.8904 2.16495C19.0154 2.40927 19.0779 2.70093 19.0779 3.03995V5.81836H17.8677V3.25586C17.8696 2.98881 17.8014 2.78048 17.6632 2.63086C17.5249 2.47934 17.3346 2.40359 17.0922 2.40359C16.9293 2.40359 16.7853 2.43862 16.6603 2.5087C16.5372 2.57878 16.4406 2.68105 16.3706 2.81552C16.3024 2.94809 16.2673 3.10813 16.2654 3.29563ZM22.0204 5.90359C21.5716 5.90359 21.1852 5.81268 20.8613 5.63086C20.5394 5.44715 20.2913 5.18768 20.117 4.85245C19.9428 4.51533 19.8556 4.11665 19.8556 3.65643C19.8556 3.20756 19.9428 2.81362 20.117 2.47461C20.2913 2.13559 20.5365 1.87139 20.8528 1.682C21.171 1.4926 21.5441 1.3979 21.9721 1.3979C22.26 1.3979 22.528 1.44431 22.7761 1.53711C23.0261 1.62802 23.2439 1.76533 23.4295 1.94904C23.617 2.13275 23.7628 2.36381 23.867 2.64222C23.9712 2.91874 24.0233 3.2426 24.0233 3.61381V3.9462H20.3386V3.1962H22.8841C22.8841 3.02196 22.8462 2.8676 22.7704 2.73313C22.6947 2.59866 22.5895 2.49355 22.4551 2.41779C22.3225 2.34014 22.1681 2.30131 21.992 2.30131C21.8083 2.30131 21.6454 2.34393 21.5034 2.42915C21.3632 2.51249 21.2534 2.62518 21.1738 2.76722C21.0943 2.90737 21.0536 3.06362 21.0517 3.23597V3.94904C21.0517 4.16495 21.0914 4.3515 21.171 4.5087C21.2524 4.6659 21.367 4.78711 21.5147 4.87234C21.6625 4.95756 21.8377 5.00018 22.0403 5.00018C22.1748 5.00018 22.2979 4.98124 22.4096 4.94336C22.5214 4.90548 22.617 4.84866 22.6966 4.7729C22.7761 4.69715 22.8367 4.60434 22.8784 4.4945L23.9977 4.56836C23.9409 4.8373 23.8244 5.07215 23.6483 5.2729C23.474 5.47177 23.2486 5.62707 22.9721 5.73881C22.6975 5.84866 22.3803 5.90359 22.0204 5.90359ZM31.5538 0.000177383V5.81836H30.4913L27.96 2.15643H27.9174V5.81836H26.6873V0.000177383H27.7669L30.2782 3.65927H30.3294V0.000177383H31.5538ZM35.3457 3.9604V1.45472H36.5559V5.81836H35.394V5.02575H35.3485C35.2501 5.28143 35.0862 5.48692 34.8571 5.64222C34.6298 5.79753 34.3523 5.87518 34.0247 5.87518C33.733 5.87518 33.4764 5.80889 33.2548 5.67631C33.0332 5.54374 32.8599 5.35529 32.7349 5.11097C32.6118 4.86665 32.5493 4.57404 32.5474 4.23313V1.45472H33.7576V4.01722C33.7595 4.2748 33.8287 4.4784 33.965 4.62802C34.1014 4.77764 34.2842 4.85245 34.5133 4.85245C34.6592 4.85245 34.7955 4.81931 34.9224 4.75302C35.0493 4.68484 35.1516 4.58446 35.2292 4.45188C35.3088 4.31931 35.3476 4.15548 35.3457 3.9604ZM37.524 5.81836V1.45472H38.6774V2.22461H38.7285C38.8194 1.96893 38.9709 1.76722 39.1831 1.6195C39.3952 1.47177 39.649 1.3979 39.9444 1.3979C40.2437 1.3979 40.4984 1.47272 40.7086 1.62234C40.9189 1.77006 41.059 1.97082 41.1291 2.22461H41.1745C41.2636 1.97461 41.4245 1.7748 41.6575 1.62518C41.8923 1.47366 42.1698 1.3979 42.4899 1.3979C42.8971 1.3979 43.2276 1.52764 43.4814 1.78711C43.737 2.04469 43.8649 2.41022 43.8649 2.8837V5.81836H42.6575V3.12234C42.6575 2.87991 42.5931 2.69809 42.4643 2.57688C42.3355 2.45567 42.1745 2.39506 41.9814 2.39506C41.7617 2.39506 41.5903 2.46514 41.4672 2.60529C41.344 2.74355 41.2825 2.92631 41.2825 3.15359V5.81836H40.1092V3.09677C40.1092 2.88275 40.0476 2.7123 39.9245 2.5854C39.8033 2.45851 39.6433 2.39506 39.4444 2.39506C39.31 2.39506 39.1887 2.42915 39.0808 2.49734C38.9747 2.56362 38.8904 2.65737 38.8279 2.77859C38.7654 2.8979 38.7342 3.03806 38.7342 3.19904V5.81836H37.524ZM44.8436 5.81836V0.000177383H46.0538V2.18768H46.0907C46.1438 2.07025 46.2205 1.95094 46.3208 1.82972C46.4231 1.70662 46.5557 1.60434 46.7186 1.5229C46.8833 1.43957 47.0879 1.3979 47.3322 1.3979C47.6504 1.3979 47.944 1.48124 48.2129 1.6479C48.4818 1.81268 48.6968 2.06173 48.8578 2.39506C49.0188 2.7265 49.0993 3.14222 49.0993 3.64222C49.0993 4.12897 49.0207 4.53995 48.8635 4.87518C48.7082 5.20851 48.496 5.46135 48.2271 5.6337C47.96 5.80415 47.6608 5.88938 47.3294 5.88938C47.0945 5.88938 46.8947 5.85056 46.7299 5.7729C46.5671 5.69525 46.4335 5.59772 46.3294 5.48029C46.2252 5.36097 46.1457 5.24071 46.0907 5.1195H46.0368V5.81836H44.8436ZM46.0282 3.63654C46.0282 3.89601 46.0642 4.12234 46.1362 4.31552C46.2082 4.5087 46.3123 4.65927 46.4487 4.76722C46.585 4.87328 46.7508 4.92631 46.9458 4.92631C47.1428 4.92631 47.3095 4.87234 47.4458 4.76438C47.5822 4.65453 47.6854 4.50302 47.7555 4.30984C47.8275 4.11476 47.8635 3.89033 47.8635 3.63654C47.8635 3.38465 47.8284 3.16306 47.7583 2.97177C47.6883 2.78048 47.585 2.63086 47.4487 2.5229C47.3123 2.41495 47.1447 2.36097 46.9458 2.36097C46.7489 2.36097 46.5822 2.41306 46.4458 2.51722C46.3114 2.62139 46.2082 2.76912 46.1362 2.9604C46.0642 3.15169 46.0282 3.37707 46.0282 3.63654ZM51.8954 5.90359C51.4466 5.90359 51.0602 5.81268 50.7363 5.63086C50.4144 5.44715 50.1663 5.18768 49.992 4.85245C49.8178 4.51533 49.7306 4.11665 49.7306 3.65643C49.7306 3.20756 49.8178 2.81362 49.992 2.47461C50.1663 2.13559 50.4115 1.87139 50.7278 1.682C51.046 1.4926 51.4191 1.3979 51.8471 1.3979C52.135 1.3979 52.403 1.44431 52.6511 1.53711C52.9011 1.62802 53.1189 1.76533 53.3045 1.94904C53.492 2.13275 53.6378 2.36381 53.742 2.64222C53.8462 2.91874 53.8983 3.2426 53.8983 3.61381V3.9462H50.2136V3.1962H52.7591C52.7591 3.02196 52.7212 2.8676 52.6454 2.73313C52.5697 2.59866 52.4645 2.49355 52.3301 2.41779C52.1975 2.34014 52.0431 2.30131 51.867 2.30131C51.6833 2.30131 51.5204 2.34393 51.3784 2.42915C51.2382 2.51249 51.1284 2.62518 51.0488 2.76722C50.9693 2.90737 50.9286 3.06362 50.9267 3.23597V3.94904C50.9267 4.16495 50.9664 4.3515 51.046 4.5087C51.1274 4.6659 51.242 4.78711 51.3897 4.87234C51.5375 4.95756 51.7127 5.00018 51.9153 5.00018C52.0498 5.00018 52.1729 4.98124 52.2846 4.94336C52.3964 4.90548 52.492 4.84866 52.5716 4.7729C52.6511 4.69715 52.7117 4.60434 52.7534 4.4945L53.8727 4.56836C53.8159 4.8373 53.6994 5.07215 53.5233 5.2729C53.349 5.47177 53.1236 5.62707 52.8471 5.73881C52.5725 5.84866 52.2553 5.90359 51.8954 5.90359ZM54.688 5.81836V1.45472H55.8613V2.21609H55.9068C55.9863 1.94525 56.1199 1.74071 56.3074 1.60245C56.4949 1.4623 56.7108 1.39222 56.9551 1.39222C57.0157 1.39222 57.081 1.39601 57.1511 1.40359C57.2212 1.41116 57.2827 1.42158 57.3358 1.43484V2.5087C57.2789 2.49165 57.2003 2.4765 57.1 2.46325C56.9996 2.44999 56.9077 2.44336 56.8244 2.44336C56.6464 2.44336 56.4873 2.48219 56.3471 2.55984C56.2089 2.63559 56.099 2.74165 56.0176 2.87802C55.938 3.01438 55.8983 3.17158 55.8983 3.34961V5.81836H54.688ZM58.6689 5.89222C58.4814 5.89222 58.3204 5.82594 58.1859 5.69336C58.0533 5.55889 57.987 5.3979 57.987 5.2104C57.987 5.0248 58.0533 4.86571 58.1859 4.73313C58.3204 4.60056 58.4814 4.53427 58.6689 4.53427C58.8507 4.53427 59.0098 4.60056 59.1461 4.73313C59.2825 4.86571 59.3507 5.0248 59.3507 5.2104C59.3507 5.3354 59.3185 5.44999 59.2541 5.55415C59.1916 5.65643 59.1092 5.73881 59.0069 5.80131C58.9047 5.86192 58.792 5.89222 58.6689 5.89222ZM58.6689 2.8354C58.4814 2.8354 58.3204 2.76912 58.1859 2.63654C58.0533 2.50397 57.987 2.34298 57.987 2.15359C57.987 1.96798 58.0533 1.80984 58.1859 1.67915C58.3204 1.54658 58.4814 1.48029 58.6689 1.48029C58.8507 1.48029 59.0098 1.54658 59.1461 1.67915C59.2825 1.80984 59.3507 1.96798 59.3507 2.15359C59.3507 2.28048 59.3185 2.39601 59.2541 2.50018C59.1916 2.60245 59.1092 2.68389 59.0069 2.7445C58.9047 2.8051 58.792 2.8354 58.6689 2.8354Z" fill="#5D5A5A"/>
</svg>
