<svg width="65" height="6" viewBox="0 0 65 6" fill="none" xmlns="http://www.w3.org/2000/svg">
<path d="M1.557 4.80105V1.20162H2.04279V4.80105H1.557ZM0.000177562 3.24423V2.75843H3.59961V3.24423H0.000177562ZM6.80202 0.00559282C7.04445 0.00748682 7.2793 0.0567293 7.50657 0.15332C7.73574 0.248017 7.94218 0.401426 8.12589 0.613547C8.3096 0.823775 8.45543 1.10408 8.56339 1.45446C8.67134 1.80294 8.72532 2.23192 8.72532 2.74139C8.72532 3.21677 8.68365 3.65237 8.60032 4.04821C8.51699 4.44404 8.39199 4.78684 8.22532 5.07662C8.06055 5.36449 7.85221 5.58798 7.60032 5.74707C7.35032 5.90427 7.05771 5.98287 6.72248 5.98287C6.40998 5.98287 6.13252 5.91752 5.89009 5.78684C5.64956 5.65616 5.45449 5.47529 5.30487 5.24423C5.15524 5.01127 5.06244 4.74234 5.02646 4.43741H5.54918C5.60032 4.74802 5.72532 5.0037 5.92418 5.20446C6.12494 5.40521 6.39104 5.50559 6.72248 5.50559C7.19786 5.50559 7.56718 5.284 7.83043 4.84082C8.09369 4.39764 8.22532 3.76696 8.22532 2.94877H8.18839C8.09748 3.11923 7.97816 3.2679 7.83043 3.3948C7.6846 3.52169 7.51793 3.62112 7.33043 3.69309C7.14293 3.76317 6.94502 3.79821 6.73668 3.79821C6.41282 3.79821 6.11642 3.71677 5.84748 3.55389C5.57854 3.38912 5.36358 3.16468 5.20259 2.88059C5.04161 2.59461 4.96112 2.26885 4.96112 1.90332C4.96112 1.55862 5.03687 1.24234 5.18839 0.954456C5.3418 0.664684 5.55581 0.433623 5.83043 0.261275C6.10695 0.0870322 6.43081 0.00180483 6.80202 0.00559282ZM6.80202 0.482866C6.55013 0.482866 6.3238 0.54726 6.12305 0.676047C5.92418 0.802941 5.76604 0.974343 5.64862 1.19025C5.53308 1.40427 5.47532 1.64196 5.47532 1.90332C5.47532 2.16658 5.53308 2.40616 5.64862 2.62207C5.76604 2.83609 5.92418 3.00654 6.12305 3.13343C6.3238 3.25843 6.55013 3.32093 6.80202 3.32093C6.99521 3.32093 7.17513 3.28211 7.3418 3.20446C7.50846 3.12491 7.6524 3.01696 7.77362 2.88059C7.89672 2.74423 7.98952 2.58987 8.05202 2.41752C8.11642 2.24328 8.14199 2.06052 8.12873 1.86923C8.106 1.60408 8.03498 1.36734 7.91566 1.159C7.79824 0.948775 7.64293 0.784002 7.44975 0.664684C7.25846 0.543472 7.04255 0.482866 6.80202 0.482866ZM11.7225 0.0851383V5.90332H11.1912V0.641956H11.1571L9.7935 1.54821V0.99707L11.1685 0.0851383H11.7225ZM15.6003 4.65332V4.2215L18.1941 0.0851383H18.5123V0.80957H18.2765L16.1941 4.13912V4.17605H19.5946V4.65332H15.6003ZM18.3162 5.90332V4.51696V4.31809V0.0851383H18.8219V5.90332H18.3162ZM20.7473 5.90332V5.51412L22.6479 3.37775C22.896 3.09745 23.0958 2.85787 23.2473 2.659C23.3989 2.46014 23.5087 2.27643 23.5769 2.10787C23.647 1.93931 23.682 1.76412 23.682 1.5823C23.682 1.36071 23.6299 1.16752 23.5257 1.00275C23.4235 0.836085 23.2824 0.70635 23.1025 0.613547C22.9225 0.520744 22.7199 0.474343 22.4945 0.474343C22.2559 0.474343 22.0466 0.525479 21.8667 0.627752C21.6886 0.730024 21.5504 0.870176 21.4519 1.04821C21.3534 1.22624 21.3042 1.43078 21.3042 1.66184H20.7956C20.7956 1.33987 20.8695 1.05484 21.0172 0.806729C21.1668 0.556729 21.3704 0.360706 21.628 0.218661C21.8875 0.0766155 22.181 0.00559282 22.5087 0.00559282C22.8326 0.00559282 23.1204 0.0756687 23.3723 0.21582C23.6242 0.354078 23.8221 0.542524 23.9661 0.781161C24.11 1.0198 24.182 1.28684 24.182 1.5823C24.182 1.79631 24.1441 2.0037 24.0684 2.20446C23.9945 2.40521 23.8667 2.6287 23.6848 2.87491C23.503 3.12112 23.2511 3.42226 22.9292 3.77832L21.486 5.38912V5.42605H24.3638V5.90332H20.7473ZM25.6301 5.90332V5.51412L27.5307 3.37775C27.7788 3.09745 27.9786 2.85787 28.1301 2.659C28.2817 2.46014 28.3915 2.27643 28.4597 2.10787C28.5298 1.93931 28.5648 1.76412 28.5648 1.5823C28.5648 1.36071 28.5127 1.16752 28.4086 1.00275C28.3063 0.836085 28.1652 0.70635 27.9853 0.613547C27.8053 0.520744 27.6027 0.474343 27.3773 0.474343C27.1387 0.474343 26.9294 0.525479 26.7495 0.627752C26.5714 0.730024 26.4332 0.870176 26.3347 1.04821C26.2362 1.22624 26.187 1.43078 26.187 1.66184H25.6784C25.6784 1.33987 25.7523 1.05484 25.9 0.806729C26.0497 0.556729 26.2533 0.360706 26.5108 0.218661C26.7703 0.0766155 27.0639 0.00559282 27.3915 0.00559282C27.7154 0.00559282 28.0033 0.0756687 28.2551 0.21582C28.507 0.354078 28.705 0.542524 28.8489 0.781161C28.9928 1.0198 29.0648 1.28684 29.0648 1.5823C29.0648 1.79631 29.0269 2.0037 28.9512 2.20446C28.8773 2.40521 28.7495 2.6287 28.5676 2.87491C28.3858 3.12112 28.1339 3.42226 27.812 3.77832L26.3688 5.38912V5.42605H29.2466V5.90332H25.6301ZM32.763 5.90332V5.51412L34.6635 3.37775C34.9116 3.09745 35.1114 2.85787 35.263 2.659C35.4145 2.46014 35.5243 2.27643 35.5925 2.10787C35.6626 1.93931 35.6976 1.76412 35.6976 1.5823C35.6976 1.36071 35.6455 1.16752 35.5414 1.00275C35.4391 0.836085 35.298 0.70635 35.1181 0.613547C34.9382 0.520744 34.7355 0.474343 34.5101 0.474343C34.2715 0.474343 34.0622 0.525479 33.8823 0.627752C33.7042 0.730024 33.566 0.870176 33.4675 1.04821C33.369 1.22624 33.3198 1.43078 33.3198 1.66184H32.8113C32.8113 1.33987 32.8851 1.05484 33.0328 0.806729C33.1825 0.556729 33.3861 0.360706 33.6436 0.218661C33.9031 0.0766155 34.1967 0.00559282 34.5243 0.00559282C34.8482 0.00559282 35.1361 0.0756687 35.388 0.21582C35.6399 0.354078 35.8378 0.542524 35.9817 0.781161C36.1257 1.0198 36.1976 1.28684 36.1976 1.5823C36.1976 1.79631 36.1597 2.0037 36.084 2.20446C36.0101 2.40521 35.8823 2.6287 35.7005 2.87491C35.5186 3.12112 35.2667 3.42226 34.9448 3.77832L33.5016 5.38912V5.42605H36.3794V5.90332H32.763ZM39.3958 0.00559282C39.6382 0.00748682 39.873 0.0567293 40.1003 0.15332C40.3295 0.248017 40.5359 0.401426 40.7196 0.613547C40.9034 0.823775 41.0492 1.10408 41.1571 1.45446C41.2651 1.80294 41.3191 2.23192 41.3191 2.74139C41.3191 3.21677 41.2774 3.65237 41.1941 4.04821C41.1107 4.44404 40.9857 4.78684 40.8191 5.07662C40.6543 5.36449 40.446 5.58798 40.1941 5.74707C39.9441 5.90427 39.6515 5.98287 39.3162 5.98287C39.0037 5.98287 38.7263 5.91752 38.4838 5.78684C38.2433 5.65616 38.0482 5.47529 37.8986 5.24423C37.749 5.01127 37.6562 4.74234 37.6202 4.43741H38.1429C38.1941 4.74802 38.3191 5.0037 38.5179 5.20446C38.7187 5.40521 38.9848 5.50559 39.3162 5.50559C39.7916 5.50559 40.1609 5.284 40.4242 4.84082C40.6874 4.39764 40.8191 3.76696 40.8191 2.94877H40.7821C40.6912 3.11923 40.5719 3.2679 40.4242 3.3948C40.2784 3.52169 40.1117 3.62112 39.9242 3.69309C39.7367 3.76317 39.5388 3.79821 39.3304 3.79821C39.0066 3.79821 38.7102 3.71677 38.4412 3.55389C38.1723 3.38912 37.9573 3.16468 37.7963 2.88059C37.6354 2.59461 37.5549 2.26885 37.5549 1.90332C37.5549 1.55862 37.6306 1.24234 37.7821 0.954456C37.9355 0.664684 38.1496 0.433623 38.4242 0.261275C38.7007 0.0870322 39.0246 0.00180483 39.3958 0.00559282ZM39.3958 0.482866C39.1439 0.482866 38.9176 0.54726 38.7168 0.676047C38.5179 0.802941 38.3598 0.974343 38.2424 1.19025C38.1268 1.40427 38.0691 1.64196 38.0691 1.90332C38.0691 2.16658 38.1268 2.40616 38.2424 2.62207C38.3598 2.83609 38.5179 3.00654 38.7168 3.13343C38.9176 3.25843 39.1439 3.32093 39.3958 3.32093C39.589 3.32093 39.7689 3.28211 39.9355 3.20446C40.1022 3.12491 40.2462 3.01696 40.3674 2.88059C40.4905 2.74423 40.5833 2.58987 40.6458 2.41752C40.7102 2.24328 40.7357 2.06052 40.7225 1.86923C40.6998 1.60408 40.6287 1.36734 40.5094 1.159C40.392 0.948775 40.2367 0.784002 40.0435 0.664684C39.8522 0.543472 39.6363 0.482866 39.3958 0.482866ZM42.5321 5.90332L45.1827 0.599343V0.562411H42.1287V0.0851383H45.7395V0.585138L43.0918 5.90332H42.5321ZM47.1962 5.90332L49.8468 0.599343V0.562411H46.7928V0.0851383H50.4036V0.585138L47.7559 5.90332H47.1962ZM53.2175 5.98287C52.8463 5.98287 52.5158 5.91279 52.226 5.77264C51.9363 5.63249 51.709 5.4412 51.5442 5.19877C51.3794 4.95446 51.2971 4.67889 51.2971 4.37207C51.2971 4.13154 51.3472 3.90711 51.4476 3.69877C51.548 3.48855 51.6863 3.31241 51.8624 3.17037C52.0385 3.02643 52.2364 2.93268 52.4561 2.88912V2.85787C52.1702 2.77453 51.94 2.61071 51.7658 2.36639C51.5916 2.12018 51.5054 1.84082 51.5073 1.52832C51.5054 1.23855 51.5792 0.979078 51.7289 0.749911C51.8785 0.520744 52.0821 0.339873 52.3397 0.207297C52.5991 0.0728277 52.8917 0.00559282 53.2175 0.00559282C53.5414 0.00559282 53.8321 0.0728277 54.0897 0.207297C54.3472 0.339873 54.5508 0.520744 54.7005 0.749911C54.852 0.979078 54.9287 1.23855 54.9306 1.52832C54.9287 1.83893 54.8406 2.11828 54.6664 2.36639C54.4921 2.6126 54.263 2.77643 53.9789 2.85787V2.88912C54.1986 2.93078 54.3955 3.02359 54.5698 3.16752C54.744 3.31146 54.8823 3.48855 54.9846 3.69877C55.0868 3.90711 55.138 4.13154 55.138 4.37207C55.138 4.67889 55.0546 4.95446 54.888 5.19877C54.7232 5.4412 54.4959 5.63249 54.2061 5.77264C53.9183 5.91279 53.5887 5.98287 53.2175 5.98287ZM53.2175 5.50559C53.494 5.50559 53.7364 5.45635 53.9448 5.35787C54.155 5.25749 54.3188 5.12018 54.4363 4.94593C54.5556 4.77169 54.6152 4.57188 54.6152 4.3465C54.6152 4.11355 54.5537 3.90616 54.4306 3.72434C54.3075 3.54063 54.1408 3.39574 53.9306 3.28968C53.7203 3.18173 53.4827 3.12775 53.2175 3.12775C52.9524 3.12775 52.7137 3.18173 52.5016 3.28968C52.2914 3.39574 52.1247 3.54063 52.0016 3.72434C51.8804 3.90616 51.8198 4.11355 51.8198 4.3465C51.8198 4.57188 51.8775 4.77169 51.9931 4.94593C52.1105 5.12018 52.2743 5.25749 52.4846 5.35787C52.6967 5.45635 52.941 5.50559 53.2175 5.50559ZM53.2175 2.67321C53.4448 2.67321 53.6484 2.62491 53.8283 2.52832C54.0082 2.43173 54.1503 2.3001 54.2544 2.13343C54.3605 1.96487 54.4145 1.77359 54.4164 1.55957C54.4145 1.34745 54.3614 1.15995 54.2573 0.99707C54.1531 0.832297 54.0111 0.704456 53.8311 0.613547C53.6531 0.520744 53.4486 0.474343 53.2175 0.474343C52.9864 0.474343 52.78 0.520744 52.5982 0.613547C52.4183 0.704456 52.2762 0.832297 52.1721 0.99707C52.0698 1.15995 52.0196 1.34745 52.0215 1.55957C52.0196 1.77359 52.0707 1.96487 52.1749 2.13343C52.281 2.3001 52.4239 2.43173 52.6039 2.52832C52.7857 2.62491 52.9902 2.67321 53.2175 2.67321ZM58.1159 5.98287C57.7447 5.98287 57.4142 5.91279 57.1245 5.77264C56.8347 5.63249 56.6074 5.4412 56.4426 5.19877C56.2779 4.95446 56.1955 4.67889 56.1955 4.37207C56.1955 4.13154 56.2457 3.90711 56.3461 3.69877C56.4464 3.48855 56.5847 3.31241 56.7608 3.17037C56.937 3.02643 57.1349 2.93268 57.3546 2.88912V2.85787C57.0686 2.77453 56.8385 2.61071 56.6642 2.36639C56.49 2.12018 56.4038 1.84082 56.4057 1.52832C56.4038 1.23855 56.4777 0.979078 56.6273 0.749911C56.7769 0.520744 56.9805 0.339873 57.2381 0.207297C57.4976 0.0728277 57.7902 0.00559282 58.1159 0.00559282C58.4398 0.00559282 58.7305 0.0728277 58.9881 0.207297C59.2457 0.339873 59.4493 0.520744 59.5989 0.749911C59.7504 0.979078 59.8271 1.23855 59.829 1.52832C59.8271 1.83893 59.7391 2.11828 59.5648 2.36639C59.3906 2.6126 59.1614 2.77643 58.8773 2.85787V2.88912C59.097 2.93078 59.294 3.02359 59.4682 3.16752C59.6425 3.31146 59.7807 3.48855 59.883 3.69877C59.9853 3.90711 60.0364 4.13154 60.0364 4.37207C60.0364 4.67889 59.9531 4.95446 59.7864 5.19877C59.6216 5.4412 59.3944 5.63249 59.1046 5.77264C58.8167 5.91279 58.4872 5.98287 58.1159 5.98287ZM58.1159 5.50559C58.3925 5.50559 58.6349 5.45635 58.8432 5.35787C59.0534 5.25749 59.2173 5.12018 59.3347 4.94593C59.454 4.77169 59.5137 4.57188 59.5137 4.3465C59.5137 4.11355 59.4521 3.90616 59.329 3.72434C59.2059 3.54063 59.0392 3.39574 58.829 3.28968C58.6188 3.18173 58.3811 3.12775 58.1159 3.12775C57.8508 3.12775 57.6122 3.18173 57.4 3.28968C57.1898 3.39574 57.0231 3.54063 56.9 3.72434C56.7788 3.90616 56.7182 4.11355 56.7182 4.3465C56.7182 4.57188 56.776 4.77169 56.8915 4.94593C57.0089 5.12018 57.1728 5.25749 57.383 5.35787C57.5951 5.45635 57.8394 5.50559 58.1159 5.50559ZM58.1159 2.67321C58.3432 2.67321 58.5468 2.62491 58.7267 2.52832C58.9067 2.43173 59.0487 2.3001 59.1529 2.13343C59.2589 1.96487 59.3129 1.77359 59.3148 1.55957C59.3129 1.34745 59.2599 1.15995 59.1557 0.99707C59.0516 0.832297 58.9095 0.704456 58.7296 0.613547C58.5516 0.520744 58.347 0.474343 58.1159 0.474343C57.8849 0.474343 57.6784 0.520744 57.4966 0.613547C57.3167 0.704456 57.1747 0.832297 57.0705 0.99707C56.9682 1.15995 56.918 1.34745 56.9199 1.55957C56.918 1.77359 56.9692 1.96487 57.0733 2.13343C57.1794 2.3001 57.3224 2.43173 57.5023 2.52832C57.6841 2.62491 57.8887 2.67321 58.1159 2.67321ZM63.0144 5.98287C62.6432 5.98287 62.3127 5.91279 62.0229 5.77264C61.7331 5.63249 61.5059 5.4412 61.3411 5.19877C61.1763 4.95446 61.0939 4.67889 61.0939 4.37207C61.0939 4.13154 61.1441 3.90711 61.2445 3.69877C61.3449 3.48855 61.4831 3.31241 61.6593 3.17037C61.8354 3.02643 62.0333 2.93268 62.253 2.88912V2.85787C61.967 2.77453 61.7369 2.61071 61.5627 2.36639C61.3884 2.12018 61.3023 1.84082 61.3042 1.52832C61.3023 1.23855 61.3761 0.979078 61.5257 0.749911C61.6754 0.520744 61.879 0.339873 62.1365 0.207297C62.396 0.0728277 62.6886 0.00559282 63.0144 0.00559282C63.3382 0.00559282 63.629 0.0728277 63.8865 0.207297C64.1441 0.339873 64.3477 0.520744 64.4973 0.749911C64.6489 0.979078 64.7256 1.23855 64.7275 1.52832C64.7256 1.83893 64.6375 2.11828 64.4632 2.36639C64.289 2.6126 64.0598 2.77643 63.7757 2.85787V2.88912C63.9954 2.93078 64.1924 3.02359 64.3667 3.16752C64.5409 3.31146 64.6792 3.48855 64.7814 3.69877C64.8837 3.90711 64.9348 4.13154 64.9348 4.37207C64.9348 4.67889 64.8515 4.95446 64.6848 5.19877C64.5201 5.4412 64.2928 5.63249 64.003 5.77264C63.7151 5.91279 63.3856 5.98287 63.0144 5.98287ZM63.0144 5.50559C63.2909 5.50559 63.5333 5.45635 63.7417 5.35787C63.9519 5.25749 64.1157 5.12018 64.2331 4.94593C64.3525 4.77169 64.4121 4.57188 64.4121 4.3465C64.4121 4.11355 64.3506 3.90616 64.2275 3.72434C64.1043 3.54063 63.9377 3.39574 63.7275 3.28968C63.5172 3.18173 63.2795 3.12775 63.0144 3.12775C62.7492 3.12775 62.5106 3.18173 62.2985 3.28968C62.0882 3.39574 61.9216 3.54063 61.7985 3.72434C61.6773 3.90616 61.6167 4.11355 61.6167 4.3465C61.6167 4.57188 61.6744 4.77169 61.79 4.94593C61.9074 5.12018 62.0712 5.25749 62.2814 5.35787C62.4935 5.45635 62.7379 5.50559 63.0144 5.50559ZM63.0144 2.67321C63.2417 2.67321 63.4453 2.62491 63.6252 2.52832C63.8051 2.43173 63.9471 2.3001 64.0513 2.13343C64.1574 1.96487 64.2114 1.77359 64.2132 1.55957C64.2114 1.34745 64.1583 1.15995 64.0542 0.99707C63.95 0.832297 63.8079 0.704456 63.628 0.613547C63.45 0.520744 63.2454 0.474343 63.0144 0.474343C62.7833 0.474343 62.5769 0.520744 62.3951 0.613547C62.2151 0.704456 62.0731 0.832297 61.9689 0.99707C61.8667 1.15995 61.8165 1.34745 61.8184 1.55957C61.8165 1.77359 61.8676 1.96487 61.9718 2.13343C62.0778 2.3001 62.2208 2.43173 62.4007 2.52832C62.5826 2.62491 62.7871 2.67321 63.0144 2.67321Z" fill="#5D5A5A"/>
</svg>
