<svg width="164" height="24" viewBox="0 0 164 24" fill="none" xmlns="http://www.w3.org/2000/svg">
<path d="M1.81534 8L0.150568 2.18182H1.49432L2.45739 6.22443H2.50568L3.56818 2.18182H4.71875L5.77841 6.23295H5.82955L6.79261 2.18182H8.13636L6.47159 8H5.27273L4.16477 4.19602H4.11932L3.0142 8H1.81534ZM10.2919 8.08523C9.84304 8.08523 9.45668 7.99432 9.13281 7.8125C8.81084 7.62879 8.56274 7.36932 8.38849 7.03409C8.21425 6.69697 8.12713 6.2983 8.12713 5.83807C8.12713 5.3892 8.21425 4.99527 8.38849 4.65625C8.56274 4.31723 8.808 4.05303 9.12429 3.86364C9.44247 3.67424 9.81558 3.57955 10.2436 3.57955C10.5315 3.57955 10.7995 3.62595 11.0476 3.71875C11.2976 3.80966 11.5154 3.94697 11.701 4.13068C11.8885 4.31439 12.0343 4.54545 12.1385 4.82386C12.2427 5.10038 12.2947 5.42424 12.2947 5.79545V6.12784H8.61009V5.37784H11.1555C11.1555 5.2036 11.1177 5.04924 11.0419 4.91477C10.9661 4.7803 10.861 4.67519 10.7266 4.59943C10.594 4.52178 10.4396 4.48295 10.2635 4.48295C10.0798 4.48295 9.9169 4.52557 9.77486 4.6108C9.63471 4.69413 9.52486 4.80682 9.44531 4.94886C9.36577 5.08902 9.32505 5.24527 9.32315 5.41761V6.13068C9.32315 6.34659 9.36293 6.53314 9.44247 6.69034C9.52391 6.84754 9.63849 6.96875 9.78622 7.05398C9.93395 7.1392 10.1091 7.18182 10.3118 7.18182C10.4463 7.18182 10.5694 7.16288 10.6811 7.125C10.7929 7.08712 10.8885 7.0303 10.968 6.95455C11.0476 6.87879 11.1082 6.78598 11.1499 6.67614L12.2692 6.75C12.2124 7.01894 12.0959 7.25379 11.9197 7.45455C11.7455 7.65341 11.5201 7.80871 11.2436 7.92045C10.969 8.0303 10.6518 8.08523 10.2919 8.08523ZM13.1072 8V2.18182H14.3175V4.36932H14.3544C14.4074 4.25189 14.4841 4.13258 14.5845 4.01136C14.6868 3.88826 14.8194 3.78598 14.9822 3.70455C15.147 3.62121 15.3516 3.57955 15.5959 3.57955C15.9141 3.57955 16.2076 3.66288 16.4766 3.82955C16.7455 3.99432 16.9605 4.24337 17.1214 4.5767C17.2824 4.90814 17.3629 5.32386 17.3629 5.82386C17.3629 6.31061 17.2843 6.72159 17.1271 7.05682C16.9718 7.39015 16.7597 7.64299 16.4908 7.81534C16.2237 7.9858 15.9245 8.07102 15.593 8.07102C15.3582 8.07102 15.1584 8.0322 14.9936 7.95455C14.8307 7.87689 14.6972 7.77936 14.593 7.66193C14.4889 7.54261 14.4093 7.42235 14.3544 7.30114H14.3004V8H13.1072ZM14.2919 5.81818C14.2919 6.07765 14.3279 6.30398 14.3999 6.49716C14.4718 6.69034 14.576 6.84091 14.7124 6.94886C14.8487 7.05492 15.0144 7.10795 15.2095 7.10795C15.4065 7.10795 15.5732 7.05398 15.7095 6.94602C15.8459 6.83617 15.9491 6.68466 16.0192 6.49148C16.0911 6.2964 16.1271 6.07197 16.1271 5.81818C16.1271 5.56629 16.0921 5.3447 16.022 5.15341C15.9519 4.96212 15.8487 4.8125 15.7124 4.70455C15.576 4.59659 15.4084 4.54261 15.2095 4.54261C15.0125 4.54261 14.8459 4.5947 14.7095 4.69886C14.575 4.80303 14.4718 4.95076 14.3999 5.14205C14.3279 5.33333 14.2919 5.55871 14.2919 5.81818ZM21.8011 4.88068L20.6932 4.94886C20.6742 4.85417 20.6335 4.76894 20.571 4.69318C20.5085 4.61553 20.4261 4.55398 20.3239 4.50852C20.2235 4.46117 20.1032 4.4375 19.9631 4.4375C19.7756 4.4375 19.6174 4.47727 19.4886 4.55682C19.3598 4.63447 19.2955 4.73864 19.2955 4.86932C19.2955 4.97348 19.3371 5.06155 19.4205 5.13352C19.5038 5.20549 19.6468 5.26326 19.8494 5.30682L20.6392 5.46591C21.0634 5.55303 21.3797 5.69318 21.5881 5.88636C21.7964 6.07955 21.9006 6.33333 21.9006 6.64773C21.9006 6.93371 21.8163 7.18466 21.6477 7.40057C21.4811 7.61648 21.2519 7.78504 20.9602 7.90625C20.6705 8.02557 20.3362 8.08523 19.9574 8.08523C19.3797 8.08523 18.9195 7.96496 18.5767 7.72443C18.2358 7.48201 18.036 7.15246 17.9773 6.7358L19.1676 6.6733C19.2036 6.84943 19.2907 6.9839 19.429 7.0767C19.5672 7.16761 19.7443 7.21307 19.9602 7.21307C20.1723 7.21307 20.3428 7.17235 20.4716 7.09091C20.6023 7.00758 20.6686 6.90057 20.6705 6.76989C20.6686 6.66004 20.6222 6.57008 20.5312 6.5C20.4403 6.42803 20.3002 6.37311 20.1108 6.33523L19.3551 6.18466C18.929 6.09943 18.6117 5.9517 18.4034 5.74148C18.197 5.53125 18.0938 5.26326 18.0938 4.9375C18.0938 4.6572 18.1695 4.41572 18.321 4.21307C18.4744 4.01042 18.6894 3.85417 18.9659 3.74432C19.2443 3.63447 19.5701 3.57955 19.9432 3.57955C20.4943 3.57955 20.928 3.69602 21.2443 3.92898C21.5625 4.16193 21.7481 4.47917 21.8011 4.88068ZM22.6626 8V3.63636H23.8729V8H22.6626ZM23.2706 3.07386C23.0907 3.07386 22.9363 3.0142 22.8075 2.89489C22.6806 2.77367 22.6172 2.62879 22.6172 2.46023C22.6172 2.29356 22.6806 2.15057 22.8075 2.03125C22.9363 1.91004 23.0907 1.84943 23.2706 1.84943C23.4505 1.84943 23.6039 1.91004 23.7308 2.03125C23.8596 2.15057 23.924 2.29356 23.924 2.46023C23.924 2.62879 23.8596 2.77367 23.7308 2.89489C23.6039 3.0142 23.4505 3.07386 23.2706 3.07386ZM27.1634 3.63636V4.54545H24.5355V3.63636H27.1634ZM25.1321 2.59091H26.3423V6.65909C26.3423 6.77083 26.3594 6.85795 26.3935 6.92045C26.4276 6.98106 26.4749 7.02367 26.5355 7.0483C26.598 7.07292 26.67 7.08523 26.7514 7.08523C26.8082 7.08523 26.8651 7.08049 26.9219 7.07102C26.9787 7.05966 27.0223 7.05114 27.0526 7.04545L27.2429 7.94602C27.1823 7.96496 27.0971 7.98674 26.9872 8.01136C26.8774 8.03788 26.7438 8.05398 26.5866 8.05966C26.295 8.07102 26.0393 8.0322 25.8196 7.94318C25.6018 7.85417 25.4323 7.71591 25.3111 7.52841C25.1899 7.34091 25.1302 7.10417 25.1321 6.81818V2.59091ZM29.8935 8.08523C29.4446 8.08523 29.0582 7.99432 28.7344 7.8125C28.4124 7.62879 28.1643 7.36932 27.9901 7.03409C27.8158 6.69697 27.7287 6.2983 27.7287 5.83807C27.7287 5.3892 27.8158 4.99527 27.9901 4.65625C28.1643 4.31723 28.4096 4.05303 28.7259 3.86364C29.044 3.67424 29.4171 3.57955 29.8452 3.57955C30.133 3.57955 30.401 3.62595 30.6491 3.71875C30.8991 3.80966 31.117 3.94697 31.3026 4.13068C31.4901 4.31439 31.6359 4.54545 31.7401 4.82386C31.8442 5.10038 31.8963 5.42424 31.8963 5.79545V6.12784H28.2116V5.37784H30.7571C30.7571 5.2036 30.7192 5.04924 30.6435 4.91477C30.5677 4.7803 30.4626 4.67519 30.3281 4.59943C30.1955 4.52178 30.0412 4.48295 29.8651 4.48295C29.6813 4.48295 29.5185 4.52557 29.3764 4.6108C29.2363 4.69413 29.1264 4.80682 29.0469 4.94886C28.9673 5.08902 28.9266 5.24527 28.9247 5.41761V6.13068C28.9247 6.34659 28.9645 6.53314 29.044 6.69034C29.1255 6.84754 29.2401 6.96875 29.3878 7.05398C29.5355 7.1392 29.7107 7.18182 29.9134 7.18182C30.0478 7.18182 30.1709 7.16288 30.2827 7.125C30.3944 7.08712 30.4901 7.0303 30.5696 6.95455C30.6491 6.87879 30.7098 6.78598 30.7514 6.67614L31.8707 6.75C31.8139 7.01894 31.6974 7.25379 31.5213 7.45455C31.3471 7.65341 31.1217 7.80871 30.8452 7.92045C30.5705 8.0303 30.2533 8.08523 29.8935 8.08523ZM35.245 8.07386C35.0575 8.07386 34.8965 8.00758 34.7621 7.875C34.6295 7.74053 34.5632 7.57955 34.5632 7.39205C34.5632 7.20644 34.6295 7.04735 34.7621 6.91477C34.8965 6.7822 35.0575 6.71591 35.245 6.71591C35.4268 6.71591 35.5859 6.7822 35.7223 6.91477C35.8587 7.04735 35.9268 7.20644 35.9268 7.39205C35.9268 7.51705 35.8946 7.63163 35.8303 7.7358C35.7678 7.83807 35.6854 7.92045 35.5831 7.98295C35.4808 8.04356 35.3681 8.07386 35.245 8.07386ZM35.245 5.01705C35.0575 5.01705 34.8965 4.95076 34.7621 4.81818C34.6295 4.68561 34.5632 4.52462 34.5632 4.33523C34.5632 4.14962 34.6295 3.99148 34.7621 3.8608C34.8965 3.72822 35.0575 3.66193 35.245 3.66193C35.4268 3.66193 35.5859 3.72822 35.7223 3.8608C35.8587 3.99148 35.9268 4.14962 35.9268 4.33523C35.9268 4.46212 35.8946 4.57765 35.8303 4.68182C35.7678 4.78409 35.6854 4.86553 35.5831 4.92614C35.4808 4.98674 35.3681 5.01705 35.245 5.01705Z" fill="#0C2461"/>
<path d="M2.00874 17.7727V20.5H1.50306V14.6818H2.00874V16.821H2.0542C2.15647 16.5956 2.31462 16.4157 2.52863 16.2812C2.74454 16.1468 3.01727 16.0795 3.34681 16.0795C3.64227 16.0795 3.90174 16.1402 4.12522 16.2614C4.34871 16.3826 4.52295 16.5616 4.64795 16.7983C4.77295 17.035 4.83545 17.3267 4.83545 17.6733V20.5H4.32693V17.7045C4.32693 17.3447 4.22655 17.0616 4.02579 16.8551C3.82693 16.6468 3.55799 16.5426 3.21897 16.5426C2.98602 16.5426 2.77863 16.5919 2.59681 16.6903C2.41499 16.7888 2.27106 16.9309 2.16499 17.1165C2.06083 17.3002 2.00874 17.5189 2.00874 17.7727ZM7.88588 16.1364V16.5767H5.80349V16.1364H7.88588ZM6.45406 15.0909H6.96258V19.3608C6.96258 19.5426 6.99383 19.6856 7.05633 19.7898C7.11883 19.892 7.20027 19.965 7.30065 20.0085C7.40103 20.0502 7.50803 20.071 7.62167 20.071C7.68796 20.071 7.74478 20.0672 7.79213 20.0597C7.83947 20.0502 7.88114 20.0407 7.91713 20.0312L8.02508 20.4886C7.97584 20.5076 7.91523 20.5246 7.84326 20.5398C7.77129 20.5568 7.68228 20.5653 7.57622 20.5653C7.39061 20.5653 7.21163 20.5246 7.03928 20.4432C6.86883 20.3617 6.72868 20.2405 6.61883 20.0795C6.50898 19.9186 6.45406 19.7188 6.45406 19.4801V15.0909ZM10.7531 16.1364V16.5767H8.67068V16.1364H10.7531ZM9.32124 15.0909H9.82977V19.3608C9.82977 19.5426 9.86102 19.6856 9.92352 19.7898C9.98602 19.892 10.0675 19.965 10.1678 20.0085C10.2682 20.0502 10.3752 20.071 10.4889 20.071C10.5551 20.071 10.612 20.0672 10.6593 20.0597C10.7067 20.0502 10.7483 20.0407 10.7843 20.0312L10.8923 20.4886C10.843 20.5076 10.7824 20.5246 10.7104 20.5398C10.6385 20.5568 10.5495 20.5653 10.4434 20.5653C10.2578 20.5653 10.0788 20.5246 9.90647 20.4432C9.73602 20.3617 9.59587 20.2405 9.48602 20.0795C9.37617 19.9186 9.32124 19.7188 9.32124 19.4801V15.0909ZM11.9015 22.1364V16.1364H12.393V16.9688H12.4526C12.5132 16.8381 12.5966 16.7045 12.7026 16.5682C12.8087 16.4299 12.9488 16.3134 13.1231 16.2188C13.2992 16.1241 13.5208 16.0767 13.7879 16.0767C14.1477 16.0767 14.4621 16.1714 14.731 16.3608C15.0019 16.5483 15.2121 16.8116 15.3617 17.1506C15.5132 17.4877 15.589 17.8807 15.589 18.3295C15.589 18.7803 15.5132 19.1752 15.3617 19.5142C15.2121 19.8532 15.0019 20.1174 14.731 20.3068C14.4621 20.4962 14.1496 20.5909 13.7935 20.5909C13.5303 20.5909 13.3096 20.5436 13.1316 20.4489C12.9555 20.3542 12.8125 20.2377 12.7026 20.0994C12.5947 19.9593 12.5113 19.8229 12.4526 19.6903H12.4072V22.1364H11.9015ZM12.4015 18.321C12.4015 18.6733 12.4536 18.9858 12.5578 19.2585C12.6638 19.5294 12.8153 19.7424 13.0123 19.8977C13.2112 20.0511 13.4517 20.1278 13.7339 20.1278C14.0237 20.1278 14.268 20.0483 14.4668 19.8892C14.6676 19.7282 14.8201 19.5114 14.9242 19.2386C15.0303 18.9659 15.0833 18.66 15.0833 18.321C15.0833 17.9858 15.0312 17.6837 14.9271 17.4148C14.8248 17.1458 14.6733 16.9328 14.4725 16.7756C14.2718 16.6165 14.0256 16.5369 13.7339 16.5369C13.4498 16.5369 13.2083 16.6136 13.0095 16.767C12.8106 16.9186 12.6591 17.1288 12.5549 17.3977C12.4526 17.6648 12.4015 17.9725 12.4015 18.321ZM19.6302 17.0938L19.1671 17.2244C19.1217 17.0937 19.0573 16.9754 18.9739 16.8693C18.8906 16.7633 18.7817 16.679 18.6472 16.6165C18.5147 16.554 18.3499 16.5227 18.1529 16.5227C17.8575 16.5227 17.615 16.5928 17.4256 16.733C17.2363 16.8731 17.1416 17.054 17.1416 17.2756C17.1416 17.4631 17.206 17.6155 17.3347 17.733C17.4654 17.8485 17.6662 17.9403 17.937 18.0085L18.5961 18.1705C18.9616 18.2595 19.2353 18.4006 19.4171 18.5938C19.6008 18.7869 19.6927 19.0294 19.6927 19.321C19.6927 19.5672 19.6245 19.786 19.4881 19.9773C19.3518 20.1686 19.1614 20.3191 18.9171 20.429C18.6747 20.5369 18.3935 20.5909 18.0734 20.5909C17.6472 20.5909 17.2959 20.4953 17.0194 20.304C16.7429 20.1108 16.5658 19.8324 16.4881 19.4688L16.9739 19.3494C17.0364 19.6089 17.1586 19.8049 17.3404 19.9375C17.5241 20.0701 17.7656 20.1364 18.0649 20.1364C18.4001 20.1364 18.6681 20.0616 18.8688 19.9119C19.0696 19.7604 19.17 19.571 19.17 19.3438C19.17 19.1676 19.1113 19.0199 18.9938 18.9006C18.8764 18.7794 18.6984 18.6903 18.4597 18.6335L17.7467 18.4631C17.3679 18.3722 17.0876 18.2282 16.9058 18.0312C16.7239 17.8343 16.633 17.59 16.633 17.2983C16.633 17.0578 16.6984 16.8466 16.8291 16.6648C16.9597 16.4811 17.1397 16.3371 17.3688 16.233C17.598 16.1288 17.8594 16.0767 18.1529 16.0767C18.5525 16.0767 18.8717 16.1676 19.1103 16.3494C19.3508 16.5294 19.5241 16.7775 19.6302 17.0938ZM21.2033 20.3892C21.0916 20.3892 20.995 20.3494 20.9136 20.2699C20.834 20.1903 20.7943 20.0937 20.7943 19.9801C20.7943 19.8684 20.834 19.7727 20.9136 19.6932C20.995 19.6117 21.0916 19.571 21.2033 19.571C21.317 19.571 21.4136 19.6117 21.4931 19.6932C21.5727 19.7727 21.6124 19.8684 21.6124 19.9801C21.6124 20.0559 21.5935 20.125 21.5556 20.1875C21.5196 20.2481 21.4704 20.2973 21.4079 20.3352C21.3473 20.3712 21.2791 20.3892 21.2033 20.3892ZM21.2033 17.2415C21.0916 17.2415 20.995 17.2017 20.9136 17.1222C20.834 17.0426 20.7943 16.946 20.7943 16.8324C20.7943 16.7206 20.834 16.625 20.9136 16.5455C20.995 16.464 21.0916 16.4233 21.2033 16.4233C21.317 16.4233 21.4136 16.464 21.4931 16.5455C21.5727 16.625 21.6124 16.7206 21.6124 16.8324C21.6124 16.9081 21.5935 16.9773 21.5556 17.0398C21.5196 17.1004 21.4704 17.1496 21.4079 17.1875C21.3473 17.2235 21.2791 17.2415 21.2033 17.2415ZM24.8376 14.4091L22.9626 21.375H22.4881L24.3631 14.4091H24.8376ZM27.6032 14.4091L25.7282 21.375H25.2538L27.1288 14.4091H27.6032ZM29.4484 20.5L28.1302 16.1364H28.6643L29.6984 19.7358H29.7353L30.7666 16.1364H31.3035L32.3262 19.7273H32.366L33.4001 16.1364H33.9342L32.616 20.5H32.0933L31.0592 16.9233H31.0052L29.9711 20.5H29.4484ZM35.8859 20.5L34.5677 16.1364H35.1018L36.1359 19.7358H36.1728L37.2041 16.1364H37.741L38.7637 19.7273H38.8035L39.8376 16.1364H40.3717L39.0535 20.5H38.5308L37.4967 16.9233H37.4427L36.4086 20.5H35.8859ZM42.3234 20.5L41.0052 16.1364H41.5393L42.5734 19.7358H42.6103L43.6416 16.1364H44.1785L45.2012 19.7273H45.241L46.2751 16.1364H46.8092L45.491 20.5H44.9683L43.9342 16.9233H43.8802L42.8461 20.5H42.3234ZM47.6018 20.5426C47.49 20.5426 47.3935 20.5028 47.312 20.4233C47.2325 20.3419 47.1927 20.2453 47.1927 20.1335C47.1927 20.0199 47.2325 19.9233 47.312 19.8438C47.3935 19.7642 47.49 19.7244 47.6018 19.7244C47.7154 19.7244 47.812 19.7642 47.8916 19.8438C47.9711 19.9233 48.0109 20.0199 48.0109 20.1335C48.0109 20.2074 47.9919 20.2756 47.9541 20.3381C47.9181 20.4006 47.8688 20.4508 47.8063 20.4886C47.7457 20.5246 47.6775 20.5426 47.6018 20.5426ZM49.3525 20.5V16.1364H49.861V20.5H49.3525ZM49.611 15.3864C49.5069 15.3864 49.4178 15.3513 49.344 15.2812C49.2701 15.2093 49.2332 15.1231 49.2332 15.0227C49.2332 14.9223 49.2701 14.8371 49.344 14.767C49.4178 14.6951 49.5069 14.6591 49.611 14.6591C49.7152 14.6591 49.8042 14.6951 49.8781 14.767C49.9519 14.8371 49.9889 14.9223 49.9889 15.0227C49.9889 15.1231 49.9519 15.2093 49.8781 15.2812C49.8042 15.3513 49.7152 15.3864 49.611 15.3864ZM51.7041 17.7727V20.5H51.1984V16.1364H51.6899V16.821H51.7353C51.8376 16.5975 51.9967 16.4186 52.2126 16.2841C52.4304 16.1477 52.6993 16.0795 53.0194 16.0795C53.313 16.0795 53.5705 16.1411 53.7921 16.2642C54.0156 16.3854 54.1889 16.5644 54.312 16.8011C54.437 17.0379 54.4995 17.3286 54.4995 17.6733V20.5H53.9938V17.7045C53.9938 17.3466 53.8935 17.0634 53.6927 16.8551C53.4938 16.6468 53.2268 16.5426 52.8916 16.5426C52.6624 16.5426 52.4588 16.5919 52.2808 16.6903C52.1027 16.7888 51.9616 16.9309 51.8575 17.1165C51.7552 17.3002 51.7041 17.5189 51.7041 17.7727ZM57.4022 20.5909C57.0443 20.5909 56.7308 20.4962 56.4619 20.3068C56.1929 20.1174 55.9827 19.8532 55.8312 19.5142C55.6816 19.1752 55.6068 18.7803 55.6068 18.3295C55.6068 17.8807 55.6816 17.4877 55.8312 17.1506C55.9827 16.8116 56.1939 16.5483 56.4647 16.3608C56.7355 16.1714 57.0509 16.0767 57.4107 16.0767C57.6759 16.0767 57.8965 16.1241 58.0727 16.2188C58.2488 16.3116 58.3899 16.4271 58.496 16.5653C58.602 16.7036 58.6844 16.8381 58.7431 16.9688H58.7886V14.6818H59.2971V20.5H58.8028V19.6903H58.7431C58.6844 19.8229 58.6011 19.9593 58.4931 20.0994C58.3852 20.2377 58.2422 20.3542 58.0641 20.4489C57.888 20.5436 57.6674 20.5909 57.4022 20.5909ZM57.4619 20.1278C57.7441 20.1278 57.9846 20.0511 58.1835 19.8977C58.3823 19.7424 58.5338 19.5294 58.638 19.2585C58.7441 18.9858 58.7971 18.6733 58.7971 18.321C58.7971 17.9725 58.745 17.6648 58.6408 17.3977C58.5367 17.1288 58.3852 16.9186 58.1863 16.767C57.9874 16.6136 57.746 16.5369 57.4619 16.5369C57.1702 16.5369 56.924 16.6165 56.7232 16.7756C56.5244 16.9328 56.3729 17.1458 56.2687 17.4148C56.1664 17.6837 56.1153 17.9858 56.1153 18.321C56.1153 18.66 56.1674 18.9659 56.2715 19.2386C56.3757 19.5114 56.5272 19.7282 56.7261 19.8892C56.9268 20.0483 57.1721 20.1278 57.4619 20.1278ZM60.7431 20.5V16.1364H61.2516V20.5H60.7431ZM61.0016 15.3864C60.8975 15.3864 60.8085 15.3513 60.7346 15.2812C60.6607 15.2093 60.6238 15.1231 60.6238 15.0227C60.6238 14.9223 60.6607 14.8371 60.7346 14.767C60.8085 14.6951 60.8975 14.6591 61.0016 14.6591C61.1058 14.6591 61.1948 14.6951 61.2687 14.767C61.3426 14.8371 61.3795 14.9223 61.3795 15.0227C61.3795 15.1231 61.3426 15.2093 61.2687 15.2812C61.1948 15.3513 61.1058 15.3864 61.0016 15.3864ZM63.8078 20.5994C63.5445 20.5994 63.304 20.5483 63.0862 20.446C62.8684 20.3419 62.6951 20.1922 62.5663 19.9972C62.4375 19.8002 62.3731 19.5616 62.3731 19.2812C62.3731 19.0653 62.4138 18.8835 62.4953 18.7358C62.5767 18.5881 62.6922 18.4669 62.8418 18.3722C62.9915 18.2775 63.1685 18.2027 63.3731 18.1477C63.5776 18.0928 63.803 18.0502 64.0492 18.0199C64.2935 17.9896 64.5 17.9631 64.6685 17.9403C64.839 17.9176 64.9687 17.8816 65.0578 17.8324C65.1468 17.7831 65.1913 17.7036 65.1913 17.5938V17.4915C65.1913 17.1941 65.1023 16.9602 64.9242 16.7898C64.7481 16.6174 64.4943 16.5312 64.1629 16.5312C63.8485 16.5312 63.5918 16.6004 63.393 16.7386C63.196 16.8769 63.0578 17.0398 62.9782 17.2273L62.4981 17.054C62.5966 16.8153 62.7329 16.625 62.9072 16.483C63.0814 16.339 63.2765 16.2358 63.4924 16.1733C63.7083 16.1089 63.9271 16.0767 64.1487 16.0767C64.3153 16.0767 64.4886 16.0985 64.6685 16.142C64.8504 16.1856 65.0189 16.2614 65.1742 16.3693C65.3295 16.4754 65.4555 16.6241 65.5521 16.8153C65.6487 17.0047 65.697 17.2453 65.697 17.5369V20.5H65.1913V19.8097H65.16C65.0994 19.9384 65.0095 20.0634 64.8901 20.1847C64.7708 20.3059 64.6212 20.4053 64.4413 20.483C64.2613 20.5606 64.0502 20.5994 63.8078 20.5994ZM63.8759 20.1364C64.1449 20.1364 64.3778 20.0767 64.5748 19.9574C64.7718 19.8381 64.9233 19.6799 65.0293 19.483C65.1373 19.2841 65.1913 19.0653 65.1913 18.8267V18.196C65.1534 18.232 65.0899 18.2642 65.0009 18.2926C64.9138 18.321 64.8125 18.3466 64.697 18.3693C64.5833 18.3902 64.4697 18.4081 64.356 18.4233C64.2424 18.4384 64.1401 18.4517 64.0492 18.4631C63.803 18.4934 63.5928 18.5407 63.4185 18.6051C63.2443 18.6695 63.1108 18.7585 63.018 18.8722C62.9252 18.9839 62.8788 19.1278 62.8788 19.304C62.8788 19.5691 62.9735 19.7746 63.1629 19.9205C63.3523 20.0644 63.5899 20.1364 63.8759 20.1364ZM67.0421 20.5V16.1364H67.5336V16.8068H67.5791C67.6662 16.5814 67.8111 16.4044 68.0137 16.2756C68.2183 16.1449 68.4635 16.0795 68.7495 16.0795C69.0506 16.0795 69.2978 16.1506 69.491 16.2926C69.6861 16.4328 69.8319 16.6259 69.9285 16.8722H69.9654C70.0639 16.6297 70.2239 16.4375 70.4455 16.2955C70.669 16.1515 70.9399 16.0795 71.258 16.0795C71.6633 16.0795 71.9834 16.2074 72.2183 16.4631C72.4531 16.7169 72.5705 17.0881 72.5705 17.5767V20.5H72.0649V17.5767C72.0649 17.232 71.9768 16.9735 71.8006 16.8011C71.6245 16.6288 71.3925 16.5426 71.1046 16.5426C70.7713 16.5426 70.5147 16.6449 70.3347 16.8494C70.1548 17.054 70.0649 17.3134 70.0649 17.6278V20.5H69.5478V17.5312C69.5478 17.2358 69.4654 16.9972 69.3006 16.8153C69.1359 16.6335 68.9039 16.5426 68.6046 16.5426C68.4039 16.5426 68.223 16.5919 68.062 16.6903C67.9029 16.7888 67.777 16.9261 67.6842 17.1023C67.5933 17.2765 67.5478 17.4773 67.5478 17.7045V20.5H67.0421ZM75.1281 20.5994C74.8648 20.5994 74.6243 20.5483 74.4065 20.446C74.1887 20.3419 74.0154 20.1922 73.8866 19.9972C73.7578 19.8002 73.6934 19.5616 73.6934 19.2812C73.6934 19.0653 73.7341 18.8835 73.8156 18.7358C73.897 18.5881 74.0125 18.4669 74.1622 18.3722C74.3118 18.2775 74.4889 18.2027 74.6934 18.1477C74.8979 18.0928 75.1233 18.0502 75.3695 18.0199C75.6139 17.9896 75.8203 17.9631 75.9889 17.9403C76.1593 17.9176 76.289 17.8816 76.3781 17.8324C76.4671 17.7831 76.5116 17.7036 76.5116 17.5938V17.4915C76.5116 17.1941 76.4226 16.9602 76.2445 16.7898C76.0684 16.6174 75.8146 16.5312 75.4832 16.5312C75.1688 16.5312 74.9122 16.6004 74.7133 16.7386C74.5163 16.8769 74.3781 17.0398 74.2985 17.2273L73.8184 17.054C73.9169 16.8153 74.0533 16.625 74.2275 16.483C74.4017 16.339 74.5968 16.2358 74.8127 16.1733C75.0286 16.1089 75.2474 16.0767 75.469 16.0767C75.6356 16.0767 75.8089 16.0985 75.9889 16.142C76.1707 16.1856 76.3392 16.2614 76.4945 16.3693C76.6498 16.4754 76.7758 16.6241 76.8724 16.8153C76.969 17.0047 77.0173 17.2453 77.0173 17.5369V20.5H76.5116V19.8097H76.4803C76.4197 19.9384 76.3298 20.0634 76.2104 20.1847C76.0911 20.3059 75.9415 20.4053 75.7616 20.483C75.5817 20.5606 75.3705 20.5994 75.1281 20.5994ZM75.1962 20.1364C75.4652 20.1364 75.6981 20.0767 75.8951 19.9574C76.0921 19.8381 76.2436 19.6799 76.3497 19.483C76.4576 19.2841 76.5116 19.0653 76.5116 18.8267V18.196C76.4737 18.232 76.4103 18.2642 76.3212 18.2926C76.2341 18.321 76.1328 18.3466 76.0173 18.3693C75.9036 18.3902 75.79 18.4081 75.6764 18.4233C75.5627 18.4384 75.4604 18.4517 75.3695 18.4631C75.1233 18.4934 74.9131 18.5407 74.7389 18.6051C74.5646 18.6695 74.4311 18.7585 74.3383 18.8722C74.2455 18.9839 74.1991 19.1278 74.1991 19.304C74.1991 19.5691 74.2938 19.7746 74.4832 19.9205C74.6726 20.0644 74.9103 20.1364 75.1962 20.1364ZM78.3624 20.5V16.1364H78.8539V16.8068H78.8908C78.978 16.5871 79.1295 16.41 79.3454 16.2756C79.5632 16.1392 79.8094 16.071 80.084 16.071C80.1257 16.071 80.1721 16.072 80.2232 16.0739C80.2744 16.0758 80.317 16.0777 80.3511 16.0795V16.5938C80.3283 16.59 80.2886 16.5843 80.2318 16.5767C80.1749 16.5691 80.1134 16.5653 80.0471 16.5653C79.8198 16.5653 79.6172 16.6136 79.4391 16.7102C79.263 16.8049 79.1238 16.9366 79.0215 17.1051C78.9193 17.2737 78.8681 17.4659 78.8681 17.6818V20.5H78.3624ZM83.2062 16.1364V16.5767H81.1238V16.1364H83.2062ZM81.7744 15.0909H82.2829V19.3608C82.2829 19.5426 82.3141 19.6856 82.3766 19.7898C82.4391 19.892 82.5206 19.965 82.621 20.0085C82.7213 20.0502 82.8283 20.071 82.942 20.071C83.0083 20.071 83.0651 20.0672 83.1124 20.0597C83.1598 20.0502 83.2015 20.0407 83.2374 20.0312L83.3454 20.4886C83.2961 20.5076 83.2355 20.5246 83.1636 20.5398C83.0916 20.5568 83.0026 20.5653 82.8965 20.5653C82.7109 20.5653 82.5319 20.5246 82.3596 20.4432C82.1891 20.3617 82.049 20.2405 81.9391 20.0795C81.8293 19.9186 81.7744 19.7188 81.7744 19.4801V15.0909ZM84.758 20.5426C84.6463 20.5426 84.5497 20.5028 84.4683 20.4233C84.3887 20.3419 84.3489 20.2453 84.3489 20.1335C84.3489 20.0199 84.3887 19.9233 84.4683 19.8438C84.5497 19.7642 84.6463 19.7244 84.758 19.7244C84.8717 19.7244 84.9683 19.7642 85.0478 19.8438C85.1274 19.9233 85.1671 20.0199 85.1671 20.1335C85.1671 20.2074 85.1482 20.2756 85.1103 20.3381C85.0743 20.4006 85.0251 20.4508 84.9626 20.4886C84.902 20.5246 84.8338 20.5426 84.758 20.5426ZM88.2076 20.5909C87.8175 20.5909 87.4775 20.4934 87.1877 20.2983C86.8998 20.1032 86.6764 19.8362 86.5173 19.4972C86.3582 19.1581 86.2786 18.7718 86.2786 18.3381C86.2786 17.9006 86.3591 17.5114 86.5201 17.1705C86.683 16.8295 86.9084 16.5625 87.1962 16.3693C87.4841 16.1742 87.8184 16.0767 88.1991 16.0767C88.4908 16.0767 88.755 16.1335 88.9917 16.2472C89.2284 16.3589 89.4235 16.517 89.5769 16.7216C89.7322 16.9242 89.8298 17.161 89.8695 17.4318H89.3582C89.3051 17.1856 89.1773 16.9754 88.9747 16.8011C88.7739 16.625 88.5182 16.5369 88.2076 16.5369C87.9292 16.5369 87.683 16.6127 87.469 16.7642C87.255 16.9138 87.0873 17.1231 86.9661 17.392C86.8468 17.6591 86.7872 17.9687 86.7872 18.321C86.7872 18.6752 86.8459 18.9886 86.9633 19.2614C87.0807 19.5322 87.2455 19.7443 87.4576 19.8977C87.6716 20.0511 87.9216 20.1278 88.2076 20.1278C88.4008 20.1278 88.5769 20.0919 88.736 20.0199C88.897 19.946 89.0315 19.8419 89.1394 19.7074C89.2493 19.5729 89.3231 19.4129 89.361 19.2273H89.8724C89.8345 19.4905 89.7408 19.7254 89.5911 19.9318C89.4434 20.1364 89.2512 20.2973 89.0144 20.4148C88.7796 20.5322 88.5106 20.5909 88.2076 20.5909ZM92.6522 20.5909C92.2753 20.5909 91.942 20.4953 91.6522 20.304C91.3643 20.1127 91.139 19.8485 90.9761 19.5114C90.8132 19.1723 90.7318 18.7812 90.7318 18.3381C90.7318 17.8911 90.8132 17.4981 90.9761 17.1591C91.139 16.8182 91.3643 16.553 91.6522 16.3636C91.942 16.1723 92.2753 16.0767 92.6522 16.0767C93.0291 16.0767 93.3615 16.1723 93.6494 16.3636C93.9372 16.5549 94.1626 16.8201 94.3255 17.1591C94.4903 17.4981 94.5727 17.8911 94.5727 18.3381C94.5727 18.7812 94.4912 19.1723 94.3283 19.5114C94.1655 19.8485 93.9391 20.1127 93.6494 20.304C93.3615 20.4953 93.0291 20.5909 92.6522 20.5909ZM92.6522 20.1278C92.9552 20.1278 93.2119 20.0464 93.4221 19.8835C93.6323 19.7206 93.7914 19.5038 93.8994 19.233C94.0092 18.9621 94.0641 18.6638 94.0641 18.3381C94.0641 18.0123 94.0092 17.7131 93.8994 17.4403C93.7914 17.1676 93.6323 16.9489 93.4221 16.7841C93.2119 16.6193 92.9552 16.5369 92.6522 16.5369C92.3511 16.5369 92.0944 16.6193 91.8823 16.7841C91.6721 16.9489 91.5121 17.1676 91.4022 17.4403C91.2943 17.7131 91.2403 18.0123 91.2403 18.3381C91.2403 18.6638 91.2943 18.9621 91.4022 19.233C91.5121 19.5038 91.6721 19.7206 91.8823 19.8835C92.0926 20.0464 92.3492 20.1278 92.6522 20.1278ZM95.6828 20.5V16.1364H96.1742V16.8068H96.2197C96.3068 16.5814 96.4517 16.4044 96.6543 16.2756C96.8589 16.1449 97.1042 16.0795 97.3901 16.0795C97.6913 16.0795 97.9384 16.1506 98.1316 16.2926C98.3267 16.4328 98.4725 16.6259 98.5691 16.8722H98.606C98.7045 16.6297 98.8646 16.4375 99.0862 16.2955C99.3096 16.1515 99.5805 16.0795 99.8987 16.0795C100.304 16.0795 100.624 16.2074 100.859 16.4631C101.094 16.7169 101.211 17.0881 101.211 17.5767V20.5H100.705V17.5767C100.705 17.232 100.617 16.9735 100.441 16.8011C100.265 16.6288 100.033 16.5426 99.7453 16.5426C99.4119 16.5426 99.1553 16.6449 98.9754 16.8494C98.7954 17.054 98.7055 17.3134 98.7055 17.6278V20.5H98.1884V17.5312C98.1884 17.2358 98.106 16.9972 97.9413 16.8153C97.7765 16.6335 97.5445 16.5426 97.2453 16.5426C97.0445 16.5426 96.8636 16.5919 96.7026 16.6903C96.5435 16.7888 96.4176 16.9261 96.3248 17.1023C96.2339 17.2765 96.1884 17.4773 96.1884 17.7045V20.5H95.6828ZM104.439 14.4091L102.564 21.375H102.09L103.965 14.4091H104.439ZM105.316 20.5V16.1364H105.807V16.8068H105.844C105.931 16.5871 106.083 16.41 106.299 16.2756C106.516 16.1392 106.763 16.071 107.037 16.071C107.079 16.071 107.125 16.072 107.176 16.0739C107.227 16.0758 107.27 16.0777 107.304 16.0795V16.5938C107.281 16.59 107.242 16.5843 107.185 16.5767C107.128 16.5691 107.067 16.5653 107 16.5653C106.773 16.5653 106.57 16.6136 106.392 16.7102C106.216 16.8049 106.077 16.9366 105.975 17.1051C105.872 17.2737 105.821 17.4659 105.821 17.6818V20.5H105.316ZM108.627 18.8523L108.622 18.1903H108.735L110.781 16.1364H111.42L109.4 18.1591L109.355 18.1676L108.627 18.8523ZM108.167 20.5V14.6818H108.673V20.5H108.167ZM110.886 20.5L109.113 18.2585L109.477 17.9091L111.534 20.5H110.886ZM112.37 22.1364V16.1364H112.862V16.9688H112.921C112.982 16.8381 113.065 16.7045 113.171 16.5682C113.277 16.4299 113.418 16.3134 113.592 16.2188C113.768 16.1241 113.99 16.0767 114.257 16.0767C114.616 16.0767 114.931 16.1714 115.2 16.3608C115.471 16.5483 115.681 16.8116 115.83 17.1506C115.982 17.4877 116.058 17.8807 116.058 18.3295C116.058 18.7803 115.982 19.1752 115.83 19.5142C115.681 19.8532 115.471 20.1174 115.2 20.3068C114.931 20.4962 114.618 20.5909 114.262 20.5909C113.999 20.5909 113.778 20.5436 113.6 20.4489C113.424 20.3542 113.281 20.2377 113.171 20.0994C113.063 19.9593 112.98 19.8229 112.921 19.6903H112.876V22.1364H112.37ZM112.87 18.321C112.87 18.6733 112.922 18.9858 113.027 19.2585C113.133 19.5294 113.284 19.7424 113.481 19.8977C113.68 20.0511 113.92 20.1278 114.203 20.1278C114.492 20.1278 114.737 20.0483 114.936 19.8892C115.136 19.7282 115.289 19.5114 115.393 19.2386C115.499 18.9659 115.552 18.66 115.552 18.321C115.552 17.9858 115.5 17.6837 115.396 17.4148C115.294 17.1458 115.142 16.9328 114.941 16.7756C114.741 16.6165 114.494 16.5369 114.203 16.5369C113.919 16.5369 113.677 16.6136 113.478 16.767C113.279 16.9186 113.128 17.1288 113.024 17.3977C112.921 17.6648 112.87 17.9725 112.87 18.321ZM118.863 20.5909C118.486 20.5909 118.153 20.4953 117.863 20.304C117.575 20.1127 117.35 19.8485 117.187 19.5114C117.024 19.1723 116.943 18.7812 116.943 18.3381C116.943 17.8911 117.024 17.4981 117.187 17.1591C117.35 16.8182 117.575 16.553 117.863 16.3636C118.153 16.1723 118.486 16.0767 118.863 16.0767C119.24 16.0767 119.572 16.1723 119.86 16.3636C120.148 16.5549 120.374 16.8201 120.536 17.1591C120.701 17.4981 120.784 17.8911 120.784 18.3381C120.784 18.7812 120.702 19.1723 120.539 19.5114C120.376 19.8485 120.15 20.1127 119.86 20.304C119.572 20.4953 119.24 20.5909 118.863 20.5909ZM118.863 20.1278C119.166 20.1278 119.423 20.0464 119.633 19.8835C119.843 19.7206 120.002 19.5038 120.11 19.233C120.22 18.9621 120.275 18.6638 120.275 18.3381C120.275 18.0123 120.22 17.7131 120.11 17.4403C120.002 17.1676 119.843 16.9489 119.633 16.7841C119.423 16.6193 119.166 16.5369 118.863 16.5369C118.562 16.5369 118.305 16.6193 118.093 16.7841C117.883 16.9489 117.723 17.1676 117.613 17.4403C117.505 17.7131 117.451 18.0123 117.451 18.3381C117.451 18.6638 117.505 18.9621 117.613 19.233C117.723 19.5038 117.883 19.7206 118.093 19.8835C118.303 20.0464 118.56 20.1278 118.863 20.1278ZM122.399 14.6818V20.5H121.894V14.6818H122.399ZM124.09 22.1364C123.989 22.1364 123.896 22.1269 123.808 22.108C123.721 22.089 123.652 22.0682 123.601 22.0455L123.737 21.5994C123.91 21.6525 124.063 21.6714 124.198 21.6562C124.332 21.643 124.451 21.5824 124.556 21.4744C124.66 21.3684 124.753 21.2055 124.834 20.9858L124.993 20.5426L123.388 16.1364H123.936L125.232 19.8324H125.272L126.567 16.1364H127.115L125.269 21.1903C125.191 21.4006 125.095 21.5758 124.982 21.7159C124.868 21.858 124.736 21.9631 124.587 22.0312C124.439 22.1013 124.273 22.1364 124.09 22.1364ZM128.105 22.1364V16.1364H128.596V16.9688H128.656C128.716 16.8381 128.8 16.7045 128.906 16.5682C129.012 16.4299 129.152 16.3134 129.326 16.2188C129.502 16.1241 129.724 16.0767 129.991 16.0767C130.351 16.0767 130.665 16.1714 130.934 16.3608C131.205 16.5483 131.415 16.8116 131.565 17.1506C131.716 17.4877 131.792 17.8807 131.792 18.3295C131.792 18.7803 131.716 19.1752 131.565 19.5142C131.415 19.8532 131.205 20.1174 130.934 20.3068C130.665 20.4962 130.353 20.5909 129.997 20.5909C129.733 20.5909 129.513 20.5436 129.335 20.4489C129.159 20.3542 129.016 20.2377 128.906 20.0994C128.798 19.9593 128.714 19.8229 128.656 19.6903H128.61V22.1364H128.105ZM128.605 18.321C128.605 18.6733 128.657 18.9858 128.761 19.2585C128.867 19.5294 129.018 19.7424 129.215 19.8977C129.414 20.0511 129.655 20.1278 129.937 20.1278C130.227 20.1278 130.471 20.0483 130.67 19.8892C130.871 19.7282 131.023 19.5114 131.127 19.2386C131.233 18.9659 131.286 18.66 131.286 18.321C131.286 17.9858 131.234 17.6837 131.13 17.4148C131.028 17.1458 130.876 16.9328 130.676 16.7756C130.475 16.6165 130.229 16.5369 129.937 16.5369C129.653 16.5369 129.411 16.6136 129.213 16.767C129.014 16.9186 128.862 17.1288 128.758 17.3977C128.656 17.6648 128.605 17.9725 128.605 18.321ZM132.902 20.5V16.1364H133.393V16.8068H133.43C133.517 16.5871 133.669 16.41 133.884 16.2756C134.102 16.1392 134.348 16.071 134.623 16.071C134.665 16.071 134.711 16.072 134.762 16.0739C134.813 16.0758 134.856 16.0777 134.89 16.0795V16.5938C134.867 16.59 134.828 16.5843 134.771 16.5767C134.714 16.5691 134.652 16.5653 134.586 16.5653C134.359 16.5653 134.156 16.6136 133.978 16.7102C133.802 16.8049 133.663 16.9366 133.561 17.1051C133.458 17.2737 133.407 17.4659 133.407 17.6818V20.5H132.902ZM137.316 20.5909C136.939 20.5909 136.606 20.4953 136.316 20.304C136.028 20.1127 135.803 19.8485 135.64 19.5114C135.477 19.1723 135.396 18.7812 135.396 18.3381C135.396 17.8911 135.477 17.4981 135.64 17.1591C135.803 16.8182 136.028 16.553 136.316 16.3636C136.606 16.1723 136.939 16.0767 137.316 16.0767C137.693 16.0767 138.026 16.1723 138.313 16.3636C138.601 16.5549 138.827 16.8201 138.99 17.1591C139.154 17.4981 139.237 17.8911 139.237 18.3381C139.237 18.7812 139.155 19.1723 138.992 19.5114C138.83 19.8485 138.603 20.1127 138.313 20.304C138.026 20.4953 137.693 20.5909 137.316 20.5909ZM137.316 20.1278C137.619 20.1278 137.876 20.0464 138.086 19.8835C138.296 19.7206 138.455 19.5038 138.563 19.233C138.673 18.9621 138.728 18.6638 138.728 18.3381C138.728 18.0123 138.673 17.7131 138.563 17.4403C138.455 17.1676 138.296 16.9489 138.086 16.7841C137.876 16.6193 137.619 16.5369 137.316 16.5369C137.015 16.5369 136.759 16.6193 136.546 16.7841C136.336 16.9489 136.176 17.1676 136.066 17.4403C135.958 17.7131 135.904 18.0123 135.904 18.3381C135.904 18.6638 135.958 18.9621 136.066 19.233C136.176 19.5038 136.336 19.7206 136.546 19.8835C136.757 20.0464 137.013 20.1278 137.316 20.1278ZM141.918 20.5909C141.56 20.5909 141.246 20.4962 140.977 20.3068C140.709 20.1174 140.498 19.8532 140.347 19.5142C140.197 19.1752 140.122 18.7803 140.122 18.3295C140.122 17.8807 140.197 17.4877 140.347 17.1506C140.498 16.8116 140.71 16.5483 140.98 16.3608C141.251 16.1714 141.567 16.0767 141.926 16.0767C142.192 16.0767 142.412 16.1241 142.588 16.2188C142.764 16.3116 142.906 16.4271 143.012 16.5653C143.118 16.7036 143.2 16.8381 143.259 16.9688H143.304V14.6818H143.813V20.5H143.318V19.6903H143.259C143.2 19.8229 143.117 19.9593 143.009 20.0994C142.901 20.2377 142.758 20.3542 142.58 20.4489C142.404 20.5436 142.183 20.5909 141.918 20.5909ZM141.977 20.1278C142.26 20.1278 142.5 20.0511 142.699 19.8977C142.898 19.7424 143.049 19.5294 143.154 19.2585C143.26 18.9858 143.313 18.6733 143.313 18.321C143.313 17.9725 143.261 17.6648 143.156 17.3977C143.052 17.1288 142.901 16.9186 142.702 16.767C142.503 16.6136 142.262 16.5369 141.977 16.5369C141.686 16.5369 141.44 16.6165 141.239 16.7756C141.04 16.9328 140.888 17.1458 140.784 17.4148C140.682 17.6837 140.631 17.9858 140.631 18.321C140.631 18.66 140.683 18.9659 140.787 19.2386C140.891 19.5114 141.043 19.7282 141.242 19.8892C141.442 20.0483 141.688 20.1278 141.977 20.1278ZM148.026 18.8324V16.1364H148.531V20.5H148.026V19.7756H147.986C147.884 19.9991 147.722 20.1856 147.5 20.3352C147.279 20.483 147.008 20.5568 146.688 20.5568C146.409 20.5568 146.162 20.4962 145.946 20.375C145.73 20.2519 145.561 20.072 145.438 19.8352C145.315 19.5985 145.253 19.3078 145.253 18.9631V16.1364H145.759V18.9318C145.759 19.2727 145.859 19.5473 146.06 19.7557C146.261 19.9621 146.518 20.0653 146.833 20.0653C147.03 20.0653 147.219 20.018 147.401 19.9233C147.583 19.8286 147.732 19.6903 147.85 19.5085C147.967 19.3248 148.026 19.0994 148.026 18.8324ZM151.575 20.5909C151.185 20.5909 150.845 20.4934 150.555 20.2983C150.267 20.1032 150.044 19.8362 149.884 19.4972C149.725 19.1581 149.646 18.7718 149.646 18.3381C149.646 17.9006 149.726 17.5114 149.887 17.1705C150.05 16.8295 150.276 16.5625 150.563 16.3693C150.851 16.1742 151.186 16.0767 151.566 16.0767C151.858 16.0767 152.122 16.1335 152.359 16.2472C152.596 16.3589 152.791 16.517 152.944 16.7216C153.099 16.9242 153.197 17.161 153.237 17.4318H152.725C152.672 17.1856 152.544 16.9754 152.342 16.8011C152.141 16.625 151.885 16.5369 151.575 16.5369C151.296 16.5369 151.05 16.6127 150.836 16.7642C150.622 16.9138 150.455 17.1231 150.333 17.392C150.214 17.6591 150.154 17.9687 150.154 18.321C150.154 18.6752 150.213 18.9886 150.33 19.2614C150.448 19.5322 150.613 19.7443 150.825 19.8977C151.039 20.0511 151.289 20.1278 151.575 20.1278C151.768 20.1278 151.944 20.0919 152.103 20.0199C152.264 19.946 152.399 19.8419 152.507 19.7074C152.616 19.5729 152.69 19.4129 152.728 19.2273H153.24C153.202 19.4905 153.108 19.7254 152.958 19.9318C152.811 20.1364 152.618 20.2973 152.382 20.4148C152.147 20.5322 151.878 20.5909 151.575 20.5909ZM156.042 16.1364V16.5767H153.96V16.1364H156.042ZM154.61 15.0909H155.119V19.3608C155.119 19.5426 155.15 19.6856 155.213 19.7898C155.275 19.892 155.357 19.965 155.457 20.0085C155.557 20.0502 155.664 20.071 155.778 20.071C155.844 20.071 155.901 20.0672 155.948 20.0597C155.996 20.0502 156.037 20.0407 156.073 20.0312L156.181 20.4886C156.132 20.5076 156.071 20.5246 156 20.5398C155.928 20.5568 155.839 20.5653 155.732 20.5653C155.547 20.5653 155.368 20.5246 155.196 20.4432C155.025 20.3617 154.885 20.2405 154.775 20.0795C154.665 19.9186 154.61 19.7188 154.61 19.4801V15.0909ZM160.044 17.0938L159.581 17.2244C159.536 17.0937 159.471 16.9754 159.388 16.8693C159.305 16.7633 159.196 16.679 159.061 16.6165C158.929 16.554 158.764 16.5227 158.567 16.5227C158.272 16.5227 158.029 16.5928 157.84 16.733C157.65 16.8731 157.556 17.054 157.556 17.2756C157.556 17.4631 157.62 17.6155 157.749 17.733C157.879 17.8485 158.08 17.9403 158.351 18.0085L159.01 18.1705C159.376 18.2595 159.649 18.4006 159.831 18.5938C160.015 18.7869 160.107 19.0294 160.107 19.321C160.107 19.5672 160.039 19.786 159.902 19.9773C159.766 20.1686 159.576 20.3191 159.331 20.429C159.089 20.5369 158.808 20.5909 158.487 20.5909C158.061 20.5909 157.71 20.4953 157.433 20.304C157.157 20.1108 156.98 19.8324 156.902 19.4688L157.388 19.3494C157.451 19.6089 157.573 19.8049 157.754 19.9375C157.938 20.0701 158.18 20.1364 158.479 20.1364C158.814 20.1364 159.082 20.0616 159.283 19.9119C159.484 19.7604 159.584 19.571 159.584 19.3438C159.584 19.1676 159.525 19.0199 159.408 18.9006C159.29 18.7794 159.112 18.6903 158.874 18.6335L158.161 18.4631C157.782 18.3722 157.502 18.2282 157.32 18.0312C157.138 17.8343 157.047 17.59 157.047 17.2983C157.047 17.0578 157.112 16.8466 157.243 16.6648C157.374 16.4811 157.554 16.3371 157.783 16.233C158.012 16.1288 158.273 16.0767 158.567 16.0767C158.967 16.0767 159.286 16.1676 159.524 16.3494C159.765 16.5294 159.938 16.7775 160.044 17.0938ZM163.103 14.4091L161.228 21.375H160.754L162.629 14.4091H163.103Z" fill="black"/>
</svg>
