<svg width="109" height="37" viewBox="0 0 109 37" fill="none" xmlns="http://www.w3.org/2000/svg">
<path d="M5.77 13.3928C5.84333 13.3928 5.90833 13.4211 5.965 13.4778L6.495 14.0528C6.20167 14.4161 5.84 14.6944 5.41 14.8878C4.98333 15.0811 4.47 15.1778 3.87 15.1778C3.33333 15.1778 2.85 15.0861 2.42 14.9028C1.99333 14.7194 1.62833 14.4644 1.325 14.1378C1.02167 13.8111 0.788333 13.4211 0.625 12.9678C0.465 12.5144 0.385 12.0194 0.385 11.4828C0.385 10.9394 0.471667 10.4428 0.645 9.99278C0.818333 9.53944 1.06167 9.14944 1.375 8.82278C1.69167 8.49611 2.06833 8.24278 2.505 8.06278C2.94167 7.87944 3.425 7.78778 3.955 7.78778C4.48167 7.78778 4.94833 7.87444 5.355 8.04778C5.765 8.22111 6.11333 8.44778 6.4 8.72778L5.95 9.35278C5.92333 9.39278 5.88833 9.42778 5.845 9.45778C5.805 9.48778 5.74833 9.50278 5.675 9.50278C5.625 9.50278 5.57333 9.48944 5.52 9.46278C5.46667 9.43278 5.40833 9.39778 5.345 9.35778C5.28167 9.31444 5.20833 9.26778 5.125 9.21778C5.04167 9.16778 4.945 9.12278 4.835 9.08278C4.725 9.03944 4.59667 9.00444 4.45 8.97778C4.30667 8.94778 4.14 8.93278 3.95 8.93278C3.62667 8.93278 3.33 8.99111 3.06 9.10778C2.79333 9.22111 2.56333 9.38778 2.37 9.60778C2.17667 9.82444 2.02667 10.0911 1.92 10.4078C1.81333 10.7211 1.76 11.0794 1.76 11.4828C1.76 11.8894 1.81667 12.2511 1.93 12.5678C2.04667 12.8844 2.20333 13.1511 2.4 13.3678C2.59667 13.5844 2.82833 13.7511 3.095 13.8678C3.36167 13.9811 3.64833 14.0378 3.955 14.0378C4.13833 14.0378 4.30333 14.0278 4.45 14.0078C4.6 13.9878 4.73667 13.9561 4.86 13.9128C4.98667 13.8694 5.105 13.8144 5.215 13.7478C5.32833 13.6778 5.44 13.5928 5.55 13.4928C5.58333 13.4628 5.61833 13.4394 5.655 13.4228C5.69167 13.4028 5.73 13.3928 5.77 13.3928ZM9.93133 12.9078C9.57466 12.9244 9.27466 12.9561 9.03133 13.0028C8.78799 13.0461 8.59299 13.1028 8.44633 13.1728C8.29966 13.2428 8.19466 13.3244 8.13133 13.4178C8.06799 13.5111 8.03633 13.6128 8.03633 13.7228C8.03633 13.9394 8.09966 14.0944 8.22633 14.1878C8.35633 14.2811 8.52466 14.3278 8.73133 14.3278C8.98466 14.3278 9.20299 14.2828 9.38633 14.1928C9.57299 14.0994 9.75466 13.9594 9.93133 13.7728V12.9078ZM7.10133 10.6828C7.69133 10.1428 8.40133 9.87278 9.23133 9.87278C9.53133 9.87278 9.79966 9.92278 10.0363 10.0228C10.273 10.1194 10.473 10.2561 10.6363 10.4328C10.7997 10.6061 10.923 10.8144 11.0063 11.0578C11.093 11.3011 11.1363 11.5678 11.1363 11.8578V15.0978H10.5763C10.4597 15.0978 10.3697 15.0811 10.3063 15.0478C10.243 15.0111 10.193 14.9394 10.1563 14.8328L10.0463 14.4628C9.91633 14.5794 9.78966 14.6828 9.66633 14.7728C9.54299 14.8594 9.41466 14.9328 9.28133 14.9928C9.14799 15.0528 9.00466 15.0978 8.85133 15.1278C8.70133 15.1611 8.53466 15.1778 8.35133 15.1778C8.13466 15.1778 7.93466 15.1494 7.75133 15.0928C7.56799 15.0328 7.40966 14.9444 7.27633 14.8278C7.14299 14.7111 7.03966 14.5661 6.96633 14.3928C6.89299 14.2194 6.85633 14.0178 6.85633 13.7878C6.85633 13.6578 6.87799 13.5294 6.92133 13.4028C6.96466 13.2728 7.03466 13.1494 7.13133 13.0328C7.23133 12.9161 7.35966 12.8061 7.51633 12.7028C7.67299 12.5994 7.86466 12.5094 8.09133 12.4328C8.32133 12.3561 8.58799 12.2944 8.89133 12.2478C9.19466 12.1978 9.54133 12.1678 9.93133 12.1578V11.8578C9.93133 11.5144 9.85799 11.2611 9.71133 11.0978C9.56466 10.9311 9.35299 10.8478 9.07633 10.8478C8.87633 10.8478 8.70966 10.8711 8.57633 10.9178C8.44633 10.9644 8.33133 11.0178 8.23133 11.0778C8.13133 11.1344 8.03966 11.1861 7.95633 11.2328C7.87633 11.2794 7.78633 11.3028 7.68633 11.3028C7.59966 11.3028 7.52633 11.2811 7.46633 11.2378C7.40633 11.1911 7.35799 11.1378 7.32133 11.0778L7.10133 10.6828ZM13.4645 10.8578C13.6245 10.5511 13.8145 10.3111 14.0345 10.1378C14.2545 9.96111 14.5145 9.87278 14.8145 9.87278C15.0511 9.87278 15.2411 9.92444 15.3845 10.0278L15.3045 10.9528C15.2878 11.0128 15.2628 11.0561 15.2295 11.0828C15.1995 11.1061 15.1578 11.1178 15.1045 11.1178C15.0545 11.1178 14.9795 11.1094 14.8795 11.0928C14.7828 11.0761 14.6878 11.0678 14.5945 11.0678C14.4578 11.0678 14.3361 11.0878 14.2295 11.1278C14.1228 11.1678 14.0261 11.2261 13.9395 11.3028C13.8561 11.3761 13.7811 11.4661 13.7145 11.5728C13.6511 11.6794 13.5911 11.8011 13.5345 11.9378V15.0978H12.2995V9.96778H13.0245C13.1511 9.96778 13.2395 9.99111 13.2895 10.0378C13.3395 10.0811 13.3728 10.1611 13.3895 10.2778L13.4645 10.8578ZM17.7399 15.1778C17.2933 15.1778 16.9499 15.0528 16.7099 14.8028C16.4733 14.5494 16.3549 14.2011 16.3549 13.7578V10.8928H15.8299C15.7633 10.8928 15.7066 10.8711 15.6599 10.8278C15.6133 10.7844 15.5899 10.7194 15.5899 10.6328V10.1428L16.4149 10.0078L16.6749 8.60778C16.6916 8.54111 16.7233 8.48944 16.7699 8.45278C16.8166 8.41611 16.8766 8.39778 16.9499 8.39778H17.5899V10.0128H18.9599V10.8928H17.5899V13.6728C17.5899 13.8328 17.6283 13.9578 17.7049 14.0478C17.7849 14.1378 17.8933 14.1828 18.0299 14.1828C18.1066 14.1828 18.1699 14.1744 18.2199 14.1578C18.2733 14.1378 18.3183 14.1178 18.3549 14.0978C18.3949 14.0778 18.4299 14.0594 18.4599 14.0428C18.4899 14.0228 18.5199 14.0128 18.5499 14.0128C18.5866 14.0128 18.6166 14.0228 18.6399 14.0428C18.6633 14.0594 18.6883 14.0861 18.7149 14.1228L19.0849 14.7228C18.9049 14.8728 18.6983 14.9861 18.4649 15.0628C18.2316 15.1394 17.9899 15.1778 17.7399 15.1778ZM21.9816 9.88778C22.3616 9.88778 22.7066 9.94944 23.0166 10.0728C23.3299 10.1961 23.5966 10.3711 23.8166 10.5978C24.0399 10.8244 24.2116 11.1011 24.3316 11.4278C24.4516 11.7544 24.5116 12.1194 24.5116 12.5228C24.5116 12.9294 24.4516 13.2961 24.3316 13.6228C24.2116 13.9494 24.0399 14.2278 23.8166 14.4578C23.5966 14.6878 23.3299 14.8644 23.0166 14.9878C22.7066 15.1111 22.3616 15.1728 21.9816 15.1728C21.5982 15.1728 21.2499 15.1111 20.9366 14.9878C20.6232 14.8644 20.3549 14.6878 20.1316 14.4578C19.9116 14.2278 19.7399 13.9494 19.6166 13.6228C19.4966 13.2961 19.4366 12.9294 19.4366 12.5228C19.4366 12.1194 19.4966 11.7544 19.6166 11.4278C19.7399 11.1011 19.9116 10.8244 20.1316 10.5978C20.3549 10.3711 20.6232 10.1961 20.9366 10.0728C21.2499 9.94944 21.5982 9.88778 21.9816 9.88778ZM21.9816 14.2228C22.4082 14.2228 22.7232 14.0794 22.9266 13.7928C23.1332 13.5061 23.2366 13.0861 23.2366 12.5328C23.2366 11.9794 23.1332 11.5578 22.9266 11.2678C22.7232 10.9778 22.4082 10.8328 21.9816 10.8328C21.5482 10.8328 21.2266 10.9794 21.0166 11.2728C20.8099 11.5628 20.7066 11.9828 20.7066 12.5328C20.7066 13.0828 20.8099 13.5028 21.0166 13.7928C21.2266 14.0794 21.5482 14.2228 21.9816 14.2228ZM26.6088 10.5978C26.7121 10.4944 26.8204 10.3994 26.9338 10.3128C27.0504 10.2228 27.1721 10.1478 27.2988 10.0878C27.4288 10.0244 27.5671 9.97611 27.7138 9.94278C27.8604 9.90611 28.0204 9.88778 28.1938 9.88778C28.4738 9.88778 28.7221 9.93611 28.9388 10.0328C29.1554 10.1261 29.3354 10.2594 29.4788 10.4328C29.6254 10.6028 29.7354 10.8078 29.8088 11.0478C29.8854 11.2844 29.9238 11.5461 29.9238 11.8328V15.0978H28.6888V11.8328C28.6888 11.5194 28.6171 11.2778 28.4738 11.1078C28.3304 10.9344 28.1121 10.8478 27.8188 10.8478C27.6054 10.8478 27.4054 10.8961 27.2188 10.9928C27.0321 11.0894 26.8554 11.2211 26.6888 11.3878V15.0978H25.4538V9.96778H26.2088C26.3688 9.96778 26.4738 10.0428 26.5238 10.1928L26.6088 10.5978ZM43.2766 7.86778L41.0316 15.0978H39.8166L38.2366 10.1578C38.1932 10.0378 38.1532 9.89111 38.1166 9.71778C38.0966 9.80111 38.0766 9.87944 38.0566 9.95278C38.0366 10.0261 38.0149 10.0944 37.9916 10.1578L36.3966 15.0978H35.1766L32.9366 7.86778H34.0616C34.1782 7.86778 34.2749 7.89611 34.3516 7.95278C34.4316 8.00611 34.4849 8.07944 34.5116 8.17278L35.7416 12.4978C35.7682 12.6044 35.7932 12.7211 35.8166 12.8478C35.8432 12.9711 35.8699 13.1011 35.8966 13.2378C35.9232 13.0978 35.9516 12.9661 35.9816 12.8428C36.0149 12.7194 36.0499 12.6044 36.0866 12.4978L37.5066 8.17278C37.5332 8.09611 37.5849 8.02611 37.6616 7.96278C37.7416 7.89944 37.8382 7.86778 37.9516 7.86778H38.3466C38.4632 7.86778 38.5582 7.89611 38.6316 7.95278C38.7049 8.00944 38.7599 8.08278 38.7966 8.17278L40.2116 12.4978C40.2816 12.7044 40.3449 12.9428 40.4016 13.2128C40.4449 12.9494 40.4932 12.7111 40.5466 12.4978L41.7766 8.17278C41.7966 8.08944 41.8466 8.01778 41.9266 7.95778C42.0099 7.89778 42.1082 7.86778 42.2216 7.86778H43.2766ZM46.6689 11.9428C46.6689 11.7828 46.6456 11.6328 46.5989 11.4928C46.5556 11.3494 46.4889 11.2244 46.3989 11.1178C46.3089 11.0111 46.1939 10.9278 46.0539 10.8678C45.9172 10.8044 45.7572 10.7728 45.5739 10.7728C45.2172 10.7728 44.9356 10.8744 44.7289 11.0778C44.5256 11.2811 44.3956 11.5694 44.3389 11.9428H46.6689ZM44.3139 12.6878C44.3339 12.9511 44.3806 13.1794 44.4539 13.3728C44.5272 13.5628 44.6239 13.7211 44.7439 13.8478C44.8639 13.9711 45.0056 14.0644 45.1689 14.1278C45.3356 14.1878 45.5189 14.2178 45.7189 14.2178C45.9189 14.2178 46.0906 14.1944 46.2339 14.1478C46.3806 14.1011 46.5072 14.0494 46.6139 13.9928C46.7239 13.9361 46.8189 13.8844 46.8989 13.8378C46.9822 13.7911 47.0622 13.7678 47.1389 13.7678C47.2422 13.7678 47.3189 13.8061 47.3689 13.8828L47.7239 14.3328C47.5872 14.4928 47.4339 14.6278 47.2639 14.7378C47.0939 14.8444 46.9156 14.9311 46.7289 14.9978C46.5456 15.0611 46.3572 15.1061 46.1639 15.1328C45.9739 15.1594 45.7889 15.1728 45.6089 15.1728C45.2522 15.1728 44.9206 15.1144 44.6139 14.9978C44.3072 14.8778 44.0406 14.7028 43.8139 14.4728C43.5872 14.2394 43.4089 13.9528 43.2789 13.6128C43.1489 13.2694 43.0839 12.8728 43.0839 12.4228C43.0839 12.0728 43.1406 11.7444 43.2539 11.4378C43.3672 11.1278 43.5289 10.8594 43.7389 10.6328C43.9522 10.4028 44.2106 10.2211 44.5139 10.0878C44.8206 9.95444 45.1656 9.88778 45.5489 9.88778C45.8722 9.88778 46.1706 9.93944 46.4439 10.0428C46.7172 10.1461 46.9522 10.2978 47.1489 10.4978C47.3456 10.6944 47.4989 10.9378 47.6089 11.2278C47.7222 11.5144 47.7789 11.8428 47.7789 12.2128C47.7789 12.3994 47.7589 12.5261 47.7189 12.5928C47.6789 12.6561 47.6022 12.6878 47.4889 12.6878H44.3139ZM49.9857 9.96778V15.0978H48.7457V9.96778H49.9857ZM50.1557 8.47278C50.1557 8.57944 50.134 8.67944 50.0907 8.77278C50.0474 8.86611 49.989 8.94778 49.9157 9.01778C49.8457 9.08778 49.7624 9.14444 49.6657 9.18778C49.569 9.22778 49.4657 9.24778 49.3557 9.24778C49.249 9.24778 49.1474 9.22778 49.0507 9.18778C48.9574 9.14444 48.8757 9.08778 48.8057 9.01778C48.7357 8.94778 48.679 8.86611 48.6357 8.77278C48.5957 8.67944 48.5757 8.57944 48.5757 8.47278C48.5757 8.36278 48.5957 8.25944 48.6357 8.16278C48.679 8.06611 48.7357 7.98278 48.8057 7.91278C48.8757 7.84278 48.9574 7.78778 49.0507 7.74778C49.1474 7.70444 49.249 7.68278 49.3557 7.68278C49.4657 7.68278 49.569 7.70444 49.6657 7.74778C49.7624 7.78778 49.8457 7.84278 49.9157 7.91278C49.989 7.98278 50.0474 8.06611 50.0907 8.16278C50.134 8.25944 50.1557 8.36278 50.1557 8.47278ZM53.1198 12.4078C53.2731 12.4078 53.4064 12.3878 53.5198 12.3478C53.6331 12.3044 53.7264 12.2461 53.7998 12.1728C53.8764 12.0994 53.9331 12.0111 53.9698 11.9078C54.0098 11.8044 54.0298 11.6911 54.0298 11.5678C54.0298 11.3144 53.9531 11.1144 53.7998 10.9678C53.6498 10.8178 53.4231 10.7428 53.1198 10.7428C52.8164 10.7428 52.5881 10.8178 52.4348 10.9678C52.2848 11.1144 52.2098 11.3144 52.2098 11.5678C52.2098 11.6878 52.2281 11.7994 52.2648 11.9028C52.3048 12.0061 52.3614 12.0961 52.4348 12.1728C52.5114 12.2461 52.6064 12.3044 52.7198 12.3478C52.8364 12.3878 52.9698 12.4078 53.1198 12.4078ZM54.5148 15.3278C54.5148 15.2278 54.4848 15.1461 54.4248 15.0828C54.3648 15.0194 54.2831 14.9711 54.1798 14.9378C54.0764 14.9011 53.9548 14.8744 53.8148 14.8578C53.6781 14.8411 53.5314 14.8294 53.3748 14.8228C53.2214 14.8128 53.0614 14.8044 52.8948 14.7978C52.7314 14.7911 52.5714 14.7778 52.4148 14.7578C52.2781 14.8344 52.1664 14.9244 52.0798 15.0278C51.9964 15.1311 51.9548 15.2511 51.9548 15.3878C51.9548 15.4778 51.9764 15.5611 52.0198 15.6378C52.0664 15.7178 52.1381 15.7861 52.2348 15.8428C52.3348 15.8994 52.4631 15.9428 52.6198 15.9728C52.7764 16.0061 52.9681 16.0228 53.1948 16.0228C53.4248 16.0228 53.6231 16.0044 53.7898 15.9678C53.9564 15.9344 54.0931 15.8861 54.1998 15.8228C54.3098 15.7628 54.3898 15.6894 54.4398 15.6028C54.4898 15.5194 54.5148 15.4278 54.5148 15.3278ZM55.7448 10.1428V10.6028C55.7448 10.7494 55.6564 10.8394 55.4798 10.8728L55.0198 10.9578C55.0898 11.1344 55.1248 11.3278 55.1248 11.5378C55.1248 11.7911 55.0731 12.0211 54.9698 12.2278C54.8698 12.4311 54.7298 12.6044 54.5498 12.7478C54.3698 12.8911 54.1564 13.0028 53.9098 13.0828C53.6664 13.1594 53.4031 13.1978 53.1198 13.1978C53.0198 13.1978 52.9231 13.1928 52.8298 13.1828C52.7364 13.1728 52.6448 13.1594 52.5548 13.1428C52.3948 13.2394 52.3148 13.3478 52.3148 13.4678C52.3148 13.5711 52.3614 13.6478 52.4548 13.6978C52.5514 13.7444 52.6781 13.7778 52.8348 13.7978C52.9914 13.8178 53.1698 13.8311 53.3698 13.8378C53.5698 13.8411 53.7748 13.8511 53.9848 13.8678C54.1948 13.8844 54.3998 13.9144 54.5998 13.9578C54.7998 13.9978 54.9781 14.0628 55.1348 14.1528C55.2914 14.2428 55.4164 14.3661 55.5098 14.5228C55.6064 14.6761 55.6548 14.8744 55.6548 15.1178C55.6548 15.3444 55.5981 15.5644 55.4848 15.7778C55.3748 15.9911 55.2131 16.1811 54.9998 16.3478C54.7898 16.5144 54.5298 16.6478 54.2198 16.7478C53.9131 16.8511 53.5631 16.9028 53.1698 16.9028C52.7831 16.9028 52.4464 16.8644 52.1598 16.7878C51.8731 16.7144 51.6348 16.6144 51.4448 16.4878C51.2548 16.3644 51.1131 16.2211 51.0198 16.0578C50.9264 15.8944 50.8798 15.7244 50.8798 15.5478C50.8798 15.3078 50.9514 15.1078 51.0948 14.9478C51.2414 14.7844 51.4414 14.6544 51.6948 14.5578C51.5581 14.4878 51.4498 14.3944 51.3698 14.2778C51.2898 14.1611 51.2498 14.0078 51.2498 13.8178C51.2498 13.7411 51.2631 13.6628 51.2898 13.5828C51.3198 13.4994 51.3614 13.4178 51.4148 13.3378C51.4714 13.2578 51.5414 13.1828 51.6248 13.1128C51.7081 13.0394 51.8064 12.9744 51.9198 12.9178C51.6598 12.7778 51.4548 12.5911 51.3048 12.3578C51.1581 12.1244 51.0848 11.8511 51.0848 11.5378C51.0848 11.2844 51.1348 11.0561 51.2348 10.8528C51.3381 10.6461 51.4798 10.4711 51.6598 10.3278C51.8431 10.1811 52.0581 10.0694 52.3048 9.99278C52.5548 9.91611 52.8264 9.87778 53.1198 9.87778C53.3398 9.87778 53.5464 9.90111 53.7398 9.94778C53.9331 9.99111 54.1098 10.0561 54.2698 10.1428H55.7448ZM57.763 10.5178C57.963 10.3311 58.183 10.1794 58.423 10.0628C58.663 9.94611 58.9446 9.88778 59.268 9.88778C59.548 9.88778 59.7963 9.93611 60.013 10.0328C60.2296 10.1261 60.4096 10.2594 60.553 10.4328C60.6996 10.6028 60.8096 10.8078 60.883 11.0478C60.9596 11.2844 60.998 11.5461 60.998 11.8328V15.0978H59.763V11.8328C59.763 11.5194 59.6913 11.2778 59.548 11.1078C59.4046 10.9344 59.1863 10.8478 58.893 10.8478C58.6796 10.8478 58.4796 10.8961 58.293 10.9928C58.1063 11.0894 57.9296 11.2211 57.763 11.3878V15.0978H56.528V7.66778H57.763V10.5178ZM63.8141 15.1778C63.3675 15.1778 63.0241 15.0528 62.7841 14.8028C62.5475 14.5494 62.4291 14.2011 62.4291 13.7578V10.8928H61.9041C61.8375 10.8928 61.7808 10.8711 61.7341 10.8278C61.6875 10.7844 61.6641 10.7194 61.6641 10.6328V10.1428L62.4891 10.0078L62.7491 8.60778C62.7658 8.54111 62.7975 8.48944 62.8441 8.45278C62.8908 8.41611 62.9508 8.39778 63.0241 8.39778H63.6641V10.0128H65.0341V10.8928H63.6641V13.6728C63.6641 13.8328 63.7025 13.9578 63.7791 14.0478C63.8591 14.1378 63.9675 14.1828 64.1041 14.1828C64.1808 14.1828 64.2441 14.1744 64.2941 14.1578C64.3475 14.1378 64.3925 14.1178 64.4291 14.0978C64.4691 14.0778 64.5041 14.0594 64.5341 14.0428C64.5641 14.0228 64.5941 14.0128 64.6241 14.0128C64.6608 14.0128 64.6908 14.0228 64.7141 14.0428C64.7375 14.0594 64.7625 14.0861 64.7891 14.1228L65.1591 14.7228C64.9791 14.8728 64.7725 14.9861 64.5391 15.0628C64.3058 15.1394 64.0641 15.1778 63.8141 15.1778Z" fill="white"/>
<path d="M28.408 27.8183C29.0853 27.2743 29.616 26.829 30 26.4823C30.384 26.1303 30.7067 25.765 30.968 25.3863C31.2347 25.0023 31.368 24.6263 31.368 24.2583C31.368 23.9117 31.2827 23.6397 31.112 23.4423C30.9467 23.2397 30.6773 23.1383 30.304 23.1383C29.9413 23.1383 29.6587 23.253 29.456 23.4823C29.2587 23.7063 29.152 24.0077 29.136 24.3863H28.432C28.4533 23.789 28.6347 23.3277 28.976 23.0023C29.3173 22.677 29.7573 22.5143 30.296 22.5143C30.8453 22.5143 31.28 22.6663 31.6 22.9703C31.9253 23.2743 32.088 23.693 32.088 24.2263C32.088 24.669 31.9547 25.101 31.688 25.5223C31.4267 25.9383 31.128 26.3063 30.792 26.6263C30.456 26.941 30.0267 27.309 29.504 27.7303H32.256V28.3383H28.408V27.8183ZM33.4496 28.4503C33.3109 28.4503 33.1936 28.4023 33.0976 28.3063C33.0016 28.2103 32.9536 28.093 32.9536 27.9543C32.9536 27.8157 33.0016 27.6983 33.0976 27.6023C33.1936 27.5063 33.3109 27.4583 33.4496 27.4583C33.5829 27.4583 33.6949 27.5063 33.7856 27.6023C33.8816 27.6983 33.9296 27.8157 33.9296 27.9543C33.9296 28.093 33.8816 28.2103 33.7856 28.3063C33.6949 28.4023 33.5829 28.4503 33.4496 28.4503ZM34.7773 25.4503C34.7773 24.533 34.9266 23.8183 35.2253 23.3063C35.5239 22.789 36.0466 22.5303 36.7933 22.5303C37.5346 22.5303 38.0546 22.789 38.3533 23.3063C38.6519 23.8183 38.8012 24.533 38.8012 25.4503C38.8012 26.3837 38.6519 27.109 38.3533 27.6263C38.0546 28.1437 37.5346 28.4023 36.7933 28.4023C36.0466 28.4023 35.5239 28.1437 35.2253 27.6263C34.9266 27.109 34.7773 26.3837 34.7773 25.4503ZM38.0813 25.4503C38.0813 24.9863 38.0493 24.5943 37.9853 24.2743C37.9266 23.949 37.8013 23.6877 37.6093 23.4903C37.4226 23.293 37.1506 23.1943 36.7933 23.1943C36.4306 23.1943 36.1533 23.293 35.9613 23.4903C35.7746 23.6877 35.6493 23.949 35.5853 24.2743C35.5266 24.5943 35.4973 24.9863 35.4973 25.4503C35.4973 25.9303 35.5266 26.333 35.5853 26.6583C35.6493 26.9837 35.7746 27.245 35.9613 27.4423C36.1533 27.6397 36.4306 27.7383 36.7933 27.7383C37.1506 27.7383 37.4226 27.6397 37.6093 27.4423C37.8013 27.245 37.9266 26.9837 37.9853 26.6583C38.0493 26.333 38.0813 25.9303 38.0813 25.4503ZM39.8007 25.4503C39.8007 24.533 39.95 23.8183 40.2487 23.3063C40.5474 22.789 41.07 22.5303 41.8167 22.5303C42.558 22.5303 43.078 22.789 43.3767 23.3063C43.6754 23.8183 43.8247 24.533 43.8247 25.4503C43.8247 26.3837 43.6754 27.109 43.3767 27.6263C43.078 28.1437 42.558 28.4023 41.8167 28.4023C41.07 28.4023 40.5474 28.1437 40.2487 27.6263C39.95 27.109 39.8007 26.3837 39.8007 25.4503ZM43.1047 25.4503C43.1047 24.9863 43.0727 24.5943 43.0087 24.2743C42.95 23.949 42.8247 23.6877 42.6327 23.4903C42.446 23.293 42.174 23.1943 41.8167 23.1943C41.454 23.1943 41.1767 23.293 40.9847 23.4903C40.798 23.6877 40.6727 23.949 40.6087 24.2743C40.55 24.5943 40.5207 24.9863 40.5207 25.4503C40.5207 25.9303 40.55 26.333 40.6087 26.6583C40.6727 26.9837 40.798 27.245 40.9847 27.4423C41.1767 27.6397 41.454 27.7383 41.8167 27.7383C42.174 27.7383 42.446 27.6397 42.6327 27.4423C42.8247 27.245 42.95 26.9837 43.0087 26.6583C43.0727 26.333 43.1047 25.9303 43.1047 25.4503ZM44.8241 25.4503C44.8241 24.533 44.9735 23.8183 45.2721 23.3063C45.5708 22.789 46.0935 22.5303 46.8401 22.5303C47.5815 22.5303 48.1015 22.789 48.4001 23.3063C48.6988 23.8183 48.8481 24.533 48.8481 25.4503C48.8481 26.3837 48.6988 27.109 48.4001 27.6263C48.1015 28.1437 47.5815 28.4023 46.8401 28.4023C46.0935 28.4023 45.5708 28.1437 45.2721 27.6263C44.9735 27.109 44.8241 26.3837 44.8241 25.4503ZM48.1281 25.4503C48.1281 24.9863 48.0961 24.5943 48.0321 24.2743C47.9735 23.949 47.8481 23.6877 47.6561 23.4903C47.4695 23.293 47.1975 23.1943 46.8401 23.1943C46.4775 23.1943 46.2001 23.293 46.0081 23.4903C45.8215 23.6877 45.6961 23.949 45.6321 24.2743C45.5735 24.5943 45.5441 24.9863 45.5441 25.4503C45.5441 25.9303 45.5735 26.333 45.6321 26.6583C45.6961 26.9837 45.8215 27.245 46.0081 27.4423C46.2001 27.6397 46.4775 27.7383 46.8401 27.7383C47.1975 27.7383 47.4695 27.6397 47.6561 27.4423C47.8481 27.245 47.9735 26.9837 48.0321 26.6583C48.0961 26.333 48.1281 25.9303 48.1281 25.4503ZM54.5484 28.4023L52.8284 26.4663V28.4023H52.1004V22.4823H52.8284V25.9623L54.5164 24.0183H55.5324L53.4684 26.2023L55.5404 28.4023H54.5484ZM58.0256 23.9463C58.4042 23.9463 58.7349 24.029 59.0176 24.1943C59.3056 24.3597 59.5189 24.5677 59.6576 24.8183V24.0183H60.3936V28.4983C60.3936 28.8983 60.3082 29.253 60.1376 29.5623C59.9669 29.877 59.7216 30.1223 59.4016 30.2983C59.0869 30.4743 58.7189 30.5623 58.2976 30.5623C57.7216 30.5623 57.2416 30.4263 56.8576 30.1543C56.4736 29.8823 56.2469 29.5117 56.1776 29.0423H56.8976C56.9776 29.309 57.1429 29.5223 57.3936 29.6823C57.6442 29.8477 57.9456 29.9303 58.2976 29.9303C58.6976 29.9303 59.0229 29.805 59.2736 29.5543C59.5296 29.3037 59.6576 28.9517 59.6576 28.4983V27.5783C59.5136 27.8343 59.3002 28.0477 59.0176 28.2183C58.7349 28.389 58.4042 28.4743 58.0256 28.4743C57.6362 28.4743 57.2816 28.3783 56.9616 28.1863C56.6469 27.9943 56.3989 27.725 56.2176 27.3783C56.0362 27.0317 55.9456 26.637 55.9456 26.1943C55.9456 25.7463 56.0362 25.3543 56.2176 25.0183C56.3989 24.677 56.6469 24.413 56.9616 24.2263C57.2816 24.0397 57.6362 23.9463 58.0256 23.9463ZM59.6576 26.2023C59.6576 25.8717 59.5909 25.5837 59.4576 25.3383C59.3242 25.093 59.1429 24.9063 58.9136 24.7783C58.6896 24.645 58.4416 24.5783 58.1696 24.5783C57.8976 24.5783 57.6496 24.6423 57.4256 24.7703C57.2016 24.8983 57.0229 25.085 56.8896 25.3303C56.7562 25.5757 56.6896 25.8637 56.6896 26.1943C56.6896 26.5303 56.7562 26.8237 56.8896 27.0743C57.0229 27.3197 57.2016 27.509 57.4256 27.6423C57.6496 27.7703 57.8976 27.8343 58.1696 27.8343C58.4416 27.8343 58.6896 27.7703 58.9136 27.6423C59.1429 27.509 59.3242 27.3197 59.4576 27.0743C59.5909 26.8237 59.6576 26.533 59.6576 26.2023ZM63.1758 28.4743C62.8398 28.4743 62.5385 28.4183 62.2718 28.3063C62.0051 28.189 61.7945 28.029 61.6398 27.8263C61.4851 27.6183 61.3998 27.381 61.3838 27.1143H62.1358C62.1571 27.333 62.2585 27.5117 62.4398 27.6503C62.6265 27.789 62.8691 27.8583 63.1678 27.8583C63.4451 27.8583 63.6638 27.797 63.8238 27.6743C63.9838 27.5517 64.0638 27.397 64.0638 27.2103C64.0638 27.0183 63.9785 26.877 63.8078 26.7863C63.6371 26.6903 63.3731 26.597 63.0158 26.5063C62.6905 26.421 62.4238 26.3357 62.2158 26.2503C62.0131 26.1597 61.8371 26.029 61.6878 25.8583C61.5438 25.6823 61.4718 25.453 61.4718 25.1703C61.4718 24.9463 61.5385 24.741 61.6718 24.5543C61.8051 24.3677 61.9945 24.221 62.2398 24.1143C62.4851 24.0023 62.7651 23.9463 63.0798 23.9463C63.5651 23.9463 63.9571 24.069 64.2558 24.3143C64.5545 24.5597 64.7145 24.8957 64.7358 25.3223H64.0078C63.9918 25.093 63.8985 24.909 63.7278 24.7703C63.5625 24.6317 63.3385 24.5623 63.0558 24.5623C62.7945 24.5623 62.5865 24.6183 62.4318 24.7303C62.2771 24.8423 62.1998 24.989 62.1998 25.1703C62.1998 25.3143 62.2451 25.4343 62.3358 25.5303C62.4318 25.621 62.5491 25.6957 62.6878 25.7543C62.8318 25.8077 63.0291 25.869 63.2798 25.9383C63.5945 26.0237 63.8505 26.109 64.0478 26.1943C64.2451 26.2743 64.4131 26.397 64.5518 26.5623C64.6958 26.7277 64.7705 26.9437 64.7758 27.2103C64.7758 27.4503 64.7091 27.6663 64.5758 27.8583C64.4425 28.0503 64.2531 28.2023 64.0078 28.3143C63.7678 28.421 63.4905 28.4743 63.1758 28.4743Z" fill="white"/>
<rect x="72" width="36.5" height="36.5" rx="18.25" fill="white" fill-opacity="0.1"/>
<path fill-rule="evenodd" clip-rule="evenodd" d="M89.7867 9.63618C89.9258 9.54926 90.0865 9.50317 90.2505 9.50317C90.4145 9.50317 90.5752 9.54926 90.7142 9.63618L96.7552 13.4118L90.2505 17.2382L83.7457 13.4118L89.7867 9.63618ZM82.3825 14.6403C82.3777 14.6777 82.3754 14.7154 82.3755 14.7532V21.7532C82.3755 21.9016 82.4132 22.0476 82.4852 22.1774C82.5571 22.3072 82.6609 22.4165 82.7867 22.4952L89.3755 26.6129V18.7537L82.3825 14.6403ZM91.1255 26.6129L97.7142 22.4952C97.8401 22.4165 97.9439 22.3072 98.0158 22.1774C98.0877 22.0476 98.1255 21.9016 98.1255 21.7532V14.7532C98.1255 14.7153 98.1232 14.6776 98.1185 14.6403L91.1255 18.7528V26.6129Z" fill="white"/>
</svg>
