<svg width="460" height="39" viewBox="0 0 460 39" fill="none" xmlns="http://www.w3.org/2000/svg">
<g filter="url(#filter0_d_811_183)">
<path d="M6.26342 31.9113L12.2995 8.48711H4.7201V4.13152H17.8897V8.07556L11.8537 31.9113H6.26342ZM28.537 32.4257C26.5021 32.4257 24.9588 32.0713 23.9071 31.3625C22.8782 30.6309 22.1809 29.6134 21.815 28.3102C21.4492 27.0069 21.2663 25.4979 21.2663 23.7831H26.7879C26.7879 24.8349 26.8451 25.6923 26.9594 26.3553C27.0737 27.0184 27.2795 27.4985 27.5768 27.7957C27.8968 28.0701 28.3427 28.1959 28.9143 28.173C29.5088 28.1501 29.9317 27.9101 30.1832 27.4528C30.4347 26.9955 30.5834 26.3439 30.6291 25.4979C30.6977 24.6291 30.732 23.5888 30.732 22.377C30.732 21.4624 30.6748 20.6507 30.5605 19.942C30.469 19.2332 30.2633 18.673 29.9432 18.2615C29.6459 17.827 29.1887 17.6098 28.5713 17.6098C27.9997 17.6098 27.531 17.8156 27.1652 18.2272C26.7994 18.6387 26.5364 19.2789 26.3764 20.1477H21.4378L21.9522 4.13152H34.9161V8.93296H26.5479L26.2392 14.6604C26.4678 14.3403 26.9023 14.0659 27.5425 13.8373C28.1826 13.5858 28.8686 13.4257 29.6002 13.3571C31.0178 13.1971 32.2067 13.46 33.167 14.1459C34.1501 14.809 34.8818 15.8264 35.3619 17.1983C35.8649 18.5701 36.1164 20.2506 36.1164 22.2398C36.1164 23.726 36.025 25.0978 35.8421 26.3553C35.6592 27.59 35.3048 28.6646 34.7789 29.5791C34.253 30.4708 33.4871 31.1682 32.4811 31.6712C31.4751 32.1742 30.1604 32.4257 28.537 32.4257ZM47.3583 32.4257C45.6892 32.4257 44.2945 32.0942 43.1742 31.4311C42.0538 30.7452 41.2079 29.8078 40.6363 28.6188C40.0647 27.4299 39.7789 26.0466 39.7789 24.469V11.8824C39.7789 10.2591 40.0418 8.8415 40.5677 7.62971C41.1164 6.39506 41.951 5.43477 43.0713 4.74885C44.1916 4.06293 45.6206 3.71997 47.3583 3.71997C49.096 3.71997 50.5135 4.06293 51.611 4.74885C52.7313 5.43477 53.5544 6.39506 54.0803 7.62971C54.629 8.8415 54.9034 10.2591 54.9034 11.8824V24.469C54.9034 26.0238 54.6176 27.4071 54.046 28.6188C53.4744 29.8078 52.6284 30.7452 51.5081 31.4311C50.3878 32.0942 49.0045 32.4257 47.3583 32.4257ZM47.3583 27.3156C47.907 27.3156 48.2957 27.1441 48.5244 26.8012C48.7759 26.4353 48.9245 26.0238 48.9702 25.5665C49.0388 25.0864 49.0731 24.6748 49.0731 24.3318V12.0196C49.0731 11.6309 49.0502 11.1965 49.0045 10.7163C48.9588 10.2133 48.8102 9.77893 48.5586 9.4131C48.33 9.02441 47.9299 8.83007 47.3583 8.83007C46.7867 8.83007 46.3751 9.02441 46.1236 9.4131C45.895 9.77893 45.7578 10.2133 45.7121 10.7163C45.6664 11.1965 45.6435 11.6309 45.6435 12.0196V24.3318C45.6435 24.6748 45.6778 25.0864 45.7464 25.5665C45.815 26.0238 45.9636 26.4353 46.1922 26.8012C46.4437 27.1441 46.8324 27.3156 47.3583 27.3156ZM59.4238 31.9113L59.9039 4.13152H66.4887L69.5411 20.2849L72.8335 4.13152H79.1782L79.6584 31.9113H75.3028L74.7884 13.4257L71.5645 31.9113H67.6891L64.2595 13.2885L63.8479 31.9113H59.4238ZM84.3604 31.9113V4.13152H90.4994V27.7614H96.8784V31.9113H84.3604ZM109.713 31.9113V4.13152H117.361C119.235 4.13152 120.859 4.3373 122.231 4.74885C123.603 5.1604 124.666 5.90348 125.42 6.97809C126.198 8.02983 126.586 9.52742 126.586 11.4709C126.586 12.6141 126.495 13.6315 126.312 14.5232C126.129 15.4149 125.786 16.1923 125.283 16.8553C124.803 17.4955 124.106 18.0328 123.191 18.4672L126.998 31.9113H120.653L117.601 19.4618H115.852V31.9113H109.713ZM115.852 15.9293H117.566C118.435 15.9293 119.11 15.7807 119.59 15.4835C120.07 15.1634 120.402 14.7175 120.584 14.1459C120.79 13.5515 120.893 12.8427 120.893 12.0196C120.893 10.8307 120.676 9.90468 120.241 9.24162C119.807 8.57857 119.007 8.24704 117.841 8.24704H115.852V15.9293ZM138.651 32.3228C136.571 32.3228 134.925 31.957 133.713 31.2253C132.501 30.4937 131.632 29.4419 131.106 28.0701C130.58 26.6983 130.318 25.0635 130.318 23.1658V12.8427C130.318 10.9221 130.58 9.28735 131.106 7.93837C131.632 6.5894 132.501 5.56052 133.713 4.85174C134.925 4.12009 136.571 3.75427 138.651 3.75427C140.755 3.75427 142.413 4.12009 143.624 4.85174C144.859 5.56052 145.739 6.5894 146.265 7.93837C146.791 9.28735 147.054 10.9221 147.054 12.8427V23.1658C147.054 25.0635 146.791 26.6983 146.265 28.0701C145.739 29.4419 144.859 30.4937 143.624 31.2253C142.413 31.957 140.755 32.3228 138.651 32.3228ZM138.651 27.9672C139.292 27.9672 139.76 27.8072 140.058 27.4871C140.355 27.167 140.549 26.7554 140.641 26.2524C140.732 25.7494 140.778 25.235 140.778 24.7091V11.3337C140.778 10.7849 140.732 10.2705 140.641 9.79036C140.549 9.28735 140.355 8.8758 140.058 8.5557C139.76 8.23561 139.292 8.07556 138.651 8.07556C138.057 8.07556 137.611 8.23561 137.314 8.5557C137.017 8.8758 136.822 9.28735 136.731 9.79036C136.639 10.2705 136.594 10.7849 136.594 11.3337V24.7091C136.594 25.235 136.628 25.7494 136.697 26.2524C136.788 26.7554 136.971 27.167 137.245 27.4871C137.543 27.8072 138.011 27.9672 138.651 27.9672ZM159.501 32.3228C157.375 32.3228 155.706 31.9798 154.494 31.2939C153.305 30.5851 152.471 29.5677 151.99 28.2416C151.51 26.8926 151.27 25.2464 151.27 23.303V4.13152H157.341V24.229C157.341 24.8006 157.386 25.3722 157.478 25.9438C157.569 26.5154 157.764 26.9841 158.061 27.3499C158.381 27.7157 158.861 27.8986 159.501 27.8986C160.164 27.8986 160.644 27.7157 160.942 27.3499C161.239 26.9841 161.422 26.5154 161.49 25.9438C161.582 25.3722 161.628 24.8006 161.628 24.229V4.13152H167.732V23.303C167.732 25.2464 167.481 26.8926 166.978 28.2416C166.498 29.5677 165.663 30.5851 164.474 31.2939C163.285 31.9798 161.628 32.3228 159.501 32.3228ZM172.324 31.9113V4.13152H176.645L182.339 17.5069V4.13152H187.414V31.9113H183.265L177.571 17.5069V31.9113H172.324ZM192.235 31.9113V4.13152H199.265C201.689 4.13152 203.575 4.44019 204.924 5.05751C206.273 5.65198 207.222 6.60083 207.771 7.90408C208.319 9.18446 208.594 10.8535 208.594 12.9113V22.9943C208.594 25.0749 208.319 26.7783 207.771 28.1044C207.222 29.4076 206.273 30.3679 204.924 30.9853C203.598 31.6026 201.735 31.9113 199.334 31.9113H192.235ZM198.374 27.6586H199.334C200.271 27.6586 200.946 27.5214 201.357 27.247C201.769 26.9726 202.02 26.5611 202.112 26.0123C202.226 25.4636 202.283 24.7777 202.283 23.9546V11.8481C202.283 11.025 202.215 10.362 202.078 9.85895C201.963 9.35594 201.7 8.99012 201.289 8.76148C200.877 8.53284 200.214 8.41852 199.3 8.41852H198.374V27.6586ZM222.477 31.9113V4.13152H234.48V8.28134H228.616V15.2777H233.726V19.5647H228.616V31.9113H222.477ZM235.557 31.9113L240.804 4.13152H247.801L252.979 31.9113H247.32L246.394 26.0466H242.313L241.353 31.9113H235.557ZM242.862 22.377H245.811L244.337 11.5395L242.862 22.377ZM256.47 31.9113V4.13152H262.609V27.7614H268.988V31.9113H256.47ZM272.487 31.9113V8.69289H268.303V4.13152H282.81V8.69289H278.66V31.9113H272.487ZM303.359 32.3228C301.256 32.3228 299.587 31.9456 298.352 31.191C297.14 30.4137 296.283 29.3391 295.78 27.9672C295.277 26.5725 295.025 24.9377 295.025 23.0629V13.0485C295.025 11.1279 295.277 9.48169 295.78 8.10986C296.283 6.71515 297.14 5.64055 298.352 4.88603C299.587 4.13152 301.256 3.75427 303.359 3.75427C305.417 3.75427 307.017 4.09723 308.161 4.78315C309.327 5.4462 310.15 6.38363 310.63 7.59542C311.11 8.80721 311.35 10.2019 311.35 11.7795V14.1802H305.348V11.4023C305.348 10.8535 305.314 10.3277 305.245 9.82465C305.2 9.32165 305.04 8.9101 304.765 8.59C304.491 8.24704 304.022 8.07556 303.359 8.07556C302.719 8.07556 302.239 8.24704 301.919 8.59C301.622 8.93296 301.427 9.36737 301.336 9.89325C301.267 10.3963 301.233 10.9336 301.233 11.5052V24.5719C301.233 25.1892 301.279 25.7608 301.37 26.2867C301.484 26.7897 301.69 27.2013 301.987 27.5214C302.307 27.8186 302.765 27.9672 303.359 27.9672C303.999 27.9672 304.457 27.8072 304.731 27.4871C305.005 27.1441 305.177 26.7097 305.245 26.1838C305.314 25.658 305.348 25.1207 305.348 24.5719V21.6568H311.35V24.0575C311.35 25.6351 311.11 27.0527 310.63 28.3102C310.173 29.5448 309.361 30.528 308.195 31.2596C307.052 31.9684 305.44 32.3228 303.359 32.3228ZM323.37 32.3228C321.289 32.3228 319.643 31.957 318.431 31.2253C317.22 30.4937 316.351 29.4419 315.825 28.0701C315.299 26.6983 315.036 25.0635 315.036 23.1658V12.8427C315.036 10.9221 315.299 9.28735 315.825 7.93837C316.351 6.5894 317.22 5.56052 318.431 4.85174C319.643 4.12009 321.289 3.75427 323.37 3.75427C325.474 3.75427 327.131 4.12009 328.343 4.85174C329.578 5.56052 330.458 6.5894 330.984 7.93837C331.51 9.28735 331.773 10.9221 331.773 12.8427V23.1658C331.773 25.0635 331.51 26.6983 330.984 28.0701C330.458 29.4419 329.578 30.4937 328.343 31.2253C327.131 31.957 325.474 32.3228 323.37 32.3228ZM323.37 27.9672C324.01 27.9672 324.479 27.8072 324.776 27.4871C325.073 27.167 325.268 26.7554 325.359 26.2524C325.451 25.7494 325.496 25.235 325.496 24.7091V11.3337C325.496 10.7849 325.451 10.2705 325.359 9.79036C325.268 9.28735 325.073 8.8758 324.776 8.5557C324.479 8.23561 324.01 8.07556 323.37 8.07556C322.776 8.07556 322.33 8.23561 322.033 8.5557C321.735 8.8758 321.541 9.28735 321.449 9.79036C321.358 10.2705 321.312 10.7849 321.312 11.3337V24.7091C321.312 25.235 321.347 25.7494 321.415 26.2524C321.507 26.7554 321.69 27.167 321.964 27.4871C322.261 27.8072 322.73 27.9672 323.37 27.9672ZM336.195 31.9113V4.13152H340.516L346.209 17.5069V4.13152H351.285V31.9113H347.135L341.442 17.5069V31.9113H336.195ZM358.609 31.9113V8.69289H354.425V4.13152H368.932V8.69289H364.782V31.9113H358.609ZM369.185 31.9113L374.432 4.13152H381.429L386.608 31.9113H380.949L380.023 26.0466H375.941L374.981 31.9113H369.185ZM376.49 22.377H379.44L377.965 11.5395L376.49 22.377ZM390.133 31.9113V4.13152H396.271V31.9113H390.133ZM401.1 31.9113V4.13152H405.421L411.114 17.5069V4.13152H416.19V31.9113H412.04L406.347 17.5069V31.9113H401.1ZM421.01 31.9113V4.13152H433.494V8.31563H427.149V15.2091H431.985V19.4618H427.149V27.7614H433.562V31.9113H421.01ZM437.035 31.9113V4.13152H444.683C446.558 4.13152 448.182 4.3373 449.553 4.74885C450.925 5.1604 451.988 5.90348 452.743 6.97809C453.52 8.02983 453.909 9.52742 453.909 11.4709C453.909 12.6141 453.818 13.6315 453.635 14.5232C453.452 15.4149 453.109 16.1923 452.606 16.8553C452.126 17.4955 451.428 18.0328 450.514 18.4672L454.321 31.9113H447.976L444.924 19.4618H443.174V31.9113H437.035ZM443.174 15.9293H444.889C445.758 15.9293 446.433 15.7807 446.913 15.4835C447.393 15.1634 447.724 14.7175 447.907 14.1459C448.113 13.5515 448.216 12.8427 448.216 12.0196C448.216 10.8307 447.999 9.90468 447.564 9.24162C447.13 8.57857 446.33 8.24704 445.164 8.24704H443.174V15.9293Z" fill="white"/>
</g>
<defs>
<filter id="filter0_d_811_183" x="-0.000273228" y="-2.90871e-05" width="459.041" height="38.1457" filterUnits="userSpaceOnUse" color-interpolation-filters="sRGB">
<feFlood flood-opacity="0" result="BackgroundImageFix"/>
<feColorMatrix in="SourceAlpha" type="matrix" values="0 0 0 0 0 0 0 0 0 0 0 0 0 0 0 0 0 0 127 0" result="hardAlpha"/>
<feOffset dy="1"/>
<feGaussianBlur stdDeviation="2.36"/>
<feComposite in2="hardAlpha" operator="out"/>
<feColorMatrix type="matrix" values="0 0 0 0 0 0 0 0 0 0 0 0 0 0 0 0 0 0 0.25 0"/>
<feBlend mode="normal" in2="BackgroundImageFix" result="effect1_dropShadow_811_183"/>
<feBlend mode="normal" in="SourceGraphic" in2="effect1_dropShadow_811_183" result="shape"/>
</filter>
</defs>
</svg>
