<svg width="113" height="37" viewBox="0 0 113 37" fill="none" xmlns="http://www.w3.org/2000/svg">
<rect width="36.5" height="36.5" rx="18.25" fill="white" fill-opacity="0.1"/>
<path d="M16.4163 20.9974V18.2474M20.083 20.9974V18.2474M23.7497 20.9974V18.2474M9.08301 14.5807V10.9141M27.4163 12.7474H9.08301M27.4163 14.5807V10.9141M12.7497 20.9974V18.2474" stroke="white" stroke-width="2.06182" stroke-linecap="round" stroke-linejoin="round"/>
<path d="M25.583 18.2479H10.9163C9.90382 18.2479 9.08301 19.0687 9.08301 20.0813V23.7479C9.08301 24.7604 9.90382 25.5813 10.9163 25.5813H25.583C26.5955 25.5813 27.4163 24.7604 27.4163 23.7479V20.0813C27.4163 19.0687 26.5955 18.2479 25.583 18.2479Z" stroke="white" stroke-width="2.06182" stroke-linecap="round" stroke-linejoin="round"/>
<path d="M49.725 11.4828C49.725 12.0128 49.6367 12.4994 49.46 12.9428C49.2833 13.3861 49.035 13.7678 48.715 14.0878C48.395 14.4078 48.01 14.6561 47.56 14.8328C47.11 15.0094 46.61 15.0978 46.06 15.0978H43.305V7.86778H46.06C46.61 7.86778 47.11 7.95778 47.56 8.13778C48.01 8.31444 48.395 8.56278 48.715 8.88278C49.035 9.19944 49.2833 9.57944 49.46 10.0228C49.6367 10.4661 49.725 10.9528 49.725 11.4828ZM48.345 11.4828C48.345 11.0861 48.2917 10.7311 48.185 10.4178C48.0817 10.1011 47.93 9.83444 47.73 9.61778C47.5333 9.39778 47.2933 9.22944 47.01 9.11278C46.73 8.99611 46.4133 8.93778 46.06 8.93778H44.655V14.0278H46.06C46.4133 14.0278 46.73 13.9694 47.01 13.8528C47.2933 13.7361 47.5333 13.5694 47.73 13.3528C47.93 13.1328 48.0817 12.8661 48.185 12.5528C48.2917 12.2361 48.345 11.8794 48.345 11.4828ZM51.9095 9.96778V15.0978H50.6695V9.96778H51.9095ZM52.0795 8.47278C52.0795 8.57944 52.0579 8.67944 52.0145 8.77278C51.9712 8.86611 51.9129 8.94778 51.8395 9.01778C51.7695 9.08778 51.6862 9.14444 51.5895 9.18778C51.4929 9.22778 51.3895 9.24778 51.2795 9.24778C51.1729 9.24778 51.0712 9.22778 50.9745 9.18778C50.8812 9.14444 50.7995 9.08778 50.7295 9.01778C50.6595 8.94778 50.6029 8.86611 50.5595 8.77278C50.5195 8.67944 50.4995 8.57944 50.4995 8.47278C50.4995 8.36278 50.5195 8.25944 50.5595 8.16278C50.6029 8.06611 50.6595 7.98278 50.7295 7.91278C50.7995 7.84278 50.8812 7.78778 50.9745 7.74778C51.0712 7.70444 51.1729 7.68278 51.2795 7.68278C51.3895 7.68278 51.4929 7.70444 51.5895 7.74778C51.6862 7.78778 51.7695 7.84278 51.8395 7.91278C51.9129 7.98278 51.9712 8.06611 52.0145 8.16278C52.0579 8.25944 52.0795 8.36278 52.0795 8.47278ZM53.1686 15.0978V9.96778H53.9236C54.0836 9.96778 54.1886 10.0428 54.2386 10.1928L54.3186 10.5728C54.4086 10.4728 54.5019 10.3811 54.5986 10.2978C54.6986 10.2144 54.8036 10.1428 54.9136 10.0828C55.0269 10.0228 55.1469 9.97611 55.2736 9.94278C55.4036 9.90611 55.5453 9.88778 55.6986 9.88778C56.0219 9.88778 56.2869 9.97611 56.4936 10.1528C56.7036 10.3261 56.8603 10.5578 56.9636 10.8478C57.0436 10.6778 57.1436 10.5328 57.2636 10.4128C57.3836 10.2894 57.5153 10.1894 57.6586 10.1128C57.8019 10.0361 57.9536 9.97944 58.1136 9.94278C58.2769 9.90611 58.4403 9.88778 58.6036 9.88778C58.8869 9.88778 59.1386 9.93111 59.3586 10.0178C59.5786 10.1044 59.7636 10.2311 59.9136 10.3978C60.0636 10.5644 60.1769 10.7678 60.2536 11.0078C60.3336 11.2478 60.3736 11.5228 60.3736 11.8328V15.0978H59.1386V11.8328C59.1386 11.5061 59.0669 11.2611 58.9236 11.0978C58.7803 10.9311 58.5703 10.8478 58.2936 10.8478C58.1669 10.8478 58.0486 10.8694 57.9386 10.9128C57.8319 10.9561 57.7369 11.0194 57.6536 11.1028C57.5736 11.1828 57.5103 11.2844 57.4636 11.4078C57.4169 11.5311 57.3936 11.6728 57.3936 11.8328V15.0978H56.1536V11.8328C56.1536 11.4894 56.0836 11.2394 55.9436 11.0828C55.8069 10.9261 55.6053 10.8478 55.3386 10.8478C55.1586 10.8478 54.9903 10.8928 54.8336 10.9828C54.6803 11.0694 54.5369 11.1894 54.4036 11.3428V15.0978H53.1686ZM64.8525 11.9428C64.8525 11.7828 64.8292 11.6328 64.7825 11.4928C64.7392 11.3494 64.6725 11.2244 64.5825 11.1178C64.4925 11.0111 64.3775 10.9278 64.2375 10.8678C64.1008 10.8044 63.9408 10.7728 63.7575 10.7728C63.4008 10.7728 63.1192 10.8744 62.9125 11.0778C62.7092 11.2811 62.5792 11.5694 62.5225 11.9428H64.8525ZM62.4975 12.6878C62.5175 12.9511 62.5642 13.1794 62.6375 13.3728C62.7108 13.5628 62.8075 13.7211 62.9275 13.8478C63.0475 13.9711 63.1892 14.0644 63.3525 14.1278C63.5192 14.1878 63.7025 14.2178 63.9025 14.2178C64.1025 14.2178 64.2742 14.1944 64.4175 14.1478C64.5642 14.1011 64.6908 14.0494 64.7975 13.9928C64.9075 13.9361 65.0025 13.8844 65.0825 13.8378C65.1658 13.7911 65.2458 13.7678 65.3225 13.7678C65.4258 13.7678 65.5025 13.8061 65.5525 13.8828L65.9075 14.3328C65.7708 14.4928 65.6175 14.6278 65.4475 14.7378C65.2775 14.8444 65.0992 14.9311 64.9125 14.9978C64.7292 15.0611 64.5408 15.1061 64.3475 15.1328C64.1575 15.1594 63.9725 15.1728 63.7925 15.1728C63.4358 15.1728 63.1042 15.1144 62.7975 14.9978C62.4908 14.8778 62.2242 14.7028 61.9975 14.4728C61.7708 14.2394 61.5925 13.9528 61.4625 13.6128C61.3325 13.2694 61.2675 12.8728 61.2675 12.4228C61.2675 12.0728 61.3242 11.7444 61.4375 11.4378C61.5508 11.1278 61.7125 10.8594 61.9225 10.6328C62.1358 10.4028 62.3942 10.2211 62.6975 10.0878C63.0042 9.95444 63.3492 9.88778 63.7325 9.88778C64.0558 9.88778 64.3542 9.93944 64.6275 10.0428C64.9008 10.1461 65.1358 10.2978 65.3325 10.4978C65.5292 10.6944 65.6825 10.9378 65.7925 11.2278C65.9058 11.5144 65.9625 11.8428 65.9625 12.2128C65.9625 12.3994 65.9425 12.5261 65.9025 12.5928C65.8625 12.6561 65.7858 12.6878 65.6725 12.6878H62.4975ZM68.0443 10.5978C68.1476 10.4944 68.256 10.3994 68.3693 10.3128C68.486 10.2228 68.6076 10.1478 68.7343 10.0878C68.8643 10.0244 69.0026 9.97611 69.1493 9.94278C69.296 9.90611 69.456 9.88778 69.6293 9.88778C69.9093 9.88778 70.1576 9.93611 70.3743 10.0328C70.591 10.1261 70.771 10.2594 70.9143 10.4328C71.061 10.6028 71.171 10.8078 71.2443 11.0478C71.321 11.2844 71.3593 11.5461 71.3593 11.8328V15.0978H70.1243V11.8328C70.1243 11.5194 70.0526 11.2778 69.9093 11.1078C69.766 10.9344 69.5476 10.8478 69.2543 10.8478C69.041 10.8478 68.841 10.8961 68.6543 10.9928C68.4676 11.0894 68.291 11.2211 68.1243 11.3878V15.0978H66.8893V9.96778H67.6443C67.8043 9.96778 67.9093 10.0428 67.9593 10.1928L68.0443 10.5978ZM75.6638 10.9678C75.6305 11.0211 75.5955 11.0594 75.5588 11.0828C75.5222 11.1028 75.4755 11.1128 75.4188 11.1128C75.3588 11.1128 75.2938 11.0961 75.2238 11.0628C75.1572 11.0294 75.0788 10.9928 74.9888 10.9528C74.8988 10.9094 74.7955 10.8711 74.6788 10.8378C74.5655 10.8044 74.4305 10.7878 74.2738 10.7878C74.0305 10.7878 73.8388 10.8394 73.6988 10.9428C73.5622 11.0461 73.4938 11.1811 73.4938 11.3478C73.4938 11.4578 73.5288 11.5511 73.5988 11.6278C73.6722 11.7011 73.7672 11.7661 73.8838 11.8228C74.0038 11.8794 74.1388 11.9311 74.2888 11.9778C74.4388 12.0211 74.5905 12.0694 74.7438 12.1228C74.9005 12.1761 75.0538 12.2378 75.2038 12.3078C75.3538 12.3744 75.4872 12.4611 75.6038 12.5678C75.7238 12.6711 75.8188 12.7961 75.8888 12.9428C75.9622 13.0894 75.9988 13.2661 75.9988 13.4728C75.9988 13.7194 75.9538 13.9478 75.8638 14.1578C75.7772 14.3644 75.6472 14.5444 75.4738 14.6978C75.3005 14.8478 75.0855 14.9661 74.8288 15.0528C74.5755 15.1361 74.2822 15.1778 73.9488 15.1778C73.7722 15.1778 73.5988 15.1611 73.4288 15.1278C73.2622 15.0978 73.1005 15.0544 72.9438 14.9978C72.7905 14.9411 72.6472 14.8744 72.5138 14.7978C72.3838 14.7211 72.2688 14.6378 72.1688 14.5478L72.4538 14.0778C72.4905 14.0211 72.5338 13.9778 72.5838 13.9478C72.6338 13.9178 72.6972 13.9028 72.7738 13.9028C72.8505 13.9028 72.9222 13.9244 72.9888 13.9678C73.0588 14.0111 73.1388 14.0578 73.2288 14.1078C73.3188 14.1578 73.4238 14.2044 73.5438 14.2478C73.6672 14.2911 73.8222 14.3128 74.0088 14.3128C74.1555 14.3128 74.2805 14.2961 74.3838 14.2628C74.4905 14.2261 74.5772 14.1794 74.6438 14.1228C74.7138 14.0661 74.7638 14.0011 74.7938 13.9278C74.8272 13.8511 74.8438 13.7728 74.8438 13.6928C74.8438 13.5728 74.8072 13.4744 74.7338 13.3978C74.6638 13.3211 74.5688 13.2544 74.4488 13.1978C74.3322 13.1411 74.1972 13.0911 74.0438 13.0478C73.8938 13.0011 73.7388 12.9511 73.5788 12.8978C73.4222 12.8444 73.2672 12.7828 73.1138 12.7128C72.9638 12.6394 72.8288 12.5478 72.7088 12.4378C72.5922 12.3278 72.4972 12.1928 72.4238 12.0328C72.3538 11.8728 72.3188 11.6794 72.3188 11.4528C72.3188 11.2428 72.3605 11.0428 72.4438 10.8528C72.5272 10.6628 72.6488 10.4978 72.8088 10.3578C72.9722 10.2144 73.1738 10.1011 73.4138 10.0178C73.6572 9.93111 73.9372 9.88778 74.2538 9.88778C74.6072 9.88778 74.9288 9.94611 75.2188 10.0628C75.5088 10.1794 75.7505 10.3328 75.9438 10.5228L75.6638 10.9678ZM78.2084 9.96778V15.0978H76.9684V9.96778H78.2084ZM78.3784 8.47278C78.3784 8.57944 78.3567 8.67944 78.3134 8.77278C78.27 8.86611 78.2117 8.94778 78.1384 9.01778C78.0684 9.08778 77.985 9.14444 77.8884 9.18778C77.7917 9.22778 77.6884 9.24778 77.5784 9.24778C77.4717 9.24778 77.37 9.22778 77.2734 9.18778C77.18 9.14444 77.0984 9.08778 77.0284 9.01778C76.9584 8.94778 76.9017 8.86611 76.8584 8.77278C76.8184 8.67944 76.7984 8.57944 76.7984 8.47278C76.7984 8.36278 76.8184 8.25944 76.8584 8.16278C76.9017 8.06611 76.9584 7.98278 77.0284 7.91278C77.0984 7.84278 77.18 7.78778 77.2734 7.74778C77.37 7.70444 77.4717 7.68278 77.5784 7.68278C77.6884 7.68278 77.7917 7.70444 77.8884 7.74778C77.985 7.78778 78.0684 7.84278 78.1384 7.91278C78.2117 7.98278 78.27 8.06611 78.3134 8.16278C78.3567 8.25944 78.3784 8.36278 78.3784 8.47278ZM81.7374 9.88778C82.1174 9.88778 82.4624 9.94944 82.7724 10.0728C83.0858 10.1961 83.3524 10.3711 83.5724 10.5978C83.7958 10.8244 83.9674 11.1011 84.0874 11.4278C84.2074 11.7544 84.2674 12.1194 84.2674 12.5228C84.2674 12.9294 84.2074 13.2961 84.0874 13.6228C83.9674 13.9494 83.7958 14.2278 83.5724 14.4578C83.3524 14.6878 83.0858 14.8644 82.7724 14.9878C82.4624 15.1111 82.1174 15.1728 81.7374 15.1728C81.3541 15.1728 81.0058 15.1111 80.6924 14.9878C80.3791 14.8644 80.1108 14.6878 79.8874 14.4578C79.6674 14.2278 79.4958 13.9494 79.3724 13.6228C79.2524 13.2961 79.1924 12.9294 79.1924 12.5228C79.1924 12.1194 79.2524 11.7544 79.3724 11.4278C79.4958 11.1011 79.6674 10.8244 79.8874 10.5978C80.1108 10.3711 80.3791 10.1961 80.6924 10.0728C81.0058 9.94944 81.3541 9.88778 81.7374 9.88778ZM81.7374 14.2228C82.1641 14.2228 82.4791 14.0794 82.6824 13.7928C82.8891 13.5061 82.9924 13.0861 82.9924 12.5328C82.9924 11.9794 82.8891 11.5578 82.6824 11.2678C82.4791 10.9778 82.1641 10.8328 81.7374 10.8328C81.3041 10.8328 80.9824 10.9794 80.7724 11.2728C80.5658 11.5628 80.4624 11.9828 80.4624 12.5328C80.4624 13.0828 80.5658 13.5028 80.7724 13.7928C80.9824 14.0794 81.3041 14.2228 81.7374 14.2228ZM86.3646 10.5978C86.4679 10.4944 86.5763 10.3994 86.6896 10.3128C86.8063 10.2228 86.9279 10.1478 87.0546 10.0878C87.1846 10.0244 87.3229 9.97611 87.4696 9.94278C87.6163 9.90611 87.7763 9.88778 87.9496 9.88778C88.2296 9.88778 88.4779 9.93611 88.6946 10.0328C88.9113 10.1261 89.0913 10.2594 89.2346 10.4328C89.3813 10.6028 89.4913 10.8078 89.5646 11.0478C89.6413 11.2844 89.6796 11.5461 89.6796 11.8328V15.0978H88.4446V11.8328C88.4446 11.5194 88.3729 11.2778 88.2296 11.1078C88.0863 10.9344 87.8679 10.8478 87.5746 10.8478C87.3613 10.8478 87.1613 10.8961 86.9746 10.9928C86.7879 11.0894 86.6113 11.2211 86.4446 11.3878V15.0978H85.2096V9.96778H85.9646C86.1246 9.96778 86.2296 10.0428 86.2796 10.1928L86.3646 10.5978Z" fill="white"/>
<path d="M42.804 23.2823V22.6183H44.308V28.4023H43.572V23.2823H42.804ZM49.2465 23.2503H46.4385V25.0743C46.5612 24.9037 46.7425 24.765 46.9825 24.6583C47.2225 24.5463 47.4812 24.4903 47.7585 24.4903C48.2012 24.4903 48.5612 24.5837 48.8385 24.7703C49.1158 24.9517 49.3132 25.189 49.4305 25.4823C49.5532 25.7703 49.6145 26.077 49.6145 26.4023C49.6145 26.7863 49.5425 27.1303 49.3985 27.4343C49.2545 27.7383 49.0332 27.9783 48.7345 28.1543C48.4412 28.3303 48.0758 28.4183 47.6385 28.4183C47.0785 28.4183 46.6252 28.2743 46.2785 27.9863C45.9318 27.6983 45.7212 27.3143 45.6465 26.8343H46.3585C46.4278 27.1383 46.5745 27.3757 46.7985 27.5463C47.0225 27.717 47.3052 27.8023 47.6465 27.8023C48.0678 27.8023 48.3852 27.677 48.5985 27.4263C48.8118 27.1703 48.9185 26.8343 48.9185 26.4183C48.9185 26.0023 48.8118 25.6823 48.5985 25.4583C48.3852 25.229 48.0705 25.1143 47.6545 25.1143C47.3718 25.1143 47.1238 25.1837 46.9105 25.3223C46.7025 25.4557 46.5505 25.6397 46.4545 25.8743H45.7665V22.6103H49.2465V23.2503ZM50.3899 23.2823V22.6183H51.8939V28.4023H51.1579V23.2823H50.3899ZM58.6293 27.2023L57.3573 25.9303L56.0853 27.2023L55.6053 26.7223L56.8773 25.4503L55.6293 24.2023L56.0933 23.7303L57.3493 24.9863L58.6053 23.7303L59.0853 24.2103L57.8293 25.4663L59.0933 26.7383L58.6293 27.2023ZM62.3587 23.2823V22.6183H63.8627V28.4023H63.1267V23.2823H62.3587ZM65.0252 27.8183C65.7025 27.2743 66.2332 26.829 66.6172 26.4823C67.0012 26.1303 67.3239 25.765 67.5852 25.3863C67.8519 25.0023 67.9852 24.6263 67.9852 24.2583C67.9852 23.9117 67.8999 23.6397 67.7292 23.4423C67.5639 23.2397 67.2945 23.1383 66.9212 23.1383C66.5585 23.1383 66.2759 23.253 66.0732 23.4823C65.8759 23.7063 65.7692 24.0077 65.7532 24.3863H65.0492C65.0705 23.789 65.2519 23.3277 65.5932 23.0023C65.9345 22.677 66.3745 22.5143 66.9132 22.5143C67.4625 22.5143 67.8972 22.6663 68.2172 22.9703C68.5425 23.2743 68.7052 23.693 68.7052 24.2263C68.7052 24.669 68.5719 25.101 68.3052 25.5223C68.0439 25.9383 67.7452 26.3063 67.4092 26.6263C67.0732 26.941 66.6439 27.309 66.1212 27.7303H68.8732V28.3383H65.0252V27.8183ZM70.7708 25.3943C70.4721 25.277 70.2428 25.1063 70.0828 24.8823C69.9228 24.6583 69.8428 24.3863 69.8428 24.0663C69.8428 23.7783 69.9148 23.5197 70.0588 23.2903C70.2028 23.0557 70.4161 22.8717 70.6988 22.7383C70.9868 22.5997 71.3334 22.5303 71.7388 22.5303C72.1441 22.5303 72.4881 22.5997 72.7708 22.7383C73.0588 22.8717 73.2748 23.0557 73.4188 23.2903C73.5681 23.5197 73.6428 23.7783 73.6428 24.0663C73.6428 24.3757 73.5601 24.6477 73.3948 24.8823C73.2294 25.1117 73.0028 25.2823 72.7148 25.3943C73.0454 25.4957 73.3068 25.6743 73.4988 25.9303C73.6961 26.181 73.7948 26.485 73.7948 26.8423C73.7948 27.189 73.7094 27.493 73.5388 27.7543C73.3681 28.0103 73.1254 28.2103 72.8108 28.3543C72.5014 28.493 72.1441 28.5623 71.7388 28.5623C71.3334 28.5623 70.9761 28.493 70.6668 28.3543C70.3628 28.2103 70.1254 28.0103 69.9548 27.7543C69.7841 27.493 69.6988 27.189 69.6988 26.8423C69.6988 26.485 69.7948 26.1783 69.9868 25.9223C70.1787 25.6663 70.4401 25.4903 70.7708 25.3943ZM72.9388 24.1543C72.9388 23.829 72.8321 23.5783 72.6188 23.4023C72.4054 23.2263 72.1121 23.1383 71.7388 23.1383C71.3708 23.1383 71.0801 23.2263 70.8668 23.4023C70.6534 23.5783 70.5468 23.8317 70.5468 24.1623C70.5468 24.461 70.6561 24.701 70.8748 24.8823C71.0988 25.0637 71.3868 25.1543 71.7388 25.1543C72.0961 25.1543 72.3841 25.0637 72.6028 24.8823C72.8268 24.6957 72.9388 24.453 72.9388 24.1543ZM71.7388 25.7143C71.3441 25.7143 71.0214 25.8077 70.7708 25.9943C70.5201 26.1757 70.3947 26.4503 70.3947 26.8183C70.3947 27.1597 70.5148 27.4343 70.7548 27.6423C71.0001 27.8503 71.3281 27.9543 71.7388 27.9543C72.1494 27.9543 72.4748 27.8503 72.7148 27.6423C72.9548 27.4343 73.0748 27.1597 73.0748 26.8183C73.0748 26.461 72.9521 26.189 72.7068 26.0023C72.4614 25.8103 72.1388 25.7143 71.7388 25.7143ZM80.2464 27.2023L78.9744 25.9303L77.7024 27.2023L77.2224 26.7223L78.4944 25.4503L77.2464 24.2023L77.7104 23.7303L78.9664 24.9863L80.2224 23.7303L80.7024 24.2103L79.4464 25.4663L80.7104 26.7383L80.2464 27.2023ZM87.8559 23.2503H85.0479V25.0743C85.1705 24.9037 85.3519 24.765 85.5919 24.6583C85.8319 24.5463 86.0905 24.4903 86.3679 24.4903C86.8105 24.4903 87.1705 24.5837 87.4479 24.7703C87.7252 24.9517 87.9225 25.189 88.0399 25.4823C88.1625 25.7703 88.2239 26.077 88.2239 26.4023C88.2239 26.7863 88.1519 27.1303 88.0079 27.4343C87.8639 27.7383 87.6425 27.9783 87.3439 28.1543C87.0505 28.3303 86.6852 28.4183 86.2479 28.4183C85.6879 28.4183 85.2345 28.2743 84.8879 27.9863C84.5412 27.6983 84.3305 27.3143 84.2559 26.8343H84.9679C85.0372 27.1383 85.1839 27.3757 85.4079 27.5463C85.6319 27.717 85.9145 27.8023 86.2559 27.8023C86.6772 27.8023 86.9945 27.677 87.2079 27.4263C87.4212 27.1703 87.5279 26.8343 87.5279 26.4183C87.5279 26.0023 87.4212 25.6823 87.2079 25.4583C86.9945 25.229 86.6799 25.1143 86.2639 25.1143C85.9812 25.1143 85.7332 25.1837 85.5199 25.3223C85.3119 25.4557 85.1599 25.6397 85.0639 25.8743H84.3759V22.6103H87.8559V23.2503ZM92.4153 23.9943C92.298 23.4023 91.9326 23.1063 91.3193 23.1063C90.8446 23.1063 90.49 23.2903 90.2553 23.6583C90.0206 24.021 89.906 24.621 89.9113 25.4583C90.034 25.181 90.2366 24.965 90.5193 24.8103C90.8073 24.6503 91.1273 24.5703 91.4793 24.5703C92.0286 24.5703 92.466 24.741 92.7913 25.0823C93.122 25.4237 93.2873 25.8957 93.2873 26.4983C93.2873 26.861 93.2153 27.1863 93.0713 27.4743C92.9326 27.7623 92.7193 27.9917 92.4313 28.1623C92.1486 28.333 91.8046 28.4183 91.3993 28.4183C90.85 28.4183 90.4206 28.2957 90.1113 28.0503C89.802 27.805 89.586 27.4663 89.4633 27.0343C89.3406 26.6023 89.2793 26.069 89.2793 25.4343C89.2793 23.477 89.962 22.4983 91.3273 22.4983C91.85 22.4983 92.2606 22.6397 92.5593 22.9223C92.858 23.205 93.034 23.5623 93.0873 23.9943H92.4153ZM91.3273 25.1863C91.098 25.1863 90.882 25.2343 90.6793 25.3303C90.4766 25.421 90.3113 25.5623 90.1833 25.7543C90.0606 25.941 89.9993 26.1703 89.9993 26.4423C89.9993 26.8477 90.1166 27.1783 90.3513 27.4343C90.586 27.685 90.922 27.8103 91.3593 27.8103C91.7326 27.8103 92.0286 27.6957 92.2473 27.4663C92.4713 27.2317 92.5833 26.917 92.5833 26.5223C92.5833 26.1063 92.4766 25.781 92.2633 25.5463C92.05 25.3063 91.738 25.1863 91.3273 25.1863ZM101.794 23.9383C102.136 23.9383 102.44 24.0103 102.706 24.1543C102.973 24.293 103.184 24.5037 103.338 24.7863C103.493 25.069 103.57 25.413 103.57 25.8183V28.4023H102.85V25.9223C102.85 25.485 102.741 25.1517 102.522 24.9223C102.309 24.6877 102.018 24.5703 101.65 24.5703C101.272 24.5703 100.97 24.693 100.746 24.9383C100.522 25.1783 100.41 25.5277 100.41 25.9863V28.4023H99.6903V25.9223C99.6903 25.485 99.5809 25.1517 99.3623 24.9223C99.1489 24.6877 98.8583 24.5703 98.4903 24.5703C98.1116 24.5703 97.8103 24.693 97.5863 24.9383C97.3623 25.1783 97.2503 25.5277 97.2503 25.9863V28.4023H96.5223V24.0183H97.2503V24.6503C97.3943 24.421 97.5863 24.245 97.8263 24.1223C98.0716 23.9997 98.3409 23.9383 98.6343 23.9383C99.0023 23.9383 99.3276 24.021 99.6103 24.1863C99.8929 24.3517 100.104 24.5943 100.242 24.9143C100.365 24.605 100.568 24.365 100.85 24.1943C101.133 24.0237 101.448 23.9383 101.794 23.9383ZM110.036 23.9383C110.378 23.9383 110.682 24.0103 110.948 24.1543C111.215 24.293 111.426 24.5037 111.58 24.7863C111.735 25.069 111.812 25.413 111.812 25.8183V28.4023H111.092V25.9223C111.092 25.485 110.983 25.1517 110.764 24.9223C110.551 24.6877 110.26 24.5703 109.892 24.5703C109.514 24.5703 109.212 24.693 108.988 24.9383C108.764 25.1783 108.652 25.5277 108.652 25.9863V28.4023H107.932V25.9223C107.932 25.485 107.823 25.1517 107.604 24.9223C107.391 24.6877 107.1 24.5703 106.732 24.5703C106.354 24.5703 106.052 24.693 105.828 24.9383C105.604 25.1783 105.492 25.5277 105.492 25.9863V28.4023H104.764V24.0183H105.492V24.6503C105.636 24.421 105.828 24.245 106.068 24.1223C106.314 23.9997 106.583 23.9383 106.876 23.9383C107.244 23.9383 107.57 24.021 107.852 24.1863C108.135 24.3517 108.346 24.5943 108.484 24.9143C108.607 24.605 108.81 24.365 109.092 24.1943C109.375 24.0237 109.69 23.9383 110.036 23.9383Z" fill="white"/>
</svg>
