<svg width="112" height="37" viewBox="0 0 112 37" fill="none" xmlns="http://www.w3.org/2000/svg">
<rect width="36.5" height="36.5" rx="18.25" fill="white" fill-opacity="0.1"/>
<g clip-path="url(#clip0_811_224)">
<path d="M27.0363 20.375L24.2238 15.0625H25C25.1492 15.0625 25.2923 15.0065 25.3977 14.9069C25.5032 14.8073 25.5625 14.6721 25.5625 14.5313C25.5625 14.3904 25.5032 14.2552 25.3977 14.1556C25.2923 14.056 25.1492 14 25 14H24.1113C23.507 13.3783 22.7788 12.8754 21.9684 12.5198C21.158 12.1643 20.2813 11.9632 19.3885 11.9281L19.375 11.875C19.375 11.5932 19.2565 11.323 19.0455 11.1237C18.8345 10.9244 18.5484 10.8125 18.25 10.8125C17.9516 10.8125 17.6655 10.9244 17.4545 11.1237C17.2435 11.323 17.125 11.5932 17.125 11.875V11.9281C15.3068 11.9995 13.5911 12.7424 12.3471 13.9968L11.5 14C11.3508 14 11.2077 14.056 11.1023 14.1556C10.9968 14.2552 10.9375 14.3904 10.9375 14.5313C10.9375 14.6721 10.9968 14.8073 11.1023 14.9069C11.2077 15.0065 11.3508 15.0625 11.5 15.0625H12.2763L9.46375 20.375H9.25C9.25 21.5438 10.7575 22.5 12.625 22.5C14.4925 22.5 16 21.5438 16 20.375H15.7863L12.9175 14.9669C12.9886 14.9275 13.0497 14.8738 13.0964 14.8096C13.5939 14.2575 14.2094 13.8109 14.9026 13.4992C15.5957 13.1876 16.3508 13.0179 17.1183 13.0013L17.125 24.625H16V25.6875H13.75V26.75H22.75V25.6875H20.5V24.625H19.375V13.0013C20.1338 13.0148 20.8806 13.1825 21.5647 13.4929C22.2488 13.8033 22.8541 14.2491 23.3395 14.8001C23.3915 14.8834 23.4666 14.9517 23.5566 14.9977L20.7138 20.375H20.5C20.5 21.5438 22.0075 22.5 23.875 22.5C25.7425 22.5 27.25 21.5438 27.25 20.375H27.0363ZM14.875 20.375H10.375L12.625 16.1888L14.875 20.375ZM21.625 20.375L23.875 16.1888L26.125 20.375H21.625Z" fill="white"/>
</g>
<path d="M49.265 11.4728V14.3978C48.8983 14.6678 48.5067 14.8661 48.09 14.9928C47.6767 15.1161 47.2333 15.1778 46.76 15.1778C46.17 15.1778 45.635 15.0861 45.155 14.9028C44.6783 14.7194 44.27 14.4644 43.93 14.1378C43.5933 13.8111 43.3333 13.4211 43.15 12.9678C42.9667 12.5144 42.875 12.0194 42.875 11.4828C42.875 10.9394 42.9633 10.4411 43.14 9.98778C43.3167 9.53444 43.5667 9.14444 43.89 8.81778C44.2167 8.49111 44.6117 8.23778 45.075 8.05778C45.5383 7.87778 46.0583 7.78778 46.635 7.78778C46.9283 7.78778 47.2017 7.81111 47.455 7.85778C47.7117 7.90444 47.9483 7.96944 48.165 8.05278C48.385 8.13278 48.585 8.23111 48.765 8.34778C48.945 8.46444 49.11 8.59278 49.26 8.73278L48.875 9.34278C48.815 9.43944 48.7367 9.49944 48.64 9.52278C48.5433 9.54278 48.4383 9.51778 48.325 9.44778C48.215 9.38444 48.105 9.32111 47.995 9.25778C47.885 9.19444 47.7617 9.13944 47.625 9.09278C47.4917 9.04611 47.34 9.00778 47.17 8.97778C47.0033 8.94778 46.81 8.93278 46.59 8.93278C46.2333 8.93278 45.91 8.99278 45.62 9.11278C45.3333 9.23278 45.0883 9.40444 44.885 9.62778C44.6817 9.85111 44.525 10.1194 44.415 10.4328C44.305 10.7461 44.25 11.0961 44.25 11.4828C44.25 11.8961 44.3083 12.2661 44.425 12.5928C44.545 12.9161 44.7117 13.1911 44.925 13.4178C45.1417 13.6411 45.4017 13.8128 45.705 13.9328C46.0083 14.0494 46.3467 14.1078 46.72 14.1078C46.9867 14.1078 47.225 14.0794 47.435 14.0228C47.645 13.9661 47.85 13.8894 48.05 13.7928V12.4828H47.14C47.0533 12.4828 46.985 12.4594 46.935 12.4128C46.8883 12.3628 46.865 12.3028 46.865 12.2328V11.4728H49.265ZM51.4527 10.8578C51.6127 10.5511 51.8027 10.3111 52.0227 10.1378C52.2427 9.96111 52.5027 9.87278 52.8027 9.87278C53.0394 9.87278 53.2294 9.92444 53.3727 10.0278L53.2927 10.9528C53.2761 11.0128 53.2511 11.0561 53.2177 11.0828C53.1877 11.1061 53.1461 11.1178 53.0927 11.1178C53.0427 11.1178 52.9677 11.1094 52.8677 11.0928C52.7711 11.0761 52.6761 11.0678 52.5827 11.0678C52.4461 11.0678 52.3244 11.0878 52.2177 11.1278C52.1111 11.1678 52.0144 11.2261 51.9277 11.3028C51.8444 11.3761 51.7694 11.4661 51.7027 11.5728C51.6394 11.6794 51.5794 11.8011 51.5227 11.9378V15.0978H50.2877V9.96778H51.0127C51.1394 9.96778 51.2277 9.99111 51.2777 10.0378C51.3277 10.0811 51.3611 10.1611 51.3777 10.2778L51.4527 10.8578ZM56.1417 9.88778C56.5217 9.88778 56.8667 9.94944 57.1767 10.0728C57.4901 10.1961 57.7567 10.3711 57.9767 10.5978C58.2001 10.8244 58.3717 11.1011 58.4917 11.4278C58.6117 11.7544 58.6717 12.1194 58.6717 12.5228C58.6717 12.9294 58.6117 13.2961 58.4917 13.6228C58.3717 13.9494 58.2001 14.2278 57.9767 14.4578C57.7567 14.6878 57.4901 14.8644 57.1767 14.9878C56.8667 15.1111 56.5217 15.1728 56.1417 15.1728C55.7584 15.1728 55.4101 15.1111 55.0967 14.9878C54.7834 14.8644 54.5151 14.6878 54.2917 14.4578C54.0717 14.2278 53.9001 13.9494 53.7767 13.6228C53.6567 13.2961 53.5967 12.9294 53.5967 12.5228C53.5967 12.1194 53.6567 11.7544 53.7767 11.4278C53.9001 11.1011 54.0717 10.8244 54.2917 10.5978C54.5151 10.3711 54.7834 10.1961 55.0967 10.0728C55.4101 9.94944 55.7584 9.88778 56.1417 9.88778ZM56.1417 14.2228C56.5684 14.2228 56.8834 14.0794 57.0867 13.7928C57.2934 13.5061 57.3967 13.0861 57.3967 12.5328C57.3967 11.9794 57.2934 11.5578 57.0867 11.2678C56.8834 10.9778 56.5684 10.8328 56.1417 10.8328C55.7084 10.8328 55.3867 10.9794 55.1767 11.2728C54.9701 11.5628 54.8667 11.9828 54.8667 12.5328C54.8667 13.0828 54.9701 13.5028 55.1767 13.7928C55.3867 14.0794 55.7084 14.2228 56.1417 14.2228ZM62.7439 10.9678C62.7106 11.0211 62.6756 11.0594 62.6389 11.0828C62.6022 11.1028 62.5556 11.1128 62.4989 11.1128C62.4389 11.1128 62.3739 11.0961 62.3039 11.0628C62.2372 11.0294 62.1589 10.9928 62.0689 10.9528C61.9789 10.9094 61.8756 10.8711 61.7589 10.8378C61.6456 10.8044 61.5106 10.7878 61.3539 10.7878C61.1106 10.7878 60.9189 10.8394 60.7789 10.9428C60.6422 11.0461 60.5739 11.1811 60.5739 11.3478C60.5739 11.4578 60.6089 11.5511 60.6789 11.6278C60.7522 11.7011 60.8472 11.7661 60.9639 11.8228C61.0839 11.8794 61.2189 11.9311 61.3689 11.9778C61.5189 12.0211 61.6706 12.0694 61.8239 12.1228C61.9806 12.1761 62.1339 12.2378 62.2839 12.3078C62.4339 12.3744 62.5672 12.4611 62.6839 12.5678C62.8039 12.6711 62.8989 12.7961 62.9689 12.9428C63.0422 13.0894 63.0789 13.2661 63.0789 13.4728C63.0789 13.7194 63.0339 13.9478 62.9439 14.1578C62.8572 14.3644 62.7272 14.5444 62.5539 14.6978C62.3806 14.8478 62.1656 14.9661 61.9089 15.0528C61.6556 15.1361 61.3622 15.1778 61.0289 15.1778C60.8522 15.1778 60.6789 15.1611 60.5089 15.1278C60.3422 15.0978 60.1806 15.0544 60.0239 14.9978C59.8706 14.9411 59.7272 14.8744 59.5939 14.7978C59.4639 14.7211 59.3489 14.6378 59.2489 14.5478L59.5339 14.0778C59.5706 14.0211 59.6139 13.9778 59.6639 13.9478C59.7139 13.9178 59.7772 13.9028 59.8539 13.9028C59.9306 13.9028 60.0022 13.9244 60.0689 13.9678C60.1389 14.0111 60.2189 14.0578 60.3089 14.1078C60.3989 14.1578 60.5039 14.2044 60.6239 14.2478C60.7472 14.2911 60.9022 14.3128 61.0889 14.3128C61.2356 14.3128 61.3606 14.2961 61.4639 14.2628C61.5706 14.2261 61.6572 14.1794 61.7239 14.1228C61.7939 14.0661 61.8439 14.0011 61.8739 13.9278C61.9072 13.8511 61.9239 13.7728 61.9239 13.6928C61.9239 13.5728 61.8872 13.4744 61.8139 13.3978C61.7439 13.3211 61.6489 13.2544 61.5289 13.1978C61.4122 13.1411 61.2772 13.0911 61.1239 13.0478C60.9739 13.0011 60.8189 12.9511 60.6589 12.8978C60.5022 12.8444 60.3472 12.7828 60.1939 12.7128C60.0439 12.6394 59.9089 12.5478 59.7889 12.4378C59.6722 12.3278 59.5772 12.1928 59.5039 12.0328C59.4339 11.8728 59.3989 11.6794 59.3989 11.4528C59.3989 11.2428 59.4406 11.0428 59.5239 10.8528C59.6072 10.6628 59.7289 10.4978 59.8889 10.3578C60.0522 10.2144 60.2539 10.1011 60.4939 10.0178C60.7372 9.93111 61.0172 9.88778 61.3339 9.88778C61.6872 9.88778 62.0089 9.94611 62.2989 10.0628C62.5889 10.1794 62.8306 10.3328 63.0239 10.5228L62.7439 10.9678ZM67.1384 10.9678C67.1051 11.0211 67.0701 11.0594 67.0334 11.0828C66.9968 11.1028 66.9501 11.1128 66.8934 11.1128C66.8334 11.1128 66.7684 11.0961 66.6984 11.0628C66.6318 11.0294 66.5534 10.9928 66.4634 10.9528C66.3734 10.9094 66.2701 10.8711 66.1534 10.8378C66.0401 10.8044 65.9051 10.7878 65.7484 10.7878C65.5051 10.7878 65.3134 10.8394 65.1734 10.9428C65.0368 11.0461 64.9684 11.1811 64.9684 11.3478C64.9684 11.4578 65.0034 11.5511 65.0734 11.6278C65.1468 11.7011 65.2418 11.7661 65.3584 11.8228C65.4784 11.8794 65.6134 11.9311 65.7634 11.9778C65.9134 12.0211 66.0651 12.0694 66.2184 12.1228C66.3751 12.1761 66.5284 12.2378 66.6784 12.3078C66.8284 12.3744 66.9618 12.4611 67.0784 12.5678C67.1984 12.6711 67.2934 12.7961 67.3634 12.9428C67.4368 13.0894 67.4734 13.2661 67.4734 13.4728C67.4734 13.7194 67.4284 13.9478 67.3384 14.1578C67.2518 14.3644 67.1218 14.5444 66.9484 14.6978C66.7751 14.8478 66.5601 14.9661 66.3034 15.0528C66.0501 15.1361 65.7568 15.1778 65.4234 15.1778C65.2468 15.1778 65.0734 15.1611 64.9034 15.1278C64.7368 15.0978 64.5751 15.0544 64.4184 14.9978C64.2651 14.9411 64.1218 14.8744 63.9884 14.7978C63.8584 14.7211 63.7434 14.6378 63.6434 14.5478L63.9284 14.0778C63.9651 14.0211 64.0084 13.9778 64.0584 13.9478C64.1084 13.9178 64.1718 13.9028 64.2484 13.9028C64.3251 13.9028 64.3968 13.9244 64.4634 13.9678C64.5334 14.0111 64.6134 14.0578 64.7034 14.1078C64.7934 14.1578 64.8984 14.2044 65.0184 14.2478C65.1418 14.2911 65.2968 14.3128 65.4834 14.3128C65.6301 14.3128 65.7551 14.2961 65.8584 14.2628C65.9651 14.2261 66.0518 14.1794 66.1184 14.1228C66.1884 14.0661 66.2384 14.0011 66.2684 13.9278C66.3018 13.8511 66.3184 13.7728 66.3184 13.6928C66.3184 13.5728 66.2818 13.4744 66.2084 13.3978C66.1384 13.3211 66.0434 13.2544 65.9234 13.1978C65.8068 13.1411 65.6718 13.0911 65.5184 13.0478C65.3684 13.0011 65.2134 12.9511 65.0534 12.8978C64.8968 12.8444 64.7418 12.7828 64.5884 12.7128C64.4384 12.6394 64.3034 12.5478 64.1834 12.4378C64.0668 12.3278 63.9718 12.1928 63.8984 12.0328C63.8284 11.8728 63.7934 11.6794 63.7934 11.4528C63.7934 11.2428 63.8351 11.0428 63.9184 10.8528C64.0018 10.6628 64.1234 10.4978 64.2834 10.3578C64.4468 10.2144 64.6484 10.1011 64.8884 10.0178C65.1318 9.93111 65.4118 9.88778 65.7284 9.88778C66.0818 9.88778 66.4034 9.94611 66.6934 10.0628C66.9834 10.1794 67.2251 10.3328 67.4184 10.5228L67.1384 10.9678ZM80.5813 7.86778L78.3363 15.0978H77.1213L75.5413 10.1578C75.4979 10.0378 75.4579 9.89111 75.4213 9.71778C75.4013 9.80111 75.3813 9.87944 75.3613 9.95278C75.3413 10.0261 75.3196 10.0944 75.2962 10.1578L73.7013 15.0978H72.4813L70.2413 7.86778H71.3663C71.4829 7.86778 71.5796 7.89611 71.6563 7.95278C71.7363 8.00611 71.7896 8.07944 71.8163 8.17278L73.0463 12.4978C73.0729 12.6044 73.0979 12.7211 73.1213 12.8478C73.1479 12.9711 73.1746 13.1011 73.2013 13.2378C73.2279 13.0978 73.2563 12.9661 73.2863 12.8428C73.3196 12.7194 73.3546 12.6044 73.3913 12.4978L74.8113 8.17278C74.8379 8.09611 74.8896 8.02611 74.9663 7.96278C75.0463 7.89944 75.1429 7.86778 75.2563 7.86778H75.6513C75.7679 7.86778 75.8629 7.89611 75.9363 7.95278C76.0096 8.00944 76.0646 8.08278 76.1013 8.17278L77.5163 12.4978C77.5863 12.7044 77.6496 12.9428 77.7063 13.2128C77.7496 12.9494 77.7979 12.7111 77.8513 12.4978L79.0813 8.17278C79.1013 8.08944 79.1513 8.01778 79.2313 7.95778C79.3146 7.89778 79.4129 7.86778 79.5263 7.86778H80.5813ZM83.9736 11.9428C83.9736 11.7828 83.9503 11.6328 83.9036 11.4928C83.8603 11.3494 83.7936 11.2244 83.7036 11.1178C83.6136 11.0111 83.4986 10.9278 83.3586 10.8678C83.2219 10.8044 83.0619 10.7728 82.8786 10.7728C82.5219 10.7728 82.2403 10.8744 82.0336 11.0778C81.8303 11.2811 81.7003 11.5694 81.6436 11.9428H83.9736ZM81.6186 12.6878C81.6386 12.9511 81.6853 13.1794 81.7586 13.3728C81.8319 13.5628 81.9286 13.7211 82.0486 13.8478C82.1686 13.9711 82.3103 14.0644 82.4736 14.1278C82.6403 14.1878 82.8236 14.2178 83.0236 14.2178C83.2236 14.2178 83.3953 14.1944 83.5386 14.1478C83.6853 14.1011 83.8119 14.0494 83.9186 13.9928C84.0286 13.9361 84.1236 13.8844 84.2036 13.8378C84.2869 13.7911 84.3669 13.7678 84.4436 13.7678C84.5469 13.7678 84.6236 13.8061 84.6736 13.8828L85.0286 14.3328C84.8919 14.4928 84.7386 14.6278 84.5686 14.7378C84.3986 14.8444 84.2203 14.9311 84.0336 14.9978C83.8503 15.0611 83.6619 15.1061 83.4686 15.1328C83.2786 15.1594 83.0936 15.1728 82.9136 15.1728C82.5569 15.1728 82.2253 15.1144 81.9186 14.9978C81.6119 14.8778 81.3453 14.7028 81.1186 14.4728C80.8919 14.2394 80.7136 13.9528 80.5836 13.6128C80.4536 13.2694 80.3886 12.8728 80.3886 12.4228C80.3886 12.0728 80.4453 11.7444 80.5586 11.4378C80.6719 11.1278 80.8336 10.8594 81.0436 10.6328C81.2569 10.4028 81.5153 10.2211 81.8186 10.0878C82.1253 9.95444 82.4703 9.88778 82.8536 9.88778C83.1769 9.88778 83.4753 9.93944 83.7486 10.0428C84.0219 10.1461 84.2569 10.2978 84.4536 10.4978C84.6503 10.6944 84.8036 10.9378 84.9136 11.2278C85.0269 11.5144 85.0836 11.8428 85.0836 12.2128C85.0836 12.3994 85.0636 12.5261 85.0236 12.5928C84.9836 12.6561 84.9069 12.6878 84.7936 12.6878H81.6186ZM87.2904 9.96778V15.0978H86.0504V9.96778H87.2904ZM87.4604 8.47278C87.4604 8.57944 87.4387 8.67944 87.3954 8.77278C87.3521 8.86611 87.2937 8.94778 87.2204 9.01778C87.1504 9.08778 87.0671 9.14444 86.9704 9.18778C86.8737 9.22778 86.7704 9.24778 86.6604 9.24778C86.5537 9.24778 86.4521 9.22778 86.3554 9.18778C86.2621 9.14444 86.1804 9.08778 86.1104 9.01778C86.0404 8.94778 85.9837 8.86611 85.9404 8.77278C85.9004 8.67944 85.8804 8.57944 85.8804 8.47278C85.8804 8.36278 85.9004 8.25944 85.9404 8.16278C85.9837 8.06611 86.0404 7.98278 86.1104 7.91278C86.1804 7.84278 86.2621 7.78778 86.3554 7.74778C86.4521 7.70444 86.5537 7.68278 86.6604 7.68278C86.7704 7.68278 86.8737 7.70444 86.9704 7.74778C87.0671 7.78778 87.1504 7.84278 87.2204 7.91278C87.2937 7.98278 87.3521 8.06611 87.3954 8.16278C87.4387 8.25944 87.4604 8.36278 87.4604 8.47278ZM90.4245 12.4078C90.5778 12.4078 90.7111 12.3878 90.8245 12.3478C90.9378 12.3044 91.0311 12.2461 91.1045 12.1728C91.1811 12.0994 91.2378 12.0111 91.2745 11.9078C91.3145 11.8044 91.3345 11.6911 91.3345 11.5678C91.3345 11.3144 91.2578 11.1144 91.1045 10.9678C90.9545 10.8178 90.7278 10.7428 90.4245 10.7428C90.1211 10.7428 89.8928 10.8178 89.7395 10.9678C89.5895 11.1144 89.5145 11.3144 89.5145 11.5678C89.5145 11.6878 89.5328 11.7994 89.5695 11.9028C89.6095 12.0061 89.6661 12.0961 89.7395 12.1728C89.8161 12.2461 89.9111 12.3044 90.0245 12.3478C90.1411 12.3878 90.2745 12.4078 90.4245 12.4078ZM91.8195 15.3278C91.8195 15.2278 91.7895 15.1461 91.7295 15.0828C91.6695 15.0194 91.5878 14.9711 91.4845 14.9378C91.3811 14.9011 91.2595 14.8744 91.1195 14.8578C90.9828 14.8411 90.8361 14.8294 90.6795 14.8228C90.5261 14.8128 90.3661 14.8044 90.1995 14.7978C90.0361 14.7911 89.8761 14.7778 89.7195 14.7578C89.5828 14.8344 89.4711 14.9244 89.3845 15.0278C89.3011 15.1311 89.2595 15.2511 89.2595 15.3878C89.2595 15.4778 89.2811 15.5611 89.3245 15.6378C89.3711 15.7178 89.4428 15.7861 89.5395 15.8428C89.6395 15.8994 89.7678 15.9428 89.9245 15.9728C90.0811 16.0061 90.2728 16.0228 90.4995 16.0228C90.7295 16.0228 90.9278 16.0044 91.0945 15.9678C91.2611 15.9344 91.3978 15.8861 91.5045 15.8228C91.6145 15.7628 91.6945 15.6894 91.7445 15.6028C91.7945 15.5194 91.8195 15.4278 91.8195 15.3278ZM93.0495 10.1428V10.6028C93.0495 10.7494 92.9611 10.8394 92.7845 10.8728L92.3245 10.9578C92.3945 11.1344 92.4295 11.3278 92.4295 11.5378C92.4295 11.7911 92.3778 12.0211 92.2745 12.2278C92.1745 12.4311 92.0345 12.6044 91.8545 12.7478C91.6745 12.8911 91.4611 13.0028 91.2145 13.0828C90.9711 13.1594 90.7078 13.1978 90.4245 13.1978C90.3245 13.1978 90.2278 13.1928 90.1345 13.1828C90.0411 13.1728 89.9495 13.1594 89.8595 13.1428C89.6995 13.2394 89.6195 13.3478 89.6195 13.4678C89.6195 13.5711 89.6661 13.6478 89.7595 13.6978C89.8561 13.7444 89.9828 13.7778 90.1395 13.7978C90.2961 13.8178 90.4745 13.8311 90.6745 13.8378C90.8745 13.8411 91.0795 13.8511 91.2895 13.8678C91.4995 13.8844 91.7045 13.9144 91.9045 13.9578C92.1045 13.9978 92.2828 14.0628 92.4395 14.1528C92.5961 14.2428 92.7211 14.3661 92.8145 14.5228C92.9111 14.6761 92.9595 14.8744 92.9595 15.1178C92.9595 15.3444 92.9028 15.5644 92.7895 15.7778C92.6795 15.9911 92.5178 16.1811 92.3045 16.3478C92.0945 16.5144 91.8345 16.6478 91.5245 16.7478C91.2178 16.8511 90.8678 16.9028 90.4745 16.9028C90.0878 16.9028 89.7511 16.8644 89.4645 16.7878C89.1778 16.7144 88.9395 16.6144 88.7495 16.4878C88.5595 16.3644 88.4178 16.2211 88.3245 16.0578C88.2311 15.8944 88.1845 15.7244 88.1845 15.5478C88.1845 15.3078 88.2561 15.1078 88.3995 14.9478C88.5461 14.7844 88.7461 14.6544 88.9995 14.5578C88.8628 14.4878 88.7545 14.3944 88.6745 14.2778C88.5945 14.1611 88.5545 14.0078 88.5545 13.8178C88.5545 13.7411 88.5678 13.6628 88.5945 13.5828C88.6245 13.4994 88.6661 13.4178 88.7195 13.3378C88.7761 13.2578 88.8461 13.1828 88.9295 13.1128C89.0128 13.0394 89.1111 12.9744 89.2245 12.9178C88.9645 12.7778 88.7595 12.5911 88.6095 12.3578C88.4628 12.1244 88.3895 11.8511 88.3895 11.5378C88.3895 11.2844 88.4395 11.0561 88.5395 10.8528C88.6428 10.6461 88.7845 10.4711 88.9645 10.3278C89.1478 10.1811 89.3628 10.0694 89.6095 9.99278C89.8595 9.91611 90.1311 9.87778 90.4245 9.87778C90.6445 9.87778 90.8511 9.90111 91.0445 9.94778C91.2378 9.99111 91.4145 10.0561 91.5745 10.1428H93.0495ZM95.0677 10.5178C95.2677 10.3311 95.4877 10.1794 95.7277 10.0628C95.9677 9.94611 96.2493 9.88778 96.5727 9.88778C96.8527 9.88778 97.101 9.93611 97.3177 10.0328C97.5343 10.1261 97.7143 10.2594 97.8577 10.4328C98.0043 10.6028 98.1143 10.8078 98.1877 11.0478C98.2643 11.2844 98.3027 11.5461 98.3027 11.8328V15.0978H97.0677V11.8328C97.0677 11.5194 96.996 11.2778 96.8527 11.1078C96.7093 10.9344 96.491 10.8478 96.1977 10.8478C95.9843 10.8478 95.7843 10.8961 95.5977 10.9928C95.411 11.0894 95.2343 11.2211 95.0677 11.3878V15.0978H93.8327V7.66778H95.0677V10.5178ZM101.119 15.1778C100.672 15.1778 100.329 15.0528 100.089 14.8028C99.8522 14.5494 99.7338 14.2011 99.7338 13.7578V10.8928H99.2088C99.1422 10.8928 99.0855 10.8711 99.0388 10.8278C98.9922 10.7844 98.9688 10.7194 98.9688 10.6328V10.1428L99.7938 10.0078L100.054 8.60778C100.07 8.54111 100.102 8.48944 100.149 8.45278C100.195 8.41611 100.255 8.39778 100.329 8.39778H100.969V10.0128H102.339V10.8928H100.969V13.6728C100.969 13.8328 101.007 13.9578 101.084 14.0478C101.164 14.1378 101.272 14.1828 101.409 14.1828C101.485 14.1828 101.549 14.1744 101.599 14.1578C101.652 14.1378 101.697 14.1178 101.734 14.0978C101.774 14.0778 101.809 14.0594 101.839 14.0428C101.869 14.0228 101.899 14.0128 101.929 14.0128C101.965 14.0128 101.995 14.0228 102.019 14.0428C102.042 14.0594 102.067 14.0861 102.094 14.1228L102.464 14.7228C102.284 14.8728 102.077 14.9861 101.844 15.0628C101.61 15.1394 101.369 15.1778 101.119 15.1778Z" fill="white"/>
<path d="M42.908 27.8183C43.5853 27.2743 44.116 26.829 44.5 26.4823C44.884 26.1303 45.2067 25.765 45.468 25.3863C45.7347 25.0023 45.868 24.6263 45.868 24.2583C45.868 23.9117 45.7827 23.6397 45.612 23.4423C45.4467 23.2397 45.1773 23.1383 44.804 23.1383C44.4413 23.1383 44.1587 23.253 43.956 23.4823C43.7587 23.7063 43.652 24.0077 43.636 24.3863H42.932C42.9533 23.789 43.1347 23.3277 43.476 23.0023C43.8173 22.677 44.2573 22.5143 44.796 22.5143C45.3453 22.5143 45.78 22.6663 46.1 22.9703C46.4253 23.2743 46.588 23.693 46.588 24.2263C46.588 24.669 46.4547 25.101 46.188 25.5223C45.9267 25.9383 45.628 26.3063 45.292 26.6263C44.956 26.941 44.5267 27.309 44.004 27.7303H46.756V28.3383H42.908V27.8183ZM47.5816 24.0743C47.6189 23.5837 47.8082 23.1997 48.1496 22.9223C48.4909 22.645 48.9336 22.5063 49.4776 22.5063C49.8402 22.5063 50.1522 22.573 50.4136 22.7063C50.6802 22.8343 50.8802 23.0103 51.0136 23.2343C51.1522 23.4583 51.2216 23.7117 51.2216 23.9943C51.2216 24.325 51.1256 24.6103 50.9336 24.8503C50.7469 25.0903 50.5016 25.245 50.1976 25.3143V25.3543C50.5442 25.4397 50.8189 25.6077 51.0216 25.8583C51.2242 26.109 51.3256 26.437 51.3256 26.8423C51.3256 27.1463 51.2562 27.421 51.1176 27.6663C50.9789 27.9063 50.7709 28.0957 50.4936 28.2343C50.2162 28.373 49.8829 28.4423 49.4936 28.4423C48.9282 28.4423 48.4642 28.2957 48.1016 28.0023C47.7389 27.7037 47.5362 27.2823 47.4936 26.7383H48.1976C48.2349 27.0583 48.3656 27.3197 48.5896 27.5223C48.8136 27.725 49.1122 27.8263 49.4856 27.8263C49.8589 27.8263 50.1416 27.7303 50.3336 27.5383C50.5309 27.341 50.6296 27.0877 50.6296 26.7783C50.6296 26.3783 50.4962 26.0903 50.2296 25.9143C49.9629 25.7383 49.5602 25.6503 49.0216 25.6503H48.8376V25.0423H49.0296C49.5202 25.037 49.8909 24.957 50.1416 24.8023C50.3922 24.6423 50.5176 24.397 50.5176 24.0663C50.5176 23.7837 50.4242 23.557 50.2376 23.3863C50.0562 23.2157 49.7949 23.1303 49.4536 23.1303C49.1229 23.1303 48.8562 23.2157 48.6536 23.3863C48.4509 23.557 48.3309 23.7863 48.2936 24.0743H47.5816ZM52.6605 28.4503C52.5218 28.4503 52.4045 28.4023 52.3085 28.3063C52.2125 28.2103 52.1645 28.093 52.1645 27.9543C52.1645 27.8157 52.2125 27.6983 52.3085 27.6023C52.4045 27.5063 52.5218 27.4583 52.6605 27.4583C52.7938 27.4583 52.9058 27.5063 52.9965 27.6023C53.0925 27.6983 53.1405 27.8157 53.1405 27.9543C53.1405 28.093 53.0925 28.2103 52.9965 28.3063C52.9058 28.4023 52.7938 28.4503 52.6605 28.4503ZM53.9882 25.4503C53.9882 24.533 54.1375 23.8183 54.4362 23.3063C54.7349 22.789 55.2575 22.5303 56.0042 22.5303C56.7455 22.5303 57.2655 22.789 57.5642 23.3063C57.8629 23.8183 58.0122 24.533 58.0122 25.4503C58.0122 26.3837 57.8629 27.109 57.5642 27.6263C57.2655 28.1437 56.7455 28.4023 56.0042 28.4023C55.2575 28.4023 54.7349 28.1437 54.4362 27.6263C54.1375 27.109 53.9882 26.3837 53.9882 25.4503ZM57.2922 25.4503C57.2922 24.9863 57.2602 24.5943 57.1962 24.2743C57.1375 23.949 57.0122 23.6877 56.8202 23.4903C56.6335 23.293 56.3615 23.1943 56.0042 23.1943C55.6415 23.1943 55.3642 23.293 55.1722 23.4903C54.9855 23.6877 54.8602 23.949 54.7962 24.2743C54.7375 24.5943 54.7082 24.9863 54.7082 25.4503C54.7082 25.9303 54.7375 26.333 54.7962 26.6583C54.8602 26.9837 54.9855 27.245 55.1722 27.4423C55.3642 27.6397 55.6415 27.7383 56.0042 27.7383C56.3615 27.7383 56.6335 27.6397 56.8202 27.4423C57.0122 27.245 57.1375 26.9837 57.1962 26.6583C57.2602 26.333 57.2922 25.9303 57.2922 25.4503ZM60.0676 25.3943C59.769 25.277 59.5396 25.1063 59.3796 24.8823C59.2196 24.6583 59.1396 24.3863 59.1396 24.0663C59.1396 23.7783 59.2116 23.5197 59.3556 23.2903C59.4996 23.0557 59.713 22.8717 59.9956 22.7383C60.2836 22.5997 60.6303 22.5303 61.0356 22.5303C61.441 22.5303 61.785 22.5997 62.0676 22.7383C62.3556 22.8717 62.5716 23.0557 62.7156 23.2903C62.865 23.5197 62.9396 23.7783 62.9396 24.0663C62.9396 24.3757 62.857 24.6477 62.6916 24.8823C62.5263 25.1117 62.2996 25.2823 62.0116 25.3943C62.3423 25.4957 62.6036 25.6743 62.7956 25.9303C62.993 26.181 63.0916 26.485 63.0916 26.8423C63.0916 27.189 63.0063 27.493 62.8356 27.7543C62.665 28.0103 62.4223 28.2103 62.1076 28.3543C61.7983 28.493 61.441 28.5623 61.0356 28.5623C60.6303 28.5623 60.273 28.493 59.9636 28.3543C59.6596 28.2103 59.4223 28.0103 59.2516 27.7543C59.081 27.493 58.9956 27.189 58.9956 26.8423C58.9956 26.485 59.0916 26.1783 59.2836 25.9223C59.4756 25.6663 59.737 25.4903 60.0676 25.3943ZM62.2356 24.1543C62.2356 23.829 62.129 23.5783 61.9156 23.4023C61.7023 23.2263 61.409 23.1383 61.0356 23.1383C60.6676 23.1383 60.377 23.2263 60.1636 23.4023C59.9503 23.5783 59.8436 23.8317 59.8436 24.1623C59.8436 24.461 59.953 24.701 60.1716 24.8823C60.3956 25.0637 60.6836 25.1543 61.0356 25.1543C61.393 25.1543 61.681 25.0637 61.8996 24.8823C62.1236 24.6957 62.2356 24.453 62.2356 24.1543ZM61.0356 25.7143C60.641 25.7143 60.3183 25.8077 60.0676 25.9943C59.817 26.1757 59.6916 26.4503 59.6916 26.8183C59.6916 27.1597 59.8116 27.4343 60.0516 27.6423C60.297 27.8503 60.625 27.9543 61.0356 27.9543C61.4463 27.9543 61.7716 27.8503 62.0116 27.6423C62.2516 27.4343 62.3716 27.1597 62.3716 26.8183C62.3716 26.461 62.249 26.189 62.0036 26.0023C61.7583 25.8103 61.4356 25.7143 61.0356 25.7143ZM64.0585 25.4503C64.0585 24.533 64.2078 23.8183 64.5065 23.3063C64.8052 22.789 65.3278 22.5303 66.0745 22.5303C66.8158 22.5303 67.3358 22.789 67.6345 23.3063C67.9332 23.8183 68.0825 24.533 68.0825 25.4503C68.0825 26.3837 67.9332 27.109 67.6345 27.6263C67.3358 28.1437 66.8158 28.4023 66.0745 28.4023C65.3278 28.4023 64.8052 28.1437 64.5065 27.6263C64.2078 27.109 64.0585 26.3837 64.0585 25.4503ZM67.3625 25.4503C67.3625 24.9863 67.3305 24.5943 67.2665 24.2743C67.2078 23.949 67.0825 23.6877 66.8905 23.4903C66.7038 23.293 66.4318 23.1943 66.0745 23.1943C65.7118 23.1943 65.4345 23.293 65.2425 23.4903C65.0558 23.6877 64.9305 23.949 64.8665 24.2743C64.8078 24.5943 64.7785 24.9863 64.7785 25.4503C64.7785 25.9303 64.8078 26.333 64.8665 26.6583C64.9305 26.9837 65.0558 27.245 65.2425 27.4423C65.4345 27.6397 65.7118 27.7383 66.0745 27.7383C66.4318 27.7383 66.7038 27.6397 66.8905 27.4423C67.0825 27.245 67.2078 26.9837 67.2665 26.6583C67.3305 26.333 67.3625 25.9303 67.3625 25.4503ZM73.7828 28.4023L72.0628 26.4663V28.4023H71.3348V22.4823H72.0628V25.9623L73.7508 24.0183H74.7668L72.7028 26.2023L74.7748 28.4023H73.7828ZM77.2599 23.9463C77.6386 23.9463 77.9693 24.029 78.2519 24.1943C78.5399 24.3597 78.7533 24.5677 78.8919 24.8183V24.0183H79.6279V28.4983C79.6279 28.8983 79.5426 29.253 79.3719 29.5623C79.2013 29.877 78.9559 30.1223 78.6359 30.2983C78.3213 30.4743 77.9533 30.5623 77.5319 30.5623C76.9559 30.5623 76.4759 30.4263 76.0919 30.1543C75.7079 29.8823 75.4813 29.5117 75.4119 29.0423H76.1319C76.2119 29.309 76.3773 29.5223 76.6279 29.6823C76.8786 29.8477 77.1799 29.9303 77.5319 29.9303C77.9319 29.9303 78.2573 29.805 78.5079 29.5543C78.7639 29.3037 78.8919 28.9517 78.8919 28.4983V27.5783C78.7479 27.8343 78.5346 28.0477 78.2519 28.2183C77.9693 28.389 77.6386 28.4743 77.2599 28.4743C76.8706 28.4743 76.5159 28.3783 76.1959 28.1863C75.8813 27.9943 75.6333 27.725 75.4519 27.3783C75.2706 27.0317 75.1799 26.637 75.1799 26.1943C75.1799 25.7463 75.2706 25.3543 75.4519 25.0183C75.6333 24.677 75.8813 24.413 76.1959 24.2263C76.5159 24.0397 76.8706 23.9463 77.2599 23.9463ZM78.8919 26.2023C78.8919 25.8717 78.8253 25.5837 78.6919 25.3383C78.5586 25.093 78.3773 24.9063 78.1479 24.7783C77.9239 24.645 77.6759 24.5783 77.4039 24.5783C77.1319 24.5783 76.8839 24.6423 76.6599 24.7703C76.4359 24.8983 76.2573 25.085 76.1239 25.3303C75.9906 25.5757 75.9239 25.8637 75.9239 26.1943C75.9239 26.5303 75.9906 26.8237 76.1239 27.0743C76.2573 27.3197 76.4359 27.509 76.6599 27.6423C76.8839 27.7703 77.1319 27.8343 77.4039 27.8343C77.6759 27.8343 77.9239 27.7703 78.1479 27.6423C78.3773 27.509 78.5586 27.3197 78.6919 27.0743C78.8253 26.8237 78.8919 26.533 78.8919 26.2023ZM82.4102 28.4743C82.0742 28.4743 81.7729 28.4183 81.5062 28.3063C81.2395 28.189 81.0289 28.029 80.8742 27.8263C80.7195 27.6183 80.6342 27.381 80.6182 27.1143H81.3702C81.3915 27.333 81.4929 27.5117 81.6742 27.6503C81.8609 27.789 82.1035 27.8583 82.4022 27.8583C82.6795 27.8583 82.8982 27.797 83.0582 27.6743C83.2182 27.5517 83.2982 27.397 83.2982 27.2103C83.2982 27.0183 83.2129 26.877 83.0422 26.7863C82.8715 26.6903 82.6075 26.597 82.2502 26.5063C81.9249 26.421 81.6582 26.3357 81.4502 26.2503C81.2475 26.1597 81.0715 26.029 80.9222 25.8583C80.7782 25.6823 80.7062 25.453 80.7062 25.1703C80.7062 24.9463 80.7729 24.741 80.9062 24.5543C81.0395 24.3677 81.2289 24.221 81.4742 24.1143C81.7195 24.0023 81.9995 23.9463 82.3142 23.9463C82.7995 23.9463 83.1915 24.069 83.4902 24.3143C83.7889 24.5597 83.9489 24.8957 83.9702 25.3223H83.2422C83.2262 25.093 83.1329 24.909 82.9622 24.7703C82.7969 24.6317 82.5729 24.5623 82.2902 24.5623C82.0289 24.5623 81.8209 24.6183 81.6662 24.7303C81.5115 24.8423 81.4342 24.989 81.4342 25.1703C81.4342 25.3143 81.4795 25.4343 81.5702 25.5303C81.6662 25.621 81.7835 25.6957 81.9222 25.7543C82.0662 25.8077 82.2635 25.869 82.5142 25.9383C82.8289 26.0237 83.0849 26.109 83.2822 26.1943C83.4795 26.2743 83.6475 26.397 83.7862 26.5623C83.9302 26.7277 84.0049 26.9437 84.0102 27.2103C84.0102 27.4503 83.9435 27.6663 83.8102 27.8583C83.6769 28.0503 83.4875 28.2023 83.2422 28.3143C83.0022 28.421 82.7249 28.4743 82.4102 28.4743Z" fill="white"/>
<defs>
<clipPath id="clip0_811_224">
<rect width="18" height="17" fill="white" transform="translate(9.25 9.75)"/>
</clipPath>
</defs>
</svg>
