<svg width="112" height="37" viewBox="0 0 112 37" fill="none" xmlns="http://www.w3.org/2000/svg">
<rect width="36.5" height="36.5" rx="18.25" fill="white" fill-opacity="0.1"/>
<path d="M18.2491 14.2915C18.4734 14.2915 18.6616 14.2155 18.8136 14.0635C18.9656 13.9115 19.0413 13.7237 19.0408 13.4999C19.0403 13.2761 18.9643 13.0882 18.8128 12.9362C18.6613 12.7842 18.4734 12.7082 18.2491 12.7082C18.0248 12.7082 17.8369 12.7842 17.6854 12.9362C17.534 13.0882 17.458 13.2761 17.4574 13.4999C17.4569 13.7237 17.5329 13.9118 17.6854 14.0643C17.838 14.2169 18.0259 14.2926 18.2491 14.2915ZM20.4856 14.2915H21.871C22.2668 14.2915 22.6099 14.4235 22.9002 14.6874C23.1904 14.9513 23.3686 15.2745 23.4345 15.6572L24.5627 23.5738C24.6286 24.0488 24.5067 24.4679 24.1969 24.831C23.8871 25.1941 23.4878 25.3754 22.9991 25.3749H13.4991C13.0109 25.3749 12.6117 25.1936 12.3013 24.831C11.991 24.4684 11.8691 24.0494 11.9356 23.5738L13.0637 15.6572C13.1297 15.2745 13.3078 14.9513 13.5981 14.6874C13.8883 14.4235 14.2314 14.2915 14.6272 14.2915H16.0127C15.9731 14.1596 15.9401 14.0311 15.9137 13.906C15.8873 13.7809 15.8741 13.6455 15.8741 13.4999C15.8741 12.8402 16.105 12.2794 16.5668 11.8176C17.0286 11.3558 17.5894 11.1249 18.2491 11.1249C18.9088 11.1249 19.4696 11.3558 19.9314 11.8176C20.3932 12.2794 20.6241 12.8402 20.6241 13.4999C20.6241 13.645 20.6109 13.7804 20.5845 13.906C20.5581 14.0316 20.5252 14.1601 20.4856 14.2915Z" fill="white"/>
<path d="M52.925 7.86778L50.68 15.0978H49.465L47.885 10.1578C47.8417 10.0378 47.8017 9.89111 47.765 9.71778C47.745 9.80111 47.725 9.87944 47.705 9.95278C47.685 10.0261 47.6633 10.0944 47.64 10.1578L46.045 15.0978H44.825L42.585 7.86778H43.71C43.8267 7.86778 43.9233 7.89611 44 7.95278C44.08 8.00611 44.1333 8.07944 44.16 8.17278L45.39 12.4978C45.4167 12.6044 45.4417 12.7211 45.465 12.8478C45.4917 12.9711 45.5183 13.1011 45.545 13.2378C45.5717 13.0978 45.6 12.9661 45.63 12.8428C45.6633 12.7194 45.6983 12.6044 45.735 12.4978L47.155 8.17278C47.1817 8.09611 47.2333 8.02611 47.31 7.96278C47.39 7.89944 47.4867 7.86778 47.6 7.86778H47.995C48.1117 7.86778 48.2067 7.89611 48.28 7.95278C48.3533 8.00944 48.4083 8.08278 48.445 8.17278L49.86 12.4978C49.93 12.7044 49.9933 12.9428 50.05 13.2128C50.0933 12.9494 50.1417 12.7111 50.195 12.4978L51.425 8.17278C51.445 8.08944 51.495 8.01778 51.575 7.95778C51.6583 7.89778 51.7567 7.86778 51.87 7.86778H52.925ZM56.3173 11.9428C56.3173 11.7828 56.294 11.6328 56.2473 11.4928C56.204 11.3494 56.1373 11.2244 56.0473 11.1178C55.9573 11.0111 55.8423 10.9278 55.7023 10.8678C55.5657 10.8044 55.4057 10.7728 55.2223 10.7728C54.8657 10.7728 54.584 10.8744 54.3773 11.0778C54.174 11.2811 54.044 11.5694 53.9873 11.9428H56.3173ZM53.9623 12.6878C53.9823 12.9511 54.029 13.1794 54.1023 13.3728C54.1757 13.5628 54.2723 13.7211 54.3923 13.8478C54.5123 13.9711 54.654 14.0644 54.8173 14.1278C54.984 14.1878 55.1673 14.2178 55.3673 14.2178C55.5673 14.2178 55.739 14.1944 55.8823 14.1478C56.029 14.1011 56.1557 14.0494 56.2623 13.9928C56.3723 13.9361 56.4673 13.8844 56.5473 13.8378C56.6307 13.7911 56.7107 13.7678 56.7873 13.7678C56.8907 13.7678 56.9673 13.8061 57.0173 13.8828L57.3723 14.3328C57.2357 14.4928 57.0823 14.6278 56.9123 14.7378C56.7423 14.8444 56.564 14.9311 56.3773 14.9978C56.194 15.0611 56.0057 15.1061 55.8123 15.1328C55.6223 15.1594 55.4373 15.1728 55.2573 15.1728C54.9007 15.1728 54.569 15.1144 54.2623 14.9978C53.9557 14.8778 53.689 14.7028 53.4623 14.4728C53.2357 14.2394 53.0573 13.9528 52.9273 13.6128C52.7973 13.2694 52.7323 12.8728 52.7323 12.4228C52.7323 12.0728 52.789 11.7444 52.9023 11.4378C53.0157 11.1278 53.1773 10.8594 53.3873 10.6328C53.6007 10.4028 53.859 10.2211 54.1623 10.0878C54.469 9.95444 54.814 9.88778 55.1973 9.88778C55.5207 9.88778 55.819 9.93944 56.0923 10.0428C56.3657 10.1461 56.6007 10.2978 56.7973 10.4978C56.994 10.6944 57.1473 10.9378 57.2573 11.2278C57.3707 11.5144 57.4273 11.8428 57.4273 12.2128C57.4273 12.3994 57.4073 12.5261 57.3673 12.5928C57.3273 12.6561 57.2507 12.6878 57.1373 12.6878H53.9623ZM59.6341 9.96778V15.0978H58.3941V9.96778H59.6341ZM59.8041 8.47278C59.8041 8.57944 59.7825 8.67944 59.7391 8.77278C59.6958 8.86611 59.6375 8.94778 59.5641 9.01778C59.4941 9.08778 59.4108 9.14444 59.3141 9.18778C59.2175 9.22778 59.1141 9.24778 59.0041 9.24778C58.8975 9.24778 58.7958 9.22778 58.6991 9.18778C58.6058 9.14444 58.5241 9.08778 58.4541 9.01778C58.3841 8.94778 58.3275 8.86611 58.2841 8.77278C58.2441 8.67944 58.2241 8.57944 58.2241 8.47278C58.2241 8.36278 58.2441 8.25944 58.2841 8.16278C58.3275 8.06611 58.3841 7.98278 58.4541 7.91278C58.5241 7.84278 58.6058 7.78778 58.6991 7.74778C58.7958 7.70444 58.8975 7.68278 59.0041 7.68278C59.1141 7.68278 59.2175 7.70444 59.3141 7.74778C59.4108 7.78778 59.4941 7.84278 59.5641 7.91278C59.6375 7.98278 59.6958 8.06611 59.7391 8.16278C59.7825 8.25944 59.8041 8.36278 59.8041 8.47278ZM62.7682 12.4078C62.9215 12.4078 63.0549 12.3878 63.1682 12.3478C63.2815 12.3044 63.3749 12.2461 63.4482 12.1728C63.5249 12.0994 63.5815 12.0111 63.6182 11.9078C63.6582 11.8044 63.6782 11.6911 63.6782 11.5678C63.6782 11.3144 63.6015 11.1144 63.4482 10.9678C63.2982 10.8178 63.0715 10.7428 62.7682 10.7428C62.4649 10.7428 62.2365 10.8178 62.0832 10.9678C61.9332 11.1144 61.8582 11.3144 61.8582 11.5678C61.8582 11.6878 61.8765 11.7994 61.9132 11.9028C61.9532 12.0061 62.0099 12.0961 62.0832 12.1728C62.1599 12.2461 62.2549 12.3044 62.3682 12.3478C62.4849 12.3878 62.6182 12.4078 62.7682 12.4078ZM64.1632 15.3278C64.1632 15.2278 64.1332 15.1461 64.0732 15.0828C64.0132 15.0194 63.9315 14.9711 63.8282 14.9378C63.7249 14.9011 63.6032 14.8744 63.4632 14.8578C63.3265 14.8411 63.1799 14.8294 63.0232 14.8228C62.8699 14.8128 62.7099 14.8044 62.5432 14.7978C62.3799 14.7911 62.2199 14.7778 62.0632 14.7578C61.9265 14.8344 61.8149 14.9244 61.7282 15.0278C61.6449 15.1311 61.6032 15.2511 61.6032 15.3878C61.6032 15.4778 61.6249 15.5611 61.6682 15.6378C61.7149 15.7178 61.7865 15.7861 61.8832 15.8428C61.9832 15.8994 62.1115 15.9428 62.2682 15.9728C62.4249 16.0061 62.6165 16.0228 62.8432 16.0228C63.0732 16.0228 63.2715 16.0044 63.4382 15.9678C63.6049 15.9344 63.7415 15.8861 63.8482 15.8228C63.9582 15.7628 64.0382 15.6894 64.0882 15.6028C64.1382 15.5194 64.1632 15.4278 64.1632 15.3278ZM65.3932 10.1428V10.6028C65.3932 10.7494 65.3049 10.8394 65.1282 10.8728L64.6682 10.9578C64.7382 11.1344 64.7732 11.3278 64.7732 11.5378C64.7732 11.7911 64.7215 12.0211 64.6182 12.2278C64.5182 12.4311 64.3782 12.6044 64.1982 12.7478C64.0182 12.8911 63.8049 13.0028 63.5582 13.0828C63.3149 13.1594 63.0515 13.1978 62.7682 13.1978C62.6682 13.1978 62.5715 13.1928 62.4782 13.1828C62.3849 13.1728 62.2932 13.1594 62.2032 13.1428C62.0432 13.2394 61.9632 13.3478 61.9632 13.4678C61.9632 13.5711 62.0099 13.6478 62.1032 13.6978C62.1999 13.7444 62.3265 13.7778 62.4832 13.7978C62.6399 13.8178 62.8182 13.8311 63.0182 13.8378C63.2182 13.8411 63.4232 13.8511 63.6332 13.8678C63.8432 13.8844 64.0482 13.9144 64.2482 13.9578C64.4482 13.9978 64.6265 14.0628 64.7832 14.1528C64.9399 14.2428 65.0649 14.3661 65.1582 14.5228C65.2549 14.6761 65.3032 14.8744 65.3032 15.1178C65.3032 15.3444 65.2465 15.5644 65.1332 15.7778C65.0232 15.9911 64.8615 16.1811 64.6482 16.3478C64.4382 16.5144 64.1782 16.6478 63.8682 16.7478C63.5615 16.8511 63.2115 16.9028 62.8182 16.9028C62.4315 16.9028 62.0949 16.8644 61.8082 16.7878C61.5215 16.7144 61.2832 16.6144 61.0932 16.4878C60.9032 16.3644 60.7615 16.2211 60.6682 16.0578C60.5749 15.8944 60.5282 15.7244 60.5282 15.5478C60.5282 15.3078 60.5999 15.1078 60.7432 14.9478C60.8899 14.7844 61.0899 14.6544 61.3432 14.5578C61.2065 14.4878 61.0982 14.3944 61.0182 14.2778C60.9382 14.1611 60.8982 14.0078 60.8982 13.8178C60.8982 13.7411 60.9115 13.6628 60.9382 13.5828C60.9682 13.4994 61.0099 13.4178 61.0632 13.3378C61.1199 13.2578 61.1899 13.1828 61.2732 13.1128C61.3565 13.0394 61.4549 12.9744 61.5682 12.9178C61.3082 12.7778 61.1032 12.5911 60.9532 12.3578C60.8065 12.1244 60.7332 11.8511 60.7332 11.5378C60.7332 11.2844 60.7832 11.0561 60.8832 10.8528C60.9865 10.6461 61.1282 10.4711 61.3082 10.3278C61.4915 10.1811 61.7065 10.0694 61.9532 9.99278C62.2032 9.91611 62.4749 9.87778 62.7682 9.87778C62.9882 9.87778 63.1949 9.90111 63.3882 9.94778C63.5815 9.99111 63.7582 10.0561 63.9182 10.1428H65.3932ZM67.4114 10.5178C67.6114 10.3311 67.8314 10.1794 68.0714 10.0628C68.3114 9.94611 68.5931 9.88778 68.9164 9.88778C69.1964 9.88778 69.4447 9.93611 69.6614 10.0328C69.8781 10.1261 70.0581 10.2594 70.2014 10.4328C70.3481 10.6028 70.4581 10.8078 70.5314 11.0478C70.6081 11.2844 70.6464 11.5461 70.6464 11.8328V15.0978H69.4114V11.8328C69.4114 11.5194 69.3397 11.2778 69.1964 11.1078C69.0531 10.9344 68.8347 10.8478 68.5414 10.8478C68.3281 10.8478 68.1281 10.8961 67.9414 10.9928C67.7547 11.0894 67.5781 11.2211 67.4114 11.3878V15.0978H66.1764V7.66778H67.4114V10.5178ZM73.4626 15.1778C73.0159 15.1778 72.6726 15.0528 72.4326 14.8028C72.1959 14.5494 72.0776 14.2011 72.0776 13.7578V10.8928H71.5526C71.4859 10.8928 71.4292 10.8711 71.3826 10.8278C71.3359 10.7844 71.3126 10.7194 71.3126 10.6328V10.1428L72.1376 10.0078L72.3976 8.60778C72.4142 8.54111 72.4459 8.48944 72.4926 8.45278C72.5392 8.41611 72.5992 8.39778 72.6726 8.39778H73.3126V10.0128H74.6826V10.8928H73.3126V13.6728C73.3126 13.8328 73.3509 13.9578 73.4276 14.0478C73.5076 14.1378 73.6159 14.1828 73.7526 14.1828C73.8292 14.1828 73.8926 14.1744 73.9426 14.1578C73.9959 14.1378 74.0409 14.1178 74.0776 14.0978C74.1176 14.0778 74.1526 14.0594 74.1826 14.0428C74.2126 14.0228 74.2426 14.0128 74.2726 14.0128C74.3092 14.0128 74.3392 14.0228 74.3626 14.0428C74.3859 14.0594 74.4109 14.0861 74.4376 14.1228L74.8076 14.7228C74.6276 14.8728 74.4209 14.9861 74.1876 15.0628C73.9542 15.1394 73.7126 15.1778 73.4626 15.1778Z" fill="white"/>
<path d="M42.98 24.0743C43.0173 23.5837 43.2067 23.1997 43.548 22.9223C43.8893 22.645 44.332 22.5063 44.876 22.5063C45.2387 22.5063 45.5507 22.573 45.812 22.7063C46.0787 22.8343 46.2787 23.0103 46.412 23.2343C46.5507 23.4583 46.62 23.7117 46.62 23.9943C46.62 24.325 46.524 24.6103 46.332 24.8503C46.1453 25.0903 45.9 25.245 45.596 25.3143V25.3543C45.9427 25.4397 46.2173 25.6077 46.42 25.8583C46.6227 26.109 46.724 26.437 46.724 26.8423C46.724 27.1463 46.6547 27.421 46.516 27.6663C46.3773 27.9063 46.1693 28.0957 45.892 28.2343C45.6147 28.373 45.2813 28.4423 44.892 28.4423C44.3267 28.4423 43.8627 28.2957 43.5 28.0023C43.1373 27.7037 42.9347 27.2823 42.892 26.7383H43.596C43.6333 27.0583 43.764 27.3197 43.988 27.5223C44.212 27.725 44.5107 27.8263 44.884 27.8263C45.2573 27.8263 45.54 27.7303 45.732 27.5383C45.9293 27.341 46.028 27.0877 46.028 26.7783C46.028 26.3783 45.8947 26.0903 45.628 25.9143C45.3613 25.7383 44.9587 25.6503 44.42 25.6503H44.236V25.0423H44.428C44.9187 25.037 45.2893 24.957 45.54 24.8023C45.7907 24.6423 45.916 24.397 45.916 24.0663C45.916 23.7837 45.8227 23.557 45.636 23.3863C45.4547 23.2157 45.1933 23.1303 44.852 23.1303C44.5213 23.1303 44.2547 23.2157 44.052 23.3863C43.8493 23.557 43.7293 23.7863 43.692 24.0743H42.98ZM47.5309 27.1143V26.5623L50.3389 22.6743H51.2109V26.4823H52.0109V27.1143H51.2109V28.4023H50.4909V27.1143H47.5309ZM50.5229 23.4343L48.3709 26.4823H50.5229V23.4343ZM53.0902 28.4503C52.9515 28.4503 52.8342 28.4023 52.7382 28.3063C52.6422 28.2103 52.5942 28.093 52.5942 27.9543C52.5942 27.8157 52.6422 27.6983 52.7382 27.6023C52.8342 27.5063 52.9515 27.4583 53.0902 27.4583C53.2235 27.4583 53.3355 27.5063 53.4262 27.6023C53.5222 27.6983 53.5702 27.8157 53.5702 27.9543C53.5702 28.093 53.5222 28.2103 53.4262 28.3063C53.3355 28.4023 53.2235 28.4503 53.0902 28.4503ZM54.4019 24.0743C54.4392 23.5837 54.6285 23.1997 54.9699 22.9223C55.3112 22.645 55.7539 22.5063 56.2979 22.5063C56.6605 22.5063 56.9725 22.573 57.2339 22.7063C57.5005 22.8343 57.7005 23.0103 57.8339 23.2343C57.9725 23.4583 58.0419 23.7117 58.0419 23.9943C58.0419 24.325 57.9459 24.6103 57.7539 24.8503C57.5672 25.0903 57.3219 25.245 57.0179 25.3143V25.3543C57.3645 25.4397 57.6392 25.6077 57.8419 25.8583C58.0445 26.109 58.1459 26.437 58.1459 26.8423C58.1459 27.1463 58.0765 27.421 57.9379 27.6663C57.7992 27.9063 57.5912 28.0957 57.3139 28.2343C57.0365 28.373 56.7032 28.4423 56.3139 28.4423C55.7485 28.4423 55.2845 28.2957 54.9219 28.0023C54.5592 27.7037 54.3565 27.2823 54.3139 26.7383H55.0179C55.0552 27.0583 55.1859 27.3197 55.4099 27.5223C55.6339 27.725 55.9325 27.8263 56.3059 27.8263C56.6792 27.8263 56.9619 27.7303 57.1539 27.5383C57.3512 27.341 57.4499 27.0877 57.4499 26.7783C57.4499 26.3783 57.3165 26.0903 57.0499 25.9143C56.7832 25.7383 56.3805 25.6503 55.8419 25.6503H55.6579V25.0423H55.8499C56.3405 25.037 56.7112 24.957 56.9619 24.8023C57.2125 24.6423 57.3379 24.397 57.3379 24.0663C57.3379 23.7837 57.2445 23.557 57.0579 23.3863C56.8765 23.2157 56.6152 23.1303 56.2739 23.1303C55.9432 23.1303 55.6765 23.2157 55.4739 23.3863C55.2712 23.557 55.1512 23.7863 55.1139 24.0743H54.4019ZM59.1288 25.4503C59.1288 24.533 59.2781 23.8183 59.5768 23.3063C59.8755 22.789 60.3981 22.5303 61.1448 22.5303C61.8861 22.5303 62.4061 22.789 62.7048 23.3063C63.0035 23.8183 63.1528 24.533 63.1528 25.4503C63.1528 26.3837 63.0035 27.109 62.7048 27.6263C62.4061 28.1437 61.8861 28.4023 61.1448 28.4023C60.3981 28.4023 59.8755 28.1437 59.5768 27.6263C59.2781 27.109 59.1288 26.3837 59.1288 25.4503ZM62.4328 25.4503C62.4328 24.9863 62.4008 24.5943 62.3368 24.2743C62.2781 23.949 62.1528 23.6877 61.9608 23.4903C61.7741 23.293 61.5021 23.1943 61.1448 23.1943C60.7821 23.1943 60.5048 23.293 60.3128 23.4903C60.1261 23.6877 60.0008 23.949 59.9368 24.2743C59.8781 24.5943 59.8488 24.9863 59.8488 25.4503C59.8488 25.9303 59.8781 26.333 59.9368 26.6583C60.0008 26.9837 60.1261 27.245 60.3128 27.4423C60.5048 27.6397 60.7821 27.7383 61.1448 27.7383C61.5021 27.7383 61.7741 27.6397 61.9608 27.4423C62.1528 27.245 62.2781 26.9837 62.3368 26.6583C62.4008 26.333 62.4328 25.9303 62.4328 25.4503ZM68.2131 23.9463C68.5917 23.9463 68.9224 24.029 69.2051 24.1943C69.4931 24.3597 69.7064 24.5677 69.8451 24.8183V24.0183H70.5811V28.4983C70.5811 28.8983 70.4957 29.253 70.3251 29.5623C70.1544 29.877 69.9091 30.1223 69.5891 30.2983C69.2744 30.4743 68.9064 30.5623 68.4851 30.5623C67.9091 30.5623 67.4291 30.4263 67.0451 30.1543C66.6611 29.8823 66.4344 29.5117 66.3651 29.0423H67.0851C67.1651 29.309 67.3304 29.5223 67.5811 29.6823C67.8317 29.8477 68.1331 29.9303 68.4851 29.9303C68.8851 29.9303 69.2104 29.805 69.4611 29.5543C69.7171 29.3037 69.8451 28.9517 69.8451 28.4983V27.5783C69.7011 27.8343 69.4877 28.0477 69.2051 28.2183C68.9224 28.389 68.5917 28.4743 68.2131 28.4743C67.8237 28.4743 67.4691 28.3783 67.1491 28.1863C66.8344 27.9943 66.5864 27.725 66.4051 27.3783C66.2237 27.0317 66.1331 26.637 66.1331 26.1943C66.1331 25.7463 66.2237 25.3543 66.4051 25.0183C66.5864 24.677 66.8344 24.413 67.1491 24.2263C67.4691 24.0397 67.8237 23.9463 68.2131 23.9463ZM69.8451 26.2023C69.8451 25.8717 69.7784 25.5837 69.6451 25.3383C69.5117 25.093 69.3304 24.9063 69.1011 24.7783C68.8771 24.645 68.6291 24.5783 68.3571 24.5783C68.0851 24.5783 67.8371 24.6423 67.6131 24.7703C67.3891 24.8983 67.2104 25.085 67.0771 25.3303C66.9437 25.5757 66.8771 25.8637 66.8771 26.1943C66.8771 26.5303 66.9437 26.8237 67.0771 27.0743C67.2104 27.3197 67.3891 27.509 67.6131 27.6423C67.8371 27.7703 68.0851 27.8343 68.3571 27.8343C68.6291 27.8343 68.8771 27.7703 69.1011 27.6423C69.3304 27.509 69.5117 27.3197 69.6451 27.0743C69.7784 26.8237 69.8451 26.533 69.8451 26.2023Z" fill="white"/>
</svg>
