<svg width="97" height="30" viewBox="0 0 97 30" fill="none" xmlns="http://www.w3.org/2000/svg">
<rect x="1.20117" y="2.40234" width="95.7984" height="24.325" rx="11.712" fill="#5ACCDE"/>
<rect x="12.4627" y="4.95289" width="78.9811" height="19.2197" rx="9.60987" stroke="white" stroke-width="0.300308"/>
<circle cx="14.7151" cy="14.7151" r="14.7151" fill="#5ACCDE"/>
<circle cx="14.5663" cy="14.5643" r="11.2616" fill="white"/>
<path fill-rule="evenodd" clip-rule="evenodd" d="M8.28809 15.0535L18.8437 20.0975C19.0925 20.2169 19.3164 19.8585 19.1748 19.5672L16.8161 14.7153L19.1748 9.86347C19.316 9.57236 19.0925 9.21452 18.8437 9.33341L8.28809 14.3775C8.16364 14.4407 8.1072 14.5479 8.10742 14.7156C8.10753 14.8832 8.17964 15.0023 8.28809 15.0535Z" fill="#5ACCDE"/>
<path d="M43.491 18L43.491 12.3513L45.7195 12.3513C46.148 12.3513 46.513 12.4331 46.8145 12.5968C47.1161 12.7586 47.3459 12.9838 47.5041 13.2725C47.6641 13.5594 47.744 13.8903 47.744 14.2654C47.744 14.6406 47.6631 14.9715 47.5013 15.2584C47.3395 15.5452 47.1051 15.7686 46.798 15.9286C46.4928 16.0886 46.1232 16.1686 45.6892 16.1686L44.2688 16.1686L44.2688 15.2115L45.4961 15.2115C45.726 15.2115 45.9154 15.172 46.0643 15.0929C46.2151 15.012 46.3273 14.9007 46.4008 14.7592C46.4762 14.6157 46.5139 14.4512 46.5139 14.2654C46.5139 14.0779 46.4762 13.9142 46.4008 13.7745C46.3273 13.6329 46.2151 13.5235 46.0643 13.4463C45.9135 13.3672 45.7223 13.3277 45.4906 13.3277L44.6852 13.3277L44.6852 18L43.491 18ZM48.1094 18L48.1094 13.7635L49.2485 13.7635L49.2485 14.5026L49.2926 14.5026C49.3698 14.2397 49.4995 14.0411 49.6815 13.9069C49.8636 13.7708 50.0732 13.7028 50.3104 13.7028C50.3692 13.7028 50.4327 13.7065 50.5007 13.7138C50.5687 13.7212 50.6285 13.7313 50.68 13.7442L50.68 14.7867C50.6248 14.7702 50.5485 14.7555 50.451 14.7426C50.3536 14.7297 50.2644 14.7233 50.1835 14.7233C50.0107 14.7233 49.8562 14.761 49.7201 14.8364C49.5859 14.9099 49.4792 15.0129 49.4002 15.1453C49.323 15.2777 49.2843 15.4303 49.2843 15.6032L49.2843 18L48.1094 18ZM52.6326 18.0827C52.1968 18.0827 51.8217 17.9945 51.5073 17.818C51.1947 17.6396 50.9538 17.3877 50.7846 17.0622C50.6155 16.7349 50.5309 16.3479 50.5309 15.901C50.5309 15.4652 50.6155 15.0828 50.7846 14.7536C50.9538 14.4245 51.1919 14.168 51.499 13.9841C51.8079 13.8002 52.1702 13.7083 52.5857 13.7083C52.8652 13.7083 53.1254 13.7533 53.3663 13.8434C53.609 13.9317 53.8205 14.065 54.0007 14.2434C54.1827 14.4217 54.3243 14.6461 54.4254 14.9164C54.5266 15.1848 54.5771 15.4993 54.5771 15.8597L54.5771 16.1824L50.9998 16.1824L50.9998 15.4542L53.4711 15.4542C53.4711 15.285 53.4343 15.1352 53.3608 15.0046C53.2872 14.8741 53.1852 14.772 53.0546 14.6985C52.9259 14.6231 52.776 14.5854 52.605 14.5854C52.4267 14.5854 52.2685 14.6268 52.1306 14.7095C51.9946 14.7904 51.8879 14.8998 51.8107 15.0377C51.7334 15.1738 51.6939 15.3255 51.6921 15.4928L51.6921 16.1851C51.6921 16.3947 51.7307 16.5759 51.8079 16.7285C51.887 16.8811 51.9982 16.9988 52.1417 17.0815C52.2851 17.1643 52.4552 17.2056 52.6519 17.2056C52.7825 17.2056 52.902 17.1873 53.0105 17.1505C53.119 17.1137 53.2118 17.0585 53.2891 16.985C53.3663 16.9114 53.4251 16.8213 53.4656 16.7147L54.5523 16.7864C54.4971 17.0475 54.384 17.2755 54.213 17.4704C54.0439 17.6635 53.8251 17.8143 53.5566 17.9228C53.29 18.0294 52.982 18.0827 52.6326 18.0827ZM58.7915 13.7635L57.3103 18L55.9864 18L54.5053 13.7635L55.7464 13.7635L56.6263 16.7947L56.6704 16.7947L57.5475 13.7635L58.7915 13.7635ZM59.0044 18L59.0044 13.7635L60.1794 13.7635L60.1794 18L59.0044 18ZM59.5946 13.2173C59.4199 13.2173 59.2701 13.1594 59.145 13.0436C59.0219 12.9259 58.9603 12.7852 58.9603 12.6216C58.9603 12.4598 59.0219 12.3209 59.145 12.2051C59.2701 12.0874 59.4199 12.0286 59.5946 12.0286C59.7693 12.0286 59.9183 12.0874 60.0415 12.2051C60.1665 12.3209 60.229 12.4598 60.229 12.6216C60.229 12.7852 60.1665 12.9259 60.0415 13.0436C59.9183 13.1594 59.7693 13.2173 59.5946 13.2173ZM62.663 18.0827C62.2272 18.0827 61.852 17.9945 61.5376 17.818C61.225 17.6396 60.9841 17.3877 60.815 17.0622C60.6458 16.7349 60.5612 16.3479 60.5612 15.901C60.5612 15.4652 60.6458 15.0828 60.815 14.7536C60.9841 14.4245 61.2223 14.168 61.5293 13.9841C61.8383 13.8002 62.2005 13.7083 62.6161 13.7083C62.8956 13.7083 63.1557 13.7533 63.3966 13.8434C63.6393 13.9317 63.8508 14.065 64.031 14.2434C64.213 14.4217 64.3546 14.6461 64.4558 14.9164C64.5569 15.1848 64.6075 15.4993 64.6075 15.8597L64.6075 16.1824L61.0301 16.1824L61.0301 15.4542L63.5014 15.4542C63.5014 15.285 63.4647 15.1352 63.3911 15.0046C63.3176 14.8741 63.2155 14.772 63.0849 14.6985C62.9562 14.6231 62.8064 14.5854 62.6354 14.5854C62.457 14.5854 62.2989 14.6268 62.161 14.7095C62.0249 14.7904 61.9182 14.8998 61.841 15.0377C61.7638 15.1738 61.7243 15.3255 61.7224 15.4928L61.7224 16.1851C61.7224 16.3947 61.761 16.5759 61.8383 16.7285C61.9173 16.8811 62.0286 16.9988 62.172 17.0815C62.3154 17.1643 62.4855 17.2056 62.6823 17.2056C62.8128 17.2056 62.9323 17.1873 63.0408 17.1505C63.1493 17.1137 63.2422 17.0585 63.3194 16.985C63.3966 16.9114 63.4555 16.8213 63.4959 16.7147L64.5826 16.7864C64.5275 17.0475 64.4144 17.2755 64.2434 17.4704C64.0742 17.6635 63.8554 17.8143 63.5869 17.9228C63.3203 18.0294 63.0123 18.0827 62.663 18.0827ZM65.7913 18L64.6383 13.7635L65.8271 13.7635L66.4836 16.6099L66.5222 16.6099L67.2062 13.7635L68.3729 13.7635L69.068 16.5933L69.1038 16.5933L69.7492 13.7635L70.9352 13.7635L69.7851 18L68.5411 18L67.813 15.3356L67.7606 15.3356L67.0324 18L65.7913 18Z" fill="white"/>
</svg>
