<svg width="147" height="37" viewBox="0 0 147 37" fill="none" xmlns="http://www.w3.org/2000/svg">
<rect width="36.5" height="36.5" rx="18.25" fill="#D8EDFC"/>
<path d="M16.4166 20.9974V18.2474M20.0833 20.9974V18.2474M23.7499 20.9974V18.2474M9.08325 14.5807V10.9141M27.4166 12.7474H9.08325M27.4166 14.5807V10.9141M12.7499 20.9974V18.2474" stroke="black" stroke-opacity="0.7" stroke-width="2.06182" stroke-linecap="round" stroke-linejoin="round"/>
<path d="M25.5833 18.248H10.9166C9.90406 18.248 9.08325 19.0689 9.08325 20.0814V23.748C9.08325 24.7606 9.90406 25.5814 10.9166 25.5814H25.5833C26.5958 25.5814 27.4166 24.7606 27.4166 23.748V20.0814C27.4166 19.0689 26.5958 18.248 25.5833 18.248Z" stroke="black" stroke-opacity="0.7" stroke-width="2.06182" stroke-linecap="round" stroke-linejoin="round"/>
<path d="M49.725 11.4827C49.725 12.0127 49.6367 12.4993 49.46 12.9427C49.2833 13.386 49.035 13.7677 48.715 14.0877C48.395 14.4077 48.01 14.656 47.56 14.8327C47.11 15.0093 46.61 15.0977 46.06 15.0977H43.305V7.86766H46.06C46.61 7.86766 47.11 7.95766 47.56 8.13766C48.01 8.31432 48.395 8.56266 48.715 8.88266C49.035 9.19932 49.2833 9.57932 49.46 10.0227C49.6367 10.466 49.725 10.9527 49.725 11.4827ZM48.345 11.4827C48.345 11.086 48.2917 10.731 48.185 10.4177C48.0817 10.101 47.93 9.83432 47.73 9.61766C47.5333 9.39766 47.2933 9.22932 47.01 9.11266C46.73 8.99599 46.4133 8.93766 46.06 8.93766H44.655V14.0277H46.06C46.4133 14.0277 46.73 13.9693 47.01 13.8527C47.2933 13.736 47.5333 13.5693 47.73 13.3527C47.93 13.1327 48.0817 12.866 48.185 12.5527C48.2917 12.236 48.345 11.8793 48.345 11.4827ZM51.9095 9.96766V15.0977H50.6695V9.96766H51.9095ZM52.0795 8.47266C52.0795 8.57932 52.0579 8.67932 52.0145 8.77266C51.9712 8.86599 51.9129 8.94766 51.8395 9.01766C51.7695 9.08766 51.6862 9.14432 51.5895 9.18766C51.4929 9.22766 51.3895 9.24766 51.2795 9.24766C51.1729 9.24766 51.0712 9.22766 50.9745 9.18766C50.8812 9.14432 50.7995 9.08766 50.7295 9.01766C50.6595 8.94766 50.6029 8.86599 50.5595 8.77266C50.5195 8.67932 50.4995 8.57932 50.4995 8.47266C50.4995 8.36266 50.5195 8.25932 50.5595 8.16266C50.6029 8.06599 50.6595 7.98266 50.7295 7.91266C50.7995 7.84266 50.8812 7.78766 50.9745 7.74766C51.0712 7.70432 51.1729 7.68266 51.2795 7.68266C51.3895 7.68266 51.4929 7.70432 51.5895 7.74766C51.6862 7.78766 51.7695 7.84266 51.8395 7.91266C51.9129 7.98266 51.9712 8.06599 52.0145 8.16266C52.0579 8.25932 52.0795 8.36266 52.0795 8.47266ZM53.1686 15.0977V9.96766H53.9236C54.0836 9.96766 54.1886 10.0427 54.2386 10.1927L54.3186 10.5727C54.4086 10.4727 54.5019 10.381 54.5986 10.2977C54.6986 10.2143 54.8036 10.1427 54.9136 10.0827C55.0269 10.0227 55.1469 9.97599 55.2736 9.94266C55.4036 9.90599 55.5453 9.88766 55.6986 9.88766C56.0219 9.88766 56.2869 9.97599 56.4936 10.1527C56.7036 10.326 56.8603 10.5577 56.9636 10.8477C57.0436 10.6777 57.1436 10.5327 57.2636 10.4127C57.3836 10.2893 57.5153 10.1893 57.6586 10.1127C57.8019 10.036 57.9536 9.97932 58.1136 9.94266C58.2769 9.90599 58.4403 9.88766 58.6036 9.88766C58.8869 9.88766 59.1386 9.93099 59.3586 10.0177C59.5786 10.1043 59.7636 10.231 59.9136 10.3977C60.0636 10.5643 60.1769 10.7677 60.2536 11.0077C60.3336 11.2477 60.3736 11.5227 60.3736 11.8327V15.0977H59.1386V11.8327C59.1386 11.506 59.0669 11.261 58.9236 11.0977C58.7803 10.931 58.5703 10.8477 58.2936 10.8477C58.1669 10.8477 58.0486 10.8693 57.9386 10.9127C57.8319 10.956 57.7369 11.0193 57.6536 11.1027C57.5736 11.1827 57.5103 11.2843 57.4636 11.4077C57.4169 11.531 57.3936 11.6727 57.3936 11.8327V15.0977H56.1536V11.8327C56.1536 11.4893 56.0836 11.2393 55.9436 11.0827C55.8069 10.926 55.6053 10.8477 55.3386 10.8477C55.1586 10.8477 54.9903 10.8927 54.8336 10.9827C54.6803 11.0693 54.5369 11.1893 54.4036 11.3427V15.0977H53.1686ZM64.8525 11.9427C64.8525 11.7827 64.8292 11.6327 64.7825 11.4927C64.7392 11.3493 64.6725 11.2243 64.5825 11.1177C64.4925 11.011 64.3775 10.9277 64.2375 10.8677C64.1008 10.8043 63.9408 10.7727 63.7575 10.7727C63.4008 10.7727 63.1192 10.8743 62.9125 11.0777C62.7092 11.281 62.5792 11.5693 62.5225 11.9427H64.8525ZM62.4975 12.6877C62.5175 12.951 62.5642 13.1793 62.6375 13.3727C62.7108 13.5627 62.8075 13.721 62.9275 13.8477C63.0475 13.971 63.1892 14.0643 63.3525 14.1277C63.5192 14.1877 63.7025 14.2177 63.9025 14.2177C64.1025 14.2177 64.2742 14.1943 64.4175 14.1477C64.5642 14.101 64.6908 14.0493 64.7975 13.9927C64.9075 13.936 65.0025 13.8843 65.0825 13.8377C65.1658 13.791 65.2458 13.7677 65.3225 13.7677C65.4258 13.7677 65.5025 13.806 65.5525 13.8827L65.9075 14.3327C65.7708 14.4927 65.6175 14.6277 65.4475 14.7377C65.2775 14.8443 65.0992 14.931 64.9125 14.9977C64.7292 15.061 64.5408 15.106 64.3475 15.1327C64.1575 15.1593 63.9725 15.1727 63.7925 15.1727C63.4358 15.1727 63.1042 15.1143 62.7975 14.9977C62.4908 14.8777 62.2242 14.7027 61.9975 14.4727C61.7708 14.2393 61.5925 13.9527 61.4625 13.6127C61.3325 13.2693 61.2675 12.8727 61.2675 12.4227C61.2675 12.0727 61.3242 11.7443 61.4375 11.4377C61.5508 11.1277 61.7125 10.8593 61.9225 10.6327C62.1358 10.4027 62.3942 10.221 62.6975 10.0877C63.0042 9.95432 63.3492 9.88766 63.7325 9.88766C64.0558 9.88766 64.3542 9.93932 64.6275 10.0427C64.9008 10.146 65.1358 10.2977 65.3325 10.4977C65.5292 10.6943 65.6825 10.9377 65.7925 11.2277C65.9058 11.5143 65.9625 11.8427 65.9625 12.2127C65.9625 12.3993 65.9425 12.526 65.9025 12.5927C65.8625 12.656 65.7858 12.6877 65.6725 12.6877H62.4975ZM68.0443 10.5977C68.1476 10.4943 68.256 10.3993 68.3693 10.3127C68.486 10.2227 68.6076 10.1477 68.7343 10.0877C68.8643 10.0243 69.0026 9.97599 69.1493 9.94266C69.296 9.90599 69.456 9.88766 69.6293 9.88766C69.9093 9.88766 70.1576 9.93599 70.3743 10.0327C70.591 10.126 70.771 10.2593 70.9143 10.4327C71.061 10.6027 71.171 10.8077 71.2443 11.0477C71.321 11.2843 71.3593 11.546 71.3593 11.8327V15.0977H70.1243V11.8327C70.1243 11.5193 70.0526 11.2777 69.9093 11.1077C69.766 10.9343 69.5476 10.8477 69.2543 10.8477C69.041 10.8477 68.841 10.896 68.6543 10.9927C68.4676 11.0893 68.291 11.221 68.1243 11.3877V15.0977H66.8893V9.96766H67.6443C67.8043 9.96766 67.9093 10.0427 67.9593 10.1927L68.0443 10.5977ZM75.6638 10.9677C75.6305 11.021 75.5955 11.0593 75.5588 11.0827C75.5222 11.1027 75.4755 11.1127 75.4188 11.1127C75.3588 11.1127 75.2938 11.096 75.2238 11.0627C75.1572 11.0293 75.0788 10.9927 74.9888 10.9527C74.8988 10.9093 74.7955 10.871 74.6788 10.8377C74.5655 10.8043 74.4305 10.7877 74.2738 10.7877C74.0305 10.7877 73.8388 10.8393 73.6988 10.9427C73.5622 11.046 73.4938 11.181 73.4938 11.3477C73.4938 11.4577 73.5288 11.551 73.5988 11.6277C73.6722 11.701 73.7672 11.766 73.8838 11.8227C74.0038 11.8793 74.1388 11.931 74.2888 11.9777C74.4388 12.021 74.5905 12.0693 74.7438 12.1227C74.9005 12.176 75.0538 12.2377 75.2038 12.3077C75.3538 12.3743 75.4872 12.461 75.6038 12.5677C75.7238 12.671 75.8188 12.796 75.8888 12.9427C75.9622 13.0893 75.9988 13.266 75.9988 13.4727C75.9988 13.7193 75.9538 13.9477 75.8638 14.1577C75.7772 14.3643 75.6472 14.5443 75.4738 14.6977C75.3005 14.8477 75.0855 14.966 74.8288 15.0527C74.5755 15.136 74.2822 15.1777 73.9488 15.1777C73.7722 15.1777 73.5988 15.161 73.4288 15.1277C73.2622 15.0977 73.1005 15.0543 72.9438 14.9977C72.7905 14.941 72.6472 14.8743 72.5138 14.7977C72.3838 14.721 72.2688 14.6377 72.1688 14.5477L72.4538 14.0777C72.4905 14.021 72.5338 13.9777 72.5838 13.9477C72.6338 13.9177 72.6972 13.9027 72.7738 13.9027C72.8505 13.9027 72.9222 13.9243 72.9888 13.9677C73.0588 14.011 73.1388 14.0577 73.2288 14.1077C73.3188 14.1577 73.4238 14.2043 73.5438 14.2477C73.6672 14.291 73.8222 14.3127 74.0088 14.3127C74.1555 14.3127 74.2805 14.296 74.3838 14.2627C74.4905 14.226 74.5772 14.1793 74.6438 14.1227C74.7138 14.066 74.7638 14.001 74.7938 13.9277C74.8272 13.851 74.8438 13.7727 74.8438 13.6927C74.8438 13.5727 74.8072 13.4743 74.7338 13.3977C74.6638 13.321 74.5688 13.2543 74.4488 13.1977C74.3322 13.141 74.1972 13.091 74.0438 13.0477C73.8938 13.001 73.7388 12.951 73.5788 12.8977C73.4222 12.8443 73.2672 12.7827 73.1138 12.7127C72.9638 12.6393 72.8288 12.5477 72.7088 12.4377C72.5922 12.3277 72.4972 12.1927 72.4238 12.0327C72.3538 11.8727 72.3188 11.6793 72.3188 11.4527C72.3188 11.2427 72.3605 11.0427 72.4438 10.8527C72.5272 10.6627 72.6488 10.4977 72.8088 10.3577C72.9722 10.2143 73.1738 10.101 73.4138 10.0177C73.6572 9.93099 73.9372 9.88766 74.2538 9.88766C74.6072 9.88766 74.9288 9.94599 75.2188 10.0627C75.5088 10.1793 75.7505 10.3327 75.9438 10.5227L75.6638 10.9677ZM78.2084 9.96766V15.0977H76.9684V9.96766H78.2084ZM78.3784 8.47266C78.3784 8.57932 78.3567 8.67932 78.3134 8.77266C78.27 8.86599 78.2117 8.94766 78.1384 9.01766C78.0684 9.08766 77.985 9.14432 77.8884 9.18766C77.7917 9.22766 77.6884 9.24766 77.5784 9.24766C77.4717 9.24766 77.37 9.22766 77.2734 9.18766C77.18 9.14432 77.0984 9.08766 77.0284 9.01766C76.9584 8.94766 76.9017 8.86599 76.8584 8.77266C76.8184 8.67932 76.7984 8.57932 76.7984 8.47266C76.7984 8.36266 76.8184 8.25932 76.8584 8.16266C76.9017 8.06599 76.9584 7.98266 77.0284 7.91266C77.0984 7.84266 77.18 7.78766 77.2734 7.74766C77.37 7.70432 77.4717 7.68266 77.5784 7.68266C77.6884 7.68266 77.7917 7.70432 77.8884 7.74766C77.985 7.78766 78.0684 7.84266 78.1384 7.91266C78.2117 7.98266 78.27 8.06599 78.3134 8.16266C78.3567 8.25932 78.3784 8.36266 78.3784 8.47266ZM81.7374 9.88766C82.1174 9.88766 82.4624 9.94932 82.7724 10.0727C83.0858 10.196 83.3524 10.371 83.5724 10.5977C83.7958 10.8243 83.9674 11.101 84.0874 11.4277C84.2074 11.7543 84.2674 12.1193 84.2674 12.5227C84.2674 12.9293 84.2074 13.296 84.0874 13.6227C83.9674 13.9493 83.7958 14.2277 83.5724 14.4577C83.3524 14.6877 83.0858 14.8643 82.7724 14.9877C82.4624 15.111 82.1174 15.1727 81.7374 15.1727C81.3541 15.1727 81.0058 15.111 80.6924 14.9877C80.3791 14.8643 80.1108 14.6877 79.8874 14.4577C79.6674 14.2277 79.4958 13.9493 79.3724 13.6227C79.2524 13.296 79.1924 12.9293 79.1924 12.5227C79.1924 12.1193 79.2524 11.7543 79.3724 11.4277C79.4958 11.101 79.6674 10.8243 79.8874 10.5977C80.1108 10.371 80.3791 10.196 80.6924 10.0727C81.0058 9.94932 81.3541 9.88766 81.7374 9.88766ZM81.7374 14.2227C82.1641 14.2227 82.4791 14.0793 82.6824 13.7927C82.8891 13.506 82.9924 13.086 82.9924 12.5327C82.9924 11.9793 82.8891 11.5577 82.6824 11.2677C82.4791 10.9777 82.1641 10.8327 81.7374 10.8327C81.3041 10.8327 80.9824 10.9793 80.7724 11.2727C80.5658 11.5627 80.4624 11.9827 80.4624 12.5327C80.4624 13.0827 80.5658 13.5027 80.7724 13.7927C80.9824 14.0793 81.3041 14.2227 81.7374 14.2227ZM86.3646 10.5977C86.4679 10.4943 86.5763 10.3993 86.6896 10.3127C86.8063 10.2227 86.9279 10.1477 87.0546 10.0877C87.1846 10.0243 87.3229 9.97599 87.4696 9.94266C87.6163 9.90599 87.7763 9.88766 87.9496 9.88766C88.2296 9.88766 88.4779 9.93599 88.6946 10.0327C88.9113 10.126 89.0913 10.2593 89.2346 10.4327C89.3813 10.6027 89.4913 10.8077 89.5646 11.0477C89.6413 11.2843 89.6796 11.546 89.6796 11.8327V15.0977H88.4446V11.8327C88.4446 11.5193 88.3729 11.2777 88.2296 11.1077C88.0863 10.9343 87.8679 10.8477 87.5746 10.8477C87.3613 10.8477 87.1613 10.896 86.9746 10.9927C86.7879 11.0893 86.6113 11.221 86.4446 11.3877V15.0977H85.2096V9.96766H85.9646C86.1246 9.96766 86.2296 10.0427 86.2796 10.1927L86.3646 10.5977Z" fill="black"/>
<path d="M42.908 27.8181C43.5853 27.2741 44.116 26.8288 44.5 26.4821C44.884 26.1301 45.2067 25.7648 45.468 25.3861C45.7347 25.0021 45.868 24.6261 45.868 24.2581C45.868 23.9114 45.7827 23.6394 45.612 23.4421C45.4467 23.2394 45.1773 23.1381 44.804 23.1381C44.4413 23.1381 44.1587 23.2528 43.956 23.4821C43.7587 23.7061 43.652 24.0074 43.636 24.3861H42.932C42.9533 23.7888 43.1347 23.3274 43.476 23.0021C43.8173 22.6768 44.2573 22.5141 44.796 22.5141C45.3453 22.5141 45.78 22.6661 46.1 22.9701C46.4253 23.2741 46.588 23.6928 46.588 24.2261C46.588 24.6688 46.4547 25.1008 46.188 25.5221C45.9267 25.9381 45.628 26.3061 45.292 26.6261C44.956 26.9408 44.5267 27.3088 44.004 27.7301H46.756V28.3381H42.908V27.8181ZM47.5976 25.4501C47.5976 24.5328 47.7469 23.8181 48.0456 23.3061C48.3442 22.7888 48.8669 22.5301 49.6136 22.5301C50.3549 22.5301 50.8749 22.7888 51.1736 23.3061C51.4722 23.8181 51.6216 24.5328 51.6216 25.4501C51.6216 26.3834 51.4722 27.1088 51.1736 27.6261C50.8749 28.1434 50.3549 28.4021 49.6136 28.4021C48.8669 28.4021 48.3442 28.1434 48.0456 27.6261C47.7469 27.1088 47.5976 26.3834 47.5976 25.4501ZM50.9016 25.4501C50.9016 24.9861 50.8696 24.5941 50.8056 24.2741C50.7469 23.9488 50.6216 23.6874 50.4296 23.4901C50.2429 23.2928 49.9709 23.1941 49.6136 23.1941C49.2509 23.1941 48.9736 23.2928 48.7816 23.4901C48.5949 23.6874 48.4696 23.9488 48.4056 24.2741C48.3469 24.5941 48.3176 24.9861 48.3176 25.4501C48.3176 25.9301 48.3469 26.3328 48.4056 26.6581C48.4696 26.9834 48.5949 27.2448 48.7816 27.4421C48.9736 27.6394 49.2509 27.7381 49.6136 27.7381C49.9709 27.7381 50.2429 27.6394 50.4296 27.4421C50.6216 27.2448 50.7469 26.9834 50.8056 26.6581C50.8696 26.3328 50.9016 25.9301 50.9016 25.4501ZM52.621 25.4501C52.621 24.5328 52.7703 23.8181 53.069 23.3061C53.3677 22.7888 53.8903 22.5301 54.637 22.5301C55.3783 22.5301 55.8983 22.7888 56.197 23.3061C56.4957 23.8181 56.645 24.5328 56.645 25.4501C56.645 26.3834 56.4957 27.1088 56.197 27.6261C55.8983 28.1434 55.3783 28.4021 54.637 28.4021C53.8903 28.4021 53.3677 28.1434 53.069 27.6261C52.7703 27.1088 52.621 26.3834 52.621 25.4501ZM55.925 25.4501C55.925 24.9861 55.893 24.5941 55.829 24.2741C55.7703 23.9488 55.645 23.6874 55.453 23.4901C55.2663 23.2928 54.9943 23.1941 54.637 23.1941C54.2743 23.1941 53.997 23.2928 53.805 23.4901C53.6183 23.6874 53.493 23.9488 53.429 24.2741C53.3703 24.5941 53.341 24.9861 53.341 25.4501C53.341 25.9301 53.3703 26.3328 53.429 26.6581C53.493 26.9834 53.6183 27.2448 53.805 27.4421C53.997 27.6394 54.2743 27.7381 54.637 27.7381C54.9943 27.7381 55.2663 27.6394 55.453 27.4421C55.645 27.2448 55.7703 26.9834 55.829 26.6581C55.893 26.3328 55.925 25.9301 55.925 25.4501ZM60.4844 20.8661L58.2924 29.7621H57.5724L59.7564 20.8661H60.4844ZM61.2571 23.2821V22.6181H62.7611V28.4021H62.0251V23.2821H61.2571ZM67.6996 23.2501H64.8916V25.0741C65.0143 24.9034 65.1956 24.7648 65.4356 24.6581C65.6756 24.5461 65.9343 24.4901 66.2116 24.4901C66.6543 24.4901 67.0143 24.5834 67.2916 24.7701C67.569 24.9514 67.7663 25.1888 67.8836 25.4821C68.0063 25.7701 68.0676 26.0768 68.0676 26.4021C68.0676 26.7861 67.9956 27.1301 67.8516 27.4341C67.7076 27.7381 67.4863 27.9781 67.1876 28.1541C66.8943 28.3301 66.529 28.4181 66.0916 28.4181C65.5316 28.4181 65.0783 28.2741 64.7316 27.9861C64.385 27.6981 64.1743 27.3141 64.0996 26.8341H64.8116C64.881 27.1381 65.0276 27.3754 65.2516 27.5461C65.4756 27.7168 65.7583 27.8021 66.0996 27.8021C66.521 27.8021 66.8383 27.6768 67.0516 27.4261C67.265 27.1701 67.3716 26.8341 67.3716 26.4181C67.3716 26.0021 67.265 25.6821 67.0516 25.4581C66.8383 25.2288 66.5236 25.1141 66.1076 25.1141C65.825 25.1141 65.577 25.1834 65.3636 25.3221C65.1556 25.4554 65.0036 25.6394 64.9076 25.8741H64.2196V22.6101H67.6996V23.2501ZM69.0351 25.4501C69.0351 24.5328 69.1844 23.8181 69.4831 23.3061C69.7817 22.7888 70.3044 22.5301 71.0511 22.5301C71.7924 22.5301 72.3124 22.7888 72.6111 23.3061C72.9097 23.8181 73.0591 24.5328 73.0591 25.4501C73.0591 26.3834 72.9097 27.1088 72.6111 27.6261C72.3124 28.1434 71.7924 28.4021 71.0511 28.4021C70.3044 28.4021 69.7817 28.1434 69.4831 27.6261C69.1844 27.1088 69.0351 26.3834 69.0351 25.4501ZM72.3391 25.4501C72.3391 24.9861 72.3071 24.5941 72.2431 24.2741C72.1844 23.9488 72.0591 23.6874 71.8671 23.4901C71.6804 23.2928 71.4084 23.1941 71.0511 23.1941C70.6884 23.1941 70.4111 23.2928 70.2191 23.4901C70.0324 23.6874 69.9071 23.9488 69.8431 24.2741C69.7844 24.5941 69.7551 24.9861 69.7551 25.4501C69.7551 25.9301 69.7844 26.3328 69.8431 26.6581C69.9071 26.9834 70.0324 27.2448 70.2191 27.4421C70.4111 27.6394 70.6884 27.7381 71.0511 27.7381C71.4084 27.7381 71.6804 27.6394 71.8671 27.4421C72.0591 27.2448 72.1844 26.9834 72.2431 26.6581C72.3071 26.3328 72.3391 25.9301 72.3391 25.4501ZM79.5433 27.2021L78.2713 25.9301L76.9993 27.2021L76.5193 26.7221L77.7913 25.4501L76.5433 24.2021L77.0073 23.7301L78.2633 24.9861L79.5193 23.7301L79.9993 24.2101L78.7433 25.4661L80.0073 26.7381L79.5433 27.2021ZM83.2728 23.2821V22.6181H84.7768V28.4021H84.0408V23.2821H83.2728ZM89.5873 23.1861L87.3633 28.4021H86.6273L88.8833 23.2581H85.7952V22.6341H89.5873V23.1861ZM91.4504 25.3941C91.1518 25.2768 90.9224 25.1061 90.7624 24.8821C90.6024 24.6581 90.5224 24.3861 90.5224 24.0661C90.5224 23.7781 90.5944 23.5194 90.7384 23.2901C90.8824 23.0554 91.0958 22.8714 91.3784 22.7381C91.6664 22.5994 92.0131 22.5301 92.4184 22.5301C92.8238 22.5301 93.1678 22.5994 93.4504 22.7381C93.7384 22.8714 93.9544 23.0554 94.0984 23.2901C94.2478 23.5194 94.3224 23.7781 94.3224 24.0661C94.3224 24.3754 94.2398 24.6474 94.0744 24.8821C93.9091 25.1114 93.6824 25.2821 93.3944 25.3941C93.7251 25.4954 93.9864 25.6741 94.1784 25.9301C94.3758 26.1808 94.4744 26.4848 94.4744 26.8421C94.4744 27.1888 94.3891 27.4928 94.2184 27.7541C94.0478 28.0101 93.8051 28.2101 93.4904 28.3541C93.1811 28.4928 92.8238 28.5621 92.4184 28.5621C92.0131 28.5621 91.6558 28.4928 91.3464 28.3541C91.0424 28.2101 90.8051 28.0101 90.6344 27.7541C90.4638 27.4928 90.3784 27.1888 90.3784 26.8421C90.3784 26.4848 90.4744 26.1781 90.6664 25.9221C90.8584 25.6661 91.1198 25.4901 91.4504 25.3941ZM93.6184 24.1541C93.6184 23.8288 93.5118 23.5781 93.2984 23.4021C93.0851 23.2261 92.7918 23.1381 92.4184 23.1381C92.0504 23.1381 91.7598 23.2261 91.5464 23.4021C91.3331 23.5781 91.2264 23.8314 91.2264 24.1621C91.2264 24.4608 91.3358 24.7008 91.5544 24.8821C91.7784 25.0634 92.0664 25.1541 92.4184 25.1541C92.7758 25.1541 93.0638 25.0634 93.2824 24.8821C93.5064 24.6954 93.6184 24.4528 93.6184 24.1541ZM92.4184 25.7141C92.0238 25.7141 91.7011 25.8074 91.4504 25.9941C91.1998 26.1754 91.0744 26.4501 91.0744 26.8181C91.0744 27.1594 91.1944 27.4341 91.4344 27.6421C91.6798 27.8501 92.0078 27.9541 92.4184 27.9541C92.8291 27.9541 93.1544 27.8501 93.3944 27.6421C93.6344 27.4341 93.7544 27.1594 93.7544 26.8181C93.7544 26.4608 93.6318 26.1888 93.3864 26.0021C93.1411 25.8101 92.8184 25.7141 92.4184 25.7141ZM98.2813 20.8661L96.0893 29.7621H95.3693L97.5533 20.8661H98.2813ZM99.054 23.2821V22.6181H100.558V28.4021H99.822V23.2821H99.054ZM101.721 27.8181C102.398 27.2741 102.929 26.8288 103.312 26.4821C103.697 26.1301 104.019 25.7648 104.281 25.3861C104.547 25.0021 104.681 24.6261 104.681 24.2581C104.681 23.9114 104.595 23.6394 104.425 23.4421C104.259 23.2394 103.99 23.1381 103.617 23.1381C103.254 23.1381 102.971 23.2528 102.769 23.4821C102.571 23.7061 102.465 24.0074 102.449 24.3861H101.745C101.766 23.7888 101.947 23.3274 102.289 23.0021C102.63 22.6768 103.07 22.5141 103.609 22.5141C104.158 22.5141 104.593 22.6661 104.913 22.9701C105.238 23.2741 105.401 23.6928 105.401 24.2261C105.401 24.6688 105.267 25.1008 105.001 25.5221C104.739 25.9381 104.441 26.3061 104.105 26.6261C103.769 26.9408 103.339 27.3088 102.817 27.7301H105.569V28.3381H101.721V27.8181ZM109.97 23.1861L107.746 28.4021H107.01L109.266 23.2581H106.178V22.6341H109.97V23.1861ZM116.262 27.2021L114.99 25.9301L113.718 27.2021L113.238 26.7221L114.51 25.4501L113.262 24.2021L113.726 23.7301L114.982 24.9861L116.238 23.7301L116.718 24.2101L115.462 25.4661L116.726 26.7381L116.262 27.2021ZM120.008 27.1141V26.5621L122.816 22.6741H123.688V26.4821H124.488V27.1141H123.688V28.4021H122.968V27.1141H120.008ZM123 23.4341L120.848 26.4821H123V23.4341ZM125.039 27.1141V26.5621L127.847 22.6741H128.719V26.4821H129.519V27.1141H128.719V28.4021H127.999V27.1141H125.039ZM128.031 23.4341L125.879 26.4821H128.031V23.4341ZM135.638 23.9381C135.979 23.9381 136.283 24.0101 136.55 24.1541C136.817 24.2928 137.027 24.5034 137.182 24.7861C137.337 25.0688 137.414 25.4128 137.414 25.8181V28.4021H136.694V25.9221C136.694 25.4848 136.585 25.1514 136.366 24.9221C136.153 24.6874 135.862 24.5701 135.494 24.5701C135.115 24.5701 134.814 24.6928 134.59 24.9381C134.366 25.1781 134.254 25.5274 134.254 25.9861V28.4021H133.534V25.9221C133.534 25.4848 133.425 25.1514 133.206 24.9221C132.993 24.6874 132.702 24.5701 132.334 24.5701C131.955 24.5701 131.654 24.6928 131.43 24.9381C131.206 25.1781 131.094 25.5274 131.094 25.9861V28.4021H130.366V24.0181H131.094V24.6501C131.238 24.4208 131.43 24.2448 131.67 24.1221C131.915 23.9994 132.185 23.9381 132.478 23.9381C132.846 23.9381 133.171 24.0208 133.454 24.1861C133.737 24.3514 133.947 24.5941 134.086 24.9141C134.209 24.6048 134.411 24.3648 134.694 24.1941C134.977 24.0234 135.291 23.9381 135.638 23.9381ZM143.88 23.9381C144.222 23.9381 144.526 24.0101 144.792 24.1541C145.059 24.2928 145.27 24.5034 145.424 24.7861C145.579 25.0688 145.656 25.4128 145.656 25.8181V28.4021H144.936V25.9221C144.936 25.4848 144.827 25.1514 144.608 24.9221C144.395 24.6874 144.104 24.5701 143.736 24.5701C143.358 24.5701 143.056 24.6928 142.832 24.9381C142.608 25.1781 142.496 25.5274 142.496 25.9861V28.4021H141.776V25.9221C141.776 25.4848 141.667 25.1514 141.448 24.9221C141.235 24.6874 140.944 24.5701 140.576 24.5701C140.198 24.5701 139.896 24.6928 139.672 24.9381C139.448 25.1781 139.336 25.5274 139.336 25.9861V28.4021H138.608V24.0181H139.336V24.6501C139.48 24.4208 139.672 24.2448 139.912 24.1221C140.158 23.9994 140.427 23.9381 140.72 23.9381C141.088 23.9381 141.414 24.0208 141.696 24.1861C141.979 24.3514 142.19 24.5941 142.328 24.9141C142.451 24.6048 142.654 24.3648 142.936 24.1941C143.219 24.0234 143.534 23.9381 143.88 23.9381Z" fill="black" fill-opacity="0.59"/>
</svg>
