<svg width="317" height="22" viewBox="0 0 317 22" fill="none" xmlns="http://www.w3.org/2000/svg">
<path d="M1.88922 0.583356C2.55086 0.583356 3.12255 0.70814 3.60428 0.957709C4.09181 1.20147 4.46326 1.55261 4.71863 2.01112C4.97981 2.46963 5.1104 3.0094 5.1104 3.63042C5.1104 4.25144 4.97981 4.79121 4.71863 5.24972C4.46326 5.70242 4.09181 6.05066 3.60428 6.29443C3.12255 6.53239 2.55086 6.65137 1.88922 6.65137H3.56257e-05V0.583356H1.88922ZM1.88922 5.99842C2.67275 5.99842 3.27055 5.79239 3.68263 5.38031C4.09471 4.96242 4.30075 4.37913 4.30075 3.63042C4.30075 2.87591 4.09181 2.28681 3.67392 1.86312C3.26185 1.43944 2.66694 1.22759 1.88922 1.22759H0.792272V5.99842H1.88922ZM10.5083 4.08313C10.5083 4.23403 10.4996 4.39364 10.4822 4.56195H6.66903C6.69805 5.03207 6.85765 5.40062 7.14785 5.6676C7.44385 5.92878 7.80079 6.05937 8.21868 6.05937C8.56111 6.05937 8.8455 5.98101 9.07185 5.82431C9.30401 5.6618 9.46652 5.44705 9.55938 5.18007H10.4126C10.2849 5.63858 10.0295 6.01293 9.64644 6.30313C9.26338 6.58752 8.78746 6.72972 8.21868 6.72972C7.76597 6.72972 7.35969 6.62815 6.99985 6.42501C6.64581 6.22188 6.36722 5.93458 6.16408 5.56313C5.96095 5.18587 5.85938 4.75058 5.85938 4.25725C5.85938 3.76391 5.95804 3.33152 6.15538 2.96007C6.35271 2.58861 6.6284 2.30422 6.98244 2.10689C7.34228 1.90375 7.75436 1.80218 8.21868 1.80218C8.67138 1.80218 9.07185 1.90085 9.42009 2.09818C9.76833 2.29552 10.0353 2.5683 10.221 2.91654C10.4126 3.25897 10.5083 3.64783 10.5083 4.08313ZM9.68997 3.91772C9.68997 3.61591 9.62323 3.35764 9.48974 3.14289C9.35625 2.92234 9.17342 2.75693 8.94127 2.64665C8.71491 2.53058 8.46244 2.47254 8.18385 2.47254C7.78338 2.47254 7.44095 2.60022 7.15656 2.8556C6.87797 3.11097 6.71836 3.46501 6.67773 3.91772H9.68997ZM13.243 6.72972C12.8774 6.72972 12.5494 6.66878 12.2592 6.5469C11.969 6.41921 11.7398 6.24509 11.5715 6.02454C11.4032 5.79819 11.3103 5.53991 11.2929 5.24972H12.1112C12.1344 5.48768 12.2447 5.68211 12.4421 5.83301C12.6452 5.98391 12.9093 6.05937 13.2343 6.05937C13.5361 6.05937 13.7741 5.99262 13.9482 5.85913C14.1223 5.72564 14.2094 5.55733 14.2094 5.35419C14.2094 5.14525 14.1165 4.99144 13.9308 4.89278C13.745 4.7883 13.4577 4.68674 13.0689 4.58807C12.7148 4.49521 12.4246 4.40234 12.1983 4.30948C11.9777 4.21081 11.7862 4.06862 11.6237 3.88289C11.467 3.69136 11.3886 3.44179 11.3886 3.13418C11.3886 2.89042 11.4612 2.66697 11.6063 2.46383C11.7514 2.26069 11.9574 2.10108 12.2244 1.98501C12.4914 1.86312 12.7961 1.80218 13.1385 1.80218C13.6667 1.80218 14.0933 1.93567 14.4183 2.20265C14.7433 2.46963 14.9174 2.83528 14.9407 3.2996H14.1484C14.131 3.05003 14.0294 2.84979 13.8437 2.69889C13.6638 2.54799 13.42 2.47254 13.1124 2.47254C12.828 2.47254 12.6017 2.53348 12.4334 2.65536C12.265 2.77724 12.1809 2.93685 12.1809 3.13418C12.1809 3.29089 12.2302 3.42148 12.3289 3.52595C12.4334 3.62462 12.561 3.70587 12.7119 3.76971C12.8686 3.82775 13.0834 3.8945 13.3562 3.96995C13.6986 4.06281 13.9772 4.15568 14.1919 4.24854C14.4067 4.3356 14.5895 4.46909 14.7404 4.64901C14.8971 4.82893 14.9784 5.06399 14.9842 5.35419C14.9842 5.61537 14.9116 5.85042 14.7665 6.05937C14.6214 6.26831 14.4154 6.43372 14.1484 6.5556C13.8872 6.67168 13.5854 6.72972 13.243 6.72972ZM16.5117 1.10571C16.3608 1.10571 16.2331 1.05347 16.1287 0.949004C16.0242 0.844533 15.972 0.716846 15.972 0.565944C15.972 0.415042 16.0242 0.287355 16.1287 0.182884C16.2331 0.0784137 16.3608 0.0261783 16.5117 0.0261783C16.6568 0.0261783 16.7787 0.0784137 16.8774 0.182884C16.9818 0.287355 17.0341 0.415042 17.0341 0.565944C17.0341 0.716846 16.9818 0.844533 16.8774 0.949004C16.7787 1.05347 16.6568 1.10571 16.5117 1.10571ZM16.8948 1.88053V6.65137H16.1025V1.88053H16.8948ZM20.2125 1.80218C20.6246 1.80218 20.9845 1.89214 21.2921 2.07206C21.6055 2.25199 21.8376 2.47834 21.9886 2.75112V1.88053H22.7895V6.75584C22.7895 7.19113 22.6966 7.57709 22.5109 7.91372C22.3252 8.25615 22.0582 8.52314 21.71 8.71467C21.3675 8.90619 20.9671 9.00196 20.5085 9.00196C19.8817 9.00196 19.3594 8.85396 18.9415 8.55796C18.5236 8.26196 18.2769 7.85859 18.2015 7.34784H18.985C19.0721 7.63804 19.252 7.87019 19.5248 8.04431C19.7976 8.22423 20.1255 8.31419 20.5085 8.31419C20.9438 8.31419 21.2979 8.1778 21.5707 7.90502C21.8493 7.63223 21.9886 7.24917 21.9886 6.75584V5.75466C21.8318 6.03325 21.5997 6.26541 21.2921 6.45113C20.9845 6.63686 20.6246 6.72972 20.2125 6.72972C19.7889 6.72972 19.4029 6.62525 19.0547 6.41631C18.7122 6.20737 18.4423 5.91427 18.245 5.53701C18.0477 5.15976 17.949 4.73027 17.949 4.24854C17.949 3.76101 18.0477 3.33442 18.245 2.96877C18.4423 2.59732 18.7122 2.31003 19.0547 2.10689C19.4029 1.90375 19.7889 1.80218 20.2125 1.80218ZM21.9886 4.25725C21.9886 3.8974 21.916 3.58399 21.7709 3.31701C21.6258 3.05003 21.4285 2.84689 21.1789 2.7076C20.9351 2.5625 20.6653 2.48995 20.3693 2.48995C20.0733 2.48995 19.8034 2.55959 19.5596 2.69889C19.3158 2.83818 19.1214 3.04132 18.9763 3.3083C18.8312 3.57528 18.7587 3.8887 18.7587 4.24854C18.7587 4.61419 18.8312 4.9334 18.9763 5.20619C19.1214 5.47317 19.3158 5.67921 19.5596 5.82431C19.8034 5.9636 20.0733 6.03325 20.3693 6.03325C20.6653 6.03325 20.9351 5.9636 21.1789 5.82431C21.4285 5.67921 21.6258 5.47317 21.7709 5.20619C21.916 4.9334 21.9886 4.61709 21.9886 4.25725ZM26.4528 1.79348C27.0332 1.79348 27.5033 1.9705 27.8631 2.32454C28.223 2.67277 28.4029 3.17771 28.4029 3.83936V6.65137H27.6194V3.95254C27.6194 3.47662 27.5004 3.11387 27.2624 2.8643C27.0245 2.60893 26.6994 2.48124 26.2874 2.48124C25.8695 2.48124 25.5358 2.61183 25.2862 2.87301C25.0424 3.13418 24.9205 3.51434 24.9205 4.01348V6.65137H24.1283V1.88053H24.9205V2.55959C25.0772 2.31583 25.2891 2.1272 25.5561 1.99371C25.8288 1.86022 26.1278 1.79348 26.4528 1.79348ZM34.05 4.08313C34.05 4.23403 34.0413 4.39364 34.0238 4.56195H30.2107C30.2397 5.03207 30.3993 5.40062 30.6895 5.6676C30.9855 5.92878 31.3424 6.05937 31.7603 6.05937C32.1027 6.05937 32.3871 5.98101 32.6135 5.82431C32.8456 5.6618 33.0082 5.44705 33.101 5.18007H33.9542C33.8265 5.63858 33.5711 6.01293 33.1881 6.30313C32.805 6.58752 32.3291 6.72972 31.7603 6.72972C31.3076 6.72972 30.9013 6.62815 30.5415 6.42501C30.1874 6.22188 29.9089 5.93458 29.7057 5.56313C29.5026 5.18587 29.401 4.75058 29.401 4.25725C29.401 3.76391 29.4997 3.33152 29.697 2.96007C29.8943 2.58861 30.17 2.30422 30.5241 2.10689C30.8839 1.90375 31.296 1.80218 31.7603 1.80218C32.213 1.80218 32.6135 1.90085 32.9617 2.09818C33.31 2.29552 33.5769 2.5683 33.7627 2.91654C33.9542 3.25897 34.05 3.64783 34.05 4.08313ZM33.2316 3.91772C33.2316 3.61591 33.1649 3.35764 33.0314 3.14289C32.8979 2.92234 32.7151 2.75693 32.4829 2.64665C32.2565 2.53058 32.0041 2.47254 31.7255 2.47254C31.325 2.47254 30.9826 2.60022 30.6982 2.8556C30.4196 3.11097 30.26 3.46501 30.2194 3.91772H33.2316ZM34.7997 4.24854C34.7997 3.76101 34.8984 3.33442 35.0957 2.96877C35.293 2.59732 35.5629 2.31003 35.9053 2.10689C36.2536 1.90375 36.6424 1.80218 37.0719 1.80218C37.4434 1.80218 37.7887 1.88924 38.1079 2.06336C38.4271 2.23167 38.6709 2.45512 38.8392 2.73371V0.209002H39.6402V6.65137H38.8392V5.75466C38.6825 6.03905 38.4504 6.27411 38.1428 6.45984C37.8351 6.63976 37.4753 6.72972 37.0632 6.72972C36.6395 6.72972 36.2536 6.62525 35.9053 6.41631C35.5629 6.20737 35.293 5.91427 35.0957 5.53701C34.8984 5.15976 34.7997 4.73027 34.7997 4.24854ZM38.8392 4.25725C38.8392 3.8974 38.7667 3.58399 38.6216 3.31701C38.4765 3.05003 38.2791 2.84689 38.0296 2.7076C37.7858 2.5625 37.5159 2.48995 37.2199 2.48995C36.9239 2.48995 36.654 2.55959 36.4103 2.69889C36.1665 2.83818 35.9721 3.04132 35.827 3.3083C35.6819 3.57528 35.6093 3.8887 35.6093 4.24854C35.6093 4.61419 35.6819 4.9334 35.827 5.20619C35.9721 5.47317 36.1665 5.67921 36.4103 5.82431C36.654 5.9636 36.9239 6.03325 37.2199 6.03325C37.5159 6.03325 37.7858 5.9636 38.0296 5.82431C38.2791 5.67921 38.4765 5.47317 38.6216 5.20619C38.7667 4.9334 38.8392 4.61709 38.8392 4.25725ZM45.2414 2.53348H44.2402V6.65137H43.448V2.53348H42.8299V1.88053H43.448V1.541C43.448 1.00704 43.5844 0.61818 43.8572 0.374414C44.1357 0.124845 44.5797 6.03914e-05 45.1892 6.03914e-05V0.661709C44.8409 0.661709 44.5943 0.731356 44.4492 0.87065C44.3099 1.00414 44.2402 1.22759 44.2402 1.541V1.88053H45.2414V2.53348ZM48.2458 6.72972C47.7989 6.72972 47.3926 6.62815 47.027 6.42501C46.6671 6.22188 46.3827 5.93458 46.1738 5.56313C45.9707 5.18587 45.8691 4.75058 45.8691 4.25725C45.8691 3.76971 45.9736 3.34022 46.1825 2.96877C46.3973 2.59152 46.6875 2.30422 47.0531 2.10689C47.4188 1.90375 47.8279 1.80218 48.2806 1.80218C48.7333 1.80218 49.1425 1.90375 49.5082 2.10689C49.8738 2.30422 50.1611 2.58861 50.3701 2.96007C50.5848 3.33152 50.6922 3.76391 50.6922 4.25725C50.6922 4.75058 50.5819 5.18587 50.3613 5.56313C50.1466 5.93458 49.8535 6.22188 49.482 6.42501C49.1106 6.62815 48.6985 6.72972 48.2458 6.72972ZM48.2458 6.03325C48.5302 6.03325 48.7972 5.9665 49.0468 5.83301C49.2963 5.69952 49.4966 5.49929 49.6475 5.23231C49.8042 4.96532 49.8825 4.6403 49.8825 4.25725C49.8825 3.87419 49.8071 3.54917 49.6562 3.28218C49.5053 3.0152 49.3079 2.81787 49.0642 2.69018C48.8204 2.55669 48.5563 2.48995 48.2719 2.48995C47.9817 2.48995 47.7148 2.55669 47.471 2.69018C47.233 2.81787 47.0415 3.0152 46.8964 3.28218C46.7513 3.54917 46.6787 3.87419 46.6787 4.25725C46.6787 4.64611 46.7484 4.97403 46.8877 5.24101C47.0328 5.50799 47.2243 5.70823 47.4623 5.84172C47.7002 5.96941 47.9614 6.03325 48.2458 6.03325ZM52.5261 2.65536C52.6653 2.38257 52.8627 2.17073 53.1181 2.01983C53.3792 1.86893 53.6955 1.79348 54.067 1.79348V2.61183H53.8581C52.9701 2.61183 52.5261 3.09356 52.5261 4.05701V6.65137H51.7338V1.88053H52.5261V2.65536ZM63.0397 1.79348C63.4112 1.79348 63.742 1.87183 64.0322 2.02854C64.3224 2.17944 64.5516 2.40869 64.72 2.7163C64.8883 3.02391 64.9724 3.39826 64.9724 3.83936V6.65137H64.1889V3.95254C64.1889 3.47662 64.0699 3.11387 63.8319 2.8643C63.5998 2.60893 63.2835 2.48124 62.883 2.48124C62.4709 2.48124 62.143 2.61473 61.8992 2.88171C61.6555 3.14289 61.5336 3.52305 61.5336 4.02219V6.65137H60.7501V3.95254C60.7501 3.47662 60.6311 3.11387 60.3931 2.8643C60.161 2.60893 59.8446 2.48124 59.4442 2.48124C59.0321 2.48124 58.7042 2.61473 58.4604 2.88171C58.2166 3.14289 58.0948 3.52305 58.0948 4.02219V6.65137H57.3025V1.88053H58.0948V2.5683C58.2515 2.31873 58.4604 2.1272 58.7216 1.99371C58.9886 1.86022 59.2817 1.79348 59.6009 1.79348C60.0014 1.79348 60.3554 1.88344 60.663 2.06336C60.9706 2.24328 61.1999 2.50736 61.3508 2.8556C61.4843 2.51897 61.7048 2.25779 62.0124 2.07206C62.32 1.88634 62.6625 1.79348 63.0397 1.79348ZM70.6249 4.08313C70.6249 4.23403 70.6162 4.39364 70.5988 4.56195H66.7856C66.8147 5.03207 66.9743 5.40062 67.2645 5.6676C67.5605 5.92878 67.9174 6.05937 68.3353 6.05937C68.6777 6.05937 68.9621 5.98101 69.1885 5.82431C69.4206 5.6618 69.5831 5.44705 69.676 5.18007H70.5292C70.4015 5.63858 70.1461 6.01293 69.7631 6.30313C69.38 6.58752 68.9041 6.72972 68.3353 6.72972C67.8826 6.72972 67.4763 6.62815 67.1165 6.42501C66.7624 6.22188 66.4838 5.93458 66.2807 5.56313C66.0776 5.18587 65.976 4.75058 65.976 4.25725C65.976 3.76391 66.0747 3.33152 66.272 2.96007C66.4693 2.58861 66.745 2.30422 67.099 2.10689C67.4589 1.90375 67.871 1.80218 68.3353 1.80218C68.788 1.80218 69.1885 1.90085 69.5367 2.09818C69.8849 2.29552 70.1519 2.5683 70.3376 2.91654C70.5292 3.25897 70.6249 3.64783 70.6249 4.08313ZM69.8066 3.91772C69.8066 3.61591 69.7398 3.35764 69.6063 3.14289C69.4729 2.92234 69.29 2.75693 69.0579 2.64665C68.8315 2.53058 68.579 2.47254 68.3005 2.47254C67.9 2.47254 67.5576 2.60022 67.2732 2.8556C66.9946 3.11097 66.835 3.46501 66.7943 3.91772H69.8066ZM71.3747 4.24854C71.3747 3.76101 71.4733 3.33442 71.6707 2.96877C71.868 2.59732 72.1379 2.31003 72.4803 2.10689C72.8285 1.90375 73.2174 1.80218 73.6469 1.80218C74.0184 1.80218 74.3637 1.88924 74.6829 2.06336C75.0021 2.23167 75.2459 2.45512 75.4142 2.73371V0.209002H76.2151V6.65137H75.4142V5.75466C75.2575 6.03905 75.0253 6.27411 74.7177 6.45984C74.4101 6.63976 74.0503 6.72972 73.6382 6.72972C73.2145 6.72972 72.8285 6.62525 72.4803 6.41631C72.1379 6.20737 71.868 5.91427 71.6707 5.53701C71.4733 5.15976 71.3747 4.73027 71.3747 4.24854ZM75.4142 4.25725C75.4142 3.8974 75.3416 3.58399 75.1965 3.31701C75.0515 3.05003 74.8541 2.84689 74.6045 2.7076C74.3608 2.5625 74.0909 2.48995 73.7949 2.48995C73.4989 2.48995 73.229 2.55959 72.9853 2.69889C72.7415 2.83818 72.5471 3.04132 72.402 3.3083C72.2569 3.57528 72.1843 3.8887 72.1843 4.24854C72.1843 4.61419 72.2569 4.9334 72.402 5.20619C72.5471 5.47317 72.7415 5.67921 72.9853 5.82431C73.229 5.9636 73.4989 6.03325 73.7949 6.03325C74.0909 6.03325 74.3608 5.9636 74.6045 5.82431C74.8541 5.67921 75.0515 5.47317 75.1965 5.20619C75.3416 4.9334 75.4142 4.61709 75.4142 4.25725ZM77.9631 1.10571C77.8122 1.10571 77.6845 1.05347 77.5801 0.949004C77.4756 0.844533 77.4234 0.716846 77.4234 0.565944C77.4234 0.415042 77.4756 0.287355 77.5801 0.182884C77.6845 0.0784137 77.8122 0.0261783 77.9631 0.0261783C78.1082 0.0261783 78.2301 0.0784137 78.3288 0.182884C78.4332 0.287355 78.4855 0.415042 78.4855 0.565944C78.4855 0.716846 78.4332 0.844533 78.3288 0.949004C78.2301 1.05347 78.1082 1.10571 77.9631 1.10571ZM78.3462 1.88053V6.65137H77.5539V1.88053H78.3462ZM83.9275 1.88053V6.65137H83.1352V5.94619C82.9843 6.18995 82.7725 6.38148 82.4997 6.52078C82.2327 6.65427 81.9367 6.72101 81.6117 6.72101C81.2403 6.72101 80.9065 6.64556 80.6105 6.49466C80.3145 6.33795 80.0795 6.1058 79.9054 5.79819C79.737 5.49058 79.6529 5.11623 79.6529 4.67513V1.88053H80.4364V4.57066C80.4364 5.04078 80.5554 5.40352 80.7934 5.65889C81.0313 5.90846 81.3563 6.03325 81.7684 6.03325C82.1921 6.03325 82.5258 5.90266 82.7696 5.64148C83.0134 5.38031 83.1352 5.00015 83.1352 4.50101V1.88053H83.9275ZM91.0023 1.79348C91.3738 1.79348 91.7046 1.87183 91.9948 2.02854C92.285 2.17944 92.5142 2.40869 92.6826 2.7163C92.8509 3.02391 92.935 3.39826 92.935 3.83936V6.65137H92.1515V3.95254C92.1515 3.47662 92.0325 3.11387 91.7946 2.8643C91.5624 2.60893 91.2461 2.48124 90.8456 2.48124C90.4335 2.48124 90.1056 2.61473 89.8618 2.88171C89.6181 3.14289 89.4962 3.52305 89.4962 4.02219V6.65137H88.7127V3.95254C88.7127 3.47662 88.5937 3.11387 88.3557 2.8643C88.1236 2.60893 87.8072 2.48124 87.4068 2.48124C86.9947 2.48124 86.6668 2.61473 86.423 2.88171C86.1792 3.14289 86.0574 3.52305 86.0574 4.02219V6.65137H85.2651V1.88053H86.0574V2.5683C86.2141 2.31873 86.423 2.1272 86.6842 1.99371C86.9512 1.86022 87.2443 1.79348 87.5635 1.79348C87.964 1.79348 88.318 1.88344 88.6256 2.06336C88.9332 2.24328 89.1625 2.50736 89.3134 2.8556C89.4469 2.51897 89.6674 2.25779 89.975 2.07206C90.2826 1.88634 90.6251 1.79348 91.0023 1.79348ZM98.2445 6.72972C97.8789 6.72972 97.551 6.66878 97.2608 6.5469C96.9706 6.41921 96.7413 6.24509 96.573 6.02454C96.4047 5.79819 96.3118 5.53991 96.2944 5.24972H97.1128C97.136 5.48768 97.2463 5.68211 97.4436 5.83301C97.6467 5.98391 97.9108 6.05937 98.2358 6.05937C98.5376 6.05937 98.7756 5.99262 98.9497 5.85913C99.1238 5.72564 99.2109 5.55733 99.2109 5.35419C99.2109 5.14525 99.118 4.99144 98.9323 4.89278C98.7466 4.7883 98.4593 4.68674 98.0704 4.58807C97.7164 4.49521 97.4262 4.40234 97.1998 4.30948C96.9793 4.21081 96.7878 4.06862 96.6252 3.88289C96.4685 3.69136 96.3902 3.44179 96.3902 3.13418C96.3902 2.89042 96.4627 2.66697 96.6078 2.46383C96.7529 2.26069 96.959 2.10108 97.2259 1.98501C97.4929 1.86312 97.7976 1.80218 98.1401 1.80218C98.6682 1.80218 99.0948 1.93567 99.4198 2.20265C99.7449 2.46963 99.919 2.83528 99.9422 3.2996H99.15C99.1325 3.05003 99.031 2.84979 98.8452 2.69889C98.6653 2.54799 98.4216 2.47254 98.1139 2.47254C97.8296 2.47254 97.6032 2.53348 97.4349 2.65536C97.2666 2.77724 97.1824 2.93685 97.1824 3.13418C97.1824 3.29089 97.2318 3.42148 97.3304 3.52595C97.4349 3.62462 97.5626 3.70587 97.7135 3.76971C97.8702 3.82775 98.0849 3.8945 98.3577 3.96995C98.7001 4.06281 98.9787 4.15568 99.1935 4.24854C99.4082 4.3356 99.591 4.46909 99.742 4.64901C99.8987 4.82893 99.9799 5.06399 99.9857 5.35419C99.9857 5.61537 99.9132 5.85042 99.7681 6.05937C99.623 6.26831 99.4169 6.43372 99.15 6.5556C98.8888 6.67168 98.587 6.72972 98.2445 6.72972ZM105.457 4.08313C105.457 4.23403 105.448 4.39364 105.431 4.56195H101.618C101.647 5.03207 101.806 5.40062 102.097 5.6676C102.393 5.92878 102.749 6.05937 103.167 6.05937C103.51 6.05937 103.794 5.98101 104.021 5.82431C104.253 5.6618 104.415 5.44705 104.508 5.18007H105.361C105.234 5.63858 104.978 6.01293 104.595 6.30313C104.212 6.58752 103.736 6.72972 103.167 6.72972C102.715 6.72972 102.308 6.62815 101.949 6.42501C101.595 6.22188 101.316 5.93458 101.113 5.56313C100.91 5.18587 100.808 4.75058 100.808 4.25725C100.808 3.76391 100.907 3.33152 101.104 2.96007C101.301 2.58861 101.577 2.30422 101.931 2.10689C102.291 1.90375 102.703 1.80218 103.167 1.80218C103.62 1.80218 104.021 1.90085 104.369 2.09818C104.717 2.29552 104.984 2.5683 105.17 2.91654C105.361 3.25897 105.457 3.64783 105.457 4.08313ZM104.639 3.91772C104.639 3.61591 104.572 3.35764 104.438 3.14289C104.305 2.92234 104.122 2.75693 103.89 2.64665C103.664 2.53058 103.411 2.47254 103.133 2.47254C102.732 2.47254 102.39 2.60022 102.105 2.8556C101.827 3.11097 101.667 3.46501 101.626 3.91772H104.639ZM107.295 2.65536C107.434 2.38257 107.632 2.17073 107.887 2.01983C108.148 1.86893 108.464 1.79348 108.836 1.79348V2.61183H108.627C107.739 2.61183 107.295 3.09356 107.295 4.05701V6.65137H106.503V1.88053H107.295V2.65536ZM111.526 5.92007L113.006 1.88053H113.851L111.979 6.65137H111.056L109.185 1.88053H110.038L111.526 5.92007ZM115.04 1.10571C114.889 1.10571 114.761 1.05347 114.657 0.949004C114.552 0.844533 114.5 0.716846 114.5 0.565944C114.5 0.415042 114.552 0.287355 114.657 0.182884C114.761 0.0784137 114.889 0.0261783 115.04 0.0261783C115.185 0.0261783 115.307 0.0784137 115.405 0.182884C115.51 0.287355 115.562 0.415042 115.562 0.565944C115.562 0.716846 115.51 0.844533 115.405 0.949004C115.307 1.05347 115.185 1.10571 115.04 1.10571ZM115.423 1.88053V6.65137H114.631V1.88053H115.423ZM119.097 1.79348C119.678 1.79348 120.148 1.9705 120.508 2.32454C120.868 2.67277 121.048 3.17771 121.048 3.83936V6.65137H120.264V3.95254C120.264 3.47662 120.145 3.11387 119.907 2.8643C119.669 2.60893 119.344 2.48124 118.932 2.48124C118.514 2.48124 118.18 2.61183 117.931 2.87301C117.687 3.13418 117.565 3.51434 117.565 4.01348V6.65137H116.773V1.88053H117.565V2.55959C117.722 2.31583 117.934 2.1272 118.201 1.99371C118.474 1.86022 118.772 1.79348 119.097 1.79348ZM124.309 1.80218C124.721 1.80218 125.081 1.89214 125.389 2.07206C125.702 2.25199 125.934 2.47834 126.085 2.75112V1.88053H126.886V6.75584C126.886 7.19113 126.793 7.57709 126.608 7.91372C126.422 8.25615 126.155 8.52314 125.807 8.71467C125.464 8.90619 125.064 9.00196 124.605 9.00196C123.978 9.00196 123.456 8.85396 123.038 8.55796C122.62 8.26196 122.374 7.85859 122.298 7.34784H123.082C123.169 7.63804 123.349 7.87019 123.621 8.04431C123.894 8.22423 124.222 8.31419 124.605 8.31419C125.041 8.31419 125.395 8.1778 125.667 7.90502C125.946 7.63223 126.085 7.24917 126.085 6.75584V5.75466C125.929 6.03325 125.696 6.26541 125.389 6.45113C125.081 6.63686 124.721 6.72972 124.309 6.72972C123.886 6.72972 123.5 6.62525 123.151 6.41631C122.809 6.20737 122.539 5.91427 122.342 5.53701C122.144 5.15976 122.046 4.73027 122.046 4.24854C122.046 3.76101 122.144 3.33442 122.342 2.96877C122.539 2.59732 122.809 2.31003 123.151 2.10689C123.5 1.90375 123.886 1.80218 124.309 1.80218ZM126.085 4.25725C126.085 3.8974 126.013 3.58399 125.868 3.31701C125.723 3.05003 125.525 2.84689 125.276 2.7076C125.032 2.5625 124.762 2.48995 124.466 2.48995C124.17 2.48995 123.9 2.55959 123.656 2.69889C123.413 2.83818 123.218 3.04132 123.073 3.3083C122.928 3.57528 122.855 3.8887 122.855 4.24854C122.855 4.61419 122.928 4.9334 123.073 5.20619C123.218 5.47317 123.413 5.67921 123.656 5.82431C123.9 5.9636 124.17 6.03325 124.466 6.03325C124.762 6.03325 125.032 5.9636 125.276 5.82431C125.525 5.67921 125.723 5.47317 125.868 5.20619C126.013 4.9334 126.085 4.61709 126.085 4.25725ZM129.914 6.72972C129.548 6.72972 129.22 6.66878 128.93 6.5469C128.64 6.41921 128.411 6.24509 128.242 6.02454C128.074 5.79819 127.981 5.53991 127.964 5.24972H128.782C128.805 5.48768 128.916 5.68211 129.113 5.83301C129.316 5.98391 129.58 6.05937 129.905 6.05937C130.207 6.05937 130.445 5.99262 130.619 5.85913C130.793 5.72564 130.88 5.55733 130.88 5.35419C130.88 5.14525 130.787 4.99144 130.602 4.89278C130.416 4.7883 130.129 4.68674 129.74 4.58807C129.386 4.49521 129.096 4.40234 128.869 4.30948C128.649 4.21081 128.457 4.06862 128.295 3.88289C128.138 3.69136 128.06 3.44179 128.06 3.13418C128.06 2.89042 128.132 2.66697 128.277 2.46383C128.422 2.26069 128.628 2.10108 128.895 1.98501C129.162 1.86312 129.467 1.80218 129.809 1.80218C130.338 1.80218 130.764 1.93567 131.089 2.20265C131.414 2.46963 131.588 2.83528 131.612 3.2996H130.819C130.802 3.05003 130.7 2.84979 130.515 2.69889C130.335 2.54799 130.091 2.47254 129.783 2.47254C129.499 2.47254 129.273 2.53348 129.104 2.65536C128.936 2.77724 128.852 2.93685 128.852 3.13418C128.852 3.29089 128.901 3.42148 129 3.52595C129.104 3.62462 129.232 3.70587 129.383 3.76971C129.54 3.82775 129.754 3.8945 130.027 3.96995C130.37 4.06281 130.648 4.15568 130.863 4.24854C131.078 4.3356 131.26 4.46909 131.411 4.64901C131.568 4.82893 131.649 5.06399 131.655 5.35419C131.655 5.61537 131.583 5.85042 131.437 6.05937C131.292 6.26831 131.086 6.43372 130.819 6.5556C130.558 6.67168 130.256 6.72972 129.914 6.72972ZM135.887 0.209002V6.65137H135.094V0.209002H135.887ZM137.646 1.10571C137.495 1.10571 137.368 1.05347 137.263 0.949004C137.159 0.844533 137.106 0.716846 137.106 0.565944C137.106 0.415042 137.159 0.287355 137.263 0.182884C137.368 0.0784137 137.495 0.0261783 137.646 0.0261783C137.791 0.0261783 137.913 0.0784137 138.012 0.182884C138.116 0.287355 138.168 0.415042 138.168 0.565944C138.168 0.716846 138.116 0.844533 138.012 0.949004C137.913 1.05347 137.791 1.10571 137.646 1.10571ZM138.029 1.88053V6.65137H137.237V1.88053H138.029ZM142.043 6.65137L140.172 4.54454V6.65137H139.379V0.209002H140.172V3.99607L142.009 1.88053H143.114L140.868 4.25725L143.123 6.65137H142.043ZM148.213 4.08313C148.213 4.23403 148.204 4.39364 148.187 4.56195H144.374C144.403 5.03207 144.562 5.40062 144.852 5.6676C145.148 5.92878 145.505 6.05937 145.923 6.05937C146.266 6.05937 146.55 5.98101 146.776 5.82431C147.009 5.6618 147.171 5.44705 147.264 5.18007H148.117C147.989 5.63858 147.734 6.01293 147.351 6.30313C146.968 6.58752 146.492 6.72972 145.923 6.72972C145.47 6.72972 145.064 6.62815 144.704 6.42501C144.35 6.22188 144.072 5.93458 143.869 5.56313C143.665 5.18587 143.564 4.75058 143.564 4.25725C143.564 3.76391 143.663 3.33152 143.86 2.96007C144.057 2.58861 144.333 2.30422 144.687 2.10689C145.047 1.90375 145.459 1.80218 145.923 1.80218C146.376 1.80218 146.776 1.90085 147.125 2.09818C147.473 2.29552 147.74 2.5683 147.926 2.91654C148.117 3.25897 148.213 3.64783 148.213 4.08313ZM147.394 3.91772C147.394 3.61591 147.328 3.35764 147.194 3.14289C147.061 2.92234 146.878 2.75693 146.646 2.64665C146.419 2.53058 146.167 2.47254 145.888 2.47254C145.488 2.47254 145.145 2.60022 144.861 2.8556C144.582 3.11097 144.423 3.46501 144.382 3.91772H147.394ZM153.269 6.72972C152.903 6.72972 152.575 6.66878 152.285 6.5469C151.995 6.41921 151.765 6.24509 151.597 6.02454C151.429 5.79819 151.336 5.53991 151.318 5.24972H152.137C152.16 5.48768 152.27 5.68211 152.468 5.83301C152.671 5.98391 152.935 6.05937 153.26 6.05937C153.562 6.05937 153.8 5.99262 153.974 5.85913C154.148 5.72564 154.235 5.55733 154.235 5.35419C154.235 5.14525 154.142 4.99144 153.956 4.89278C153.771 4.7883 153.483 4.68674 153.094 4.58807C152.74 4.49521 152.45 4.40234 152.224 4.30948C152.003 4.21081 151.812 4.06862 151.649 3.88289C151.493 3.69136 151.414 3.44179 151.414 3.13418C151.414 2.89042 151.487 2.66697 151.632 2.46383C151.777 2.26069 151.983 2.10108 152.25 1.98501C152.517 1.86312 152.822 1.80218 153.164 1.80218C153.692 1.80218 154.119 1.93567 154.444 2.20265C154.769 2.46963 154.943 2.83528 154.966 3.2996H154.174C154.157 3.05003 154.055 2.84979 153.869 2.69889C153.689 2.54799 153.446 2.47254 153.138 2.47254C152.854 2.47254 152.627 2.53348 152.459 2.65536C152.291 2.77724 152.206 2.93685 152.206 3.13418C152.206 3.29089 152.256 3.42148 152.354 3.52595C152.459 3.62462 152.587 3.70587 152.737 3.76971C152.894 3.82775 153.109 3.8945 153.382 3.96995C153.724 4.06281 154.003 4.15568 154.217 4.24854C154.432 4.3356 154.615 4.46909 154.766 4.64901C154.923 4.82893 155.004 5.06399 155.01 5.35419C155.01 5.61537 154.937 5.85042 154.792 6.05937C154.647 6.26831 154.441 6.43372 154.174 6.5556C153.913 6.67168 153.611 6.72972 153.269 6.72972ZM158.453 1.79348C159.033 1.79348 159.503 1.9705 159.863 2.32454C160.223 2.67277 160.403 3.17771 160.403 3.83936V6.65137H159.619V3.95254C159.619 3.47662 159.5 3.11387 159.262 2.8643C159.024 2.60893 158.699 2.48124 158.287 2.48124C157.869 2.48124 157.536 2.61183 157.286 2.87301C157.042 3.13418 156.92 3.51434 156.92 4.01348V6.65137H156.128V1.88053H156.92V2.55959C157.077 2.31583 157.289 2.1272 157.556 1.99371C157.829 1.86022 158.128 1.79348 158.453 1.79348ZM161.401 4.24854C161.401 3.76101 161.499 3.33442 161.697 2.96877C161.894 2.59732 162.164 2.31003 162.506 2.10689C162.855 1.90375 163.241 1.80218 163.664 1.80218C164.082 1.80218 164.445 1.89214 164.753 2.07206C165.06 2.25199 165.289 2.47834 165.44 2.75112V1.88053H166.241V6.65137H165.44V5.76337C165.284 6.04195 165.049 6.27411 164.735 6.45984C164.428 6.63976 164.068 6.72972 163.656 6.72972C163.232 6.72972 162.849 6.62525 162.506 6.41631C162.164 6.20737 161.894 5.91427 161.697 5.53701C161.499 5.15976 161.401 4.73027 161.401 4.24854ZM165.44 4.25725C165.44 3.8974 165.368 3.58399 165.223 3.31701C165.078 3.05003 164.88 2.84689 164.631 2.7076C164.387 2.5625 164.117 2.48995 163.821 2.48995C163.525 2.48995 163.255 2.55959 163.011 2.69889C162.768 2.83818 162.573 3.04132 162.428 3.3083C162.283 3.57528 162.21 3.8887 162.21 4.24854C162.21 4.61419 162.283 4.9334 162.428 5.20619C162.573 5.47317 162.768 5.67921 163.011 5.82431C163.255 5.9636 163.525 6.03325 163.821 6.03325C164.117 6.03325 164.387 5.9636 164.631 5.82431C164.88 5.67921 165.078 5.47317 165.223 5.20619C165.368 4.9334 165.44 4.61709 165.44 4.25725ZM167.284 4.25725C167.284 3.76391 167.383 3.33442 167.58 2.96877C167.777 2.59732 168.05 2.31003 168.398 2.10689C168.752 1.90375 169.156 1.80218 169.609 1.80218C170.195 1.80218 170.676 1.94438 171.054 2.22877C171.437 2.51316 171.689 2.90783 171.811 3.41277H170.958C170.877 3.12258 170.717 2.89332 170.479 2.72501C170.247 2.55669 169.957 2.47254 169.609 2.47254C169.156 2.47254 168.79 2.62924 168.512 2.94265C168.233 3.25026 168.094 3.68846 168.094 4.25725C168.094 4.83183 168.233 5.27584 168.512 5.58925C168.79 5.90266 169.156 6.05937 169.609 6.05937C169.957 6.05937 170.247 5.97811 170.479 5.8156C170.711 5.65309 170.871 5.42093 170.958 5.11913H171.811C171.683 5.60666 171.428 5.99842 171.045 6.29443C170.662 6.58462 170.183 6.72972 169.609 6.72972C169.156 6.72972 168.752 6.62815 168.398 6.42501C168.05 6.22188 167.777 5.93458 167.58 5.56313C167.383 5.19168 167.284 4.75638 167.284 4.25725ZM175.532 6.65137L173.66 4.54454V6.65137H172.868V0.209002H173.66V3.99607L175.497 1.88053H176.603L174.357 4.25725L176.612 6.65137H175.532ZM179.038 6.72972C178.672 6.72972 178.344 6.66878 178.054 6.5469C177.764 6.41921 177.534 6.24509 177.366 6.02454C177.198 5.79819 177.105 5.53991 177.088 5.24972H177.906C177.929 5.48768 178.039 5.68211 178.237 5.83301C178.44 5.98391 178.704 6.05937 179.029 6.05937C179.331 6.05937 179.569 5.99262 179.743 5.85913C179.917 5.72564 180.004 5.55733 180.004 5.35419C180.004 5.14525 179.911 4.99144 179.725 4.89278C179.54 4.7883 179.252 4.68674 178.864 4.58807C178.509 4.49521 178.219 4.40234 177.993 4.30948C177.772 4.21081 177.581 4.06862 177.418 3.88289C177.262 3.69136 177.183 3.44179 177.183 3.13418C177.183 2.89042 177.256 2.66697 177.401 2.46383C177.546 2.26069 177.752 2.10108 178.019 1.98501C178.286 1.86312 178.591 1.80218 178.933 1.80218C179.461 1.80218 179.888 1.93567 180.213 2.20265C180.538 2.46963 180.712 2.83528 180.735 3.2996H179.943C179.926 3.05003 179.824 2.84979 179.638 2.69889C179.458 2.54799 179.215 2.47254 178.907 2.47254C178.623 2.47254 178.396 2.53348 178.228 2.65536C178.06 2.77724 177.976 2.93685 177.976 3.13418C177.976 3.29089 178.025 3.42148 178.124 3.52595C178.228 3.62462 178.356 3.70587 178.507 3.76971C178.663 3.82775 178.878 3.8945 179.151 3.96995C179.493 4.06281 179.772 4.15568 179.987 4.24854C180.201 4.3356 180.384 4.46909 180.535 4.64901C180.692 4.82893 180.773 5.06399 180.779 5.35419C180.779 5.61537 180.706 5.85042 180.561 6.05937C180.416 6.26831 180.21 6.43372 179.943 6.5556C179.682 6.67168 179.38 6.72972 179.038 6.72972ZM182.716 5.55442L181.74 7.89631H181.209L181.845 5.55442H182.716ZM187.912 1.80218C188.324 1.80218 188.684 1.89214 188.991 2.07206C189.305 2.25199 189.537 2.47834 189.688 2.75112V1.88053H190.489V6.75584C190.489 7.19113 190.396 7.57709 190.21 7.91372C190.024 8.25615 189.757 8.52314 189.409 8.71467C189.067 8.90619 188.666 9.00196 188.208 9.00196C187.581 9.00196 187.058 8.85396 186.641 8.55796C186.223 8.26196 185.976 7.85859 185.901 7.34784H186.684C186.771 7.63804 186.951 7.87019 187.224 8.04431C187.497 8.22423 187.825 8.31419 188.208 8.31419C188.643 8.31419 188.997 8.1778 189.27 7.90502C189.548 7.63223 189.688 7.24917 189.688 6.75584V5.75466C189.531 6.03325 189.299 6.26541 188.991 6.45113C188.684 6.63686 188.324 6.72972 187.912 6.72972C187.488 6.72972 187.102 6.62525 186.754 6.41631C186.411 6.20737 186.141 5.91427 185.944 5.53701C185.747 5.15976 185.648 4.73027 185.648 4.24854C185.648 3.76101 185.747 3.33442 185.944 2.96877C186.141 2.59732 186.411 2.31003 186.754 2.10689C187.102 1.90375 187.488 1.80218 187.912 1.80218ZM189.688 4.25725C189.688 3.8974 189.615 3.58399 189.47 3.31701C189.325 3.05003 189.128 2.84689 188.878 2.7076C188.634 2.5625 188.364 2.48995 188.068 2.48995C187.772 2.48995 187.502 2.55959 187.259 2.69889C187.015 2.83818 186.82 3.04132 186.675 3.3083C186.53 3.57528 186.458 3.8887 186.458 4.24854C186.458 4.61419 186.53 4.9334 186.675 5.20619C186.82 5.47317 187.015 5.67921 187.259 5.82431C187.502 5.9636 187.772 6.03325 188.068 6.03325C188.364 6.03325 188.634 5.9636 188.878 5.82431C189.128 5.67921 189.325 5.47317 189.47 5.20619C189.615 4.9334 189.688 4.61709 189.688 4.25725ZM192.62 2.65536C192.759 2.38257 192.956 2.17073 193.212 2.01983C193.473 1.86893 193.789 1.79348 194.161 1.79348V2.61183H193.952C193.064 2.61183 192.62 3.09356 192.62 4.05701V6.65137H191.827V1.88053H192.62V2.65536ZM194.779 4.24854C194.779 3.76101 194.878 3.33442 195.075 2.96877C195.272 2.59732 195.542 2.31003 195.885 2.10689C196.233 1.90375 196.619 1.80218 197.043 1.80218C197.46 1.80218 197.823 1.89214 198.131 2.07206C198.438 2.25199 198.668 2.47834 198.819 2.75112V1.88053H199.62V6.65137H198.819V5.76337C198.662 6.04195 198.427 6.27411 198.113 6.45984C197.806 6.63976 197.446 6.72972 197.034 6.72972C196.61 6.72972 196.227 6.62525 195.885 6.41631C195.542 6.20737 195.272 5.91427 195.075 5.53701C194.878 5.15976 194.779 4.73027 194.779 4.24854ZM198.819 4.25725C198.819 3.8974 198.746 3.58399 198.601 3.31701C198.456 3.05003 198.259 2.84689 198.009 2.7076C197.765 2.5625 197.495 2.48995 197.199 2.48995C196.903 2.48995 196.633 2.55959 196.39 2.69889C196.146 2.83818 195.951 3.04132 195.806 3.3083C195.661 3.57528 195.589 3.8887 195.589 4.24854C195.589 4.61419 195.661 4.9334 195.806 5.20619C195.951 5.47317 196.146 5.67921 196.39 5.82431C196.633 5.9636 196.903 6.03325 197.199 6.03325C197.495 6.03325 197.765 5.9636 198.009 5.82431C198.259 5.67921 198.456 5.47317 198.601 5.20619C198.746 4.9334 198.819 4.61709 198.819 4.25725ZM202.734 5.92007L204.214 1.88053H205.059L203.187 6.65137H202.264L200.392 1.88053H201.246L202.734 5.92007ZM206.248 1.10571C206.097 1.10571 205.969 1.05347 205.865 0.949004C205.76 0.844533 205.708 0.716846 205.708 0.565944C205.708 0.415042 205.76 0.287355 205.865 0.182884C205.969 0.0784137 206.097 0.0261783 206.248 0.0261783C206.393 0.0261783 206.515 0.0784137 206.613 0.182884C206.718 0.287355 206.77 0.415042 206.77 0.565944C206.77 0.716846 206.718 0.844533 206.613 0.949004C206.515 1.05347 206.393 1.10571 206.248 1.10571ZM206.631 1.88053V6.65137H205.838V1.88053H206.631ZM212.334 4.08313C212.334 4.23403 212.325 4.39364 212.308 4.56195H208.495C208.524 5.03207 208.683 5.40062 208.973 5.6676C209.269 5.92878 209.626 6.05937 210.044 6.05937C210.387 6.05937 210.671 5.98101 210.897 5.82431C211.13 5.6618 211.292 5.44705 211.385 5.18007H212.238C212.11 5.63858 211.855 6.01293 211.472 6.30313C211.089 6.58752 210.613 6.72972 210.044 6.72972C209.591 6.72972 209.185 6.62815 208.825 6.42501C208.471 6.22188 208.193 5.93458 207.99 5.56313C207.786 5.18587 207.685 4.75058 207.685 4.25725C207.685 3.76391 207.784 3.33152 207.981 2.96007C208.178 2.58861 208.454 2.30422 208.808 2.10689C209.168 1.90375 209.58 1.80218 210.044 1.80218C210.497 1.80218 210.897 1.90085 211.246 2.09818C211.594 2.29552 211.861 2.5683 212.047 2.91654C212.238 3.25897 212.334 3.64783 212.334 4.08313ZM211.515 3.91772C211.515 3.61591 211.449 3.35764 211.315 3.14289C211.182 2.92234 210.999 2.75693 210.767 2.64665C210.54 2.53058 210.288 2.47254 210.009 2.47254C209.609 2.47254 209.266 2.60022 208.982 2.8556C208.703 3.11097 208.544 3.46501 208.503 3.91772H211.515ZM215.069 6.72972C214.703 6.72972 214.375 6.66878 214.085 6.5469C213.795 6.41921 213.565 6.24509 213.397 6.02454C213.229 5.79819 213.136 5.53991 213.118 5.24972H213.937C213.96 5.48768 214.07 5.68211 214.268 5.83301C214.471 5.98391 214.735 6.05937 215.06 6.05937C215.362 6.05937 215.6 5.99262 215.774 5.85913C215.948 5.72564 216.035 5.55733 216.035 5.35419C216.035 5.14525 215.942 4.99144 215.756 4.89278C215.571 4.7883 215.283 4.68674 214.894 4.58807C214.54 4.49521 214.25 4.40234 214.024 4.30948C213.803 4.21081 213.612 4.06862 213.449 3.88289C213.293 3.69136 213.214 3.44179 213.214 3.13418C213.214 2.89042 213.287 2.66697 213.432 2.46383C213.577 2.26069 213.783 2.10108 214.05 1.98501C214.317 1.86312 214.622 1.80218 214.964 1.80218C215.492 1.80218 215.919 1.93567 216.244 2.20265C216.569 2.46963 216.743 2.83528 216.766 3.2996H215.974C215.957 3.05003 215.855 2.84979 215.669 2.69889C215.489 2.54799 215.246 2.47254 214.938 2.47254C214.654 2.47254 214.427 2.53348 214.259 2.65536C214.091 2.77724 214.006 2.93685 214.006 3.13418C214.006 3.29089 214.056 3.42148 214.154 3.52595C214.259 3.62462 214.387 3.70587 214.537 3.76971C214.694 3.82775 214.909 3.8945 215.182 3.96995C215.524 4.06281 215.803 4.15568 216.017 4.24854C216.232 4.3356 216.415 4.46909 216.566 4.64901C216.723 4.82893 216.804 5.06399 216.81 5.35419C216.81 5.61537 216.737 5.85042 216.592 6.05937C216.447 6.26831 216.241 6.43372 215.974 6.5556C215.713 6.67168 215.411 6.72972 215.069 6.72972ZM218.746 5.55442L217.771 7.89631H217.24L217.876 5.55442H218.746ZM224.056 6.72972C223.609 6.72972 223.202 6.62815 222.837 6.42501C222.477 6.22188 222.193 5.93458 221.984 5.56313C221.781 5.18587 221.679 4.75058 221.679 4.25725C221.679 3.76971 221.783 3.34022 221.992 2.96877C222.207 2.59152 222.497 2.30422 222.863 2.10689C223.229 1.90375 223.638 1.80218 224.09 1.80218C224.543 1.80218 224.952 1.90375 225.318 2.10689C225.684 2.30422 225.971 2.58861 226.18 2.96007C226.395 3.33152 226.502 3.76391 226.502 4.25725C226.502 4.75058 226.392 5.18587 226.171 5.56313C225.956 5.93458 225.663 6.22188 225.292 6.42501C224.92 6.62815 224.508 6.72972 224.056 6.72972ZM224.056 6.03325C224.34 6.03325 224.607 5.9665 224.857 5.83301C225.106 5.69952 225.306 5.49929 225.457 5.23231C225.614 4.96532 225.692 4.6403 225.692 4.25725C225.692 3.87419 225.617 3.54917 225.466 3.28218C225.315 3.0152 225.118 2.81787 224.874 2.69018C224.63 2.55669 224.366 2.48995 224.082 2.48995C223.792 2.48995 223.525 2.55669 223.281 2.69018C223.043 2.81787 222.851 3.0152 222.706 3.28218C222.561 3.54917 222.489 3.87419 222.489 4.25725C222.489 4.64611 222.558 4.97403 222.698 5.24101C222.843 5.50799 223.034 5.70823 223.272 5.84172C223.51 5.96941 223.771 6.03325 224.056 6.03325ZM228.336 2.65536C228.475 2.38257 228.673 2.17073 228.928 2.01983C229.189 1.86893 229.505 1.79348 229.877 1.79348V2.61183H229.668C228.78 2.61183 228.336 3.09356 228.336 4.05701V6.65137H227.544V1.88053H228.336V2.65536ZM234.801 6.72972C234.436 6.72972 234.108 6.66878 233.818 6.5469C233.527 6.41921 233.298 6.24509 233.13 6.02454C232.961 5.79819 232.869 5.53991 232.851 5.24972H233.67C233.693 5.48768 233.803 5.68211 234 5.83301C234.204 5.98391 234.468 6.05937 234.793 6.05937C235.094 6.05937 235.332 5.99262 235.506 5.85913C235.681 5.72564 235.768 5.55733 235.768 5.35419C235.768 5.14525 235.675 4.99144 235.489 4.89278C235.303 4.7883 235.016 4.68674 234.627 4.58807C234.273 4.49521 233.983 4.40234 233.757 4.30948C233.536 4.21081 233.345 4.06862 233.182 3.88289C233.025 3.69136 232.947 3.44179 232.947 3.13418C232.947 2.89042 233.02 2.66697 233.165 2.46383C233.31 2.26069 233.516 2.10108 233.783 1.98501C234.05 1.86312 234.354 1.80218 234.697 1.80218C235.225 1.80218 235.652 1.93567 235.977 2.20265C236.302 2.46963 236.476 2.83528 236.499 3.2996H235.707C235.689 3.05003 235.588 2.84979 235.402 2.69889C235.222 2.54799 234.978 2.47254 234.671 2.47254C234.386 2.47254 234.16 2.53348 233.992 2.65536C233.823 2.77724 233.739 2.93685 233.739 3.13418C233.739 3.29089 233.789 3.42148 233.887 3.52595C233.992 3.62462 234.119 3.70587 234.27 3.76971C234.427 3.82775 234.642 3.8945 234.914 3.96995C235.257 4.06281 235.536 4.15568 235.75 4.24854C235.965 4.3356 236.148 4.46909 236.299 4.64901C236.455 4.82893 236.537 5.06399 236.542 5.35419C236.542 5.61537 236.47 5.85042 236.325 6.05937C236.18 6.26831 235.974 6.43372 235.707 6.5556C235.446 6.67168 235.144 6.72972 234.801 6.72972ZM244.016 1.88053L242.527 6.65137H241.709L240.56 2.8643L239.411 6.65137H238.592L237.095 1.88053H237.905L239.002 5.88525L240.186 1.88053H240.995L242.153 5.89395L243.233 1.88053H244.016ZM249.155 4.08313C249.155 4.23403 249.147 4.39364 249.129 4.56195H245.316C245.345 5.03207 245.505 5.40062 245.795 5.6676C246.091 5.92878 246.448 6.05937 246.866 6.05937C247.208 6.05937 247.493 5.98101 247.719 5.82431C247.951 5.6618 248.114 5.44705 248.206 5.18007H249.06C248.932 5.63858 248.677 6.01293 248.293 6.30313C247.91 6.58752 247.435 6.72972 246.866 6.72972C246.413 6.72972 246.007 6.62815 245.647 6.42501C245.293 6.22188 245.014 5.93458 244.811 5.56313C244.608 5.18587 244.506 4.75058 244.506 4.25725C244.506 3.76391 244.605 3.33152 244.802 2.96007C245 2.58861 245.275 2.30422 245.629 2.10689C245.989 1.90375 246.401 1.80218 246.866 1.80218C247.318 1.80218 247.719 1.90085 248.067 2.09818C248.415 2.29552 248.682 2.5683 248.868 2.91654C249.06 3.25897 249.155 3.64783 249.155 4.08313ZM248.337 3.91772C248.337 3.61591 248.27 3.35764 248.137 3.14289C248.003 2.92234 247.82 2.75693 247.588 2.64665C247.362 2.53058 247.109 2.47254 246.831 2.47254C246.43 2.47254 246.088 2.60022 245.804 2.8556C245.525 3.11097 245.365 3.46501 245.325 3.91772H248.337ZM254.554 4.08313C254.554 4.23403 254.545 4.39364 254.528 4.56195H250.715C250.744 5.03207 250.903 5.40062 251.194 5.6676C251.49 5.92878 251.847 6.05937 252.264 6.05937C252.607 6.05937 252.891 5.98101 253.118 5.82431C253.35 5.6618 253.512 5.44705 253.605 5.18007H254.458C254.331 5.63858 254.075 6.01293 253.692 6.30313C253.309 6.58752 252.833 6.72972 252.264 6.72972C251.812 6.72972 251.405 6.62815 251.046 6.42501C250.692 6.22188 250.413 5.93458 250.21 5.56313C250.007 5.18587 249.905 4.75058 249.905 4.25725C249.905 3.76391 250.004 3.33152 250.201 2.96007C250.398 2.58861 250.674 2.30422 251.028 2.10689C251.388 1.90375 251.8 1.80218 252.264 1.80218C252.717 1.80218 253.118 1.90085 253.466 2.09818C253.814 2.29552 254.081 2.5683 254.267 2.91654C254.458 3.25897 254.554 3.64783 254.554 4.08313ZM253.736 3.91772C253.736 3.61591 253.669 3.35764 253.535 3.14289C253.402 2.92234 253.219 2.75693 252.987 2.64665C252.761 2.53058 252.508 2.47254 252.23 2.47254C251.829 2.47254 251.487 2.60022 251.202 2.8556C250.924 3.11097 250.764 3.46501 250.723 3.91772H253.736ZM256.566 2.53348V5.34548C256.566 5.57764 256.615 5.74305 256.714 5.84172C256.813 5.93458 256.984 5.98101 257.228 5.98101H257.811V6.65137H257.097C256.656 6.65137 256.325 6.5498 256.105 6.34666C255.884 6.14352 255.774 5.8098 255.774 5.34548V2.53348H255.156V1.88053H255.774V0.679121H256.566V1.88053H257.811V2.53348H256.566ZM260.796 4.24854C260.796 3.76101 260.895 3.33442 261.092 2.96877C261.289 2.59732 261.559 2.31003 261.902 2.10689C262.25 1.90375 262.636 1.80218 263.059 1.80218C263.477 1.80218 263.84 1.89214 264.148 2.07206C264.455 2.25199 264.685 2.47834 264.835 2.75112V1.88053H265.636V6.65137H264.835V5.76337C264.679 6.04195 264.444 6.27411 264.13 6.45984C263.823 6.63976 263.463 6.72972 263.051 6.72972C262.627 6.72972 262.244 6.62525 261.902 6.41631C261.559 6.20737 261.289 5.91427 261.092 5.53701C260.895 5.15976 260.796 4.73027 260.796 4.24854ZM264.835 4.25725C264.835 3.8974 264.763 3.58399 264.618 3.31701C264.473 3.05003 264.275 2.84689 264.026 2.7076C263.782 2.5625 263.512 2.48995 263.216 2.48995C262.92 2.48995 262.65 2.55959 262.407 2.69889C262.163 2.83818 261.968 3.04132 261.823 3.3083C261.678 3.57528 261.606 3.8887 261.606 4.24854C261.606 4.61419 261.678 4.9334 261.823 5.20619C261.968 5.47317 262.163 5.67921 262.407 5.82431C262.65 5.9636 262.92 6.03325 263.216 6.03325C263.512 6.03325 263.782 5.9636 264.026 5.82431C264.275 5.67921 264.473 5.47317 264.618 5.20619C264.763 4.9334 264.835 4.61709 264.835 4.25725ZM268.664 6.72972C268.299 6.72972 267.971 6.66878 267.68 6.5469C267.39 6.41921 267.161 6.24509 266.993 6.02454C266.824 5.79819 266.731 5.53991 266.714 5.24972H267.532C267.556 5.48768 267.666 5.68211 267.863 5.83301C268.066 5.98391 268.33 6.05937 268.655 6.05937C268.957 6.05937 269.195 5.99262 269.369 5.85913C269.543 5.72564 269.631 5.55733 269.631 5.35419C269.631 5.14525 269.538 4.99144 269.352 4.89278C269.166 4.7883 268.879 4.68674 268.49 4.58807C268.136 4.49521 267.846 4.40234 267.619 4.30948C267.399 4.21081 267.207 4.06862 267.045 3.88289C266.888 3.69136 266.81 3.44179 266.81 3.13418C266.81 2.89042 266.882 2.66697 267.027 2.46383C267.173 2.26069 267.379 2.10108 267.646 1.98501C267.913 1.86312 268.217 1.80218 268.56 1.80218C269.088 1.80218 269.514 1.93567 269.839 2.20265C270.165 2.46963 270.339 2.83528 270.362 3.2996H269.57C269.552 3.05003 269.451 2.84979 269.265 2.69889C269.085 2.54799 268.841 2.47254 268.534 2.47254C268.249 2.47254 268.023 2.53348 267.855 2.65536C267.686 2.77724 267.602 2.93685 267.602 3.13418C267.602 3.29089 267.651 3.42148 267.75 3.52595C267.855 3.62462 267.982 3.70587 268.133 3.76971C268.29 3.82775 268.505 3.8945 268.777 3.96995C269.12 4.06281 269.398 4.15568 269.613 4.24854C269.828 4.3356 270.011 4.46909 270.162 4.64901C270.318 4.82893 270.4 5.06399 270.405 5.35419C270.405 5.61537 270.333 5.85042 270.188 6.05937C270.043 6.26831 269.837 6.43372 269.57 6.5556C269.308 6.67168 269.007 6.72972 268.664 6.72972ZM273.213 6.72972C272.847 6.72972 272.519 6.66878 272.229 6.5469C271.939 6.41921 271.709 6.24509 271.541 6.02454C271.373 5.79819 271.28 5.53991 271.263 5.24972H272.081C272.104 5.48768 272.214 5.68211 272.412 5.83301C272.615 5.98391 272.879 6.05937 273.204 6.05937C273.506 6.05937 273.744 5.99262 273.918 5.85913C274.092 5.72564 274.179 5.55733 274.179 5.35419C274.179 5.14525 274.086 4.99144 273.9 4.89278C273.715 4.7883 273.427 4.68674 273.039 4.58807C272.685 4.49521 272.394 4.40234 272.168 4.30948C271.947 4.21081 271.756 4.06862 271.593 3.88289C271.437 3.69136 271.358 3.44179 271.358 3.13418C271.358 2.89042 271.431 2.66697 271.576 2.46383C271.721 2.26069 271.927 2.10108 272.194 1.98501C272.461 1.86312 272.766 1.80218 273.108 1.80218C273.636 1.80218 274.063 1.93567 274.388 2.20265C274.713 2.46963 274.887 2.83528 274.91 3.2996H274.118C274.101 3.05003 273.999 2.84979 273.813 2.69889C273.633 2.54799 273.39 2.47254 273.082 2.47254C272.798 2.47254 272.571 2.53348 272.403 2.65536C272.235 2.77724 272.151 2.93685 272.151 3.13418C272.151 3.29089 272.2 3.42148 272.299 3.52595C272.403 3.62462 272.531 3.70587 272.682 3.76971C272.838 3.82775 273.053 3.8945 273.326 3.96995C273.668 4.06281 273.947 4.15568 274.162 4.24854C274.376 4.3356 274.559 4.46909 274.71 4.64901C274.867 4.82893 274.948 5.06399 274.954 5.35419C274.954 5.61537 274.881 5.85042 274.736 6.05937C274.591 6.26831 274.385 6.43372 274.118 6.5556C273.857 6.67168 273.555 6.72972 273.213 6.72972ZM278.153 6.72972C277.706 6.72972 277.3 6.62815 276.934 6.42501C276.574 6.22188 276.29 5.93458 276.081 5.56313C275.878 5.18587 275.776 4.75058 275.776 4.25725C275.776 3.76971 275.881 3.34022 276.09 2.96877C276.304 2.59152 276.595 2.30422 276.96 2.10689C277.326 1.90375 277.735 1.80218 278.188 1.80218C278.64 1.80218 279.05 1.90375 279.415 2.10689C279.781 2.30422 280.068 2.58861 280.277 2.96007C280.492 3.33152 280.599 3.76391 280.599 4.25725C280.599 4.75058 280.489 5.18587 280.268 5.56313C280.054 5.93458 279.761 6.22188 279.389 6.42501C279.018 6.62815 278.606 6.72972 278.153 6.72972ZM278.153 6.03325C278.437 6.03325 278.704 5.9665 278.954 5.83301C279.203 5.69952 279.404 5.49929 279.555 5.23231C279.711 4.96532 279.79 4.6403 279.79 4.25725C279.79 3.87419 279.714 3.54917 279.563 3.28218C279.412 3.0152 279.215 2.81787 278.971 2.69018C278.728 2.55669 278.463 2.48995 278.179 2.48995C277.889 2.48995 277.622 2.55669 277.378 2.69018C277.14 2.81787 276.949 3.0152 276.804 3.28218C276.658 3.54917 276.586 3.87419 276.586 4.25725C276.586 4.64611 276.656 4.97403 276.795 5.24101C276.94 5.50799 277.131 5.70823 277.369 5.84172C277.607 5.96941 277.869 6.03325 278.153 6.03325ZM282.433 2.65536C282.572 2.38257 282.77 2.17073 283.025 2.01983C283.286 1.86893 283.603 1.79348 283.974 1.79348V2.61183H283.765C282.877 2.61183 282.433 3.09356 282.433 4.05701V6.65137H281.641V1.88053H282.433V2.65536ZM285.855 2.53348V5.34548C285.855 5.57764 285.904 5.74305 286.003 5.84172C286.102 5.93458 286.273 5.98101 286.517 5.98101H287.1V6.65137H286.386C285.945 6.65137 285.614 6.5498 285.394 6.34666C285.173 6.14352 285.063 5.8098 285.063 5.34548V2.53348H284.445V1.88053H285.063V0.679121H285.855V1.88053H287.1V2.53348H285.855ZM293.797 1.79348C294.168 1.79348 294.499 1.87183 294.79 2.02854C295.08 2.17944 295.309 2.40869 295.477 2.7163C295.646 3.02391 295.73 3.39826 295.73 3.83936V6.65137H294.946V3.95254C294.946 3.47662 294.827 3.11387 294.589 2.8643C294.357 2.60893 294.041 2.48124 293.64 2.48124C293.228 2.48124 292.9 2.61473 292.657 2.88171C292.413 3.14289 292.291 3.52305 292.291 4.02219V6.65137H291.507V3.95254C291.507 3.47662 291.388 3.11387 291.15 2.8643C290.918 2.60893 290.602 2.48124 290.202 2.48124C289.789 2.48124 289.461 2.61473 289.218 2.88171C288.974 3.14289 288.852 3.52305 288.852 4.02219V6.65137H288.06V1.88053H288.852V2.5683C289.009 2.31873 289.218 2.1272 289.479 1.99371C289.746 1.86022 290.039 1.79348 290.358 1.79348C290.759 1.79348 291.113 1.88344 291.42 2.06336C291.728 2.24328 291.957 2.50736 292.108 2.8556C292.242 2.51897 292.462 2.25779 292.77 2.07206C293.077 1.88634 293.42 1.79348 293.797 1.79348ZM301.382 4.08313C301.382 4.23403 301.374 4.39364 301.356 4.56195H297.543C297.572 5.03207 297.732 5.40062 298.022 5.6676C298.318 5.92878 298.675 6.05937 299.093 6.05937C299.435 6.05937 299.719 5.98101 299.946 5.82431C300.178 5.6618 300.34 5.44705 300.433 5.18007H301.286C301.159 5.63858 300.903 6.01293 300.52 6.30313C300.137 6.58752 299.661 6.72972 299.093 6.72972C298.64 6.72972 298.234 6.62815 297.874 6.42501C297.52 6.22188 297.241 5.93458 297.038 5.56313C296.835 5.18587 296.733 4.75058 296.733 4.25725C296.733 3.76391 296.832 3.33152 297.029 2.96007C297.227 2.58861 297.502 2.30422 297.856 2.10689C298.216 1.90375 298.628 1.80218 299.093 1.80218C299.545 1.80218 299.946 1.90085 300.294 2.09818C300.642 2.29552 300.909 2.5683 301.095 2.91654C301.286 3.25897 301.382 3.64783 301.382 4.08313ZM300.564 3.91772C300.564 3.61591 300.497 3.35764 300.364 3.14289C300.23 2.92234 300.047 2.75693 299.815 2.64665C299.589 2.53058 299.336 2.47254 299.058 2.47254C298.657 2.47254 298.315 2.60022 298.03 2.8556C297.752 3.11097 297.592 3.46501 297.552 3.91772H300.564ZM304.752 1.79348C305.333 1.79348 305.803 1.9705 306.163 2.32454C306.523 2.67277 306.703 3.17771 306.703 3.83936V6.65137H305.919V3.95254C305.919 3.47662 305.8 3.11387 305.562 2.8643C305.324 2.60893 304.999 2.48124 304.587 2.48124C304.169 2.48124 303.835 2.61183 303.586 2.87301C303.342 3.13418 303.22 3.51434 303.22 4.01348V6.65137H302.428V1.88053H303.22V2.55959C303.377 2.31583 303.589 2.1272 303.856 1.99371C304.129 1.86022 304.427 1.79348 304.752 1.79348ZM308.963 2.53348V5.34548C308.963 5.57764 309.012 5.74305 309.111 5.84172C309.21 5.93458 309.381 5.98101 309.625 5.98101H310.208V6.65137H309.494C309.053 6.65137 308.722 6.5498 308.502 6.34666C308.281 6.14352 308.171 5.8098 308.171 5.34548V2.53348H307.553V1.88053H308.171V0.679121H308.963V1.88053H310.208V2.53348H308.963ZM312.857 6.72972C312.491 6.72972 312.163 6.66878 311.873 6.5469C311.583 6.41921 311.354 6.24509 311.185 6.02454C311.017 5.79819 310.924 5.53991 310.907 5.24972H311.725C311.748 5.48768 311.859 5.68211 312.056 5.83301C312.259 5.98391 312.523 6.05937 312.848 6.05937C313.15 6.05937 313.388 5.99262 313.562 5.85913C313.736 5.72564 313.823 5.55733 313.823 5.35419C313.823 5.14525 313.73 4.99144 313.545 4.89278C313.359 4.7883 313.072 4.68674 312.683 4.58807C312.329 4.49521 312.038 4.40234 311.812 4.30948C311.592 4.21081 311.4 4.06862 311.238 3.88289C311.081 3.69136 311.002 3.44179 311.002 3.13418C311.002 2.89042 311.075 2.66697 311.22 2.46383C311.365 2.26069 311.571 2.10108 311.838 1.98501C312.105 1.86312 312.41 1.80218 312.752 1.80218C313.281 1.80218 313.707 1.93567 314.032 2.20265C314.357 2.46963 314.531 2.83528 314.554 3.2996H313.762C313.745 3.05003 313.643 2.84979 313.458 2.69889C313.278 2.54799 313.034 2.47254 312.726 2.47254C312.442 2.47254 312.215 2.53348 312.047 2.65536C311.879 2.77724 311.795 2.93685 311.795 3.13418C311.795 3.29089 311.844 3.42148 311.943 3.52595C312.047 3.62462 312.175 3.70587 312.326 3.76971C312.482 3.82775 312.697 3.8945 312.97 3.96995C313.312 4.06281 313.591 4.15568 313.806 4.24854C314.021 4.3356 314.203 4.46909 314.354 4.64901C314.511 4.82893 314.592 5.06399 314.598 5.35419C314.598 5.61537 314.525 5.85042 314.38 6.05937C314.235 6.26831 314.029 6.43372 313.762 6.5556C313.501 6.67168 313.199 6.72972 312.857 6.72972ZM315.969 6.7036C315.818 6.7036 315.69 6.65137 315.586 6.5469C315.481 6.44243 315.429 6.31474 315.429 6.16384C315.429 6.01293 315.481 5.88525 315.586 5.78078C315.69 5.67631 315.818 5.62407 315.969 5.62407C316.114 5.62407 316.236 5.67631 316.334 5.78078C316.439 5.88525 316.491 6.01293 316.491 6.16384C316.491 6.31474 316.439 6.44243 316.334 6.5469C316.236 6.65137 316.114 6.7036 315.969 6.7036ZM7.26664 13.5834C7.92829 13.5834 8.49998 13.7081 8.9817 13.9577C9.46923 14.2015 9.84069 14.5526 10.0961 15.0111C10.3572 15.4696 10.4878 16.0094 10.4878 16.6304C10.4878 17.2514 10.3572 17.7912 10.0961 18.2497C9.84069 18.7024 9.46923 19.0507 8.9817 19.2944C8.49998 19.5324 7.92829 19.6514 7.26664 19.6514H5.37746V13.5834H7.26664ZM7.26664 18.9984C8.05017 18.9984 8.64798 18.7924 9.06006 18.3803C9.47214 17.9624 9.67818 17.3791 9.67818 16.6304C9.67818 15.8759 9.46923 15.2868 9.05135 14.8631C8.63927 14.4394 8.04437 14.2276 7.26664 14.2276H6.1697V18.9984H7.26664ZM15.7639 14.8805V19.6514H14.9716V18.9462C14.8207 19.19 14.6089 19.3815 14.3361 19.5208C14.0691 19.6543 13.7731 19.721 13.4481 19.721C13.0766 19.721 12.7429 19.6456 12.4469 19.4947C12.1509 19.338 11.9159 19.1058 11.7417 18.7982C11.5734 18.4906 11.4893 18.1162 11.4893 17.6751V14.8805H12.2728V17.5707C12.2728 18.0408 12.3918 18.4035 12.6297 18.6589C12.8677 18.9085 13.1927 19.0332 13.6048 19.0332C14.0285 19.0332 14.3622 18.9027 14.606 18.6415C14.8498 18.3803 14.9716 18.0001 14.9716 17.501V14.8805H15.7639ZM17.8938 15.6554C18.033 15.3826 18.2304 15.1707 18.4858 15.0198C18.7469 14.8689 19.0632 14.7935 19.4347 14.7935V15.6118H19.2258C18.3378 15.6118 17.8938 16.0936 17.8938 17.057V19.6514H17.1015V14.8805H17.8938V15.6554ZM20.0532 17.2485C20.0532 16.761 20.1519 16.3344 20.3492 15.9688C20.5466 15.5973 20.8164 15.31 21.1589 15.1069C21.5071 14.9038 21.8931 14.8022 22.3168 14.8022C22.7346 14.8022 23.0974 14.8921 23.405 15.0721C23.7126 15.252 23.9419 15.4783 24.0928 15.7511V14.8805H24.8937V19.6514H24.0928V18.7634C23.9361 19.042 23.701 19.2741 23.3876 19.4598C23.08 19.6398 22.7201 19.7297 22.3081 19.7297C21.8844 19.7297 21.5013 19.6252 21.1589 19.4163C20.8164 19.2074 20.5466 18.9143 20.3492 18.537C20.1519 18.1598 20.0532 17.7303 20.0532 17.2485ZM24.0928 17.2572C24.0928 16.8974 24.0202 16.584 23.8751 16.317C23.73 16.05 23.5327 15.8469 23.2831 15.7076C23.0393 15.5625 22.7695 15.4899 22.4735 15.4899C22.1775 15.4899 21.9076 15.5596 21.6638 15.6989C21.4201 15.8382 21.2256 16.0413 21.0805 16.3083C20.9354 16.5753 20.8629 16.8887 20.8629 17.2485C20.8629 17.6142 20.9354 17.9334 21.0805 18.2062C21.2256 18.4732 21.4201 18.6792 21.6638 18.8243C21.9076 18.9636 22.1775 19.0332 22.4735 19.0332C22.7695 19.0332 23.0393 18.9636 23.2831 18.8243C23.5327 18.6792 23.73 18.4732 23.8751 18.2062C24.0202 17.9334 24.0928 17.6171 24.0928 17.2572ZM27.0247 15.7685C27.1873 15.4841 27.4252 15.252 27.7386 15.0721C28.052 14.8921 28.409 14.8022 28.8095 14.8022C29.2389 14.8022 29.6249 14.9038 29.9673 15.1069C30.3098 15.31 30.5797 15.5973 30.777 15.9688C30.9743 16.3344 31.073 16.761 31.073 17.2485C31.073 17.7303 30.9743 18.1598 30.777 18.537C30.5797 18.9143 30.3069 19.2074 29.9586 19.4163C29.6162 19.6252 29.2331 19.7297 28.8095 19.7297C28.3974 19.7297 28.0346 19.6398 27.7212 19.4598C27.4136 19.2799 27.1815 19.0507 27.0247 18.7721V19.6514H26.2325V13.209H27.0247V15.7685ZM30.2633 17.2485C30.2633 16.8887 30.1908 16.5753 30.0457 16.3083C29.9006 16.0413 29.7033 15.8382 29.4537 15.6989C29.2099 15.5596 28.94 15.4899 28.644 15.4899C28.3538 15.4899 28.084 15.5625 27.8344 15.7076C27.5906 15.8469 27.3933 16.0529 27.2424 16.3257C27.0973 16.5927 27.0247 16.9032 27.0247 17.2572C27.0247 17.6171 27.0973 17.9334 27.2424 18.2062C27.3933 18.4732 27.5906 18.6792 27.8344 18.8243C28.084 18.9636 28.3538 19.0332 28.644 19.0332C28.94 19.0332 29.2099 18.9636 29.4537 18.8243C29.7033 18.6792 29.9006 18.4732 30.0457 18.2062C30.1908 17.9334 30.2633 17.6142 30.2633 17.2485ZM32.908 13.209V19.6514H32.1158V13.209H32.908ZM38.6112 17.0831C38.6112 17.234 38.6025 17.3936 38.5851 17.562H34.7719C34.8009 18.0321 34.9605 18.4006 35.2507 18.6676C35.5467 18.9288 35.9037 19.0594 36.3216 19.0594C36.664 19.0594 36.9484 18.981 37.1747 18.8243C37.4069 18.6618 37.5694 18.4471 37.6623 18.1801H38.5154C38.3878 18.6386 38.1324 19.0129 37.7493 19.3031C37.3663 19.5875 36.8903 19.7297 36.3216 19.7297C35.8689 19.7297 35.4626 19.6282 35.1027 19.425C34.7487 19.2219 34.4701 18.9346 34.267 18.5631C34.0638 18.1859 33.9623 17.7506 33.9623 17.2572C33.9623 16.7639 34.0609 16.3315 34.2583 15.9601C34.4556 15.5886 34.7313 15.3042 35.0853 15.1069C35.4452 14.9038 35.8572 14.8022 36.3216 14.8022C36.7743 14.8022 37.1747 14.9008 37.523 15.0982C37.8712 15.2955 38.1382 15.5683 38.3239 15.9165C38.5154 16.259 38.6112 16.6478 38.6112 17.0831ZM37.7929 16.9177C37.7929 16.6159 37.7261 16.3576 37.5926 16.1429C37.4591 15.9223 37.2763 15.7569 37.0441 15.6467C36.8178 15.5306 36.5653 15.4725 36.2867 15.4725C35.8863 15.4725 35.5438 15.6002 35.2594 15.8556C34.9808 16.111 34.8212 16.465 34.7806 16.9177H37.7929ZM43.6669 19.7297C43.3012 19.7297 42.9733 19.6688 42.6831 19.5469C42.3929 19.4192 42.1637 19.2451 41.9954 19.0245C41.827 18.7982 41.7342 18.5399 41.7168 18.2497H42.5351C42.5583 18.4877 42.6686 18.6821 42.8659 18.833C43.0691 18.9839 43.3332 19.0594 43.6582 19.0594C43.96 19.0594 44.1979 18.9926 44.3721 18.8591C44.5462 18.7256 44.6332 18.5573 44.6332 18.3542C44.6332 18.1452 44.5404 17.9914 44.3547 17.8928C44.1689 17.7883 43.8816 17.6867 43.4928 17.5881C43.1387 17.4952 42.8485 17.4023 42.6222 17.3095C42.4016 17.2108 42.2101 17.0686 42.0476 16.8829C41.8909 16.6914 41.8125 16.4418 41.8125 16.1342C41.8125 15.8904 41.8851 15.667 42.0302 15.4638C42.1753 15.2607 42.3813 15.1011 42.6483 14.985C42.9153 14.8631 43.22 14.8022 43.5624 14.8022C44.0906 14.8022 44.5172 14.9357 44.8422 15.2027C45.1672 15.4696 45.3413 15.8353 45.3645 16.2996H44.5723C44.5549 16.05 44.4533 15.8498 44.2676 15.6989C44.0877 15.548 43.8439 15.4725 43.5363 15.4725C43.2519 15.4725 43.0256 15.5335 42.8572 15.6554C42.6889 15.7772 42.6048 15.9369 42.6048 16.1342C42.6048 16.2909 42.6541 16.4215 42.7528 16.5259C42.8572 16.6246 42.9849 16.7059 43.1358 16.7697C43.2925 16.8278 43.5073 16.8945 43.7801 16.97C44.1225 17.0628 44.4011 17.1557 44.6158 17.2485C44.8306 17.3356 45.0134 17.4691 45.1643 17.649C45.321 17.8289 45.4023 18.064 45.4081 18.3542C45.4081 18.6154 45.3355 18.8504 45.1904 19.0594C45.0453 19.2683 44.8393 19.4337 44.5723 19.5556C44.3111 19.6717 44.0093 19.7297 43.6669 19.7297ZM47.4928 15.5335V18.3455C47.4928 18.5776 47.5421 18.7431 47.6408 18.8417C47.7395 18.9346 47.9107 18.981 48.1544 18.981H48.7377V19.6514H48.0238C47.5827 19.6514 47.2519 19.5498 47.0314 19.3467C46.8108 19.1435 46.7006 18.8098 46.7006 18.3455V15.5335H46.0824V14.8805H46.7006V13.6791H47.4928V14.8805H48.7377V15.5335H47.4928ZM50.4899 15.6554C50.6292 15.3826 50.8265 15.1707 51.0819 15.0198C51.343 14.8689 51.6594 14.7935 52.0308 14.7935V15.6118H51.8219C50.9339 15.6118 50.4899 16.0936 50.4899 17.057V19.6514H49.6976V14.8805H50.4899V15.6554ZM57.1764 14.8805V19.6514H56.3842V18.9462C56.2333 19.19 56.0214 19.3815 55.7486 19.5208C55.4817 19.6543 55.1857 19.721 54.8606 19.721C54.4892 19.721 54.1555 19.6456 53.8595 19.4947C53.5635 19.338 53.3284 19.1058 53.1543 18.7982C52.986 18.4906 52.9018 18.1162 52.9018 17.6751V14.8805H53.6853V17.5707C53.6853 18.0408 53.8043 18.4035 54.0423 18.6589C54.2802 18.9085 54.6053 19.0332 55.0173 19.0332C55.441 19.0332 55.7747 18.9027 56.0185 18.6415C56.2623 18.3803 56.3842 18.0001 56.3842 17.501V14.8805H57.1764ZM58.218 17.2572C58.218 16.7639 58.3167 16.3344 58.514 15.9688C58.7114 15.5973 58.9842 15.31 59.3324 15.1069C59.6864 14.9038 60.0898 14.8022 60.5425 14.8022C61.1287 14.8022 61.6104 14.9444 61.9877 15.2288C62.3708 15.5132 62.6232 15.9078 62.7451 16.4128H61.8919C61.8107 16.1226 61.6511 15.8933 61.4131 15.725C61.181 15.5567 60.8908 15.4725 60.5425 15.4725C60.0898 15.4725 59.7242 15.6292 59.4456 15.9427C59.167 16.2503 59.0277 16.6885 59.0277 17.2572C59.0277 17.8318 59.167 18.2758 59.4456 18.5892C59.7242 18.9027 60.0898 19.0594 60.5425 19.0594C60.8908 19.0594 61.181 18.9781 61.4131 18.8156C61.6453 18.6531 61.8049 18.4209 61.8919 18.1191H62.7451C62.6174 18.6067 62.3621 18.9984 61.979 19.2944C61.5959 19.5846 61.1171 19.7297 60.5425 19.7297C60.0898 19.7297 59.6864 19.6282 59.3324 19.425C58.9842 19.2219 58.7114 18.9346 58.514 18.5631C58.3167 18.1917 58.218 17.7564 58.218 17.2572ZM64.7686 15.5335V18.3455C64.7686 18.5776 64.8179 18.7431 64.9166 18.8417C65.0152 18.9346 65.1864 18.981 65.4302 18.981H66.0135V19.6514H65.2996C64.8585 19.6514 64.5277 19.5498 64.3071 19.3467C64.0866 19.1435 63.9763 18.8098 63.9763 18.3455V15.5335H63.3582V14.8805H63.9763V13.6791H64.7686V14.8805H66.0135V15.5335H64.7686ZM71.2045 14.8805V19.6514H70.4122V18.9462C70.2613 19.19 70.0495 19.3815 69.7767 19.5208C69.5097 19.6543 69.2137 19.721 68.8887 19.721C68.5172 19.721 68.1835 19.6456 67.8875 19.4947C67.5915 19.338 67.3565 19.1058 67.1823 18.7982C67.014 18.4906 66.9299 18.1162 66.9299 17.6751V14.8805H67.7134V17.5707C67.7134 18.0408 67.8324 18.4035 68.0703 18.6589C68.3083 18.9085 68.6333 19.0332 69.0454 19.0332C69.4691 19.0332 69.8028 18.9027 70.0466 18.6415C70.2903 18.3803 70.4122 18.0001 70.4122 17.501V14.8805H71.2045ZM73.3343 15.6554C73.4736 15.3826 73.671 15.1707 73.9263 15.0198C74.1875 14.8689 74.5038 14.7935 74.8753 14.7935V15.6118H74.6663C73.7783 15.6118 73.3343 16.0936 73.3343 17.057V19.6514H72.5421V14.8805H73.3343V15.6554ZM80.1428 17.0831C80.1428 17.234 80.1341 17.3936 80.1166 17.562H76.3035C76.3325 18.0321 76.4921 18.4006 76.7823 18.6676C77.0783 18.9288 77.4352 19.0594 77.8531 19.0594C78.1955 19.0594 78.4799 18.981 78.7063 18.8243C78.9384 18.6618 79.101 18.4471 79.1938 18.1801H80.047C79.9193 18.6386 79.6639 19.0129 79.2809 19.3031C78.8978 19.5875 78.4219 19.7297 77.8531 19.7297C77.4004 19.7297 76.9941 19.6282 76.6343 19.425C76.2802 19.2219 76.0017 18.9346 75.7985 18.5631C75.5954 18.1859 75.4938 17.7506 75.4938 17.2572C75.4938 16.7639 75.5925 16.3315 75.7898 15.9601C75.9871 15.5886 76.2628 15.3042 76.6169 15.1069C76.9767 14.9038 77.3888 14.8022 77.8531 14.8022C78.3058 14.8022 78.7063 14.9008 79.0545 15.0982C79.4028 15.2955 79.6697 15.5683 79.8555 15.9165C80.047 16.259 80.1428 16.6478 80.1428 17.0831ZM79.3244 16.9177C79.3244 16.6159 79.2577 16.3576 79.1242 16.1429C78.9907 15.9223 78.8079 15.7569 78.5757 15.6467C78.3493 15.5306 78.0969 15.4725 77.8183 15.4725C77.4178 15.4725 77.0754 15.6002 76.791 15.8556C76.5124 16.111 76.3528 16.465 76.3122 16.9177H79.3244ZM86.1735 19.6514L84.3017 17.5445V19.6514H83.5095V13.209H84.3017V16.9961L86.1387 14.8805H87.2443L84.9982 17.2572L87.253 19.6514H86.1735ZM92.3429 17.0831C92.3429 17.234 92.3342 17.3936 92.3168 17.562H88.5036C88.5326 18.0321 88.6922 18.4006 88.9824 18.6676C89.2784 18.9288 89.6354 19.0594 90.0533 19.0594C90.3957 19.0594 90.6801 18.981 90.9064 18.8243C91.1386 18.6618 91.3011 18.4471 91.394 18.1801H92.2472C92.1195 18.6386 91.8641 19.0129 91.481 19.3031C91.098 19.5875 90.6221 19.7297 90.0533 19.7297C89.6006 19.7297 89.1943 19.6282 88.8344 19.425C88.4804 19.2219 88.2018 18.9346 87.9987 18.5631C87.7955 18.1859 87.694 17.7506 87.694 17.2572C87.694 16.7639 87.7926 16.3315 87.99 15.9601C88.1873 15.5886 88.463 15.3042 88.817 15.1069C89.1769 14.9038 89.589 14.8022 90.0533 14.8022C90.506 14.8022 90.9064 14.9008 91.2547 15.0982C91.6029 15.2955 91.8699 15.5683 92.0556 15.9165C92.2472 16.259 92.3429 16.6478 92.3429 17.0831ZM91.5246 16.9177C91.5246 16.6159 91.4578 16.3576 91.3243 16.1429C91.1908 15.9223 91.008 15.7569 90.7759 15.6467C90.5495 15.5306 90.297 15.4725 90.0184 15.4725C89.618 15.4725 89.2755 15.6002 88.9912 15.8556C88.7126 16.111 88.553 16.465 88.5123 16.9177H91.5246ZM97.7416 17.0831C97.7416 17.234 97.7329 17.3936 97.7155 17.562H93.9023C93.9313 18.0321 94.0909 18.4006 94.3811 18.6676C94.6771 18.9288 95.0341 19.0594 95.452 19.0594C95.7944 19.0594 96.0788 18.981 96.3051 18.8243C96.5373 18.6618 96.6998 18.4471 96.7927 18.1801H97.6458C97.5182 18.6386 97.2628 19.0129 96.8797 19.3031C96.4967 19.5875 96.0207 19.7297 95.452 19.7297C94.9992 19.7297 94.593 19.6282 94.2331 19.425C93.8791 19.2219 93.6005 18.9346 93.3974 18.5631C93.1942 18.1859 93.0927 17.7506 93.0927 17.2572C93.0927 16.7639 93.1913 16.3315 93.3887 15.9601C93.586 15.5886 93.8617 15.3042 94.2157 15.1069C94.5756 14.9038 94.9876 14.8022 95.452 14.8022C95.9047 14.8022 96.3051 14.9008 96.6534 15.0982C97.0016 15.2955 97.2686 15.5683 97.4543 15.9165C97.6458 16.259 97.7416 16.6478 97.7416 17.0831ZM96.9232 16.9177C96.9232 16.6159 96.8565 16.3576 96.723 16.1429C96.5895 15.9223 96.4067 15.7569 96.1745 15.6467C95.9482 15.5306 95.6957 15.4725 95.4171 15.4725C95.0167 15.4725 94.6742 15.6002 94.3898 15.8556C94.1112 16.111 93.9516 16.465 93.911 16.9177H96.9232ZM99.5796 15.7598C99.7363 15.487 99.9684 15.2607 100.276 15.0808C100.589 14.895 100.952 14.8022 101.364 14.8022C101.788 14.8022 102.171 14.9038 102.513 15.1069C102.862 15.31 103.134 15.5973 103.332 15.9688C103.529 16.3344 103.628 16.761 103.628 17.2485C103.628 17.7303 103.529 18.1598 103.332 18.537C103.134 18.9143 102.862 19.2074 102.513 19.4163C102.171 19.6252 101.788 19.7297 101.364 19.7297C100.958 19.7297 100.598 19.6398 100.285 19.4598C99.9771 19.2741 99.7421 19.0449 99.5796 18.7721V21.9149H98.7873V14.8805H99.5796V15.7598ZM102.818 17.2485C102.818 16.8887 102.746 16.5753 102.601 16.3083C102.455 16.0413 102.258 15.8382 102.009 15.6989C101.765 15.5596 101.495 15.4899 101.199 15.4899C100.909 15.4899 100.639 15.5625 100.389 15.7076C100.145 15.8469 99.9481 16.0529 99.7972 16.3257C99.6521 16.5927 99.5796 16.9032 99.5796 17.2572C99.5796 17.6171 99.6521 17.9334 99.7972 18.2062C99.9481 18.4732 100.145 18.6792 100.389 18.8243C100.639 18.9636 100.909 19.0332 101.199 19.0332C101.495 19.0332 101.765 18.9636 102.009 18.8243C102.258 18.6792 102.455 18.4732 102.601 18.2062C102.746 17.9334 102.818 17.6142 102.818 17.2485ZM106.36 19.7297C105.994 19.7297 105.666 19.6688 105.376 19.5469C105.086 19.4192 104.856 19.2451 104.688 19.0245C104.52 18.7982 104.427 18.5399 104.409 18.2497H105.228C105.251 18.4877 105.361 18.6821 105.559 18.833C105.762 18.9839 106.026 19.0594 106.351 19.0594C106.653 19.0594 106.891 18.9926 107.065 18.8591C107.239 18.7256 107.326 18.5573 107.326 18.3542C107.326 18.1452 107.233 17.9914 107.047 17.8928C106.862 17.7883 106.574 17.6867 106.185 17.5881C105.831 17.4952 105.541 17.4023 105.315 17.3095C105.094 17.2108 104.903 17.0686 104.74 16.8829C104.584 16.6914 104.505 16.4418 104.505 16.1342C104.505 15.8904 104.578 15.667 104.723 15.4638C104.868 15.2607 105.074 15.1011 105.341 14.985C105.608 14.8631 105.913 14.8022 106.255 14.8022C106.783 14.8022 107.21 14.9357 107.535 15.2027C107.86 15.4696 108.034 15.8353 108.057 16.2996H107.265C107.248 16.05 107.146 15.8498 106.96 15.6989C106.78 15.548 106.537 15.4725 106.229 15.4725C105.945 15.4725 105.718 15.5335 105.55 15.6554C105.382 15.7772 105.297 15.9369 105.297 16.1342C105.297 16.2909 105.347 16.4215 105.445 16.5259C105.55 16.6246 105.678 16.7059 105.828 16.7697C105.985 16.8278 106.2 16.8945 106.473 16.97C106.815 17.0628 107.094 17.1557 107.309 17.2485C107.523 17.3356 107.706 17.4691 107.857 17.649C108.014 17.8289 108.095 18.064 108.101 18.3542C108.101 18.6154 108.028 18.8504 107.883 19.0594C107.738 19.2683 107.532 19.4337 107.265 19.5556C107.004 19.6717 106.702 19.7297 106.36 19.7297ZM111.244 17.2572C111.244 16.7639 111.343 16.3344 111.54 15.9688C111.737 15.5973 112.01 15.31 112.358 15.1069C112.713 14.9038 113.116 14.8022 113.569 14.8022C114.155 14.8022 114.637 14.9444 115.014 15.2288C115.397 15.5132 115.649 15.9078 115.771 16.4128H114.918C114.837 16.1226 114.677 15.8933 114.439 15.725C114.207 15.5567 113.917 15.4725 113.569 15.4725C113.116 15.4725 112.75 15.6292 112.472 15.9427C112.193 16.2503 112.054 16.6885 112.054 17.2572C112.054 17.8318 112.193 18.2758 112.472 18.5892C112.75 18.9027 113.116 19.0594 113.569 19.0594C113.917 19.0594 114.207 18.9781 114.439 18.8156C114.671 18.6531 114.831 18.4209 114.918 18.1191H115.771C115.643 18.6067 115.388 18.9984 115.005 19.2944C114.622 19.5846 114.143 19.7297 113.569 19.7297C113.116 19.7297 112.713 19.6282 112.358 19.425C112.01 19.2219 111.737 18.9346 111.54 18.5631C111.343 18.1917 111.244 17.7564 111.244 17.2572ZM118.909 19.7297C118.462 19.7297 118.056 19.6282 117.69 19.425C117.33 19.2219 117.046 18.9346 116.837 18.5631C116.634 18.1859 116.532 17.7506 116.532 17.2572C116.532 16.7697 116.637 16.3402 116.846 15.9688C117.06 15.5915 117.351 15.3042 117.716 15.1069C118.082 14.9038 118.491 14.8022 118.944 14.8022C119.396 14.8022 119.806 14.9038 120.171 15.1069C120.537 15.3042 120.824 15.5886 121.033 15.9601C121.248 16.3315 121.355 16.7639 121.355 17.2572C121.355 17.7506 121.245 18.1859 121.024 18.5631C120.81 18.9346 120.517 19.2219 120.145 19.425C119.774 19.6282 119.362 19.7297 118.909 19.7297ZM118.909 19.0332C119.193 19.0332 119.46 18.9665 119.71 18.833C119.959 18.6995 120.16 18.4993 120.311 18.2323C120.467 17.9653 120.546 17.6403 120.546 17.2572C120.546 16.8742 120.47 16.5492 120.319 16.2822C120.168 16.0152 119.971 15.8179 119.727 15.6902C119.484 15.5567 119.219 15.4899 118.935 15.4899C118.645 15.4899 118.378 15.5567 118.134 15.6902C117.896 15.8179 117.705 16.0152 117.56 16.2822C117.414 16.5492 117.342 16.8742 117.342 17.2572C117.342 17.6461 117.412 17.974 117.551 18.241C117.696 18.508 117.887 18.7082 118.125 18.8417C118.363 18.9694 118.625 19.0332 118.909 19.0332ZM124.721 14.7935C125.302 14.7935 125.772 14.9705 126.132 15.3245C126.492 15.6728 126.672 16.1777 126.672 16.8394V19.6514H125.888V16.9525C125.888 16.4766 125.769 16.1139 125.531 15.8643C125.293 15.6089 124.968 15.4812 124.556 15.4812C124.138 15.4812 123.804 15.6118 123.555 15.873C123.311 16.1342 123.189 16.5143 123.189 17.0135V19.6514H122.397V14.8805H123.189V15.5596C123.346 15.3158 123.558 15.1272 123.825 14.9937C124.098 14.8602 124.396 14.7935 124.721 14.7935ZM128.932 15.5335V18.3455C128.932 18.5776 128.981 18.7431 129.08 18.8417C129.179 18.9346 129.35 18.981 129.594 18.981H130.177V19.6514H129.463C129.022 19.6514 128.691 19.5498 128.471 19.3467C128.25 19.1435 128.14 18.8098 128.14 18.3455V15.5335H127.522V14.8805H128.14V13.6791H128.932V14.8805H130.177V15.5335H128.932ZM135.49 17.0831C135.49 17.234 135.481 17.3936 135.464 17.562H131.651C131.68 18.0321 131.839 18.4006 132.129 18.6676C132.425 18.9288 132.782 19.0594 133.2 19.0594C133.543 19.0594 133.827 18.981 134.053 18.8243C134.286 18.6618 134.448 18.4471 134.541 18.1801H135.394C135.266 18.6386 135.011 19.0129 134.628 19.3031C134.245 19.5875 133.769 19.7297 133.2 19.7297C132.747 19.7297 132.341 19.6282 131.981 19.425C131.627 19.2219 131.349 18.9346 131.146 18.5631C130.942 18.1859 130.841 17.7506 130.841 17.2572C130.841 16.7639 130.94 16.3315 131.137 15.9601C131.334 15.5886 131.61 15.3042 131.964 15.1069C132.324 14.9038 132.736 14.8022 133.2 14.8022C133.653 14.8022 134.053 14.9008 134.402 15.0982C134.75 15.2955 135.017 15.5683 135.203 15.9165C135.394 16.259 135.49 16.6478 135.49 17.0831ZM134.671 16.9177C134.671 16.6159 134.605 16.3576 134.471 16.1429C134.338 15.9223 134.155 15.7569 133.923 15.6467C133.696 15.5306 133.444 15.4725 133.165 15.4725C132.765 15.4725 132.422 15.6002 132.138 15.8556C131.859 16.111 131.7 16.465 131.659 16.9177H134.671ZM138.86 14.7935C139.44 14.7935 139.911 14.9705 140.27 15.3245C140.63 15.6728 140.81 16.1777 140.81 16.8394V19.6514H140.027V16.9525C140.027 16.4766 139.908 16.1139 139.67 15.8643C139.432 15.6089 139.107 15.4812 138.695 15.4812C138.277 15.4812 137.943 15.6118 137.693 15.873C137.45 16.1342 137.328 16.5143 137.328 17.0135V19.6514H136.536V14.8805H137.328V15.5596C137.485 15.3158 137.696 15.1272 137.963 14.9937C138.236 14.8602 138.535 14.7935 138.86 14.7935ZM143.071 15.5335V18.3455C143.071 18.5776 143.12 18.7431 143.219 18.8417C143.317 18.9346 143.489 18.981 143.732 18.981H144.316V19.6514H143.602C143.161 19.6514 142.83 19.5498 142.609 19.3467C142.389 19.1435 142.278 18.8098 142.278 18.3455V15.5335H141.66V14.8805H142.278V13.6791H143.071V14.8805H144.316V15.5335H143.071ZM146.964 19.7297C146.599 19.7297 146.271 19.6688 145.981 19.5469C145.69 19.4192 145.461 19.2451 145.293 19.0245C145.125 18.7982 145.032 18.5399 145.014 18.2497H145.833C145.856 18.4877 145.966 18.6821 146.163 18.833C146.367 18.9839 146.631 19.0594 146.956 19.0594C147.258 19.0594 147.495 18.9926 147.67 18.8591C147.844 18.7256 147.931 18.5573 147.931 18.3542C147.931 18.1452 147.838 17.9914 147.652 17.8928C147.466 17.7883 147.179 17.6867 146.79 17.5881C146.436 17.4952 146.146 17.4023 145.92 17.3095C145.699 17.2108 145.508 17.0686 145.345 16.8829C145.188 16.6914 145.11 16.4418 145.11 16.1342C145.11 15.8904 145.183 15.667 145.328 15.4638C145.473 15.2607 145.679 15.1011 145.946 14.985C146.213 14.8631 146.518 14.8022 146.86 14.8022C147.388 14.8022 147.815 14.9357 148.14 15.2027C148.465 15.4696 148.639 15.8353 148.662 16.2996H147.87C147.852 16.05 147.751 15.8498 147.565 15.6989C147.385 15.548 147.141 15.4725 146.834 15.4725C146.549 15.4725 146.323 15.5335 146.155 15.6554C145.986 15.7772 145.902 15.9369 145.902 16.1342C145.902 16.2909 145.952 16.4215 146.05 16.5259C146.155 16.6246 146.282 16.7059 146.433 16.7697C146.59 16.8278 146.805 16.8945 147.078 16.97C147.42 17.0628 147.699 17.1557 147.913 17.2485C148.128 17.3356 148.311 17.4691 148.462 17.649C148.619 17.8289 148.7 18.064 148.706 18.3542C148.706 18.6154 148.633 18.8504 148.488 19.0594C148.343 19.2683 148.137 19.4337 147.87 19.5556C147.609 19.6717 147.307 19.7297 146.964 19.7297ZM154.086 15.5335H153.085V19.6514H152.293V15.5335H151.675V14.8805H152.293V14.541C152.293 14.007 152.429 13.6182 152.702 13.3744C152.981 13.1248 153.425 13.0001 154.034 13.0001V13.6617C153.686 13.6617 153.439 13.7314 153.294 13.8707C153.155 14.0041 153.085 14.2276 153.085 14.541V14.8805H154.086V15.5335ZM155.802 15.6554C155.942 15.3826 156.139 15.1707 156.394 15.0198C156.656 14.8689 156.972 14.7935 157.343 14.7935V15.6118H157.134C156.246 15.6118 155.802 16.0936 155.802 17.057V19.6514H155.01V14.8805H155.802V15.6554ZM162.611 17.0831C162.611 17.234 162.602 17.3936 162.585 17.562H158.771C158.8 18.0321 158.96 18.4006 159.25 18.6676C159.546 18.9288 159.903 19.0594 160.321 19.0594C160.664 19.0594 160.948 18.981 161.174 18.8243C161.406 18.6618 161.569 18.4471 161.662 18.1801H162.515C162.387 18.6386 162.132 19.0129 161.749 19.3031C161.366 19.5875 160.89 19.7297 160.321 19.7297C159.868 19.7297 159.462 19.6282 159.102 19.425C158.748 19.2219 158.47 18.9346 158.267 18.5631C158.063 18.1859 157.962 17.7506 157.962 17.2572C157.962 16.7639 158.06 16.3315 158.258 15.9601C158.455 15.5886 158.731 15.3042 159.085 15.1069C159.445 14.9038 159.857 14.8022 160.321 14.8022C160.774 14.8022 161.174 14.9008 161.523 15.0982C161.871 15.2955 162.138 15.5683 162.323 15.9165C162.515 16.259 162.611 16.6478 162.611 17.0831ZM161.792 16.9177C161.792 16.6159 161.726 16.3576 161.592 16.1429C161.459 15.9223 161.276 15.7569 161.044 15.6467C160.817 15.5306 160.565 15.4725 160.286 15.4725C159.886 15.4725 159.543 15.6002 159.259 15.8556C158.98 16.111 158.821 16.465 158.78 16.9177H161.792ZM165.345 19.7297C164.98 19.7297 164.652 19.6688 164.362 19.5469C164.071 19.4192 163.842 19.2451 163.674 19.0245C163.506 18.7982 163.413 18.5399 163.395 18.2497H164.214C164.237 18.4877 164.347 18.6821 164.544 18.833C164.748 18.9839 165.012 19.0594 165.337 19.0594C165.639 19.0594 165.876 18.9926 166.051 18.8591C166.225 18.7256 166.312 18.5573 166.312 18.3542C166.312 18.1452 166.219 17.9914 166.033 17.8928C165.847 17.7883 165.56 17.6867 165.171 17.5881C164.817 17.4952 164.527 17.4023 164.301 17.3095C164.08 17.2108 163.889 17.0686 163.726 16.8829C163.569 16.6914 163.491 16.4418 163.491 16.1342C163.491 15.8904 163.564 15.667 163.709 15.4638C163.854 15.2607 164.06 15.1011 164.327 14.985C164.594 14.8631 164.899 14.8022 165.241 14.8022C165.769 14.8022 166.196 14.9357 166.521 15.2027C166.846 15.4696 167.02 15.8353 167.043 16.2996H166.251C166.233 16.05 166.132 15.8498 165.946 15.6989C165.766 15.548 165.522 15.4725 165.215 15.4725C164.93 15.4725 164.704 15.5335 164.536 15.6554C164.367 15.7772 164.283 15.9369 164.283 16.1342C164.283 16.2909 164.333 16.4215 164.431 16.5259C164.536 16.6246 164.663 16.7059 164.814 16.7697C164.971 16.8278 165.186 16.8945 165.459 16.97C165.801 17.0628 166.08 17.1557 166.294 17.2485C166.509 17.3356 166.692 17.4691 166.843 17.649C167 17.8289 167.081 18.064 167.087 18.3542C167.087 18.6154 167.014 18.8504 166.869 19.0594C166.724 19.2683 166.518 19.4337 166.251 19.5556C165.99 19.6717 165.688 19.7297 165.345 19.7297ZM170.573 14.7935C170.933 14.7935 171.258 14.8718 171.548 15.0285C171.838 15.1794 172.065 15.4087 172.227 15.7163C172.395 16.0239 172.48 16.3983 172.48 16.8394V19.6514H171.696V16.9525C171.696 16.4766 171.577 16.1139 171.339 15.8643C171.101 15.6089 170.776 15.4812 170.364 15.4812C169.946 15.4812 169.612 15.6118 169.363 15.873C169.119 16.1342 168.997 16.5143 168.997 17.0135V19.6514H168.205V13.209H168.997V15.5596C169.154 15.3158 169.369 15.1272 169.641 14.9937C169.92 14.8602 170.231 14.7935 170.573 14.7935ZM175.799 17.2485C175.799 16.761 175.897 16.3344 176.095 15.9688C176.292 15.5973 176.562 15.31 176.904 15.1069C177.253 14.9038 177.639 14.8022 178.062 14.8022C178.48 14.8022 178.843 14.8921 179.15 15.0721C179.458 15.252 179.687 15.4783 179.838 15.7511V14.8805H180.639V19.6514H179.838V18.7634C179.682 19.042 179.446 19.2741 179.133 19.4598C178.825 19.6398 178.466 19.7297 178.054 19.7297C177.63 19.7297 177.247 19.6252 176.904 19.4163C176.562 19.2074 176.292 18.9143 176.095 18.537C175.897 18.1598 175.799 17.7303 175.799 17.2485ZM179.838 17.2572C179.838 16.8974 179.766 16.584 179.621 16.317C179.475 16.05 179.278 15.8469 179.029 15.7076C178.785 15.5625 178.515 15.4899 178.219 15.4899C177.923 15.4899 177.653 15.5596 177.409 15.6989C177.166 15.8382 176.971 16.0413 176.826 16.3083C176.681 16.5753 176.608 16.8887 176.608 17.2485C176.608 17.6142 176.681 17.9334 176.826 18.2062C176.971 18.4732 177.166 18.6792 177.409 18.8243C177.653 18.9636 177.923 19.0332 178.219 19.0332C178.515 19.0332 178.785 18.9636 179.029 18.8243C179.278 18.6792 179.475 18.4732 179.621 18.2062C179.766 17.9334 179.838 17.6171 179.838 17.2572ZM184.302 14.7935C184.883 14.7935 185.353 14.9705 185.713 15.3245C186.073 15.6728 186.253 16.1777 186.253 16.8394V19.6514H185.469V16.9525C185.469 16.4766 185.35 16.1139 185.112 15.8643C184.874 15.6089 184.549 15.4812 184.137 15.4812C183.719 15.4812 183.385 15.6118 183.136 15.873C182.892 16.1342 182.77 16.5143 182.77 17.0135V19.6514H181.978V14.8805H182.77V15.5596C182.927 15.3158 183.139 15.1272 183.406 14.9937C183.679 14.8602 183.977 14.7935 184.302 14.7935ZM187.251 17.2485C187.251 16.761 187.349 16.3344 187.547 15.9688C187.744 15.5973 188.014 15.31 188.356 15.1069C188.705 14.9038 189.093 14.8022 189.523 14.8022C189.894 14.8022 190.24 14.8892 190.559 15.0634C190.878 15.2317 191.122 15.4551 191.29 15.7337V13.209H192.091V19.6514H191.29V18.7547C191.134 19.0391 190.901 19.2741 190.594 19.4598C190.286 19.6398 189.926 19.7297 189.514 19.7297C189.091 19.7297 188.705 19.6252 188.356 19.4163C188.014 19.2074 187.744 18.9143 187.547 18.537C187.349 18.1598 187.251 17.7303 187.251 17.2485ZM191.29 17.2572C191.29 16.8974 191.218 16.584 191.073 16.317C190.927 16.05 190.73 15.8469 190.481 15.7076C190.237 15.5625 189.967 15.4899 189.671 15.4899C189.375 15.4899 189.105 15.5596 188.861 15.6989C188.618 15.8382 188.423 16.0413 188.278 16.3083C188.133 16.5753 188.06 16.8887 188.06 17.2485C188.06 17.6142 188.133 17.9334 188.278 18.2062C188.423 18.4732 188.618 18.6792 188.861 18.8243C189.105 18.9636 189.375 19.0332 189.671 19.0332C189.967 19.0332 190.237 18.9636 190.481 18.8243C190.73 18.6792 190.927 18.4732 191.073 18.2062C191.218 17.9334 191.29 17.6171 191.29 17.2572ZM196.543 15.7598C196.7 15.487 196.932 15.2607 197.24 15.0808C197.553 14.895 197.916 14.8022 198.328 14.8022C198.752 14.8022 199.135 14.9038 199.477 15.1069C199.825 15.31 200.098 15.5973 200.295 15.9688C200.493 16.3344 200.591 16.761 200.591 17.2485C200.591 17.7303 200.493 18.1598 200.295 18.537C200.098 18.9143 199.825 19.2074 199.477 19.4163C199.135 19.6252 198.752 19.7297 198.328 19.7297C197.922 19.7297 197.562 19.6398 197.248 19.4598C196.941 19.2741 196.706 19.0449 196.543 18.7721V21.9149H195.751V14.8805H196.543V15.7598ZM199.782 17.2485C199.782 16.8887 199.709 16.5753 199.564 16.3083C199.419 16.0413 199.222 15.8382 198.972 15.6989C198.728 15.5596 198.459 15.4899 198.163 15.4899C197.872 15.4899 197.602 15.5625 197.353 15.7076C197.109 15.8469 196.912 16.0529 196.761 16.3257C196.616 16.5927 196.543 16.9032 196.543 17.2572C196.543 17.6171 196.616 17.9334 196.761 18.2062C196.912 18.4732 197.109 18.6792 197.353 18.8243C197.602 18.9636 197.872 19.0332 198.163 19.0332C198.459 19.0332 198.728 18.9636 198.972 18.8243C199.222 18.6792 199.419 18.4732 199.564 18.2062C199.709 17.9334 199.782 17.6142 199.782 17.2485ZM202.426 15.6554C202.566 15.3826 202.763 15.1707 203.018 15.0198C203.28 14.8689 203.596 14.7935 203.967 14.7935V15.6118H203.758C202.87 15.6118 202.426 16.0936 202.426 17.057V19.6514H201.634V14.8805H202.426V15.6554ZM206.963 19.7297C206.516 19.7297 206.109 19.6282 205.744 19.425C205.384 19.2219 205.1 18.9346 204.891 18.5631C204.688 18.1859 204.586 17.7506 204.586 17.2572C204.586 16.7697 204.69 16.3402 204.899 15.9688C205.114 15.5915 205.404 15.3042 205.77 15.1069C206.136 14.9038 206.545 14.8022 206.997 14.8022C207.45 14.8022 207.859 14.9038 208.225 15.1069C208.591 15.3042 208.878 15.5886 209.087 15.9601C209.302 16.3315 209.409 16.7639 209.409 17.2572C209.409 17.7506 209.299 18.1859 209.078 18.5631C208.863 18.9346 208.57 19.2219 208.199 19.425C207.827 19.6282 207.415 19.7297 206.963 19.7297ZM206.963 19.0332C207.247 19.0332 207.514 18.9665 207.764 18.833C208.013 18.6995 208.213 18.4993 208.364 18.2323C208.521 17.9653 208.599 17.6403 208.599 17.2572C208.599 16.8742 208.524 16.5492 208.373 16.2822C208.222 16.0152 208.025 15.8179 207.781 15.6902C207.537 15.5567 207.273 15.4899 206.989 15.4899C206.699 15.4899 206.432 15.5567 206.188 15.6902C205.95 15.8179 205.758 16.0152 205.613 16.2822C205.468 16.5492 205.396 16.8742 205.396 17.2572C205.396 17.6461 205.465 17.974 205.605 18.241C205.75 18.508 205.941 18.7082 206.179 18.8417C206.417 18.9694 206.678 19.0332 206.963 19.0332ZM211.417 15.5335V18.3455C211.417 18.5776 211.466 18.7431 211.565 18.8417C211.664 18.9346 211.835 18.981 212.079 18.981H212.662V19.6514H211.948C211.507 19.6514 211.176 19.5498 210.956 19.3467C210.735 19.1435 210.625 18.8098 210.625 18.3455V15.5335H210.007V14.8805H210.625V13.6791H211.417V14.8805H212.662V15.5335H211.417ZM217.975 17.0831C217.975 17.234 217.966 17.3936 217.949 17.562H214.136C214.165 18.0321 214.324 18.4006 214.614 18.6676C214.91 18.9288 215.267 19.0594 215.685 19.0594C216.028 19.0594 216.312 18.981 216.538 18.8243C216.77 18.6618 216.933 18.4471 217.026 18.1801H217.879C217.751 18.6386 217.496 19.0129 217.113 19.3031C216.73 19.5875 216.254 19.7297 215.685 19.7297C215.232 19.7297 214.826 19.6282 214.466 19.425C214.112 19.2219 213.834 18.9346 213.631 18.5631C213.427 18.1859 213.326 17.7506 213.326 17.2572C213.326 16.7639 213.425 16.3315 213.622 15.9601C213.819 15.5886 214.095 15.3042 214.449 15.1069C214.809 14.9038 215.221 14.8022 215.685 14.8022C216.138 14.8022 216.538 14.9008 216.887 15.0982C217.235 15.2955 217.502 15.5683 217.688 15.9165C217.879 16.259 217.975 16.6478 217.975 17.0831ZM217.156 16.9177C217.156 16.6159 217.09 16.3576 216.956 16.1429C216.823 15.9223 216.64 15.7569 216.408 15.6467C216.181 15.5306 215.929 15.4725 215.65 15.4725C215.25 15.4725 214.907 15.6002 214.623 15.8556C214.344 16.111 214.185 16.465 214.144 16.9177H217.156ZM218.725 17.2572C218.725 16.7639 218.823 16.3344 219.021 15.9688C219.218 15.5973 219.491 15.31 219.839 15.1069C220.193 14.9038 220.596 14.8022 221.049 14.8022C221.635 14.8022 222.117 14.9444 222.494 15.2288C222.877 15.5132 223.13 15.9078 223.252 16.4128H222.398C222.317 16.1226 222.158 15.8933 221.92 15.725C221.687 15.5567 221.397 15.4725 221.049 15.4725C220.596 15.4725 220.231 15.6292 219.952 15.9427C219.673 16.2503 219.534 16.6885 219.534 17.2572C219.534 17.8318 219.673 18.2758 219.952 18.5892C220.231 18.9027 220.596 19.0594 221.049 19.0594C221.397 19.0594 221.687 18.9781 221.92 18.8156C222.152 18.6531 222.311 18.4209 222.398 18.1191H223.252C223.124 18.6067 222.869 18.9984 222.485 19.2944C222.102 19.5846 221.624 19.7297 221.049 19.7297C220.596 19.7297 220.193 19.6282 219.839 19.425C219.491 19.2219 219.218 18.9346 219.021 18.5631C218.823 18.1917 218.725 17.7564 218.725 17.2572ZM225.275 15.5335V18.3455C225.275 18.5776 225.324 18.7431 225.423 18.8417C225.522 18.9346 225.693 18.981 225.937 18.981H226.52V19.6514H225.806C225.365 19.6514 225.034 19.5498 224.814 19.3467C224.593 19.1435 224.483 18.8098 224.483 18.3455V15.5335H223.865V14.8805H224.483V13.6791H225.275V14.8805H226.52V15.5335H225.275ZM231.833 17.0831C231.833 17.234 231.824 17.3936 231.807 17.562H227.994C228.023 18.0321 228.182 18.4006 228.472 18.6676C228.768 18.9288 229.125 19.0594 229.543 19.0594C229.886 19.0594 230.17 18.981 230.396 18.8243C230.629 18.6618 230.791 18.4471 230.884 18.1801H231.737C231.609 18.6386 231.354 19.0129 230.971 19.3031C230.588 19.5875 230.112 19.7297 229.543 19.7297C229.09 19.7297 228.684 19.6282 228.324 19.425C227.97 19.2219 227.692 18.9346 227.489 18.5631C227.285 18.1859 227.184 17.7506 227.184 17.2572C227.184 16.7639 227.283 16.3315 227.48 15.9601C227.677 15.5886 227.953 15.3042 228.307 15.1069C228.667 14.9038 229.079 14.8022 229.543 14.8022C229.996 14.8022 230.396 14.9008 230.745 15.0982C231.093 15.2955 231.36 15.5683 231.546 15.9165C231.737 16.259 231.833 16.6478 231.833 17.0831ZM231.014 16.9177C231.014 16.6159 230.948 16.3576 230.814 16.1429C230.681 15.9223 230.498 15.7569 230.266 15.6467C230.039 15.5306 229.787 15.4725 229.508 15.4725C229.108 15.4725 228.765 15.6002 228.481 15.8556C228.202 16.111 228.043 16.465 228.002 16.9177H231.014ZM232.583 17.2485C232.583 16.761 232.681 16.3344 232.879 15.9688C233.076 15.5973 233.346 15.31 233.688 15.1069C234.036 14.9038 234.425 14.8022 234.855 14.8022C235.226 14.8022 235.572 14.8892 235.891 15.0634C236.21 15.2317 236.454 15.4551 236.622 15.7337V13.209H237.423V19.6514H236.622V18.7547C236.465 19.0391 236.233 19.2741 235.926 19.4598C235.618 19.6398 235.258 19.7297 234.846 19.7297C234.422 19.7297 234.036 19.6252 233.688 19.4163C233.346 19.2074 233.076 18.9143 232.879 18.537C232.681 18.1598 232.583 17.7303 232.583 17.2485ZM236.622 17.2572C236.622 16.8974 236.55 16.584 236.404 16.317C236.259 16.05 236.062 15.8469 235.812 15.7076C235.569 15.5625 235.299 15.4899 235.003 15.4899C234.707 15.4899 234.437 15.5596 234.193 15.6989C233.949 15.8382 233.755 16.0413 233.61 16.3083C233.465 16.5753 233.392 16.8887 233.392 17.2485C233.392 17.6142 233.465 17.9334 233.61 18.2062C233.755 18.4732 233.949 18.6792 234.193 18.8243C234.437 18.9636 234.707 19.0332 235.003 19.0332C235.299 19.0332 235.569 18.9636 235.812 18.8243C236.062 18.6792 236.259 18.4732 236.404 18.2062C236.55 17.9334 236.622 17.6171 236.622 17.2572ZM240.787 17.2485C240.787 16.761 240.886 16.3344 241.083 15.9688C241.28 15.5973 241.55 15.31 241.893 15.1069C242.241 14.9038 242.63 14.8022 243.059 14.8022C243.431 14.8022 243.776 14.8892 244.095 15.0634C244.414 15.2317 244.658 15.4551 244.826 15.7337V13.209H245.627V19.6514H244.826V18.7547C244.67 19.0391 244.438 19.2741 244.13 19.4598C243.822 19.6398 243.462 19.7297 243.05 19.7297C242.627 19.7297 242.241 19.6252 241.893 19.4163C241.55 19.2074 241.28 18.9143 241.083 18.537C240.886 18.1598 240.787 17.7303 240.787 17.2485ZM244.826 17.2572C244.826 16.8974 244.754 16.584 244.609 16.317C244.464 16.05 244.266 15.8469 244.017 15.7076C243.773 15.5625 243.503 15.4899 243.207 15.4899C242.911 15.4899 242.641 15.5596 242.397 15.6989C242.154 15.8382 241.959 16.0413 241.814 16.3083C241.669 16.5753 241.597 16.8887 241.597 17.2485C241.597 17.6142 241.669 17.9334 241.814 18.2062C241.959 18.4732 242.154 18.6792 242.397 18.8243C242.641 18.9636 242.911 19.0332 243.207 19.0332C243.503 19.0332 243.773 18.9636 244.017 18.8243C244.266 18.6792 244.464 18.4732 244.609 18.2062C244.754 17.9334 244.826 17.6171 244.826 17.2572ZM251.197 14.8805V19.6514H250.405V18.9462C250.254 19.19 250.042 19.3815 249.769 19.5208C249.502 19.6543 249.206 19.721 248.881 19.721C248.51 19.721 248.176 19.6456 247.88 19.4947C247.584 19.338 247.349 19.1058 247.175 18.7982C247.007 18.4906 246.923 18.1162 246.923 17.6751V14.8805H247.706V17.5707C247.706 18.0408 247.825 18.4035 248.063 18.6589C248.301 18.9085 248.626 19.0332 249.038 19.0332C249.462 19.0332 249.796 18.9027 250.039 18.6415C250.283 18.3803 250.405 18.0001 250.405 17.501V14.8805H251.197ZM253.327 15.6554C253.466 15.3826 253.664 15.1707 253.919 15.0198C254.18 14.8689 254.497 14.7935 254.868 14.7935V15.6118H254.659C253.771 15.6118 253.327 16.0936 253.327 17.057V19.6514H252.535V14.8805H253.327V15.6554ZM256.192 14.1057C256.041 14.1057 255.913 14.0535 255.809 13.949C255.704 13.8445 255.652 13.7168 255.652 13.5659C255.652 13.415 255.704 13.2874 255.809 13.1829C255.913 13.0784 256.041 13.0262 256.192 13.0262C256.337 13.0262 256.459 13.0784 256.557 13.1829C256.662 13.2874 256.714 13.415 256.714 13.5659C256.714 13.7168 256.662 13.8445 256.557 13.949C256.459 14.0535 256.337 14.1057 256.192 14.1057ZM256.575 14.8805V19.6514H255.783V14.8805H256.575ZM260.249 14.7935C260.83 14.7935 261.3 14.9705 261.66 15.3245C262.02 15.6728 262.2 16.1777 262.2 16.8394V19.6514H261.416V16.9525C261.416 16.4766 261.297 16.1139 261.059 15.8643C260.821 15.6089 260.496 15.4812 260.084 15.4812C259.666 15.4812 259.332 15.6118 259.083 15.873C258.839 16.1342 258.717 16.5143 258.717 17.0135V19.6514H257.925V14.8805H258.717V15.5596C258.874 15.3158 259.086 15.1272 259.353 14.9937C259.626 14.8602 259.924 14.7935 260.249 14.7935ZM265.461 14.8022C265.873 14.8022 266.233 14.8921 266.541 15.0721C266.854 15.252 267.086 15.4783 267.237 15.7511V14.8805H268.038V19.7558C268.038 20.1911 267.945 20.5771 267.76 20.9137C267.574 21.2562 267.307 21.5231 266.959 21.7147C266.616 21.9062 266.216 22.002 265.757 22.002C265.13 22.002 264.608 21.854 264.19 21.558C263.772 21.262 263.526 20.8586 263.45 20.3478H264.234C264.321 20.638 264.501 20.8702 264.773 21.0443C265.046 21.2242 265.374 21.3142 265.757 21.3142C266.193 21.3142 266.547 21.1778 266.819 20.905C267.098 20.6322 267.237 20.2492 267.237 19.7558V18.7547C267.081 19.0332 266.848 19.2654 266.541 19.4511C266.233 19.6369 265.873 19.7297 265.461 19.7297C265.038 19.7297 264.652 19.6252 264.303 19.4163C263.961 19.2074 263.691 18.9143 263.494 18.537C263.296 18.1598 263.198 17.7303 263.198 17.2485C263.198 16.761 263.296 16.3344 263.494 15.9688C263.691 15.5973 263.961 15.31 264.303 15.1069C264.652 14.9038 265.038 14.8022 265.461 14.8022ZM267.237 17.2572C267.237 16.8974 267.165 16.584 267.02 16.317C266.875 16.05 266.677 15.8469 266.428 15.7076C266.184 15.5625 265.914 15.4899 265.618 15.4899C265.322 15.4899 265.052 15.5596 264.808 15.6989C264.565 15.8382 264.37 16.0413 264.225 16.3083C264.08 16.5753 264.007 16.8887 264.007 17.2485C264.007 17.6142 264.08 17.9334 264.225 18.2062C264.37 18.4732 264.565 18.6792 264.808 18.8243C265.052 18.9636 265.322 19.0332 265.618 19.0332C265.914 19.0332 266.184 18.9636 266.428 18.8243C266.677 18.6792 266.875 18.4732 267.02 18.2062C267.165 17.9334 267.237 17.6171 267.237 17.2572ZM274.066 14.7935C274.426 14.7935 274.751 14.8718 275.041 15.0285C275.331 15.1794 275.558 15.4087 275.72 15.7163C275.888 16.0239 275.973 16.3983 275.973 16.8394V19.6514H275.189V16.9525C275.189 16.4766 275.07 16.1139 274.832 15.8643C274.594 15.6089 274.269 15.4812 273.857 15.4812C273.439 15.4812 273.105 15.6118 272.856 15.873C272.612 16.1342 272.49 16.5143 272.49 17.0135V19.6514H271.698V13.209H272.49V15.5596C272.647 15.3158 272.862 15.1272 273.134 14.9937C273.413 14.8602 273.724 14.7935 274.066 14.7935ZM276.971 17.2485C276.971 16.761 277.069 16.3344 277.267 15.9688C277.464 15.5973 277.734 15.31 278.076 15.1069C278.425 14.9038 278.811 14.8022 279.234 14.8022C279.652 14.8022 280.015 14.8921 280.322 15.0721C280.63 15.252 280.859 15.4783 281.01 15.7511V14.8805H281.811V19.6514H281.01V18.7634C280.854 19.042 280.618 19.2741 280.305 19.4598C279.997 19.6398 279.638 19.7297 279.226 19.7297C278.802 19.7297 278.419 19.6252 278.076 19.4163C277.734 19.2074 277.464 18.9143 277.267 18.537C277.069 18.1598 276.971 17.7303 276.971 17.2485ZM281.01 17.2572C281.01 16.8974 280.938 16.584 280.793 16.317C280.648 16.05 280.45 15.8469 280.201 15.7076C279.957 15.5625 279.687 15.4899 279.391 15.4899C279.095 15.4899 278.825 15.5596 278.581 15.6989C278.338 15.8382 278.143 16.0413 277.998 16.3083C277.853 16.5753 277.78 16.8887 277.78 17.2485C277.78 17.6142 277.853 17.9334 277.998 18.2062C278.143 18.4732 278.338 18.6792 278.581 18.8243C278.825 18.9636 279.095 19.0332 279.391 19.0332C279.687 19.0332 279.957 18.9636 280.201 18.8243C280.45 18.6792 280.648 18.4732 280.793 18.2062C280.938 17.9334 281.01 17.6171 281.01 17.2572ZM285.475 14.7935C286.055 14.7935 286.525 14.9705 286.885 15.3245C287.245 15.6728 287.425 16.1777 287.425 16.8394V19.6514H286.641V16.9525C286.641 16.4766 286.522 16.1139 286.284 15.8643C286.046 15.6089 285.721 15.4812 285.309 15.4812C284.891 15.4812 284.557 15.6118 284.308 15.873C284.064 16.1342 283.942 16.5143 283.942 17.0135V19.6514H283.15V14.8805H283.942V15.5596C284.099 15.3158 284.311 15.1272 284.578 14.9937C284.851 14.8602 285.149 14.7935 285.475 14.7935ZM288.423 17.2485C288.423 16.761 288.521 16.3344 288.719 15.9688C288.916 15.5973 289.186 15.31 289.528 15.1069C289.877 14.9038 290.266 14.8022 290.695 14.8022C291.066 14.8022 291.412 14.8892 291.731 15.0634C292.05 15.2317 292.294 15.4551 292.462 15.7337V13.209H293.263V19.6514H292.462V18.7547C292.306 19.0391 292.073 19.2741 291.766 19.4598C291.458 19.6398 291.098 19.7297 290.686 19.7297C290.263 19.7297 289.877 19.6252 289.528 19.4163C289.186 19.2074 288.916 18.9143 288.719 18.537C288.521 18.1598 288.423 17.7303 288.423 17.2485ZM292.462 17.2572C292.462 16.8974 292.39 16.584 292.245 16.317C292.1 16.05 291.902 15.8469 291.653 15.7076C291.409 15.5625 291.139 15.4899 290.843 15.4899C290.547 15.4899 290.277 15.5596 290.033 15.6989C289.79 15.8382 289.595 16.0413 289.45 16.3083C289.305 16.5753 289.232 16.8887 289.232 17.2485C289.232 17.6142 289.305 17.9334 289.45 18.2062C289.595 18.4732 289.79 18.6792 290.033 18.8243C290.277 18.9636 290.547 19.0332 290.843 19.0332C291.139 19.0332 291.409 18.9636 291.653 18.8243C291.902 18.6792 292.1 18.4732 292.245 18.2062C292.39 17.9334 292.462 17.6171 292.462 17.2572ZM295.394 13.209V19.6514H294.602V13.209H295.394ZM297.154 14.1057C297.003 14.1057 296.875 14.0535 296.771 13.949C296.666 13.8445 296.614 13.7168 296.614 13.5659C296.614 13.415 296.666 13.2874 296.771 13.1829C296.875 13.0784 297.003 13.0262 297.154 13.0262C297.299 13.0262 297.421 13.0784 297.519 13.1829C297.624 13.2874 297.676 13.415 297.676 13.5659C297.676 13.7168 297.624 13.8445 297.519 13.949C297.421 14.0535 297.299 14.1057 297.154 14.1057ZM297.537 14.8805V19.6514H296.745V14.8805H297.537ZM301.211 14.7935C301.792 14.7935 302.262 14.9705 302.622 15.3245C302.982 15.6728 303.162 16.1777 303.162 16.8394V19.6514H302.378V16.9525C302.378 16.4766 302.259 16.1139 302.021 15.8643C301.783 15.6089 301.458 15.4812 301.046 15.4812C300.628 15.4812 300.294 15.6118 300.045 15.873C299.801 16.1342 299.679 16.5143 299.679 17.0135V19.6514H298.887V14.8805H299.679V15.5596C299.836 15.3158 300.048 15.1272 300.315 14.9937C300.588 14.8602 300.886 14.7935 301.211 14.7935ZM306.423 14.8022C306.835 14.8022 307.195 14.8921 307.503 15.0721C307.816 15.252 308.048 15.4783 308.199 15.7511V14.8805H309V19.7558C309 20.1911 308.907 20.5771 308.722 20.9137C308.536 21.2562 308.269 21.5231 307.921 21.7147C307.578 21.9062 307.178 22.002 306.719 22.002C306.092 22.002 305.57 21.854 305.152 21.558C304.734 21.262 304.488 20.8586 304.412 20.3478H305.196C305.283 20.638 305.463 20.8702 305.735 21.0443C306.008 21.2242 306.336 21.3142 306.719 21.3142C307.155 21.3142 307.509 21.1778 307.781 20.905C308.06 20.6322 308.199 20.2492 308.199 19.7558V18.7547C308.043 19.0332 307.81 19.2654 307.503 19.4511C307.195 19.6369 306.835 19.7297 306.423 19.7297C306 19.7297 305.614 19.6252 305.265 19.4163C304.923 19.2074 304.653 18.9143 304.456 18.537C304.258 18.1598 304.16 17.7303 304.16 17.2485C304.16 16.761 304.258 16.3344 304.456 15.9688C304.653 15.5973 304.923 15.31 305.265 15.1069C305.614 14.9038 306 14.8022 306.423 14.8022ZM308.199 17.2572C308.199 16.8974 308.127 16.584 307.982 16.317C307.836 16.05 307.639 15.8469 307.39 15.7076C307.146 15.5625 306.876 15.4899 306.58 15.4899C306.284 15.4899 306.014 15.5596 305.77 15.6989C305.527 15.8382 305.332 16.0413 305.187 16.3083C305.042 16.5753 304.969 16.8887 304.969 17.2485C304.969 17.6142 305.042 17.9334 305.187 18.2062C305.332 18.4732 305.527 18.6792 305.77 18.8243C306.014 18.9636 306.284 19.0332 306.58 19.0332C306.876 19.0332 307.146 18.9636 307.39 18.8243C307.639 18.6792 307.836 18.4732 307.982 18.2062C308.127 17.9334 308.199 17.6171 308.199 17.2572ZM310.591 19.7036C310.441 19.7036 310.313 19.6514 310.208 19.5469C310.104 19.4424 310.052 19.3147 310.052 19.1638C310.052 19.0129 310.104 18.8852 310.208 18.7808C310.313 18.6763 310.441 18.6241 310.591 18.6241C310.737 18.6241 310.858 18.6763 310.957 18.7808C311.062 18.8852 311.114 19.0129 311.114 19.1638C311.114 19.3147 311.062 19.4424 310.957 19.5469C310.858 19.6514 310.737 19.7036 310.591 19.7036Z" fill="#444546"/>
</svg>
