<svg width="126" height="30" viewBox="0 0 126 30" fill="none" xmlns="http://www.w3.org/2000/svg">
<rect x="6.06835" y="0.21435" width="21.8637" height="21.0063" rx="10.5031" stroke="white" stroke-width="0.4287"/>
<path d="M12.3579 12.1112V8.39578C12.3579 7.51988 12.3579 7.08239 12.6301 6.81024C12.9022 6.53809 13.3397 6.53809 14.2156 6.53809H19.7887C20.6646 6.53809 21.1021 6.53809 21.3742 6.81024C21.6464 7.08239 21.6464 7.51988 21.6464 8.39578V12.1112C21.6464 12.9871 21.6464 13.4246 21.3742 13.6967C21.1021 13.9689 20.6646 13.9689 19.7887 13.9689H14.2156C13.3397 13.9689 12.9022 13.9689 12.6301 13.6967C12.3579 13.4246 12.3579 12.9871 12.3579 12.1112Z" stroke="white" stroke-width="0.696637" stroke-linecap="round"/>
<path d="M20.2534 7.93533V7.93115M20.2534 9.32628V9.32257M20.2534 10.7177V10.7135" stroke="white" stroke-width="0.696637" stroke-linecap="round" stroke-linejoin="round"/>
<path d="M13.751 11.6465V8.86C13.751 8.42205 13.751 8.20331 13.8871 8.06723C14.0231 7.93115 14.2419 7.93115 14.6798 7.93115H17.9308C18.3687 7.93115 18.5875 7.93115 18.7236 8.06723C18.8596 8.20331 18.8596 8.42205 18.8596 8.86V11.6465C18.8596 12.0845 18.8596 12.3032 18.7236 12.4393C18.5875 12.5754 18.3687 12.5754 17.9308 12.5754H14.6798C14.2419 12.5754 14.0231 12.5754 13.8871 12.4393C13.751 12.3032 13.751 12.0845 13.751 11.6465Z" stroke="white" stroke-width="0.696637" stroke-linejoin="round"/>
<path d="M13.751 13.9688V14.8976M20.2529 13.9688V14.8976" stroke="white" stroke-width="0.696637" stroke-linecap="round"/>
<path d="M3.57375 24.2575L3.06381 27.1499H2.68344L3.06381 24.9931L1.72209 27.1499H1.45458L0.869403 25.0015L0.489039 27.1499H0.108675L0.622793 24.2575H1.03242L1.68029 26.6483L3.1683 24.2575H3.57375ZM4.37346 24.4874C4.31216 24.4874 4.26061 24.4679 4.21881 24.4288C4.1798 24.387 4.16029 24.3355 4.16029 24.2742C4.16029 24.1906 4.19095 24.1195 4.25225 24.061C4.31355 23.9997 4.38461 23.9691 4.46542 23.9691C4.52951 23.9691 4.58106 23.9886 4.62007 24.0276C4.65909 24.0666 4.67859 24.1181 4.67859 24.1822C4.67859 24.2658 4.64794 24.3383 4.58663 24.3996C4.52533 24.4581 4.45427 24.4874 4.37346 24.4874ZM4.49468 24.8594L4.08924 27.1499H3.70887L4.11432 24.8594H4.49468ZM4.79602 26.0005C4.83782 25.7636 4.92141 25.5574 5.04681 25.3818C5.17499 25.2035 5.33243 25.0656 5.51913 24.968C5.70583 24.8705 5.90785 24.8217 6.1252 24.8217C6.40664 24.8217 6.62539 24.89 6.78143 25.0266C6.94027 25.1631 7.02804 25.3526 7.04476 25.595H6.63514C6.62121 25.4557 6.56408 25.3456 6.46377 25.2648C6.36624 25.184 6.23388 25.1436 6.06668 25.1436C5.84933 25.1436 5.65985 25.2188 5.49823 25.3693C5.33939 25.517 5.23629 25.7274 5.18892 26.0005C5.17499 26.0924 5.16802 26.169 5.16802 26.2303C5.16802 26.4338 5.22236 26.5912 5.33103 26.7027C5.43971 26.8113 5.58461 26.8657 5.76574 26.8657C5.93293 26.8657 6.07783 26.8267 6.20044 26.7486C6.32583 26.6706 6.42197 26.5592 6.48884 26.4143H6.89847C6.79815 26.6483 6.6435 26.8364 6.43451 26.9785C6.22552 27.1179 5.98309 27.1875 5.70722 27.1875C5.4202 27.1875 5.19171 27.1053 5.02173 26.9409C4.85454 26.7765 4.77094 26.5522 4.77094 26.268C4.77094 26.1816 4.7793 26.0924 4.79602 26.0005ZM7.98698 25.2941C8.07894 25.1436 8.19458 25.0266 8.33391 24.943C8.47324 24.8594 8.63207 24.8176 8.81041 24.8176L8.73935 25.2105H8.63904C8.44119 25.2105 8.27539 25.2634 8.14164 25.3693C8.01067 25.4752 7.92289 25.6535 7.87831 25.9043L7.65678 27.1499H7.27641L7.68186 24.8594H8.06222L7.98698 25.2941ZM9.84302 27.1875C9.65075 27.1875 9.48077 27.1485 9.33308 27.0705C9.18818 26.9897 9.07533 26.8782 8.99452 26.7361C8.91371 26.5912 8.8733 26.424 8.8733 26.2345C8.8733 25.9754 8.93321 25.7385 9.05303 25.524C9.17286 25.3066 9.33726 25.1352 9.54625 25.0098C9.75803 24.8844 9.99349 24.8217 10.2526 24.8217C10.4449 24.8217 10.6149 24.8621 10.7626 24.943C10.9131 25.021 11.0287 25.1324 11.1095 25.2773C11.1931 25.4195 11.2349 25.5866 11.2349 25.7789C11.2349 26.0381 11.1736 26.2749 11.051 26.4895C10.9284 26.7041 10.7612 26.874 10.5494 26.9994C10.3376 27.1248 10.1022 27.1875 9.84302 27.1875ZM9.889 26.8657C10.0701 26.8657 10.2331 26.8169 10.378 26.7194C10.5229 26.6191 10.6358 26.4881 10.7166 26.3265C10.8002 26.1621 10.842 25.9865 10.842 25.7998C10.842 25.588 10.7807 25.4264 10.6581 25.315C10.5355 25.2007 10.3822 25.1436 10.1983 25.1436C10.0172 25.1436 9.85556 25.1937 9.71345 25.2941C9.57133 25.3916 9.46126 25.5226 9.38324 25.687C9.30522 25.8514 9.2662 26.0283 9.2662 26.2178C9.2662 26.424 9.32472 26.5842 9.44176 26.6985C9.55879 26.8099 9.70787 26.8657 9.889 26.8657ZM14.966 24.8594L13.8458 27.1499H13.4529L13.2272 25.3275L12.3494 27.1499H11.9565L11.6431 24.8594H12.0318L12.2199 26.7821L13.1227 24.8594H13.5156L13.733 26.7695L14.5898 24.8594H14.966ZM14.9966 25.9963C15.0384 25.7622 15.122 25.5574 15.2474 25.3818C15.3755 25.2035 15.5302 25.0656 15.7113 24.968C15.8952 24.8705 16.0903 24.8217 16.2965 24.8217C16.4971 24.8217 16.6629 24.8649 16.7939 24.9513C16.9249 25.0377 17.0154 25.1464 17.0656 25.2773L17.1408 24.8594H17.5254L17.1199 27.1499H16.7354L16.8148 26.7236C16.7145 26.8573 16.5821 26.9688 16.4177 27.0579C16.2533 27.1443 16.0722 27.1875 15.8743 27.1875C15.696 27.1875 15.5386 27.1499 15.402 27.0747C15.2655 26.9966 15.1596 26.8866 15.0844 26.7445C15.0091 26.6023 14.9715 26.4379 14.9715 26.2512C14.9715 26.1676 14.9799 26.0827 14.9966 25.9963ZM16.9402 26.0005C16.9513 25.9419 16.9569 25.8792 16.9569 25.8124C16.9569 25.6089 16.8956 25.4487 16.773 25.3317C16.6532 25.2119 16.4999 25.1519 16.3132 25.1519C16.1711 25.1519 16.0346 25.1854 15.9036 25.2523C15.7754 25.3191 15.6653 25.4167 15.5734 25.5449C15.4814 25.673 15.4201 25.8235 15.3895 25.9963C15.3783 26.0548 15.3728 26.1189 15.3728 26.1885C15.3728 26.3947 15.4327 26.5578 15.5525 26.6776C15.6723 26.7946 15.8256 26.8531 16.0123 26.8531C16.1544 26.8531 16.2895 26.8197 16.4177 26.7528C16.5487 26.6832 16.6601 26.5842 16.7521 26.4561C16.8468 26.3251 16.9095 26.1732 16.9402 26.0005ZM18.6781 26.7904L19.7314 24.8594H20.141L18.8369 27.1499H18.3897L17.8965 24.8594H18.3061L18.6781 26.7904ZM21.5059 24.8217C21.6982 24.8217 21.864 24.8594 22.0033 24.9346C22.1454 25.007 22.2527 25.1101 22.3252 25.2439C22.4004 25.3749 22.438 25.5253 22.438 25.6953C22.438 25.7538 22.4311 25.8249 22.4171 25.9085C22.406 25.9809 22.3879 26.0562 22.3628 26.1342H20.532C20.5265 26.1899 20.5237 26.2303 20.5237 26.2554C20.5237 26.4477 20.5808 26.5982 20.695 26.7068C20.8121 26.8127 20.9639 26.8657 21.1506 26.8657C21.315 26.8657 21.4586 26.8281 21.5812 26.7528C21.7066 26.6748 21.8013 26.5717 21.8654 26.4435H22.275C22.1747 26.6636 22.02 26.8434 21.8111 26.9827C21.6049 27.1193 21.3652 27.1875 21.0921 27.1875C20.8051 27.1875 20.5738 27.1053 20.3983 26.9409C20.2255 26.7737 20.1391 26.5466 20.1391 26.2596C20.1391 26.1788 20.1475 26.0924 20.1642 26.0005C20.206 25.7636 20.291 25.556 20.4192 25.3777C20.5474 25.1993 20.7048 25.0628 20.8915 24.968C21.081 24.8705 21.2858 24.8217 21.5059 24.8217ZM22.0326 25.8583C22.0409 25.8026 22.0451 25.7511 22.0451 25.7037C22.0451 25.5253 21.988 25.3874 21.8738 25.2899C21.7623 25.1924 21.616 25.1436 21.4349 25.1436C21.2398 25.1436 21.0629 25.2077 20.904 25.3359C20.7452 25.4613 20.6379 25.6354 20.5822 25.8583H22.0326ZM24.5869 25.4571L24.5284 25.7789H22.8607L22.9192 25.4571H24.5869ZM25.8065 27.1875C25.5669 27.1875 25.3704 27.1304 25.2172 27.0161C25.0639 26.9019 24.9873 26.7486 24.9873 26.5564C24.9873 26.5201 24.9887 26.4937 24.9915 26.477H25.3635C25.3523 26.5968 25.3872 26.6943 25.468 26.7695C25.5516 26.8448 25.6714 26.8824 25.8274 26.8824C25.9835 26.8824 26.1089 26.8531 26.2036 26.7946C26.3011 26.7333 26.3499 26.6483 26.3499 26.5396C26.3499 26.4477 26.3109 26.3752 26.2329 26.3223C26.1549 26.2694 26.035 26.2122 25.8734 26.1509C25.7313 26.098 25.6143 26.0478 25.5223 26.0005C25.4304 25.9531 25.3523 25.8876 25.2882 25.804C25.2241 25.7176 25.1921 25.6089 25.1921 25.478C25.1921 25.3498 25.2283 25.2355 25.3008 25.1352C25.376 25.0349 25.4791 24.9583 25.6101 24.9053C25.7438 24.8496 25.8957 24.8217 26.0657 24.8217C26.2998 24.8217 26.492 24.8803 26.6425 24.9973C26.793 25.1143 26.8682 25.2676 26.8682 25.4571C26.8682 25.4933 26.8668 25.5212 26.864 25.5407H26.5004L26.5046 25.4905C26.5046 25.3791 26.4614 25.2913 26.375 25.2272C26.2914 25.1603 26.1799 25.1269 26.0406 25.1269C25.9041 25.1269 25.7912 25.1575 25.702 25.2188C25.6157 25.2801 25.5725 25.3623 25.5725 25.4654C25.5725 25.563 25.6129 25.6396 25.6937 25.6953C25.7745 25.7511 25.8999 25.8124 26.0699 25.8792C26.212 25.935 26.3262 25.9865 26.4126 26.0339C26.499 26.0785 26.5728 26.1412 26.6341 26.222C26.6954 26.3028 26.7261 26.4045 26.7261 26.5271C26.7261 26.6609 26.6857 26.7779 26.6049 26.8782C26.5269 26.9785 26.4182 27.0552 26.2789 27.1081C26.1395 27.161 25.9821 27.1875 25.8065 27.1875ZM27.2421 25.9963C27.2839 25.7622 27.3675 25.5574 27.4929 25.3818C27.6211 25.2035 27.7758 25.0656 27.9569 24.968C28.1408 24.8705 28.3359 24.8217 28.5421 24.8217C28.7427 24.8217 28.9085 24.8649 29.0395 24.9513C29.1704 25.0377 29.261 25.1464 29.3112 25.2773L29.3864 24.8594H29.7709L29.3655 27.1499H28.9809L29.0604 26.7236C28.9601 26.8573 28.8277 26.9688 28.6633 27.0579C28.4989 27.1443 28.3178 27.1875 28.1199 27.1875C27.9416 27.1875 27.7841 27.1499 27.6476 27.0747C27.511 26.9966 27.4052 26.8866 27.3299 26.7445C27.2547 26.6023 27.2171 26.4379 27.2171 26.2512C27.2171 26.1676 27.2254 26.0827 27.2421 25.9963ZM29.1858 26.0005C29.1969 25.9419 29.2025 25.8792 29.2025 25.8124C29.2025 25.6089 29.1412 25.4487 29.0186 25.3317C28.8987 25.2119 28.7455 25.1519 28.5588 25.1519C28.4167 25.1519 28.2801 25.1854 28.1492 25.2523C28.021 25.3191 27.9109 25.4167 27.819 25.5449C27.727 25.673 27.6657 25.8235 27.635 25.9963C27.6239 26.0548 27.6183 26.1189 27.6183 26.1885C27.6183 26.3947 27.6782 26.5578 27.7981 26.6776C27.9179 26.7946 28.0711 26.8531 28.2578 26.8531C28.4 26.8531 28.5351 26.8197 28.6633 26.7528C28.7943 26.6832 28.9057 26.5842 28.9977 26.4561C29.0924 26.3251 29.1551 26.1732 29.1858 26.0005ZM31.4252 24.2742C31.2553 24.2742 31.1299 24.3076 31.049 24.3745C30.971 24.4386 30.9195 24.5459 30.8944 24.6963L30.8651 24.8594H31.3458L31.2915 25.1728H30.8108L30.4597 27.1499H30.0793L30.4263 25.1728H30.1337L30.188 24.8594H30.4806L30.5098 24.6963C30.5572 24.44 30.6575 24.2533 30.8108 24.1363C30.9641 24.0164 31.187 23.9565 31.4796 23.9565L31.4252 24.2742ZM32.7841 24.8217C32.9764 24.8217 33.1422 24.8594 33.2815 24.9346C33.4236 25.007 33.5309 25.1101 33.6033 25.2439C33.6786 25.3749 33.7162 25.5253 33.7162 25.6953C33.7162 25.7538 33.7092 25.8249 33.6953 25.9085C33.6842 25.9809 33.666 26.0562 33.641 26.1342H31.8102C31.8046 26.1899 31.8018 26.2303 31.8018 26.2554C31.8018 26.4477 31.859 26.5982 31.9732 26.7068C32.0902 26.8127 32.2421 26.8657 32.4288 26.8657C32.5932 26.8657 32.7367 26.8281 32.8593 26.7528C32.9847 26.6748 33.0795 26.5717 33.1436 26.4435H33.5532C33.4529 26.6636 33.2982 26.8434 33.0892 26.9827C32.883 27.1193 32.6434 27.1875 32.3703 27.1875C32.0833 27.1875 31.852 27.1053 31.6764 26.9409C31.5037 26.7737 31.4173 26.5466 31.4173 26.2596C31.4173 26.1788 31.4257 26.0924 31.4424 26.0005C31.4842 25.7636 31.5692 25.556 31.6973 25.3777C31.8255 25.1993 31.983 25.0628 32.1697 24.968C32.3591 24.8705 32.564 24.8217 32.7841 24.8217ZM33.3108 25.8583C33.3191 25.8026 33.3233 25.7511 33.3233 25.7037C33.3233 25.5253 33.2662 25.3874 33.1519 25.2899C33.0405 25.1924 32.8942 25.1436 32.713 25.1436C32.518 25.1436 32.341 25.2077 32.1822 25.3359C32.0234 25.4613 31.9161 25.6354 31.8604 25.8583H33.3108Z" fill="white"/>
<rect x="45.9971" y="0.21435" width="21.0063" height="21.0063" rx="10.5031" stroke="white" stroke-width="0.4287"/>
<g clip-path="url(#clip0_967_4510)">
<path d="M55.0722 6.07324L56.5012 7.50224M56.5012 7.50224L57.9302 6.07324M56.5012 7.50224V13.9327M51.8569 12.1465L53.2859 10.7175M53.2859 10.7175L51.8569 9.28849M53.2859 10.7175H59.7164M57.9302 15.3617L56.5012 13.9327M56.5012 13.9327L55.0722 15.3617M61.1454 9.28849L59.7164 10.7175M59.7164 10.7175L61.1454 12.1465M54.0004 8.21674L55.0722 9.28849M55.0722 12.1465L54.0004 13.2182M59.0019 8.21674L57.9302 9.28849M57.9302 12.1465L59.0019 13.2182" stroke="white" stroke-width="0.597117" stroke-linecap="round" stroke-linejoin="round"/>
</g>
<path d="M45.2696 24.2366L45.2153 24.5333H43.953L43.7774 25.5323H44.8057L44.7513 25.8291H43.7231L43.489 27.1499H43.1087L43.627 24.2366H45.2696ZM45.9255 25.2941C46.0174 25.1436 46.1331 25.0266 46.2724 24.943C46.4117 24.8594 46.5706 24.8176 46.7489 24.8176L46.6779 25.2105H46.5775C46.3797 25.2105 46.2139 25.2634 46.0801 25.3693C45.9492 25.4752 45.8614 25.6535 45.8168 25.9043L45.5953 27.1499H45.2149L45.6204 24.8594H46.0007L45.9255 25.2941ZM48.1744 24.8217C48.3667 24.8217 48.5325 24.8594 48.6718 24.9346C48.8139 25.007 48.9212 25.1101 48.9937 25.2439C49.0689 25.3749 49.1065 25.5253 49.1065 25.6953C49.1065 25.7538 49.0996 25.8249 49.0856 25.9085C49.0745 25.9809 49.0564 26.0562 49.0313 26.1342H47.2005C47.195 26.1899 47.1922 26.2303 47.1922 26.2554C47.1922 26.4477 47.2493 26.5982 47.3635 26.7068C47.4806 26.8127 47.6324 26.8657 47.8191 26.8657C47.9835 26.8657 48.1271 26.8281 48.2497 26.7528C48.3751 26.6748 48.4698 26.5717 48.5339 26.4435H48.9435C48.8432 26.6636 48.6885 26.8434 48.4795 26.9827C48.2733 27.1193 48.0337 27.1875 47.7606 27.1875C47.4736 27.1875 47.2423 27.1053 47.0668 26.9409C46.894 26.7737 46.8076 26.5466 46.8076 26.2596C46.8076 26.1788 46.816 26.0924 46.8327 26.0005C46.8745 25.7636 46.9595 25.556 47.0877 25.3777C47.2158 25.1993 47.3733 25.0628 47.56 24.968C47.7495 24.8705 47.9543 24.8217 48.1744 24.8217ZM48.7011 25.8583C48.7094 25.8026 48.7136 25.7511 48.7136 25.7037C48.7136 25.5253 48.6565 25.3874 48.5422 25.2899C48.4308 25.1924 48.2845 25.1436 48.1034 25.1436C47.9083 25.1436 47.7314 25.2077 47.5725 25.3359C47.4137 25.4613 47.3064 25.6354 47.2507 25.8583H48.7011ZM50.7664 24.8217C50.9587 24.8217 51.1245 24.8594 51.2638 24.9346C51.4059 25.007 51.5132 25.1101 51.5856 25.2439C51.6609 25.3749 51.6985 25.5253 51.6985 25.6953C51.6985 25.7538 51.6915 25.8249 51.6776 25.9085C51.6665 25.9809 51.6483 26.0562 51.6233 26.1342H49.7925C49.7869 26.1899 49.7841 26.2303 49.7841 26.2554C49.7841 26.4477 49.8413 26.5982 49.9555 26.7068C50.0726 26.8127 50.2244 26.8657 50.4111 26.8657C50.5755 26.8657 50.719 26.8281 50.8416 26.7528C50.967 26.6748 51.0618 26.5717 51.1259 26.4435H51.5355C51.4352 26.6636 51.2805 26.8434 51.0715 26.9827C50.8653 27.1193 50.6257 27.1875 50.3526 27.1875C50.0656 27.1875 49.8343 27.1053 49.6587 26.9409C49.486 26.7737 49.3996 26.5466 49.3996 26.2596C49.3996 26.1788 49.408 26.0924 49.4247 26.0005C49.4665 25.7636 49.5515 25.556 49.6796 25.3777C49.8078 25.1993 49.9653 25.0628 50.152 24.968C50.3415 24.8705 50.5463 24.8217 50.7664 24.8217ZM51.2931 25.8583C51.3014 25.8026 51.3056 25.7511 51.3056 25.7037C51.3056 25.5253 51.2485 25.3874 51.1342 25.2899C51.0228 25.1924 50.8765 25.1436 50.6953 25.1436C50.5003 25.1436 50.3233 25.2077 50.1645 25.3359C50.0057 25.4613 49.8984 25.6354 49.8427 25.8583H51.2931ZM52.3009 26.8364H53.4253L53.3667 27.1499H51.8077L51.862 26.8364L53.2706 25.1687H52.1671L52.2215 24.8594H53.7596L53.7053 25.1687L52.3009 26.8364ZM55.2605 24.8217C55.4528 24.8217 55.6186 24.8594 55.7579 24.9346C55.9 25.007 56.0073 25.1101 56.0798 25.2439C56.155 25.3749 56.1926 25.5253 56.1926 25.6953C56.1926 25.7538 56.1857 25.8249 56.1717 25.9085C56.1606 25.9809 56.1425 26.0562 56.1174 26.1342H54.2866C54.2811 26.1899 54.2783 26.2303 54.2783 26.2554C54.2783 26.4477 54.3354 26.5982 54.4496 26.7068C54.5667 26.8127 54.7185 26.8657 54.9052 26.8657C55.0696 26.8657 55.2132 26.8281 55.3358 26.7528C55.4612 26.6748 55.5559 26.5717 55.62 26.4435H56.0296C55.9293 26.6636 55.7746 26.8434 55.5657 26.9827C55.3594 27.1193 55.1198 27.1875 54.8467 27.1875C54.5597 27.1875 54.3284 27.1053 54.1529 26.9409C53.9801 26.7737 53.8937 26.5466 53.8937 26.2596C53.8937 26.1788 53.9021 26.0924 53.9188 26.0005C53.9606 25.7636 54.0456 25.556 54.1738 25.3777C54.302 25.1993 54.4594 25.0628 54.6461 24.968C54.8356 24.8705 55.0404 24.8217 55.2605 24.8217ZM55.7872 25.8583C55.7955 25.8026 55.7997 25.7511 55.7997 25.7037C55.7997 25.5253 55.7426 25.3874 55.6283 25.2899C55.5169 25.1924 55.3706 25.1436 55.1895 25.1436C54.9944 25.1436 54.8175 25.2077 54.6586 25.3359C54.4998 25.4613 54.3925 25.6354 54.3368 25.8583H55.7872ZM57.1628 25.2941C57.2548 25.1436 57.3704 25.0266 57.5098 24.943C57.6491 24.8594 57.8079 24.8176 57.9863 24.8176L57.9152 25.2105H57.8149C57.617 25.2105 57.4512 25.2634 57.3175 25.3693C57.1865 25.4752 57.0987 25.6535 57.0542 25.9043L56.8326 27.1499H56.4523L56.8577 24.8594H57.2381L57.1628 25.2941ZM59.9008 25.4571L59.8423 25.7789H58.1745L58.2331 25.4571H59.9008ZM61.1204 27.1875C60.8808 27.1875 60.6843 27.1304 60.531 27.0161C60.3778 26.9019 60.3012 26.7486 60.3012 26.5564C60.3012 26.5201 60.3026 26.4937 60.3053 26.477H60.6773C60.6662 26.5968 60.701 26.6943 60.7818 26.7695C60.8654 26.8448 60.9853 26.8824 61.1413 26.8824C61.2973 26.8824 61.4227 26.8531 61.5175 26.7946C61.615 26.7333 61.6638 26.6483 61.6638 26.5396C61.6638 26.4477 61.6248 26.3752 61.5467 26.3223C61.4687 26.2694 61.3489 26.2122 61.1873 26.1509C61.0452 26.098 60.9281 26.0478 60.8362 26.0005C60.7442 25.9531 60.6662 25.8876 60.6021 25.804C60.538 25.7176 60.506 25.6089 60.506 25.478C60.506 25.3498 60.5422 25.2355 60.6146 25.1352C60.6899 25.0349 60.793 24.9583 60.924 24.9053C61.0577 24.8496 61.2096 24.8217 61.3796 24.8217C61.6136 24.8217 61.8059 24.8803 61.9564 24.9973C62.1068 25.1143 62.1821 25.2676 62.1821 25.4571C62.1821 25.4933 62.1807 25.5212 62.1779 25.5407H61.8143L61.8184 25.4905C61.8184 25.3791 61.7752 25.2913 61.6889 25.2272C61.6053 25.1603 61.4938 25.1269 61.3545 25.1269C61.2179 25.1269 61.1051 25.1575 61.0159 25.2188C60.9295 25.2801 60.8863 25.3623 60.8863 25.4654C60.8863 25.563 60.9267 25.6396 61.0075 25.6953C61.0884 25.7511 61.2138 25.8124 61.3837 25.8792C61.5258 25.935 61.6401 25.9865 61.7265 26.0339C61.8129 26.0785 61.8867 26.1412 61.948 26.222C62.0093 26.3028 62.04 26.4045 62.04 26.5271C62.04 26.6609 61.9996 26.7779 61.9187 26.8782C61.8407 26.9785 61.7321 27.0552 61.5927 27.1081C61.4534 27.161 61.296 27.1875 61.1204 27.1875ZM62.556 25.9963C62.5978 25.7622 62.6814 25.5574 62.8068 25.3818C62.935 25.2035 63.0896 25.0656 63.2708 24.968C63.4547 24.8705 63.6497 24.8217 63.8559 24.8217C64.0566 24.8217 64.2224 24.8649 64.3533 24.9513C64.4843 25.0377 64.5749 25.1464 64.625 25.2773L64.7003 24.8594H65.0848L64.6794 27.1499H64.2948L64.3742 26.7236C64.2739 26.8573 64.1416 26.9688 63.9771 27.0579C63.8127 27.1443 63.6316 27.1875 63.4338 27.1875C63.2554 27.1875 63.098 27.1499 62.9615 27.0747C62.8249 26.9966 62.719 26.8866 62.6438 26.7445C62.5685 26.6023 62.5309 26.4379 62.5309 26.2512C62.5309 26.1676 62.5393 26.0827 62.556 25.9963ZM64.4996 26.0005C64.5108 25.9419 64.5163 25.8792 64.5163 25.8124C64.5163 25.6089 64.455 25.4487 64.3324 25.3317C64.2126 25.2119 64.0594 25.1519 63.8727 25.1519C63.7305 25.1519 63.594 25.1854 63.463 25.2523C63.3348 25.3191 63.2248 25.4167 63.1328 25.5449C63.0409 25.673 62.9796 25.8235 62.9489 25.9963C62.9378 26.0548 62.9322 26.1189 62.9322 26.1885C62.9322 26.3947 62.9921 26.5578 63.1119 26.6776C63.2317 26.7946 63.385 26.8531 63.5717 26.8531C63.7138 26.8531 63.849 26.8197 63.9771 26.7528C64.1081 26.6832 64.2196 26.5842 64.3115 26.4561C64.4063 26.3251 64.469 26.1732 64.4996 26.0005ZM66.7391 24.2742C66.5691 24.2742 66.4437 24.3076 66.3629 24.3745C66.2849 24.4386 66.2333 24.5459 66.2083 24.6963L66.179 24.8594H66.6597L66.6053 25.1728H66.1247L65.7736 27.1499H65.3932L65.7401 25.1728H65.4475L65.5019 24.8594H65.7945L65.8237 24.6963C65.8711 24.44 65.9714 24.2533 66.1247 24.1363C66.2779 24.0164 66.5008 23.9565 66.7934 23.9565L66.7391 24.2742ZM68.098 24.8217C68.2902 24.8217 68.456 24.8594 68.5954 24.9346C68.7375 25.007 68.8448 25.1101 68.9172 25.2439C68.9924 25.3749 69.0301 25.5253 69.0301 25.6953C69.0301 25.7538 69.0231 25.8249 69.0092 25.9085C68.998 25.9809 68.9799 26.0562 68.9548 26.1342H67.1241C67.1185 26.1899 67.1157 26.2303 67.1157 26.2554C67.1157 26.4477 67.1728 26.5982 67.2871 26.7068C67.4041 26.8127 67.556 26.8657 67.7427 26.8657C67.9071 26.8657 68.0506 26.8281 68.1732 26.7528C68.2986 26.6748 68.3933 26.5717 68.4574 26.4435H68.867C68.7667 26.6636 68.6121 26.8434 68.4031 26.9827C68.1969 27.1193 67.9572 27.1875 67.6842 27.1875C67.3971 27.1875 67.1659 27.1053 66.9903 26.9409C66.8175 26.7737 66.7312 26.5466 66.7312 26.2596C66.7312 26.1788 66.7395 26.0924 66.7562 26.0005C66.798 25.7636 66.883 25.556 67.0112 25.3777C67.1394 25.1993 67.2968 25.0628 67.4835 24.968C67.673 24.8705 67.8778 24.8217 68.098 24.8217ZM68.6246 25.8583C68.633 25.8026 68.6372 25.7511 68.6372 25.7037C68.6372 25.5253 68.58 25.3874 68.4658 25.2899C68.3543 25.1924 68.208 25.1436 68.0269 25.1436C67.8318 25.1436 67.6549 25.2077 67.4961 25.3359C67.3372 25.4613 67.23 25.6354 67.1742 25.8583H68.6246Z" fill="white"/>
<rect x="91.6465" y="0.21435" width="21.0063" height="21.0063" rx="10.5031" stroke="white" stroke-width="0.4287"/>
<g clip-path="url(#clip1_967_4510)">
<path d="M105.52 12.07C105.102 12.3239 104.623 12.4574 104.134 12.4558C103.725 12.4525 103.32 12.3688 102.943 12.2093C102.652 12.6196 102.497 13.1103 102.498 13.6131V14.8971C102.498 14.9448 102.488 14.9921 102.469 15.0359C102.45 15.0797 102.423 15.1192 102.388 15.1519C102.353 15.1846 102.312 15.2097 102.267 15.2258C102.222 15.2419 102.174 15.2485 102.126 15.2454C102.037 15.2376 101.954 15.1962 101.893 15.1296C101.833 15.063 101.8 14.976 101.801 14.8862V14.3445L100.12 12.663C99.8697 12.7563 99.6053 12.8051 99.3385 12.8071C98.9712 12.8081 98.6108 12.7076 98.297 12.5167C97.3483 11.9403 96.8376 10.6136 96.9364 8.9665C96.9414 8.88129 96.9775 8.80087 97.0379 8.74051C97.0982 8.68015 97.1786 8.64406 97.2638 8.63908C98.911 8.54199 100.238 9.05097 100.812 9.9997C101.038 10.3716 101.137 10.8068 101.093 11.2397C101.09 11.2733 101.078 11.3053 101.058 11.3319C101.037 11.3586 101.009 11.3788 100.978 11.3899C100.946 11.4011 100.911 11.4029 100.879 11.395C100.846 11.3871 100.816 11.3699 100.793 11.3455L99.9572 10.4704C99.8914 10.4078 99.8037 10.3734 99.7128 10.3746C99.622 10.3758 99.5352 10.4124 99.471 10.4766C99.4068 10.5408 99.3702 10.6276 99.369 10.7184C99.3679 10.8093 99.4022 10.8969 99.4648 10.9628L101.811 13.3684C101.813 13.3344 101.816 13.3005 101.82 13.2669C101.896 12.6211 102.181 12.0179 102.631 11.5488L104.834 9.22121C104.899 9.15591 104.936 9.06732 104.936 8.97493C104.936 8.88254 104.9 8.79391 104.834 8.72856C104.769 8.6632 104.68 8.62646 104.588 8.62642C104.496 8.62637 104.407 8.66304 104.342 8.72834L102.208 10.9846C102.187 11.0072 102.16 11.0237 102.13 11.0323C102.1 11.041 102.068 11.0414 102.038 11.0337C102.008 11.026 101.981 11.0103 101.959 10.9883C101.937 10.9664 101.921 10.9389 101.913 10.9088C101.707 10.1477 101.798 9.39014 102.192 8.73966C102.969 7.45611 104.779 6.76905 107.032 6.90141C107.118 6.90638 107.198 6.94248 107.258 7.00284C107.319 7.06319 107.355 7.14361 107.36 7.22883C107.49 9.48288 106.803 11.2924 105.52 12.07Z" fill="white"/>
</g>
<path d="M81.9195 24.2366L81.8652 24.5333H80.6029L80.4273 25.5323H81.4556L81.4012 25.8291H80.373L80.1389 27.1499H79.7586L80.2769 24.2366H81.9195ZM82.8722 27.1875C82.6799 27.1875 82.5099 27.1485 82.3622 27.0705C82.2173 26.9897 82.1045 26.8782 82.0236 26.7361C81.9428 26.5912 81.9024 26.424 81.9024 26.2345C81.9024 25.9754 81.9623 25.7385 82.0822 25.524C82.202 25.3066 82.3664 25.1352 82.5754 25.0098C82.7872 24.8844 83.0226 24.8217 83.2818 24.8217C83.474 24.8217 83.644 24.8621 83.7917 24.943C83.9422 25.021 84.0578 25.1324 84.1386 25.2773C84.2222 25.4195 84.264 25.5866 84.264 25.7789C84.264 26.0381 84.2027 26.2749 84.0801 26.4895C83.9575 26.7041 83.7903 26.874 83.5785 26.9994C83.3668 27.1248 83.1313 27.1875 82.8722 27.1875ZM82.9181 26.8657C83.0993 26.8657 83.2623 26.8169 83.4072 26.7194C83.5521 26.6191 83.6649 26.4881 83.7457 26.3265C83.8293 26.1621 83.8711 25.9865 83.8711 25.7998C83.8711 25.588 83.8098 25.4264 83.6872 25.315C83.5646 25.2007 83.4113 25.1436 83.2274 25.1436C83.0463 25.1436 82.8847 25.1937 82.7426 25.2941C82.6005 25.3916 82.4904 25.5226 82.4124 25.687C82.3343 25.8514 82.2953 26.0283 82.2953 26.2178C82.2953 26.424 82.3539 26.5842 82.4709 26.6985C82.5879 26.8099 82.737 26.8657 82.9181 26.8657ZM85.5458 27.1875C85.3535 27.1875 85.1835 27.1485 85.0358 27.0705C84.8909 26.9897 84.7781 26.8782 84.6973 26.7361C84.6165 26.5912 84.576 26.424 84.576 26.2345C84.576 25.9754 84.636 25.7385 84.7558 25.524C84.8756 25.3066 85.04 25.1352 85.249 25.0098C85.4608 24.8844 85.6962 24.8217 85.9554 24.8217C86.1477 24.8217 86.3176 24.8621 86.4653 24.943C86.6158 25.021 86.7314 25.1324 86.8123 25.2773C86.8958 25.4195 86.9376 25.5866 86.9376 25.7789C86.9376 26.0381 86.8763 26.2749 86.7537 26.4895C86.6311 26.7041 86.4639 26.874 86.2522 26.9994C86.0404 27.1248 85.8049 27.1875 85.5458 27.1875ZM85.5917 26.8657C85.7729 26.8657 85.9359 26.8169 86.0808 26.7194C86.2257 26.6191 86.3385 26.4881 86.4194 26.3265C86.5029 26.1621 86.5447 25.9865 86.5447 25.7998C86.5447 25.588 86.4834 25.4264 86.3608 25.315C86.2382 25.2007 86.085 25.1436 85.9011 25.1436C85.7199 25.1436 85.5583 25.1937 85.4162 25.2941C85.2741 25.3916 85.164 25.5226 85.086 25.687C85.008 25.8514 84.969 26.0283 84.969 26.2178C84.969 26.424 85.0275 26.5842 85.1445 26.6985C85.2615 26.8099 85.4106 26.8657 85.5917 26.8657ZM87.2706 25.9963C87.3124 25.7622 87.396 25.5574 87.5214 25.3818C87.6495 25.2035 87.8056 25.0656 87.9895 24.968C88.1734 24.8705 88.3685 24.8217 88.5747 24.8217C88.7502 24.8217 88.9077 24.8635 89.047 24.9471C89.1863 25.0279 89.2852 25.1352 89.3438 25.269L89.5569 24.0568H89.9415L89.3939 27.1499H89.0094L89.0888 26.7194C88.9913 26.8559 88.8603 26.9688 88.6959 27.0579C88.5315 27.1443 88.3504 27.1875 88.1525 27.1875C87.9742 27.1875 87.8167 27.1499 87.6802 27.0747C87.5436 26.9966 87.4364 26.8866 87.3583 26.7445C87.2831 26.6023 87.2455 26.4379 87.2455 26.2512C87.2455 26.1676 87.2538 26.0827 87.2706 25.9963ZM89.2142 26.0005C89.2253 25.9419 89.2309 25.8792 89.2309 25.8124C89.2309 25.6089 89.1696 25.4487 89.047 25.3317C88.9272 25.2119 88.7739 25.1519 88.5872 25.1519C88.4451 25.1519 88.3086 25.1854 88.1776 25.2523C88.0494 25.3191 87.9393 25.4167 87.8474 25.5449C87.7554 25.673 87.6941 25.8235 87.6635 25.9963C87.6523 26.0548 87.6467 26.1189 87.6467 26.1885C87.6467 26.3947 87.7067 26.5578 87.8265 26.6776C87.9463 26.7946 88.0996 26.8531 88.2863 26.8531C88.4284 26.8531 88.5635 26.8197 88.6917 26.7528C88.8227 26.6832 88.9341 26.5842 89.0261 26.4561C89.1208 26.3251 89.1835 26.1732 89.2142 26.0005ZM91.926 25.4571L91.8675 25.7789H90.1997L90.2582 25.4571H91.926ZM93.6973 24.8217C93.8951 24.8217 94.0609 24.8649 94.1947 24.9513C94.3285 25.0377 94.419 25.1464 94.4664 25.2773L94.5416 24.8594H94.9262L94.5124 27.2001C94.4761 27.4091 94.3981 27.5944 94.2783 27.756C94.1613 27.9204 94.0122 28.0486 93.8311 28.1405C93.6499 28.2325 93.4493 28.2785 93.2292 28.2785C92.9282 28.2785 92.69 28.206 92.5144 28.0611C92.3389 27.919 92.2539 27.7267 92.2594 27.4843H92.6398C92.6565 27.6236 92.722 27.7351 92.8363 27.8187C92.9533 27.9051 93.1038 27.9482 93.2877 27.9482C93.4967 27.9482 93.6792 27.8828 93.8352 27.7518C93.9913 27.6208 94.0902 27.4369 94.132 27.2001L94.2156 26.7194C94.1153 26.8531 93.9829 26.9646 93.8185 27.0538C93.6569 27.1429 93.4772 27.1875 93.2793 27.1875C93.101 27.1875 92.9435 27.1499 92.807 27.0747C92.6705 26.9966 92.5632 26.8866 92.4852 26.7445C92.4099 26.6023 92.3723 26.4379 92.3723 26.2512C92.3723 26.1676 92.3807 26.0827 92.3974 25.9963C92.4392 25.7622 92.5228 25.5574 92.6482 25.3818C92.7763 25.2035 92.931 25.0656 93.1121 24.968C93.296 24.8705 93.4911 24.8217 93.6973 24.8217ZM94.341 26.0005C94.3521 25.9419 94.3577 25.8792 94.3577 25.8124C94.3577 25.6089 94.2964 25.4487 94.1738 25.3317C94.054 25.2119 93.9007 25.1519 93.714 25.1519C93.5719 25.1519 93.4354 25.1854 93.3044 25.2523C93.1762 25.3191 93.0661 25.4167 92.9742 25.5449C92.8822 25.673 92.8209 25.8235 92.7903 25.9963C92.7791 26.0548 92.7736 26.1189 92.7736 26.1885C92.7736 26.3947 92.8335 26.5578 92.9533 26.6776C93.0731 26.7946 93.2264 26.8531 93.4131 26.8531C93.5552 26.8531 93.6903 26.8197 93.8185 26.7528C93.9495 26.6832 94.0609 26.5842 94.1529 26.4561C94.2476 26.3251 94.3103 26.1732 94.341 26.0005ZM95.8741 25.2941C95.966 25.1436 96.0817 25.0266 96.221 24.943C96.3603 24.8594 96.5192 24.8176 96.6975 24.8176L96.6264 25.2105H96.5261C96.3283 25.2105 96.1625 25.2634 96.0287 25.3693C95.8978 25.4752 95.81 25.6535 95.7654 25.9043L95.5439 27.1499H95.1635L95.5689 24.8594H95.9493L95.8741 25.2941ZM96.7813 25.9963C96.8231 25.7622 96.9067 25.5574 97.0321 25.3818C97.1603 25.2035 97.3149 25.0656 97.496 24.968C97.6799 24.8705 97.875 24.8217 98.0812 24.8217C98.2818 24.8217 98.4476 24.8649 98.5786 24.9513C98.7096 25.0377 98.8001 25.1464 98.8503 25.2773L98.9255 24.8594H99.3101L98.9046 27.1499H98.5201L98.5995 26.7236C98.4992 26.8573 98.3668 26.9688 98.2024 27.0579C98.038 27.1443 97.8569 27.1875 97.6591 27.1875C97.4807 27.1875 97.3233 27.1499 97.1867 27.0747C97.0502 26.9966 96.9443 26.8866 96.8691 26.7445C96.7938 26.6023 96.7562 26.4379 96.7562 26.2512C96.7562 26.1676 96.7646 26.0827 96.7813 25.9963ZM98.7249 26.0005C98.7361 25.9419 98.7416 25.8792 98.7416 25.8124C98.7416 25.6089 98.6803 25.4487 98.5577 25.3317C98.4379 25.2119 98.2846 25.1519 98.0979 25.1519C97.9558 25.1519 97.8193 25.1854 97.6883 25.2523C97.5601 25.3191 97.4501 25.4167 97.3581 25.5449C97.2661 25.673 97.2048 25.8235 97.1742 25.9963C97.163 26.0548 97.1575 26.1189 97.1575 26.1885C97.1575 26.3947 97.2174 26.5578 97.3372 26.6776C97.457 26.7946 97.6103 26.8531 97.797 26.8531C97.9391 26.8531 98.0742 26.8197 98.2024 26.7528C98.3334 26.6832 98.4449 26.5842 98.5368 26.4561C98.6316 26.3251 98.6943 26.1732 98.7249 26.0005ZM99.6059 25.9963C99.6477 25.7622 99.7313 25.5574 99.8567 25.3818C99.9849 25.2035 100.141 25.0656 100.325 24.968C100.509 24.8705 100.704 24.8217 100.91 24.8217C101.086 24.8217 101.243 24.8635 101.382 24.9471C101.522 25.0279 101.621 25.1352 101.679 25.269L101.892 24.0568H102.277L101.729 27.1499H101.345L101.424 26.7194C101.327 26.8559 101.196 26.9688 101.031 27.0579C100.867 27.1443 100.686 27.1875 100.488 27.1875C100.31 27.1875 100.152 27.1499 100.016 27.0747C99.879 26.9966 99.7717 26.8866 99.6937 26.7445C99.6185 26.6023 99.5809 26.4379 99.5809 26.2512C99.5809 26.1676 99.5892 26.0827 99.6059 25.9963ZM101.55 26.0005C101.561 25.9419 101.566 25.8792 101.566 25.8124C101.566 25.6089 101.505 25.4487 101.382 25.3317C101.263 25.2119 101.109 25.1519 100.923 25.1519C100.78 25.1519 100.644 25.1854 100.513 25.2523C100.385 25.3191 100.275 25.4167 100.183 25.5449C100.091 25.673 100.029 25.8235 99.9988 25.9963C99.9877 26.0548 99.9821 26.1189 99.9821 26.1885C99.9821 26.3947 100.042 26.5578 100.162 26.6776C100.282 26.7946 100.435 26.8531 100.622 26.8531C100.764 26.8531 100.899 26.8197 101.027 26.7528C101.158 26.6832 101.27 26.5842 101.361 26.4561C101.456 26.3251 101.519 26.1732 101.55 26.0005ZM103.772 24.8217C103.965 24.8217 104.13 24.8594 104.27 24.9346C104.412 25.007 104.519 25.1101 104.592 25.2439C104.667 25.3749 104.704 25.5253 104.704 25.6953C104.704 25.7538 104.697 25.8249 104.684 25.9085C104.672 25.9809 104.654 26.0562 104.629 26.1342H102.798C102.793 26.1899 102.79 26.2303 102.79 26.2554C102.79 26.4477 102.847 26.5982 102.961 26.7068C103.078 26.8127 103.23 26.8657 103.417 26.8657C103.581 26.8657 103.725 26.8281 103.848 26.7528C103.973 26.6748 104.068 26.5717 104.132 26.4435H104.541C104.441 26.6636 104.286 26.8434 104.077 26.9827C103.871 27.1193 103.632 27.1875 103.358 27.1875C103.071 27.1875 102.84 27.1053 102.665 26.9409C102.492 26.7737 102.405 26.5466 102.405 26.2596C102.405 26.1788 102.414 26.0924 102.431 26.0005C102.472 25.7636 102.557 25.556 102.686 25.3777C102.814 25.1993 102.971 25.0628 103.158 24.968C103.347 24.8705 103.552 24.8217 103.772 24.8217ZM104.299 25.8583C104.307 25.8026 104.311 25.7511 104.311 25.7037C104.311 25.5253 104.254 25.3874 104.14 25.2899C104.029 25.1924 103.882 25.1436 103.701 25.1436C103.506 25.1436 103.329 25.2077 103.17 25.3359C103.012 25.4613 102.904 25.6354 102.849 25.8583H104.299ZM109.377 24.8176C109.611 24.8176 109.798 24.8817 109.937 25.0098C110.08 25.1352 110.151 25.3191 110.151 25.5616C110.151 25.6507 110.144 25.7302 110.13 25.7998L109.891 27.1499H109.515L109.745 25.8542C109.756 25.7956 109.762 25.7329 109.762 25.6661C109.762 25.4961 109.716 25.3679 109.624 25.2815C109.535 25.1924 109.408 25.1478 109.244 25.1478C109.054 25.1478 108.891 25.2063 108.755 25.3233C108.621 25.4376 108.529 25.6034 108.479 25.8207L108.24 27.1499H107.864L108.094 25.8542C108.105 25.7901 108.111 25.726 108.111 25.6619C108.111 25.4947 108.065 25.3679 107.973 25.2815C107.884 25.1924 107.757 25.1478 107.593 25.1478C107.395 25.1478 107.226 25.2119 107.087 25.34C106.947 25.4654 106.857 25.648 106.815 25.8876V25.8792L106.589 27.1499H106.209L106.614 24.8594H106.995L106.936 25.1896C107.031 25.0697 107.148 24.9778 107.287 24.9137C107.427 24.8496 107.573 24.8176 107.726 24.8176C107.919 24.8176 108.08 24.8608 108.211 24.9471C108.345 25.0335 108.433 25.1603 108.474 25.3275C108.569 25.1659 108.697 25.0405 108.859 24.9513C109.023 24.8621 109.196 24.8176 109.377 24.8176ZM110.574 25.9963C110.616 25.7622 110.699 25.5574 110.825 25.3818C110.953 25.2035 111.108 25.0656 111.289 24.968C111.473 24.8705 111.668 24.8217 111.874 24.8217C112.074 24.8217 112.24 24.8649 112.371 24.9513C112.502 25.0377 112.593 25.1464 112.643 25.2773L112.718 24.8594H113.103L112.697 27.1499H112.313L112.392 26.7236C112.292 26.8573 112.159 26.9688 111.995 27.0579C111.831 27.1443 111.649 27.1875 111.452 27.1875C111.273 27.1875 111.116 27.1499 110.979 27.0747C110.843 26.9966 110.737 26.8866 110.662 26.7445C110.586 26.6023 110.549 26.4379 110.549 26.2512C110.549 26.1676 110.557 26.0827 110.574 25.9963ZM112.517 26.0005C112.529 25.9419 112.534 25.8792 112.534 25.8124C112.534 25.6089 112.473 25.4487 112.35 25.3317C112.23 25.2119 112.077 25.1519 111.891 25.1519C111.748 25.1519 111.612 25.1854 111.481 25.2523C111.353 25.3191 111.243 25.4167 111.151 25.5449C111.059 25.673 110.997 25.8235 110.967 25.9963C110.956 26.0548 110.95 26.1189 110.95 26.1885C110.95 26.3947 111.01 26.5578 111.13 26.6776C111.25 26.7946 111.403 26.8531 111.59 26.8531C111.732 26.8531 111.867 26.8197 111.995 26.7528C112.126 26.6832 112.237 26.5842 112.329 26.4561C112.424 26.3251 112.487 26.1732 112.517 26.0005ZM113.917 26.5229C113.908 26.5647 113.904 26.601 113.904 26.6316C113.904 26.7013 113.925 26.7514 113.967 26.7821C114.012 26.8127 114.083 26.8281 114.18 26.8281H114.46L114.402 27.1499H114.059C113.878 27.1499 113.741 27.1151 113.649 27.0454C113.56 26.9757 113.516 26.8615 113.516 26.7027C113.516 26.6414 113.521 26.5814 113.532 26.5229L113.771 25.1728H113.478L113.532 24.8594H113.829L113.929 24.2825H114.314L114.214 24.8594H114.807L114.753 25.1728H114.155L113.917 26.5229ZM116.263 24.8217C116.455 24.8217 116.621 24.8594 116.76 24.9346C116.902 25.007 117.01 25.1101 117.082 25.2439C117.157 25.3749 117.195 25.5253 117.195 25.6953C117.195 25.7538 117.188 25.8249 117.174 25.9085C117.163 25.9809 117.145 26.0562 117.12 26.1342H115.289C115.283 26.1899 115.281 26.2303 115.281 26.2554C115.281 26.4477 115.338 26.5982 115.452 26.7068C115.569 26.8127 115.721 26.8657 115.907 26.8657C116.072 26.8657 116.215 26.8281 116.338 26.7528C116.463 26.6748 116.558 26.5717 116.622 26.4435H117.032C116.932 26.6636 116.777 26.8434 116.568 26.9827C116.362 27.1193 116.122 27.1875 115.849 27.1875C115.562 27.1875 115.331 27.1053 115.155 26.9409C114.982 26.7737 114.896 26.5466 114.896 26.2596C114.896 26.1788 114.904 26.0924 114.921 26.0005C114.963 25.7636 115.048 25.556 115.176 25.3777C115.304 25.1993 115.462 25.0628 115.648 24.968C115.838 24.8705 116.043 24.8217 116.263 24.8217ZM116.789 25.8583C116.798 25.8026 116.802 25.7511 116.802 25.7037C116.802 25.5253 116.745 25.3874 116.631 25.2899C116.519 25.1924 116.373 25.1436 116.192 25.1436C115.997 25.1436 115.82 25.2077 115.661 25.3359C115.502 25.4613 115.395 25.6354 115.339 25.8583H116.789ZM118.165 25.2941C118.257 25.1436 118.373 25.0266 118.512 24.943C118.651 24.8594 118.81 24.8176 118.989 24.8176L118.917 25.2105H118.817C118.619 25.2105 118.453 25.2634 118.32 25.3693C118.189 25.4752 118.101 25.6535 118.056 25.9043L117.835 27.1499H117.455L117.86 24.8594H118.24L118.165 25.2941ZM119.678 24.4874C119.617 24.4874 119.566 24.4679 119.524 24.4288C119.485 24.387 119.465 24.3355 119.465 24.2742C119.465 24.1906 119.496 24.1195 119.557 24.061C119.618 23.9997 119.69 23.9691 119.77 23.9691C119.834 23.9691 119.886 23.9886 119.925 24.0276C119.964 24.0666 119.984 24.1181 119.984 24.1822C119.984 24.2658 119.953 24.3383 119.892 24.3996C119.83 24.4581 119.759 24.4874 119.678 24.4874ZM119.8 24.8594L119.394 27.1499H119.014L119.419 24.8594H119.8ZM120.101 25.9963C120.143 25.7622 120.226 25.5574 120.352 25.3818C120.48 25.2035 120.635 25.0656 120.816 24.968C121 24.8705 121.195 24.8217 121.401 24.8217C121.601 24.8217 121.767 24.8649 121.898 24.9513C122.029 25.0377 122.12 25.1464 122.17 25.2773L122.245 24.8594H122.63L122.224 27.1499H121.84L121.919 26.7236C121.819 26.8573 121.686 26.9688 121.522 27.0579C121.358 27.1443 121.177 27.1875 120.979 27.1875C120.8 27.1875 120.643 27.1499 120.506 27.0747C120.37 26.9966 120.264 26.8866 120.189 26.7445C120.113 26.6023 120.076 26.4379 120.076 26.2512C120.076 26.1676 120.084 26.0827 120.101 25.9963ZM122.045 26.0005C122.056 25.9419 122.061 25.8792 122.061 25.8124C122.061 25.6089 122 25.4487 121.877 25.3317C121.758 25.2119 121.604 25.1519 121.418 25.1519C121.275 25.1519 121.139 25.1854 121.008 25.2523C120.88 25.3191 120.77 25.4167 120.678 25.5449C120.586 25.673 120.524 25.8235 120.494 25.9963C120.483 26.0548 120.477 26.1189 120.477 26.1885C120.477 26.3947 120.537 26.5578 120.657 26.6776C120.777 26.7946 120.93 26.8531 121.117 26.8531C121.259 26.8531 121.394 26.8197 121.522 26.7528C121.653 26.6832 121.765 26.5842 121.856 26.4561C121.951 26.3251 122.014 26.1732 122.045 26.0005ZM123.795 24.0568L123.247 27.1499H122.867L123.415 24.0568H123.795Z" fill="white"/>
<defs>
<clipPath id="clip0_967_4510">
<rect width="11.1462" height="11.1462" fill="white" transform="translate(50.9272 5.14453)"/>
</clipPath>
<clipPath id="clip1_967_4510">
<rect width="11.1462" height="11.1462" fill="white" transform="translate(96.5762 5.14453)"/>
</clipPath>
</defs>
</svg>
