<svg width="162" height="37" viewBox="0 0 162 37" fill="none" xmlns="http://www.w3.org/2000/svg">
<path d="M5.88 17L3.836 13.29H3.262V17H0.868V7.172H4.886C5.66067 7.172 6.31867 7.30733 6.86 7.578C7.41067 7.84867 7.82133 8.222 8.092 8.698C8.36267 9.16467 8.498 9.68733 8.498 10.266C8.498 10.9193 8.31133 11.5027 7.938 12.016C7.574 12.5293 7.03267 12.8933 6.314 13.108L8.582 17H5.88ZM3.262 11.596H4.746C5.18467 11.596 5.51133 11.4887 5.726 11.274C5.95 11.0593 6.062 10.756 6.062 10.364C6.062 9.99067 5.95 9.69667 5.726 9.482C5.51133 9.26733 5.18467 9.16 4.746 9.16H3.262V11.596ZM15.6988 17L12.3948 12.66V17H10.0008V7.172H12.3948V11.484L15.6708 7.172H18.4848L14.6768 11.988L18.6248 17H15.6988ZM30.2193 10.336C30.2193 10.9053 30.0887 11.428 29.8273 11.904C29.566 12.3707 29.1647 12.7487 28.6233 13.038C28.082 13.3273 27.41 13.472 26.6073 13.472H25.1233V17H22.7293V7.172H26.6073C27.3913 7.172 28.054 7.30733 28.5953 7.578C29.1367 7.84867 29.5427 8.222 29.8133 8.698C30.084 9.174 30.2193 9.72 30.2193 10.336ZM26.4253 11.568C26.8827 11.568 27.2233 11.4607 27.4473 11.246C27.6713 11.0313 27.7833 10.728 27.7833 10.336C27.7833 9.944 27.6713 9.64067 27.4473 9.426C27.2233 9.21133 26.8827 9.104 26.4253 9.104H25.1233V11.568H26.4253ZM36.1137 17.098C35.1897 17.098 34.3403 16.8833 33.5657 16.454C32.8003 16.0247 32.189 15.4273 31.7317 14.662C31.2837 13.8873 31.0597 13.0193 31.0597 12.058C31.0597 11.0967 31.2837 10.2333 31.7317 9.468C32.189 8.70267 32.8003 8.10533 33.5657 7.676C34.3403 7.24667 35.1897 7.032 36.1137 7.032C37.0377 7.032 37.8823 7.24667 38.6477 7.676C39.4223 8.10533 40.029 8.70267 40.4677 9.468C40.9157 10.2333 41.1397 11.0967 41.1397 12.058C41.1397 13.0193 40.9157 13.8873 40.4677 14.662C40.0197 15.4273 39.413 16.0247 38.6477 16.454C37.8823 16.8833 37.0377 17.098 36.1137 17.098ZM36.1137 14.914C36.8977 14.914 37.523 14.6527 37.9897 14.13C38.4657 13.6073 38.7037 12.9167 38.7037 12.058C38.7037 11.19 38.4657 10.4993 37.9897 9.986C37.523 9.46333 36.8977 9.202 36.1137 9.202C35.3203 9.202 34.6857 9.45867 34.2097 9.972C33.743 10.4853 33.5097 11.1807 33.5097 12.058C33.5097 12.926 33.743 13.6213 34.2097 14.144C34.6857 14.6573 35.3203 14.914 36.1137 14.914ZM44.8655 15.152H48.0015V17H42.4715V7.172H44.8655V15.152ZM57.5714 7.172L54.1694 13.752V17H51.7754V13.752L48.3734 7.172H51.0894L52.9934 11.288L54.8834 7.172H57.5714ZM64.0636 12.072C64.0636 11.1013 64.2736 10.238 64.6936 9.482C65.1136 8.71667 65.6969 8.124 66.4436 7.704C67.1996 7.27467 68.0536 7.06 69.0056 7.06C70.1722 7.06 71.1709 7.368 72.0016 7.984C72.8322 8.6 73.3876 9.44 73.6676 10.504H71.0356C70.8396 10.0933 70.5596 9.78067 70.1956 9.566C69.8409 9.35133 69.4349 9.244 68.9776 9.244C68.2402 9.244 67.6429 9.50067 67.1856 10.014C66.7282 10.5273 66.4996 11.2133 66.4996 12.072C66.4996 12.9307 66.7282 13.6167 67.1856 14.13C67.6429 14.6433 68.2402 14.9 68.9776 14.9C69.4349 14.9 69.8409 14.7927 70.1956 14.578C70.5596 14.3633 70.8396 14.0507 71.0356 13.64H73.6676C73.3876 14.704 72.8322 15.544 72.0016 16.16C71.1709 16.7667 70.1722 17.07 69.0056 17.07C68.0536 17.07 67.1996 16.86 66.4436 16.44C65.6969 16.0107 65.1136 15.418 64.6936 14.662C64.2736 13.906 64.0636 13.0427 64.0636 12.072ZM79.7816 17.098C78.8576 17.098 78.0083 16.8833 77.2336 16.454C76.4683 16.0247 75.857 15.4273 75.3996 14.662C74.9516 13.8873 74.7276 13.0193 74.7276 12.058C74.7276 11.0967 74.9516 10.2333 75.3996 9.468C75.857 8.70267 76.4683 8.10533 77.2336 7.676C78.0083 7.24667 78.8576 7.032 79.7816 7.032C80.7056 7.032 81.5503 7.24667 82.3156 7.676C83.0903 8.10533 83.697 8.70267 84.1356 9.468C84.5836 10.2333 84.8076 11.0967 84.8076 12.058C84.8076 13.0193 84.5836 13.8873 84.1356 14.662C83.6876 15.4273 83.081 16.0247 82.3156 16.454C81.5503 16.8833 80.7056 17.098 79.7816 17.098ZM79.7816 14.914C80.5656 14.914 81.191 14.6527 81.6576 14.13C82.1336 13.6073 82.3716 12.9167 82.3716 12.058C82.3716 11.19 82.1336 10.4993 81.6576 9.986C81.191 9.46333 80.5656 9.202 79.7816 9.202C78.9883 9.202 78.3536 9.45867 77.8776 9.972C77.411 10.4853 77.1776 11.1807 77.1776 12.058C77.1776 12.926 77.411 13.6213 77.8776 14.144C78.3536 14.6573 78.9883 14.914 79.7816 14.914ZM94.9315 17H92.5375L88.5335 10.938V17H86.1395V7.172H88.5335L92.5375 13.262V7.172H94.9315V17ZM103.737 7.172V9.09H101.133V17H98.7388V9.09H96.1348V7.172H103.737ZM111.056 15.264H107.388L106.8 17H104.294L107.85 7.172H110.622L114.178 17H111.644L111.056 15.264ZM110.44 13.416L109.222 9.818L108.018 13.416H110.44ZM117.655 7.172V17H115.261V7.172H117.655ZM128.181 17H125.787L121.783 10.938V17H119.389V7.172H121.783L125.787 13.262V7.172H128.181V17ZM132.311 9.09V11.078H135.517V12.926H132.311V15.082H135.937V17H129.917V7.172H135.937V9.09H132.311ZM142.503 17L140.459 13.29H139.885V17H137.491V7.172H141.509C142.284 7.172 142.942 7.30733 143.483 7.578C144.034 7.84867 144.444 8.222 144.715 8.698C144.986 9.16467 145.121 9.68733 145.121 10.266C145.121 10.9193 144.934 11.5027 144.561 12.016C144.197 12.5293 143.656 12.8933 142.937 13.108L145.205 17H142.503ZM139.885 11.596H141.369C141.808 11.596 142.134 11.4887 142.349 11.274C142.573 11.0593 142.685 10.756 142.685 10.364C142.685 9.99067 142.573 9.69667 142.349 9.482C142.134 9.26733 141.808 9.16 141.369 9.16H139.885V11.596ZM150.18 17.098C149.461 17.098 148.817 16.9813 148.248 16.748C147.679 16.5147 147.221 16.1693 146.876 15.712C146.54 15.2547 146.363 14.704 146.344 14.06H148.892C148.929 14.424 149.055 14.704 149.27 14.9C149.485 15.0867 149.765 15.18 150.11 15.18C150.465 15.18 150.745 15.1007 150.95 14.942C151.155 14.774 151.258 14.5453 151.258 14.256C151.258 14.0133 151.174 13.8127 151.006 13.654C150.847 13.4953 150.647 13.3647 150.404 13.262C150.171 13.1593 149.835 13.0427 149.396 12.912C148.761 12.716 148.243 12.52 147.842 12.324C147.441 12.128 147.095 11.8387 146.806 11.456C146.517 11.0733 146.372 10.574 146.372 9.958C146.372 9.04333 146.703 8.32933 147.366 7.816C148.029 7.29333 148.892 7.032 149.956 7.032C151.039 7.032 151.911 7.29333 152.574 7.816C153.237 8.32933 153.591 9.048 153.638 9.972H151.048C151.029 9.65467 150.913 9.40733 150.698 9.23C150.483 9.04333 150.208 8.95 149.872 8.95C149.583 8.95 149.349 9.02933 149.172 9.188C148.995 9.33733 148.906 9.55667 148.906 9.846C148.906 10.1633 149.055 10.4107 149.354 10.588C149.653 10.7653 150.119 10.9567 150.754 11.162C151.389 11.3767 151.902 11.582 152.294 11.778C152.695 11.974 153.041 12.2587 153.33 12.632C153.619 13.0053 153.764 13.486 153.764 14.074C153.764 14.634 153.619 15.1427 153.33 15.6C153.05 16.0573 152.639 16.4213 152.098 16.692C151.557 16.9627 150.917 17.098 150.18 17.098Z" fill="white"/>
<path d="M2.384 34.056C2.016 34.056 1.68533 33.992 1.392 33.864C1.104 33.7307 0.877333 33.5493 0.712 33.32C0.546667 33.0853 0.461333 32.816 0.456 32.512H1.232C1.25867 32.7733 1.36533 32.9947 1.552 33.176C1.744 33.352 2.02133 33.44 2.384 33.44C2.73067 33.44 3.00267 33.3547 3.2 33.184C3.40267 33.008 3.504 32.784 3.504 32.512C3.504 32.2987 3.44533 32.1253 3.328 31.992C3.21067 31.8587 3.064 31.7573 2.888 31.688C2.712 31.6187 2.47467 31.544 2.176 31.464C1.808 31.368 1.512 31.272 1.288 31.176C1.06933 31.08 0.88 30.9307 0.72 30.728C0.565333 30.52 0.488 30.2427 0.488 29.896C0.488 29.592 0.565333 29.3227 0.72 29.088C0.874667 28.8533 1.09067 28.672 1.368 28.544C1.65067 28.416 1.97333 28.352 2.336 28.352C2.85867 28.352 3.28533 28.4827 3.616 28.744C3.952 29.0053 4.14133 29.352 4.184 29.784H3.384C3.35733 29.5707 3.24533 29.384 3.048 29.224C2.85067 29.0587 2.58933 28.976 2.264 28.976C1.96 28.976 1.712 29.056 1.52 29.216C1.328 29.3707 1.232 29.5893 1.232 29.872C1.232 30.0747 1.288 30.24 1.4 30.368C1.51733 30.496 1.65867 30.5947 1.824 30.664C1.99467 30.728 2.232 30.8027 2.536 30.888C2.904 30.9893 3.2 31.0907 3.424 31.192C3.648 31.288 3.84 31.44 4 31.648C4.16 31.8507 4.24 32.128 4.24 32.48C4.24 32.752 4.168 33.008 4.024 33.248C3.88 33.488 3.66667 33.6827 3.384 33.832C3.10133 33.9813 2.768 34.056 2.384 34.056ZM12.3193 28.424L10.7033 34H9.88731L8.59131 29.512L7.24731 34L6.43931 34.008L4.87931 28.424H5.65531L6.87131 33.152L8.21531 28.424H9.03131L10.3113 33.136L11.5353 28.424H12.3193ZM13.844 29.016V30.88H15.876V31.48H13.844V33.4H16.116V34H13.116V28.416H16.116V29.016H13.844ZM17.9456 29.016V30.88H19.9776V31.48H17.9456V33.4H20.2176V34H17.2176V28.416H20.2176V29.016H17.9456ZM24.7511 28.424V29.016H23.2311V34H22.5031V29.016H20.9751V28.424H24.7511ZM30.5721 31.128C30.7747 31.16 30.9587 31.2427 31.1241 31.376C31.2947 31.5093 31.4281 31.6747 31.5241 31.872C31.6254 32.0693 31.6761 32.28 31.6761 32.504C31.6761 32.7867 31.6041 33.0427 31.4601 33.272C31.3161 33.496 31.1054 33.6747 30.8281 33.808C30.5561 33.936 30.2334 34 29.8601 34H27.7801V28.424H29.7801C30.1587 28.424 30.4814 28.488 30.7481 28.616C31.0147 28.7387 31.2147 28.9067 31.3481 29.12C31.4814 29.3333 31.5481 29.5733 31.5481 29.84C31.5481 30.1707 31.4574 30.4453 31.2761 30.664C31.1001 30.8773 30.8654 31.032 30.5721 31.128ZM28.5081 30.832H29.7321C30.0734 30.832 30.3374 30.752 30.5241 30.592C30.7107 30.432 30.8041 30.2107 30.8041 29.928C30.8041 29.6453 30.7107 29.424 30.5241 29.264C30.3374 29.104 30.0681 29.024 29.7161 29.024H28.5081V30.832ZM29.7961 33.4C30.1587 33.4 30.4414 33.3147 30.6441 33.144C30.8467 32.9733 30.9481 32.736 30.9481 32.432C30.9481 32.1227 30.8414 31.88 30.6281 31.704C30.4147 31.5227 30.1294 31.432 29.7721 31.432H28.5081V33.4H29.7961ZM35.2143 34.056C34.697 34.056 34.225 33.936 33.7983 33.696C33.3716 33.4507 33.033 33.112 32.7823 32.68C32.537 32.2427 32.4143 31.752 32.4143 31.208C32.4143 30.664 32.537 30.176 32.7823 29.744C33.033 29.3067 33.3716 28.968 33.7983 28.728C34.225 28.4827 34.697 28.36 35.2143 28.36C35.737 28.36 36.2116 28.4827 36.6383 28.728C37.065 28.968 37.401 29.304 37.6463 29.736C37.8916 30.168 38.0143 30.6587 38.0143 31.208C38.0143 31.7573 37.8916 32.248 37.6463 32.68C37.401 33.112 37.065 33.4507 36.6383 33.696C36.2116 33.936 35.737 34.056 35.2143 34.056ZM35.2143 33.424C35.6036 33.424 35.953 33.3333 36.2623 33.152C36.577 32.9707 36.8223 32.712 36.9983 32.376C37.1796 32.04 37.2703 31.6507 37.2703 31.208C37.2703 30.76 37.1796 30.3707 36.9983 30.04C36.8223 29.704 36.5796 29.4453 36.2703 29.264C35.961 29.0827 35.609 28.992 35.2143 28.992C34.8196 28.992 34.4676 29.0827 34.1583 29.264C33.849 29.4453 33.6036 29.704 33.4223 30.04C33.2463 30.3707 33.1583 30.76 33.1583 31.208C33.1583 31.6507 33.2463 32.04 33.4223 32.376C33.6036 32.712 33.849 32.9707 34.1583 33.152C34.473 33.3333 34.825 33.424 35.2143 33.424ZM41.2554 31.216L42.9674 34H42.1434L40.8074 31.824L39.5354 34H38.7274L40.4314 31.216L38.7194 28.424H39.5354L40.8794 30.608L42.1594 28.424H42.9754L41.2554 31.216ZM47.9489 35.488C47.4369 34.9867 47.0369 34.3493 46.7489 33.576C46.4663 32.8027 46.3249 31.968 46.3249 31.072C46.3249 30.1547 46.4743 29.2987 46.7729 28.504C47.0769 27.704 47.5089 27.0453 48.0689 26.528H48.8289V26.6C48.2316 27.16 47.7809 27.8347 47.4769 28.624C47.1783 29.408 47.0289 30.224 47.0289 31.072C47.0289 31.8987 47.1703 32.688 47.4529 33.44C47.7409 34.192 48.1596 34.8507 48.7089 35.416V35.488H47.9489ZM50.4378 28.424V34H49.7098V28.424H50.4378ZM57.3345 28.464V34H56.6065V29.872L54.7665 34H54.2545L52.4065 29.864V34H51.6785V28.464H52.4625L54.5105 33.04L56.5585 28.464H57.3345ZM59.2971 33.408H61.2491V34H58.5691V28.424H59.2971V33.408ZM61.7903 35.488V35.416C62.3396 34.8507 62.7556 34.192 63.0383 33.44C63.3263 32.688 63.4703 31.8987 63.4703 31.072C63.4703 30.224 63.3183 29.408 63.0143 28.624C62.7156 27.8347 62.2676 27.16 61.6702 26.6V26.528H62.4303C62.9903 27.0453 63.4196 27.704 63.7183 28.504C64.0223 29.2987 64.1743 30.1547 64.1743 31.072C64.1743 31.968 64.0303 32.8027 63.7423 33.576C63.4596 34.3493 63.0623 34.9867 62.5503 35.488H61.7903ZM70.8279 30.76V31.376H67.6359V30.76H70.8279ZM78.0549 30.056C78.0549 30.52 77.8949 30.9067 77.5749 31.216C77.2603 31.52 76.7776 31.672 76.1269 31.672H75.0549V34H74.3269V28.424H76.1269C76.7563 28.424 77.2336 28.576 77.5589 28.88C77.8896 29.184 78.0549 29.576 78.0549 30.056ZM76.1269 31.072C76.5323 31.072 76.8309 30.984 77.0229 30.808C77.2149 30.632 77.3109 30.3813 77.3109 30.056C77.3109 29.368 76.9163 29.024 76.1269 29.024H75.0549V31.072H76.1269ZM81.8958 34L80.5678 31.72H79.6878V34H78.9598V28.424H80.7598C81.1811 28.424 81.5358 28.496 81.8238 28.64C82.1171 28.784 82.3358 28.9787 82.4798 29.224C82.6238 29.4693 82.6958 29.7493 82.6958 30.064C82.6958 30.448 82.5838 30.7867 82.3598 31.08C82.1411 31.3733 81.8104 31.568 81.3678 31.664L82.7678 34H81.8958ZM79.6878 31.136H80.7598C81.1544 31.136 81.4504 31.04 81.6478 30.848C81.8451 30.6507 81.9438 30.3893 81.9438 30.064C81.9438 29.7333 81.8451 29.4773 81.6478 29.296C81.4558 29.1147 81.1598 29.024 80.7598 29.024H79.6878V31.136ZM86.3549 34.056C85.8376 34.056 85.3656 33.936 84.9389 33.696C84.5123 33.4507 84.1736 33.112 83.9229 32.68C83.6776 32.2427 83.5549 31.752 83.5549 31.208C83.5549 30.664 83.6776 30.176 83.9229 29.744C84.1736 29.3067 84.5123 28.968 84.9389 28.728C85.3656 28.4827 85.8376 28.36 86.3549 28.36C86.8776 28.36 87.3523 28.4827 87.7789 28.728C88.2056 28.968 88.5416 29.304 88.7869 29.736C89.0323 30.168 89.1549 30.6587 89.1549 31.208C89.1549 31.7573 89.0323 32.248 88.7869 32.68C88.5416 33.112 88.2056 33.4507 87.7789 33.696C87.3523 33.936 86.8776 34.056 86.3549 34.056ZM86.3549 33.424C86.7443 33.424 87.0936 33.3333 87.4029 33.152C87.7176 32.9707 87.9629 32.712 88.1389 32.376C88.3203 32.04 88.4109 31.6507 88.4109 31.208C88.4109 30.76 88.3203 30.3707 88.1389 30.04C87.9629 29.704 87.7203 29.4453 87.4109 29.264C87.1016 29.0827 86.7496 28.992 86.3549 28.992C85.9603 28.992 85.6083 29.0827 85.2989 29.264C84.9896 29.4453 84.7443 29.704 84.5629 30.04C84.3869 30.3707 84.2989 30.76 84.2989 31.208C84.2989 31.6507 84.3869 32.04 84.5629 32.376C84.7443 32.712 84.9896 32.9707 85.2989 33.152C85.6136 33.3333 85.9656 33.424 86.3549 33.424ZM91.852 28.424C92.46 28.424 92.9853 28.5387 93.428 28.768C93.876 28.992 94.2173 29.3147 94.452 29.736C94.692 30.1573 94.812 30.6533 94.812 31.224C94.812 31.7947 94.692 32.2907 94.452 32.712C94.2173 33.128 93.876 33.448 93.428 33.672C92.9853 33.8907 92.46 34 91.852 34H90.116V28.424H91.852ZM91.852 33.4C92.572 33.4 93.1213 33.2107 93.5 32.832C93.8787 32.448 94.068 31.912 94.068 31.224C94.068 30.5307 93.876 29.9893 93.492 29.6C93.1133 29.2107 92.5667 29.016 91.852 29.016H90.844V33.4H91.852ZM96.4843 28.424V31.952C96.4843 32.448 96.6043 32.816 96.8443 33.056C97.0896 33.296 97.4283 33.416 97.8603 33.416C98.2869 33.416 98.6203 33.296 98.8603 33.056C99.1056 32.816 99.2283 32.448 99.2283 31.952V28.424H99.9563V31.944C99.9563 32.408 99.8629 32.8 99.6762 33.12C99.4896 33.4347 99.2363 33.6693 98.9163 33.824C98.6016 33.9787 98.2469 34.056 97.8523 34.056C97.4576 34.056 97.1003 33.9787 96.7803 33.824C96.4656 33.6693 96.2149 33.4347 96.0283 33.12C95.8469 32.8 95.7563 32.408 95.7563 31.944V28.424H96.4843ZM100.899 31.208C100.899 30.664 101.021 30.176 101.267 29.744C101.512 29.3067 101.845 28.9653 102.267 28.72C102.693 28.4747 103.165 28.352 103.683 28.352C104.291 28.352 104.821 28.4987 105.275 28.792C105.728 29.0853 106.059 29.5013 106.267 30.04H105.395C105.24 29.704 105.016 29.4453 104.723 29.264C104.435 29.0827 104.088 28.992 103.683 28.992C103.293 28.992 102.944 29.0827 102.635 29.264C102.325 29.4453 102.083 29.704 101.907 30.04C101.731 30.3707 101.643 30.76 101.643 31.208C101.643 31.6507 101.731 32.04 101.907 32.376C102.083 32.7067 102.325 32.9627 102.635 33.144C102.944 33.3253 103.293 33.416 103.683 33.416C104.088 33.416 104.435 33.328 104.723 33.152C105.016 32.9707 105.24 32.712 105.395 32.376H106.267C106.059 32.9093 105.728 33.3227 105.275 33.616C104.821 33.904 104.291 34.048 103.683 34.048C103.165 34.048 102.693 33.928 102.267 33.688C101.845 33.4427 101.512 33.104 101.267 32.672C101.021 32.24 100.899 31.752 100.899 31.208ZM110.782 28.424V29.016H109.262V34H108.534V29.016H107.006V28.424H110.782ZM117.539 30.056C117.539 30.52 117.379 30.9067 117.059 31.216C116.745 31.52 116.262 31.672 115.611 31.672H114.539V34H113.811V28.424H115.611C116.241 28.424 116.718 28.576 117.043 28.88C117.374 29.184 117.539 29.576 117.539 30.056ZM115.611 31.072C116.017 31.072 116.315 30.984 116.507 30.808C116.699 30.632 116.795 30.3813 116.795 30.056C116.795 29.368 116.401 29.024 115.611 29.024H114.539V31.072H115.611ZM121.74 32.76H119.308L118.86 34H118.092L120.108 28.456H120.948L122.956 34H122.188L121.74 32.76ZM121.532 32.168L120.524 29.352L119.516 32.168H121.532ZM128.059 30.04C127.904 29.7147 127.68 29.464 127.387 29.288C127.093 29.1067 126.752 29.016 126.363 29.016C125.973 29.016 125.621 29.1067 125.307 29.288C124.997 29.464 124.752 29.72 124.571 30.056C124.395 30.3867 124.307 30.7707 124.307 31.208C124.307 31.6453 124.395 32.0293 124.571 32.36C124.752 32.6907 124.997 32.9467 125.307 33.128C125.621 33.304 125.973 33.392 126.363 33.392C126.907 33.392 127.355 33.2293 127.707 32.904C128.059 32.5787 128.264 32.1387 128.323 31.584H126.099V30.992H129.099V31.552C129.056 32.0107 128.912 32.432 128.667 32.816C128.421 33.1947 128.099 33.496 127.699 33.72C127.299 33.9387 126.853 34.048 126.363 34.048C125.845 34.048 125.373 33.928 124.947 33.688C124.52 33.4427 124.181 33.104 123.931 32.672C123.685 32.24 123.563 31.752 123.563 31.208C123.563 30.664 123.685 30.176 123.931 29.744C124.181 29.3067 124.52 28.968 124.947 28.728C125.373 28.4827 125.845 28.36 126.363 28.36C126.955 28.36 127.477 28.5067 127.931 28.8C128.389 29.0933 128.723 29.5067 128.931 30.04H128.059ZM130.789 29.016V30.88H132.821V31.48H130.789V33.4H133.061V34H130.061V28.416H133.061V29.016H130.789Z" fill="white"/>
</svg>
