<svg width="395" height="226" viewBox="0 0 395 226" fill="none" xmlns="http://www.w3.org/2000/svg">
<path d="M30.6797 12.1679C30.6797 14.2826 30.1944 16.2239 29.2237 17.9919C28.2531 19.7253 26.7624 21.1293 24.7517 22.2039C22.7411 23.2786 20.2451 23.8159 17.2637 23.8159H11.7517V36.9199H2.85974V0.415921H17.2637C20.1757 0.415921 22.6371 0.918587 24.6477 1.92392C26.6584 2.92925 28.1664 4.31592 29.1717 6.08392C30.1771 7.85192 30.6797 9.87992 30.6797 12.1679ZM16.5877 16.7439C18.2864 16.7439 19.5517 16.3453 20.3837 15.5479C21.2157 14.7506 21.6317 13.6239 21.6317 12.1679C21.6317 10.7119 21.2157 9.58525 20.3837 8.78792C19.5517 7.99059 18.2864 7.59192 16.5877 7.59192H11.7517V16.7439H16.5877ZM58.033 30.4719H44.409L42.225 36.9199H32.917L46.125 0.415921H56.421L69.629 36.9199H60.217L58.033 30.4719ZM55.745 23.6079L51.221 10.2439L46.749 23.6079H55.745ZM72.1408 18.6159C72.1408 15.0106 72.9208 11.8039 74.4808 8.99592C76.0408 6.15325 78.2075 3.95192 80.9808 2.39192C83.7888 0.797253 86.9608 -8.01086e-05 90.4968 -8.01086e-05C94.8301 -8.01086e-05 98.5395 1.14392 101.625 3.43192C104.71 5.71992 106.773 8.83992 107.813 12.7919H98.0368C97.3088 11.2666 96.2688 10.1053 94.9168 9.30792C93.5995 8.51059 92.0915 8.11192 90.3928 8.11192C87.6541 8.11192 85.4355 9.06525 83.7368 10.9719C82.0381 12.8786 81.1888 15.4266 81.1888 18.6159C81.1888 21.8053 82.0381 24.3533 83.7368 26.2599C85.4355 28.1666 87.6541 29.1199 90.3928 29.1199C92.0915 29.1199 93.5995 28.7213 94.9168 27.9239C96.2688 27.1266 97.3088 25.9653 98.0368 24.4399H107.813C106.773 28.3919 104.71 31.5119 101.625 33.7999C98.5395 36.0533 94.8301 37.1799 90.4968 37.1799C86.9608 37.1799 83.7888 36.3999 80.9808 34.8399C78.2075 33.2453 76.0408 31.0439 74.4808 28.2359C72.9208 25.4279 72.1408 22.2213 72.1408 18.6159ZM134.422 36.9199L122.15 20.7999V36.9199H113.258V0.415921H122.15V16.4319L134.318 0.415921H144.77L130.626 18.3039L145.29 36.9199H134.422ZM172.24 30.4719H158.616L156.432 36.9199H147.124L160.332 0.415921H170.628L183.836 36.9199H174.424L172.24 30.4719ZM169.952 23.6079L165.428 10.2439L160.956 23.6079H169.952ZM212.088 11.9599C211.429 10.7466 210.476 9.82792 209.228 9.20392C208.015 8.54525 206.576 8.21592 204.912 8.21592C202.035 8.21592 199.729 9.16925 197.996 11.0759C196.263 12.9479 195.396 15.4613 195.396 18.6159C195.396 21.9786 196.297 24.6133 198.1 26.5199C199.937 28.3919 202.451 29.3279 205.64 29.3279C207.824 29.3279 209.661 28.7733 211.152 27.6639C212.677 26.5546 213.787 24.9599 214.48 22.8799H203.196V16.3279H222.54V24.5959C221.881 26.8146 220.755 28.8773 219.16 30.7839C217.6 32.6906 215.607 34.2333 213.18 35.4119C210.753 36.5906 208.015 37.1799 204.964 37.1799C201.359 37.1799 198.135 36.3999 195.292 34.8399C192.484 33.2453 190.283 31.0439 188.688 28.2359C187.128 25.4279 186.348 22.2213 186.348 18.6159C186.348 15.0106 187.128 11.8039 188.688 8.99592C190.283 6.15325 192.484 3.95192 195.292 2.39192C198.1 0.797253 201.307 -8.01086e-05 204.912 -8.01086e-05C209.28 -8.01086e-05 212.955 1.05725 215.936 3.17192C218.952 5.28659 220.945 8.21592 221.916 11.9599H212.088ZM236.357 0.415921V36.9199H227.465V0.415921H236.357ZM275.457 36.9199H266.565L251.693 14.4039V36.9199H242.801V0.415921H251.693L266.565 23.0359V0.415921H275.457V36.9199ZM306.135 11.9599C305.476 10.7466 304.523 9.82792 303.275 9.20392C302.061 8.54525 300.623 8.21592 298.959 8.21592C296.081 8.21592 293.776 9.16925 292.043 11.0759C290.309 12.9479 289.443 15.4613 289.443 18.6159C289.443 21.9786 290.344 24.6133 292.147 26.5199C293.984 28.3919 296.497 29.3279 299.687 29.3279C301.871 29.3279 303.708 28.7733 305.199 27.6639C306.724 26.5546 307.833 24.9599 308.527 22.8799H297.243V16.3279H316.587V24.5959C315.928 26.8146 314.801 28.8773 313.207 30.7839C311.647 32.6906 309.653 34.2333 307.227 35.4119C304.8 36.5906 302.061 37.1799 299.011 37.1799C295.405 37.1799 292.181 36.3999 289.339 34.8399C286.531 33.2453 284.329 31.0439 282.735 28.2359C281.175 25.4279 280.395 22.2213 280.395 18.6159C280.395 15.0106 281.175 11.8039 282.735 8.99592C284.329 6.15325 286.531 3.95192 289.339 2.39192C292.147 0.797253 295.353 -8.01086e-05 298.959 -8.01086e-05C303.327 -8.01086e-05 307.001 1.05725 309.983 3.17192C312.999 5.28659 314.992 8.21592 315.963 11.9599H306.135ZM29.1197 63.4159V70.5399H19.4477V99.9199H10.5557V70.5399H0.883742V63.4159H29.1197ZM65.1984 63.4159V99.9199H56.3064V84.8919H42.4744V99.9199H33.5824V63.4159H42.4744V77.7159H56.3064V63.4159H65.1984ZM94.3416 93.4719H80.7176L78.5336 99.9199H69.2256L82.4336 63.4159H92.7296L105.938 99.9199H96.5256L94.3416 93.4719ZM92.0536 86.6079L87.5296 73.2439L83.0576 86.6079H92.0536ZM136.217 63.4159V70.5399H126.545V99.9199H117.653V70.5399H107.981V63.4159H136.217ZM160.592 70.5399V77.9239H172.5V84.7879H160.592V92.7959H174.06V99.9199H151.7V63.4159H174.06V70.5399H160.592ZM188.724 93.0559H200.372V99.9199H179.832V63.4159H188.724V93.0559ZM213.506 70.5399V77.9239H225.414V84.7879H213.506V92.7959H226.974V99.9199H204.614V63.4159H226.974V70.5399H213.506ZM267.014 63.4159L254.066 99.9199H242.938L229.99 63.4159H239.454L248.502 90.9759L257.602 63.4159H267.014ZM293.455 93.4719H279.831L277.647 99.9199H268.339L281.547 63.4159H291.843L305.051 99.9199H295.639L293.455 93.4719ZM291.167 86.6079L286.643 73.2439L282.171 86.6079H291.167ZM335.331 63.4159V70.5399H325.659V99.9199H316.767V70.5399H307.095V63.4159H335.331ZM348.685 70.5399V77.9239H360.593V84.7879H348.685V92.7959H362.153V99.9199H339.793V63.4159H362.153V70.5399H348.685ZM381.134 100.284C378.465 100.284 376.073 99.8506 373.958 98.9839C371.843 98.1173 370.145 96.8346 368.862 95.1359C367.614 93.4373 366.955 91.3919 366.886 88.9999H376.35C376.489 90.3519 376.957 91.3919 377.754 92.1199C378.551 92.8133 379.591 93.1599 380.874 93.1599C382.191 93.1599 383.231 92.8653 383.994 92.2759C384.757 91.6519 385.138 90.8026 385.138 89.7279C385.138 88.8266 384.826 88.0813 384.202 87.4919C383.613 86.9026 382.867 86.4173 381.966 86.0359C381.099 85.6546 379.851 85.2213 378.222 84.7359C375.865 84.0079 373.941 83.2799 372.45 82.5519C370.959 81.8239 369.677 80.7493 368.602 79.3279C367.527 77.9066 366.99 76.0519 366.99 73.7639C366.99 70.3666 368.221 67.7146 370.682 65.8079C373.143 63.8666 376.35 62.8959 380.302 62.8959C384.323 62.8959 387.565 63.8666 390.026 65.8079C392.487 67.7146 393.805 70.3839 393.978 73.8159H384.358C384.289 72.6373 383.855 71.7186 383.058 71.0599C382.261 70.3666 381.238 70.0199 379.99 70.0199C378.915 70.0199 378.049 70.3146 377.39 70.9039C376.731 71.4586 376.402 72.2733 376.402 73.3479C376.402 74.5266 376.957 75.4453 378.066 76.1039C379.175 76.7626 380.909 77.4733 383.266 78.2359C385.623 79.0333 387.53 79.7959 388.986 80.5239C390.477 81.2519 391.759 82.3093 392.834 83.6959C393.909 85.0826 394.446 86.8679 394.446 89.0519C394.446 91.1319 393.909 93.0213 392.834 94.7199C391.794 96.4186 390.269 97.7706 388.258 98.7759C386.247 99.7813 383.873 100.284 381.134 100.284ZM34.1637 126.416L21.5277 150.856V162.92H12.6357V150.856L-0.000257801 126.416H10.0877L17.1597 141.704L24.1797 126.416H34.1637ZM55.0105 163.284C51.5785 163.284 48.4238 162.487 45.5465 160.892C42.7038 159.297 40.4331 157.079 38.7345 154.236C37.0705 151.359 36.2385 148.135 36.2385 144.564C36.2385 140.993 37.0705 137.787 38.7345 134.944C40.4331 132.101 42.7038 129.883 45.5465 128.288C48.4238 126.693 51.5785 125.896 55.0105 125.896C58.4425 125.896 61.5798 126.693 64.4225 128.288C67.2998 129.883 69.5531 132.101 71.1825 134.944C72.8465 137.787 73.6785 140.993 73.6785 144.564C73.6785 148.135 72.8465 151.359 71.1825 154.236C69.5185 157.079 67.2651 159.297 64.4225 160.892C61.5798 162.487 58.4425 163.284 55.0105 163.284ZM55.0105 155.172C57.9225 155.172 60.2451 154.201 61.9785 152.26C63.7465 150.319 64.6305 147.753 64.6305 144.564C64.6305 141.34 63.7465 138.775 61.9785 136.868C60.2451 134.927 57.9225 133.956 55.0105 133.956C52.0638 133.956 49.7065 134.909 47.9385 136.816C46.2051 138.723 45.3385 141.305 45.3385 144.564C45.3385 147.788 46.2051 150.371 47.9385 152.312C49.7065 154.219 52.0638 155.172 55.0105 155.172ZM87.3614 126.416V148.256C87.3614 150.44 87.8987 152.121 88.9734 153.3C90.048 154.479 91.6254 155.068 93.7054 155.068C95.7854 155.068 97.38 154.479 98.4894 153.3C99.5987 152.121 100.153 150.44 100.153 148.256V126.416H109.045V148.204C109.045 151.463 108.352 154.219 106.965 156.472C105.579 158.725 103.707 160.424 101.349 161.568C99.0267 162.712 96.4267 163.284 93.5494 163.284C90.672 163.284 88.0894 162.729 85.8014 161.62C83.548 160.476 81.7627 158.777 80.4454 156.524C79.128 154.236 78.4694 151.463 78.4694 148.204V126.416H87.3614ZM133.905 162.92L126.313 149.14H124.181V162.92H115.289V126.416H130.213C133.091 126.416 135.535 126.919 137.545 127.924C139.591 128.929 141.116 130.316 142.121 132.084C143.127 133.817 143.629 135.759 143.629 137.908C143.629 140.335 142.936 142.501 141.549 144.408C140.197 146.315 138.187 147.667 135.517 148.464L143.941 162.92H133.905ZM124.181 142.848H129.693C131.323 142.848 132.536 142.449 133.333 141.652C134.165 140.855 134.581 139.728 134.581 138.272C134.581 136.885 134.165 135.793 133.333 134.996C132.536 134.199 131.323 133.8 129.693 133.8H124.181V142.848ZM24.9597 207.2C27.0744 207.651 28.7731 208.708 30.0557 210.372C31.3384 212.001 31.9797 213.873 31.9797 215.988C31.9797 219.039 30.9051 221.465 28.7557 223.268C26.6411 225.036 23.6771 225.92 19.8637 225.92H2.85974V189.416H19.2917C23.0011 189.416 25.8957 190.265 27.9757 191.964C30.0904 193.663 31.1477 195.968 31.1477 198.88C31.1477 201.029 30.5757 202.815 29.4317 204.236C28.3224 205.657 26.8317 206.645 24.9597 207.2ZM11.7517 204.184H17.5757C19.0317 204.184 20.1411 203.872 20.9037 203.248C21.7011 202.589 22.0997 201.636 22.0997 200.388C22.0997 199.14 21.7011 198.187 20.9037 197.528C20.1411 196.869 19.0317 196.54 17.5757 196.54H11.7517V204.184ZM18.3037 218.744C19.7944 218.744 20.9384 218.415 21.7357 217.756C22.5677 217.063 22.9837 216.075 22.9837 214.792C22.9837 213.509 22.5504 212.504 21.6837 211.776C20.8517 211.048 19.6904 210.684 18.1997 210.684H11.7517V218.744H18.3037ZM55.7531 225.92L48.1611 212.14H46.0291V225.92H37.1371V189.416H52.0611C54.9384 189.416 57.3824 189.919 59.3931 190.924C61.4384 191.929 62.9638 193.316 63.9691 195.084C64.9744 196.817 65.4771 198.759 65.4771 200.908C65.4771 203.335 64.7838 205.501 63.3971 207.408C62.0451 209.315 60.0344 210.667 57.3651 211.464L65.7891 225.92H55.7531ZM46.0291 205.848H51.5411C53.1704 205.848 54.3838 205.449 55.1811 204.652C56.0131 203.855 56.4291 202.728 56.4291 201.272C56.4291 199.885 56.0131 198.793 55.1811 197.996C54.3838 197.199 53.1704 196.8 51.5411 196.8H46.0291V205.848ZM93.783 219.472H80.159L77.975 225.92H68.667L81.875 189.416H92.171L105.379 225.92H95.967L93.783 219.472ZM91.495 212.608L86.971 199.244L82.499 212.608H91.495ZM142.055 225.92H133.163L118.291 203.404V225.92H109.399V189.416H118.291L133.163 212.036V189.416H142.055V225.92ZM162.176 189.416C166.024 189.416 169.387 190.179 172.264 191.704C175.142 193.229 177.36 195.379 178.92 198.152C180.515 200.891 181.312 204.063 181.312 207.668C181.312 211.239 180.515 214.411 178.92 217.184C177.36 219.957 175.124 222.107 172.212 223.632C169.335 225.157 165.99 225.92 162.176 225.92H148.5V189.416H162.176ZM161.604 218.224C164.967 218.224 167.584 217.305 169.456 215.468C171.328 213.631 172.264 211.031 172.264 207.668C172.264 204.305 171.328 201.688 169.456 199.816C167.584 197.944 164.967 197.008 161.604 197.008H157.392V218.224H161.604Z" fill="white"/>
</svg>
