<svg width="126" height="37" viewBox="0 0 126 37" fill="none" xmlns="http://www.w3.org/2000/svg">
<path d="M37.7501 13.3987C37.8232 13.3987 37.888 13.4269 37.9444 13.4834L38.4726 14.0564C38.1803 14.4185 37.8199 14.6958 37.3914 14.8885C36.9662 15.0812 36.4546 15.1775 35.8567 15.1775C35.3218 15.1775 34.8402 15.0862 34.4117 14.9035C33.9865 14.7207 33.6227 14.4666 33.3204 14.1411C33.0181 13.8155 32.7856 13.4269 32.6228 12.9751C32.4634 12.5233 32.3837 12.0301 32.3837 11.4952C32.3837 10.9538 32.47 10.4588 32.6428 10.0104C32.8155 9.5586 33.058 9.16994 33.3703 8.8444C33.6858 8.51886 34.0612 8.2664 34.4964 8.08702C34.9315 7.90432 35.4132 7.81297 35.9414 7.81297C36.4662 7.81297 36.9313 7.89934 37.3365 8.07207C37.7451 8.24481 38.0923 8.47069 38.3779 8.74973L37.9295 9.37258C37.9029 9.41244 37.868 9.44732 37.8249 9.47721C37.785 9.50711 37.7285 9.52206 37.6554 9.52206C37.6056 9.52206 37.5541 9.50877 37.501 9.4822C37.4478 9.4523 37.3897 9.41742 37.3266 9.37756C37.2635 9.33437 37.1904 9.28787 37.1073 9.23804C37.0243 9.18821 36.928 9.14337 36.8183 9.10351C36.7087 9.06032 36.5808 9.02544 36.4347 8.99887C36.2918 8.96897 36.1257 8.95402 35.9364 8.95402C35.6142 8.95402 35.3185 9.01216 35.0495 9.12842C34.7837 9.24136 34.5545 9.40746 34.3618 9.6267C34.1692 9.84262 34.0197 10.1084 33.9134 10.4239C33.8071 10.7362 33.7539 11.0933 33.7539 11.4952C33.7539 11.9005 33.8104 12.2609 33.9233 12.5765C34.0396 12.8921 34.1957 13.1578 34.3917 13.3737C34.5877 13.5897 34.8186 13.7558 35.0843 13.872C35.3501 13.985 35.6358 14.0414 35.9414 14.0414C36.1241 14.0414 36.2885 14.0315 36.4347 14.0115C36.5841 13.9916 36.7203 13.96 36.8433 13.9169C36.9695 13.8737 37.0874 13.8189 37.197 13.7524C37.31 13.6827 37.4213 13.598 37.5309 13.4983C37.5641 13.4684 37.599 13.4452 37.6355 13.4286C37.6721 13.4086 37.7103 13.3987 37.7501 13.3987ZM41.8971 12.9153C41.5417 12.9319 41.2427 12.9635 41.0002 13.01C40.7577 13.0532 40.5634 13.1097 40.4172 13.1794C40.2711 13.2492 40.1664 13.3306 40.1033 13.4236C40.0402 13.5166 40.0086 13.6179 40.0086 13.7275C40.0086 13.9434 40.0717 14.0979 40.198 14.1909C40.3275 14.2839 40.4953 14.3304 40.7012 14.3304C40.9537 14.3304 41.1713 14.2856 41.354 14.1959C41.54 14.1029 41.721 13.9634 41.8971 13.7773V12.9153ZM39.0769 10.698C39.6648 10.1599 40.3724 9.89078 41.1995 9.89078C41.4985 9.89078 41.7659 9.94061 42.0017 10.0403C42.2376 10.1366 42.4369 10.2728 42.5997 10.4489C42.7624 10.6216 42.8854 10.8292 42.9684 11.0717C43.0548 11.3142 43.098 11.5799 43.098 11.8689V15.0978H42.5399C42.4236 15.0978 42.3339 15.0812 42.2708 15.048C42.2077 15.0114 42.1579 14.94 42.1213 14.8337L42.0117 14.465C41.8822 14.5812 41.7559 14.6842 41.633 14.7739C41.5101 14.8603 41.3822 14.9333 41.2493 14.9931C41.1165 15.0529 40.9736 15.0978 40.8208 15.1277C40.6713 15.1609 40.5053 15.1775 40.3225 15.1775C40.1066 15.1775 39.9073 15.1493 39.7246 15.0928C39.5419 15.033 39.3841 14.945 39.2513 14.8287C39.1184 14.7124 39.0154 14.5679 38.9423 14.3952C38.8692 14.2225 38.8327 14.0215 38.8327 13.7923C38.8327 13.6627 38.8543 13.5348 38.8975 13.4086C38.9407 13.2791 39.0104 13.1562 39.1068 13.0399C39.2064 12.9236 39.3343 12.814 39.4904 12.711C39.6466 12.6081 39.8376 12.5184 40.0634 12.442C40.2927 12.3656 40.5584 12.3041 40.8607 12.2576C41.163 12.2078 41.5084 12.1779 41.8971 12.1679V11.8689C41.8971 11.5268 41.824 11.2743 41.6779 11.1116C41.5317 10.9455 41.3208 10.8624 41.0451 10.8624C40.8457 10.8624 40.6796 10.8857 40.5468 10.9322C40.4172 10.9787 40.3026 11.0318 40.203 11.0916C40.1033 11.1481 40.012 11.1996 39.9289 11.2461C39.8492 11.2926 39.7595 11.3159 39.6598 11.3159C39.5735 11.3159 39.5004 11.2943 39.4406 11.2511C39.3808 11.2046 39.3326 11.1514 39.2961 11.0916L39.0769 10.698ZM45.4181 10.8724C45.5775 10.5668 45.7668 10.3276 45.9861 10.1549C46.2053 9.97881 46.4644 9.89078 46.7634 9.89078C46.9993 9.89078 47.1886 9.94227 47.3314 10.0452L47.2517 10.9671C47.2351 11.0269 47.2102 11.07 47.177 11.0966C47.1471 11.1199 47.1056 11.1315 47.0524 11.1315C47.0026 11.1315 46.9278 11.1232 46.8282 11.1066C46.7318 11.09 46.6372 11.0817 46.5442 11.0817C46.408 11.0817 46.2867 11.1016 46.1804 11.1415C46.0741 11.1813 45.9778 11.2395 45.8914 11.3159C45.8084 11.3889 45.7336 11.4786 45.6672 11.5849C45.6041 11.6912 45.5443 11.8125 45.4878 11.9487V15.0978H44.2571V9.98546H44.9796C45.1058 9.98546 45.1938 10.0087 45.2437 10.0552C45.2935 10.0984 45.3267 10.1781 45.3433 10.2944L45.4181 10.8724ZM49.6788 15.1775C49.2337 15.1775 48.8915 15.0529 48.6523 14.8038C48.4165 14.5513 48.2986 14.2042 48.2986 13.7624V10.9073H47.7754C47.7089 10.9073 47.6525 10.8857 47.606 10.8425C47.5595 10.7993 47.5362 10.7345 47.5362 10.6482V10.1599L48.3584 10.0253L48.6175 8.63014C48.6341 8.56371 48.6656 8.51222 48.7121 8.47568C48.7586 8.43914 48.8184 8.42087 48.8915 8.42087H49.5293V10.0303H50.8946V10.9073H49.5293V13.6777C49.5293 13.8371 49.5675 13.9617 49.6439 14.0514C49.7236 14.1411 49.8316 14.1859 49.9678 14.1859C50.0442 14.1859 50.1073 14.1776 50.1571 14.161C50.2103 14.1411 50.2551 14.1212 50.2917 14.1012C50.3315 14.0813 50.3664 14.063 50.3963 14.0464C50.4262 14.0265 50.4561 14.0165 50.486 14.0165C50.5225 14.0165 50.5524 14.0265 50.5757 14.0464C50.5989 14.063 50.6239 14.0896 50.6504 14.1261L51.0192 14.7241C50.8398 14.8736 50.6338 14.9865 50.4013 15.0629C50.1688 15.1393 49.9279 15.1775 49.6788 15.1775ZM53.9058 9.90573C54.2845 9.90573 54.6283 9.96719 54.9372 10.0901C55.2495 10.213 55.5152 10.3874 55.7345 10.6133C55.9571 10.8392 56.1281 11.1149 56.2477 11.4404C56.3673 11.766 56.4271 12.1297 56.4271 12.5317C56.4271 12.9369 56.3673 13.3023 56.2477 13.6279C56.1281 13.9534 55.9571 14.2308 55.7345 14.46C55.5152 14.6892 55.2495 14.8652 54.9372 14.9882C54.6283 15.1111 54.2845 15.1725 53.9058 15.1725C53.5238 15.1725 53.1767 15.1111 52.8644 14.9882C52.5522 14.8652 52.2848 14.6892 52.0622 14.46C51.8429 14.2308 51.6719 13.9534 51.549 13.6279C51.4294 13.3023 51.3696 12.9369 51.3696 12.5317C51.3696 12.1297 51.4294 11.766 51.549 11.4404C51.6719 11.1149 51.8429 10.8392 52.0622 10.6133C52.2848 10.3874 52.5522 10.213 52.8644 10.0901C53.1767 9.96719 53.5238 9.90573 53.9058 9.90573ZM53.9058 14.2258C54.331 14.2258 54.6449 14.083 54.8476 13.7973C55.0535 13.5116 55.1565 13.093 55.1565 12.5416C55.1565 11.9902 55.0535 11.57 54.8476 11.281C54.6449 10.992 54.331 10.8475 53.9058 10.8475C53.474 10.8475 53.1534 10.9936 52.9441 11.286C52.7382 11.575 52.6352 11.9935 52.6352 12.5416C52.6352 13.0897 52.7382 13.5083 52.9441 13.7973C53.1534 14.083 53.474 14.2258 53.9058 14.2258ZM58.5171 10.6133C58.62 10.5103 58.728 10.4156 58.8409 10.3293C58.9572 10.2396 59.0784 10.1648 59.2047 10.105C59.3342 10.0419 59.4721 9.99376 59.6182 9.96054C59.7644 9.924 59.9239 9.90573 60.0966 9.90573C60.3756 9.90573 60.6231 9.9539 60.839 10.0502C61.0549 10.1432 61.2343 10.2761 61.3772 10.4489C61.5233 10.6183 61.6329 10.8226 61.706 11.0617C61.7824 11.2976 61.8206 11.5584 61.8206 11.844V15.0978H60.5899V11.844C60.5899 11.5318 60.5185 11.2909 60.3756 11.1215C60.2328 10.9488 60.0152 10.8624 59.7229 10.8624C59.5103 10.8624 59.311 10.9106 59.125 11.0069C58.9389 11.1033 58.7629 11.2345 58.5968 11.4006V15.0978H57.366V9.98546H58.1184C58.2779 9.98546 58.3825 10.0602 58.4323 10.2097L58.5171 10.6133ZM69.4454 9.20316C69.4056 9.27292 69.3624 9.32441 69.3159 9.35763C69.2727 9.38752 69.2179 9.40247 69.1515 9.40247C69.0817 9.40247 69.0053 9.37756 68.9222 9.32773C68.8425 9.27458 68.7462 9.21645 68.6332 9.15333C68.5203 9.09022 68.3874 9.03375 68.2346 8.98392C68.0851 8.93077 67.9074 8.9042 67.7015 8.9042C67.5154 8.9042 67.3527 8.92745 67.2132 8.97395C67.0736 9.01714 66.9557 9.07859 66.8594 9.15832C66.7664 9.23804 66.6966 9.33437 66.6501 9.44732C66.6036 9.55694 66.5803 9.67819 66.5803 9.81106C66.5803 9.98047 66.6268 10.1217 66.7199 10.2346C66.8162 10.3475 66.9424 10.4439 67.0986 10.5236C67.2547 10.6033 67.4324 10.6747 67.6317 10.7379C67.831 10.801 68.0353 10.8691 68.2446 10.9421C68.4539 11.0119 68.6582 11.095 68.8575 11.1913C69.0568 11.2843 69.2345 11.4039 69.3906 11.55C69.5468 11.6929 69.6713 11.8689 69.7643 12.0782C69.8607 12.2875 69.9088 12.5416 69.9088 12.8406C69.9088 13.1661 69.8524 13.4717 69.7394 13.7574C69.6298 14.0398 69.467 14.2872 69.2511 14.4998C69.0385 14.7091 68.7777 14.8752 68.4688 14.9981C68.1599 15.1177 67.8061 15.1775 67.4075 15.1775C67.1783 15.1775 66.9524 15.1542 66.7298 15.1077C66.5073 15.0646 66.293 15.0014 66.087 14.9184C65.8844 14.8354 65.6934 14.7357 65.514 14.6194C65.3347 14.5032 65.1752 14.3736 65.0357 14.2308L65.4293 13.588C65.4625 13.5415 65.5057 13.5033 65.5589 13.4734C65.612 13.4402 65.6685 13.4236 65.7283 13.4236C65.8113 13.4236 65.901 13.4584 65.9974 13.5282C66.0937 13.5946 66.2083 13.6694 66.3412 13.7524C66.474 13.8355 66.6285 13.9119 66.8046 13.9816C66.9839 14.0481 67.1982 14.0813 67.4473 14.0813C67.8294 14.0813 68.125 13.9916 68.3343 13.8122C68.5436 13.6295 68.6482 13.3688 68.6482 13.0299C68.6482 12.8406 68.6 12.6861 68.5037 12.5665C68.4107 12.4469 68.2861 12.3473 68.13 12.2676C67.9739 12.1845 67.7961 12.1148 67.5968 12.0583C67.3975 12.0018 67.1949 11.9404 66.9889 11.8739C66.783 11.8075 66.5803 11.7278 66.381 11.6348C66.1817 11.5417 66.004 11.4205 65.8479 11.271C65.6917 11.1215 65.5655 10.9355 65.4692 10.7129C65.3762 10.4871 65.3297 10.2097 65.3297 9.88082C65.3297 9.61839 65.3812 9.36261 65.4841 9.11347C65.5904 8.86433 65.7432 8.64343 65.9425 8.45076C66.1419 8.2581 66.3877 8.10363 66.68 7.98737C66.9723 7.8711 67.3078 7.81297 67.6865 7.81297C68.1117 7.81297 68.5037 7.87941 68.8625 8.01228C69.2212 8.14515 69.5268 8.33118 69.7793 8.57035L69.4454 9.20316ZM72.1399 9.98546V15.0978H70.9041V9.98546H72.1399ZM72.3093 8.49561C72.3093 8.60191 72.2877 8.70156 72.2445 8.79457C72.2013 8.88759 72.1432 8.96897 72.0701 9.03873C72.0004 9.10849 71.9173 9.16496 71.821 9.20814C71.7246 9.24801 71.6217 9.26794 71.512 9.26794C71.4057 9.26794 71.3044 9.24801 71.2081 9.20814C71.1151 9.16496 71.0337 9.10849 70.9639 9.03873C70.8942 8.96897 70.8377 8.88759 70.7945 8.79457C70.7547 8.70156 70.7347 8.60191 70.7347 8.49561C70.7347 8.38599 70.7547 8.28301 70.7945 8.18668C70.8377 8.09034 70.8942 8.0073 70.9639 7.93754C71.0337 7.86778 71.1151 7.81297 71.2081 7.77311C71.3044 7.72992 71.4057 7.70833 71.512 7.70833C71.6217 7.70833 71.7246 7.72992 71.821 7.77311C71.9173 7.81297 72.0004 7.86778 72.0701 7.93754C72.1432 8.0073 72.2013 8.09034 72.2445 8.18668C72.2877 8.28301 72.3093 8.38599 72.3093 8.49561ZM77.0669 10.4937C77.0669 10.5801 77.0519 10.6648 77.022 10.7478C76.9922 10.8309 76.9523 10.899 76.9025 10.9521L74.4759 14.1511H76.9922V15.0978H73.0458V14.5846C73.0458 14.5281 73.0591 14.4616 73.0857 14.3852C73.1122 14.3055 73.1521 14.2308 73.2052 14.161L75.6568 10.9272H73.1903V9.98546H77.0669V10.4937ZM81.1844 11.9537C81.1844 11.7942 81.1611 11.6447 81.1146 11.5052C81.0714 11.3624 81.005 11.2378 80.9153 11.1315C80.8256 11.0252 80.711 10.9421 80.5715 10.8824C80.4353 10.8192 80.2758 10.7877 80.0931 10.7877C79.7377 10.7877 79.457 10.889 79.2511 11.0916C79.0484 11.2943 78.9189 11.5816 78.8624 11.9537H81.1844ZM78.8375 12.6961C78.8574 12.9585 78.9039 13.1861 78.977 13.3787C79.0501 13.5681 79.1464 13.7259 79.266 13.8521C79.3856 13.975 79.5268 14.068 79.6895 14.1311C79.8556 14.1909 80.0383 14.2208 80.2376 14.2208C80.437 14.2208 80.608 14.1976 80.7509 14.1511C80.897 14.1045 81.0233 14.0531 81.1296 13.9966C81.2392 13.9401 81.3339 13.8886 81.4136 13.8421C81.4966 13.7956 81.5764 13.7724 81.6528 13.7724C81.7557 13.7724 81.8321 13.8106 81.882 13.887L82.2357 14.3354C82.0995 14.4949 81.9467 14.6294 81.7773 14.739C81.6079 14.8453 81.4302 14.9317 81.2442 14.9981C81.0615 15.0612 80.8738 15.1061 80.6811 15.1327C80.4918 15.1592 80.3074 15.1725 80.128 15.1725C79.7726 15.1725 79.4421 15.1144 79.1365 14.9981C78.8308 14.8785 78.5651 14.7041 78.3392 14.4749C78.1133 14.2424 77.9356 13.9567 77.8061 13.6179C77.6765 13.2757 77.6117 12.8804 77.6117 12.432C77.6117 12.0832 77.6682 11.756 77.7811 11.4504C77.8941 11.1415 78.0552 10.8741 78.2645 10.6482C78.4771 10.419 78.7345 10.2379 79.0368 10.105C79.3424 9.97217 79.6862 9.90573 80.0682 9.90573C80.3905 9.90573 80.6878 9.95722 80.9601 10.0602C81.2325 10.1632 81.4667 10.3143 81.6627 10.5136C81.8587 10.7096 82.0115 10.9521 82.1211 11.2411C82.2341 11.5268 82.2905 11.854 82.2905 12.2227C82.2905 12.4087 82.2706 12.535 82.2308 12.6014C82.1909 12.6645 82.1145 12.6961 82.0015 12.6961H78.8375Z" fill="white"/>
<path d="M3.72 23.9943C3.60267 23.4023 3.23733 23.1063 2.624 23.1063C2.14933 23.1063 1.79467 23.2903 1.56 23.6583C1.32533 24.021 1.21067 24.621 1.216 25.4583C1.33867 25.181 1.54133 24.965 1.824 24.8103C2.112 24.6503 2.432 24.5703 2.784 24.5703C3.33333 24.5703 3.77067 24.741 4.096 25.0823C4.42667 25.4237 4.592 25.8957 4.592 26.4983C4.592 26.861 4.52 27.1863 4.376 27.4743C4.23733 27.7623 4.024 27.9917 3.736 28.1623C3.45333 28.333 3.10933 28.4183 2.704 28.4183C2.15467 28.4183 1.72533 28.2957 1.416 28.0503C1.10667 27.805 0.890667 27.4663 0.768 27.0343C0.645333 26.6023 0.584 26.069 0.584 25.4343C0.584 23.477 1.26667 22.4983 2.632 22.4983C3.15467 22.4983 3.56533 22.6397 3.864 22.9223C4.16267 23.205 4.33867 23.5623 4.392 23.9943H3.72ZM2.632 25.1863C2.40267 25.1863 2.18667 25.2343 1.984 25.3303C1.78133 25.421 1.616 25.5623 1.488 25.7543C1.36533 25.941 1.304 26.1703 1.304 26.4423C1.304 26.8477 1.42133 27.1783 1.656 27.4343C1.89067 27.685 2.22667 27.8103 2.664 27.8103C3.03733 27.8103 3.33333 27.6957 3.552 27.4663C3.776 27.2317 3.888 26.917 3.888 26.5223C3.888 26.1063 3.78133 25.781 3.568 25.5463C3.35467 25.3063 3.04267 25.1863 2.632 25.1863ZM9.26213 23.2503H6.45413V25.0743C6.57679 24.9037 6.75813 24.765 6.99813 24.6583C7.23813 24.5463 7.49679 24.4903 7.77413 24.4903C8.21679 24.4903 8.57679 24.5837 8.85413 24.7703C9.13146 24.9517 9.32879 25.189 9.44613 25.4823C9.56879 25.7703 9.63013 26.077 9.63013 26.4023C9.63013 26.7863 9.55813 27.1303 9.41413 27.4343C9.27013 27.7383 9.04879 27.9783 8.75013 28.1543C8.45679 28.3303 8.09146 28.4183 7.65413 28.4183C7.09413 28.4183 6.64079 28.2743 6.29413 27.9863C5.94746 27.6983 5.73679 27.3143 5.66213 26.8343H6.37413C6.44346 27.1383 6.59013 27.3757 6.81413 27.5463C7.03813 27.717 7.32079 27.8023 7.66213 27.8023C8.08346 27.8023 8.40079 27.677 8.61413 27.4263C8.82746 27.1703 8.93413 26.8343 8.93413 26.4183C8.93413 26.0023 8.82746 25.6823 8.61413 25.4583C8.40079 25.229 8.08613 25.1143 7.67013 25.1143C7.38746 25.1143 7.13946 25.1837 6.92613 25.3223C6.71813 25.4557 6.56613 25.6397 6.47013 25.8743H5.78213V22.6103H9.26213V23.2503ZM10.5976 25.4503C10.5976 24.533 10.7469 23.8183 11.0456 23.3063C11.3442 22.789 11.8669 22.5303 12.6136 22.5303C13.3549 22.5303 13.8749 22.789 14.1736 23.3063C14.4722 23.8183 14.6216 24.533 14.6216 25.4503C14.6216 26.3837 14.4722 27.109 14.1736 27.6263C13.8749 28.1437 13.3549 28.4023 12.6136 28.4023C11.8669 28.4023 11.3442 28.1437 11.0456 27.6263C10.7469 27.109 10.5976 26.3837 10.5976 25.4503ZM13.9016 25.4503C13.9016 24.9863 13.8696 24.5943 13.8056 24.2743C13.7469 23.949 13.6216 23.6877 13.4296 23.4903C13.2429 23.293 12.9709 23.1943 12.6136 23.1943C12.2509 23.1943 11.9736 23.293 11.7816 23.4903C11.5949 23.6877 11.4696 23.949 11.4056 24.2743C11.3469 24.5943 11.3176 24.9863 11.3176 25.4503C11.3176 25.9303 11.3469 26.333 11.4056 26.6583C11.4696 26.9837 11.5949 27.245 11.7816 27.4423C11.9736 27.6397 12.2509 27.7383 12.6136 27.7383C12.9709 27.7383 13.2429 27.6397 13.4296 27.4423C13.6216 27.245 13.7469 26.9837 13.8056 26.6583C13.8696 26.333 13.9016 25.9303 13.9016 25.4503ZM21.1058 27.2023L19.8338 25.9303L18.5618 27.2023L18.0818 26.7223L19.3538 25.4503L18.1058 24.2023L18.5698 23.7303L19.8258 24.9863L21.0818 23.7303L21.5618 24.2103L20.3058 25.4663L21.5698 26.7383L21.1058 27.2023ZM24.8513 27.1143V26.5623L27.6593 22.6743H28.5312V26.4823H29.3313V27.1143H28.5312V28.4023H27.8113V27.1143H24.8513ZM27.8433 23.4343L25.6913 26.4823H27.8433V23.4343ZM33.7465 23.2503H30.9385V25.0743C31.0612 24.9037 31.2425 24.765 31.4825 24.6583C31.7225 24.5463 31.9812 24.4903 32.2585 24.4903C32.7012 24.4903 33.0612 24.5837 33.3385 24.7703C33.6158 24.9517 33.8132 25.189 33.9305 25.4823C34.0532 25.7703 34.1145 26.077 34.1145 26.4023C34.1145 26.7863 34.0425 27.1303 33.8985 27.4343C33.7545 27.7383 33.5332 27.9783 33.2345 28.1543C32.9412 28.3303 32.5758 28.4183 32.1385 28.4183C31.5785 28.4183 31.1252 28.2743 30.7785 27.9863C30.4318 27.6983 30.2212 27.3143 30.1465 26.8343H30.8585C30.9278 27.1383 31.0745 27.3757 31.2985 27.5463C31.5225 27.717 31.8052 27.8023 32.1465 27.8023C32.5678 27.8023 32.8852 27.677 33.0985 27.4263C33.3118 27.1703 33.4185 26.8343 33.4185 26.4183C33.4185 26.0023 33.3118 25.6823 33.0985 25.4583C32.8852 25.229 32.5705 25.1143 32.1545 25.1143C31.8718 25.1143 31.6238 25.1837 31.4105 25.3223C31.2025 25.4557 31.0505 25.6397 30.9545 25.8743H30.2665V22.6103H33.7465V23.2503ZM35.0819 25.4503C35.0819 24.533 35.2313 23.8183 35.5299 23.3063C35.8286 22.789 36.3513 22.5303 37.0979 22.5303C37.8393 22.5303 38.3593 22.789 38.6579 23.3063C38.9566 23.8183 39.1059 24.533 39.1059 25.4503C39.1059 26.3837 38.9566 27.109 38.6579 27.6263C38.3593 28.1437 37.8393 28.4023 37.0979 28.4023C36.3513 28.4023 35.8286 28.1437 35.5299 27.6263C35.2313 27.109 35.0819 26.3837 35.0819 25.4503ZM38.3859 25.4503C38.3859 24.9863 38.3539 24.5943 38.2899 24.2743C38.2313 23.949 38.1059 23.6877 37.9139 23.4903C37.7273 23.293 37.4553 23.1943 37.0979 23.1943C36.7353 23.1943 36.4579 23.293 36.2659 23.4903C36.0793 23.6877 35.9539 23.949 35.8899 24.2743C35.8313 24.5943 35.8019 24.9863 35.8019 25.4503C35.8019 25.9303 35.8313 26.333 35.8899 26.6583C35.9539 26.9837 36.0793 27.245 36.2659 27.4423C36.4579 27.6397 36.7353 27.7383 37.0979 27.7383C37.4553 27.7383 37.7273 27.6397 37.9139 27.4423C38.1059 27.245 38.2313 26.9837 38.2899 26.6583C38.3539 26.333 38.3859 25.9303 38.3859 25.4503ZM45.5902 27.2023L44.3182 25.9303L43.0462 27.2023L42.5662 26.7223L43.8382 25.4503L42.5902 24.2023L43.0542 23.7303L44.3102 24.9863L45.5662 23.7303L46.0462 24.2103L44.7902 25.4663L46.0542 26.7383L45.5902 27.2023ZM53.1996 23.2503H50.3916V25.0743C50.5143 24.9037 50.6956 24.765 50.9356 24.6583C51.1756 24.5463 51.4343 24.4903 51.7116 24.4903C52.1543 24.4903 52.5143 24.5837 52.7916 24.7703C53.069 24.9517 53.2663 25.189 53.3836 25.4823C53.5063 25.7703 53.5676 26.077 53.5676 26.4023C53.5676 26.7863 53.4956 27.1303 53.3516 27.4343C53.2076 27.7383 52.9863 27.9783 52.6876 28.1543C52.3943 28.3303 52.029 28.4183 51.5916 28.4183C51.0316 28.4183 50.5783 28.2743 50.2316 27.9863C49.885 27.6983 49.6743 27.3143 49.5996 26.8343H50.3116C50.381 27.1383 50.5276 27.3757 50.7516 27.5463C50.9756 27.717 51.2583 27.8023 51.5996 27.8023C52.021 27.8023 52.3383 27.677 52.5516 27.4263C52.765 27.1703 52.8716 26.8343 52.8716 26.4183C52.8716 26.0023 52.765 25.6823 52.5516 25.4583C52.3383 25.229 52.0236 25.1143 51.6076 25.1143C51.325 25.1143 51.077 25.1837 50.8636 25.3223C50.6556 25.4557 50.5036 25.6397 50.4076 25.8743H49.7196V22.6103H53.1996V23.2503ZM55.4711 26.8503C55.5244 27.1543 55.6471 27.389 55.8391 27.5543C56.0364 27.7197 56.3004 27.8023 56.6311 27.8023C57.0737 27.8023 57.3991 27.629 57.6071 27.2823C57.8204 26.9357 57.9217 26.3517 57.9111 25.5303C57.7991 25.7703 57.6124 25.9597 57.3511 26.0983C57.0897 26.2317 56.7991 26.2983 56.4791 26.2983C56.1217 26.2983 55.8017 26.2263 55.5191 26.0823C55.2417 25.933 55.0231 25.717 54.8631 25.4343C54.7031 25.1517 54.6231 24.8103 54.6231 24.4103C54.6231 23.8397 54.7884 23.381 55.1191 23.0343C55.4497 22.6823 55.9191 22.5063 56.5271 22.5063C57.2737 22.5063 57.7964 22.749 58.0951 23.2343C58.3991 23.7197 58.5511 24.4423 58.5511 25.4023C58.5511 26.0743 58.4897 26.629 58.3671 27.0663C58.2497 27.5037 58.0471 27.837 57.7591 28.0663C57.4764 28.2957 57.0871 28.4103 56.5911 28.4103C56.0471 28.4103 55.6231 28.2637 55.3191 27.9703C55.0151 27.677 54.8417 27.3037 54.7991 26.8503H55.4711ZM56.5991 25.6823C56.9564 25.6823 57.2497 25.573 57.4791 25.3543C57.7084 25.1303 57.8231 24.829 57.8231 24.4503C57.8231 24.0503 57.7111 23.7277 57.4871 23.4823C57.2631 23.237 56.9484 23.1143 56.5431 23.1143C56.1697 23.1143 55.8711 23.2317 55.6471 23.4663C55.4284 23.701 55.3191 24.0103 55.3191 24.3943C55.3191 24.7837 55.4284 25.0957 55.6471 25.3303C55.8657 25.565 56.1831 25.6823 56.5991 25.6823ZM59.5741 25.4503C59.5741 24.533 59.7235 23.8183 60.0221 23.3063C60.3208 22.789 60.8435 22.5303 61.5901 22.5303C62.3315 22.5303 62.8515 22.789 63.1501 23.3063C63.4488 23.8183 63.5981 24.533 63.5981 25.4503C63.5981 26.3837 63.4488 27.109 63.1501 27.6263C62.8515 28.1437 62.3315 28.4023 61.5901 28.4023C60.8435 28.4023 60.3208 28.1437 60.0221 27.6263C59.7235 27.109 59.5741 26.3837 59.5741 25.4503ZM62.8781 25.4503C62.8781 24.9863 62.8461 24.5943 62.7821 24.2743C62.7235 23.949 62.5981 23.6877 62.4061 23.4903C62.2195 23.293 61.9475 23.1943 61.5901 23.1943C61.2275 23.1943 60.9501 23.293 60.7581 23.4903C60.5715 23.6877 60.4461 23.949 60.3821 24.2743C60.3235 24.5943 60.2941 24.9863 60.2941 25.4503C60.2941 25.9303 60.3235 26.333 60.3821 26.6583C60.4461 26.9837 60.5715 27.245 60.7581 27.4423C60.9501 27.6397 61.2275 27.7383 61.5901 27.7383C61.9475 27.7383 62.2195 27.6397 62.4061 27.4423C62.5981 27.245 62.7235 26.9837 62.7821 26.6583C62.8461 26.333 62.8781 25.9303 62.8781 25.4503ZM72.1224 23.9383C72.4637 23.9383 72.7677 24.0103 73.0344 24.1543C73.301 24.293 73.5117 24.5037 73.6664 24.7863C73.821 25.069 73.8984 25.413 73.8984 25.8183V28.4023H73.1784V25.9223C73.1784 25.485 73.069 25.1517 72.8504 24.9223C72.637 24.6877 72.3464 24.5703 71.9784 24.5703C71.5997 24.5703 71.2984 24.693 71.0744 24.9383C70.8504 25.1783 70.7384 25.5277 70.7384 25.9863V28.4023H70.0184V25.9223C70.0184 25.485 69.909 25.1517 69.6904 24.9223C69.477 24.6877 69.1864 24.5703 68.8184 24.5703C68.4397 24.5703 68.1384 24.693 67.9144 24.9383C67.6904 25.1783 67.5784 25.5277 67.5784 25.9863V28.4023H66.8504V24.0183H67.5784V24.6503C67.7224 24.421 67.9144 24.245 68.1544 24.1223C68.3997 23.9997 68.669 23.9383 68.9624 23.9383C69.3304 23.9383 69.6557 24.021 69.9384 24.1863C70.221 24.3517 70.4317 24.5943 70.5704 24.9143C70.693 24.605 70.8957 24.365 71.1784 24.1943C71.461 24.0237 71.7757 23.9383 72.1224 23.9383ZM80.3646 23.9383C80.7059 23.9383 81.0099 24.0103 81.2766 24.1543C81.5432 24.293 81.7539 24.5037 81.9086 24.7863C82.0632 25.069 82.1406 25.413 82.1406 25.8183V28.4023H81.4206V25.9223C81.4206 25.485 81.3112 25.1517 81.0926 24.9223C80.8792 24.6877 80.5886 24.5703 80.2206 24.5703C79.8419 24.5703 79.5406 24.693 79.3166 24.9383C79.0926 25.1783 78.9806 25.5277 78.9806 25.9863V28.4023H78.2606V25.9223C78.2606 25.485 78.1512 25.1517 77.9326 24.9223C77.7192 24.6877 77.4286 24.5703 77.0606 24.5703C76.6819 24.5703 76.3806 24.693 76.1566 24.9383C75.9326 25.1783 75.8206 25.5277 75.8206 25.9863V28.4023H75.0926V24.0183H75.8206V24.6503C75.9646 24.421 76.1566 24.245 76.3966 24.1223C76.6419 23.9997 76.9112 23.9383 77.2046 23.9383C77.5726 23.9383 77.8979 24.021 78.1806 24.1863C78.4632 24.3517 78.6739 24.5943 78.8126 24.9143C78.9352 24.605 79.1379 24.365 79.4206 24.1943C79.7032 24.0237 80.0179 23.9383 80.3646 23.9383Z" fill="white"/>
<rect x="89" width="36.5" height="36.5" rx="18.25" fill="white"/>
<path fill-rule="evenodd" clip-rule="evenodd" d="M116.336 19.2571H98.164L100.043 21.1356C100.136 21.2284 100.21 21.3387 100.26 21.46C100.31 21.5814 100.336 21.7115 100.336 21.8428C100.336 21.9742 100.31 22.1042 100.26 22.2256C100.21 22.3469 100.136 22.4572 100.043 22.5501C99.9501 22.6429 99.8399 22.7166 99.7185 22.7669C99.5972 22.8171 99.4671 22.843 99.3358 22.843C99.2044 22.843 99.0743 22.8171 98.953 22.7669C98.8316 22.7166 98.7214 22.6429 98.6285 22.5501L95.0935 19.0146L95.0685 18.9886C94.9681 18.895 94.8879 18.7818 94.8331 18.6559C94.7783 18.5301 94.75 18.3943 94.75 18.2571C94.75 18.0106 94.839 17.7846 94.987 17.6106C95.0187 17.5666 95.054 17.5249 95.093 17.4856L98.6285 13.9506C98.816 13.763 99.0703 13.6576 99.3356 13.6575C99.6008 13.6575 99.8552 13.7628 100.043 13.9503C100.23 14.1378 100.336 14.3922 100.336 14.6574C100.336 14.9226 100.231 15.177 100.043 15.3646L98.15 17.2571H116.349L114.456 15.3646C114.364 15.2717 114.29 15.1614 114.24 15.0401C114.189 14.9187 114.164 14.7887 114.164 14.6573C114.164 14.526 114.189 14.3959 114.24 14.2745C114.29 14.1532 114.364 14.0429 114.456 13.9501C114.644 13.7625 114.898 13.6571 115.164 13.6571C115.295 13.6571 115.425 13.683 115.547 13.7332C115.668 13.7835 115.778 13.8572 115.871 13.9501L119.406 17.4856C119.446 17.5249 119.482 17.5666 119.513 17.6106C119.661 17.7846 119.75 18.0106 119.75 18.2571C119.75 18.5461 119.627 18.8061 119.431 18.9886L119.406 19.0146L115.871 22.5496C115.683 22.7371 115.429 22.8425 115.164 22.8426C114.899 22.8426 114.644 22.7373 114.457 22.5498C114.269 22.3623 114.164 22.108 114.164 21.8427C114.164 21.5775 114.269 21.3231 114.456 21.1356L116.336 19.2571Z" fill="#DE5A84"/>
</svg>
