<svg width="113" height="37" viewBox="0 0 113 37" fill="none" xmlns="http://www.w3.org/2000/svg">
<rect width="36.5" height="36.5" rx="18.25" fill="white"/>
<path d="M16.4163 20.9975V18.2475M20.083 20.9975V18.2475M23.7497 20.9975V18.2475M9.08301 14.5809V10.9142M27.4163 12.7475H9.08301M27.4163 14.5809V10.9142M12.7497 20.9975V18.2475" stroke="#DE5A84" stroke-width="2.06182" stroke-linecap="round" stroke-linejoin="round"/>
<path d="M25.583 18.248H10.9163C9.90382 18.248 9.08301 19.0689 9.08301 20.0814V23.748C9.08301 24.7606 9.90382 25.5814 10.9163 25.5814H25.583C26.5955 25.5814 27.4163 24.7606 27.4163 23.748V20.0814C27.4163 19.0689 26.5955 18.248 25.583 18.248Z" stroke="#DE5A84" stroke-width="2.06182" stroke-linecap="round" stroke-linejoin="round"/>
<path d="M49.725 11.4828C49.725 12.0128 49.6367 12.4994 49.46 12.9428C49.2833 13.3861 49.035 13.7678 48.715 14.0878C48.395 14.4078 48.01 14.6561 47.56 14.8328C47.11 15.0094 46.61 15.0978 46.06 15.0978H43.305V7.86778H46.06C46.61 7.86778 47.11 7.95778 47.56 8.13778C48.01 8.31444 48.395 8.56278 48.715 8.88278C49.035 9.19944 49.2833 9.57944 49.46 10.0228C49.6367 10.4661 49.725 10.9528 49.725 11.4828ZM48.345 11.4828C48.345 11.0861 48.2917 10.7311 48.185 10.4178C48.0817 10.1011 47.93 9.83444 47.73 9.61778C47.5333 9.39778 47.2933 9.22944 47.01 9.11278C46.73 8.99611 46.4133 8.93778 46.06 8.93778H44.655V14.0278H46.06C46.4133 14.0278 46.73 13.9694 47.01 13.8528C47.2933 13.7361 47.5333 13.5694 47.73 13.3528C47.93 13.1328 48.0817 12.8661 48.185 12.5528C48.2917 12.2361 48.345 11.8794 48.345 11.4828ZM51.9095 9.96778V15.0978H50.6695V9.96778H51.9095ZM52.0795 8.47278C52.0795 8.57944 52.0579 8.67944 52.0145 8.77278C51.9712 8.86611 51.9129 8.94778 51.8395 9.01778C51.7695 9.08778 51.6862 9.14444 51.5895 9.18778C51.4929 9.22778 51.3895 9.24778 51.2795 9.24778C51.1729 9.24778 51.0712 9.22778 50.9745 9.18778C50.8812 9.14444 50.7995 9.08778 50.7295 9.01778C50.6595 8.94778 50.6029 8.86611 50.5595 8.77278C50.5195 8.67944 50.4995 8.57944 50.4995 8.47278C50.4995 8.36278 50.5195 8.25944 50.5595 8.16278C50.6029 8.06611 50.6595 7.98278 50.7295 7.91278C50.7995 7.84278 50.8812 7.78778 50.9745 7.74778C51.0712 7.70444 51.1729 7.68278 51.2795 7.68278C51.3895 7.68278 51.4929 7.70444 51.5895 7.74778C51.6862 7.78778 51.7695 7.84278 51.8395 7.91278C51.9129 7.98278 51.9712 8.06611 52.0145 8.16278C52.0579 8.25944 52.0795 8.36278 52.0795 8.47278ZM53.1686 15.0978V9.96778H53.9236C54.0836 9.96778 54.1886 10.0428 54.2386 10.1928L54.3186 10.5728C54.4086 10.4728 54.5019 10.3811 54.5986 10.2978C54.6986 10.2144 54.8036 10.1428 54.9136 10.0828C55.0269 10.0228 55.1469 9.97611 55.2736 9.94278C55.4036 9.90611 55.5453 9.88778 55.6986 9.88778C56.0219 9.88778 56.2869 9.97611 56.4936 10.1528C56.7036 10.3261 56.8603 10.5578 56.9636 10.8478C57.0436 10.6778 57.1436 10.5328 57.2636 10.4128C57.3836 10.2894 57.5153 10.1894 57.6586 10.1128C57.8019 10.0361 57.9536 9.97944 58.1136 9.94278C58.2769 9.90611 58.4403 9.88778 58.6036 9.88778C58.8869 9.88778 59.1386 9.93111 59.3586 10.0178C59.5786 10.1044 59.7636 10.2311 59.9136 10.3978C60.0636 10.5644 60.1769 10.7678 60.2536 11.0078C60.3336 11.2478 60.3736 11.5228 60.3736 11.8328V15.0978H59.1386V11.8328C59.1386 11.5061 59.0669 11.2611 58.9236 11.0978C58.7803 10.9311 58.5703 10.8478 58.2936 10.8478C58.1669 10.8478 58.0486 10.8694 57.9386 10.9128C57.8319 10.9561 57.7369 11.0194 57.6536 11.1028C57.5736 11.1828 57.5103 11.2844 57.4636 11.4078C57.4169 11.5311 57.3936 11.6728 57.3936 11.8328V15.0978H56.1536V11.8328C56.1536 11.4894 56.0836 11.2394 55.9436 11.0828C55.8069 10.9261 55.6053 10.8478 55.3386 10.8478C55.1586 10.8478 54.9903 10.8928 54.8336 10.9828C54.6803 11.0694 54.5369 11.1894 54.4036 11.3428V15.0978H53.1686ZM64.8525 11.9428C64.8525 11.7828 64.8292 11.6328 64.7825 11.4928C64.7392 11.3494 64.6725 11.2244 64.5825 11.1178C64.4925 11.0111 64.3775 10.9278 64.2375 10.8678C64.1008 10.8044 63.9408 10.7728 63.7575 10.7728C63.4008 10.7728 63.1192 10.8744 62.9125 11.0778C62.7092 11.2811 62.5792 11.5694 62.5225 11.9428H64.8525ZM62.4975 12.6878C62.5175 12.9511 62.5642 13.1794 62.6375 13.3728C62.7108 13.5628 62.8075 13.7211 62.9275 13.8478C63.0475 13.9711 63.1892 14.0644 63.3525 14.1278C63.5192 14.1878 63.7025 14.2178 63.9025 14.2178C64.1025 14.2178 64.2742 14.1944 64.4175 14.1478C64.5642 14.1011 64.6908 14.0494 64.7975 13.9928C64.9075 13.9361 65.0025 13.8844 65.0825 13.8378C65.1658 13.7911 65.2458 13.7678 65.3225 13.7678C65.4258 13.7678 65.5025 13.8061 65.5525 13.8828L65.9075 14.3328C65.7708 14.4928 65.6175 14.6278 65.4475 14.7378C65.2775 14.8444 65.0992 14.9311 64.9125 14.9978C64.7292 15.0611 64.5408 15.1061 64.3475 15.1328C64.1575 15.1594 63.9725 15.1728 63.7925 15.1728C63.4358 15.1728 63.1042 15.1144 62.7975 14.9978C62.4908 14.8778 62.2242 14.7028 61.9975 14.4728C61.7708 14.2394 61.5925 13.9528 61.4625 13.6128C61.3325 13.2694 61.2675 12.8728 61.2675 12.4228C61.2675 12.0728 61.3242 11.7444 61.4375 11.4378C61.5508 11.1278 61.7125 10.8594 61.9225 10.6328C62.1358 10.4028 62.3942 10.2211 62.6975 10.0878C63.0042 9.95444 63.3492 9.88778 63.7325 9.88778C64.0558 9.88778 64.3542 9.93944 64.6275 10.0428C64.9008 10.1461 65.1358 10.2978 65.3325 10.4978C65.5292 10.6944 65.6825 10.9378 65.7925 11.2278C65.9058 11.5144 65.9625 11.8428 65.9625 12.2128C65.9625 12.3994 65.9425 12.5261 65.9025 12.5928C65.8625 12.6561 65.7858 12.6878 65.6725 12.6878H62.4975ZM68.0443 10.5978C68.1476 10.4944 68.256 10.3994 68.3693 10.3128C68.486 10.2228 68.6076 10.1478 68.7343 10.0878C68.8643 10.0244 69.0026 9.97611 69.1493 9.94278C69.296 9.90611 69.456 9.88778 69.6293 9.88778C69.9093 9.88778 70.1576 9.93611 70.3743 10.0328C70.591 10.1261 70.771 10.2594 70.9143 10.4328C71.061 10.6028 71.171 10.8078 71.2443 11.0478C71.321 11.2844 71.3593 11.5461 71.3593 11.8328V15.0978H70.1243V11.8328C70.1243 11.5194 70.0526 11.2778 69.9093 11.1078C69.766 10.9344 69.5476 10.8478 69.2543 10.8478C69.041 10.8478 68.841 10.8961 68.6543 10.9928C68.4676 11.0894 68.291 11.2211 68.1243 11.3878V15.0978H66.8893V9.96778H67.6443C67.8043 9.96778 67.9093 10.0428 67.9593 10.1928L68.0443 10.5978ZM75.6638 10.9678C75.6305 11.0211 75.5955 11.0594 75.5588 11.0828C75.5222 11.1028 75.4755 11.1128 75.4188 11.1128C75.3588 11.1128 75.2938 11.0961 75.2238 11.0628C75.1572 11.0294 75.0788 10.9928 74.9888 10.9528C74.8988 10.9094 74.7955 10.8711 74.6788 10.8378C74.5655 10.8044 74.4305 10.7878 74.2738 10.7878C74.0305 10.7878 73.8388 10.8394 73.6988 10.9428C73.5622 11.0461 73.4938 11.1811 73.4938 11.3478C73.4938 11.4578 73.5288 11.5511 73.5988 11.6278C73.6722 11.7011 73.7672 11.7661 73.8838 11.8228C74.0038 11.8794 74.1388 11.9311 74.2888 11.9778C74.4388 12.0211 74.5905 12.0694 74.7438 12.1228C74.9005 12.1761 75.0538 12.2378 75.2038 12.3078C75.3538 12.3744 75.4872 12.4611 75.6038 12.5678C75.7238 12.6711 75.8188 12.7961 75.8888 12.9428C75.9622 13.0894 75.9988 13.2661 75.9988 13.4728C75.9988 13.7194 75.9538 13.9478 75.8638 14.1578C75.7772 14.3644 75.6472 14.5444 75.4738 14.6978C75.3005 14.8478 75.0855 14.9661 74.8288 15.0528C74.5755 15.1361 74.2822 15.1778 73.9488 15.1778C73.7722 15.1778 73.5988 15.1611 73.4288 15.1278C73.2622 15.0978 73.1005 15.0544 72.9438 14.9978C72.7905 14.9411 72.6472 14.8744 72.5138 14.7978C72.3838 14.7211 72.2688 14.6378 72.1688 14.5478L72.4538 14.0778C72.4905 14.0211 72.5338 13.9778 72.5838 13.9478C72.6338 13.9178 72.6972 13.9028 72.7738 13.9028C72.8505 13.9028 72.9222 13.9244 72.9888 13.9678C73.0588 14.0111 73.1388 14.0578 73.2288 14.1078C73.3188 14.1578 73.4238 14.2044 73.5438 14.2478C73.6672 14.2911 73.8222 14.3128 74.0088 14.3128C74.1555 14.3128 74.2805 14.2961 74.3838 14.2628C74.4905 14.2261 74.5772 14.1794 74.6438 14.1228C74.7138 14.0661 74.7638 14.0011 74.7938 13.9278C74.8272 13.8511 74.8438 13.7728 74.8438 13.6928C74.8438 13.5728 74.8072 13.4744 74.7338 13.3978C74.6638 13.3211 74.5688 13.2544 74.4488 13.1978C74.3322 13.1411 74.1972 13.0911 74.0438 13.0478C73.8938 13.0011 73.7388 12.9511 73.5788 12.8978C73.4222 12.8444 73.2672 12.7828 73.1138 12.7128C72.9638 12.6394 72.8288 12.5478 72.7088 12.4378C72.5922 12.3278 72.4972 12.1928 72.4238 12.0328C72.3538 11.8728 72.3188 11.6794 72.3188 11.4528C72.3188 11.2428 72.3605 11.0428 72.4438 10.8528C72.5272 10.6628 72.6488 10.4978 72.8088 10.3578C72.9722 10.2144 73.1738 10.1011 73.4138 10.0178C73.6572 9.93111 73.9372 9.88778 74.2538 9.88778C74.6072 9.88778 74.9288 9.94611 75.2188 10.0628C75.5088 10.1794 75.7505 10.3328 75.9438 10.5228L75.6638 10.9678ZM78.2084 9.96778V15.0978H76.9684V9.96778H78.2084ZM78.3784 8.47278C78.3784 8.57944 78.3567 8.67944 78.3134 8.77278C78.27 8.86611 78.2117 8.94778 78.1384 9.01778C78.0684 9.08778 77.985 9.14444 77.8884 9.18778C77.7917 9.22778 77.6884 9.24778 77.5784 9.24778C77.4717 9.24778 77.37 9.22778 77.2734 9.18778C77.18 9.14444 77.0984 9.08778 77.0284 9.01778C76.9584 8.94778 76.9017 8.86611 76.8584 8.77278C76.8184 8.67944 76.7984 8.57944 76.7984 8.47278C76.7984 8.36278 76.8184 8.25944 76.8584 8.16278C76.9017 8.06611 76.9584 7.98278 77.0284 7.91278C77.0984 7.84278 77.18 7.78778 77.2734 7.74778C77.37 7.70444 77.4717 7.68278 77.5784 7.68278C77.6884 7.68278 77.7917 7.70444 77.8884 7.74778C77.985 7.78778 78.0684 7.84278 78.1384 7.91278C78.2117 7.98278 78.27 8.06611 78.3134 8.16278C78.3567 8.25944 78.3784 8.36278 78.3784 8.47278ZM81.7374 9.88778C82.1174 9.88778 82.4624 9.94944 82.7724 10.0728C83.0858 10.1961 83.3524 10.3711 83.5724 10.5978C83.7958 10.8244 83.9674 11.1011 84.0874 11.4278C84.2074 11.7544 84.2674 12.1194 84.2674 12.5228C84.2674 12.9294 84.2074 13.2961 84.0874 13.6228C83.9674 13.9494 83.7958 14.2278 83.5724 14.4578C83.3524 14.6878 83.0858 14.8644 82.7724 14.9878C82.4624 15.1111 82.1174 15.1728 81.7374 15.1728C81.3541 15.1728 81.0058 15.1111 80.6924 14.9878C80.3791 14.8644 80.1108 14.6878 79.8874 14.4578C79.6674 14.2278 79.4958 13.9494 79.3724 13.6228C79.2524 13.2961 79.1924 12.9294 79.1924 12.5228C79.1924 12.1194 79.2524 11.7544 79.3724 11.4278C79.4958 11.1011 79.6674 10.8244 79.8874 10.5978C80.1108 10.3711 80.3791 10.1961 80.6924 10.0728C81.0058 9.94944 81.3541 9.88778 81.7374 9.88778ZM81.7374 14.2228C82.1641 14.2228 82.4791 14.0794 82.6824 13.7928C82.8891 13.5061 82.9924 13.0861 82.9924 12.5328C82.9924 11.9794 82.8891 11.5578 82.6824 11.2678C82.4791 10.9778 82.1641 10.8328 81.7374 10.8328C81.3041 10.8328 80.9824 10.9794 80.7724 11.2728C80.5658 11.5628 80.4624 11.9828 80.4624 12.5328C80.4624 13.0828 80.5658 13.5028 80.7724 13.7928C80.9824 14.0794 81.3041 14.2228 81.7374 14.2228ZM86.3646 10.5978C86.4679 10.4944 86.5763 10.3994 86.6896 10.3128C86.8063 10.2228 86.9279 10.1478 87.0546 10.0878C87.1846 10.0244 87.3229 9.97611 87.4696 9.94278C87.6163 9.90611 87.7763 9.88778 87.9496 9.88778C88.2296 9.88778 88.4779 9.93611 88.6946 10.0328C88.9113 10.1261 89.0913 10.2594 89.2346 10.4328C89.3813 10.6028 89.4913 10.8078 89.5646 11.0478C89.6413 11.2844 89.6796 11.5461 89.6796 11.8328V15.0978H88.4446V11.8328C88.4446 11.5194 88.3729 11.2778 88.2296 11.1078C88.0863 10.9344 87.8679 10.8478 87.5746 10.8478C87.3613 10.8478 87.1613 10.8961 86.9746 10.9928C86.7879 11.0894 86.6113 11.2211 86.4446 11.3878V15.0978H85.2096V9.96778H85.9646C86.1246 9.96778 86.2296 10.0428 86.2796 10.1928L86.3646 10.5978Z" fill="white"/>
<path d="M42.804 23.2823V22.6183H44.308V28.4023H43.572V23.2823H42.804ZM45.3825 27.1143V26.5623L48.1905 22.6743H49.0625V26.4823H49.8625V27.1143H49.0625V28.4023H48.3425V27.1143H45.3825ZM48.3745 23.4343L46.2225 26.4823H48.3745V23.4343ZM50.4138 27.1143V26.5623L53.2218 22.6743H54.0938V26.4823H54.8938V27.1143H54.0938V28.4023H53.3738V27.1143H50.4138ZM53.4058 23.4343L51.2538 26.4823H53.4058V23.4343ZM61.1058 27.2023L59.8338 25.9303L58.5618 27.2023L58.0818 26.7223L59.3538 25.4503L58.1058 24.2023L58.5698 23.7303L59.8258 24.9863L61.0818 23.7303L61.5618 24.2103L60.3058 25.4663L61.5698 26.7383L61.1058 27.2023ZM64.8353 23.2823V22.6183H66.3393V28.4023H65.6033V23.2823H64.8353ZM67.3978 23.2823V22.6183H68.9018V28.4023H68.1658V23.2823H67.3978ZM70.1363 24.0743C70.1736 23.5837 70.3629 23.1997 70.7043 22.9223C71.0456 22.645 71.4883 22.5063 72.0323 22.5063C72.3949 22.5063 72.7069 22.573 72.9683 22.7063C73.2349 22.8343 73.4349 23.0103 73.5683 23.2343C73.7069 23.4583 73.7763 23.7117 73.7763 23.9943C73.7763 24.325 73.6803 24.6103 73.4883 24.8503C73.3016 25.0903 73.0563 25.245 72.7523 25.3143V25.3543C73.0989 25.4397 73.3736 25.6077 73.5763 25.8583C73.7789 26.109 73.8802 26.437 73.8802 26.8423C73.8802 27.1463 73.8109 27.421 73.6723 27.6663C73.5336 27.9063 73.3256 28.0957 73.0483 28.2343C72.7709 28.373 72.4376 28.4423 72.0483 28.4423C71.4829 28.4423 71.0189 28.2957 70.6562 28.0023C70.2936 27.7037 70.0909 27.2823 70.0483 26.7383H70.7523C70.7896 27.0583 70.9203 27.3197 71.1443 27.5223C71.3683 27.725 71.6669 27.8263 72.0403 27.8263C72.4136 27.8263 72.6963 27.7303 72.8883 27.5383C73.0856 27.341 73.1843 27.0877 73.1843 26.7783C73.1843 26.3783 73.0509 26.0903 72.7843 25.9143C72.5176 25.7383 72.1149 25.6503 71.5763 25.6503H71.3923V25.0423H71.5843C72.0749 25.037 72.4456 24.957 72.6963 24.8023C72.9469 24.6423 73.0723 24.397 73.0723 24.0663C73.0723 23.7837 72.9789 23.557 72.7923 23.3863C72.6109 23.2157 72.3496 23.1303 72.0082 23.1303C71.6776 23.1303 71.4109 23.2157 71.2083 23.3863C71.0056 23.557 70.8856 23.7863 70.8483 24.0743H70.1363ZM80.348 27.2023L79.076 25.9303L77.804 27.2023L77.324 26.7223L78.596 25.4503L77.348 24.2023L77.812 23.7303L79.068 24.9863L80.324 23.7303L80.804 24.2103L79.548 25.4663L80.812 26.7383L80.348 27.2023ZM85.2054 26.8503C85.2588 27.1543 85.3814 27.389 85.5734 27.5543C85.7708 27.7197 86.0348 27.8023 86.3654 27.8023C86.8081 27.8023 87.1334 27.629 87.3414 27.2823C87.5548 26.9357 87.6561 26.3517 87.6454 25.5303C87.5334 25.7703 87.3468 25.9597 87.0854 26.0983C86.8241 26.2317 86.5334 26.2983 86.2134 26.2983C85.8561 26.2983 85.5361 26.2263 85.2534 26.0823C84.9761 25.933 84.7574 25.717 84.5974 25.4343C84.4374 25.1517 84.3574 24.8103 84.3574 24.4103C84.3574 23.8397 84.5228 23.381 84.8534 23.0343C85.1841 22.6823 85.6534 22.5063 86.2614 22.5063C87.0081 22.5063 87.5308 22.749 87.8294 23.2343C88.1334 23.7197 88.2854 24.4423 88.2854 25.4023C88.2854 26.0743 88.2241 26.629 88.1014 27.0663C87.9841 27.5037 87.7814 27.837 87.4934 28.0663C87.2108 28.2957 86.8214 28.4103 86.3254 28.4103C85.7814 28.4103 85.3574 28.2637 85.0534 27.9703C84.7494 27.677 84.5761 27.3037 84.5334 26.8503H85.2054ZM86.3334 25.6823C86.6908 25.6823 86.9841 25.573 87.2134 25.3543C87.4428 25.1303 87.5574 24.829 87.5574 24.4503C87.5574 24.0503 87.4454 23.7277 87.2214 23.4823C86.9974 23.237 86.6828 23.1143 86.2774 23.1143C85.9041 23.1143 85.6054 23.2317 85.3814 23.4663C85.1628 23.701 85.0534 24.0103 85.0534 24.3943C85.0534 24.7837 85.1628 25.0957 85.3814 25.3303C85.6001 25.565 85.9174 25.6823 86.3334 25.6823ZM89.1325 27.1143V26.5623L91.9405 22.6743H92.8125V26.4823H93.6125V27.1143H92.8125V28.4023H92.0925V27.1143H89.1325ZM92.1245 23.4343L89.9725 26.4823H92.1245V23.4343ZM101.865 23.9383C102.206 23.9383 102.51 24.0103 102.777 24.1543C103.043 24.293 103.254 24.5037 103.409 24.7863C103.563 25.069 103.641 25.413 103.641 25.8183V28.4023H102.921V25.9223C102.921 25.485 102.811 25.1517 102.593 24.9223C102.379 24.6877 102.089 24.5703 101.721 24.5703C101.342 24.5703 101.041 24.693 100.817 24.9383C100.593 25.1783 100.481 25.5277 100.481 25.9863V28.4023H99.7606V25.9223C99.7606 25.485 99.6512 25.1517 99.4326 24.9223C99.2192 24.6877 98.9286 24.5703 98.5606 24.5703C98.1819 24.5703 97.8806 24.693 97.6566 24.9383C97.4326 25.1783 97.3206 25.5277 97.3206 25.9863V28.4023H96.5926V24.0183H97.3206V24.6503C97.4646 24.421 97.6566 24.245 97.8966 24.1223C98.1419 23.9997 98.4112 23.9383 98.7046 23.9383C99.0726 23.9383 99.3979 24.021 99.6806 24.1863C99.9632 24.3517 100.174 24.5943 100.313 24.9143C100.435 24.605 100.638 24.365 100.921 24.1943C101.203 24.0237 101.518 23.9383 101.865 23.9383ZM110.107 23.9383C110.448 23.9383 110.752 24.0103 111.019 24.1543C111.285 24.293 111.496 24.5037 111.651 24.7863C111.805 25.069 111.883 25.413 111.883 25.8183V28.4023H111.163V25.9223C111.163 25.485 111.053 25.1517 110.835 24.9223C110.621 24.6877 110.331 24.5703 109.963 24.5703C109.584 24.5703 109.283 24.693 109.059 24.9383C108.835 25.1783 108.723 25.5277 108.723 25.9863V28.4023H108.003V25.9223C108.003 25.485 107.893 25.1517 107.675 24.9223C107.461 24.6877 107.171 24.5703 106.803 24.5703C106.424 24.5703 106.123 24.693 105.899 24.9383C105.675 25.1783 105.563 25.5277 105.563 25.9863V28.4023H104.835V24.0183H105.563V24.6503C105.707 24.421 105.899 24.245 106.139 24.1223C106.384 23.9997 106.653 23.9383 106.947 23.9383C107.315 23.9383 107.64 24.021 107.923 24.1863C108.205 24.3517 108.416 24.5943 108.555 24.9143C108.677 24.605 108.88 24.365 109.163 24.1943C109.445 24.0237 109.76 23.9383 110.107 23.9383Z" fill="white"/>
</svg>
