<svg width="162" height="37" viewBox="0 0 162 37" fill="none" xmlns="http://www.w3.org/2000/svg">
<path d="M5.88 17L3.836 13.29H3.262V17H0.868V7.172H4.886C5.66067 7.172 6.31867 7.30733 6.86 7.578C7.41067 7.84867 7.82133 8.222 8.092 8.698C8.36267 9.16467 8.498 9.68733 8.498 10.266C8.498 10.9193 8.31133 11.5027 7.938 12.016C7.574 12.5293 7.03267 12.8933 6.314 13.108L8.582 17H5.88ZM3.262 11.596H4.746C5.18467 11.596 5.51133 11.4887 5.726 11.274C5.95 11.0593 6.062 10.756 6.062 10.364C6.062 9.99067 5.95 9.69667 5.726 9.482C5.51133 9.26733 5.18467 9.16 4.746 9.16H3.262V11.596ZM15.6988 17L12.3948 12.66V17H10.0008V7.172H12.3948V11.484L15.6708 7.172H18.4848L14.6768 11.988L18.6248 17H15.6988ZM30.2193 10.336C30.2193 10.9053 30.0887 11.428 29.8273 11.904C29.566 12.3707 29.1647 12.7487 28.6233 13.038C28.082 13.3273 27.41 13.472 26.6073 13.472H25.1233V17H22.7293V7.172H26.6073C27.3913 7.172 28.054 7.30733 28.5953 7.578C29.1367 7.84867 29.5427 8.222 29.8133 8.698C30.084 9.174 30.2193 9.72 30.2193 10.336ZM26.4253 11.568C26.8827 11.568 27.2233 11.4607 27.4473 11.246C27.6713 11.0313 27.7833 10.728 27.7833 10.336C27.7833 9.944 27.6713 9.64067 27.4473 9.426C27.2233 9.21133 26.8827 9.104 26.4253 9.104H25.1233V11.568H26.4253ZM36.1137 17.098C35.1897 17.098 34.3403 16.8833 33.5657 16.454C32.8003 16.0247 32.189 15.4273 31.7317 14.662C31.2837 13.8873 31.0597 13.0193 31.0597 12.058C31.0597 11.0967 31.2837 10.2333 31.7317 9.468C32.189 8.70267 32.8003 8.10533 33.5657 7.676C34.3403 7.24667 35.1897 7.032 36.1137 7.032C37.0377 7.032 37.8823 7.24667 38.6477 7.676C39.4223 8.10533 40.029 8.70267 40.4677 9.468C40.9157 10.2333 41.1397 11.0967 41.1397 12.058C41.1397 13.0193 40.9157 13.8873 40.4677 14.662C40.0197 15.4273 39.413 16.0247 38.6477 16.454C37.8823 16.8833 37.0377 17.098 36.1137 17.098ZM36.1137 14.914C36.8977 14.914 37.523 14.6527 37.9897 14.13C38.4657 13.6073 38.7037 12.9167 38.7037 12.058C38.7037 11.19 38.4657 10.4993 37.9897 9.986C37.523 9.46333 36.8977 9.202 36.1137 9.202C35.3203 9.202 34.6857 9.45867 34.2097 9.972C33.743 10.4853 33.5097 11.1807 33.5097 12.058C33.5097 12.926 33.743 13.6213 34.2097 14.144C34.6857 14.6573 35.3203 14.914 36.1137 14.914ZM44.8655 15.152H48.0015V17H42.4715V7.172H44.8655V15.152ZM51.5374 15.152H54.6734V17H49.1434V7.172H51.5374V15.152ZM64.2433 7.172L60.8413 13.752V17H58.4473V13.752L55.0453 7.172H57.7613L59.6653 11.288L61.5553 7.172H64.2433ZM70.7354 12.072C70.7354 11.1013 70.9454 10.238 71.3654 9.482C71.7854 8.71667 72.3688 8.124 73.1154 7.704C73.8714 7.27467 74.7254 7.06 75.6774 7.06C76.8441 7.06 77.8428 7.368 78.6734 7.984C79.5041 8.6 80.0594 9.44 80.3394 10.504H77.7074C77.5114 10.0933 77.2314 9.78067 76.8674 9.566C76.5128 9.35133 76.1068 9.244 75.6494 9.244C74.9121 9.244 74.3148 9.50067 73.8574 10.014C73.4001 10.5273 73.1714 11.2133 73.1714 12.072C73.1714 12.9307 73.4001 13.6167 73.8574 14.13C74.3148 14.6433 74.9121 14.9 75.6494 14.9C76.1068 14.9 76.5128 14.7927 76.8674 14.578C77.2314 14.3633 77.5114 14.0507 77.7074 13.64H80.3394C80.0594 14.704 79.5041 15.544 78.6734 16.16C77.8428 16.7667 76.8441 17.07 75.6774 17.07C74.7254 17.07 73.8714 16.86 73.1154 16.44C72.3688 16.0107 71.7854 15.418 71.3654 14.662C70.9454 13.906 70.7354 13.0427 70.7354 12.072ZM86.4535 17.098C85.5295 17.098 84.6802 16.8833 83.9055 16.454C83.1402 16.0247 82.5288 15.4273 82.0715 14.662C81.6235 13.8873 81.3995 13.0193 81.3995 12.058C81.3995 11.0967 81.6235 10.2333 82.0715 9.468C82.5288 8.70267 83.1402 8.10533 83.9055 7.676C84.6802 7.24667 85.5295 7.032 86.4535 7.032C87.3775 7.032 88.2222 7.24667 88.9875 7.676C89.7622 8.10533 90.3688 8.70267 90.8075 9.468C91.2555 10.2333 91.4795 11.0967 91.4795 12.058C91.4795 13.0193 91.2555 13.8873 90.8075 14.662C90.3595 15.4273 89.7528 16.0247 88.9875 16.454C88.2222 16.8833 87.3775 17.098 86.4535 17.098ZM86.4535 14.914C87.2375 14.914 87.8628 14.6527 88.3295 14.13C88.8055 13.6073 89.0435 12.9167 89.0435 12.058C89.0435 11.19 88.8055 10.4993 88.3295 9.986C87.8628 9.46333 87.2375 9.202 86.4535 9.202C85.6602 9.202 85.0255 9.45867 84.5495 9.972C84.0828 10.4853 83.8495 11.1807 83.8495 12.058C83.8495 12.926 84.0828 13.6213 84.5495 14.144C85.0255 14.6573 85.6602 14.914 86.4535 14.914ZM101.603 17H99.2094L95.2054 10.938V17H92.8114V7.172H95.2054L99.2094 13.262V7.172H101.603V17ZM110.409 7.172V9.09H107.805V17H105.411V9.09H102.807V7.172H110.409ZM117.728 15.264H114.06L113.472 17H110.966L114.522 7.172H117.294L120.85 17H118.316L117.728 15.264ZM117.112 13.416L115.894 9.818L114.69 13.416H117.112ZM124.326 7.172V17H121.932V7.172H124.326ZM134.853 17H132.459L128.455 10.938V17H126.061V7.172H128.455L132.459 13.262V7.172H134.853V17ZM138.983 9.09V11.078H142.189V12.926H138.983V15.082H142.609V17H136.589V7.172H142.609V9.09H138.983ZM149.175 17L147.131 13.29H146.557V17H144.163V7.172H148.181C148.956 7.172 149.614 7.30733 150.155 7.578C150.706 7.84867 151.116 8.222 151.387 8.698C151.658 9.16467 151.793 9.68733 151.793 10.266C151.793 10.9193 151.606 11.5027 151.233 12.016C150.869 12.5293 150.328 12.8933 149.609 13.108L151.877 17H149.175ZM146.557 11.596H148.041C148.48 11.596 148.806 11.4887 149.021 11.274C149.245 11.0593 149.357 10.756 149.357 10.364C149.357 9.99067 149.245 9.69667 149.021 9.482C148.806 9.26733 148.48 9.16 148.041 9.16H146.557V11.596ZM156.852 17.098C156.133 17.098 155.489 16.9813 154.92 16.748C154.35 16.5147 153.893 16.1693 153.548 15.712C153.212 15.2547 153.034 14.704 153.016 14.06H155.564C155.601 14.424 155.727 14.704 155.942 14.9C156.156 15.0867 156.436 15.18 156.782 15.18C157.136 15.18 157.416 15.1007 157.622 14.942C157.827 14.774 157.93 14.5453 157.93 14.256C157.93 14.0133 157.846 13.8127 157.678 13.654C157.519 13.4953 157.318 13.3647 157.076 13.262C156.842 13.1593 156.506 13.0427 156.068 12.912C155.433 12.716 154.915 12.52 154.514 12.324C154.112 12.128 153.767 11.8387 153.478 11.456C153.188 11.0733 153.044 10.574 153.044 9.958C153.044 9.04333 153.375 8.32933 154.038 7.816C154.7 7.29333 155.564 7.032 156.628 7.032C157.71 7.032 158.583 7.29333 159.246 7.816C159.908 8.32933 160.263 9.048 160.31 9.972H157.72C157.701 9.65467 157.584 9.40733 157.37 9.23C157.155 9.04333 156.88 8.95 156.544 8.95C156.254 8.95 156.021 9.02933 155.844 9.188C155.666 9.33733 155.578 9.55667 155.578 9.846C155.578 10.1633 155.727 10.4107 156.026 10.588C156.324 10.7653 156.791 10.9567 157.426 11.162C158.06 11.3767 158.574 11.582 158.966 11.778C159.367 11.974 159.712 12.2587 160.002 12.632C160.291 13.0053 160.436 13.486 160.436 14.074C160.436 14.634 160.291 15.1427 160.002 15.6C159.722 16.0573 159.311 16.4213 158.77 16.692C158.228 16.9627 157.589 17.098 156.852 17.098Z" fill="#777878"/>
<path d="M2.384 34.056C2.016 34.056 1.68533 33.992 1.392 33.864C1.104 33.7307 0.877333 33.5493 0.712 33.32C0.546667 33.0853 0.461333 32.816 0.456 32.512H1.232C1.25867 32.7733 1.36533 32.9947 1.552 33.176C1.744 33.352 2.02133 33.44 2.384 33.44C2.73067 33.44 3.00267 33.3547 3.2 33.184C3.40267 33.008 3.504 32.784 3.504 32.512C3.504 32.2987 3.44533 32.1253 3.328 31.992C3.21067 31.8587 3.064 31.7573 2.888 31.688C2.712 31.6187 2.47467 31.544 2.176 31.464C1.808 31.368 1.512 31.272 1.288 31.176C1.06933 31.08 0.88 30.9307 0.72 30.728C0.565333 30.52 0.488 30.2427 0.488 29.896C0.488 29.592 0.565333 29.3227 0.72 29.088C0.874667 28.8533 1.09067 28.672 1.368 28.544C1.65067 28.416 1.97333 28.352 2.336 28.352C2.85867 28.352 3.28533 28.4827 3.616 28.744C3.952 29.0053 4.14133 29.352 4.184 29.784H3.384C3.35733 29.5707 3.24533 29.384 3.048 29.224C2.85067 29.0587 2.58933 28.976 2.264 28.976C1.96 28.976 1.712 29.056 1.52 29.216C1.328 29.3707 1.232 29.5893 1.232 29.872C1.232 30.0747 1.288 30.24 1.4 30.368C1.51733 30.496 1.65867 30.5947 1.824 30.664C1.99467 30.728 2.232 30.8027 2.536 30.888C2.904 30.9893 3.2 31.0907 3.424 31.192C3.648 31.288 3.84 31.44 4 31.648C4.16 31.8507 4.24 32.128 4.24 32.48C4.24 32.752 4.168 33.008 4.024 33.248C3.88 33.488 3.66667 33.6827 3.384 33.832C3.10133 33.9813 2.768 34.056 2.384 34.056ZM12.3193 28.424L10.7033 34H9.88731L8.59131 29.512L7.24731 34L6.43931 34.008L4.87931 28.424H5.65531L6.87131 33.152L8.21531 28.424H9.03131L10.3113 33.136L11.5353 28.424H12.3193ZM13.844 29.016V30.88H15.876V31.48H13.844V33.4H16.116V34H13.116V28.416H16.116V29.016H13.844ZM17.9456 29.016V30.88H19.9776V31.48H17.9456V33.4H20.2176V34H17.2176V28.416H20.2176V29.016H17.9456ZM24.7511 28.424V29.016H23.2311V34H22.5031V29.016H20.9751V28.424H24.7511ZM30.5721 31.128C30.7747 31.16 30.9587 31.2427 31.1241 31.376C31.2947 31.5093 31.4281 31.6747 31.5241 31.872C31.6254 32.0693 31.6761 32.28 31.6761 32.504C31.6761 32.7867 31.6041 33.0427 31.4601 33.272C31.3161 33.496 31.1054 33.6747 30.8281 33.808C30.5561 33.936 30.2334 34 29.8601 34H27.7801V28.424H29.7801C30.1587 28.424 30.4814 28.488 30.7481 28.616C31.0147 28.7387 31.2147 28.9067 31.3481 29.12C31.4814 29.3333 31.5481 29.5733 31.5481 29.84C31.5481 30.1707 31.4574 30.4453 31.2761 30.664C31.1001 30.8773 30.8654 31.032 30.5721 31.128ZM28.5081 30.832H29.7321C30.0734 30.832 30.3374 30.752 30.5241 30.592C30.7107 30.432 30.8041 30.2107 30.8041 29.928C30.8041 29.6453 30.7107 29.424 30.5241 29.264C30.3374 29.104 30.0681 29.024 29.7161 29.024H28.5081V30.832ZM29.7961 33.4C30.1587 33.4 30.4414 33.3147 30.6441 33.144C30.8467 32.9733 30.9481 32.736 30.9481 32.432C30.9481 32.1227 30.8414 31.88 30.6281 31.704C30.4147 31.5227 30.1294 31.432 29.7721 31.432H28.5081V33.4H29.7961ZM35.2143 34.056C34.697 34.056 34.225 33.936 33.7983 33.696C33.3716 33.4507 33.033 33.112 32.7823 32.68C32.537 32.2427 32.4143 31.752 32.4143 31.208C32.4143 30.664 32.537 30.176 32.7823 29.744C33.033 29.3067 33.3716 28.968 33.7983 28.728C34.225 28.4827 34.697 28.36 35.2143 28.36C35.737 28.36 36.2116 28.4827 36.6383 28.728C37.065 28.968 37.401 29.304 37.6463 29.736C37.8916 30.168 38.0143 30.6587 38.0143 31.208C38.0143 31.7573 37.8916 32.248 37.6463 32.68C37.401 33.112 37.065 33.4507 36.6383 33.696C36.2116 33.936 35.737 34.056 35.2143 34.056ZM35.2143 33.424C35.6036 33.424 35.953 33.3333 36.2623 33.152C36.577 32.9707 36.8223 32.712 36.9983 32.376C37.1796 32.04 37.2703 31.6507 37.2703 31.208C37.2703 30.76 37.1796 30.3707 36.9983 30.04C36.8223 29.704 36.5796 29.4453 36.2703 29.264C35.961 29.0827 35.609 28.992 35.2143 28.992C34.8196 28.992 34.4676 29.0827 34.1583 29.264C33.849 29.4453 33.6036 29.704 33.4223 30.04C33.2463 30.3707 33.1583 30.76 33.1583 31.208C33.1583 31.6507 33.2463 32.04 33.4223 32.376C33.6036 32.712 33.849 32.9707 34.1583 33.152C34.473 33.3333 34.825 33.424 35.2143 33.424ZM41.2554 31.216L42.9674 34H42.1434L40.8074 31.824L39.5354 34H38.7274L40.4314 31.216L38.7194 28.424H39.5354L40.8794 30.608L42.1594 28.424H42.9754L41.2554 31.216ZM49.1169 30.76V31.376H45.9249V30.76H49.1169ZM56.344 30.056C56.344 30.52 56.184 30.9067 55.864 31.216C55.5493 31.52 55.0667 31.672 54.416 31.672H53.344V34H52.616V28.424H54.416C55.0453 28.424 55.5227 28.576 55.848 28.88C56.1787 29.184 56.344 29.576 56.344 30.056ZM54.416 31.072C54.8213 31.072 55.12 30.984 55.312 30.808C55.504 30.632 55.6 30.3813 55.6 30.056C55.6 29.368 55.2053 29.024 54.416 29.024H53.344V31.072H54.416ZM60.1848 34L58.8568 31.72H57.9768V34H57.2488V28.424H59.0488C59.4701 28.424 59.8248 28.496 60.1128 28.64C60.4061 28.784 60.6248 28.9787 60.7688 29.224C60.9128 29.4693 60.9848 29.7493 60.9848 30.064C60.9848 30.448 60.8728 30.7867 60.6488 31.08C60.4301 31.3733 60.0995 31.568 59.6568 31.664L61.0568 34H60.1848ZM57.9768 31.136H59.0488C59.4435 31.136 59.7395 31.04 59.9368 30.848C60.1341 30.6507 60.2328 30.3893 60.2328 30.064C60.2328 29.7333 60.1341 29.4773 59.9368 29.296C59.7448 29.1147 59.4488 29.024 59.0488 29.024H57.9768V31.136ZM64.644 34.056C64.1267 34.056 63.6547 33.936 63.228 33.696C62.8013 33.4507 62.4627 33.112 62.212 32.68C61.9667 32.2427 61.844 31.752 61.844 31.208C61.844 30.664 61.9667 30.176 62.212 29.744C62.4627 29.3067 62.8013 28.968 63.228 28.728C63.6547 28.4827 64.1267 28.36 64.644 28.36C65.1667 28.36 65.6413 28.4827 66.068 28.728C66.4947 28.968 66.8307 29.304 67.076 29.736C67.3213 30.168 67.444 30.6587 67.444 31.208C67.444 31.7573 67.3213 32.248 67.076 32.68C66.8307 33.112 66.4947 33.4507 66.068 33.696C65.6413 33.936 65.1667 34.056 64.644 34.056ZM64.644 33.424C65.0333 33.424 65.3827 33.3333 65.692 33.152C66.0067 32.9707 66.252 32.712 66.428 32.376C66.6093 32.04 66.7 31.6507 66.7 31.208C66.7 30.76 66.6093 30.3707 66.428 30.04C66.252 29.704 66.0093 29.4453 65.7 29.264C65.3907 29.0827 65.0387 28.992 64.644 28.992C64.2493 28.992 63.8973 29.0827 63.588 29.264C63.2787 29.4453 63.0333 29.704 62.852 30.04C62.676 30.3707 62.588 30.76 62.588 31.208C62.588 31.6507 62.676 32.04 62.852 32.376C63.0333 32.712 63.2787 32.9707 63.588 33.152C63.9027 33.3333 64.2547 33.424 64.644 33.424ZM70.1411 28.424C70.7491 28.424 71.2744 28.5387 71.7171 28.768C72.1651 28.992 72.5064 29.3147 72.7411 29.736C72.9811 30.1573 73.1011 30.6533 73.1011 31.224C73.1011 31.7947 72.9811 32.2907 72.7411 32.712C72.5064 33.128 72.1651 33.448 71.7171 33.672C71.2744 33.8907 70.7491 34 70.1411 34H68.4051V28.424H70.1411ZM70.1411 33.4C70.8611 33.4 71.4104 33.2107 71.7891 32.832C72.1677 32.448 72.3571 31.912 72.3571 31.224C72.3571 30.5307 72.1651 29.9893 71.7811 29.6C71.4024 29.2107 70.8557 29.016 70.1411 29.016H69.1331V33.4H70.1411ZM74.7733 28.424V31.952C74.7733 32.448 74.8933 32.816 75.1333 33.056C75.3786 33.296 75.7173 33.416 76.1493 33.416C76.576 33.416 76.9093 33.296 77.1493 33.056C77.3946 32.816 77.5173 32.448 77.5173 31.952V28.424H78.2453V31.944C78.2453 32.408 78.152 32.8 77.9653 33.12C77.7786 33.4347 77.5253 33.6693 77.2053 33.824C76.8906 33.9787 76.536 34.056 76.1413 34.056C75.7466 34.056 75.3893 33.9787 75.0693 33.824C74.7546 33.6693 74.504 33.4347 74.3173 33.12C74.136 32.8 74.0453 32.408 74.0453 31.944V28.424H74.7733ZM79.1878 31.208C79.1878 30.664 79.3104 30.176 79.5558 29.744C79.8011 29.3067 80.1344 28.9653 80.5558 28.72C80.9824 28.4747 81.4544 28.352 81.9718 28.352C82.5798 28.352 83.1104 28.4987 83.5638 28.792C84.0171 29.0853 84.3478 29.5013 84.5558 30.04H83.6838C83.5291 29.704 83.3051 29.4453 83.0118 29.264C82.7238 29.0827 82.3771 28.992 81.9718 28.992C81.5824 28.992 81.2331 29.0827 80.9238 29.264C80.6144 29.4453 80.3718 29.704 80.1958 30.04C80.0198 30.3707 79.9318 30.76 79.9318 31.208C79.9318 31.6507 80.0198 32.04 80.1958 32.376C80.3718 32.7067 80.6144 32.9627 80.9238 33.144C81.2331 33.3253 81.5824 33.416 81.9718 33.416C82.3771 33.416 82.7238 33.328 83.0118 33.152C83.3051 32.9707 83.5291 32.712 83.6838 32.376H84.5558C84.3478 32.9093 84.0171 33.3227 83.5638 33.616C83.1104 33.904 82.5798 34.048 81.9718 34.048C81.4544 34.048 80.9824 33.928 80.5558 33.688C80.1344 33.4427 79.8011 33.104 79.5558 32.672C79.3104 32.24 79.1878 31.752 79.1878 31.208ZM89.0714 28.424V29.016H87.5514V34H86.8234V29.016H85.2954V28.424H89.0714ZM95.8284 30.056C95.8284 30.52 95.6684 30.9067 95.3484 31.216C95.0337 31.52 94.551 31.672 93.9004 31.672H92.8284V34H92.1004V28.424H93.9004C94.5297 28.424 95.007 28.576 95.3324 28.88C95.663 29.184 95.8284 29.576 95.8284 30.056ZM93.9004 31.072C94.3057 31.072 94.6044 30.984 94.7964 30.808C94.9884 30.632 95.0844 30.3813 95.0844 30.056C95.0844 29.368 94.6897 29.024 93.9004 29.024H92.8284V31.072H93.9004ZM100.029 32.76H97.5972L97.1492 34H96.3812L98.3972 28.456H99.2372L101.245 34H100.477L100.029 32.76ZM99.8212 32.168L98.8132 29.352L97.8052 32.168H99.8212ZM106.348 30.04C106.193 29.7147 105.969 29.464 105.676 29.288C105.382 29.1067 105.041 29.016 104.652 29.016C104.262 29.016 103.91 29.1067 103.596 29.288C103.286 29.464 103.041 29.72 102.86 30.056C102.684 30.3867 102.596 30.7707 102.596 31.208C102.596 31.6453 102.684 32.0293 102.86 32.36C103.041 32.6907 103.286 32.9467 103.596 33.128C103.91 33.304 104.262 33.392 104.652 33.392C105.196 33.392 105.644 33.2293 105.996 32.904C106.348 32.5787 106.553 32.1387 106.612 31.584H104.388V30.992H107.388V31.552C107.345 32.0107 107.201 32.432 106.956 32.816C106.71 33.1947 106.388 33.496 105.988 33.72C105.588 33.9387 105.142 34.048 104.652 34.048C104.134 34.048 103.662 33.928 103.236 33.688C102.809 33.4427 102.47 33.104 102.22 32.672C101.974 32.24 101.852 31.752 101.852 31.208C101.852 30.664 101.974 30.176 102.22 29.744C102.47 29.3067 102.809 28.968 103.236 28.728C103.662 28.4827 104.134 28.36 104.652 28.36C105.244 28.36 105.766 28.5067 106.22 28.8C106.678 29.0933 107.012 29.5067 107.22 30.04H106.348ZM109.078 29.016V30.88H111.11V31.48H109.078V33.4H111.35V34H108.35V28.416H111.35V29.016H109.078Z" fill="#777878"/>
</svg>
