<svg width="109" height="37" viewBox="0 0 109 37" fill="none" xmlns="http://www.w3.org/2000/svg">
<path d="M5.77 13.3927C5.84333 13.3927 5.90833 13.4211 5.965 13.4777L6.495 14.0527C6.20167 14.4161 5.84 14.6944 5.41 14.8877C4.98333 15.0811 4.47 15.1777 3.87 15.1777C3.33333 15.1777 2.85 15.0861 2.42 14.9027C1.99333 14.7194 1.62833 14.4644 1.325 14.1377C1.02167 13.8111 0.788333 13.4211 0.625 12.9677C0.465 12.5144 0.385 12.0194 0.385 11.4827C0.385 10.9394 0.471667 10.4427 0.645 9.99272C0.818333 9.53938 1.06167 9.14938 1.375 8.82272C1.69167 8.49605 2.06833 8.24272 2.505 8.06272C2.94167 7.87938 3.425 7.78772 3.955 7.78772C4.48167 7.78772 4.94833 7.87438 5.355 8.04772C5.765 8.22105 6.11333 8.44772 6.4 8.72772L5.95 9.35272C5.92333 9.39272 5.88833 9.42772 5.845 9.45772C5.805 9.48772 5.74833 9.50272 5.675 9.50272C5.625 9.50272 5.57333 9.48938 5.52 9.46272C5.46667 9.43272 5.40833 9.39772 5.345 9.35772C5.28167 9.31438 5.20833 9.26772 5.125 9.21772C5.04167 9.16772 4.945 9.12272 4.835 9.08272C4.725 9.03938 4.59667 9.00438 4.45 8.97772C4.30667 8.94772 4.14 8.93272 3.95 8.93272C3.62667 8.93272 3.33 8.99105 3.06 9.10772C2.79333 9.22105 2.56333 9.38772 2.37 9.60772C2.17667 9.82438 2.02667 10.0911 1.92 10.4077C1.81333 10.7211 1.76 11.0794 1.76 11.4827C1.76 11.8894 1.81667 12.2511 1.93 12.5677C2.04667 12.8844 2.20333 13.1511 2.4 13.3677C2.59667 13.5844 2.82833 13.7511 3.095 13.8677C3.36167 13.9811 3.64833 14.0377 3.955 14.0377C4.13833 14.0377 4.30333 14.0277 4.45 14.0077C4.6 13.9877 4.73667 13.9561 4.86 13.9127C4.98667 13.8694 5.105 13.8144 5.215 13.7477C5.32833 13.6777 5.44 13.5927 5.55 13.4927C5.58333 13.4627 5.61833 13.4394 5.655 13.4227C5.69167 13.4027 5.73 13.3927 5.77 13.3927ZM9.93133 12.9077C9.57466 12.9244 9.27466 12.9561 9.03133 13.0027C8.78799 13.0461 8.59299 13.1027 8.44633 13.1727C8.29966 13.2427 8.19466 13.3244 8.13133 13.4177C8.06799 13.5111 8.03633 13.6127 8.03633 13.7227C8.03633 13.9394 8.09966 14.0944 8.22633 14.1877C8.35633 14.2811 8.52466 14.3277 8.73133 14.3277C8.98466 14.3277 9.20299 14.2827 9.38633 14.1927C9.57299 14.0994 9.75466 13.9594 9.93133 13.7727V12.9077ZM7.10133 10.6827C7.69133 10.1427 8.40133 9.87272 9.23133 9.87272C9.53133 9.87272 9.79966 9.92272 10.0363 10.0227C10.273 10.1194 10.473 10.2561 10.6363 10.4327C10.7997 10.6061 10.923 10.8144 11.0063 11.0577C11.093 11.3011 11.1363 11.5677 11.1363 11.8577V15.0977H10.5763C10.4597 15.0977 10.3697 15.0811 10.3063 15.0477C10.243 15.0111 10.193 14.9394 10.1563 14.8327L10.0463 14.4627C9.91633 14.5794 9.78966 14.6827 9.66633 14.7727C9.54299 14.8594 9.41466 14.9327 9.28133 14.9927C9.14799 15.0527 9.00466 15.0977 8.85133 15.1277C8.70133 15.1611 8.53466 15.1777 8.35133 15.1777C8.13466 15.1777 7.93466 15.1494 7.75133 15.0927C7.56799 15.0327 7.40966 14.9444 7.27633 14.8277C7.14299 14.7111 7.03966 14.5661 6.96633 14.3927C6.89299 14.2194 6.85633 14.0177 6.85633 13.7877C6.85633 13.6577 6.87799 13.5294 6.92133 13.4027C6.96466 13.2727 7.03466 13.1494 7.13133 13.0327C7.23133 12.9161 7.35966 12.8061 7.51633 12.7027C7.67299 12.5994 7.86466 12.5094 8.09133 12.4327C8.32133 12.3561 8.58799 12.2944 8.89133 12.2477C9.19466 12.1977 9.54133 12.1677 9.93133 12.1577V11.8577C9.93133 11.5144 9.85799 11.2611 9.71133 11.0977C9.56466 10.9311 9.35299 10.8477 9.07633 10.8477C8.87633 10.8477 8.70966 10.8711 8.57633 10.9177C8.44633 10.9644 8.33133 11.0177 8.23133 11.0777C8.13133 11.1344 8.03966 11.1861 7.95633 11.2327C7.87633 11.2794 7.78633 11.3027 7.68633 11.3027C7.59966 11.3027 7.52633 11.2811 7.46633 11.2377C7.40633 11.1911 7.35799 11.1377 7.32133 11.0777L7.10133 10.6827ZM13.4645 10.8577C13.6245 10.5511 13.8145 10.3111 14.0345 10.1377C14.2545 9.96105 14.5145 9.87272 14.8145 9.87272C15.0511 9.87272 15.2411 9.92438 15.3845 10.0277L15.3045 10.9527C15.2878 11.0127 15.2628 11.0561 15.2295 11.0827C15.1995 11.1061 15.1578 11.1177 15.1045 11.1177C15.0545 11.1177 14.9795 11.1094 14.8795 11.0927C14.7828 11.0761 14.6878 11.0677 14.5945 11.0677C14.4578 11.0677 14.3361 11.0877 14.2295 11.1277C14.1228 11.1677 14.0261 11.2261 13.9395 11.3027C13.8561 11.3761 13.7811 11.4661 13.7145 11.5727C13.6511 11.6794 13.5911 11.8011 13.5345 11.9377V15.0977H12.2995V9.96772H13.0245C13.1511 9.96772 13.2395 9.99105 13.2895 10.0377C13.3395 10.0811 13.3728 10.1611 13.3895 10.2777L13.4645 10.8577ZM17.7399 15.1777C17.2933 15.1777 16.9499 15.0527 16.7099 14.8027C16.4733 14.5494 16.3549 14.2011 16.3549 13.7577V10.8927H15.8299C15.7633 10.8927 15.7066 10.8711 15.6599 10.8277C15.6133 10.7844 15.5899 10.7194 15.5899 10.6327V10.1427L16.4149 10.0077L16.6749 8.60772C16.6916 8.54105 16.7233 8.48938 16.7699 8.45272C16.8166 8.41605 16.8766 8.39772 16.9499 8.39772H17.5899V10.0127H18.9599V10.8927H17.5899V13.6727C17.5899 13.8327 17.6283 13.9577 17.7049 14.0477C17.7849 14.1377 17.8933 14.1827 18.0299 14.1827C18.1066 14.1827 18.1699 14.1744 18.2199 14.1577C18.2733 14.1377 18.3183 14.1177 18.3549 14.0977C18.3949 14.0777 18.4299 14.0594 18.4599 14.0427C18.4899 14.0227 18.5199 14.0127 18.5499 14.0127C18.5866 14.0127 18.6166 14.0227 18.6399 14.0427C18.6633 14.0594 18.6883 14.0861 18.7149 14.1227L19.0849 14.7227C18.9049 14.8727 18.6983 14.9861 18.4649 15.0627C18.2316 15.1394 17.9899 15.1777 17.7399 15.1777ZM21.9816 9.88772C22.3616 9.88772 22.7066 9.94938 23.0166 10.0727C23.3299 10.1961 23.5966 10.3711 23.8166 10.5977C24.0399 10.8244 24.2116 11.1011 24.3316 11.4277C24.4516 11.7544 24.5116 12.1194 24.5116 12.5227C24.5116 12.9294 24.4516 13.2961 24.3316 13.6227C24.2116 13.9494 24.0399 14.2277 23.8166 14.4577C23.5966 14.6877 23.3299 14.8644 23.0166 14.9877C22.7066 15.1111 22.3616 15.1727 21.9816 15.1727C21.5982 15.1727 21.2499 15.1111 20.9366 14.9877C20.6232 14.8644 20.3549 14.6877 20.1316 14.4577C19.9116 14.2277 19.7399 13.9494 19.6166 13.6227C19.4966 13.2961 19.4366 12.9294 19.4366 12.5227C19.4366 12.1194 19.4966 11.7544 19.6166 11.4277C19.7399 11.1011 19.9116 10.8244 20.1316 10.5977C20.3549 10.3711 20.6232 10.1961 20.9366 10.0727C21.2499 9.94938 21.5982 9.88772 21.9816 9.88772ZM21.9816 14.2227C22.4082 14.2227 22.7232 14.0794 22.9266 13.7927C23.1332 13.5061 23.2366 13.0861 23.2366 12.5327C23.2366 11.9794 23.1332 11.5577 22.9266 11.2677C22.7232 10.9777 22.4082 10.8327 21.9816 10.8327C21.5482 10.8327 21.2266 10.9794 21.0166 11.2727C20.8099 11.5627 20.7066 11.9827 20.7066 12.5327C20.7066 13.0827 20.8099 13.5027 21.0166 13.7927C21.2266 14.0794 21.5482 14.2227 21.9816 14.2227ZM26.6088 10.5977C26.7121 10.4944 26.8204 10.3994 26.9338 10.3127C27.0504 10.2227 27.1721 10.1477 27.2988 10.0877C27.4288 10.0244 27.5671 9.97605 27.7138 9.94272C27.8604 9.90605 28.0204 9.88772 28.1938 9.88772C28.4738 9.88772 28.7221 9.93605 28.9388 10.0327C29.1554 10.1261 29.3354 10.2594 29.4788 10.4327C29.6254 10.6027 29.7354 10.8077 29.8088 11.0477C29.8854 11.2844 29.9238 11.5461 29.9238 11.8327V15.0977H28.6888V11.8327C28.6888 11.5194 28.6171 11.2777 28.4738 11.1077C28.3304 10.9344 28.1121 10.8477 27.8188 10.8477C27.6054 10.8477 27.4054 10.8961 27.2188 10.9927C27.0321 11.0894 26.8554 11.2211 26.6888 11.3877V15.0977H25.4538V9.96772H26.2088C26.3688 9.96772 26.4738 10.0427 26.5238 10.1927L26.6088 10.5977ZM43.2766 7.86772L41.0316 15.0977H39.8166L38.2366 10.1577C38.1932 10.0377 38.1532 9.89105 38.1166 9.71772C38.0966 9.80105 38.0766 9.87938 38.0566 9.95272C38.0366 10.0261 38.0149 10.0944 37.9916 10.1577L36.3966 15.0977H35.1766L32.9366 7.86772H34.0616C34.1782 7.86772 34.2749 7.89605 34.3516 7.95272C34.4316 8.00605 34.4849 8.07938 34.5116 8.17272L35.7416 12.4977C35.7682 12.6044 35.7932 12.7211 35.8166 12.8477C35.8432 12.9711 35.8699 13.1011 35.8966 13.2377C35.9232 13.0977 35.9516 12.9661 35.9816 12.8427C36.0149 12.7194 36.0499 12.6044 36.0866 12.4977L37.5066 8.17272C37.5332 8.09605 37.5849 8.02605 37.6616 7.96272C37.7416 7.89938 37.8382 7.86772 37.9516 7.86772H38.3466C38.4632 7.86772 38.5582 7.89605 38.6316 7.95272C38.7049 8.00938 38.7599 8.08272 38.7966 8.17272L40.2116 12.4977C40.2816 12.7044 40.3449 12.9427 40.4016 13.2127C40.4449 12.9494 40.4932 12.7111 40.5466 12.4977L41.7766 8.17272C41.7966 8.08938 41.8466 8.01772 41.9266 7.95772C42.0099 7.89772 42.1082 7.86772 42.2216 7.86772H43.2766ZM46.6689 11.9427C46.6689 11.7827 46.6456 11.6327 46.5989 11.4927C46.5556 11.3494 46.4889 11.2244 46.3989 11.1177C46.3089 11.0111 46.1939 10.9277 46.0539 10.8677C45.9172 10.8044 45.7572 10.7727 45.5739 10.7727C45.2172 10.7727 44.9356 10.8744 44.7289 11.0777C44.5256 11.2811 44.3956 11.5694 44.3389 11.9427H46.6689ZM44.3139 12.6877C44.3339 12.9511 44.3806 13.1794 44.4539 13.3727C44.5272 13.5627 44.6239 13.7211 44.7439 13.8477C44.8639 13.9711 45.0056 14.0644 45.1689 14.1277C45.3356 14.1877 45.5189 14.2177 45.7189 14.2177C45.9189 14.2177 46.0906 14.1944 46.2339 14.1477C46.3806 14.1011 46.5072 14.0494 46.6139 13.9927C46.7239 13.9361 46.8189 13.8844 46.8989 13.8377C46.9822 13.7911 47.0622 13.7677 47.1389 13.7677C47.2422 13.7677 47.3189 13.8061 47.3689 13.8827L47.7239 14.3327C47.5872 14.4927 47.4339 14.6277 47.2639 14.7377C47.0939 14.8444 46.9156 14.9311 46.7289 14.9977C46.5456 15.0611 46.3572 15.1061 46.1639 15.1327C45.9739 15.1594 45.7889 15.1727 45.6089 15.1727C45.2522 15.1727 44.9206 15.1144 44.6139 14.9977C44.3072 14.8777 44.0406 14.7027 43.8139 14.4727C43.5872 14.2394 43.4089 13.9527 43.2789 13.6127C43.1489 13.2694 43.0839 12.8727 43.0839 12.4227C43.0839 12.0727 43.1406 11.7444 43.2539 11.4377C43.3672 11.1277 43.5289 10.8594 43.7389 10.6327C43.9522 10.4027 44.2106 10.2211 44.5139 10.0877C44.8206 9.95438 45.1656 9.88772 45.5489 9.88772C45.8722 9.88772 46.1706 9.93938 46.4439 10.0427C46.7172 10.1461 46.9522 10.2977 47.1489 10.4977C47.3456 10.6944 47.4989 10.9377 47.6089 11.2277C47.7222 11.5144 47.7789 11.8427 47.7789 12.2127C47.7789 12.3994 47.7589 12.5261 47.7189 12.5927C47.6789 12.6561 47.6022 12.6877 47.4889 12.6877H44.3139ZM49.9857 9.96772V15.0977H48.7457V9.96772H49.9857ZM50.1557 8.47272C50.1557 8.57938 50.134 8.67938 50.0907 8.77272C50.0474 8.86605 49.989 8.94772 49.9157 9.01772C49.8457 9.08772 49.7624 9.14438 49.6657 9.18772C49.569 9.22772 49.4657 9.24772 49.3557 9.24772C49.249 9.24772 49.1474 9.22772 49.0507 9.18772C48.9574 9.14438 48.8757 9.08772 48.8057 9.01772C48.7357 8.94772 48.679 8.86605 48.6357 8.77272C48.5957 8.67938 48.5757 8.57938 48.5757 8.47272C48.5757 8.36272 48.5957 8.25938 48.6357 8.16272C48.679 8.06605 48.7357 7.98272 48.8057 7.91272C48.8757 7.84272 48.9574 7.78772 49.0507 7.74772C49.1474 7.70438 49.249 7.68272 49.3557 7.68272C49.4657 7.68272 49.569 7.70438 49.6657 7.74772C49.7624 7.78772 49.8457 7.84272 49.9157 7.91272C49.989 7.98272 50.0474 8.06605 50.0907 8.16272C50.134 8.25938 50.1557 8.36272 50.1557 8.47272ZM53.1198 12.4077C53.2731 12.4077 53.4064 12.3877 53.5198 12.3477C53.6331 12.3044 53.7264 12.2461 53.7998 12.1727C53.8764 12.0994 53.9331 12.0111 53.9698 11.9077C54.0098 11.8044 54.0298 11.6911 54.0298 11.5677C54.0298 11.3144 53.9531 11.1144 53.7998 10.9677C53.6498 10.8177 53.4231 10.7427 53.1198 10.7427C52.8164 10.7427 52.5881 10.8177 52.4348 10.9677C52.2848 11.1144 52.2098 11.3144 52.2098 11.5677C52.2098 11.6877 52.2281 11.7994 52.2648 11.9027C52.3048 12.0061 52.3614 12.0961 52.4348 12.1727C52.5114 12.2461 52.6064 12.3044 52.7198 12.3477C52.8364 12.3877 52.9698 12.4077 53.1198 12.4077ZM54.5148 15.3277C54.5148 15.2277 54.4848 15.1461 54.4248 15.0827C54.3648 15.0194 54.2831 14.9711 54.1798 14.9377C54.0764 14.9011 53.9548 14.8744 53.8148 14.8577C53.6781 14.8411 53.5314 14.8294 53.3748 14.8227C53.2214 14.8127 53.0614 14.8044 52.8948 14.7977C52.7314 14.7911 52.5714 14.7777 52.4148 14.7577C52.2781 14.8344 52.1664 14.9244 52.0798 15.0277C51.9964 15.1311 51.9548 15.2511 51.9548 15.3877C51.9548 15.4777 51.9764 15.5611 52.0198 15.6377C52.0664 15.7177 52.1381 15.7861 52.2348 15.8427C52.3348 15.8994 52.4631 15.9427 52.6198 15.9727C52.7764 16.0061 52.9681 16.0227 53.1948 16.0227C53.4248 16.0227 53.6231 16.0044 53.7898 15.9677C53.9564 15.9344 54.0931 15.8861 54.1998 15.8227C54.3098 15.7627 54.3898 15.6894 54.4398 15.6027C54.4898 15.5194 54.5148 15.4277 54.5148 15.3277ZM55.7448 10.1427V10.6027C55.7448 10.7494 55.6564 10.8394 55.4798 10.8727L55.0198 10.9577C55.0898 11.1344 55.1248 11.3277 55.1248 11.5377C55.1248 11.7911 55.0731 12.0211 54.9698 12.2277C54.8698 12.4311 54.7298 12.6044 54.5498 12.7477C54.3698 12.8911 54.1564 13.0027 53.9098 13.0827C53.6664 13.1594 53.4031 13.1977 53.1198 13.1977C53.0198 13.1977 52.9231 13.1927 52.8298 13.1827C52.7364 13.1727 52.6448 13.1594 52.5548 13.1427C52.3948 13.2394 52.3148 13.3477 52.3148 13.4677C52.3148 13.5711 52.3614 13.6477 52.4548 13.6977C52.5514 13.7444 52.6781 13.7777 52.8348 13.7977C52.9914 13.8177 53.1698 13.8311 53.3698 13.8377C53.5698 13.8411 53.7748 13.8511 53.9848 13.8677C54.1948 13.8844 54.3998 13.9144 54.5998 13.9577C54.7998 13.9977 54.9781 14.0627 55.1348 14.1527C55.2914 14.2427 55.4164 14.3661 55.5098 14.5227C55.6064 14.6761 55.6548 14.8744 55.6548 15.1177C55.6548 15.3444 55.5981 15.5644 55.4848 15.7777C55.3748 15.9911 55.2131 16.1811 54.9998 16.3477C54.7898 16.5144 54.5298 16.6477 54.2198 16.7477C53.9131 16.8511 53.5631 16.9027 53.1698 16.9027C52.7831 16.9027 52.4464 16.8644 52.1598 16.7877C51.8731 16.7144 51.6348 16.6144 51.4448 16.4877C51.2548 16.3644 51.1131 16.2211 51.0198 16.0577C50.9264 15.8944 50.8798 15.7244 50.8798 15.5477C50.8798 15.3077 50.9514 15.1077 51.0948 14.9477C51.2414 14.7844 51.4414 14.6544 51.6948 14.5577C51.5581 14.4877 51.4498 14.3944 51.3698 14.2777C51.2898 14.1611 51.2498 14.0077 51.2498 13.8177C51.2498 13.7411 51.2631 13.6627 51.2898 13.5827C51.3198 13.4994 51.3614 13.4177 51.4148 13.3377C51.4714 13.2577 51.5414 13.1827 51.6248 13.1127C51.7081 13.0394 51.8064 12.9744 51.9198 12.9177C51.6598 12.7777 51.4548 12.5911 51.3048 12.3577C51.1581 12.1244 51.0848 11.8511 51.0848 11.5377C51.0848 11.2844 51.1348 11.0561 51.2348 10.8527C51.3381 10.6461 51.4798 10.4711 51.6598 10.3277C51.8431 10.1811 52.0581 10.0694 52.3048 9.99272C52.5548 9.91605 52.8264 9.87772 53.1198 9.87772C53.3398 9.87772 53.5464 9.90105 53.7398 9.94772C53.9331 9.99105 54.1098 10.0561 54.2698 10.1427H55.7448ZM57.763 10.5177C57.963 10.3311 58.183 10.1794 58.423 10.0627C58.663 9.94605 58.9446 9.88772 59.268 9.88772C59.548 9.88772 59.7963 9.93605 60.013 10.0327C60.2296 10.1261 60.4096 10.2594 60.553 10.4327C60.6996 10.6027 60.8096 10.8077 60.883 11.0477C60.9596 11.2844 60.998 11.5461 60.998 11.8327V15.0977H59.763V11.8327C59.763 11.5194 59.6913 11.2777 59.548 11.1077C59.4046 10.9344 59.1863 10.8477 58.893 10.8477C58.6796 10.8477 58.4796 10.8961 58.293 10.9927C58.1063 11.0894 57.9296 11.2211 57.763 11.3877V15.0977H56.528V7.66772H57.763V10.5177ZM63.8141 15.1777C63.3675 15.1777 63.0241 15.0527 62.7841 14.8027C62.5475 14.5494 62.4291 14.2011 62.4291 13.7577V10.8927H61.9041C61.8375 10.8927 61.7808 10.8711 61.7341 10.8277C61.6875 10.7844 61.6641 10.7194 61.6641 10.6327V10.1427L62.4891 10.0077L62.7491 8.60772C62.7658 8.54105 62.7975 8.48938 62.8441 8.45272C62.8908 8.41605 62.9508 8.39772 63.0241 8.39772H63.6641V10.0127H65.0341V10.8927H63.6641V13.6727C63.6641 13.8327 63.7025 13.9577 63.7791 14.0477C63.8591 14.1377 63.9675 14.1827 64.1041 14.1827C64.1808 14.1827 64.2441 14.1744 64.2941 14.1577C64.3475 14.1377 64.3925 14.1177 64.4291 14.0977C64.4691 14.0777 64.5041 14.0594 64.5341 14.0427C64.5641 14.0227 64.5941 14.0127 64.6241 14.0127C64.6608 14.0127 64.6908 14.0227 64.7141 14.0427C64.7375 14.0594 64.7625 14.0861 64.7891 14.1227L65.1591 14.7227C64.9791 14.8727 64.7725 14.9861 64.5391 15.0627C64.3058 15.1394 64.0641 15.1777 63.8141 15.1777Z" fill="white"/>
<path d="M35.304 23.2822V22.6182H36.808V28.4022H36.072V23.2822H35.304ZM38.4105 28.4502C38.2718 28.4502 38.1545 28.4022 38.0585 28.3062C37.9625 28.2102 37.9145 28.0929 37.9145 27.9542C37.9145 27.8156 37.9625 27.6982 38.0585 27.6022C38.1545 27.5062 38.2718 27.4582 38.4105 27.4582C38.5438 27.4582 38.6558 27.5062 38.7465 27.6022C38.8425 27.6982 38.8905 27.8156 38.8905 27.9542C38.8905 28.0929 38.8425 28.2102 38.7465 28.3062C38.6558 28.4022 38.5438 28.4502 38.4105 28.4502ZM43.4262 23.2502H40.6182V25.0742C40.7409 24.9036 40.9222 24.7649 41.1622 24.6582C41.4022 24.5462 41.6609 24.4902 41.9382 24.4902C42.3809 24.4902 42.7409 24.5836 43.0182 24.7702C43.2955 24.9516 43.4929 25.1889 43.6102 25.4822C43.7329 25.7702 43.7942 26.0769 43.7942 26.4022C43.7942 26.7862 43.7222 27.1302 43.5782 27.4342C43.4342 27.7382 43.2129 27.9782 42.9142 28.1542C42.6209 28.3302 42.2555 28.4182 41.8182 28.4182C41.2582 28.4182 40.8049 28.2742 40.4582 27.9862C40.1115 27.6982 39.9009 27.3142 39.8262 26.8342H40.5382C40.6075 27.1382 40.7542 27.3756 40.9782 27.5462C41.2022 27.7169 41.4849 27.8022 41.8262 27.8022C42.2475 27.8022 42.5649 27.6769 42.7782 27.4262C42.9915 27.1702 43.0982 26.8342 43.0982 26.4182C43.0982 26.0022 42.9915 25.6822 42.7782 25.4582C42.5649 25.2289 42.2502 25.1142 41.8342 25.1142C41.5515 25.1142 41.3035 25.1836 41.0902 25.3222C40.8822 25.4556 40.7302 25.6396 40.6342 25.8742H39.9462V22.6102H43.4262V23.2502ZM45.8176 25.3942C45.519 25.2769 45.2896 25.1062 45.1296 24.8822C44.9696 24.6582 44.8896 24.3862 44.8896 24.0662C44.8896 23.7782 44.9616 23.5196 45.1056 23.2902C45.2496 23.0556 45.463 22.8716 45.7456 22.7382C46.0336 22.5996 46.3803 22.5302 46.7856 22.5302C47.191 22.5302 47.535 22.5996 47.8176 22.7382C48.1056 22.8716 48.3216 23.0556 48.4656 23.2902C48.615 23.5196 48.6896 23.7782 48.6896 24.0662C48.6896 24.3756 48.607 24.6476 48.4416 24.8822C48.2763 25.1116 48.0496 25.2822 47.7616 25.3942C48.0923 25.4956 48.3536 25.6742 48.5456 25.9302C48.743 26.1809 48.8416 26.4849 48.8416 26.8422C48.8416 27.1889 48.7563 27.4929 48.5856 27.7542C48.415 28.0102 48.1723 28.2102 47.8576 28.3542C47.5483 28.4929 47.191 28.5622 46.7856 28.5622C46.3803 28.5622 46.023 28.4929 45.7136 28.3542C45.4096 28.2102 45.1723 28.0102 45.0016 27.7542C44.831 27.4929 44.7456 27.1889 44.7456 26.8422C44.7456 26.4849 44.8416 26.1782 45.0336 25.9222C45.2256 25.6662 45.487 25.4902 45.8176 25.3942ZM47.9856 24.1542C47.9856 23.8289 47.879 23.5782 47.6656 23.4022C47.4523 23.2262 47.159 23.1382 46.7856 23.1382C46.4176 23.1382 46.127 23.2262 45.9136 23.4022C45.7003 23.5782 45.5936 23.8316 45.5936 24.1622C45.5936 24.4609 45.703 24.7009 45.9216 24.8822C46.1456 25.0636 46.4336 25.1542 46.7856 25.1542C47.143 25.1542 47.431 25.0636 47.6496 24.8822C47.8736 24.6956 47.9856 24.4529 47.9856 24.1542ZM46.7856 25.7142C46.391 25.7142 46.0683 25.8076 45.8176 25.9942C45.567 26.1756 45.4416 26.4502 45.4416 26.8182C45.4416 27.1596 45.5616 27.4342 45.8016 27.6422C46.047 27.8502 46.375 27.9542 46.7856 27.9542C47.1963 27.9542 47.5216 27.8502 47.7616 27.6422C48.0016 27.4342 48.1216 27.1596 48.1216 26.8182C48.1216 26.4609 47.999 26.1889 47.7536 26.0022C47.5083 25.8102 47.1856 25.7142 46.7856 25.7142ZM49.8085 25.4502C49.8085 24.5329 49.9578 23.8182 50.2565 23.3062C50.5552 22.7889 51.0778 22.5302 51.8245 22.5302C52.5658 22.5302 53.0858 22.7889 53.3845 23.3062C53.6832 23.8182 53.8325 24.5329 53.8325 25.4502C53.8325 26.3836 53.6832 27.1089 53.3845 27.6262C53.0858 28.1436 52.5658 28.4022 51.8245 28.4022C51.0778 28.4022 50.5552 28.1436 50.2565 27.6262C49.9578 27.1089 49.8085 26.3836 49.8085 25.4502ZM53.1125 25.4502C53.1125 24.9862 53.0805 24.5942 53.0165 24.2742C52.9578 23.9489 52.8325 23.6876 52.6405 23.4902C52.4538 23.2929 52.1818 23.1942 51.8245 23.1942C51.4618 23.1942 51.1845 23.2929 50.9925 23.4902C50.8058 23.6876 50.6805 23.9489 50.6165 24.2742C50.5578 24.5942 50.5285 24.9862 50.5285 25.4502C50.5285 25.9302 50.5578 26.3329 50.6165 26.6582C50.6805 26.9836 50.8058 27.2449 50.9925 27.4422C51.1845 27.6396 51.4618 27.7382 51.8245 27.7382C52.1818 27.7382 52.4538 27.6396 52.6405 27.4422C52.8325 27.2449 52.9578 26.9836 53.0165 26.6582C53.0805 26.3329 53.1125 25.9302 53.1125 25.4502ZM59.5328 28.4022L57.8128 26.4662V28.4022H57.0848V22.4822H57.8128V25.9622L59.5008 24.0182H60.5168L58.4528 26.2022L60.5248 28.4022H59.5328ZM63.0099 23.9462C63.3886 23.9462 63.7193 24.0289 64.0019 24.1942C64.2899 24.3596 64.5033 24.5676 64.6419 24.8182V24.0182H65.3779V28.4982C65.3779 28.8982 65.2926 29.2529 65.1219 29.5622C64.9513 29.8769 64.7059 30.1222 64.3859 30.2982C64.0713 30.4742 63.7033 30.5622 63.2819 30.5622C62.7059 30.5622 62.2259 30.4262 61.8419 30.1542C61.4579 29.8822 61.2313 29.5116 61.1619 29.0422H61.8819C61.9619 29.3089 62.1273 29.5222 62.3779 29.6822C62.6286 29.8476 62.9299 29.9302 63.2819 29.9302C63.6819 29.9302 64.0073 29.8049 64.2579 29.5542C64.5139 29.3036 64.6419 28.9516 64.6419 28.4982V27.5782C64.4979 27.8342 64.2846 28.0476 64.0019 28.2182C63.7193 28.3889 63.3886 28.4742 63.0099 28.4742C62.6206 28.4742 62.2659 28.3782 61.9459 28.1862C61.6313 27.9942 61.3833 27.7249 61.2019 27.3782C61.0206 27.0316 60.9299 26.6369 60.9299 26.1942C60.9299 25.7462 61.0206 25.3542 61.2019 25.0182C61.3833 24.6769 61.6313 24.4129 61.9459 24.2262C62.2659 24.0396 62.6206 23.9462 63.0099 23.9462ZM64.6419 26.2022C64.6419 25.8716 64.5753 25.5836 64.4419 25.3382C64.3086 25.0929 64.1273 24.9062 63.8979 24.7782C63.6739 24.6449 63.4259 24.5782 63.1539 24.5782C62.8819 24.5782 62.6339 24.6422 62.4099 24.7702C62.1859 24.8982 62.0073 25.0849 61.8739 25.3302C61.7406 25.5756 61.6739 25.8636 61.6739 26.1942C61.6739 26.5302 61.7406 26.8236 61.8739 27.0742C62.0073 27.3196 62.1859 27.5089 62.4099 27.6422C62.6339 27.7702 62.8819 27.8342 63.1539 27.8342C63.4259 27.8342 63.6739 27.7702 63.8979 27.6422C64.1273 27.5089 64.3086 27.3196 64.4419 27.0742C64.5753 26.8236 64.6419 26.5329 64.6419 26.2022Z" fill="white"/>
<rect x="72" width="36.5" height="36.5" rx="18.25" fill="white"/>
<path fill-rule="evenodd" clip-rule="evenodd" d="M89.7867 9.63624C89.9258 9.54932 90.0865 9.50323 90.2505 9.50323C90.4145 9.50323 90.5752 9.54932 90.7142 9.63624L96.7552 13.4119L90.2505 17.2382L83.7457 13.4119L89.7867 9.63624ZM82.3825 14.6404C82.3777 14.6778 82.3754 14.7155 82.3755 14.7532V21.7532C82.3755 21.9016 82.4132 22.0476 82.4852 22.1774C82.5571 22.3072 82.6609 22.4166 82.7867 22.4952L89.3755 26.613V18.7537L82.3825 14.6404ZM91.1255 26.613L97.7142 22.4952C97.8401 22.4166 97.9439 22.3072 98.0158 22.1774C98.0877 22.0476 98.1255 21.9016 98.1255 21.7532V14.7532C98.1255 14.7153 98.1232 14.6777 98.1185 14.6404L91.1255 18.7529V26.613Z" fill="#DE5AD5"/>
</svg>
