<svg width="126" height="37" viewBox="0 0 126 37" fill="none" xmlns="http://www.w3.org/2000/svg">
<path d="M37.7501 13.3986C37.8232 13.3986 37.888 13.4268 37.9444 13.4833L38.4726 14.0563C38.1803 14.4184 37.8199 14.6958 37.3914 14.8884C36.9662 15.0811 36.4546 15.1774 35.8567 15.1774C35.3218 15.1774 34.8402 15.0861 34.4117 14.9034C33.9865 14.7207 33.6227 14.4666 33.3204 14.141C33.0181 13.8155 32.7856 13.4268 32.6228 12.9751C32.4634 12.5233 32.3837 12.03 32.3837 11.4952C32.3837 10.9537 32.47 10.4588 32.6428 10.0103C32.8155 9.55854 33.058 9.16988 33.3703 8.84434C33.6858 8.5188 34.0612 8.26634 34.4964 8.08696C34.9315 7.90426 35.4132 7.81291 35.9414 7.81291C36.4662 7.81291 36.9313 7.89928 37.3365 8.07201C37.7451 8.24475 38.0923 8.47063 38.3779 8.74967L37.9295 9.37251C37.9029 9.41238 37.868 9.44726 37.8249 9.47715C37.785 9.50705 37.7285 9.522 37.6554 9.522C37.6056 9.522 37.5541 9.50871 37.501 9.48214C37.4478 9.45224 37.3897 9.41736 37.3266 9.3775C37.2635 9.33431 37.1904 9.28781 37.1073 9.23798C37.0243 9.18815 36.928 9.14331 36.8183 9.10345C36.7087 9.06026 36.5808 9.02538 36.4347 8.99881C36.2918 8.96891 36.1257 8.95396 35.9364 8.95396C35.6142 8.95396 35.3185 9.01209 35.0495 9.12836C34.7837 9.2413 34.5545 9.40739 34.3618 9.62664C34.1692 9.84256 34.0197 10.1083 33.9134 10.4239C33.8071 10.7361 33.7539 11.0932 33.7539 11.4952C33.7539 11.9004 33.8104 12.2609 33.9233 12.5764C34.0396 12.892 34.1957 13.1578 34.3917 13.3737C34.5877 13.5896 34.8186 13.7557 35.0843 13.872C35.3501 13.9849 35.6358 14.0414 35.9414 14.0414C36.1241 14.0414 36.2885 14.0314 36.4347 14.0115C36.5841 13.9915 36.7203 13.96 36.8433 13.9168C36.9695 13.8736 37.0874 13.8188 37.197 13.7524C37.31 13.6826 37.4213 13.5979 37.5309 13.4982C37.5641 13.4684 37.599 13.4451 37.6355 13.4285C37.6721 13.4086 37.7103 13.3986 37.7501 13.3986ZM41.8971 12.9153C41.5417 12.9319 41.2427 12.9634 41.0002 13.0099C40.7577 13.0531 40.5634 13.1096 40.4172 13.1794C40.2711 13.2491 40.1664 13.3305 40.1033 13.4235C40.0402 13.5165 40.0086 13.6178 40.0086 13.7275C40.0086 13.9434 40.0717 14.0978 40.198 14.1909C40.3275 14.2839 40.4953 14.3304 40.7012 14.3304C40.9537 14.3304 41.1713 14.2855 41.354 14.1958C41.54 14.1028 41.721 13.9633 41.8971 13.7773V12.9153ZM39.0769 10.6979C39.6648 10.1598 40.3724 9.89072 41.1995 9.89072C41.4985 9.89072 41.7659 9.94055 42.0017 10.0402C42.2376 10.1365 42.4369 10.2727 42.5997 10.4488C42.7624 10.6215 42.8854 10.8291 42.9684 11.0716C43.0548 11.3141 43.098 11.5799 43.098 11.8689V15.0977H42.5399C42.4236 15.0977 42.3339 15.0811 42.2708 15.0479C42.2077 15.0113 42.1579 14.9399 42.1213 14.8336L42.0117 14.4649C41.8822 14.5812 41.7559 14.6841 41.633 14.7738C41.5101 14.8602 41.3822 14.9333 41.2493 14.9931C41.1165 15.0529 40.9736 15.0977 40.8208 15.1276C40.6713 15.1608 40.5053 15.1774 40.3225 15.1774C40.1066 15.1774 39.9073 15.1492 39.7246 15.0927C39.5419 15.0329 39.3841 14.9449 39.2513 14.8286C39.1184 14.7124 39.0154 14.5679 38.9423 14.3951C38.8692 14.2224 38.8327 14.0214 38.8327 13.7922C38.8327 13.6627 38.8543 13.5348 38.8975 13.4086C38.9407 13.279 39.0104 13.1561 39.1068 13.0398C39.2064 12.9236 39.3343 12.8139 39.4904 12.711C39.6466 12.608 39.8376 12.5183 40.0634 12.4419C40.2927 12.3655 40.5584 12.304 40.8607 12.2575C41.163 12.2077 41.5084 12.1778 41.8971 12.1678V11.8689C41.8971 11.5267 41.824 11.2743 41.6779 11.1115C41.5317 10.9454 41.3208 10.8624 41.0451 10.8624C40.8457 10.8624 40.6796 10.8856 40.5468 10.9321C40.4172 10.9786 40.3026 11.0318 40.203 11.0916C40.1033 11.148 40.012 11.1995 39.9289 11.246C39.8492 11.2925 39.7595 11.3158 39.6598 11.3158C39.5735 11.3158 39.5004 11.2942 39.4406 11.251C39.3808 11.2045 39.3326 11.1514 39.2961 11.0916L39.0769 10.6979ZM45.4181 10.8723C45.5775 10.5667 45.7668 10.3275 45.9861 10.1548C46.2053 9.97875 46.4644 9.89072 46.7634 9.89072C46.9993 9.89072 47.1886 9.94221 47.3314 10.0452L47.2517 10.967C47.2351 11.0268 47.2102 11.07 47.177 11.0966C47.1471 11.1198 47.1056 11.1314 47.0524 11.1314C47.0026 11.1314 46.9278 11.1231 46.8282 11.1065C46.7318 11.0899 46.6372 11.0816 46.5442 11.0816C46.408 11.0816 46.2867 11.1015 46.1804 11.1414C46.0741 11.1813 45.9778 11.2394 45.8914 11.3158C45.8084 11.3889 45.7336 11.4786 45.6672 11.5849C45.6041 11.6912 45.5443 11.8124 45.4878 11.9486V15.0977H44.2571V9.9854H44.9796C45.1058 9.9854 45.1938 10.0086 45.2437 10.0552C45.2935 10.0983 45.3267 10.1781 45.3433 10.2943L45.4181 10.8723ZM49.6788 15.1774C49.2337 15.1774 48.8915 15.0529 48.6523 14.8037C48.4165 14.5513 48.2986 14.2041 48.2986 13.7623V10.9072H47.7754C47.7089 10.9072 47.6525 10.8856 47.606 10.8424C47.5595 10.7992 47.5362 10.7345 47.5362 10.6481V10.1598L48.3584 10.0253L48.6175 8.63008C48.6341 8.56365 48.6656 8.51216 48.7121 8.47562C48.7586 8.43908 48.8184 8.42081 48.8915 8.42081H49.5293V10.0302H50.8946V10.9072H49.5293V13.6776C49.5293 13.8371 49.5675 13.9616 49.6439 14.0513C49.7236 14.141 49.8316 14.1859 49.9678 14.1859C50.0442 14.1859 50.1073 14.1776 50.1571 14.161C50.2103 14.141 50.2551 14.1211 50.2917 14.1012C50.3315 14.0812 50.3664 14.063 50.3963 14.0464C50.4262 14.0264 50.4561 14.0165 50.486 14.0165C50.5225 14.0165 50.5524 14.0264 50.5757 14.0464C50.5989 14.063 50.6239 14.0895 50.6504 14.1261L51.0192 14.724C50.8398 14.8735 50.6338 14.9864 50.4013 15.0628C50.1688 15.1392 49.9279 15.1774 49.6788 15.1774ZM53.9058 9.90567C54.2845 9.90567 54.6283 9.96713 54.9372 10.09C55.2495 10.2129 55.5152 10.3873 55.7345 10.6132C55.9571 10.8391 56.1281 11.1148 56.2477 11.4404C56.3673 11.7659 56.4271 12.1296 56.4271 12.5316C56.4271 12.9369 56.3673 13.3023 56.2477 13.6278C56.1281 13.9533 55.9571 14.2307 55.7345 14.4599C55.5152 14.6891 55.2495 14.8652 54.9372 14.9881C54.6283 15.111 54.2845 15.1725 53.9058 15.1725C53.5238 15.1725 53.1767 15.111 52.8644 14.9881C52.5522 14.8652 52.2848 14.6891 52.0622 14.4599C51.8429 14.2307 51.6719 13.9533 51.549 13.6278C51.4294 13.3023 51.3696 12.9369 51.3696 12.5316C51.3696 12.1296 51.4294 11.7659 51.549 11.4404C51.6719 11.1148 51.8429 10.8391 52.0622 10.6132C52.2848 10.3873 52.5522 10.2129 52.8644 10.09C53.1767 9.96713 53.5238 9.90567 53.9058 9.90567ZM53.9058 14.2257C54.331 14.2257 54.6449 14.0829 54.8476 13.7972C55.0535 13.5115 55.1565 13.093 55.1565 12.5416C55.1565 11.9901 55.0535 11.5699 54.8476 11.2809C54.6449 10.9919 54.331 10.8474 53.9058 10.8474C53.474 10.8474 53.1534 10.9936 52.9441 11.2859C52.7382 11.5749 52.6352 11.9935 52.6352 12.5416C52.6352 13.0897 52.7382 13.5082 52.9441 13.7972C53.1534 14.0829 53.474 14.2257 53.9058 14.2257ZM58.5171 10.6132C58.62 10.5102 58.728 10.4156 58.8409 10.3292C58.9572 10.2395 59.0784 10.1648 59.2047 10.105C59.3342 10.0419 59.4721 9.9937 59.6182 9.96048C59.7644 9.92394 59.9239 9.90567 60.0966 9.90567C60.3756 9.90567 60.6231 9.95384 60.839 10.0502C61.0549 10.1432 61.2343 10.2761 61.3772 10.4488C61.5233 10.6182 61.6329 10.8225 61.706 11.0617C61.7824 11.2975 61.8206 11.5583 61.8206 11.844V15.0977H60.5899V11.844C60.5899 11.5317 60.5185 11.2909 60.3756 11.1215C60.2328 10.9487 60.0152 10.8624 59.7229 10.8624C59.5103 10.8624 59.311 10.9105 59.125 11.0069C58.9389 11.1032 58.7629 11.2344 58.5968 11.4005V15.0977H57.366V9.9854H58.1184C58.2779 9.9854 58.3825 10.0601 58.4323 10.2096L58.5171 10.6132ZM69.4454 9.2031C69.4056 9.27286 69.3624 9.32435 69.3159 9.35757C69.2727 9.38746 69.2179 9.40241 69.1515 9.40241C69.0817 9.40241 69.0053 9.3775 68.9222 9.32767C68.8425 9.27452 68.7462 9.21639 68.6332 9.15327C68.5203 9.09016 68.3874 9.03369 68.2346 8.98386C68.0851 8.93071 67.9074 8.90413 67.7015 8.90413C67.5154 8.90413 67.3527 8.92739 67.2132 8.97389C67.0736 9.01708 66.9557 9.07853 66.8594 9.15826C66.7664 9.23798 66.6966 9.33431 66.6501 9.44726C66.6036 9.55688 66.5803 9.67812 66.5803 9.811C66.5803 9.98041 66.6268 10.1216 66.7199 10.2345C66.8162 10.3475 66.9424 10.4438 67.0986 10.5235C67.2547 10.6033 67.4324 10.6747 67.6317 10.7378C67.831 10.8009 68.0353 10.869 68.2446 10.9421C68.4539 11.0118 68.6582 11.0949 68.8575 11.1912C69.0568 11.2842 69.2345 11.4038 69.3906 11.55C69.5468 11.6928 69.6713 11.8689 69.7643 12.0782C69.8607 12.2874 69.9088 12.5416 69.9088 12.8405C69.9088 13.1661 69.8524 13.4717 69.7394 13.7574C69.6298 14.0397 69.467 14.2872 69.2511 14.4998C69.0385 14.7091 68.7777 14.8752 68.4688 14.9981C68.1599 15.1176 67.8061 15.1774 67.4075 15.1774C67.1783 15.1774 66.9524 15.1542 66.7298 15.1077C66.5073 15.0645 66.293 15.0014 66.087 14.9183C65.8844 14.8353 65.6934 14.7356 65.514 14.6194C65.3347 14.5031 65.1752 14.3736 65.0357 14.2307L65.4293 13.5879C65.4625 13.5414 65.5057 13.5032 65.5589 13.4733C65.612 13.4401 65.6685 13.4235 65.7283 13.4235C65.8113 13.4235 65.901 13.4584 65.9974 13.5281C66.0937 13.5946 66.2083 13.6693 66.3412 13.7524C66.474 13.8354 66.6285 13.9118 66.8046 13.9816C66.9839 14.048 67.1982 14.0812 67.4473 14.0812C67.8294 14.0812 68.125 13.9915 68.3343 13.8122C68.5436 13.6295 68.6482 13.3687 68.6482 13.0299C68.6482 12.8405 68.6 12.6861 68.5037 12.5665C68.4107 12.4469 68.2861 12.3472 68.13 12.2675C67.9739 12.1845 67.7961 12.1147 67.5968 12.0582C67.3975 12.0018 67.1949 11.9403 66.9889 11.8739C66.783 11.8074 66.5803 11.7277 66.381 11.6347C66.1817 11.5417 66.004 11.4204 65.8479 11.271C65.6917 11.1215 65.5655 10.9354 65.4692 10.7129C65.3762 10.487 65.3297 10.2096 65.3297 9.88076C65.3297 9.61833 65.3812 9.36255 65.4841 9.11341C65.5904 8.86427 65.7432 8.64337 65.9425 8.4507C66.1419 8.25804 66.3877 8.10357 66.68 7.9873C66.9723 7.87104 67.3078 7.81291 67.6865 7.81291C68.1117 7.81291 68.5037 7.87935 68.8625 8.01222C69.2212 8.14509 69.5268 8.33112 69.7793 8.57029L69.4454 9.2031ZM72.1399 9.9854V15.0977H70.9041V9.9854H72.1399ZM72.3093 8.49555C72.3093 8.60185 72.2877 8.7015 72.2445 8.79451C72.2013 8.88753 72.1432 8.96891 72.0701 9.03867C72.0004 9.10843 71.9173 9.1649 71.821 9.20808C71.7246 9.24795 71.6217 9.26788 71.512 9.26788C71.4057 9.26788 71.3044 9.24795 71.2081 9.20808C71.1151 9.1649 71.0337 9.10843 70.9639 9.03867C70.8942 8.96891 70.8377 8.88753 70.7945 8.79451C70.7547 8.7015 70.7347 8.60185 70.7347 8.49555C70.7347 8.38593 70.7547 8.28295 70.7945 8.18662C70.8377 8.09028 70.8942 8.00724 70.9639 7.93748C71.0337 7.86772 71.1151 7.81291 71.2081 7.77305C71.3044 7.72986 71.4057 7.70827 71.512 7.70827C71.6217 7.70827 71.7246 7.72986 71.821 7.77305C71.9173 7.81291 72.0004 7.86772 72.0701 7.93748C72.1432 8.00724 72.2013 8.09028 72.2445 8.18662C72.2877 8.28295 72.3093 8.38593 72.3093 8.49555ZM77.0669 10.4936C77.0669 10.58 77.0519 10.6647 77.022 10.7478C76.9922 10.8308 76.9523 10.8989 76.9025 10.9521L74.4759 14.151H76.9922V15.0977H73.0458V14.5845C73.0458 14.528 73.0591 14.4616 73.0857 14.3852C73.1122 14.3055 73.1521 14.2307 73.2052 14.161L75.6568 10.9271H73.1903V9.9854H77.0669V10.4936ZM81.1844 11.9536C81.1844 11.7941 81.1611 11.6447 81.1146 11.5051C81.0714 11.3623 81.005 11.2377 80.9153 11.1314C80.8256 11.0251 80.711 10.9421 80.5715 10.8823C80.4353 10.8192 80.2758 10.7876 80.0931 10.7876C79.7377 10.7876 79.457 10.8889 79.2511 11.0916C79.0484 11.2942 78.9189 11.5815 78.8624 11.9536H81.1844ZM78.8375 12.696C78.8574 12.9584 78.9039 13.186 78.977 13.3787C79.0501 13.568 79.1464 13.7258 79.266 13.852C79.3856 13.9749 79.5268 14.0679 79.6895 14.1311C79.8556 14.1909 80.0383 14.2207 80.2376 14.2207C80.437 14.2207 80.608 14.1975 80.7509 14.151C80.897 14.1045 81.0233 14.053 81.1296 13.9965C81.2392 13.9401 81.3339 13.8886 81.4136 13.8421C81.4966 13.7956 81.5764 13.7723 81.6528 13.7723C81.7557 13.7723 81.8321 13.8105 81.882 13.8869L82.2357 14.3354C82.0995 14.4948 81.9467 14.6293 81.7773 14.739C81.6079 14.8453 81.4302 14.9316 81.2442 14.9981C81.0615 15.0612 80.8738 15.106 80.6811 15.1326C80.4918 15.1592 80.3074 15.1725 80.128 15.1725C79.7726 15.1725 79.4421 15.1143 79.1365 14.9981C78.8308 14.8785 78.5651 14.7041 78.3392 14.4749C78.1133 14.2423 77.9356 13.9567 77.8061 13.6178C77.6765 13.2757 77.6117 12.8804 77.6117 12.4319C77.6117 12.0831 77.6682 11.7559 77.7811 11.4503C77.8941 11.1414 78.0552 10.874 78.2645 10.6481C78.4771 10.4189 78.7345 10.2379 79.0368 10.105C79.3424 9.97211 79.6862 9.90567 80.0682 9.90567C80.3905 9.90567 80.6878 9.95716 80.9601 10.0601C81.2325 10.1631 81.4667 10.3143 81.6627 10.5136C81.8587 10.7096 82.0115 10.9521 82.1211 11.2411C82.2341 11.5267 82.2905 11.8539 82.2905 12.2227C82.2905 12.4087 82.2706 12.5349 82.2308 12.6013C82.1909 12.6645 82.1145 12.696 82.0015 12.696H78.8375Z" fill="white"/>
<path d="M3.72 23.9942C3.60267 23.4022 3.23733 23.1062 2.624 23.1062C2.14933 23.1062 1.79467 23.2902 1.56 23.6582C1.32533 24.0209 1.21067 24.6209 1.216 25.4582C1.33867 25.1809 1.54133 24.9649 1.824 24.8102C2.112 24.6502 2.432 24.5702 2.784 24.5702C3.33333 24.5702 3.77067 24.7409 4.096 25.0822C4.42667 25.4236 4.592 25.8956 4.592 26.4982C4.592 26.8609 4.52 27.1862 4.376 27.4742C4.23733 27.7622 4.024 27.9916 3.736 28.1622C3.45333 28.3329 3.10933 28.4182 2.704 28.4182C2.15467 28.4182 1.72533 28.2956 1.416 28.0502C1.10667 27.8049 0.890667 27.4662 0.768 27.0342C0.645333 26.6022 0.584 26.0689 0.584 25.4342C0.584 23.4769 1.26667 22.4982 2.632 22.4982C3.15467 22.4982 3.56533 22.6396 3.864 22.9222C4.16267 23.2049 4.33867 23.5622 4.392 23.9942H3.72ZM2.632 25.1862C2.40267 25.1862 2.18667 25.2342 1.984 25.3302C1.78133 25.4209 1.616 25.5622 1.488 25.7542C1.36533 25.9409 1.304 26.1702 1.304 26.4422C1.304 26.8476 1.42133 27.1782 1.656 27.4342C1.89067 27.6849 2.22667 27.8102 2.664 27.8102C3.03733 27.8102 3.33333 27.6956 3.552 27.4662C3.776 27.2316 3.888 26.9169 3.888 26.5222C3.888 26.1062 3.78133 25.7809 3.568 25.5462C3.35467 25.3062 3.04267 25.1862 2.632 25.1862ZM9.26213 23.2502H6.45413V25.0742C6.57679 24.9036 6.75813 24.7649 6.99813 24.6582C7.23813 24.5462 7.49679 24.4902 7.77413 24.4902C8.21679 24.4902 8.57679 24.5836 8.85413 24.7702C9.13146 24.9516 9.32879 25.1889 9.44613 25.4822C9.56879 25.7702 9.63013 26.0769 9.63013 26.4022C9.63013 26.7862 9.55813 27.1302 9.41413 27.4342C9.27013 27.7382 9.04879 27.9782 8.75013 28.1542C8.45679 28.3302 8.09146 28.4182 7.65413 28.4182C7.09413 28.4182 6.64079 28.2742 6.29413 27.9862C5.94746 27.6982 5.73679 27.3142 5.66213 26.8342H6.37413C6.44346 27.1382 6.59013 27.3756 6.81413 27.5462C7.03813 27.7169 7.32079 27.8022 7.66213 27.8022C8.08346 27.8022 8.40079 27.6769 8.61413 27.4262C8.82746 27.1702 8.93413 26.8342 8.93413 26.4182C8.93413 26.0022 8.82746 25.6822 8.61413 25.4582C8.40079 25.2289 8.08613 25.1142 7.67013 25.1142C7.38746 25.1142 7.13946 25.1836 6.92613 25.3222C6.71813 25.4556 6.56613 25.6396 6.47013 25.8742H5.78213V22.6102H9.26213V23.2502ZM10.5976 25.4502C10.5976 24.5329 10.7469 23.8182 11.0456 23.3062C11.3442 22.7889 11.8669 22.5302 12.6136 22.5302C13.3549 22.5302 13.8749 22.7889 14.1736 23.3062C14.4722 23.8182 14.6216 24.5329 14.6216 25.4502C14.6216 26.3836 14.4722 27.1089 14.1736 27.6262C13.8749 28.1436 13.3549 28.4022 12.6136 28.4022C11.8669 28.4022 11.3442 28.1436 11.0456 27.6262C10.7469 27.1089 10.5976 26.3836 10.5976 25.4502ZM13.9016 25.4502C13.9016 24.9862 13.8696 24.5942 13.8056 24.2742C13.7469 23.9489 13.6216 23.6876 13.4296 23.4902C13.2429 23.2929 12.9709 23.1942 12.6136 23.1942C12.2509 23.1942 11.9736 23.2929 11.7816 23.4902C11.5949 23.6876 11.4696 23.9489 11.4056 24.2742C11.3469 24.5942 11.3176 24.9862 11.3176 25.4502C11.3176 25.9302 11.3469 26.3329 11.4056 26.6582C11.4696 26.9836 11.5949 27.2449 11.7816 27.4422C11.9736 27.6396 12.2509 27.7382 12.6136 27.7382C12.9709 27.7382 13.2429 27.6396 13.4296 27.4422C13.6216 27.2449 13.7469 26.9836 13.8056 26.6582C13.8696 26.3329 13.9016 25.9302 13.9016 25.4502ZM21.1058 27.2022L19.8338 25.9302L18.5618 27.2022L18.0818 26.7222L19.3538 25.4502L18.1058 24.2022L18.5698 23.7302L19.8258 24.9862L21.0818 23.7302L21.5618 24.2102L20.3058 25.4662L21.5698 26.7382L21.1058 27.2022ZM24.8513 27.1142V26.5622L27.6593 22.6742H28.5312V26.4822H29.3313V27.1142H28.5312V28.4022H27.8113V27.1142H24.8513ZM27.8433 23.4342L25.6913 26.4822H27.8433V23.4342ZM33.7465 23.2502H30.9385V25.0742C31.0612 24.9036 31.2425 24.7649 31.4825 24.6582C31.7225 24.5462 31.9812 24.4902 32.2585 24.4902C32.7012 24.4902 33.0612 24.5836 33.3385 24.7702C33.6158 24.9516 33.8132 25.1889 33.9305 25.4822C34.0532 25.7702 34.1145 26.0769 34.1145 26.4022C34.1145 26.7862 34.0425 27.1302 33.8985 27.4342C33.7545 27.7382 33.5332 27.9782 33.2345 28.1542C32.9412 28.3302 32.5758 28.4182 32.1385 28.4182C31.5785 28.4182 31.1252 28.2742 30.7785 27.9862C30.4318 27.6982 30.2212 27.3142 30.1465 26.8342H30.8585C30.9278 27.1382 31.0745 27.3756 31.2985 27.5462C31.5225 27.7169 31.8052 27.8022 32.1465 27.8022C32.5678 27.8022 32.8852 27.6769 33.0985 27.4262C33.3118 27.1702 33.4185 26.8342 33.4185 26.4182C33.4185 26.0022 33.3118 25.6822 33.0985 25.4582C32.8852 25.2289 32.5705 25.1142 32.1545 25.1142C31.8718 25.1142 31.6238 25.1836 31.4105 25.3222C31.2025 25.4556 31.0505 25.6396 30.9545 25.8742H30.2665V22.6102H33.7465V23.2502ZM35.0819 25.4502C35.0819 24.5329 35.2313 23.8182 35.5299 23.3062C35.8286 22.7889 36.3513 22.5302 37.0979 22.5302C37.8393 22.5302 38.3593 22.7889 38.6579 23.3062C38.9566 23.8182 39.1059 24.5329 39.1059 25.4502C39.1059 26.3836 38.9566 27.1089 38.6579 27.6262C38.3593 28.1436 37.8393 28.4022 37.0979 28.4022C36.3513 28.4022 35.8286 28.1436 35.5299 27.6262C35.2313 27.1089 35.0819 26.3836 35.0819 25.4502ZM38.3859 25.4502C38.3859 24.9862 38.3539 24.5942 38.2899 24.2742C38.2313 23.9489 38.1059 23.6876 37.9139 23.4902C37.7273 23.2929 37.4553 23.1942 37.0979 23.1942C36.7353 23.1942 36.4579 23.2929 36.2659 23.4902C36.0793 23.6876 35.9539 23.9489 35.8899 24.2742C35.8313 24.5942 35.8019 24.9862 35.8019 25.4502C35.8019 25.9302 35.8313 26.3329 35.8899 26.6582C35.9539 26.9836 36.0793 27.2449 36.2659 27.4422C36.4579 27.6396 36.7353 27.7382 37.0979 27.7382C37.4553 27.7382 37.7273 27.6396 37.9139 27.4422C38.1059 27.2449 38.2313 26.9836 38.2899 26.6582C38.3539 26.3329 38.3859 25.9302 38.3859 25.4502ZM45.5902 27.2022L44.3182 25.9302L43.0462 27.2022L42.5662 26.7222L43.8382 25.4502L42.5902 24.2022L43.0542 23.7302L44.3102 24.9862L45.5662 23.7302L46.0462 24.2102L44.7902 25.4662L46.0542 26.7382L45.5902 27.2022ZM53.1996 23.2502H50.3916V25.0742C50.5143 24.9036 50.6956 24.7649 50.9356 24.6582C51.1756 24.5462 51.4343 24.4902 51.7116 24.4902C52.1543 24.4902 52.5143 24.5836 52.7916 24.7702C53.069 24.9516 53.2663 25.1889 53.3836 25.4822C53.5063 25.7702 53.5676 26.0769 53.5676 26.4022C53.5676 26.7862 53.4956 27.1302 53.3516 27.4342C53.2076 27.7382 52.9863 27.9782 52.6876 28.1542C52.3943 28.3302 52.029 28.4182 51.5916 28.4182C51.0316 28.4182 50.5783 28.2742 50.2316 27.9862C49.885 27.6982 49.6743 27.3142 49.5996 26.8342H50.3116C50.381 27.1382 50.5276 27.3756 50.7516 27.5462C50.9756 27.7169 51.2583 27.8022 51.5996 27.8022C52.021 27.8022 52.3383 27.6769 52.5516 27.4262C52.765 27.1702 52.8716 26.8342 52.8716 26.4182C52.8716 26.0022 52.765 25.6822 52.5516 25.4582C52.3383 25.2289 52.0236 25.1142 51.6076 25.1142C51.325 25.1142 51.077 25.1836 50.8636 25.3222C50.6556 25.4556 50.5036 25.6396 50.4076 25.8742H49.7196V22.6102H53.1996V23.2502ZM55.4711 26.8502C55.5244 27.1542 55.6471 27.3889 55.8391 27.5542C56.0364 27.7196 56.3004 27.8022 56.6311 27.8022C57.0737 27.8022 57.3991 27.6289 57.6071 27.2822C57.8204 26.9356 57.9217 26.3516 57.9111 25.5302C57.7991 25.7702 57.6124 25.9596 57.3511 26.0982C57.0897 26.2316 56.7991 26.2982 56.4791 26.2982C56.1217 26.2982 55.8017 26.2262 55.5191 26.0822C55.2417 25.9329 55.0231 25.7169 54.8631 25.4342C54.7031 25.1516 54.6231 24.8102 54.6231 24.4102C54.6231 23.8396 54.7884 23.3809 55.1191 23.0342C55.4497 22.6822 55.9191 22.5062 56.5271 22.5062C57.2737 22.5062 57.7964 22.7489 58.0951 23.2342C58.3991 23.7196 58.5511 24.4422 58.5511 25.4022C58.5511 26.0742 58.4897 26.6289 58.3671 27.0662C58.2497 27.5036 58.0471 27.8369 57.7591 28.0662C57.4764 28.2956 57.0871 28.4102 56.5911 28.4102C56.0471 28.4102 55.6231 28.2636 55.3191 27.9702C55.0151 27.6769 54.8417 27.3036 54.7991 26.8502H55.4711ZM56.5991 25.6822C56.9564 25.6822 57.2497 25.5729 57.4791 25.3542C57.7084 25.1302 57.8231 24.8289 57.8231 24.4502C57.8231 24.0502 57.7111 23.7276 57.4871 23.4822C57.2631 23.2369 56.9484 23.1142 56.5431 23.1142C56.1697 23.1142 55.8711 23.2316 55.6471 23.4662C55.4284 23.7009 55.3191 24.0102 55.3191 24.3942C55.3191 24.7836 55.4284 25.0956 55.6471 25.3302C55.8657 25.5649 56.1831 25.6822 56.5991 25.6822ZM59.5741 25.4502C59.5741 24.5329 59.7235 23.8182 60.0221 23.3062C60.3208 22.7889 60.8435 22.5302 61.5901 22.5302C62.3315 22.5302 62.8515 22.7889 63.1501 23.3062C63.4488 23.8182 63.5981 24.5329 63.5981 25.4502C63.5981 26.3836 63.4488 27.1089 63.1501 27.6262C62.8515 28.1436 62.3315 28.4022 61.5901 28.4022C60.8435 28.4022 60.3208 28.1436 60.0221 27.6262C59.7235 27.1089 59.5741 26.3836 59.5741 25.4502ZM62.8781 25.4502C62.8781 24.9862 62.8461 24.5942 62.7821 24.2742C62.7235 23.9489 62.5981 23.6876 62.4061 23.4902C62.2195 23.2929 61.9475 23.1942 61.5901 23.1942C61.2275 23.1942 60.9501 23.2929 60.7581 23.4902C60.5715 23.6876 60.4461 23.9489 60.3821 24.2742C60.3235 24.5942 60.2941 24.9862 60.2941 25.4502C60.2941 25.9302 60.3235 26.3329 60.3821 26.6582C60.4461 26.9836 60.5715 27.2449 60.7581 27.4422C60.9501 27.6396 61.2275 27.7382 61.5901 27.7382C61.9475 27.7382 62.2195 27.6396 62.4061 27.4422C62.5981 27.2449 62.7235 26.9836 62.7821 26.6582C62.8461 26.3329 62.8781 25.9302 62.8781 25.4502ZM72.1224 23.9382C72.4637 23.9382 72.7677 24.0102 73.0344 24.1542C73.301 24.2929 73.5117 24.5036 73.6664 24.7862C73.821 25.0689 73.8984 25.4129 73.8984 25.8182V28.4022H73.1784V25.9222C73.1784 25.4849 73.069 25.1516 72.8504 24.9222C72.637 24.6876 72.3464 24.5702 71.9784 24.5702C71.5997 24.5702 71.2984 24.6929 71.0744 24.9382C70.8504 25.1782 70.7384 25.5276 70.7384 25.9862V28.4022H70.0184V25.9222C70.0184 25.4849 69.909 25.1516 69.6904 24.9222C69.477 24.6876 69.1864 24.5702 68.8184 24.5702C68.4397 24.5702 68.1384 24.6929 67.9144 24.9382C67.6904 25.1782 67.5784 25.5276 67.5784 25.9862V28.4022H66.8504V24.0182H67.5784V24.6502C67.7224 24.4209 67.9144 24.2449 68.1544 24.1222C68.3997 23.9996 68.669 23.9382 68.9624 23.9382C69.3304 23.9382 69.6557 24.0209 69.9384 24.1862C70.221 24.3516 70.4317 24.5942 70.5704 24.9142C70.693 24.6049 70.8957 24.3649 71.1784 24.1942C71.461 24.0236 71.7757 23.9382 72.1224 23.9382ZM80.3646 23.9382C80.7059 23.9382 81.0099 24.0102 81.2766 24.1542C81.5432 24.2929 81.7539 24.5036 81.9086 24.7862C82.0632 25.0689 82.1406 25.4129 82.1406 25.8182V28.4022H81.4206V25.9222C81.4206 25.4849 81.3112 25.1516 81.0926 24.9222C80.8792 24.6876 80.5886 24.5702 80.2206 24.5702C79.8419 24.5702 79.5406 24.6929 79.3166 24.9382C79.0926 25.1782 78.9806 25.5276 78.9806 25.9862V28.4022H78.2606V25.9222C78.2606 25.4849 78.1512 25.1516 77.9326 24.9222C77.7192 24.6876 77.4286 24.5702 77.0606 24.5702C76.6819 24.5702 76.3806 24.6929 76.1566 24.9382C75.9326 25.1782 75.8206 25.5276 75.8206 25.9862V28.4022H75.0926V24.0182H75.8206V24.6502C75.9646 24.4209 76.1566 24.2449 76.3966 24.1222C76.6419 23.9996 76.9112 23.9382 77.2046 23.9382C77.5726 23.9382 77.8979 24.0209 78.1806 24.1862C78.4632 24.3516 78.6739 24.5942 78.8126 24.9142C78.9352 24.6049 79.1379 24.3649 79.4206 24.1942C79.7032 24.0236 80.0179 23.9382 80.3646 23.9382Z" fill="white"/>
<rect x="89" width="36.5" height="36.5" rx="18.25" fill="white"/>
<path fill-rule="evenodd" clip-rule="evenodd" d="M116.336 19.257H98.164L100.043 21.1355C100.136 21.2284 100.21 21.3386 100.26 21.46C100.31 21.5813 100.336 21.7114 100.336 21.8427C100.336 21.9741 100.31 22.1042 100.26 22.2255C100.21 22.3469 100.136 22.4571 100.043 22.55C99.9501 22.6429 99.8399 22.7165 99.7185 22.7668C99.5972 22.8171 99.4671 22.8429 99.3358 22.8429C99.2044 22.8429 99.0743 22.8171 98.953 22.7668C98.8316 22.7165 98.7214 22.6429 98.6285 22.55L95.0935 19.0145L95.0685 18.9885C94.9681 18.895 94.8879 18.7817 94.8331 18.6559C94.7783 18.53 94.75 18.3943 94.75 18.257C94.75 18.0105 94.839 17.7845 94.987 17.6105C95.0187 17.5665 95.054 17.5248 95.093 17.4855L98.6285 13.9505C98.816 13.7629 99.0703 13.6575 99.3356 13.6575C99.6008 13.6574 99.8552 13.7627 100.043 13.9502C100.23 14.1378 100.336 14.3921 100.336 14.6573C100.336 14.9225 100.231 15.1769 100.043 15.3645L98.15 17.257H116.349L114.456 15.3645C114.364 15.2716 114.29 15.1614 114.24 15.04C114.189 14.9187 114.164 14.7886 114.164 14.6572C114.164 14.5259 114.189 14.3958 114.24 14.2745C114.29 14.1531 114.364 14.0429 114.456 13.95C114.644 13.7624 114.898 13.657 115.164 13.657C115.295 13.657 115.425 13.6829 115.547 13.7332C115.668 13.7834 115.778 13.8571 115.871 13.95L119.406 17.4855C119.446 17.5248 119.482 17.5665 119.513 17.6105C119.661 17.7845 119.75 18.0105 119.75 18.257C119.75 18.546 119.627 18.806 119.431 18.9885L119.406 19.0145L115.871 22.5495C115.683 22.7371 115.429 22.8425 115.164 22.8425C114.899 22.8426 114.644 22.7373 114.457 22.5497C114.269 22.3622 114.164 22.1079 114.164 21.8427C114.164 21.5774 114.269 21.3231 114.456 21.1355L116.336 19.257Z" fill="#DE5AD5"/>
</svg>
