<svg width="120" height="37" viewBox="0 0 120 37" fill="none" xmlns="http://www.w3.org/2000/svg">
<path d="M3.155 11.5027C3.40167 11.5027 3.61667 11.4727 3.8 11.4127C3.98333 11.3494 4.135 11.2611 4.255 11.1477C4.37833 11.0311 4.47 10.8911 4.53 10.7277C4.59 10.5611 4.62 10.3761 4.62 10.1727C4.62 9.97938 4.59 9.80438 4.53 9.64772C4.47 9.49105 4.38 9.35772 4.26 9.24772C4.14 9.13772 3.98833 9.05438 3.805 8.99772C3.62167 8.93772 3.405 8.90772 3.155 8.90772H2.15V11.5027H3.155ZM3.155 7.86772C3.63833 7.86772 4.05667 7.92438 4.41 8.03772C4.76333 8.15105 5.055 8.30938 5.285 8.51272C5.515 8.71605 5.685 8.95938 5.795 9.24272C5.90833 9.52605 5.965 9.83605 5.965 10.1727C5.965 10.5227 5.90667 10.8444 5.79 11.1377C5.67333 11.4277 5.49833 11.6777 5.265 11.8877C5.03167 12.0977 4.73833 12.2611 4.385 12.3777C4.035 12.4944 3.625 12.5527 3.155 12.5527H2.15V15.0977H0.805V7.86772H3.155ZM8.06188 9.96772V15.0977H6.82188V9.96772H8.06188ZM8.23188 8.47272C8.23188 8.57938 8.21021 8.67938 8.16688 8.77272C8.12354 8.86605 8.06521 8.94772 7.99188 9.01772C7.92188 9.08772 7.83854 9.14438 7.74188 9.18772C7.64521 9.22772 7.54188 9.24772 7.43188 9.24772C7.32521 9.24772 7.22354 9.22772 7.12688 9.18772C7.03354 9.14438 6.95188 9.08772 6.88188 9.01772C6.81188 8.94772 6.75521 8.86605 6.71188 8.77272C6.67188 8.67938 6.65188 8.57938 6.65188 8.47272C6.65188 8.36272 6.67188 8.25938 6.71188 8.16272C6.75521 8.06605 6.81188 7.98272 6.88188 7.91272C6.95188 7.84272 7.03354 7.78772 7.12688 7.74772C7.22354 7.70438 7.32521 7.68272 7.43188 7.68272C7.54188 7.68272 7.64521 7.70438 7.74188 7.74772C7.83854 7.78772 7.92188 7.84272 7.99188 7.91272C8.06521 7.98272 8.12354 8.06605 8.16688 8.16272C8.21021 8.25938 8.23188 8.36272 8.23188 8.47272ZM12.6259 11.9427C12.6259 11.7827 12.6026 11.6327 12.5559 11.4927C12.5126 11.3494 12.4459 11.2244 12.3559 11.1177C12.2659 11.0111 12.1509 10.9277 12.0109 10.8677C11.8743 10.8044 11.7143 10.7727 11.5309 10.7727C11.1743 10.7727 10.8926 10.8744 10.6859 11.0777C10.4826 11.2811 10.3526 11.5694 10.2959 11.9427H12.6259ZM10.2709 12.6877C10.2909 12.9511 10.3376 13.1794 10.4109 13.3727C10.4843 13.5627 10.5809 13.7211 10.7009 13.8477C10.8209 13.9711 10.9626 14.0644 11.1259 14.1277C11.2926 14.1877 11.4759 14.2177 11.6759 14.2177C11.8759 14.2177 12.0476 14.1944 12.1909 14.1477C12.3376 14.1011 12.4643 14.0494 12.5709 13.9927C12.6809 13.9361 12.7759 13.8844 12.8559 13.8377C12.9393 13.7911 13.0193 13.7677 13.0959 13.7677C13.1993 13.7677 13.2759 13.8061 13.3259 13.8827L13.6809 14.3327C13.5443 14.4927 13.3909 14.6277 13.2209 14.7377C13.0509 14.8444 12.8726 14.9311 12.6859 14.9977C12.5026 15.0611 12.3143 15.1061 12.1209 15.1327C11.9309 15.1594 11.7459 15.1727 11.5659 15.1727C11.2093 15.1727 10.8776 15.1144 10.5709 14.9977C10.2643 14.8777 9.9976 14.7027 9.77094 14.4727C9.54427 14.2394 9.36594 13.9527 9.23594 13.6127C9.10594 13.2694 9.04094 12.8727 9.04094 12.4227C9.04094 12.0727 9.0976 11.7444 9.21094 11.4377C9.32427 11.1277 9.48594 10.8594 9.69594 10.6327C9.90927 10.4027 10.1676 10.2211 10.4709 10.0877C10.7776 9.95438 11.1226 9.88772 11.5059 9.88772C11.8293 9.88772 12.1276 9.93938 12.4009 10.0427C12.6743 10.1461 12.9093 10.2977 13.1059 10.4977C13.3026 10.6944 13.4559 10.9377 13.5659 11.2277C13.6793 11.5144 13.7359 11.8427 13.7359 12.2127C13.7359 12.3994 13.7159 12.5261 13.6759 12.5927C13.6359 12.6561 13.5593 12.6877 13.4459 12.6877H10.2709ZM18.3377 11.0527C18.3011 11.0994 18.2644 11.1361 18.2277 11.1627C18.1944 11.1894 18.1444 11.2027 18.0777 11.2027C18.0144 11.2027 17.9527 11.1844 17.8927 11.1477C17.8327 11.1077 17.7611 11.0644 17.6777 11.0177C17.5944 10.9677 17.4944 10.9244 17.3777 10.8877C17.2644 10.8477 17.1227 10.8277 16.9527 10.8277C16.7361 10.8277 16.5461 10.8677 16.3827 10.9477C16.2194 11.0244 16.0827 11.1361 15.9727 11.2827C15.8661 11.4294 15.7861 11.6077 15.7327 11.8177C15.6794 12.0244 15.6527 12.2594 15.6527 12.5227C15.6527 12.7961 15.6811 13.0394 15.7377 13.2527C15.7977 13.4661 15.8827 13.6461 15.9927 13.7927C16.1027 13.9361 16.2361 14.0461 16.3927 14.1227C16.5494 14.1961 16.7261 14.2327 16.9227 14.2327C17.1194 14.2327 17.2777 14.2094 17.3977 14.1627C17.5211 14.1127 17.6244 14.0594 17.7077 14.0027C17.7911 13.9427 17.8627 13.8894 17.9227 13.8427C17.9861 13.7927 18.0561 13.7677 18.1327 13.7677C18.2327 13.7677 18.3077 13.8061 18.3577 13.8827L18.7127 14.3327C18.5761 14.4927 18.4277 14.6277 18.2677 14.7377C18.1077 14.8444 17.9411 14.9311 17.7677 14.9977C17.5977 15.0611 17.4211 15.1061 17.2377 15.1327C17.0577 15.1594 16.8777 15.1727 16.6977 15.1727C16.3811 15.1727 16.0827 15.1144 15.8027 14.9977C15.5227 14.8777 15.2777 14.7044 15.0677 14.4777C14.8577 14.2511 14.6911 13.9744 14.5677 13.6477C14.4477 13.3177 14.3877 12.9427 14.3877 12.5227C14.3877 12.1461 14.4411 11.7977 14.5477 11.4777C14.6577 11.1544 14.8177 10.8761 15.0277 10.6427C15.2377 10.4061 15.4977 10.2211 15.8077 10.0877C16.1177 9.95438 16.4744 9.88772 16.8777 9.88772C17.2611 9.88772 17.5961 9.94938 17.8827 10.0727C18.1727 10.1961 18.4327 10.3727 18.6627 10.6027L18.3377 11.0527ZM22.7041 11.9427C22.7041 11.7827 22.6807 11.6327 22.6341 11.4927C22.5907 11.3494 22.5241 11.2244 22.4341 11.1177C22.3441 11.0111 22.2291 10.9277 22.0891 10.8677C21.9524 10.8044 21.7924 10.7727 21.6091 10.7727C21.2524 10.7727 20.9707 10.8744 20.7641 11.0777C20.5607 11.2811 20.4307 11.5694 20.3741 11.9427H22.7041ZM20.3491 12.6877C20.3691 12.9511 20.4157 13.1794 20.4891 13.3727C20.5624 13.5627 20.6591 13.7211 20.7791 13.8477C20.8991 13.9711 21.0407 14.0644 21.2041 14.1277C21.3707 14.1877 21.5541 14.2177 21.7541 14.2177C21.9541 14.2177 22.1257 14.1944 22.2691 14.1477C22.4157 14.1011 22.5424 14.0494 22.6491 13.9927C22.7591 13.9361 22.8541 13.8844 22.9341 13.8377C23.0174 13.7911 23.0974 13.7677 23.1741 13.7677C23.2774 13.7677 23.3541 13.8061 23.4041 13.8827L23.7591 14.3327C23.6224 14.4927 23.4691 14.6277 23.2991 14.7377C23.1291 14.8444 22.9507 14.9311 22.7641 14.9977C22.5807 15.0611 22.3924 15.1061 22.1991 15.1327C22.0091 15.1594 21.8241 15.1727 21.6441 15.1727C21.2874 15.1727 20.9557 15.1144 20.6491 14.9977C20.3424 14.8777 20.0757 14.7027 19.8491 14.4727C19.6224 14.2394 19.4441 13.9527 19.3141 13.6127C19.1841 13.2694 19.1191 12.8727 19.1191 12.4227C19.1191 12.0727 19.1757 11.7444 19.2891 11.4377C19.4024 11.1277 19.5641 10.8594 19.7741 10.6327C19.9874 10.4027 20.2457 10.2211 20.5491 10.0877C20.8557 9.95438 21.2007 9.88772 21.5841 9.88772C21.9074 9.88772 22.2057 9.93938 22.4791 10.0427C22.7524 10.1461 22.9874 10.2977 23.1841 10.4977C23.3807 10.6944 23.5341 10.9377 23.6441 11.2277C23.7574 11.5144 23.8141 11.8427 23.8141 12.2127C23.8141 12.3994 23.7941 12.5261 23.7541 12.5927C23.7141 12.6561 23.6374 12.6877 23.5241 12.6877H20.3491ZM27.8709 10.9677C27.8375 11.0211 27.8025 11.0594 27.7659 11.0827C27.7292 11.1027 27.6825 11.1127 27.6259 11.1127C27.5659 11.1127 27.5009 11.0961 27.4309 11.0627C27.3642 11.0294 27.2859 10.9927 27.1959 10.9527C27.1059 10.9094 27.0025 10.8711 26.8859 10.8377C26.7725 10.8044 26.6375 10.7877 26.4809 10.7877C26.2375 10.7877 26.0459 10.8394 25.9059 10.9427C25.7692 11.0461 25.7009 11.1811 25.7009 11.3477C25.7009 11.4577 25.7359 11.5511 25.8059 11.6277C25.8792 11.7011 25.9742 11.7661 26.0909 11.8227C26.2109 11.8794 26.3459 11.9311 26.4959 11.9777C26.6459 12.0211 26.7975 12.0694 26.9509 12.1227C27.1075 12.1761 27.2609 12.2377 27.4109 12.3077C27.5609 12.3744 27.6942 12.4611 27.8109 12.5677C27.9309 12.6711 28.0259 12.7961 28.0959 12.9427C28.1692 13.0894 28.2059 13.2661 28.2059 13.4727C28.2059 13.7194 28.1609 13.9477 28.0709 14.1577C27.9842 14.3644 27.8542 14.5444 27.6809 14.6977C27.5075 14.8477 27.2925 14.9661 27.0359 15.0527C26.7825 15.1361 26.4892 15.1777 26.1559 15.1777C25.9792 15.1777 25.8059 15.1611 25.6359 15.1277C25.4692 15.0977 25.3075 15.0544 25.1509 14.9977C24.9975 14.9411 24.8542 14.8744 24.7209 14.7977C24.5909 14.7211 24.4759 14.6377 24.3759 14.5477L24.6609 14.0777C24.6975 14.0211 24.7409 13.9777 24.7909 13.9477C24.8409 13.9177 24.9042 13.9027 24.9809 13.9027C25.0575 13.9027 25.1292 13.9244 25.1959 13.9677C25.2659 14.0111 25.3459 14.0577 25.4359 14.1077C25.5259 14.1577 25.6309 14.2044 25.7509 14.2477C25.8742 14.2911 26.0292 14.3127 26.2159 14.3127C26.3625 14.3127 26.4875 14.2961 26.5909 14.2627C26.6975 14.2261 26.7842 14.1794 26.8509 14.1227C26.9209 14.0661 26.9709 14.0011 27.0009 13.9277C27.0342 13.8511 27.0509 13.7727 27.0509 13.6927C27.0509 13.5727 27.0142 13.4744 26.9409 13.3977C26.8709 13.3211 26.7759 13.2544 26.6559 13.1977C26.5392 13.1411 26.4042 13.0911 26.2509 13.0477C26.1009 13.0011 25.9459 12.9511 25.7859 12.8977C25.6292 12.8444 25.4742 12.7827 25.3209 12.7127C25.1709 12.6394 25.0359 12.5477 24.9159 12.4377C24.7992 12.3277 24.7042 12.1927 24.6309 12.0327C24.5609 11.8727 24.5259 11.6794 24.5259 11.4527C24.5259 11.2427 24.5675 11.0427 24.6509 10.8527C24.7342 10.6627 24.8559 10.4977 25.0159 10.3577C25.1792 10.2144 25.3809 10.1011 25.6209 10.0177C25.8642 9.93105 26.1442 9.88772 26.4609 9.88772C26.8142 9.88772 27.1359 9.94605 27.4259 10.0627C27.7159 10.1794 27.9575 10.3327 28.1509 10.5227L27.8709 10.9677ZM32.802 13.7677C32.942 13.9377 33.0937 14.0577 33.257 14.1277C33.4237 14.1977 33.6037 14.2327 33.797 14.2327C33.9837 14.2327 34.152 14.1977 34.302 14.1277C34.452 14.0577 34.5787 13.9511 34.682 13.8077C34.7887 13.6644 34.8704 13.4844 34.927 13.2677C34.9837 13.0477 35.012 12.7894 35.012 12.4927C35.012 12.1927 34.987 11.9394 34.937 11.7327C34.8904 11.5227 34.822 11.3527 34.732 11.2227C34.642 11.0927 34.532 10.9977 34.402 10.9377C34.2754 10.8777 34.1304 10.8477 33.967 10.8477C33.7104 10.8477 33.492 10.9027 33.312 11.0127C33.132 11.1194 32.962 11.2711 32.802 11.4677V13.7677ZM32.737 10.6677C32.947 10.4311 33.1854 10.2394 33.452 10.0927C33.7187 9.94605 34.032 9.87272 34.392 9.87272C34.672 9.87272 34.927 9.93105 35.157 10.0477C35.3904 10.1644 35.5904 10.3344 35.757 10.5577C35.927 10.7777 36.057 11.0511 36.147 11.3777C36.2404 11.7011 36.287 12.0727 36.287 12.4927C36.287 12.8761 36.2354 13.2311 36.132 13.5577C36.0287 13.8844 35.8804 14.1677 35.687 14.4077C35.497 14.6477 35.2654 14.8361 34.992 14.9727C34.722 15.1061 34.4187 15.1727 34.082 15.1727C33.7954 15.1727 33.5504 15.1294 33.347 15.0427C33.1437 14.9527 32.962 14.8294 32.802 14.6727V16.7727H31.567V9.96772H32.322C32.482 9.96772 32.587 10.0427 32.637 10.1927L32.737 10.6677ZM40.5556 11.9427C40.5556 11.7827 40.5323 11.6327 40.4856 11.4927C40.4423 11.3494 40.3756 11.2244 40.2856 11.1177C40.1956 11.0111 40.0806 10.9277 39.9406 10.8677C39.804 10.8044 39.644 10.7727 39.4606 10.7727C39.104 10.7727 38.8223 10.8744 38.6156 11.0777C38.4123 11.2811 38.2823 11.5694 38.2256 11.9427H40.5556ZM38.2006 12.6877C38.2206 12.9511 38.2673 13.1794 38.3406 13.3727C38.414 13.5627 38.5106 13.7211 38.6306 13.8477C38.7506 13.9711 38.8923 14.0644 39.0556 14.1277C39.2223 14.1877 39.4056 14.2177 39.6056 14.2177C39.8056 14.2177 39.9773 14.1944 40.1206 14.1477C40.2673 14.1011 40.394 14.0494 40.5006 13.9927C40.6106 13.9361 40.7056 13.8844 40.7856 13.8377C40.869 13.7911 40.949 13.7677 41.0256 13.7677C41.129 13.7677 41.2056 13.8061 41.2556 13.8827L41.6106 14.3327C41.474 14.4927 41.3206 14.6277 41.1506 14.7377C40.9806 14.8444 40.8023 14.9311 40.6156 14.9977C40.4323 15.0611 40.244 15.1061 40.0506 15.1327C39.8606 15.1594 39.6756 15.1727 39.4956 15.1727C39.139 15.1727 38.8073 15.1144 38.5006 14.9977C38.194 14.8777 37.9273 14.7027 37.7006 14.4727C37.474 14.2394 37.2956 13.9527 37.1656 13.6127C37.0356 13.2694 36.9706 12.8727 36.9706 12.4227C36.9706 12.0727 37.0273 11.7444 37.1406 11.4377C37.254 11.1277 37.4156 10.8594 37.6256 10.6327C37.839 10.4027 38.0973 10.2211 38.4006 10.0877C38.7073 9.95438 39.0523 9.88772 39.4356 9.88772C39.759 9.88772 40.0573 9.93938 40.3306 10.0427C40.604 10.1461 40.839 10.2977 41.0356 10.4977C41.2323 10.6944 41.3856 10.9377 41.4956 11.2277C41.609 11.5144 41.6656 11.8427 41.6656 12.2127C41.6656 12.3994 41.6456 12.5261 41.6056 12.5927C41.5656 12.6561 41.489 12.6877 41.3756 12.6877H38.2006ZM43.7574 10.8577C43.9174 10.5511 44.1074 10.3111 44.3274 10.1377C44.5474 9.96105 44.8074 9.87272 45.1074 9.87272C45.3441 9.87272 45.5341 9.92438 45.6774 10.0277L45.5974 10.9527C45.5808 11.0127 45.5558 11.0561 45.5224 11.0827C45.4924 11.1061 45.4508 11.1177 45.3974 11.1177C45.3474 11.1177 45.2724 11.1094 45.1724 11.0927C45.0758 11.0761 44.9808 11.0677 44.8874 11.0677C44.7508 11.0677 44.6291 11.0877 44.5224 11.1277C44.4158 11.1677 44.3191 11.2261 44.2324 11.3027C44.1491 11.3761 44.0741 11.4661 44.0074 11.5727C43.9441 11.6794 43.8841 11.8011 43.8274 11.9377V15.0977H42.5924V9.96772H43.3174C43.4441 9.96772 43.5324 9.99105 43.5824 10.0377C43.6324 10.0811 43.6658 10.1611 43.6824 10.2777L43.7574 10.8577ZM52.2147 11.0527C52.178 11.0994 52.1414 11.1361 52.1047 11.1627C52.0714 11.1894 52.0214 11.2027 51.9547 11.2027C51.8914 11.2027 51.8297 11.1844 51.7697 11.1477C51.7097 11.1077 51.638 11.0644 51.5547 11.0177C51.4714 10.9677 51.3714 10.9244 51.2547 10.8877C51.1414 10.8477 50.9997 10.8277 50.8297 10.8277C50.613 10.8277 50.423 10.8677 50.2597 10.9477C50.0964 11.0244 49.9597 11.1361 49.8497 11.2827C49.743 11.4294 49.663 11.6077 49.6097 11.8177C49.5564 12.0244 49.5297 12.2594 49.5297 12.5227C49.5297 12.7961 49.558 13.0394 49.6147 13.2527C49.6747 13.4661 49.7597 13.6461 49.8697 13.7927C49.9797 13.9361 50.113 14.0461 50.2697 14.1227C50.4264 14.1961 50.603 14.2327 50.7997 14.2327C50.9964 14.2327 51.1547 14.2094 51.2747 14.1627C51.398 14.1127 51.5014 14.0594 51.5847 14.0027C51.668 13.9427 51.7397 13.8894 51.7997 13.8427C51.863 13.7927 51.933 13.7677 52.0097 13.7677C52.1097 13.7677 52.1847 13.8061 52.2347 13.8827L52.5897 14.3327C52.453 14.4927 52.3047 14.6277 52.1447 14.7377C51.9847 14.8444 51.818 14.9311 51.6447 14.9977C51.4747 15.0611 51.298 15.1061 51.1147 15.1327C50.9347 15.1594 50.7547 15.1727 50.5747 15.1727C50.258 15.1727 49.9597 15.1144 49.6797 14.9977C49.3997 14.8777 49.1547 14.7044 48.9447 14.4777C48.7347 14.2511 48.568 13.9744 48.4447 13.6477C48.3247 13.3177 48.2647 12.9427 48.2647 12.5227C48.2647 12.1461 48.318 11.7977 48.4247 11.4777C48.5347 11.1544 48.6947 10.8761 48.9047 10.6427C49.1147 10.4061 49.3747 10.2211 49.6847 10.0877C49.9947 9.95438 50.3514 9.88772 50.7547 9.88772C51.138 9.88772 51.473 9.94938 51.7597 10.0727C52.0497 10.1961 52.3097 10.3727 52.5397 10.6027L52.2147 11.0527ZM56.0739 12.9077C55.7172 12.9244 55.4172 12.9561 55.1739 13.0027C54.9306 13.0461 54.7356 13.1027 54.5889 13.1727C54.4422 13.2427 54.3372 13.3244 54.2739 13.4177C54.2106 13.5111 54.1789 13.6127 54.1789 13.7227C54.1789 13.9394 54.2422 14.0944 54.3689 14.1877C54.4989 14.2811 54.6672 14.3277 54.8739 14.3277C55.1272 14.3277 55.3456 14.2827 55.5289 14.1927C55.7156 14.0994 55.8972 13.9594 56.0739 13.7727V12.9077ZM53.2439 10.6827C53.8339 10.1427 54.5439 9.87272 55.3739 9.87272C55.6739 9.87272 55.9422 9.92272 56.1789 10.0227C56.4156 10.1194 56.6156 10.2561 56.7789 10.4327C56.9422 10.6061 57.0656 10.8144 57.1489 11.0577C57.2356 11.3011 57.2789 11.5677 57.2789 11.8577V15.0977H56.7189C56.6022 15.0977 56.5122 15.0811 56.4489 15.0477C56.3856 15.0111 56.3356 14.9394 56.2989 14.8327L56.1889 14.4627C56.0589 14.5794 55.9322 14.6827 55.8089 14.7727C55.6856 14.8594 55.5572 14.9327 55.4239 14.9927C55.2906 15.0527 55.1472 15.0977 54.9939 15.1277C54.8439 15.1611 54.6772 15.1777 54.4939 15.1777C54.2772 15.1777 54.0772 15.1494 53.8939 15.0927C53.7106 15.0327 53.5522 14.9444 53.4189 14.8277C53.2856 14.7111 53.1822 14.5661 53.1089 14.3927C53.0356 14.2194 52.9989 14.0177 52.9989 13.7877C52.9989 13.6577 53.0206 13.5294 53.0639 13.4027C53.1072 13.2727 53.1772 13.1494 53.2739 13.0327C53.3739 12.9161 53.5022 12.8061 53.6589 12.7027C53.8156 12.5994 54.0072 12.5094 54.2339 12.4327C54.4639 12.3561 54.7306 12.2944 55.0339 12.2477C55.3372 12.1977 55.6839 12.1677 56.0739 12.1577V11.8577C56.0739 11.5144 56.0006 11.2611 55.8539 11.0977C55.7072 10.9311 55.4956 10.8477 55.2189 10.8477C55.0189 10.8477 54.8522 10.8711 54.7189 10.9177C54.5889 10.9644 54.4739 11.0177 54.3739 11.0777C54.2739 11.1344 54.1822 11.1861 54.0989 11.2327C54.0189 11.2794 53.9289 11.3027 53.8289 11.3027C53.7422 11.3027 53.6689 11.2811 53.6089 11.2377C53.5489 11.1911 53.5006 11.1377 53.4639 11.0777L53.2439 10.6827ZM59.607 10.8577C59.767 10.5511 59.957 10.3111 60.177 10.1377C60.397 9.96105 60.657 9.87272 60.957 9.87272C61.1937 9.87272 61.3837 9.92438 61.527 10.0277L61.447 10.9527C61.4304 11.0127 61.4054 11.0561 61.372 11.0827C61.342 11.1061 61.3004 11.1177 61.247 11.1177C61.197 11.1177 61.122 11.1094 61.022 11.0927C60.9254 11.0761 60.8304 11.0677 60.737 11.0677C60.6004 11.0677 60.4787 11.0877 60.372 11.1277C60.2654 11.1677 60.1687 11.2261 60.082 11.3027C59.9987 11.3761 59.9237 11.4661 59.857 11.5727C59.7937 11.6794 59.7337 11.8011 59.677 11.9377V15.0977H58.442V9.96772H59.167C59.2937 9.96772 59.382 9.99105 59.432 10.0377C59.482 10.0811 59.5154 10.1611 59.532 10.2777L59.607 10.8577ZM63.8825 15.1777C63.4358 15.1777 63.0925 15.0527 62.8525 14.8027C62.6158 14.5494 62.4975 14.2011 62.4975 13.7577V10.8927H61.9725C61.9058 10.8927 61.8492 10.8711 61.8025 10.8277C61.7558 10.7844 61.7325 10.7194 61.7325 10.6327V10.1427L62.5575 10.0077L62.8175 8.60772C62.8342 8.54105 62.8658 8.48938 62.9125 8.45272C62.9592 8.41605 63.0192 8.39772 63.0925 8.39772H63.7325V10.0127H65.1025V10.8927H63.7325V13.6727C63.7325 13.8327 63.7708 13.9577 63.8475 14.0477C63.9275 14.1377 64.0358 14.1827 64.1725 14.1827C64.2492 14.1827 64.3125 14.1744 64.3625 14.1577C64.4158 14.1377 64.4608 14.1177 64.4975 14.0977C64.5375 14.0777 64.5725 14.0594 64.6025 14.0427C64.6325 14.0227 64.6625 14.0127 64.6925 14.0127C64.7292 14.0127 64.7592 14.0227 64.7825 14.0427C64.8058 14.0594 64.8308 14.0861 64.8575 14.1227L65.2275 14.7227C65.0475 14.8727 64.8408 14.9861 64.6075 15.0627C64.3742 15.1394 64.1325 15.1777 63.8825 15.1777ZM68.1241 9.88772C68.5041 9.88772 68.8491 9.94938 69.1591 10.0727C69.4725 10.1961 69.7391 10.3711 69.9591 10.5977C70.1825 10.8244 70.3541 11.1011 70.4741 11.4277C70.5941 11.7544 70.6541 12.1194 70.6541 12.5227C70.6541 12.9294 70.5941 13.2961 70.4741 13.6227C70.3541 13.9494 70.1825 14.2277 69.9591 14.4577C69.7391 14.6877 69.4725 14.8644 69.1591 14.9877C68.8491 15.1111 68.5041 15.1727 68.1241 15.1727C67.7408 15.1727 67.3925 15.1111 67.0791 14.9877C66.7658 14.8644 66.4975 14.6877 66.2741 14.4577C66.0541 14.2277 65.8825 13.9494 65.7591 13.6227C65.6391 13.2961 65.5791 12.9294 65.5791 12.5227C65.5791 12.1194 65.6391 11.7544 65.7591 11.4277C65.8825 11.1011 66.0541 10.8244 66.2741 10.5977C66.4975 10.3711 66.7658 10.1961 67.0791 10.0727C67.3925 9.94938 67.7408 9.88772 68.1241 9.88772ZM68.1241 14.2227C68.5508 14.2227 68.8658 14.0794 69.0691 13.7927C69.2758 13.5061 69.3791 13.0861 69.3791 12.5327C69.3791 11.9794 69.2758 11.5577 69.0691 11.2677C68.8658 10.9777 68.5508 10.8327 68.1241 10.8327C67.6908 10.8327 67.3691 10.9794 67.1591 11.2727C66.9525 11.5627 66.8491 11.9827 66.8491 12.5327C66.8491 13.0827 66.9525 13.5027 67.1591 13.7927C67.3691 14.0794 67.6908 14.2227 68.1241 14.2227ZM72.7513 10.5977C72.8547 10.4944 72.963 10.3994 73.0763 10.3127C73.193 10.2227 73.3147 10.1477 73.4413 10.0877C73.5713 10.0244 73.7097 9.97605 73.8563 9.94272C74.003 9.90605 74.163 9.88772 74.3363 9.88772C74.6163 9.88772 74.8647 9.93605 75.0813 10.0327C75.298 10.1261 75.478 10.2594 75.6213 10.4327C75.768 10.6027 75.878 10.8077 75.9513 11.0477C76.028 11.2844 76.0663 11.5461 76.0663 11.8327V15.0977H74.8313V11.8327C74.8313 11.5194 74.7597 11.2777 74.6163 11.1077C74.473 10.9344 74.2547 10.8477 73.9613 10.8477C73.748 10.8477 73.548 10.8961 73.3613 10.9927C73.1747 11.0894 72.998 11.2211 72.8313 11.3877V15.0977H71.5963V9.96772H72.3513C72.5113 9.96772 72.6163 10.0427 72.6663 10.1927L72.7513 10.5977Z" fill="white"/>
<path d="M49.72 23.9942C49.6027 23.4022 49.2373 23.1062 48.624 23.1062C48.1493 23.1062 47.7947 23.2902 47.56 23.6582C47.3253 24.0209 47.2107 24.6209 47.216 25.4582C47.3387 25.1809 47.5413 24.9649 47.824 24.8102C48.112 24.6502 48.432 24.5702 48.784 24.5702C49.3333 24.5702 49.7707 24.7409 50.096 25.0822C50.4267 25.4236 50.592 25.8956 50.592 26.4982C50.592 26.8609 50.52 27.1862 50.376 27.4742C50.2373 27.7622 50.024 27.9916 49.736 28.1622C49.4533 28.3329 49.1093 28.4182 48.704 28.4182C48.1547 28.4182 47.7253 28.2956 47.416 28.0502C47.1067 27.8049 46.8907 27.4662 46.768 27.0342C46.6453 26.6022 46.584 26.0689 46.584 25.4342C46.584 23.4769 47.2667 22.4982 48.632 22.4982C49.1547 22.4982 49.5653 22.6396 49.864 22.9222C50.1627 23.2049 50.3387 23.5622 50.392 23.9942H49.72ZM48.632 25.1862C48.4027 25.1862 48.1867 25.2342 47.984 25.3302C47.7813 25.4209 47.616 25.5622 47.488 25.7542C47.3653 25.9409 47.304 26.1702 47.304 26.4422C47.304 26.8476 47.4213 27.1782 47.656 27.4342C47.8907 27.6849 48.2267 27.8102 48.664 27.8102C49.0373 27.8102 49.3333 27.6956 49.552 27.4662C49.776 27.2316 49.888 26.9169 49.888 26.5222C49.888 26.1062 49.7813 25.7809 49.568 25.5462C49.3547 25.3062 49.0427 25.1862 48.632 25.1862ZM51.5741 25.4502C51.5741 24.5329 51.7235 23.8182 52.0221 23.3062C52.3208 22.7889 52.8435 22.5302 53.5901 22.5302C54.3315 22.5302 54.8515 22.7889 55.1501 23.3062C55.4488 23.8182 55.5981 24.5329 55.5981 25.4502C55.5981 26.3836 55.4488 27.1089 55.1501 27.6262C54.8515 28.1436 54.3315 28.4022 53.5901 28.4022C52.8435 28.4022 52.3208 28.1436 52.0221 27.6262C51.7235 27.1089 51.5741 26.3836 51.5741 25.4502ZM54.8781 25.4502C54.8781 24.9862 54.8461 24.5942 54.7821 24.2742C54.7235 23.9489 54.5981 23.6876 54.4061 23.4902C54.2195 23.2929 53.9475 23.1942 53.5901 23.1942C53.2275 23.1942 52.9501 23.2929 52.7581 23.4902C52.5715 23.6876 52.4461 23.9489 52.3821 24.2742C52.3235 24.5942 52.2941 24.9862 52.2941 25.4502C52.2941 25.9302 52.3235 26.3329 52.3821 26.6582C52.4461 26.9836 52.5715 27.2449 52.7581 27.4422C52.9501 27.6396 53.2275 27.7382 53.5901 27.7382C53.9475 27.7382 54.2195 27.6396 54.4061 27.4422C54.5981 27.2449 54.7235 26.9836 54.7821 26.6582C54.8461 26.3329 54.8781 25.9302 54.8781 25.4502ZM56.5976 25.4502C56.5976 24.5329 56.7469 23.8182 57.0456 23.3062C57.3442 22.7889 57.8669 22.5302 58.6136 22.5302C59.3549 22.5302 59.8749 22.7889 60.1736 23.3062C60.4722 23.8182 60.6216 24.5329 60.6216 25.4502C60.6216 26.3836 60.4722 27.1089 60.1736 27.6262C59.8749 28.1436 59.3549 28.4022 58.6136 28.4022C57.8669 28.4022 57.3442 28.1436 57.0456 27.6262C56.7469 27.1089 56.5976 26.3836 56.5976 25.4502ZM59.9016 25.4502C59.9016 24.9862 59.8696 24.5942 59.8056 24.2742C59.7469 23.9489 59.6216 23.6876 59.4296 23.4902C59.2429 23.2929 58.9709 23.1942 58.6136 23.1942C58.2509 23.1942 57.9736 23.2929 57.7816 23.4902C57.5949 23.6876 57.4696 23.9489 57.4056 24.2742C57.3469 24.5942 57.3176 24.9862 57.3176 25.4502C57.3176 25.9302 57.3469 26.3329 57.4056 26.6582C57.4696 26.9836 57.5949 27.2449 57.7816 27.4422C57.9736 27.6396 58.2509 27.7382 58.6136 27.7382C58.9709 27.7382 59.2429 27.6396 59.4296 27.4422C59.6216 27.2449 59.7469 26.9836 59.8056 26.6582C59.8696 26.3329 59.9016 25.9302 59.9016 25.4502ZM66.125 28.4022H65.397L62.469 23.9622V28.4022H61.741V22.8182H62.469L65.397 27.2502V22.8182H66.125V28.4022ZM69.278 28.4742C68.8673 28.4742 68.494 28.3809 68.158 28.1942C67.8273 28.0076 67.566 27.7436 67.374 27.4022C67.1873 27.0556 67.094 26.6556 67.094 26.2022C67.094 25.7542 67.19 25.3596 67.382 25.0182C67.5793 24.6716 67.846 24.4076 68.182 24.2262C68.518 24.0396 68.894 23.9462 69.31 23.9462C69.726 23.9462 70.102 24.0396 70.438 24.2262C70.774 24.4076 71.038 24.6689 71.23 25.0102C71.4273 25.3516 71.526 25.7489 71.526 26.2022C71.526 26.6556 71.4247 27.0556 71.222 27.4022C71.0247 27.7436 70.7553 28.0076 70.414 28.1942C70.0727 28.3809 69.694 28.4742 69.278 28.4742ZM69.278 27.8342C69.5393 27.8342 69.7847 27.7729 70.014 27.6502C70.2433 27.5276 70.4273 27.3436 70.566 27.0982C70.71 26.8529 70.782 26.5542 70.782 26.2022C70.782 25.8502 70.7127 25.5516 70.574 25.3062C70.4353 25.0609 70.254 24.8796 70.03 24.7622C69.806 24.6396 69.5633 24.5782 69.302 24.5782C69.0353 24.5782 68.79 24.6396 68.566 24.7622C68.3473 24.8796 68.1713 25.0609 68.038 25.3062C67.9047 25.5516 67.838 25.8502 67.838 26.2022C67.838 26.5596 67.902 26.8609 68.03 27.1062C68.1633 27.3516 68.3393 27.5356 68.558 27.6582C68.7767 27.7756 69.0167 27.8342 69.278 27.8342ZM74.0352 28.4742C73.6992 28.4742 73.3979 28.4182 73.1312 28.3062C72.8645 28.1889 72.6539 28.0289 72.4992 27.8262C72.3445 27.6182 72.2592 27.3809 72.2432 27.1142H72.9952C73.0165 27.3329 73.1179 27.5116 73.2992 27.6502C73.4859 27.7889 73.7285 27.8582 74.0272 27.8582C74.3045 27.8582 74.5232 27.7969 74.6832 27.6742C74.8432 27.5516 74.9232 27.3969 74.9232 27.2102C74.9232 27.0182 74.8379 26.8769 74.6672 26.7862C74.4965 26.6902 74.2325 26.5969 73.8752 26.5062C73.5499 26.4209 73.2832 26.3356 73.0752 26.2502C72.8725 26.1596 72.6965 26.0289 72.5472 25.8582C72.4032 25.6822 72.3312 25.4529 72.3312 25.1702C72.3312 24.9462 72.3979 24.7409 72.5312 24.5542C72.6645 24.3676 72.8539 24.2209 73.0992 24.1142C73.3445 24.0022 73.6245 23.9462 73.9392 23.9462C74.4245 23.9462 74.8165 24.0689 75.1152 24.3142C75.4139 24.5596 75.5739 24.8956 75.5952 25.3222H74.8672C74.8512 25.0929 74.7579 24.9089 74.5872 24.7702C74.4219 24.6316 74.1979 24.5622 73.9152 24.5622C73.6539 24.5622 73.4459 24.6182 73.2912 24.7302C73.1365 24.8422 73.0592 24.9889 73.0592 25.1702C73.0592 25.3142 73.1045 25.4342 73.1952 25.5302C73.2912 25.6209 73.4085 25.6956 73.5472 25.7542C73.6912 25.8076 73.8885 25.8689 74.1392 25.9382C74.4539 26.0236 74.7099 26.1089 74.9072 26.1942C75.1045 26.2742 75.2725 26.3969 75.4112 26.5622C75.5552 26.7276 75.6299 26.9436 75.6352 27.2102C75.6352 27.4502 75.5685 27.6662 75.4352 27.8582C75.3019 28.0502 75.1125 28.2022 74.8672 28.3142C74.6272 28.4209 74.3499 28.4742 74.0352 28.4742Z" fill="white"/>
<rect x="83" width="36.5" height="36.5" rx="18.25" fill="white"/>
<path d="M102.159 11.1064C101.574 10.8941 100.927 10.8941 100.342 11.1064L98.6067 11.7365L105.919 14.3927L108.442 13.4763C108.295 13.365 108.13 13.2756 107.954 13.2112L102.159 11.1064ZM104.353 14.9622L97.0396 12.306L94.5477 13.2112C94.3674 13.2771 94.2042 13.3656 94.0584 13.4768L101.25 16.0885L104.353 14.9622ZM93.3755 14.8225C93.3755 14.673 93.3952 14.5282 93.4346 14.3879L100.688 17.0229V25.4964C100.57 25.4711 100.455 25.4379 100.342 25.397L94.5472 23.2922C94.2024 23.1669 93.9058 22.9459 93.6967 22.6583C93.4875 22.3706 93.3755 22.0299 93.3755 21.6809V14.8225ZM102.159 25.397C102.046 25.4385 101.93 25.4718 101.813 25.4969V17.0229L109.066 14.3879C109.105 14.5282 109.125 14.673 109.125 14.8225V21.6809C109.125 22.0299 109.013 22.3706 108.804 22.6583C108.595 22.9459 108.299 23.1669 107.954 23.2922L102.159 25.397Z" fill="#DE5AD5"/>
</svg>
