<svg width="112" height="37" viewBox="0 0 112 37" fill="none" xmlns="http://www.w3.org/2000/svg">
<rect width="36.5" height="36.5" rx="18.25" fill="white"/>
<path d="M18.2491 14.2915C18.4734 14.2915 18.6616 14.2155 18.8136 14.0635C18.9656 13.9115 19.0413 13.7237 19.0408 13.4999C19.0403 13.2761 18.9643 13.0882 18.8128 12.9362C18.6613 12.7842 18.4734 12.7082 18.2491 12.7082C18.0248 12.7082 17.8369 12.7842 17.6854 12.9362C17.534 13.0882 17.458 13.2761 17.4574 13.4999C17.4569 13.7237 17.5329 13.9118 17.6854 14.0643C17.838 14.2169 18.0259 14.2926 18.2491 14.2915ZM20.4856 14.2915H21.871C22.2668 14.2915 22.6099 14.4235 22.9002 14.6874C23.1904 14.9513 23.3686 15.2745 23.4345 15.6572L24.5627 23.5738C24.6286 24.0488 24.5067 24.4679 24.1969 24.831C23.8871 25.1941 23.4878 25.3754 22.9991 25.3749H13.4991C13.0109 25.3749 12.6117 25.1936 12.3013 24.831C11.991 24.4684 11.8691 24.0494 11.9356 23.5738L13.0637 15.6572C13.1297 15.2745 13.3078 14.9513 13.5981 14.6874C13.8883 14.4235 14.2314 14.2915 14.6272 14.2915H16.0127C15.9731 14.1596 15.9401 14.0311 15.9137 13.906C15.8873 13.7809 15.8741 13.6455 15.8741 13.4999C15.8741 12.8402 16.105 12.2794 16.5668 11.8176C17.0286 11.3558 17.5894 11.1249 18.2491 11.1249C18.9088 11.1249 19.4696 11.3558 19.9314 11.8176C20.3932 12.2794 20.6241 12.8402 20.6241 13.4999C20.6241 13.645 20.6109 13.7804 20.5845 13.906C20.5581 14.0316 20.5252 14.1601 20.4856 14.2915Z" fill="#DE5AD5"/>
<path d="M52.925 7.86772L50.68 15.0977H49.465L47.885 10.1577C47.8417 10.0377 47.8017 9.89105 47.765 9.71772C47.745 9.80105 47.725 9.87938 47.705 9.95272C47.685 10.0261 47.6633 10.0944 47.64 10.1577L46.045 15.0977H44.825L42.585 7.86772H43.71C43.8267 7.86772 43.9233 7.89605 44 7.95272C44.08 8.00605 44.1333 8.07938 44.16 8.17272L45.39 12.4977C45.4167 12.6044 45.4417 12.7211 45.465 12.8477C45.4917 12.9711 45.5183 13.1011 45.545 13.2377C45.5717 13.0977 45.6 12.9661 45.63 12.8427C45.6633 12.7194 45.6983 12.6044 45.735 12.4977L47.155 8.17272C47.1817 8.09605 47.2333 8.02605 47.31 7.96272C47.39 7.89938 47.4867 7.86772 47.6 7.86772H47.995C48.1117 7.86772 48.2067 7.89605 48.28 7.95272C48.3533 8.00938 48.4083 8.08272 48.445 8.17272L49.86 12.4977C49.93 12.7044 49.9933 12.9427 50.05 13.2127C50.0933 12.9494 50.1417 12.7111 50.195 12.4977L51.425 8.17272C51.445 8.08938 51.495 8.01772 51.575 7.95772C51.6583 7.89772 51.7567 7.86772 51.87 7.86772H52.925ZM56.3173 11.9427C56.3173 11.7827 56.294 11.6327 56.2473 11.4927C56.204 11.3494 56.1373 11.2244 56.0473 11.1177C55.9573 11.0111 55.8423 10.9277 55.7023 10.8677C55.5657 10.8044 55.4057 10.7727 55.2223 10.7727C54.8657 10.7727 54.584 10.8744 54.3773 11.0777C54.174 11.2811 54.044 11.5694 53.9873 11.9427H56.3173ZM53.9623 12.6877C53.9823 12.9511 54.029 13.1794 54.1023 13.3727C54.1757 13.5627 54.2723 13.7211 54.3923 13.8477C54.5123 13.9711 54.654 14.0644 54.8173 14.1277C54.984 14.1877 55.1673 14.2177 55.3673 14.2177C55.5673 14.2177 55.739 14.1944 55.8823 14.1477C56.029 14.1011 56.1557 14.0494 56.2623 13.9927C56.3723 13.9361 56.4673 13.8844 56.5473 13.8377C56.6307 13.7911 56.7107 13.7677 56.7873 13.7677C56.8907 13.7677 56.9673 13.8061 57.0173 13.8827L57.3723 14.3327C57.2357 14.4927 57.0823 14.6277 56.9123 14.7377C56.7423 14.8444 56.564 14.9311 56.3773 14.9977C56.194 15.0611 56.0057 15.1061 55.8123 15.1327C55.6223 15.1594 55.4373 15.1727 55.2573 15.1727C54.9007 15.1727 54.569 15.1144 54.2623 14.9977C53.9557 14.8777 53.689 14.7027 53.4623 14.4727C53.2357 14.2394 53.0573 13.9527 52.9273 13.6127C52.7973 13.2694 52.7323 12.8727 52.7323 12.4227C52.7323 12.0727 52.789 11.7444 52.9023 11.4377C53.0157 11.1277 53.1773 10.8594 53.3873 10.6327C53.6007 10.4027 53.859 10.2211 54.1623 10.0877C54.469 9.95438 54.814 9.88772 55.1973 9.88772C55.5207 9.88772 55.819 9.93938 56.0923 10.0427C56.3657 10.1461 56.6007 10.2977 56.7973 10.4977C56.994 10.6944 57.1473 10.9377 57.2573 11.2277C57.3707 11.5144 57.4273 11.8427 57.4273 12.2127C57.4273 12.3994 57.4073 12.5261 57.3673 12.5927C57.3273 12.6561 57.2507 12.6877 57.1373 12.6877H53.9623ZM59.6341 9.96772V15.0977H58.3941V9.96772H59.6341ZM59.8041 8.47272C59.8041 8.57938 59.7825 8.67938 59.7391 8.77272C59.6958 8.86605 59.6375 8.94772 59.5641 9.01772C59.4941 9.08772 59.4108 9.14438 59.3141 9.18772C59.2175 9.22772 59.1141 9.24772 59.0041 9.24772C58.8975 9.24772 58.7958 9.22772 58.6991 9.18772C58.6058 9.14438 58.5241 9.08772 58.4541 9.01772C58.3841 8.94772 58.3275 8.86605 58.2841 8.77272C58.2441 8.67938 58.2241 8.57938 58.2241 8.47272C58.2241 8.36272 58.2441 8.25938 58.2841 8.16272C58.3275 8.06605 58.3841 7.98272 58.4541 7.91272C58.5241 7.84272 58.6058 7.78772 58.6991 7.74772C58.7958 7.70438 58.8975 7.68272 59.0041 7.68272C59.1141 7.68272 59.2175 7.70438 59.3141 7.74772C59.4108 7.78772 59.4941 7.84272 59.5641 7.91272C59.6375 7.98272 59.6958 8.06605 59.7391 8.16272C59.7825 8.25938 59.8041 8.36272 59.8041 8.47272ZM62.7682 12.4077C62.9215 12.4077 63.0549 12.3877 63.1682 12.3477C63.2815 12.3044 63.3749 12.2461 63.4482 12.1727C63.5249 12.0994 63.5815 12.0111 63.6182 11.9077C63.6582 11.8044 63.6782 11.6911 63.6782 11.5677C63.6782 11.3144 63.6015 11.1144 63.4482 10.9677C63.2982 10.8177 63.0715 10.7427 62.7682 10.7427C62.4649 10.7427 62.2365 10.8177 62.0832 10.9677C61.9332 11.1144 61.8582 11.3144 61.8582 11.5677C61.8582 11.6877 61.8765 11.7994 61.9132 11.9027C61.9532 12.0061 62.0099 12.0961 62.0832 12.1727C62.1599 12.2461 62.2549 12.3044 62.3682 12.3477C62.4849 12.3877 62.6182 12.4077 62.7682 12.4077ZM64.1632 15.3277C64.1632 15.2277 64.1332 15.1461 64.0732 15.0827C64.0132 15.0194 63.9315 14.9711 63.8282 14.9377C63.7249 14.9011 63.6032 14.8744 63.4632 14.8577C63.3265 14.8411 63.1799 14.8294 63.0232 14.8227C62.8699 14.8127 62.7099 14.8044 62.5432 14.7977C62.3799 14.7911 62.2199 14.7777 62.0632 14.7577C61.9265 14.8344 61.8149 14.9244 61.7282 15.0277C61.6449 15.1311 61.6032 15.2511 61.6032 15.3877C61.6032 15.4777 61.6249 15.5611 61.6682 15.6377C61.7149 15.7177 61.7865 15.7861 61.8832 15.8427C61.9832 15.8994 62.1115 15.9427 62.2682 15.9727C62.4249 16.0061 62.6165 16.0227 62.8432 16.0227C63.0732 16.0227 63.2715 16.0044 63.4382 15.9677C63.6049 15.9344 63.7415 15.8861 63.8482 15.8227C63.9582 15.7627 64.0382 15.6894 64.0882 15.6027C64.1382 15.5194 64.1632 15.4277 64.1632 15.3277ZM65.3932 10.1427V10.6027C65.3932 10.7494 65.3049 10.8394 65.1282 10.8727L64.6682 10.9577C64.7382 11.1344 64.7732 11.3277 64.7732 11.5377C64.7732 11.7911 64.7215 12.0211 64.6182 12.2277C64.5182 12.4311 64.3782 12.6044 64.1982 12.7477C64.0182 12.8911 63.8049 13.0027 63.5582 13.0827C63.3149 13.1594 63.0515 13.1977 62.7682 13.1977C62.6682 13.1977 62.5715 13.1927 62.4782 13.1827C62.3849 13.1727 62.2932 13.1594 62.2032 13.1427C62.0432 13.2394 61.9632 13.3477 61.9632 13.4677C61.9632 13.5711 62.0099 13.6477 62.1032 13.6977C62.1999 13.7444 62.3265 13.7777 62.4832 13.7977C62.6399 13.8177 62.8182 13.8311 63.0182 13.8377C63.2182 13.8411 63.4232 13.8511 63.6332 13.8677C63.8432 13.8844 64.0482 13.9144 64.2482 13.9577C64.4482 13.9977 64.6265 14.0627 64.7832 14.1527C64.9399 14.2427 65.0649 14.3661 65.1582 14.5227C65.2549 14.6761 65.3032 14.8744 65.3032 15.1177C65.3032 15.3444 65.2465 15.5644 65.1332 15.7777C65.0232 15.9911 64.8615 16.1811 64.6482 16.3477C64.4382 16.5144 64.1782 16.6477 63.8682 16.7477C63.5615 16.8511 63.2115 16.9027 62.8182 16.9027C62.4315 16.9027 62.0949 16.8644 61.8082 16.7877C61.5215 16.7144 61.2832 16.6144 61.0932 16.4877C60.9032 16.3644 60.7615 16.2211 60.6682 16.0577C60.5749 15.8944 60.5282 15.7244 60.5282 15.5477C60.5282 15.3077 60.5999 15.1077 60.7432 14.9477C60.8899 14.7844 61.0899 14.6544 61.3432 14.5577C61.2065 14.4877 61.0982 14.3944 61.0182 14.2777C60.9382 14.1611 60.8982 14.0077 60.8982 13.8177C60.8982 13.7411 60.9115 13.6627 60.9382 13.5827C60.9682 13.4994 61.0099 13.4177 61.0632 13.3377C61.1199 13.2577 61.1899 13.1827 61.2732 13.1127C61.3565 13.0394 61.4549 12.9744 61.5682 12.9177C61.3082 12.7777 61.1032 12.5911 60.9532 12.3577C60.8065 12.1244 60.7332 11.8511 60.7332 11.5377C60.7332 11.2844 60.7832 11.0561 60.8832 10.8527C60.9865 10.6461 61.1282 10.4711 61.3082 10.3277C61.4915 10.1811 61.7065 10.0694 61.9532 9.99272C62.2032 9.91605 62.4749 9.87772 62.7682 9.87772C62.9882 9.87772 63.1949 9.90105 63.3882 9.94772C63.5815 9.99105 63.7582 10.0561 63.9182 10.1427H65.3932ZM67.4114 10.5177C67.6114 10.3311 67.8314 10.1794 68.0714 10.0627C68.3114 9.94605 68.5931 9.88772 68.9164 9.88772C69.1964 9.88772 69.4447 9.93605 69.6614 10.0327C69.8781 10.1261 70.0581 10.2594 70.2014 10.4327C70.3481 10.6027 70.4581 10.8077 70.5314 11.0477C70.6081 11.2844 70.6464 11.5461 70.6464 11.8327V15.0977H69.4114V11.8327C69.4114 11.5194 69.3397 11.2777 69.1964 11.1077C69.0531 10.9344 68.8347 10.8477 68.5414 10.8477C68.3281 10.8477 68.1281 10.8961 67.9414 10.9927C67.7547 11.0894 67.5781 11.2211 67.4114 11.3877V15.0977H66.1764V7.66772H67.4114V10.5177ZM73.4626 15.1777C73.0159 15.1777 72.6726 15.0527 72.4326 14.8027C72.1959 14.5494 72.0776 14.2011 72.0776 13.7577V10.8927H71.5526C71.4859 10.8927 71.4292 10.8711 71.3826 10.8277C71.3359 10.7844 71.3126 10.7194 71.3126 10.6327V10.1427L72.1376 10.0077L72.3976 8.60772C72.4142 8.54105 72.4459 8.48938 72.4926 8.45272C72.5392 8.41605 72.5992 8.39772 72.6726 8.39772H73.3126V10.0127H74.6826V10.8927H73.3126V13.6727C73.3126 13.8327 73.3509 13.9577 73.4276 14.0477C73.5076 14.1377 73.6159 14.1827 73.7526 14.1827C73.8292 14.1827 73.8926 14.1744 73.9426 14.1577C73.9959 14.1377 74.0409 14.1177 74.0776 14.0977C74.1176 14.0777 74.1526 14.0594 74.1826 14.0427C74.2126 14.0227 74.2426 14.0127 74.2726 14.0127C74.3092 14.0127 74.3392 14.0227 74.3626 14.0427C74.3859 14.0594 74.4109 14.0861 74.4376 14.1227L74.8076 14.7227C74.6276 14.8727 74.4209 14.9861 74.1876 15.0627C73.9542 15.1394 73.7126 15.1777 73.4626 15.1777Z" fill="white"/>
<path d="M42.908 27.8182C43.5853 27.2742 44.116 26.8289 44.5 26.4822C44.884 26.1302 45.2067 25.7649 45.468 25.3862C45.7347 25.0022 45.868 24.6262 45.868 24.2582C45.868 23.9116 45.7827 23.6396 45.612 23.4422C45.4467 23.2396 45.1773 23.1382 44.804 23.1382C44.4413 23.1382 44.1587 23.2529 43.956 23.4822C43.7587 23.7062 43.652 24.0076 43.636 24.3862H42.932C42.9533 23.7889 43.1347 23.3276 43.476 23.0022C43.8173 22.6769 44.2573 22.5142 44.796 22.5142C45.3453 22.5142 45.78 22.6662 46.1 22.9702C46.4253 23.2742 46.588 23.6929 46.588 24.2262C46.588 24.6689 46.4547 25.1009 46.188 25.5222C45.9267 25.9382 45.628 26.3062 45.292 26.6262C44.956 26.9409 44.5267 27.3089 44.004 27.7302H46.756V28.3382H42.908V27.8182ZM48.5336 26.8502C48.5869 27.1542 48.7096 27.3889 48.9016 27.5542C49.0989 27.7196 49.3629 27.8022 49.6936 27.8022C50.1362 27.8022 50.4616 27.6289 50.6696 27.2822C50.8829 26.9356 50.9842 26.3516 50.9736 25.5302C50.8616 25.7702 50.6749 25.9596 50.4136 26.0982C50.1522 26.2316 49.8616 26.2982 49.5416 26.2982C49.1842 26.2982 48.8642 26.2262 48.5816 26.0822C48.3042 25.9329 48.0856 25.7169 47.9256 25.4342C47.7656 25.1516 47.6856 24.8102 47.6856 24.4102C47.6856 23.8396 47.8509 23.3809 48.1816 23.0342C48.5122 22.6822 48.9816 22.5062 49.5896 22.5062C50.3362 22.5062 50.8589 22.7489 51.1576 23.2342C51.4616 23.7196 51.6136 24.4422 51.6136 25.4022C51.6136 26.0742 51.5522 26.6289 51.4296 27.0662C51.3122 27.5036 51.1096 27.8369 50.8216 28.0662C50.5389 28.2956 50.1496 28.4102 49.6536 28.4102C49.1096 28.4102 48.6856 28.2636 48.3816 27.9702C48.0776 27.6769 47.9042 27.3036 47.8616 26.8502H48.5336ZM49.6616 25.6822C50.0189 25.6822 50.3122 25.5729 50.5416 25.3542C50.7709 25.1302 50.8856 24.8289 50.8856 24.4502C50.8856 24.0502 50.7736 23.7276 50.5496 23.4822C50.3256 23.2369 50.0109 23.1142 49.6056 23.1142C49.2322 23.1142 48.9336 23.2316 48.7096 23.4662C48.4909 23.7009 48.3816 24.0102 48.3816 24.3942C48.3816 24.7836 48.4909 25.0956 48.7096 25.3302C48.9282 25.5649 49.2456 25.6822 49.6616 25.6822ZM52.9886 28.4502C52.85 28.4502 52.7326 28.4022 52.6366 28.3062C52.5406 28.2102 52.4926 28.0929 52.4926 27.9542C52.4926 27.8156 52.5406 27.6982 52.6366 27.6022C52.7326 27.5062 52.85 27.4582 52.9886 27.4582C53.122 27.4582 53.234 27.5062 53.3246 27.6022C53.4206 27.6982 53.4686 27.8156 53.4686 27.9542C53.4686 28.0929 53.4206 28.2102 53.3246 28.3062C53.234 28.4022 53.122 28.4502 52.9886 28.4502ZM55.2523 26.8502C55.3056 27.1542 55.4283 27.3889 55.6203 27.5542C55.8176 27.7196 56.0816 27.8022 56.4123 27.8022C56.855 27.8022 57.1803 27.6289 57.3883 27.2822C57.6016 26.9356 57.703 26.3516 57.6923 25.5302C57.5803 25.7702 57.3936 25.9596 57.1323 26.0982C56.871 26.2316 56.5803 26.2982 56.2603 26.2982C55.903 26.2982 55.583 26.2262 55.3003 26.0822C55.023 25.9329 54.8043 25.7169 54.6443 25.4342C54.4843 25.1516 54.4043 24.8102 54.4043 24.4102C54.4043 23.8396 54.5696 23.3809 54.9003 23.0342C55.231 22.6822 55.7003 22.5062 56.3083 22.5062C57.055 22.5062 57.5776 22.7489 57.8763 23.2342C58.1803 23.7196 58.3323 24.4422 58.3323 25.4022C58.3323 26.0742 58.271 26.6289 58.1483 27.0662C58.031 27.5036 57.8283 27.8369 57.5403 28.0662C57.2576 28.2956 56.8683 28.4102 56.3723 28.4102C55.8283 28.4102 55.4043 28.2636 55.1003 27.9702C54.7963 27.6769 54.623 27.3036 54.5803 26.8502H55.2523ZM56.3803 25.6822C56.7376 25.6822 57.031 25.5729 57.2603 25.3542C57.4896 25.1302 57.6043 24.8289 57.6043 24.4502C57.6043 24.0502 57.4923 23.7276 57.2683 23.4822C57.0443 23.2369 56.7296 23.1142 56.3243 23.1142C55.951 23.1142 55.6523 23.2316 55.4283 23.4662C55.2096 23.7009 55.1003 24.0102 55.1003 24.3942C55.1003 24.7836 55.2096 25.0956 55.4283 25.3302C55.647 25.5649 55.9643 25.6822 56.3803 25.6822ZM60.2914 26.8502C60.3447 27.1542 60.4674 27.3889 60.6594 27.5542C60.8567 27.7196 61.1207 27.8022 61.4514 27.8022C61.894 27.8022 62.2194 27.6289 62.4274 27.2822C62.6407 26.9356 62.742 26.3516 62.7314 25.5302C62.6194 25.7702 62.4327 25.9596 62.1714 26.0982C61.91 26.2316 61.6194 26.2982 61.2994 26.2982C60.942 26.2982 60.622 26.2262 60.3394 26.0822C60.062 25.9329 59.8434 25.7169 59.6834 25.4342C59.5234 25.1516 59.4434 24.8102 59.4434 24.4102C59.4434 23.8396 59.6087 23.3809 59.9394 23.0342C60.27 22.6822 60.7394 22.5062 61.3474 22.5062C62.094 22.5062 62.6167 22.7489 62.9154 23.2342C63.2194 23.7196 63.3714 24.4422 63.3714 25.4022C63.3714 26.0742 63.31 26.6289 63.1874 27.0662C63.07 27.5036 62.8674 27.8369 62.5794 28.0662C62.2967 28.2956 61.9074 28.4102 61.4114 28.4102C60.8674 28.4102 60.4434 28.2636 60.1394 27.9702C59.8354 27.6769 59.662 27.3036 59.6194 26.8502H60.2914ZM61.4194 25.6822C61.7767 25.6822 62.07 25.5729 62.2994 25.3542C62.5287 25.1302 62.6434 24.8289 62.6434 24.4502C62.6434 24.0502 62.5314 23.7276 62.3074 23.4822C62.0834 23.2369 61.7687 23.1142 61.3634 23.1142C60.99 23.1142 60.6914 23.2316 60.4674 23.4662C60.2487 23.7009 60.1394 24.0102 60.1394 24.3942C60.1394 24.7836 60.2487 25.0956 60.4674 25.3302C60.686 25.5649 61.0034 25.6822 61.4194 25.6822ZM68.4553 23.9462C68.8339 23.9462 69.1646 24.0289 69.4473 24.1942C69.7353 24.3596 69.9486 24.5676 70.0873 24.8182V24.0182H70.8233V28.4982C70.8233 28.8982 70.7379 29.2529 70.5673 29.5622C70.3966 29.8769 70.1513 30.1222 69.8313 30.2982C69.5166 30.4742 69.1486 30.5622 68.7273 30.5622C68.1513 30.5622 67.6713 30.4262 67.2873 30.1542C66.9033 29.8822 66.6766 29.5116 66.6073 29.0422H67.3273C67.4073 29.3089 67.5726 29.5222 67.8233 29.6822C68.0739 29.8476 68.3753 29.9302 68.7273 29.9302C69.1273 29.9302 69.4526 29.8049 69.7033 29.5542C69.9593 29.3036 70.0873 28.9516 70.0873 28.4982V27.5782C69.9433 27.8342 69.7299 28.0476 69.4473 28.2182C69.1646 28.3889 68.8339 28.4742 68.4553 28.4742C68.0659 28.4742 67.7113 28.3782 67.3913 28.1862C67.0766 27.9942 66.8286 27.7249 66.6473 27.3782C66.4659 27.0316 66.3753 26.6369 66.3753 26.1942C66.3753 25.7462 66.4659 25.3542 66.6473 25.0182C66.8286 24.6769 67.0766 24.4129 67.3913 24.2262C67.7113 24.0396 68.0659 23.9462 68.4553 23.9462ZM70.0873 26.2022C70.0873 25.8716 70.0206 25.5836 69.8873 25.3382C69.7539 25.0929 69.5726 24.9062 69.3433 24.7782C69.1193 24.6449 68.8713 24.5782 68.5993 24.5782C68.3273 24.5782 68.0793 24.6422 67.8553 24.7702C67.6313 24.8982 67.4526 25.0849 67.3193 25.3302C67.1859 25.5756 67.1193 25.8636 67.1193 26.1942C67.1193 26.5302 67.1859 26.8236 67.3193 27.0742C67.4526 27.3196 67.6313 27.5089 67.8553 27.6422C68.0793 27.7702 68.3273 27.8342 68.5993 27.8342C68.8713 27.8342 69.1193 27.7702 69.3433 27.6422C69.5726 27.5089 69.7539 27.3196 69.8873 27.0742C70.0206 26.8236 70.0873 26.5329 70.0873 26.2022Z" fill="white"/>
</svg>
