<svg width="162" height="37" viewBox="0 0 162 37" fill="none" xmlns="http://www.w3.org/2000/svg">
<path d="M5.88 17L3.836 13.29H3.262V17H0.868V7.172H4.886C5.66067 7.172 6.31867 7.30733 6.86 7.578C7.41067 7.84867 7.82133 8.222 8.092 8.698C8.36267 9.16467 8.498 9.68733 8.498 10.266C8.498 10.9193 8.31133 11.5027 7.938 12.016C7.574 12.5293 7.03267 12.8933 6.314 13.108L8.582 17H5.88ZM3.262 11.596H4.746C5.18467 11.596 5.51133 11.4887 5.726 11.274C5.95 11.0593 6.062 10.756 6.062 10.364C6.062 9.99067 5.95 9.69667 5.726 9.482C5.51133 9.26733 5.18467 9.16 4.746 9.16H3.262V11.596ZM15.6988 17L12.3948 12.66V17H10.0008V7.172H12.3948V11.484L15.6708 7.172H18.4848L14.6768 11.988L18.6248 17H15.6988ZM30.2193 10.336C30.2193 10.9053 30.0887 11.428 29.8273 11.904C29.566 12.3707 29.1647 12.7487 28.6233 13.038C28.082 13.3273 27.41 13.472 26.6073 13.472H25.1233V17H22.7293V7.172H26.6073C27.3913 7.172 28.054 7.30733 28.5953 7.578C29.1367 7.84867 29.5427 8.222 29.8133 8.698C30.084 9.174 30.2193 9.72 30.2193 10.336ZM26.4253 11.568C26.8827 11.568 27.2233 11.4607 27.4473 11.246C27.6713 11.0313 27.7833 10.728 27.7833 10.336C27.7833 9.944 27.6713 9.64067 27.4473 9.426C27.2233 9.21133 26.8827 9.104 26.4253 9.104H25.1233V11.568H26.4253ZM36.1137 17.098C35.1897 17.098 34.3403 16.8833 33.5657 16.454C32.8003 16.0247 32.189 15.4273 31.7317 14.662C31.2837 13.8873 31.0597 13.0193 31.0597 12.058C31.0597 11.0967 31.2837 10.2333 31.7317 9.468C32.189 8.70267 32.8003 8.10533 33.5657 7.676C34.3403 7.24667 35.1897 7.032 36.1137 7.032C37.0377 7.032 37.8823 7.24667 38.6477 7.676C39.4223 8.10533 40.029 8.70267 40.4677 9.468C40.9157 10.2333 41.1397 11.0967 41.1397 12.058C41.1397 13.0193 40.9157 13.8873 40.4677 14.662C40.0197 15.4273 39.413 16.0247 38.6477 16.454C37.8823 16.8833 37.0377 17.098 36.1137 17.098ZM36.1137 14.914C36.8977 14.914 37.523 14.6527 37.9897 14.13C38.4657 13.6073 38.7037 12.9167 38.7037 12.058C38.7037 11.19 38.4657 10.4993 37.9897 9.986C37.523 9.46333 36.8977 9.202 36.1137 9.202C35.3203 9.202 34.6857 9.45867 34.2097 9.972C33.743 10.4853 33.5097 11.1807 33.5097 12.058C33.5097 12.926 33.743 13.6213 34.2097 14.144C34.6857 14.6573 35.3203 14.914 36.1137 14.914ZM44.8655 15.152H48.0015V17H42.4715V7.172H44.8655V15.152ZM57.5714 7.172L54.1694 13.752V17H51.7754V13.752L48.3734 7.172H51.0894L52.9934 11.288L54.8834 7.172H57.5714ZM64.0636 12.072C64.0636 11.1013 64.2736 10.238 64.6936 9.482C65.1136 8.71667 65.6969 8.124 66.4436 7.704C67.1996 7.27467 68.0536 7.06 69.0056 7.06C70.1722 7.06 71.1709 7.368 72.0016 7.984C72.8322 8.6 73.3876 9.44 73.6676 10.504H71.0356C70.8396 10.0933 70.5596 9.78067 70.1956 9.566C69.8409 9.35133 69.4349 9.244 68.9776 9.244C68.2402 9.244 67.6429 9.50067 67.1856 10.014C66.7282 10.5273 66.4996 11.2133 66.4996 12.072C66.4996 12.9307 66.7282 13.6167 67.1856 14.13C67.6429 14.6433 68.2402 14.9 68.9776 14.9C69.4349 14.9 69.8409 14.7927 70.1956 14.578C70.5596 14.3633 70.8396 14.0507 71.0356 13.64H73.6676C73.3876 14.704 72.8322 15.544 72.0016 16.16C71.1709 16.7667 70.1722 17.07 69.0056 17.07C68.0536 17.07 67.1996 16.86 66.4436 16.44C65.6969 16.0107 65.1136 15.418 64.6936 14.662C64.2736 13.906 64.0636 13.0427 64.0636 12.072ZM79.7816 17.098C78.8576 17.098 78.0083 16.8833 77.2336 16.454C76.4683 16.0247 75.857 15.4273 75.3996 14.662C74.9516 13.8873 74.7276 13.0193 74.7276 12.058C74.7276 11.0967 74.9516 10.2333 75.3996 9.468C75.857 8.70267 76.4683 8.10533 77.2336 7.676C78.0083 7.24667 78.8576 7.032 79.7816 7.032C80.7056 7.032 81.5503 7.24667 82.3156 7.676C83.0903 8.10533 83.697 8.70267 84.1356 9.468C84.5836 10.2333 84.8076 11.0967 84.8076 12.058C84.8076 13.0193 84.5836 13.8873 84.1356 14.662C83.6876 15.4273 83.081 16.0247 82.3156 16.454C81.5503 16.8833 80.7056 17.098 79.7816 17.098ZM79.7816 14.914C80.5656 14.914 81.191 14.6527 81.6576 14.13C82.1336 13.6073 82.3716 12.9167 82.3716 12.058C82.3716 11.19 82.1336 10.4993 81.6576 9.986C81.191 9.46333 80.5656 9.202 79.7816 9.202C78.9883 9.202 78.3536 9.45867 77.8776 9.972C77.411 10.4853 77.1776 11.1807 77.1776 12.058C77.1776 12.926 77.411 13.6213 77.8776 14.144C78.3536 14.6573 78.9883 14.914 79.7816 14.914ZM94.9315 17H92.5375L88.5335 10.938V17H86.1395V7.172H88.5335L92.5375 13.262V7.172H94.9315V17ZM103.737 7.172V9.09H101.133V17H98.7388V9.09H96.1348V7.172H103.737ZM111.056 15.264H107.388L106.8 17H104.294L107.85 7.172H110.622L114.178 17H111.644L111.056 15.264ZM110.44 13.416L109.222 9.818L108.018 13.416H110.44ZM117.655 7.172V17H115.261V7.172H117.655ZM128.181 17H125.787L121.783 10.938V17H119.389V7.172H121.783L125.787 13.262V7.172H128.181V17ZM132.311 9.09V11.078H135.517V12.926H132.311V15.082H135.937V17H129.917V7.172H135.937V9.09H132.311ZM142.503 17L140.459 13.29H139.885V17H137.491V7.172H141.509C142.284 7.172 142.942 7.30733 143.483 7.578C144.034 7.84867 144.444 8.222 144.715 8.698C144.986 9.16467 145.121 9.68733 145.121 10.266C145.121 10.9193 144.934 11.5027 144.561 12.016C144.197 12.5293 143.656 12.8933 142.937 13.108L145.205 17H142.503ZM139.885 11.596H141.369C141.808 11.596 142.134 11.4887 142.349 11.274C142.573 11.0593 142.685 10.756 142.685 10.364C142.685 9.99067 142.573 9.69667 142.349 9.482C142.134 9.26733 141.808 9.16 141.369 9.16H139.885V11.596ZM150.18 17.098C149.461 17.098 148.817 16.9813 148.248 16.748C147.679 16.5147 147.221 16.1693 146.876 15.712C146.54 15.2547 146.363 14.704 146.344 14.06H148.892C148.929 14.424 149.055 14.704 149.27 14.9C149.485 15.0867 149.765 15.18 150.11 15.18C150.465 15.18 150.745 15.1007 150.95 14.942C151.155 14.774 151.258 14.5453 151.258 14.256C151.258 14.0133 151.174 13.8127 151.006 13.654C150.847 13.4953 150.647 13.3647 150.404 13.262C150.171 13.1593 149.835 13.0427 149.396 12.912C148.761 12.716 148.243 12.52 147.842 12.324C147.441 12.128 147.095 11.8387 146.806 11.456C146.517 11.0733 146.372 10.574 146.372 9.958C146.372 9.04333 146.703 8.32933 147.366 7.816C148.029 7.29333 148.892 7.032 149.956 7.032C151.039 7.032 151.911 7.29333 152.574 7.816C153.237 8.32933 153.591 9.048 153.638 9.972H151.048C151.029 9.65467 150.913 9.40733 150.698 9.23C150.483 9.04333 150.208 8.95 149.872 8.95C149.583 8.95 149.349 9.02933 149.172 9.188C148.995 9.33733 148.906 9.55667 148.906 9.846C148.906 10.1633 149.055 10.4107 149.354 10.588C149.653 10.7653 150.119 10.9567 150.754 11.162C151.389 11.3767 151.902 11.582 152.294 11.778C152.695 11.974 153.041 12.2587 153.33 12.632C153.619 13.0053 153.764 13.486 153.764 14.074C153.764 14.634 153.619 15.1427 153.33 15.6C153.05 16.0573 152.639 16.4213 152.098 16.692C151.557 16.9627 150.917 17.098 150.18 17.098Z" fill="#777878"/>
<path d="M3.144 34.056C2.62667 34.056 2.15467 33.936 1.728 33.696C1.30133 33.4507 0.962667 33.112 0.712 32.68C0.466667 32.2427 0.344 31.752 0.344 31.208C0.344 30.664 0.466667 30.176 0.712 29.744C0.962667 29.3067 1.30133 28.968 1.728 28.728C2.15467 28.4827 2.62667 28.36 3.144 28.36C3.66667 28.36 4.14133 28.4827 4.568 28.728C4.99467 28.968 5.33067 29.304 5.576 29.736C5.82133 30.168 5.944 30.6587 5.944 31.208C5.944 31.7573 5.82133 32.248 5.576 32.68C5.33067 33.112 4.99467 33.4507 4.568 33.696C4.14133 33.936 3.66667 34.056 3.144 34.056ZM3.144 33.424C3.53333 33.424 3.88267 33.3333 4.192 33.152C4.50667 32.9707 4.752 32.712 4.928 32.376C5.10933 32.04 5.2 31.6507 5.2 31.208C5.2 30.76 5.10933 30.3707 4.928 30.04C4.752 29.704 4.50933 29.4453 4.2 29.264C3.89067 29.0827 3.53867 28.992 3.144 28.992C2.74933 28.992 2.39733 29.0827 2.088 29.264C1.77867 29.4453 1.53333 29.704 1.352 30.04C1.176 30.3707 1.088 30.76 1.088 31.208C1.088 31.6507 1.176 32.04 1.352 32.376C1.53333 32.712 1.77867 32.9707 2.088 33.152C2.40267 33.3333 2.75467 33.424 3.144 33.424ZM11.5131 28.424L9.40906 34H8.56906L6.46506 28.424H7.24106L8.99306 33.232L10.7451 28.424H11.5131ZM15.6073 32.76H13.1753L12.7273 34H11.9593L13.9753 28.456H14.8153L16.8233 34H16.0553L15.6073 32.76ZM15.3993 32.168L14.3913 29.352L13.3833 32.168H15.3993ZM18.4299 33.408H20.3819V34H17.7019V28.424H18.4299V33.408ZM23.0159 31.208C23.0159 30.664 23.1385 30.176 23.3839 29.744C23.6292 29.3067 23.9625 28.9653 24.3839 28.72C24.8105 28.4747 25.2825 28.352 25.7999 28.352C26.4079 28.352 26.9385 28.4987 27.3919 28.792C27.8452 29.0853 28.1759 29.5013 28.3839 30.04H27.5119C27.3572 29.704 27.1332 29.4453 26.8399 29.264C26.5519 29.0827 26.2052 28.992 25.7999 28.992C25.4105 28.992 25.0612 29.0827 24.7519 29.264C24.4425 29.4453 24.1999 29.704 24.0239 30.04C23.8479 30.3707 23.7599 30.76 23.7599 31.208C23.7599 31.6507 23.8479 32.04 24.0239 32.376C24.1999 32.7067 24.4425 32.9627 24.7519 33.144C25.0612 33.3253 25.4105 33.416 25.7999 33.416C26.2052 33.416 26.5519 33.328 26.8399 33.152C27.1332 32.9707 27.3572 32.712 27.5119 32.376H28.3839C28.1759 32.9093 27.8452 33.3227 27.3919 33.616C26.9385 33.904 26.4079 34.048 25.7999 34.048C25.2825 34.048 24.8105 33.928 24.3839 33.688C23.9625 33.4427 23.6292 33.104 23.3839 32.672C23.1385 32.24 23.0159 31.752 23.0159 31.208ZM31.9956 34.056C31.4782 34.056 31.0062 33.936 30.5796 33.696C30.1529 33.4507 29.8142 33.112 29.5636 32.68C29.3182 32.2427 29.1956 31.752 29.1956 31.208C29.1956 30.664 29.3182 30.176 29.5636 29.744C29.8142 29.3067 30.1529 28.968 30.5796 28.728C31.0062 28.4827 31.4782 28.36 31.9956 28.36C32.5182 28.36 32.9929 28.4827 33.4196 28.728C33.8462 28.968 34.1822 29.304 34.4276 29.736C34.6729 30.168 34.7956 30.6587 34.7956 31.208C34.7956 31.7573 34.6729 32.248 34.4276 32.68C34.1822 33.112 33.8462 33.4507 33.4196 33.696C32.9929 33.936 32.5182 34.056 31.9956 34.056ZM31.9956 33.424C32.3849 33.424 32.7342 33.3333 33.0436 33.152C33.3582 32.9707 33.6036 32.712 33.7796 32.376C33.9609 32.04 34.0516 31.6507 34.0516 31.208C34.0516 30.76 33.9609 30.3707 33.7796 30.04C33.6036 29.704 33.3609 29.4453 33.0516 29.264C32.7422 29.0827 32.3902 28.992 31.9956 28.992C31.6009 28.992 31.2489 29.0827 30.9396 29.264C30.6302 29.4453 30.3849 29.704 30.2036 30.04C30.0276 30.3707 29.9396 30.76 29.9396 31.208C29.9396 31.6507 30.0276 32.04 30.2036 32.376C30.3849 32.712 30.6302 32.9707 30.9396 33.152C31.2542 33.3333 31.6062 33.424 31.9956 33.424ZM40.1406 34H39.4126L36.4846 29.56V34H35.7566V28.416H36.4846L39.4126 32.848V28.416H40.1406V34ZM44.8136 28.424V29.016H43.2936V34H42.5656V29.016H41.0376V28.424H44.8136ZM49.0058 32.76H46.5738L46.1258 34H45.3577L47.3738 28.456H48.2138L50.2218 34H49.4538L49.0058 32.76ZM48.7978 32.168L47.7898 29.352L46.7818 32.168H48.7978ZM51.8284 28.424V34H51.1004V28.424H51.8284ZM57.4531 34H56.7251L53.7971 29.56V34H53.0691V28.416H53.7971L56.7251 32.848V28.416H57.4531V34ZM59.4221 29.016V30.88H61.4541V31.48H59.4221V33.4H61.6941V34H58.6941V28.416H61.6941V29.016H59.4221ZM65.7317 34L64.4037 31.72H63.5237V34H62.7957V28.424H64.5957C65.017 28.424 65.3717 28.496 65.6597 28.64C65.953 28.784 66.1717 28.9787 66.3157 29.224C66.4597 29.4693 66.5317 29.7493 66.5317 30.064C66.5317 30.448 66.4197 30.7867 66.1957 31.08C65.977 31.3733 65.6464 31.568 65.2037 31.664L66.6037 34H65.7317ZM63.5237 31.136H64.5957C64.9904 31.136 65.2864 31.04 65.4837 30.848C65.681 30.6507 65.7797 30.3893 65.7797 30.064C65.7797 29.7333 65.681 29.4773 65.4837 29.296C65.2917 29.1147 64.9957 29.024 64.5957 29.024H63.5237V31.136ZM72.8357 30.76V31.376H69.6437V30.76H72.8357ZM80.0628 30.056C80.0628 30.52 79.9028 30.9067 79.5828 31.216C79.2681 31.52 78.7854 31.672 78.1348 31.672H77.0628V34H76.3348V28.424H78.1348C78.7641 28.424 79.2414 28.576 79.5668 28.88C79.8974 29.184 80.0628 29.576 80.0628 30.056ZM78.1348 31.072C78.5401 31.072 78.8388 30.984 79.0308 30.808C79.2228 30.632 79.3188 30.3813 79.3188 30.056C79.3188 29.368 78.9241 29.024 78.1348 29.024H77.0628V31.072H78.1348ZM83.9036 34L82.5756 31.72H81.6956V34H80.9676V28.424H82.7676C83.1889 28.424 83.5436 28.496 83.8316 28.64C84.1249 28.784 84.3436 28.9787 84.4876 29.224C84.6316 29.4693 84.7036 29.7493 84.7036 30.064C84.7036 30.448 84.5916 30.7867 84.3676 31.08C84.1489 31.3733 83.8182 31.568 83.3756 31.664L84.7756 34H83.9036ZM81.6956 31.136H82.7676C83.1622 31.136 83.4582 31.04 83.6556 30.848C83.8529 30.6507 83.9516 30.3893 83.9516 30.064C83.9516 29.7333 83.8529 29.4773 83.6556 29.296C83.4636 29.1147 83.1676 29.024 82.7676 29.024H81.6956V31.136ZM88.3628 34.056C87.8454 34.056 87.3734 33.936 86.9468 33.696C86.5201 33.4507 86.1814 33.112 85.9308 32.68C85.6854 32.2427 85.5628 31.752 85.5628 31.208C85.5628 30.664 85.6854 30.176 85.9308 29.744C86.1814 29.3067 86.5201 28.968 86.9468 28.728C87.3734 28.4827 87.8454 28.36 88.3628 28.36C88.8854 28.36 89.3601 28.4827 89.7868 28.728C90.2134 28.968 90.5494 29.304 90.7948 29.736C91.0401 30.168 91.1628 30.6587 91.1628 31.208C91.1628 31.7573 91.0401 32.248 90.7948 32.68C90.5494 33.112 90.2134 33.4507 89.7868 33.696C89.3601 33.936 88.8854 34.056 88.3628 34.056ZM88.3628 33.424C88.7521 33.424 89.1014 33.3333 89.4108 33.152C89.7254 32.9707 89.9708 32.712 90.1468 32.376C90.3281 32.04 90.4188 31.6507 90.4188 31.208C90.4188 30.76 90.3281 30.3707 90.1468 30.04C89.9708 29.704 89.7281 29.4453 89.4188 29.264C89.1094 29.0827 88.7574 28.992 88.3628 28.992C87.9681 28.992 87.6161 29.0827 87.3068 29.264C86.9974 29.4453 86.7521 29.704 86.5708 30.04C86.3948 30.3707 86.3068 30.76 86.3068 31.208C86.3068 31.6507 86.3948 32.04 86.5708 32.376C86.7521 32.712 86.9974 32.9707 87.3068 33.152C87.6214 33.3333 87.9734 33.424 88.3628 33.424ZM93.8598 28.424C94.4678 28.424 94.9931 28.5387 95.4358 28.768C95.8838 28.992 96.2251 29.3147 96.4598 29.736C96.6998 30.1573 96.8198 30.6533 96.8198 31.224C96.8198 31.7947 96.6998 32.2907 96.4598 32.712C96.2251 33.128 95.8838 33.448 95.4358 33.672C94.9931 33.8907 94.4678 34 93.8598 34H92.1238V28.424H93.8598ZM93.8598 33.4C94.5798 33.4 95.1291 33.2107 95.5078 32.832C95.8865 32.448 96.0758 31.912 96.0758 31.224C96.0758 30.5307 95.8838 29.9893 95.4998 29.6C95.1211 29.2107 94.5745 29.016 93.8598 29.016H92.8518V33.4H93.8598ZM98.4921 28.424V31.952C98.4921 32.448 98.6121 32.816 98.8521 33.056C99.0974 33.296 99.4361 33.416 99.8681 33.416C100.295 33.416 100.628 33.296 100.868 33.056C101.113 32.816 101.236 32.448 101.236 31.952V28.424H101.964V31.944C101.964 32.408 101.871 32.8 101.684 33.12C101.497 33.4347 101.244 33.6693 100.924 33.824C100.609 33.9787 100.255 34.056 99.8601 34.056C99.4654 34.056 99.1081 33.9787 98.7881 33.824C98.4734 33.6693 98.2227 33.4347 98.0361 33.12C97.8547 32.8 97.7641 32.408 97.7641 31.944V28.424H98.4921ZM102.907 31.208C102.907 30.664 103.029 30.176 103.275 29.744C103.52 29.3067 103.853 28.9653 104.275 28.72C104.701 28.4747 105.173 28.352 105.691 28.352C106.299 28.352 106.829 28.4987 107.283 28.792C107.736 29.0853 108.067 29.5013 108.275 30.04H107.403C107.248 29.704 107.024 29.4453 106.731 29.264C106.443 29.0827 106.096 28.992 105.691 28.992C105.301 28.992 104.952 29.0827 104.643 29.264C104.333 29.4453 104.091 29.704 103.915 30.04C103.739 30.3707 103.651 30.76 103.651 31.208C103.651 31.6507 103.739 32.04 103.915 32.376C104.091 32.7067 104.333 32.9627 104.643 33.144C104.952 33.3253 105.301 33.416 105.691 33.416C106.096 33.416 106.443 33.328 106.731 33.152C107.024 32.9707 107.248 32.712 107.403 32.376H108.275C108.067 32.9093 107.736 33.3227 107.283 33.616C106.829 33.904 106.299 34.048 105.691 34.048C105.173 34.048 104.701 33.928 104.275 33.688C103.853 33.4427 103.52 33.104 103.275 32.672C103.029 32.24 102.907 31.752 102.907 31.208ZM112.79 28.424V29.016H111.27V34H110.542V29.016H109.014V28.424H112.79ZM119.547 30.056C119.547 30.52 119.387 30.9067 119.067 31.216C118.752 31.52 118.27 31.672 117.619 31.672H116.547V34H115.819V28.424H117.619C118.248 28.424 118.726 28.576 119.051 28.88C119.382 29.184 119.547 29.576 119.547 30.056ZM117.619 31.072C118.024 31.072 118.323 30.984 118.515 30.808C118.707 30.632 118.803 30.3813 118.803 30.056C118.803 29.368 118.408 29.024 117.619 29.024H116.547V31.072H117.619ZM123.748 32.76H121.316L120.868 34H120.1L122.116 28.456H122.956L124.964 34H124.196L123.748 32.76ZM123.54 32.168L122.532 29.352L121.524 32.168H123.54ZM130.067 30.04C129.912 29.7147 129.688 29.464 129.395 29.288C129.101 29.1067 128.76 29.016 128.371 29.016C127.981 29.016 127.629 29.1067 127.315 29.288C127.005 29.464 126.76 29.72 126.579 30.056C126.403 30.3867 126.315 30.7707 126.315 31.208C126.315 31.6453 126.403 32.0293 126.579 32.36C126.76 32.6907 127.005 32.9467 127.315 33.128C127.629 33.304 127.981 33.392 128.371 33.392C128.915 33.392 129.363 33.2293 129.715 32.904C130.067 32.5787 130.272 32.1387 130.331 31.584H128.107V30.992H131.107V31.552C131.064 32.0107 130.92 32.432 130.675 32.816C130.429 33.1947 130.107 33.496 129.707 33.72C129.307 33.9387 128.861 34.048 128.371 34.048C127.853 34.048 127.381 33.928 126.955 33.688C126.528 33.4427 126.189 33.104 125.939 32.672C125.693 32.24 125.571 31.752 125.571 31.208C125.571 30.664 125.693 30.176 125.939 29.744C126.189 29.3067 126.528 28.968 126.955 28.728C127.381 28.4827 127.853 28.36 128.371 28.36C128.963 28.36 129.485 28.5067 129.939 28.8C130.397 29.0933 130.731 29.5067 130.939 30.04H130.067ZM132.797 29.016V30.88H134.829V31.48H132.797V33.4H135.069V34H132.069V28.416H135.069V29.016H132.797Z" fill="#777878"/>
</svg>
