<svg width="271" height="117" viewBox="0 0 271 117" fill="none" xmlns="http://www.w3.org/2000/svg">
<g filter="url(#filter0_d_989_424)">
<path d="M49.9859 65V57.448L62.4019 38.376C63.3405 36.968 64.2152 35.6027 65.0259 34.28C65.8792 32.9573 66.5619 31.6133 67.0739 30.248C67.6285 28.8827 67.9059 27.4533 67.9059 25.96C67.9059 24.4667 67.6072 23.3573 67.0099 22.632C66.4125 21.9067 65.6019 21.544 64.5779 21.544C63.4259 21.544 62.5299 21.864 61.8899 22.504C61.2499 23.144 60.8019 23.9973 60.5459 25.064C60.3325 26.1307 60.2259 27.3253 60.2259 28.648V31.208H49.8579V28.456C49.8579 25.384 50.3485 22.6533 51.3299 20.264C52.3112 17.832 53.8685 15.9333 56.0019 14.568C58.1352 13.16 60.9299 12.456 64.3859 12.456C69.0365 12.456 72.5352 13.672 74.8819 16.104C77.2712 18.4933 78.4659 21.8427 78.4659 26.152C78.4659 28.2427 78.1245 30.184 77.4419 31.976C76.8019 33.768 75.9272 35.5173 74.8179 37.224C73.7512 38.888 72.5992 40.6373 71.3619 42.472L61.8899 56.616H77.0579V65H49.9859ZM97.8369 65.96C94.0395 65.96 91.1595 65.2987 89.1969 63.976C87.2769 62.6107 85.9755 60.712 85.2929 58.28C84.6102 55.848 84.2689 53.032 84.2689 49.832H94.5729C94.5729 51.7947 94.6795 53.3947 94.8929 54.632C95.1062 55.8693 95.4902 56.7653 96.0449 57.32C96.6422 57.832 97.4742 58.0667 98.5409 58.024C99.6502 57.9813 100.44 57.5333 100.909 56.68C101.378 55.8267 101.656 54.6107 101.741 53.032C101.869 51.4107 101.933 49.4693 101.933 47.208C101.933 45.5013 101.826 43.9867 101.613 42.664C101.442 41.3413 101.058 40.296 100.461 39.528C99.9062 38.7173 99.0529 38.312 97.9009 38.312C96.8342 38.312 95.9595 38.696 95.2769 39.464C94.5942 40.232 94.1035 41.4267 93.8049 43.048H84.5889L85.5489 13.16H109.741V22.12H94.1249L93.5489 32.808C93.9755 32.2107 94.7862 31.6987 95.9809 31.272C97.1755 30.8027 98.4555 30.504 99.8209 30.376C102.466 30.0773 104.685 30.568 106.477 31.848C108.312 33.0853 109.677 34.984 110.573 37.544C111.512 40.104 111.981 43.24 111.981 46.952C111.981 49.7253 111.81 52.2853 111.469 54.632C111.128 56.936 110.466 58.9413 109.485 60.648C108.504 62.312 107.074 63.6133 105.197 64.552C103.32 65.4907 100.866 65.96 97.8369 65.96ZM132.959 65.96C129.845 65.96 127.242 65.3413 125.151 64.104C123.061 62.824 121.482 61.0747 120.415 58.856C119.349 56.6373 118.815 54.056 118.815 51.112V27.624C118.815 24.5947 119.306 21.9493 120.287 19.688C121.311 17.384 122.869 15.592 124.959 14.312C127.05 13.032 129.717 12.392 132.959 12.392C136.202 12.392 138.847 13.032 140.895 14.312C142.986 15.592 144.522 17.384 145.503 19.688C146.527 21.9493 147.039 24.5947 147.039 27.624V51.112C147.039 54.0133 146.506 56.5947 145.439 58.856C144.373 61.0747 142.794 62.824 140.703 64.104C138.613 65.3413 136.031 65.96 132.959 65.96ZM132.959 56.424C133.983 56.424 134.709 56.104 135.135 55.464C135.605 54.7813 135.882 54.0133 135.967 53.16C136.095 52.264 136.159 51.496 136.159 50.856V27.88C136.159 27.1547 136.117 26.344 136.031 25.448C135.946 24.5093 135.669 23.6987 135.199 23.016C134.773 22.2907 134.026 21.928 132.959 21.928C131.893 21.928 131.125 22.2907 130.655 23.016C130.229 23.6987 129.973 24.5093 129.887 25.448C129.802 26.344 129.759 27.1547 129.759 27.88V50.856C129.759 51.496 129.823 52.264 129.951 53.16C130.079 54.0133 130.357 54.7813 130.783 55.464C131.253 56.104 131.978 56.424 132.959 56.424ZM155.475 65L156.371 13.16H168.659L174.355 43.304L180.499 13.16H192.339L193.235 65H185.107L184.147 30.504L178.131 65H170.899L164.499 30.248L163.731 65H155.475ZM202.009 65V13.16H213.465V57.256H225.369V65H202.009Z" fill="#DE865A"/>
<path d="M13.4651 110.432C11.2811 110.432 9.55313 110.048 8.28113 109.28C7.00913 108.512 6.09713 107.408 5.54513 105.968C4.99313 104.528 4.71713 102.812 4.71713 100.82V89.984C4.71713 87.968 4.99313 86.252 5.54513 84.836C6.09713 83.42 7.00913 82.34 8.28113 81.596C9.55313 80.828 11.2811 80.444 13.4651 80.444C15.6731 80.444 17.4131 80.828 18.6851 81.596C19.9811 82.34 20.9051 83.42 21.4571 84.836C22.0091 86.252 22.2851 87.968 22.2851 89.984V100.82C22.2851 102.812 22.0091 104.528 21.4571 105.968C20.9051 107.408 19.9811 108.512 18.6851 109.28C17.4131 110.048 15.6731 110.432 13.4651 110.432ZM13.4651 105.86C14.1371 105.86 14.6291 105.692 14.9411 105.356C15.2531 105.02 15.4571 104.588 15.5531 104.06C15.6491 103.532 15.6971 102.992 15.6971 102.44V88.4C15.6971 87.824 15.6491 87.284 15.5531 86.78C15.4571 86.252 15.2531 85.82 14.9411 85.484C14.6291 85.148 14.1371 84.98 13.4651 84.98C12.8411 84.98 12.3731 85.148 12.0611 85.484C11.7491 85.82 11.5451 86.252 11.4491 86.78C11.3531 87.284 11.3051 87.824 11.3051 88.4V102.44C11.3051 102.992 11.3411 103.532 11.4131 104.06C11.5091 104.588 11.7011 105.02 11.9891 105.356C12.3011 105.692 12.7931 105.86 13.4651 105.86ZM30.5336 110L25.2776 80.84H30.7856L33.9176 100.64L36.8336 80.84H42.6656L37.3376 110H30.5336ZM43.6804 110L49.1884 80.84H56.5324L61.9684 110H56.0284L55.0564 103.844H50.7724L49.7644 110H43.6804ZM51.3484 99.992H54.4444L52.8964 88.616L51.3484 99.992ZM65.6325 110V80.84H72.0765V105.644H78.7725V110H65.6325ZM100.596 110.432C98.3884 110.432 96.6364 110.036 95.3404 109.244C94.0684 108.428 93.1684 107.3 92.6404 105.86C92.1124 104.396 91.8484 102.68 91.8484 100.712V90.2C91.8484 88.184 92.1124 86.456 92.6404 85.016C93.1684 83.552 94.0684 82.424 95.3404 81.632C96.6364 80.84 98.3884 80.444 100.596 80.444C102.756 80.444 104.436 80.804 105.636 81.524C106.86 82.22 107.724 83.204 108.228 84.476C108.732 85.748 108.984 87.212 108.984 88.868V91.388H102.684V88.472C102.684 87.896 102.648 87.344 102.576 86.816C102.528 86.288 102.36 85.856 102.072 85.52C101.784 85.16 101.292 84.98 100.596 84.98C99.9244 84.98 99.4204 85.16 99.0844 85.52C98.7724 85.88 98.5684 86.336 98.4724 86.888C98.4004 87.416 98.3644 87.98 98.3644 88.58V102.296C98.3644 102.944 98.4124 103.544 98.5084 104.096C98.6284 104.624 98.8444 105.056 99.1564 105.392C99.4924 105.704 99.9724 105.86 100.596 105.86C101.268 105.86 101.748 105.692 102.036 105.356C102.324 104.996 102.504 104.54 102.576 103.988C102.648 103.436 102.684 102.872 102.684 102.296V99.236H108.984V101.756C108.984 103.412 108.732 104.9 108.228 106.22C107.748 107.516 106.896 108.548 105.672 109.316C104.472 110.06 102.78 110.432 100.596 110.432ZM121.602 110.432C119.418 110.432 117.69 110.048 116.418 109.28C115.146 108.512 114.234 107.408 113.682 105.968C113.13 104.528 112.854 102.812 112.854 100.82V89.984C112.854 87.968 113.13 86.252 113.682 84.836C114.234 83.42 115.146 82.34 116.418 81.596C117.69 80.828 119.418 80.444 121.602 80.444C123.81 80.444 125.55 80.828 126.822 81.596C128.118 82.34 129.042 83.42 129.594 84.836C130.146 86.252 130.422 87.968 130.422 89.984V100.82C130.422 102.812 130.146 104.528 129.594 105.968C129.042 107.408 128.118 108.512 126.822 109.28C125.55 110.048 123.81 110.432 121.602 110.432ZM121.602 105.86C122.274 105.86 122.766 105.692 123.078 105.356C123.39 105.02 123.594 104.588 123.69 104.06C123.786 103.532 123.834 102.992 123.834 102.44V88.4C123.834 87.824 123.786 87.284 123.69 86.78C123.594 86.252 123.39 85.82 123.078 85.484C122.766 85.148 122.274 84.98 121.602 84.98C120.978 84.98 120.51 85.148 120.198 85.484C119.886 85.82 119.682 86.252 119.586 86.78C119.49 87.284 119.442 87.824 119.442 88.4V102.44C119.442 102.992 119.478 103.532 119.55 104.06C119.646 104.588 119.838 105.02 120.126 105.356C120.438 105.692 120.93 105.86 121.602 105.86ZM135.063 110V80.84H139.599L145.575 94.88V80.84H150.903V110H146.547L140.571 94.88V110H135.063ZM158.591 110V85.628H154.199V80.84H169.427V85.628H165.071V110H158.591ZM169.693 110L175.201 80.84H182.545L187.981 110H182.041L181.069 103.844H176.785L175.777 110H169.693ZM177.361 99.992H180.457L178.909 88.616L177.361 99.992ZM191.681 110V80.84H198.125V110H191.681ZM203.193 110V80.84H207.729L213.705 94.88V80.84H219.033V110H214.677L208.701 94.88V110H203.193ZM224.093 110V80.84H237.197V85.232H230.537V92.468H235.613V96.932H230.537V105.644H237.269V110H224.093ZM240.915 110V80.84H248.943C250.911 80.84 252.615 81.056 254.055 81.488C255.495 81.92 256.611 82.7 257.403 83.828C258.219 84.932 258.627 86.504 258.627 88.544C258.627 89.744 258.531 90.812 258.339 91.748C258.147 92.684 257.787 93.5 257.259 94.196C256.755 94.868 256.023 95.432 255.063 95.888L259.059 110H252.399L249.195 96.932H247.359V110H240.915ZM247.359 93.224H249.159C250.071 93.224 250.779 93.068 251.283 92.756C251.787 92.42 252.135 91.952 252.327 91.352C252.543 90.728 252.651 89.984 252.651 89.12C252.651 87.872 252.423 86.9 251.967 86.204C251.511 85.508 250.671 85.16 249.447 85.16H247.359V93.224Z" fill="#DE865A"/>
</g>
<defs>
<filter id="filter0_d_989_424" x="-1.76687" y="-3.72" width="277.44" height="123.44" filterUnits="userSpaceOnUse" color-interpolation-filters="sRGB">
<feFlood flood-opacity="0" result="BackgroundImageFix"/>
<feColorMatrix in="SourceAlpha" type="matrix" values="0 0 0 0 0 0 0 0 0 0 0 0 0 0 0 0 0 0 127 0" result="hardAlpha"/>
<feOffset dy="1"/>
<feGaussianBlur stdDeviation="2.36"/>
<feComposite in2="hardAlpha" operator="out"/>
<feColorMatrix type="matrix" values="0 0 0 0 0 0 0 0 0 0 0 0 0 0 0 0 0 0 0.11 0"/>
<feBlend mode="normal" in2="BackgroundImageFix" result="effect1_dropShadow_989_424"/>
<feBlend mode="normal" in="SourceGraphic" in2="effect1_dropShadow_989_424" result="shape"/>
</filter>
</defs>
</svg>
