<svg width="104" height="69" viewBox="0 0 104 69" fill="none" xmlns="http://www.w3.org/2000/svg">
<rect x="34.25" y="0.5" width="35.5" height="35.5" rx="17.75" fill="white"/>
<rect x="34.25" y="0.5" width="35.5" height="35.5" rx="17.75" stroke="white"/>
<path d="M50.1663 20.9974V18.2474M53.833 20.9974V18.2474M57.4997 20.9974V18.2474M42.833 14.5807V10.9141M61.1663 12.7474H42.833M61.1663 14.5807V10.9141M46.4997 20.9974V18.2474" stroke="#414141" stroke-width="2.06182" stroke-linecap="round" stroke-linejoin="round"/>
<path d="M59.333 18.248H44.6663C43.6538 18.248 42.833 19.0689 42.833 20.0814V23.748C42.833 24.7606 43.6538 25.5814 44.6663 25.5814H59.333C60.3455 25.5814 61.1663 24.7606 61.1663 23.748V20.0814C61.1663 19.0689 60.3455 18.248 59.333 18.248Z" stroke="#414141" stroke-width="2.06182" stroke-linecap="round" stroke-linejoin="round"/>
<path d="M35.225 48.885C35.225 49.415 35.1367 49.9017 34.96 50.345C34.7833 50.7883 34.535 51.17 34.215 51.49C33.895 51.81 33.51 52.0583 33.06 52.235C32.61 52.4117 32.11 52.5 31.56 52.5H28.805V45.27H31.56C32.11 45.27 32.61 45.36 33.06 45.54C33.51 45.7167 33.895 45.965 34.215 46.285C34.535 46.6017 34.7833 46.9817 34.96 47.425C35.1367 47.8683 35.225 48.355 35.225 48.885ZM33.845 48.885C33.845 48.4883 33.7917 48.1333 33.685 47.82C33.5817 47.5033 33.43 47.2367 33.23 47.02C33.0333 46.8 32.7933 46.6317 32.51 46.515C32.23 46.3983 31.9133 46.34 31.56 46.34H30.155V51.43H31.56C31.9133 51.43 32.23 51.3717 32.51 51.255C32.7933 51.1383 33.0333 50.9717 33.23 50.755C33.43 50.535 33.5817 50.2683 33.685 49.955C33.7917 49.6383 33.845 49.2817 33.845 48.885ZM37.4095 47.37V52.5H36.1695V47.37H37.4095ZM37.5795 45.875C37.5795 45.9817 37.5579 46.0817 37.5145 46.175C37.4712 46.2683 37.4129 46.35 37.3395 46.42C37.2695 46.49 37.1862 46.5467 37.0895 46.59C36.9929 46.63 36.8895 46.65 36.7795 46.65C36.6729 46.65 36.5712 46.63 36.4745 46.59C36.3812 46.5467 36.2995 46.49 36.2295 46.42C36.1595 46.35 36.1029 46.2683 36.0595 46.175C36.0195 46.0817 35.9995 45.9817 35.9995 45.875C35.9995 45.765 36.0195 45.6617 36.0595 45.565C36.1029 45.4683 36.1595 45.385 36.2295 45.315C36.2995 45.245 36.3812 45.19 36.4745 45.15C36.5712 45.1067 36.6729 45.085 36.7795 45.085C36.8895 45.085 36.9929 45.1067 37.0895 45.15C37.1862 45.19 37.2695 45.245 37.3395 45.315C37.4129 45.385 37.4712 45.4683 37.5145 45.565C37.5579 45.6617 37.5795 45.765 37.5795 45.875ZM38.6686 52.5V47.37H39.4236C39.5836 47.37 39.6886 47.445 39.7386 47.595L39.8186 47.975C39.9086 47.875 40.0019 47.7833 40.0986 47.7C40.1986 47.6167 40.3036 47.545 40.4136 47.485C40.5269 47.425 40.6469 47.3783 40.7736 47.345C40.9036 47.3083 41.0453 47.29 41.1986 47.29C41.5219 47.29 41.7869 47.3783 41.9936 47.555C42.2036 47.7283 42.3603 47.96 42.4636 48.25C42.5436 48.08 42.6436 47.935 42.7636 47.815C42.8836 47.6917 43.0153 47.5917 43.1586 47.515C43.3019 47.4383 43.4536 47.3817 43.6136 47.345C43.7769 47.3083 43.9403 47.29 44.1036 47.29C44.3869 47.29 44.6386 47.3333 44.8586 47.42C45.0786 47.5067 45.2636 47.6333 45.4136 47.8C45.5636 47.9667 45.6769 48.17 45.7536 48.41C45.8336 48.65 45.8736 48.925 45.8736 49.235V52.5H44.6386V49.235C44.6386 48.9083 44.5669 48.6633 44.4236 48.5C44.2803 48.3333 44.0703 48.25 43.7936 48.25C43.6669 48.25 43.5486 48.2717 43.4386 48.315C43.3319 48.3583 43.2369 48.4217 43.1536 48.505C43.0736 48.585 43.0103 48.6867 42.9636 48.81C42.9169 48.9333 42.8936 49.075 42.8936 49.235V52.5H41.6536V49.235C41.6536 48.8917 41.5836 48.6417 41.4436 48.485C41.3069 48.3283 41.1053 48.25 40.8386 48.25C40.6586 48.25 40.4903 48.295 40.3336 48.385C40.1803 48.4717 40.0369 48.5917 39.9036 48.745V52.5H38.6686ZM50.3525 49.345C50.3525 49.185 50.3292 49.035 50.2825 48.895C50.2392 48.7517 50.1725 48.6267 50.0825 48.52C49.9925 48.4133 49.8775 48.33 49.7375 48.27C49.6008 48.2067 49.4408 48.175 49.2575 48.175C48.9008 48.175 48.6192 48.2767 48.4125 48.48C48.2092 48.6833 48.0792 48.9717 48.0225 49.345H50.3525ZM47.9975 50.09C48.0175 50.3533 48.0642 50.5817 48.1375 50.775C48.2108 50.965 48.3075 51.1233 48.4275 51.25C48.5475 51.3733 48.6892 51.4667 48.8525 51.53C49.0192 51.59 49.2025 51.62 49.4025 51.62C49.6025 51.62 49.7742 51.5967 49.9175 51.55C50.0642 51.5033 50.1908 51.4517 50.2975 51.395C50.4075 51.3383 50.5025 51.2867 50.5825 51.24C50.6658 51.1933 50.7458 51.17 50.8225 51.17C50.9258 51.17 51.0025 51.2083 51.0525 51.285L51.4075 51.735C51.2708 51.895 51.1175 52.03 50.9475 52.14C50.7775 52.2467 50.5992 52.3333 50.4125 52.4C50.2292 52.4633 50.0408 52.5083 49.8475 52.535C49.6575 52.5617 49.4725 52.575 49.2925 52.575C48.9358 52.575 48.6042 52.5167 48.2975 52.4C47.9908 52.28 47.7242 52.105 47.4975 51.875C47.2708 51.6417 47.0925 51.355 46.9625 51.015C46.8325 50.6717 46.7675 50.275 46.7675 49.825C46.7675 49.475 46.8242 49.1467 46.9375 48.84C47.0508 48.53 47.2125 48.2617 47.4225 48.035C47.6358 47.805 47.8942 47.6233 48.1975 47.49C48.5042 47.3567 48.8492 47.29 49.2325 47.29C49.5558 47.29 49.8542 47.3417 50.1275 47.445C50.4008 47.5483 50.6358 47.7 50.8325 47.9C51.0292 48.0967 51.1825 48.34 51.2925 48.63C51.4058 48.9167 51.4625 49.245 51.4625 49.615C51.4625 49.8017 51.4425 49.9283 51.4025 49.995C51.3625 50.0583 51.2858 50.09 51.1725 50.09H47.9975ZM53.5443 48C53.6476 47.8967 53.756 47.8017 53.8693 47.715C53.986 47.625 54.1076 47.55 54.2343 47.49C54.3643 47.4267 54.5026 47.3783 54.6493 47.345C54.796 47.3083 54.956 47.29 55.1293 47.29C55.4093 47.29 55.6576 47.3383 55.8743 47.435C56.091 47.5283 56.271 47.6617 56.4143 47.835C56.561 48.005 56.671 48.21 56.7443 48.45C56.821 48.6867 56.8593 48.9483 56.8593 49.235V52.5H55.6243V49.235C55.6243 48.9217 55.5526 48.68 55.4093 48.51C55.266 48.3367 55.0476 48.25 54.7543 48.25C54.541 48.25 54.341 48.2983 54.1543 48.395C53.9676 48.4917 53.791 48.6233 53.6243 48.79V52.5H52.3893V47.37H53.1443C53.3043 47.37 53.4093 47.445 53.4593 47.595L53.5443 48ZM61.1638 48.37C61.1305 48.4233 61.0955 48.4617 61.0588 48.485C61.0222 48.505 60.9755 48.515 60.9188 48.515C60.8588 48.515 60.7938 48.4983 60.7238 48.465C60.6572 48.4317 60.5788 48.395 60.4888 48.355C60.3988 48.3117 60.2955 48.2733 60.1788 48.24C60.0655 48.2067 59.9305 48.19 59.7738 48.19C59.5305 48.19 59.3388 48.2417 59.1988 48.345C59.0622 48.4483 58.9938 48.5833 58.9938 48.75C58.9938 48.86 59.0288 48.9533 59.0988 49.03C59.1722 49.1033 59.2672 49.1683 59.3838 49.225C59.5038 49.2817 59.6388 49.3333 59.7888 49.38C59.9388 49.4233 60.0905 49.4717 60.2438 49.525C60.4005 49.5783 60.5538 49.64 60.7038 49.71C60.8538 49.7767 60.9872 49.8633 61.1038 49.97C61.2238 50.0733 61.3188 50.1983 61.3888 50.345C61.4622 50.4917 61.4988 50.6683 61.4988 50.875C61.4988 51.1217 61.4538 51.35 61.3638 51.56C61.2772 51.7667 61.1472 51.9467 60.9738 52.1C60.8005 52.25 60.5855 52.3683 60.3288 52.455C60.0755 52.5383 59.7822 52.58 59.4488 52.58C59.2722 52.58 59.0988 52.5633 58.9288 52.53C58.7622 52.5 58.6005 52.4567 58.4438 52.4C58.2905 52.3433 58.1472 52.2767 58.0138 52.2C57.8838 52.1233 57.7688 52.04 57.6688 51.95L57.9538 51.48C57.9905 51.4233 58.0338 51.38 58.0838 51.35C58.1338 51.32 58.1972 51.305 58.2738 51.305C58.3505 51.305 58.4222 51.3267 58.4888 51.37C58.5588 51.4133 58.6388 51.46 58.7288 51.51C58.8188 51.56 58.9238 51.6067 59.0438 51.65C59.1672 51.6933 59.3222 51.715 59.5088 51.715C59.6555 51.715 59.7805 51.6983 59.8838 51.665C59.9905 51.6283 60.0772 51.5817 60.1438 51.525C60.2138 51.4683 60.2638 51.4033 60.2938 51.33C60.3272 51.2533 60.3438 51.175 60.3438 51.095C60.3438 50.975 60.3072 50.8767 60.2338 50.8C60.1638 50.7233 60.0688 50.6567 59.9488 50.6C59.8322 50.5433 59.6972 50.4933 59.5438 50.45C59.3938 50.4033 59.2388 50.3533 59.0788 50.3C58.9222 50.2467 58.7672 50.185 58.6138 50.115C58.4638 50.0417 58.3288 49.95 58.2088 49.84C58.0922 49.73 57.9972 49.595 57.9238 49.435C57.8538 49.275 57.8188 49.0817 57.8188 48.855C57.8188 48.645 57.8605 48.445 57.9438 48.255C58.0272 48.065 58.1488 47.9 58.3088 47.76C58.4722 47.6167 58.6738 47.5033 58.9138 47.42C59.1572 47.3333 59.4372 47.29 59.7538 47.29C60.1072 47.29 60.4288 47.3483 60.7188 47.465C61.0088 47.5817 61.2505 47.735 61.4438 47.925L61.1638 48.37ZM63.7084 47.37V52.5H62.4684V47.37H63.7084ZM63.8784 45.875C63.8784 45.9817 63.8567 46.0817 63.8134 46.175C63.77 46.2683 63.7117 46.35 63.6384 46.42C63.5684 46.49 63.485 46.5467 63.3884 46.59C63.2917 46.63 63.1884 46.65 63.0784 46.65C62.9717 46.65 62.87 46.63 62.7734 46.59C62.68 46.5467 62.5984 46.49 62.5284 46.42C62.4584 46.35 62.4017 46.2683 62.3584 46.175C62.3184 46.0817 62.2984 45.9817 62.2984 45.875C62.2984 45.765 62.3184 45.6617 62.3584 45.565C62.4017 45.4683 62.4584 45.385 62.5284 45.315C62.5984 45.245 62.68 45.19 62.7734 45.15C62.87 45.1067 62.9717 45.085 63.0784 45.085C63.1884 45.085 63.2917 45.1067 63.3884 45.15C63.485 45.19 63.5684 45.245 63.6384 45.315C63.7117 45.385 63.77 45.4683 63.8134 45.565C63.8567 45.6617 63.8784 45.765 63.8784 45.875ZM67.2374 47.29C67.6174 47.29 67.9624 47.3517 68.2724 47.475C68.5858 47.5983 68.8524 47.7733 69.0724 48C69.2958 48.2267 69.4674 48.5033 69.5874 48.83C69.7074 49.1567 69.7674 49.5217 69.7674 49.925C69.7674 50.3317 69.7074 50.6983 69.5874 51.025C69.4674 51.3517 69.2958 51.63 69.0724 51.86C68.8524 52.09 68.5858 52.2667 68.2724 52.39C67.9624 52.5133 67.6174 52.575 67.2374 52.575C66.8541 52.575 66.5058 52.5133 66.1924 52.39C65.8791 52.2667 65.6108 52.09 65.3874 51.86C65.1674 51.63 64.9958 51.3517 64.8724 51.025C64.7524 50.6983 64.6924 50.3317 64.6924 49.925C64.6924 49.5217 64.7524 49.1567 64.8724 48.83C64.9958 48.5033 65.1674 48.2267 65.3874 48C65.6108 47.7733 65.8791 47.5983 66.1924 47.475C66.5058 47.3517 66.8541 47.29 67.2374 47.29ZM67.2374 51.625C67.6641 51.625 67.9791 51.4817 68.1824 51.195C68.3891 50.9083 68.4924 50.4883 68.4924 49.935C68.4924 49.3817 68.3891 48.96 68.1824 48.67C67.9791 48.38 67.6641 48.235 67.2374 48.235C66.8041 48.235 66.4824 48.3817 66.2724 48.675C66.0658 48.965 65.9624 49.385 65.9624 49.935C65.9624 50.485 66.0658 50.905 66.2724 51.195C66.4824 51.4817 66.8041 51.625 67.2374 51.625ZM71.8646 48C71.9679 47.8967 72.0763 47.8017 72.1896 47.715C72.3063 47.625 72.4279 47.55 72.5546 47.49C72.6846 47.4267 72.8229 47.3783 72.9696 47.345C73.1163 47.3083 73.2763 47.29 73.4496 47.29C73.7296 47.29 73.9779 47.3383 74.1946 47.435C74.4113 47.5283 74.5913 47.6617 74.7346 47.835C74.8813 48.005 74.9913 48.21 75.0646 48.45C75.1413 48.6867 75.1796 48.9483 75.1796 49.235V52.5H73.9446V49.235C73.9446 48.9217 73.8729 48.68 73.7296 48.51C73.5863 48.3367 73.3679 48.25 73.0746 48.25C72.8613 48.25 72.6613 48.2983 72.4746 48.395C72.2879 48.4917 72.1113 48.6233 71.9446 48.79V52.5H70.7096V47.37H71.4646C71.6246 47.37 71.7296 47.445 71.7796 47.595L71.8646 48Z" fill="white"/>
<path d="M0.304 60.6847V60.0207H1.808V65.8047H1.072V60.6847H0.304ZM3.9945 64.2527C4.04783 64.5567 4.1705 64.7914 4.3625 64.9567C4.55983 65.122 4.82383 65.2047 5.1545 65.2047C5.59717 65.2047 5.9225 65.0314 6.1305 64.6847C6.34383 64.338 6.44517 63.754 6.4345 62.9327C6.3225 63.1727 6.13583 63.362 5.8745 63.5007C5.61317 63.634 5.3225 63.7007 5.0025 63.7007C4.64517 63.7007 4.32517 63.6287 4.0425 63.4847C3.76517 63.3354 3.5465 63.1194 3.3865 62.8367C3.2265 62.554 3.1465 62.2127 3.1465 61.8127C3.1465 61.242 3.31183 60.7834 3.6425 60.4367C3.97317 60.0847 4.4425 59.9087 5.0505 59.9087C5.79717 59.9087 6.31983 60.1514 6.6185 60.6367C6.9225 61.122 7.0745 61.8447 7.0745 62.8047C7.0745 63.4767 7.01317 64.0314 6.8905 64.4687C6.77317 64.906 6.5705 65.2394 6.2825 65.4687C5.99983 65.698 5.6105 65.8127 5.1145 65.8127C4.5705 65.8127 4.1465 65.666 3.8425 65.3727C3.5385 65.0794 3.36517 64.706 3.3225 64.2527H3.9945ZM5.1225 63.0847C5.47983 63.0847 5.77317 62.9754 6.0025 62.7567C6.23183 62.5327 6.3465 62.2314 6.3465 61.8527C6.3465 61.4527 6.2345 61.13 6.0105 60.8847C5.7865 60.6394 5.47183 60.5167 5.0665 60.5167C4.69317 60.5167 4.3945 60.634 4.1705 60.8687C3.95183 61.1034 3.8425 61.4127 3.8425 61.7967C3.8425 62.186 3.95183 62.498 4.1705 62.7327C4.38917 62.9674 4.7065 63.0847 5.1225 63.0847ZM9.15356 62.7967C8.8549 62.6794 8.62556 62.5087 8.46556 62.2847C8.30556 62.0607 8.22556 61.7887 8.22556 61.4687C8.22556 61.1807 8.29756 60.922 8.44156 60.6927C8.58556 60.458 8.7989 60.274 9.08156 60.1407C9.36956 60.002 9.71623 59.9327 10.1216 59.9327C10.5269 59.9327 10.8709 60.002 11.1536 60.1407C11.4416 60.274 11.6576 60.458 11.8016 60.6927C11.9509 60.922 12.0256 61.1807 12.0256 61.4687C12.0256 61.778 11.9429 62.05 11.7776 62.2847C11.6122 62.514 11.3856 62.6847 11.0976 62.7967C11.4282 62.898 11.6896 63.0767 11.8816 63.3327C12.0789 63.5834 12.1776 63.8874 12.1776 64.2447C12.1776 64.5914 12.0922 64.8954 11.9216 65.1567C11.7509 65.4127 11.5082 65.6127 11.1936 65.7567C10.8842 65.8954 10.5269 65.9647 10.1216 65.9647C9.71623 65.9647 9.3589 65.8954 9.04956 65.7567C8.74556 65.6127 8.50823 65.4127 8.33756 65.1567C8.1669 64.8954 8.08156 64.5914 8.08156 64.2447C8.08156 63.8874 8.17756 63.5807 8.36956 63.3247C8.56156 63.0687 8.8229 62.8927 9.15356 62.7967ZM11.3216 61.5567C11.3216 61.2314 11.2149 60.9807 11.0016 60.8047C10.7882 60.6287 10.4949 60.5407 10.1216 60.5407C9.75356 60.5407 9.4629 60.6287 9.24956 60.8047C9.03623 60.9807 8.92956 61.234 8.92956 61.5647C8.92956 61.8634 9.0389 62.1034 9.25756 62.2847C9.48156 62.466 9.76956 62.5567 10.1216 62.5567C10.4789 62.5567 10.7669 62.466 10.9856 62.2847C11.2096 62.098 11.3216 61.8554 11.3216 61.5567ZM10.1216 63.1167C9.7269 63.1167 9.40423 63.21 9.15356 63.3967C8.9029 63.578 8.77756 63.8527 8.77756 64.2207C8.77756 64.562 8.89756 64.8367 9.13756 65.0447C9.3829 65.2527 9.7109 65.3567 10.1216 65.3567C10.5322 65.3567 10.8576 65.2527 11.0976 65.0447C11.3376 64.8367 11.4576 64.562 11.4576 64.2207C11.4576 63.8634 11.3349 63.5914 11.0896 63.4047C10.8442 63.2127 10.5216 63.1167 10.1216 63.1167ZM15.9844 58.2687L13.7924 67.1647H13.0724L15.2564 58.2687H15.9844ZM16.7571 60.6847V60.0207H18.2611V65.8047H17.5251V60.6847H16.7571ZM23.1996 60.6527H20.3916V62.4767C20.5143 62.306 20.6956 62.1674 20.9356 62.0607C21.1756 61.9487 21.4343 61.8927 21.7116 61.8927C22.1543 61.8927 22.5143 61.986 22.7916 62.1727C23.069 62.354 23.2663 62.5914 23.3836 62.8847C23.5063 63.1727 23.5676 63.4794 23.5676 63.8047C23.5676 64.1887 23.4956 64.5327 23.3516 64.8367C23.2076 65.1407 22.9863 65.3807 22.6876 65.5567C22.3943 65.7327 22.029 65.8207 21.5916 65.8207C21.0316 65.8207 20.5783 65.6767 20.2316 65.3887C19.885 65.1007 19.6743 64.7167 19.5996 64.2367H20.3116C20.381 64.5407 20.5276 64.778 20.7516 64.9487C20.9756 65.1194 21.2583 65.2047 21.5996 65.2047C22.021 65.2047 22.3383 65.0794 22.5516 64.8287C22.765 64.5727 22.8716 64.2367 22.8716 63.8207C22.8716 63.4047 22.765 63.0847 22.5516 62.8607C22.3383 62.6314 22.0236 62.5167 21.6076 62.5167C21.325 62.5167 21.077 62.586 20.8636 62.7247C20.6556 62.858 20.5036 63.042 20.4076 63.2767H19.7196V60.0127H23.1996V60.6527ZM24.5351 62.8527C24.5351 61.9354 24.6844 61.2207 24.9831 60.7087C25.2817 60.1914 25.8044 59.9327 26.5511 59.9327C27.2924 59.9327 27.8124 60.1914 28.1111 60.7087C28.4097 61.2207 28.5591 61.9354 28.5591 62.8527C28.5591 63.786 28.4097 64.5114 28.1111 65.0287C27.8124 65.546 27.2924 65.8047 26.5511 65.8047C25.8044 65.8047 25.2817 65.546 24.9831 65.0287C24.6844 64.5114 24.5351 63.786 24.5351 62.8527ZM27.8391 62.8527C27.8391 62.3887 27.8071 61.9967 27.7431 61.6767C27.6844 61.3514 27.5591 61.09 27.3671 60.8927C27.1804 60.6954 26.9084 60.5967 26.5511 60.5967C26.1884 60.5967 25.9111 60.6954 25.7191 60.8927C25.5324 61.09 25.4071 61.3514 25.3431 61.6767C25.2844 61.9967 25.2551 62.3887 25.2551 62.8527C25.2551 63.3327 25.2844 63.7354 25.3431 64.0607C25.4071 64.386 25.5324 64.6474 25.7191 64.8447C25.9111 65.042 26.1884 65.1407 26.5511 65.1407C26.9084 65.1407 27.1804 65.042 27.3671 64.8447C27.5591 64.6474 27.6844 64.386 27.7431 64.0607C27.8071 63.7354 27.8391 63.3327 27.8391 62.8527ZM35.0433 64.6047L33.7713 63.3327L32.4993 64.6047L32.0193 64.1247L33.2913 62.8527L32.0433 61.6047L32.5073 61.1327L33.7633 62.3887L35.0193 61.1327L35.4993 61.6127L34.2433 62.8687L35.5073 64.1407L35.0433 64.6047ZM38.7728 60.6847V60.0207H40.2768V65.8047H39.5408V60.6847H38.7728ZM42.5833 62.7967C42.2846 62.6794 42.0553 62.5087 41.8953 62.2847C41.7353 62.0607 41.6553 61.7887 41.6553 61.4687C41.6553 61.1807 41.7273 60.922 41.8713 60.6927C42.0153 60.458 42.2286 60.274 42.5113 60.1407C42.7993 60.002 43.1459 59.9327 43.5513 59.9327C43.9566 59.9327 44.3006 60.002 44.5833 60.1407C44.8713 60.274 45.0873 60.458 45.2313 60.6927C45.3806 60.922 45.4553 61.1807 45.4553 61.4687C45.4553 61.778 45.3726 62.05 45.2073 62.2847C45.0419 62.514 44.8153 62.6847 44.5273 62.7967C44.8579 62.898 45.1193 63.0767 45.3113 63.3327C45.5086 63.5834 45.6073 63.8874 45.6073 64.2447C45.6073 64.5914 45.5219 64.8954 45.3513 65.1567C45.1806 65.4127 44.9379 65.6127 44.6233 65.7567C44.3139 65.8954 43.9566 65.9647 43.5513 65.9647C43.1459 65.9647 42.7886 65.8954 42.4793 65.7567C42.1753 65.6127 41.9379 65.4127 41.7673 65.1567C41.5966 64.8954 41.5113 64.5914 41.5113 64.2447C41.5113 63.8874 41.6073 63.5807 41.7993 63.3247C41.9912 63.0687 42.2526 62.8927 42.5833 62.7967ZM44.7513 61.5567C44.7513 61.2314 44.6446 60.9807 44.4313 60.8047C44.2179 60.6287 43.9246 60.5407 43.5513 60.5407C43.1833 60.5407 42.8926 60.6287 42.6793 60.8047C42.4659 60.9807 42.3593 61.234 42.3593 61.5647C42.3593 61.8634 42.4686 62.1034 42.6873 62.2847C42.9113 62.466 43.1993 62.5567 43.5513 62.5567C43.9086 62.5567 44.1966 62.466 44.4153 62.2847C44.6393 62.098 44.7513 61.8554 44.7513 61.5567ZM43.5513 63.1167C43.1566 63.1167 42.8339 63.21 42.5833 63.3967C42.3326 63.578 42.2072 63.8527 42.2072 64.2207C42.2072 64.562 42.3273 64.8367 42.5673 65.0447C42.8126 65.2527 43.1406 65.3567 43.5513 65.3567C43.9619 65.3567 44.2873 65.2527 44.5273 65.0447C44.7673 64.8367 44.8873 64.562 44.8873 64.2207C44.8873 63.8634 44.7646 63.5914 44.5193 63.4047C44.2739 63.2127 43.9513 63.1167 43.5513 63.1167ZM46.5741 62.8527C46.5741 61.9354 46.7235 61.2207 47.0221 60.7087C47.3208 60.1914 47.8435 59.9327 48.5901 59.9327C49.3315 59.9327 49.8515 60.1914 50.1501 60.7087C50.4488 61.2207 50.5981 61.9354 50.5981 62.8527C50.5981 63.786 50.4488 64.5114 50.1501 65.0287C49.8515 65.546 49.3315 65.8047 48.5901 65.8047C47.8435 65.8047 47.3208 65.546 47.0221 65.0287C46.7235 64.5114 46.5741 63.786 46.5741 62.8527ZM49.8781 62.8527C49.8781 62.3887 49.8461 61.9967 49.7821 61.6767C49.7235 61.3514 49.5981 61.09 49.4061 60.8927C49.2195 60.6954 48.9475 60.5967 48.5901 60.5967C48.2275 60.5967 47.9501 60.6954 47.7581 60.8927C47.5715 61.09 47.4461 61.3514 47.3821 61.6767C47.3235 61.9967 47.2941 62.3887 47.2941 62.8527C47.2941 63.3327 47.3235 63.7354 47.3821 64.0607C47.4461 64.386 47.5715 64.6474 47.7581 64.8447C47.9501 65.042 48.2275 65.1407 48.5901 65.1407C48.9475 65.1407 49.2195 65.042 49.4061 64.8447C49.5981 64.6474 49.7235 64.386 49.7821 64.0607C49.8461 63.7354 49.8781 63.3327 49.8781 62.8527ZM54.4376 58.2687L52.2456 67.1647H51.5256L53.7096 58.2687H54.4376ZM55.2103 60.6847V60.0207H56.7143V65.8047H55.9783V60.6847H55.2103ZM57.9488 61.4767C57.9861 60.986 58.1754 60.602 58.5168 60.3247C58.8581 60.0474 59.3008 59.9087 59.8448 59.9087C60.2074 59.9087 60.5194 59.9754 60.7808 60.1087C61.0474 60.2367 61.2474 60.4127 61.3808 60.6367C61.5194 60.8607 61.5888 61.114 61.5888 61.3967C61.5888 61.7274 61.4928 62.0127 61.3008 62.2527C61.1141 62.4927 60.8688 62.6474 60.5648 62.7167V62.7567C60.9114 62.842 61.1861 63.01 61.3888 63.2607C61.5914 63.5114 61.6927 63.8394 61.6927 64.2447C61.6927 64.5487 61.6234 64.8234 61.4848 65.0687C61.3461 65.3087 61.1381 65.498 60.8608 65.6367C60.5834 65.7754 60.2501 65.8447 59.8608 65.8447C59.2954 65.8447 58.8314 65.698 58.4688 65.4047C58.1061 65.106 57.9034 64.6847 57.8608 64.1407H58.5648C58.6021 64.4607 58.7328 64.722 58.9568 64.9247C59.1808 65.1274 59.4794 65.2287 59.8528 65.2287C60.2261 65.2287 60.5088 65.1327 60.7008 64.9407C60.8981 64.7434 60.9968 64.49 60.9968 64.1807C60.9968 63.7807 60.8634 63.4927 60.5968 63.3167C60.3301 63.1407 59.9274 63.0527 59.3888 63.0527H59.2048V62.4447H59.3968C59.8874 62.4394 60.2581 62.3594 60.5088 62.2047C60.7594 62.0447 60.8848 61.7994 60.8848 61.4687C60.8848 61.186 60.7914 60.9594 60.6048 60.7887C60.4234 60.618 60.1621 60.5327 59.8207 60.5327C59.4901 60.5327 59.2234 60.618 59.0208 60.7887C58.8181 60.9594 58.6981 61.1887 58.6608 61.4767H57.9488ZM62.6757 62.8527C62.6757 61.9354 62.825 61.2207 63.1237 60.7087C63.4224 60.1914 63.945 59.9327 64.6917 59.9327C65.433 59.9327 65.953 60.1914 66.2517 60.7087C66.5504 61.2207 66.6997 61.9354 66.6997 62.8527C66.6997 63.786 66.5504 64.5114 66.2517 65.0287C65.953 65.546 65.433 65.8047 64.6917 65.8047C63.945 65.8047 63.4224 65.546 63.1237 65.0287C62.825 64.5114 62.6757 63.786 62.6757 62.8527ZM65.9797 62.8527C65.9797 62.3887 65.9477 61.9967 65.8837 61.6767C65.825 61.3514 65.6997 61.09 65.5077 60.8927C65.321 60.6954 65.049 60.5967 64.6917 60.5967C64.329 60.5967 64.0517 60.6954 63.8597 60.8927C63.673 61.09 63.5477 61.3514 63.4837 61.6767C63.425 61.9967 63.3957 62.3887 63.3957 62.8527C63.3957 63.3327 63.425 63.7354 63.4837 64.0607C63.5477 64.386 63.673 64.6474 63.8597 64.8447C64.0517 65.042 64.329 65.1407 64.6917 65.1407C65.049 65.1407 65.321 65.042 65.5077 64.8447C65.6997 64.6474 65.825 64.386 65.8837 64.0607C65.9477 63.7354 65.9797 63.3327 65.9797 62.8527ZM73.1839 64.6047L71.9119 63.3327L70.6399 64.6047L70.1599 64.1247L71.4319 62.8527L70.1839 61.6047L70.6479 61.1327L71.9039 62.3887L73.1599 61.1327L73.6399 61.6127L72.3839 62.8687L73.6479 64.1407L73.1839 64.6047ZM76.9294 64.5167V63.9647L79.7374 60.0767H80.6094V63.8847H81.4094V64.5167H80.6094V65.8047H79.8894V64.5167H76.9294ZM79.9214 60.8367L77.7694 63.8847H79.9214V60.8367ZM81.9606 64.5167V63.9647L84.7686 60.0767H85.6406V63.8847H86.4406V64.5167H85.6406V65.8047H84.9206V64.5167H81.9606ZM84.9526 60.8367L82.8006 63.8847H84.9526V60.8367ZM92.5599 61.3407C92.9012 61.3407 93.2052 61.4127 93.4719 61.5567C93.7385 61.6954 93.9492 61.906 94.1039 62.1887C94.2585 62.4714 94.3359 62.8154 94.3359 63.2207V65.8047H93.6159V63.3247C93.6159 62.8874 93.5065 62.554 93.2879 62.3247C93.0745 62.09 92.7839 61.9727 92.4159 61.9727C92.0372 61.9727 91.7359 62.0954 91.5119 62.3407C91.2879 62.5807 91.1759 62.93 91.1759 63.3887V65.8047H90.4559V63.3247C90.4559 62.8874 90.3465 62.554 90.1279 62.3247C89.9145 62.09 89.6239 61.9727 89.2559 61.9727C88.8772 61.9727 88.5759 62.0954 88.3519 62.3407C88.1279 62.5807 88.0159 62.93 88.0159 63.3887V65.8047H87.2879V61.4207H88.0159V62.0527C88.1599 61.8234 88.3519 61.6474 88.5919 61.5247C88.8372 61.402 89.1065 61.3407 89.3999 61.3407C89.7679 61.3407 90.0932 61.4234 90.3759 61.5887C90.6585 61.754 90.8692 61.9967 91.0079 62.3167C91.1305 62.0074 91.3332 61.7674 91.6159 61.5967C91.8985 61.426 92.2132 61.3407 92.5599 61.3407ZM100.802 61.3407C101.143 61.3407 101.447 61.4127 101.714 61.5567C101.981 61.6954 102.191 61.906 102.346 62.1887C102.501 62.4714 102.578 62.8154 102.578 63.2207V65.8047H101.858V63.3247C101.858 62.8874 101.749 62.554 101.53 62.3247C101.317 62.09 101.026 61.9727 100.658 61.9727C100.279 61.9727 99.9781 62.0954 99.7541 62.3407C99.5301 62.5807 99.4181 62.93 99.4181 63.3887V65.8047H98.6981V63.3247C98.6981 62.8874 98.5887 62.554 98.3701 62.3247C98.1567 62.09 97.8661 61.9727 97.4981 61.9727C97.1194 61.9727 96.8181 62.0954 96.5941 62.3407C96.3701 62.5807 96.2581 62.93 96.2581 63.3887V65.8047H95.5301V61.4207H96.2581V62.0527C96.4021 61.8234 96.5941 61.6474 96.8341 61.5247C97.0794 61.402 97.3487 61.3407 97.6421 61.3407C98.0101 61.3407 98.3354 61.4234 98.6181 61.5887C98.9007 61.754 99.1114 61.9967 99.2501 62.3167C99.3727 62.0074 99.5754 61.7674 99.8581 61.5967C100.141 61.426 100.455 61.3407 100.802 61.3407Z" fill="white"/>
</svg>
