<svg width="104" height="70" viewBox="0 0 104 70" fill="none" xmlns="http://www.w3.org/2000/svg">
<rect x="34.5" y="1.5" width="35.5" height="35.5" rx="17.75" fill="white"/>
<rect x="34.5" y="1.5" width="35.5" height="35.5" rx="17.75" stroke="white"/>
<path d="M52.2489 15.2917C52.4732 15.2917 52.6613 15.2157 52.8133 15.0637C52.9653 14.9117 53.0411 14.7238 53.0405 14.5C53.04 14.2762 52.964 14.0883 52.8125 13.9363C52.6611 13.7843 52.4732 13.7083 52.2489 13.7083C52.0246 13.7083 51.8367 13.7843 51.6852 13.9363C51.5337 14.0883 51.4577 14.2762 51.4572 14.5C51.4567 14.7238 51.5327 14.9119 51.6852 15.0645C51.8377 15.217 52.0256 15.2927 52.2489 15.2917ZM54.4853 15.2917H55.8707C56.2666 15.2917 56.6096 15.4236 56.8999 15.6875C57.1902 15.9514 57.3683 16.2747 57.4343 16.6573L58.5624 24.574C58.6284 25.049 58.5065 25.468 58.1967 25.8311C57.8869 26.1942 57.4876 26.3755 56.9989 26.375H47.4989C47.0107 26.375 46.6114 26.1937 46.3011 25.8311C45.9907 25.4685 45.8688 25.0495 45.9353 24.574L47.0635 16.6573C47.1294 16.2747 47.3075 15.9514 47.5978 15.6875C47.8881 15.4236 48.2312 15.2917 48.627 15.2917H50.0124C49.9728 15.1597 49.9398 15.0312 49.9135 14.9061C49.8871 14.781 49.8739 14.6457 49.8739 14.5C49.8739 13.8403 50.1048 13.2795 50.5666 12.8177C51.0284 12.3559 51.5891 12.125 52.2489 12.125C52.9086 12.125 53.4694 12.3559 53.9312 12.8177C54.393 13.2795 54.6239 13.8403 54.6239 14.5C54.6239 14.6451 54.6107 14.7805 54.5843 14.9061C54.5579 15.0317 54.5249 15.1603 54.4853 15.2917Z" fill="#414141"/>
<path d="M46.175 46.27L43.93 53.5H42.715L41.135 48.56C41.0917 48.44 41.0517 48.2933 41.015 48.12C40.995 48.2033 40.975 48.2817 40.955 48.355C40.935 48.4283 40.9133 48.4967 40.89 48.56L39.295 53.5H38.075L35.835 46.27H36.96C37.0767 46.27 37.1733 46.2983 37.25 46.355C37.33 46.4083 37.3833 46.4817 37.41 46.575L38.64 50.9C38.6667 51.0067 38.6917 51.1233 38.715 51.25C38.7417 51.3733 38.7683 51.5033 38.795 51.64C38.8217 51.5 38.85 51.3683 38.88 51.245C38.9133 51.1217 38.9483 51.0067 38.985 50.9L40.405 46.575C40.4317 46.4983 40.4833 46.4283 40.56 46.365C40.64 46.3017 40.7367 46.27 40.85 46.27H41.245C41.3617 46.27 41.4567 46.2983 41.53 46.355C41.6033 46.4117 41.6583 46.485 41.695 46.575L43.11 50.9C43.18 51.1067 43.2433 51.345 43.3 51.615C43.3433 51.3517 43.3917 51.1133 43.445 50.9L44.675 46.575C44.695 46.4917 44.745 46.42 44.825 46.36C44.9083 46.3 45.0067 46.27 45.12 46.27H46.175ZM49.5673 50.345C49.5673 50.185 49.544 50.035 49.4973 49.895C49.454 49.7517 49.3873 49.6267 49.2973 49.52C49.2073 49.4133 49.0923 49.33 48.9523 49.27C48.8157 49.2067 48.6557 49.175 48.4723 49.175C48.1157 49.175 47.834 49.2767 47.6273 49.48C47.424 49.6833 47.294 49.9717 47.2373 50.345H49.5673ZM47.2123 51.09C47.2323 51.3533 47.279 51.5817 47.3523 51.775C47.4257 51.965 47.5223 52.1233 47.6423 52.25C47.7623 52.3733 47.904 52.4667 48.0673 52.53C48.234 52.59 48.4173 52.62 48.6173 52.62C48.8173 52.62 48.989 52.5967 49.1323 52.55C49.279 52.5033 49.4057 52.4517 49.5123 52.395C49.6223 52.3383 49.7173 52.2867 49.7973 52.24C49.8807 52.1933 49.9607 52.17 50.0373 52.17C50.1407 52.17 50.2173 52.2083 50.2673 52.285L50.6223 52.735C50.4857 52.895 50.3323 53.03 50.1623 53.14C49.9923 53.2467 49.814 53.3333 49.6273 53.4C49.444 53.4633 49.2557 53.5083 49.0623 53.535C48.8723 53.5617 48.6873 53.575 48.5073 53.575C48.1507 53.575 47.819 53.5167 47.5123 53.4C47.2057 53.28 46.939 53.105 46.7123 52.875C46.4857 52.6417 46.3073 52.355 46.1773 52.015C46.0473 51.6717 45.9823 51.275 45.9823 50.825C45.9823 50.475 46.039 50.1467 46.1523 49.84C46.2657 49.53 46.4273 49.2617 46.6373 49.035C46.8507 48.805 47.109 48.6233 47.4123 48.49C47.719 48.3567 48.064 48.29 48.4473 48.29C48.7707 48.29 49.069 48.3417 49.3423 48.445C49.6157 48.5483 49.8507 48.7 50.0473 48.9C50.244 49.0967 50.3973 49.34 50.5073 49.63C50.6207 49.9167 50.6773 50.245 50.6773 50.615C50.6773 50.8017 50.6573 50.9283 50.6173 50.995C50.5773 51.0583 50.5007 51.09 50.3873 51.09H47.2123ZM52.8841 48.37V53.5H51.6441V48.37H52.8841ZM53.0541 46.875C53.0541 46.9817 53.0325 47.0817 52.9891 47.175C52.9458 47.2683 52.8875 47.35 52.8141 47.42C52.7441 47.49 52.6608 47.5467 52.5641 47.59C52.4675 47.63 52.3641 47.65 52.2541 47.65C52.1475 47.65 52.0458 47.63 51.9491 47.59C51.8558 47.5467 51.7741 47.49 51.7041 47.42C51.6341 47.35 51.5775 47.2683 51.5341 47.175C51.4941 47.0817 51.4741 46.9817 51.4741 46.875C51.4741 46.765 51.4941 46.6617 51.5341 46.565C51.5775 46.4683 51.6341 46.385 51.7041 46.315C51.7741 46.245 51.8558 46.19 51.9491 46.15C52.0458 46.1067 52.1475 46.085 52.2541 46.085C52.3641 46.085 52.4675 46.1067 52.5641 46.15C52.6608 46.19 52.7441 46.245 52.8141 46.315C52.8875 46.385 52.9458 46.4683 52.9891 46.565C53.0325 46.6617 53.0541 46.765 53.0541 46.875ZM56.0182 50.81C56.1715 50.81 56.3049 50.79 56.4182 50.75C56.5315 50.7067 56.6249 50.6483 56.6982 50.575C56.7749 50.5017 56.8315 50.4133 56.8682 50.31C56.9082 50.2067 56.9282 50.0933 56.9282 49.97C56.9282 49.7167 56.8515 49.5167 56.6982 49.37C56.5482 49.22 56.3215 49.145 56.0182 49.145C55.7149 49.145 55.4865 49.22 55.3332 49.37C55.1832 49.5167 55.1082 49.7167 55.1082 49.97C55.1082 50.09 55.1265 50.2017 55.1632 50.305C55.2032 50.4083 55.2599 50.4983 55.3332 50.575C55.4099 50.6483 55.5049 50.7067 55.6182 50.75C55.7349 50.79 55.8682 50.81 56.0182 50.81ZM57.4132 53.73C57.4132 53.63 57.3832 53.5483 57.3232 53.485C57.2632 53.4217 57.1815 53.3733 57.0782 53.34C56.9749 53.3033 56.8532 53.2767 56.7132 53.26C56.5765 53.2433 56.4299 53.2317 56.2732 53.225C56.1199 53.215 55.9599 53.2067 55.7932 53.2C55.6299 53.1933 55.4699 53.18 55.3132 53.16C55.1765 53.2367 55.0649 53.3267 54.9782 53.43C54.8949 53.5333 54.8532 53.6533 54.8532 53.79C54.8532 53.88 54.8749 53.9633 54.9182 54.04C54.9649 54.12 55.0365 54.1883 55.1332 54.245C55.2332 54.3017 55.3615 54.345 55.5182 54.375C55.6749 54.4083 55.8665 54.425 56.0932 54.425C56.3232 54.425 56.5215 54.4067 56.6882 54.37C56.8549 54.3367 56.9915 54.2883 57.0982 54.225C57.2082 54.165 57.2882 54.0917 57.3382 54.005C57.3882 53.9217 57.4132 53.83 57.4132 53.73ZM58.6432 48.545V49.005C58.6432 49.1517 58.5549 49.2417 58.3782 49.275L57.9182 49.36C57.9882 49.5367 58.0232 49.73 58.0232 49.94C58.0232 50.1933 57.9715 50.4233 57.8682 50.63C57.7682 50.8333 57.6282 51.0067 57.4482 51.15C57.2682 51.2933 57.0549 51.405 56.8082 51.485C56.5649 51.5617 56.3015 51.6 56.0182 51.6C55.9182 51.6 55.8215 51.595 55.7282 51.585C55.6349 51.575 55.5432 51.5617 55.4532 51.545C55.2932 51.6417 55.2132 51.75 55.2132 51.87C55.2132 51.9733 55.2599 52.05 55.3532 52.1C55.4499 52.1467 55.5765 52.18 55.7332 52.2C55.8899 52.22 56.0682 52.2333 56.2682 52.24C56.4682 52.2433 56.6732 52.2533 56.8832 52.27C57.0932 52.2867 57.2982 52.3167 57.4982 52.36C57.6982 52.4 57.8765 52.465 58.0332 52.555C58.1899 52.645 58.3149 52.7683 58.4082 52.925C58.5049 53.0783 58.5532 53.2767 58.5532 53.52C58.5532 53.7467 58.4965 53.9667 58.3832 54.18C58.2732 54.3933 58.1115 54.5833 57.8982 54.75C57.6882 54.9167 57.4282 55.05 57.1182 55.15C56.8115 55.2533 56.4615 55.305 56.0682 55.305C55.6815 55.305 55.3449 55.2667 55.0582 55.19C54.7715 55.1167 54.5332 55.0167 54.3432 54.89C54.1532 54.7667 54.0115 54.6233 53.9182 54.46C53.8249 54.2967 53.7782 54.1267 53.7782 53.95C53.7782 53.71 53.8499 53.51 53.9932 53.35C54.1399 53.1867 54.3399 53.0567 54.5932 52.96C54.4565 52.89 54.3482 52.7967 54.2682 52.68C54.1882 52.5633 54.1482 52.41 54.1482 52.22C54.1482 52.1433 54.1615 52.065 54.1882 51.985C54.2182 51.9017 54.2599 51.82 54.3132 51.74C54.3699 51.66 54.4399 51.585 54.5232 51.515C54.6065 51.4417 54.7049 51.3767 54.8182 51.32C54.5582 51.18 54.3532 50.9933 54.2032 50.76C54.0565 50.5267 53.9832 50.2533 53.9832 49.94C53.9832 49.6867 54.0332 49.4583 54.1332 49.255C54.2365 49.0483 54.3782 48.8733 54.5582 48.73C54.7415 48.5833 54.9565 48.4717 55.2032 48.395C55.4532 48.3183 55.7249 48.28 56.0182 48.28C56.2382 48.28 56.4449 48.3033 56.6382 48.35C56.8315 48.3933 57.0082 48.4583 57.1682 48.545H58.6432ZM60.6614 48.92C60.8614 48.7333 61.0814 48.5817 61.3214 48.465C61.5614 48.3483 61.8431 48.29 62.1664 48.29C62.4464 48.29 62.6947 48.3383 62.9114 48.435C63.1281 48.5283 63.3081 48.6617 63.4514 48.835C63.5981 49.005 63.7081 49.21 63.7814 49.45C63.8581 49.6867 63.8964 49.9483 63.8964 50.235V53.5H62.6614V50.235C62.6614 49.9217 62.5897 49.68 62.4464 49.51C62.3031 49.3367 62.0847 49.25 61.7914 49.25C61.5781 49.25 61.3781 49.2983 61.1914 49.395C61.0047 49.4917 60.8281 49.6233 60.6614 49.79V53.5H59.4264V46.07H60.6614V48.92ZM66.7126 53.58C66.2659 53.58 65.9226 53.455 65.6826 53.205C65.4459 52.9517 65.3276 52.6033 65.3276 52.16V49.295H64.8026C64.7359 49.295 64.6792 49.2733 64.6326 49.23C64.5859 49.1867 64.5626 49.1217 64.5626 49.035V48.545L65.3876 48.41L65.6476 47.01C65.6642 46.9433 65.6959 46.8917 65.7426 46.855C65.7892 46.8183 65.8492 46.8 65.9226 46.8H66.5626V48.415H67.9326V49.295H66.5626V52.075C66.5626 52.235 66.6009 52.36 66.6776 52.45C66.7576 52.54 66.8659 52.585 67.0026 52.585C67.0792 52.585 67.1426 52.5767 67.1926 52.56C67.2459 52.54 67.2909 52.52 67.3276 52.5C67.3676 52.48 67.4026 52.4617 67.4326 52.445C67.4626 52.425 67.4926 52.415 67.5226 52.415C67.5592 52.415 67.5892 52.425 67.6126 52.445C67.6359 52.4617 67.6609 52.4883 67.6876 52.525L68.0576 53.125C67.8776 53.275 67.6709 53.3883 67.4376 53.465C67.2042 53.5417 66.9626 53.58 66.7126 53.58Z" fill="white"/>
<path d="M37.57 65.5167V64.9647L40.378 61.0767H41.25V64.8847H42.05V65.5167H41.25V66.8047H40.53V65.5167H37.57ZM40.562 61.8367L38.41 64.8847H40.562V61.8367ZM42.6013 65.5167V64.9647L45.4093 61.0767H46.2812V64.8847H47.0813V65.5167H46.2812V66.8047H45.5613V65.5167H42.6013ZM45.5933 61.8367L43.4413 64.8847H45.5933V61.8367ZM48.1605 66.8527C48.0218 66.8527 47.9045 66.8047 47.8085 66.7087C47.7125 66.6127 47.6645 66.4954 47.6645 66.3567C47.6645 66.218 47.7125 66.1007 47.8085 66.0047C47.9045 65.9087 48.0218 65.8607 48.1605 65.8607C48.2938 65.8607 48.4058 65.9087 48.4965 66.0047C48.5925 66.1007 48.6405 66.218 48.6405 66.3567C48.6405 66.4954 48.5925 66.6127 48.4965 66.7087C48.4058 66.8047 48.2938 66.8527 48.1605 66.8527ZM50.5442 63.7967C50.2455 63.6794 50.0162 63.5087 49.8562 63.2847C49.6962 63.0607 49.6162 62.7887 49.6162 62.4687C49.6162 62.1807 49.6882 61.922 49.8322 61.6927C49.9762 61.458 50.1895 61.274 50.4722 61.1407C50.7602 61.002 51.1069 60.9327 51.5122 60.9327C51.9175 60.9327 52.2615 61.002 52.5442 61.1407C52.8322 61.274 53.0482 61.458 53.1922 61.6927C53.3415 61.922 53.4162 62.1807 53.4162 62.4687C53.4162 62.778 53.3335 63.05 53.1682 63.2847C53.0029 63.514 52.7762 63.6847 52.4882 63.7967C52.8189 63.898 53.0802 64.0767 53.2722 64.3327C53.4695 64.5834 53.5682 64.8874 53.5682 65.2447C53.5682 65.5914 53.4829 65.8954 53.3122 66.1567C53.1415 66.4127 52.8989 66.6127 52.5842 66.7567C52.2749 66.8954 51.9175 66.9647 51.5122 66.9647C51.1069 66.9647 50.7495 66.8954 50.4402 66.7567C50.1362 66.6127 49.8989 66.4127 49.7282 66.1567C49.5575 65.8954 49.4722 65.5914 49.4722 65.2447C49.4722 64.8874 49.5682 64.5807 49.7602 64.3247C49.9522 64.0687 50.2135 63.8927 50.5442 63.7967ZM52.7122 62.5567C52.7122 62.2314 52.6055 61.9807 52.3922 61.8047C52.1789 61.6287 51.8855 61.5407 51.5122 61.5407C51.1442 61.5407 50.8535 61.6287 50.6402 61.8047C50.4269 61.9807 50.3202 62.234 50.3202 62.5647C50.3202 62.8634 50.4295 63.1034 50.6482 63.2847C50.8722 63.466 51.1602 63.5567 51.5122 63.5567C51.8695 63.5567 52.1575 63.466 52.3762 63.2847C52.6002 63.098 52.7122 62.8554 52.7122 62.5567ZM51.5122 64.1167C51.1175 64.1167 50.7949 64.21 50.5442 64.3967C50.2935 64.578 50.1682 64.8527 50.1682 65.2207C50.1682 65.562 50.2882 65.8367 50.5282 66.0447C50.7735 66.2527 51.1015 66.3567 51.5122 66.3567C51.9229 66.3567 52.2482 66.2527 52.4882 66.0447C52.7282 65.8367 52.8482 65.562 52.8482 65.2207C52.8482 64.8634 52.7255 64.5914 52.4802 64.4047C52.2349 64.2127 51.9122 64.1167 51.5122 64.1167ZM57.7591 62.3967C57.6417 61.8047 57.2764 61.5087 56.6631 61.5087C56.1884 61.5087 55.8337 61.6927 55.5991 62.0607C55.3644 62.4234 55.2497 63.0234 55.2551 63.8607C55.3777 63.5834 55.5804 63.3674 55.8631 63.2127C56.1511 63.0527 56.4711 62.9727 56.8231 62.9727C57.3724 62.9727 57.8097 63.1434 58.1351 63.4847C58.4657 63.826 58.6311 64.298 58.6311 64.9007C58.6311 65.2634 58.5591 65.5887 58.4151 65.8767C58.2764 66.1647 58.0631 66.394 57.7751 66.5647C57.4924 66.7354 57.1484 66.8207 56.7431 66.8207C56.1937 66.8207 55.7644 66.698 55.4551 66.4527C55.1457 66.2074 54.9297 65.8687 54.8071 65.4367C54.6844 65.0047 54.6231 64.4714 54.6231 63.8367C54.6231 61.8794 55.3057 60.9007 56.6711 60.9007C57.1937 60.9007 57.6044 61.042 57.9031 61.3247C58.2017 61.6074 58.3777 61.9647 58.4311 62.3967H57.7591ZM56.6711 63.5887C56.4417 63.5887 56.2257 63.6367 56.0231 63.7327C55.8204 63.8234 55.6551 63.9647 55.5271 64.1567C55.4044 64.3434 55.3431 64.5727 55.3431 64.8447C55.3431 65.25 55.4604 65.5807 55.6951 65.8367C55.9297 66.0874 56.2657 66.2127 56.7031 66.2127C57.0764 66.2127 57.3724 66.098 57.5911 65.8687C57.8151 65.634 57.9271 65.3194 57.9271 64.9247C57.9271 64.5087 57.8204 64.1834 57.6071 63.9487C57.3937 63.7087 57.0817 63.5887 56.6711 63.5887ZM63.674 62.3487C64.0527 62.3487 64.3833 62.4314 64.666 62.5967C64.954 62.762 65.1673 62.97 65.306 63.2207V62.4207H66.042V66.9007C66.042 67.3007 65.9567 67.6554 65.786 67.9647C65.6153 68.2794 65.37 68.5247 65.05 68.7007C64.7353 68.8767 64.3673 68.9647 63.946 68.9647C63.37 68.9647 62.89 68.8287 62.506 68.5567C62.122 68.2847 61.8953 67.914 61.826 67.4447H62.546C62.626 67.7114 62.7913 67.9247 63.042 68.0847C63.2927 68.25 63.594 68.3327 63.946 68.3327C64.346 68.3327 64.6713 68.2074 64.922 67.9567C65.178 67.706 65.306 67.354 65.306 66.9007V65.9807C65.162 66.2367 64.9487 66.45 64.666 66.6207C64.3833 66.7914 64.0527 66.8767 63.674 66.8767C63.2847 66.8767 62.93 66.7807 62.61 66.5887C62.2953 66.3967 62.0473 66.1274 61.866 65.7807C61.6847 65.434 61.594 65.0394 61.594 64.5967C61.594 64.1487 61.6847 63.7567 61.866 63.4207C62.0473 63.0794 62.2953 62.8154 62.61 62.6287C62.93 62.442 63.2847 62.3487 63.674 62.3487ZM65.306 64.6047C65.306 64.274 65.2393 63.986 65.106 63.7407C64.9727 63.4954 64.7913 63.3087 64.562 63.1807C64.338 63.0474 64.09 62.9807 63.818 62.9807C63.546 62.9807 63.298 63.0447 63.074 63.1727C62.85 63.3007 62.6713 63.4874 62.538 63.7327C62.4047 63.978 62.338 64.266 62.338 64.5967C62.338 64.9327 62.4047 65.226 62.538 65.4767C62.6713 65.722 62.85 65.9114 63.074 66.0447C63.298 66.1727 63.546 66.2367 63.818 66.2367C64.09 66.2367 64.338 66.1727 64.562 66.0447C64.7913 65.9114 64.9727 65.722 65.106 65.4767C65.2393 65.226 65.306 64.9354 65.306 64.6047Z" fill="white"/>
</svg>
