<svg width="112" height="37" viewBox="0 0 112 37" fill="none" xmlns="http://www.w3.org/2000/svg">
<rect width="36.5" height="36.5" rx="18.25" fill="white" fill-opacity="0.1"/>
<path d="M16.4163 20.9974V18.2474M20.083 20.9974V18.2474M23.7497 20.9974V18.2474M9.08301 14.5807V10.9141M27.4163 12.7474H9.08301M27.4163 14.5807V10.9141M12.7497 20.9974V18.2474" stroke="white" stroke-width="2.06182" stroke-linecap="round" stroke-linejoin="round"/>
<path d="M25.583 18.248H10.9163C9.90382 18.248 9.08301 19.0689 9.08301 20.0814V23.748C9.08301 24.7606 9.90382 25.5814 10.9163 25.5814H25.583C26.5955 25.5814 27.4163 24.7606 27.4163 23.748V20.0814C27.4163 19.0689 26.5955 18.248 25.583 18.248Z" stroke="white" stroke-width="2.06182" stroke-linecap="round" stroke-linejoin="round"/>
<path d="M49.725 11.4827C49.725 12.0127 49.6367 12.4993 49.46 12.9427C49.2833 13.386 49.035 13.7677 48.715 14.0877C48.395 14.4077 48.01 14.656 47.56 14.8327C47.11 15.0093 46.61 15.0977 46.06 15.0977H43.305V7.86766H46.06C46.61 7.86766 47.11 7.95766 47.56 8.13766C48.01 8.31432 48.395 8.56266 48.715 8.88266C49.035 9.19932 49.2833 9.57932 49.46 10.0227C49.6367 10.466 49.725 10.9527 49.725 11.4827ZM48.345 11.4827C48.345 11.086 48.2917 10.731 48.185 10.4177C48.0817 10.101 47.93 9.83432 47.73 9.61766C47.5333 9.39766 47.2933 9.22932 47.01 9.11266C46.73 8.99599 46.4133 8.93766 46.06 8.93766H44.655V14.0277H46.06C46.4133 14.0277 46.73 13.9693 47.01 13.8527C47.2933 13.736 47.5333 13.5693 47.73 13.3527C47.93 13.1327 48.0817 12.866 48.185 12.5527C48.2917 12.236 48.345 11.8793 48.345 11.4827ZM51.9095 9.96766V15.0977H50.6695V9.96766H51.9095ZM52.0795 8.47266C52.0795 8.57932 52.0579 8.67932 52.0145 8.77266C51.9712 8.86599 51.9129 8.94766 51.8395 9.01766C51.7695 9.08766 51.6862 9.14432 51.5895 9.18766C51.4929 9.22766 51.3895 9.24766 51.2795 9.24766C51.1729 9.24766 51.0712 9.22766 50.9745 9.18766C50.8812 9.14432 50.7995 9.08766 50.7295 9.01766C50.6595 8.94766 50.6029 8.86599 50.5595 8.77266C50.5195 8.67932 50.4995 8.57932 50.4995 8.47266C50.4995 8.36266 50.5195 8.25932 50.5595 8.16266C50.6029 8.06599 50.6595 7.98266 50.7295 7.91266C50.7995 7.84266 50.8812 7.78766 50.9745 7.74766C51.0712 7.70432 51.1729 7.68266 51.2795 7.68266C51.3895 7.68266 51.4929 7.70432 51.5895 7.74766C51.6862 7.78766 51.7695 7.84266 51.8395 7.91266C51.9129 7.98266 51.9712 8.06599 52.0145 8.16266C52.0579 8.25932 52.0795 8.36266 52.0795 8.47266ZM53.1686 15.0977V9.96766H53.9236C54.0836 9.96766 54.1886 10.0427 54.2386 10.1927L54.3186 10.5727C54.4086 10.4727 54.5019 10.381 54.5986 10.2977C54.6986 10.2143 54.8036 10.1427 54.9136 10.0827C55.0269 10.0227 55.1469 9.97599 55.2736 9.94266C55.4036 9.90599 55.5453 9.88766 55.6986 9.88766C56.0219 9.88766 56.2869 9.97599 56.4936 10.1527C56.7036 10.326 56.8603 10.5577 56.9636 10.8477C57.0436 10.6777 57.1436 10.5327 57.2636 10.4127C57.3836 10.2893 57.5153 10.1893 57.6586 10.1127C57.8019 10.036 57.9536 9.97932 58.1136 9.94266C58.2769 9.90599 58.4403 9.88766 58.6036 9.88766C58.8869 9.88766 59.1386 9.93099 59.3586 10.0177C59.5786 10.1043 59.7636 10.231 59.9136 10.3977C60.0636 10.5643 60.1769 10.7677 60.2536 11.0077C60.3336 11.2477 60.3736 11.5227 60.3736 11.8327V15.0977H59.1386V11.8327C59.1386 11.506 59.0669 11.261 58.9236 11.0977C58.7803 10.931 58.5703 10.8477 58.2936 10.8477C58.1669 10.8477 58.0486 10.8693 57.9386 10.9127C57.8319 10.956 57.7369 11.0193 57.6536 11.1027C57.5736 11.1827 57.5103 11.2843 57.4636 11.4077C57.4169 11.531 57.3936 11.6727 57.3936 11.8327V15.0977H56.1536V11.8327C56.1536 11.4893 56.0836 11.2393 55.9436 11.0827C55.8069 10.926 55.6053 10.8477 55.3386 10.8477C55.1586 10.8477 54.9903 10.8927 54.8336 10.9827C54.6803 11.0693 54.5369 11.1893 54.4036 11.3427V15.0977H53.1686ZM64.8525 11.9427C64.8525 11.7827 64.8292 11.6327 64.7825 11.4927C64.7392 11.3493 64.6725 11.2243 64.5825 11.1177C64.4925 11.011 64.3775 10.9277 64.2375 10.8677C64.1008 10.8043 63.9408 10.7727 63.7575 10.7727C63.4008 10.7727 63.1192 10.8743 62.9125 11.0777C62.7092 11.281 62.5792 11.5693 62.5225 11.9427H64.8525ZM62.4975 12.6877C62.5175 12.951 62.5642 13.1793 62.6375 13.3727C62.7108 13.5627 62.8075 13.721 62.9275 13.8477C63.0475 13.971 63.1892 14.0643 63.3525 14.1277C63.5192 14.1877 63.7025 14.2177 63.9025 14.2177C64.1025 14.2177 64.2742 14.1943 64.4175 14.1477C64.5642 14.101 64.6908 14.0493 64.7975 13.9927C64.9075 13.936 65.0025 13.8843 65.0825 13.8377C65.1658 13.791 65.2458 13.7677 65.3225 13.7677C65.4258 13.7677 65.5025 13.806 65.5525 13.8827L65.9075 14.3327C65.7708 14.4927 65.6175 14.6277 65.4475 14.7377C65.2775 14.8443 65.0992 14.931 64.9125 14.9977C64.7292 15.061 64.5408 15.106 64.3475 15.1327C64.1575 15.1593 63.9725 15.1727 63.7925 15.1727C63.4358 15.1727 63.1042 15.1143 62.7975 14.9977C62.4908 14.8777 62.2242 14.7027 61.9975 14.4727C61.7708 14.2393 61.5925 13.9527 61.4625 13.6127C61.3325 13.2693 61.2675 12.8727 61.2675 12.4227C61.2675 12.0727 61.3242 11.7443 61.4375 11.4377C61.5508 11.1277 61.7125 10.8593 61.9225 10.6327C62.1358 10.4027 62.3942 10.221 62.6975 10.0877C63.0042 9.95432 63.3492 9.88766 63.7325 9.88766C64.0558 9.88766 64.3542 9.93932 64.6275 10.0427C64.9008 10.146 65.1358 10.2977 65.3325 10.4977C65.5292 10.6943 65.6825 10.9377 65.7925 11.2277C65.9058 11.5143 65.9625 11.8427 65.9625 12.2127C65.9625 12.3993 65.9425 12.526 65.9025 12.5927C65.8625 12.656 65.7858 12.6877 65.6725 12.6877H62.4975ZM68.0443 10.5977C68.1476 10.4943 68.256 10.3993 68.3693 10.3127C68.486 10.2227 68.6076 10.1477 68.7343 10.0877C68.8643 10.0243 69.0026 9.97599 69.1493 9.94266C69.296 9.90599 69.456 9.88766 69.6293 9.88766C69.9093 9.88766 70.1576 9.93599 70.3743 10.0327C70.591 10.126 70.771 10.2593 70.9143 10.4327C71.061 10.6027 71.171 10.8077 71.2443 11.0477C71.321 11.2843 71.3593 11.546 71.3593 11.8327V15.0977H70.1243V11.8327C70.1243 11.5193 70.0526 11.2777 69.9093 11.1077C69.766 10.9343 69.5476 10.8477 69.2543 10.8477C69.041 10.8477 68.841 10.896 68.6543 10.9927C68.4676 11.0893 68.291 11.221 68.1243 11.3877V15.0977H66.8893V9.96766H67.6443C67.8043 9.96766 67.9093 10.0427 67.9593 10.1927L68.0443 10.5977ZM75.6638 10.9677C75.6305 11.021 75.5955 11.0593 75.5588 11.0827C75.5222 11.1027 75.4755 11.1127 75.4188 11.1127C75.3588 11.1127 75.2938 11.096 75.2238 11.0627C75.1572 11.0293 75.0788 10.9927 74.9888 10.9527C74.8988 10.9093 74.7955 10.871 74.6788 10.8377C74.5655 10.8043 74.4305 10.7877 74.2738 10.7877C74.0305 10.7877 73.8388 10.8393 73.6988 10.9427C73.5622 11.046 73.4938 11.181 73.4938 11.3477C73.4938 11.4577 73.5288 11.551 73.5988 11.6277C73.6722 11.701 73.7672 11.766 73.8838 11.8227C74.0038 11.8793 74.1388 11.931 74.2888 11.9777C74.4388 12.021 74.5905 12.0693 74.7438 12.1227C74.9005 12.176 75.0538 12.2377 75.2038 12.3077C75.3538 12.3743 75.4872 12.461 75.6038 12.5677C75.7238 12.671 75.8188 12.796 75.8888 12.9427C75.9622 13.0893 75.9988 13.266 75.9988 13.4727C75.9988 13.7193 75.9538 13.9477 75.8638 14.1577C75.7772 14.3643 75.6472 14.5443 75.4738 14.6977C75.3005 14.8477 75.0855 14.966 74.8288 15.0527C74.5755 15.136 74.2822 15.1777 73.9488 15.1777C73.7722 15.1777 73.5988 15.161 73.4288 15.1277C73.2622 15.0977 73.1005 15.0543 72.9438 14.9977C72.7905 14.941 72.6472 14.8743 72.5138 14.7977C72.3838 14.721 72.2688 14.6377 72.1688 14.5477L72.4538 14.0777C72.4905 14.021 72.5338 13.9777 72.5838 13.9477C72.6338 13.9177 72.6972 13.9027 72.7738 13.9027C72.8505 13.9027 72.9222 13.9243 72.9888 13.9677C73.0588 14.011 73.1388 14.0577 73.2288 14.1077C73.3188 14.1577 73.4238 14.2043 73.5438 14.2477C73.6672 14.291 73.8222 14.3127 74.0088 14.3127C74.1555 14.3127 74.2805 14.296 74.3838 14.2627C74.4905 14.226 74.5772 14.1793 74.6438 14.1227C74.7138 14.066 74.7638 14.001 74.7938 13.9277C74.8272 13.851 74.8438 13.7727 74.8438 13.6927C74.8438 13.5727 74.8072 13.4743 74.7338 13.3977C74.6638 13.321 74.5688 13.2543 74.4488 13.1977C74.3322 13.141 74.1972 13.091 74.0438 13.0477C73.8938 13.001 73.7388 12.951 73.5788 12.8977C73.4222 12.8443 73.2672 12.7827 73.1138 12.7127C72.9638 12.6393 72.8288 12.5477 72.7088 12.4377C72.5922 12.3277 72.4972 12.1927 72.4238 12.0327C72.3538 11.8727 72.3188 11.6793 72.3188 11.4527C72.3188 11.2427 72.3605 11.0427 72.4438 10.8527C72.5272 10.6627 72.6488 10.4977 72.8088 10.3577C72.9722 10.2143 73.1738 10.101 73.4138 10.0177C73.6572 9.93099 73.9372 9.88766 74.2538 9.88766C74.6072 9.88766 74.9288 9.94599 75.2188 10.0627C75.5088 10.1793 75.7505 10.3327 75.9438 10.5227L75.6638 10.9677ZM78.2084 9.96766V15.0977H76.9684V9.96766H78.2084ZM78.3784 8.47266C78.3784 8.57932 78.3567 8.67932 78.3134 8.77266C78.27 8.86599 78.2117 8.94766 78.1384 9.01766C78.0684 9.08766 77.985 9.14432 77.8884 9.18766C77.7917 9.22766 77.6884 9.24766 77.5784 9.24766C77.4717 9.24766 77.37 9.22766 77.2734 9.18766C77.18 9.14432 77.0984 9.08766 77.0284 9.01766C76.9584 8.94766 76.9017 8.86599 76.8584 8.77266C76.8184 8.67932 76.7984 8.57932 76.7984 8.47266C76.7984 8.36266 76.8184 8.25932 76.8584 8.16266C76.9017 8.06599 76.9584 7.98266 77.0284 7.91266C77.0984 7.84266 77.18 7.78766 77.2734 7.74766C77.37 7.70432 77.4717 7.68266 77.5784 7.68266C77.6884 7.68266 77.7917 7.70432 77.8884 7.74766C77.985 7.78766 78.0684 7.84266 78.1384 7.91266C78.2117 7.98266 78.27 8.06599 78.3134 8.16266C78.3567 8.25932 78.3784 8.36266 78.3784 8.47266ZM81.7374 9.88766C82.1174 9.88766 82.4624 9.94932 82.7724 10.0727C83.0858 10.196 83.3524 10.371 83.5724 10.5977C83.7958 10.8243 83.9674 11.101 84.0874 11.4277C84.2074 11.7543 84.2674 12.1193 84.2674 12.5227C84.2674 12.9293 84.2074 13.296 84.0874 13.6227C83.9674 13.9493 83.7958 14.2277 83.5724 14.4577C83.3524 14.6877 83.0858 14.8643 82.7724 14.9877C82.4624 15.111 82.1174 15.1727 81.7374 15.1727C81.3541 15.1727 81.0058 15.111 80.6924 14.9877C80.3791 14.8643 80.1108 14.6877 79.8874 14.4577C79.6674 14.2277 79.4958 13.9493 79.3724 13.6227C79.2524 13.296 79.1924 12.9293 79.1924 12.5227C79.1924 12.1193 79.2524 11.7543 79.3724 11.4277C79.4958 11.101 79.6674 10.8243 79.8874 10.5977C80.1108 10.371 80.3791 10.196 80.6924 10.0727C81.0058 9.94932 81.3541 9.88766 81.7374 9.88766ZM81.7374 14.2227C82.1641 14.2227 82.4791 14.0793 82.6824 13.7927C82.8891 13.506 82.9924 13.086 82.9924 12.5327C82.9924 11.9793 82.8891 11.5577 82.6824 11.2677C82.4791 10.9777 82.1641 10.8327 81.7374 10.8327C81.3041 10.8327 80.9824 10.9793 80.7724 11.2727C80.5658 11.5627 80.4624 11.9827 80.4624 12.5327C80.4624 13.0827 80.5658 13.5027 80.7724 13.7927C80.9824 14.0793 81.3041 14.2227 81.7374 14.2227ZM86.3646 10.5977C86.4679 10.4943 86.5763 10.3993 86.6896 10.3127C86.8063 10.2227 86.9279 10.1477 87.0546 10.0877C87.1846 10.0243 87.3229 9.97599 87.4696 9.94266C87.6163 9.90599 87.7763 9.88766 87.9496 9.88766C88.2296 9.88766 88.4779 9.93599 88.6946 10.0327C88.9113 10.126 89.0913 10.2593 89.2346 10.4327C89.3813 10.6027 89.4913 10.8077 89.5646 11.0477C89.6413 11.2843 89.6796 11.546 89.6796 11.8327V15.0977H88.4446V11.8327C88.4446 11.5193 88.3729 11.2777 88.2296 11.1077C88.0863 10.9343 87.8679 10.8477 87.5746 10.8477C87.3613 10.8477 87.1613 10.896 86.9746 10.9927C86.7879 11.0893 86.6113 11.221 86.4446 11.3877V15.0977H85.2096V9.96766H85.9646C86.1246 9.96766 86.2296 10.0427 86.2796 10.1927L86.3646 10.5977Z" fill="white"/>
<path d="M42.804 23.2821V22.6181H44.308V28.4021H43.572V23.2821H42.804ZM45.3665 23.2821V22.6181H46.8705V28.4021H46.1345V23.2821H45.3665ZM47.929 23.2821V22.6181H49.433V28.4021H48.697V23.2821H47.929ZM56.1683 27.2021L54.8963 25.9301L53.6243 27.2021L53.1443 26.7221L54.4163 25.4501L53.1683 24.2021L53.6323 23.7301L54.8883 24.9861L56.1443 23.7301L56.6243 24.2101L55.3683 25.4661L56.6323 26.7381L56.1683 27.2021ZM61.1458 25.3941C60.8471 25.2768 60.6178 25.1061 60.4578 24.8821C60.2978 24.6581 60.2178 24.3861 60.2178 24.0661C60.2178 23.7781 60.2898 23.5194 60.4338 23.2901C60.5778 23.0554 60.7911 22.8714 61.0738 22.7381C61.3618 22.5994 61.7084 22.5301 62.1138 22.5301C62.5191 22.5301 62.8631 22.5994 63.1458 22.7381C63.4338 22.8714 63.6498 23.0554 63.7938 23.2901C63.9431 23.5194 64.0178 23.7781 64.0178 24.0661C64.0178 24.3754 63.9351 24.6474 63.7698 24.8821C63.6044 25.1114 63.3778 25.2821 63.0898 25.3941C63.4204 25.4954 63.6818 25.6741 63.8738 25.9301C64.0711 26.1808 64.1698 26.4848 64.1698 26.8421C64.1698 27.1888 64.0844 27.4928 63.9138 27.7541C63.7431 28.0101 63.5004 28.2101 63.1858 28.3541C62.8764 28.4928 62.5191 28.5621 62.1138 28.5621C61.7084 28.5621 61.3511 28.4928 61.0418 28.3541C60.7378 28.2101 60.5004 28.0101 60.3298 27.7541C60.1591 27.4928 60.0738 27.1888 60.0738 26.8421C60.0738 26.4848 60.1698 26.1781 60.3618 25.9221C60.5537 25.6661 60.8151 25.4901 61.1458 25.3941ZM63.3138 24.1541C63.3138 23.8288 63.2071 23.5781 62.9938 23.4021C62.7804 23.2261 62.4871 23.1381 62.1138 23.1381C61.7458 23.1381 61.4551 23.2261 61.2418 23.4021C61.0284 23.5781 60.9218 23.8314 60.9218 24.1621C60.9218 24.4608 61.0311 24.7008 61.2498 24.8821C61.4738 25.0634 61.7618 25.1541 62.1138 25.1541C62.4711 25.1541 62.7591 25.0634 62.9778 24.8821C63.2018 24.6954 63.3138 24.4528 63.3138 24.1541ZM62.1138 25.7141C61.7191 25.7141 61.3964 25.8074 61.1458 25.9941C60.8951 26.1754 60.7697 26.4501 60.7697 26.8181C60.7697 27.1594 60.8898 27.4341 61.1298 27.6421C61.3751 27.8501 61.7031 27.9541 62.1138 27.9541C62.5244 27.9541 62.8498 27.8501 63.0898 27.6421C63.3298 27.4341 63.4498 27.1594 63.4498 26.8181C63.4498 26.4608 63.3271 26.1888 63.0818 26.0021C62.8364 25.8101 62.5138 25.7141 62.1138 25.7141ZM64.9606 27.1141V26.5621L67.7686 22.6741H68.6406V26.4821H69.4406V27.1141H68.6406V28.4021H67.9206V27.1141H64.9606ZM67.9526 23.4341L65.8006 26.4821H67.9526V23.4341ZM75.6527 27.2021L74.3807 25.9301L73.1087 27.2021L72.6287 26.7221L73.9007 25.4501L72.6527 24.2021L73.1167 23.7301L74.3727 24.9861L75.6287 23.7301L76.1087 24.2101L74.8527 25.4661L76.1167 26.7381L75.6527 27.2021ZM83.1341 23.1861L80.9101 28.4021H80.1741L82.4301 23.2581H79.3421V22.6341H83.1341V23.1861ZM84.8773 26.8501C84.9306 27.1541 85.0533 27.3888 85.2453 27.5541C85.4426 27.7194 85.7066 27.8021 86.0373 27.8021C86.48 27.8021 86.8053 27.6288 87.0133 27.2821C87.2266 26.9354 87.328 26.3514 87.3173 25.5301C87.2053 25.7701 87.0186 25.9594 86.7573 26.0981C86.496 26.2314 86.2053 26.2981 85.8853 26.2981C85.528 26.2981 85.208 26.2261 84.9253 26.0821C84.648 25.9328 84.4293 25.7168 84.2693 25.4341C84.1093 25.1514 84.0293 24.8101 84.0293 24.4101C84.0293 23.8394 84.1946 23.3808 84.5253 23.0341C84.856 22.6821 85.3253 22.5061 85.9333 22.5061C86.68 22.5061 87.2026 22.7488 87.5013 23.2341C87.8053 23.7194 87.9573 24.4421 87.9573 25.4021C87.9573 26.0741 87.896 26.6288 87.7733 27.0661C87.656 27.5034 87.4533 27.8368 87.1653 28.0661C86.8826 28.2954 86.4933 28.4101 85.9973 28.4101C85.4533 28.4101 85.0293 28.2634 84.7253 27.9701C84.4213 27.6768 84.248 27.3034 84.2053 26.8501H84.8773ZM86.0053 25.6821C86.3626 25.6821 86.656 25.5728 86.8853 25.3541C87.1146 25.1301 87.2293 24.8288 87.2293 24.4501C87.2293 24.0501 87.1173 23.7274 86.8933 23.4821C86.6693 23.2368 86.3546 23.1141 85.9493 23.1141C85.576 23.1141 85.2773 23.2314 85.0533 23.4661C84.8346 23.7008 84.7253 24.0101 84.7253 24.3941C84.7253 24.7834 84.8346 25.0954 85.0533 25.3301C85.272 25.5648 85.5893 25.6821 86.0053 25.6821ZM96.5052 23.9381C96.8465 23.9381 97.1505 24.0101 97.4172 24.1541C97.6839 24.2928 97.8945 24.5034 98.0492 24.7861C98.2039 25.0688 98.2812 25.4128 98.2812 25.8181V28.4021H97.5612V25.9221C97.5612 25.4848 97.4519 25.1514 97.2332 24.9221C97.0199 24.6874 96.7292 24.5701 96.3612 24.5701C95.9825 24.5701 95.6812 24.6928 95.4572 24.9381C95.2332 25.1781 95.1212 25.5274 95.1212 25.9861V28.4021H94.4012V25.9221C94.4012 25.4848 94.2919 25.1514 94.0732 24.9221C93.8599 24.6874 93.5692 24.5701 93.2012 24.5701C92.8225 24.5701 92.5212 24.6928 92.2972 24.9381C92.0732 25.1781 91.9612 25.5274 91.9612 25.9861V28.4021H91.2332V24.0181H91.9612V24.6501C92.1052 24.4208 92.2972 24.2448 92.5372 24.1221C92.7825 23.9994 93.0519 23.9381 93.3452 23.9381C93.7132 23.9381 94.0385 24.0208 94.3212 24.1861C94.6039 24.3514 94.8145 24.5941 94.9532 24.9141C95.0759 24.6048 95.2785 24.3648 95.5612 24.1941C95.8439 24.0234 96.1585 23.9381 96.5052 23.9381ZM104.747 23.9381C105.089 23.9381 105.393 24.0101 105.659 24.1541C105.926 24.2928 106.137 24.5034 106.291 24.7861C106.446 25.0688 106.523 25.4128 106.523 25.8181V28.4021H105.803V25.9221C105.803 25.4848 105.694 25.1514 105.475 24.9221C105.262 24.6874 104.971 24.5701 104.603 24.5701C104.225 24.5701 103.923 24.6928 103.699 24.9381C103.475 25.1781 103.363 25.5274 103.363 25.9861V28.4021H102.643V25.9221C102.643 25.4848 102.534 25.1514 102.315 24.9221C102.102 24.6874 101.811 24.5701 101.443 24.5701C101.065 24.5701 100.763 24.6928 100.539 24.9381C100.315 25.1781 100.203 25.5274 100.203 25.9861V28.4021H99.4754V24.0181H100.203V24.6501C100.347 24.4208 100.539 24.2448 100.779 24.1221C101.025 23.9994 101.294 23.9381 101.587 23.9381C101.955 23.9381 102.281 24.0208 102.563 24.1861C102.846 24.3514 103.057 24.5941 103.195 24.9141C103.318 24.6048 103.521 24.3648 103.803 24.1941C104.086 24.0234 104.401 23.9381 104.747 23.9381Z" fill="white"/>
</svg>
